<svg xmlns="http://www.w3.org/2000/svg" xmlns:xlink="http://www.w3.org/1999/xlink" width="996.324" height="602.731" viewBox="0 0 996.324 602.731">
  <defs>
    <linearGradient id="linear-gradient" x1="1.5" y1="0.5" x2="2.5" y2="0.5" gradientUnits="objectBoundingBox">
      <stop offset="0.13" stop-color="#13161a"/>
      <stop offset="0.137" stop-color="#232d39"/>
      <stop offset="0.469" stop-color="#232d39"/>
      <stop offset="0.476" stop-color="#2d3c48"/>
      <stop offset="0.876" stop-color="#2d3c48"/>
      <stop offset="0.879" stop-color="#232d39"/>
    </linearGradient>
    <linearGradient id="linear-gradient-2" x1="10.112" y1="0.089" x2="10.725" y2="0.92" gradientUnits="objectBoundingBox">
      <stop offset="0.121" stop-color="#161c24"/>
      <stop offset="0.124" stop-color="#202b33"/>
      <stop offset="0.524" stop-color="#202b33"/>
      <stop offset="0.531" stop-color="#161c24"/>
      <stop offset="0.863" stop-color="#161c24"/>
      <stop offset="0.87" stop-color="#13161a"/>
    </linearGradient>
    <radialGradient id="radial-gradient" cx="0.573" cy="0.222" fx="0.3315599858760834" fy="0.2264329344034195" r="0.492" gradientTransform="matrix(-1.36, 0, 0, 1, -1.591, 0)" gradientUnits="objectBoundingBox">
      <stop offset="0" stop-color="#b3ff0e"/>
      <stop offset="1" stop-color="#7fb50a"/>
    </radialGradient>
  </defs>
  <g id="Grupo_1075484" data-name="Grupo 1075484" transform="translate(-403 -14115.269)">
    <path id="Trazado_825352" data-name="Trazado 825352" d="M10.016,13.563a4.068,4.068,0,0,1-1.789,1.176,7.492,7.492,0,0,1-2.562.418,5.076,5.076,0,0,1-2.59-.645,4.3,4.3,0,0,1-1.719-1.871A6.585,6.585,0,0,1,.734,9.758V8.984a6.994,6.994,0,0,1,.574-2.949A4.248,4.248,0,0,1,2.965,4.129,4.771,4.771,0,0,1,5.5,3.469a4.751,4.751,0,0,1,3.164.965,4.123,4.123,0,0,1,1.352,2.809H7.734a2.268,2.268,0,0,0-.691-1.43A2.208,2.208,0,0,0,5.57,5.359a2.078,2.078,0,0,0-1.82.9A4.724,4.724,0,0,0,3.117,8.93v.727a4.5,4.5,0,0,0,.68,2.7,2.327,2.327,0,0,0,1.992.914,2.6,2.6,0,0,0,1.883-.562V10.75H5.539V9.023h4.477ZM11.914,15V3.625h3.5A5.315,5.315,0,0,1,18.1,4.3a4.712,4.712,0,0,1,1.848,1.922,5.928,5.928,0,0,1,.664,2.832v.523a5.945,5.945,0,0,1-.652,2.82,4.672,4.672,0,0,1-1.84,1.914,5.355,5.355,0,0,1-2.68.688Zm2.344-9.477v7.594h1.133a2.545,2.545,0,0,0,2.1-.9,4.06,4.06,0,0,0,.742-2.57v-.6a4.124,4.124,0,0,0-.719-2.629,2.537,2.537,0,0,0-2.1-.895ZM22.313,15V3.625H26.3a5.232,5.232,0,0,1,3.141.793,2.712,2.712,0,0,1,1.07,2.324,2.57,2.57,0,0,1-.43,1.473,2.482,2.482,0,0,1-1.2.934,2.4,2.4,0,0,1,1.379.883,2.61,2.61,0,0,1,.5,1.625,3,3,0,0,1-1.047,2.484A4.713,4.713,0,0,1,26.734,15Zm2.344-4.953v3.07h2.008a1.938,1.938,0,0,0,1.293-.395,1.353,1.353,0,0,0,.465-1.09A1.428,1.428,0,0,0,26.8,10.047Zm0-1.656h1.734q1.773-.031,1.773-1.414a1.307,1.307,0,0,0-.449-1.113,2.363,2.363,0,0,0-1.418-.34H24.656Zm12.078,2.445H34.867V15H32.523V3.625H36.75a4.778,4.778,0,0,1,3.109.9,3.1,3.1,0,0,1,1.094,2.539A3.5,3.5,0,0,1,40.449,9a3.437,3.437,0,0,1-1.527,1.238l2.461,4.648V15H38.867Zm-1.867-1.9h1.891a1.936,1.936,0,0,0,1.367-.449,1.606,1.606,0,0,0,.484-1.238,1.719,1.719,0,0,0-.457-1.266,1.9,1.9,0,0,0-1.4-.461H34.867Z" transform="translate(556.5 14111.8)" fill="#00104e"/>
    <path id="Trazado_825364" data-name="Trazado 825364" d="M2.82,10.547V15H1.32V3.625h4.2a4.215,4.215,0,0,1,2.926.953A3.231,3.231,0,0,1,9.5,7.1,3.189,3.189,0,0,1,8.465,9.652a4.4,4.4,0,0,1-2.965.895Zm0-1.227h2.7a2.7,2.7,0,0,0,1.844-.567A2.075,2.075,0,0,0,8,7.113a2.143,2.143,0,0,0-.641-1.628A2.525,2.525,0,0,0,5.6,4.852H2.82Zm15.023.422h-4.93v4.031h5.727V15H11.414V3.625h7.148V4.852H12.914V8.516h4.93Zm10.68-4.891H24.867V15H23.375V4.852H19.727V3.625h8.8ZM31.82,15h-1.5V3.625h1.5ZM42.93,11.391A4.185,4.185,0,0,1,41.6,14.176a4.365,4.365,0,0,1-2.98.98,4.008,4.008,0,0,1-3.23-1.445,5.815,5.815,0,0,1-1.215-3.867V8.75a6.481,6.481,0,0,1,.566-2.789,4.231,4.231,0,0,1,1.605-1.848,4.47,4.47,0,0,1,2.406-.645A4.11,4.11,0,0,1,41.656,4.48a4.235,4.235,0,0,1,1.273,2.8H41.422a3.268,3.268,0,0,0-.848-1.975A2.565,2.565,0,0,0,38.75,4.7,2.684,2.684,0,0,0,36.5,5.759a4.882,4.882,0,0,0-.816,3.026v1.1a5.018,5.018,0,0,0,.773,2.948,2.5,2.5,0,0,0,2.164,1.095,2.887,2.887,0,0,0,1.918-.566,3.143,3.143,0,0,0,.887-1.973ZM46.586,15h-1.5V3.625h1.5ZM58.078,9.68a7.037,7.037,0,0,1-.562,2.918,4.261,4.261,0,0,1-1.594,1.9,4.4,4.4,0,0,1-6.4-1.887,6.752,6.752,0,0,1-.59-2.832v-.82a6.953,6.953,0,0,1,.57-2.9,4.218,4.218,0,0,1,4-2.594,4.41,4.41,0,0,1,2.41.66,4.253,4.253,0,0,1,1.605,1.914,7.071,7.071,0,0,1,.563,2.918Zm-1.492-.734a5.1,5.1,0,0,0-.812-3.105A2.68,2.68,0,0,0,53.5,4.758,2.651,2.651,0,0,0,51.262,5.84a5,5,0,0,0-.84,3V9.68a5.107,5.107,0,0,0,.824,3.082,2.888,2.888,0,0,0,4.52.063,5.079,5.079,0,0,0,.82-3.035ZM69.07,15H67.563L61.836,6.234V15H60.328V3.625h1.508l5.742,8.8v-8.8H69.07Zm9.094-5.258h-4.93v4.031h5.727V15H71.734V3.625h7.148V4.852H73.234V8.516h4.93Zm6.016.188a7.053,7.053,0,0,1-2.809-1.363,2.6,2.6,0,0,1-.879-2,2.751,2.751,0,0,1,1.074-2.223,4.269,4.269,0,0,1,2.793-.879,4.66,4.66,0,0,1,2.09.453,3.436,3.436,0,0,1,1.422,1.25,3.2,3.2,0,0,1,.5,1.742H86.867a2.08,2.08,0,0,0-.656-1.627A2.669,2.669,0,0,0,84.359,4.7a2.732,2.732,0,0,0-1.73.489,1.632,1.632,0,0,0-.621,1.358A1.468,1.468,0,0,0,82.6,7.72a5.785,5.785,0,0,0,2.008.88,9.316,9.316,0,0,1,2.219.88A3.367,3.367,0,0,1,88.012,10.6a2.861,2.861,0,0,1,.387,1.508,2.658,2.658,0,0,1-1.078,2.215,4.6,4.6,0,0,1-2.883.832,5.347,5.347,0,0,1-2.187-.449,3.681,3.681,0,0,1-1.566-1.23,3,3,0,0,1-.551-1.773h1.508a1.959,1.959,0,0,0,.762,1.629,3.207,3.207,0,0,0,2.035.6,2.948,2.948,0,0,0,1.82-.484,1.573,1.573,0,0,0,.633-1.32,1.545,1.545,0,0,0-.586-1.293A6.755,6.755,0,0,0,84.18,9.93ZM94.281,15V3.625h3.211a5.169,5.169,0,0,1,2.625.656,4.438,4.438,0,0,1,1.762,1.867,6.078,6.078,0,0,1,.629,2.781v.727a6.1,6.1,0,0,1-.621,2.82,4.369,4.369,0,0,1-1.773,1.859A5.5,5.5,0,0,1,97.43,15Zm1.5-10.148v8.922h1.578a3.434,3.434,0,0,0,2.7-1.079,4.458,4.458,0,0,0,.965-3.073V8.957a4.529,4.529,0,0,0-.91-3.014,3.239,3.239,0,0,0-2.582-1.091ZM111.2,9.742h-4.93v4.031H112V15h-7.227V3.625h7.148V4.852h-5.648V8.516h4.93Zm4.172,4.031h5.391V15h-6.9V3.625h1.508Zm19.07-10.148v7.734a3.628,3.628,0,0,1-1.012,2.633,4.077,4.077,0,0,1-2.723,1.148l-.4.016a4.258,4.258,0,0,1-2.977-1.008,3.6,3.6,0,0,1-1.125-2.773V3.625H127.7v7.7a2.6,2.6,0,0,0,.68,1.918,3.111,3.111,0,0,0,3.887,0,2.6,2.6,0,0,0,.676-1.914V3.625Zm5.719,6.3a7.053,7.053,0,0,1-2.809-1.363,2.6,2.6,0,0,1-.879-2,2.752,2.752,0,0,1,1.074-2.223,4.269,4.269,0,0,1,2.793-.879,4.66,4.66,0,0,1,2.09.453,3.436,3.436,0,0,1,1.422,1.25,3.2,3.2,0,0,1,.5,1.742h-1.508a2.08,2.08,0,0,0-.656-1.627,2.669,2.669,0,0,0-1.852-.592,2.732,2.732,0,0,0-1.73.489,1.632,1.632,0,0,0-.621,1.358,1.468,1.468,0,0,0,.59,1.178,5.786,5.786,0,0,0,2.008.88,9.316,9.316,0,0,1,2.219.88A3.367,3.367,0,0,1,144,10.6a2.861,2.861,0,0,1,.387,1.508,2.658,2.658,0,0,1-1.078,2.215,4.6,4.6,0,0,1-2.883.832,5.347,5.347,0,0,1-2.187-.449,3.681,3.681,0,0,1-1.566-1.23,3,3,0,0,1-.551-1.773h1.508a1.959,1.959,0,0,0,.762,1.629,3.207,3.207,0,0,0,2.035.6,2.948,2.948,0,0,0,1.82-.484,1.573,1.573,0,0,0,.633-1.32,1.545,1.545,0,0,0-.586-1.293A6.755,6.755,0,0,0,140.164,9.93Zm14.148-6.3v7.734a3.628,3.628,0,0,1-1.012,2.633,4.077,4.077,0,0,1-2.723,1.148l-.4.016a4.258,4.258,0,0,1-2.977-1.008,3.6,3.6,0,0,1-1.125-2.773V3.625h1.484v7.7a2.6,2.6,0,0,0,.68,1.918,3.111,3.111,0,0,0,3.887,0,2.6,2.6,0,0,0,.676-1.914V3.625Zm8.477,8.4h-4.766L156.953,15h-1.547L159.75,3.625h1.313L165.414,15h-1.539ZM158.477,10.8h3.867l-1.937-5.32Zm12.641-.4h-2.672V15h-1.508V3.625H170.7a4.457,4.457,0,0,1,2.957.875A3.148,3.148,0,0,1,174.7,7.047a3.062,3.062,0,0,1-.574,1.852,3.428,3.428,0,0,1-1.6,1.18l2.672,4.828V15h-1.609Zm-2.672-1.227h2.3a2.6,2.6,0,0,0,1.777-.579,1.959,1.959,0,0,0,.66-1.55,2.062,2.062,0,0,0-.629-1.62,2.663,2.663,0,0,0-1.816-.571h-2.3ZM178.406,15h-1.5V3.625h1.5ZM189.9,9.68a7.037,7.037,0,0,1-.562,2.918,4.261,4.261,0,0,1-1.594,1.9,4.4,4.4,0,0,1-6.4-1.887,6.752,6.752,0,0,1-.59-2.832v-.82a6.953,6.953,0,0,1,.57-2.9,4.218,4.218,0,0,1,4-2.594,4.41,4.41,0,0,1,2.41.66,4.253,4.253,0,0,1,1.605,1.914,7.071,7.071,0,0,1,.563,2.918Zm-1.492-.734a5.1,5.1,0,0,0-.812-3.105,2.68,2.68,0,0,0-2.273-1.082,2.651,2.651,0,0,0-2.238,1.082,5,5,0,0,0-.84,3V9.68a5.107,5.107,0,0,0,.824,3.082,2.888,2.888,0,0,0,4.52.063,5.079,5.079,0,0,0,.82-3.035Z" transform="translate(903.35 14609.649)" fill="#00104e"/>
    <path id="Trazado_825366" data-name="Trazado 825366" d="M38.777,10.4H36.105V15H34.6V3.625h3.766A4.457,4.457,0,0,1,41.32,4.5a3.148,3.148,0,0,1,1.035,2.547A3.062,3.062,0,0,1,41.781,8.9a3.428,3.428,0,0,1-1.6,1.18l2.672,4.828V15H41.246ZM36.105,9.172h2.3a2.6,2.6,0,0,0,1.777-.579,1.959,1.959,0,0,0,.66-1.55,2.062,2.062,0,0,0-.629-1.62A2.663,2.663,0,0,0,38.4,4.852h-2.3Zm14.781.57h-4.93v4.031h5.727V15H44.457V3.625h7.148V4.852H45.957V8.516h4.93ZM56.9,9.93a7.053,7.053,0,0,1-2.809-1.363,2.6,2.6,0,0,1-.879-2,2.751,2.751,0,0,1,1.074-2.223,4.269,4.269,0,0,1,2.793-.879,4.66,4.66,0,0,1,2.09.453,3.436,3.436,0,0,1,1.422,1.25,3.2,3.2,0,0,1,.5,1.742H59.59a2.08,2.08,0,0,0-.656-1.627A2.669,2.669,0,0,0,57.082,4.7a2.732,2.732,0,0,0-1.73.489,1.632,1.632,0,0,0-.621,1.358,1.468,1.468,0,0,0,.59,1.178,5.785,5.785,0,0,0,2.008.88,9.316,9.316,0,0,1,2.219.88A3.367,3.367,0,0,1,60.734,10.6a2.861,2.861,0,0,1,.387,1.508,2.658,2.658,0,0,1-1.078,2.215,4.6,4.6,0,0,1-2.883.832,5.347,5.347,0,0,1-2.187-.449,3.681,3.681,0,0,1-1.566-1.23,3,3,0,0,1-.551-1.773h1.508a1.959,1.959,0,0,0,.762,1.629,3.207,3.207,0,0,0,2.035.6,2.948,2.948,0,0,0,1.82-.484,1.573,1.573,0,0,0,.633-1.32,1.545,1.545,0,0,0-.586-1.293A6.755,6.755,0,0,0,56.9,9.93Zm7.641.617V15h-1.5V3.625h4.2a4.215,4.215,0,0,1,2.926.953A3.231,3.231,0,0,1,71.223,7.1a3.189,3.189,0,0,1-1.035,2.551,4.4,4.4,0,0,1-2.965.895Zm0-1.227h2.7a2.7,2.7,0,0,0,1.844-.567,2.075,2.075,0,0,0,.641-1.64,2.143,2.143,0,0,0-.641-1.628,2.525,2.525,0,0,0-1.758-.634H64.543Zm16.6-5.7v7.734a3.628,3.628,0,0,1-1.012,2.633,4.077,4.077,0,0,1-2.723,1.148l-.4.016a4.258,4.258,0,0,1-2.977-1.008,3.6,3.6,0,0,1-1.125-2.773V3.625h1.484v7.7a2.6,2.6,0,0,0,.68,1.918,3.111,3.111,0,0,0,3.887,0,2.6,2.6,0,0,0,.676-1.914V3.625Zm8.8,6.117h-4.93v4.031h5.727V15H83.512V3.625H90.66V4.852H85.012V8.516h4.93Zm6.016.188a7.053,7.053,0,0,1-2.809-1.363,2.6,2.6,0,0,1-.879-2,2.751,2.751,0,0,1,1.074-2.223,4.269,4.269,0,0,1,2.793-.879,4.66,4.66,0,0,1,2.09.453,3.436,3.436,0,0,1,1.422,1.25,3.2,3.2,0,0,1,.5,1.742H98.645a2.08,2.08,0,0,0-.656-1.627A2.669,2.669,0,0,0,96.137,4.7a2.732,2.732,0,0,0-1.73.489,1.632,1.632,0,0,0-.621,1.358,1.468,1.468,0,0,0,.59,1.178,5.785,5.785,0,0,0,2.008.88,9.316,9.316,0,0,1,2.219.88A3.367,3.367,0,0,1,99.789,10.6a2.861,2.861,0,0,1,.387,1.508A2.658,2.658,0,0,1,99.1,14.324a4.6,4.6,0,0,1-2.883.832,5.347,5.347,0,0,1-2.187-.449,3.681,3.681,0,0,1-1.566-1.23A3,3,0,0,1,91.91,11.7h1.508a1.959,1.959,0,0,0,.762,1.629,3.207,3.207,0,0,0,2.035.6,2.948,2.948,0,0,0,1.82-.484,1.573,1.573,0,0,0,.633-1.32,1.545,1.545,0,0,0-.586-1.293A6.755,6.755,0,0,0,95.957,9.93Zm14-5.078H106.3V15h-1.492V4.852H101.16V3.625h8.8Zm7.352,7.172h-4.766L111.473,15h-1.547L114.27,3.625h1.313L119.934,15h-1.539ZM113,10.8h3.867l-1.937-5.32Zm16.141-2.812,2.727-4.359h1.766l-3.594,5.641L133.715,15h-1.781l-2.8-4.437L126.324,15h-1.773l3.688-5.734-3.6-5.641h1.758Zm8.258-4.359,3.719,9.281,3.719-9.281h1.945V15h-1.5V10.57l.141-4.781L141.684,15h-1.148l-3.727-9.187.148,4.758V15h-1.5V3.625Zm13.539,10.148h5.391V15h-6.9V3.625h1.508Z" transform="translate(1243 14609.649)" fill="#00104e"/>
    <path id="Trazado_825360" data-name="Trazado 825360" d="M2.82,10.547V15H1.32V3.625h4.2a4.215,4.215,0,0,1,2.926.953A3.231,3.231,0,0,1,9.5,7.1,3.189,3.189,0,0,1,8.465,9.652a4.4,4.4,0,0,1-2.965.895Zm0-1.227h2.7a2.7,2.7,0,0,0,1.844-.567A2.075,2.075,0,0,0,8,7.113a2.143,2.143,0,0,0-.641-1.628A2.525,2.525,0,0,0,5.6,4.852H2.82Zm15.023.422h-4.93v4.031h5.727V15H11.414V3.625h7.148V4.852H12.914V8.516h4.93Zm10.68-4.891H24.867V15H23.375V4.852H19.727V3.625h8.8ZM31.82,15h-1.5V3.625h1.5ZM42.93,11.391A4.185,4.185,0,0,1,41.6,14.176a4.365,4.365,0,0,1-2.98.98,4.008,4.008,0,0,1-3.23-1.445,5.815,5.815,0,0,1-1.215-3.867V8.75a6.481,6.481,0,0,1,.566-2.789,4.231,4.231,0,0,1,1.605-1.848,4.47,4.47,0,0,1,2.406-.645A4.11,4.11,0,0,1,41.656,4.48a4.235,4.235,0,0,1,1.273,2.8H41.422a3.268,3.268,0,0,0-.848-1.975A2.565,2.565,0,0,0,38.75,4.7,2.684,2.684,0,0,0,36.5,5.759a4.882,4.882,0,0,0-.816,3.026v1.1a5.018,5.018,0,0,0,.773,2.948,2.5,2.5,0,0,0,2.164,1.095,2.887,2.887,0,0,0,1.918-.566,3.143,3.143,0,0,0,.887-1.973ZM46.586,15h-1.5V3.625h1.5ZM58.078,9.68a7.037,7.037,0,0,1-.562,2.918,4.261,4.261,0,0,1-1.594,1.9,4.4,4.4,0,0,1-6.4-1.887,6.752,6.752,0,0,1-.59-2.832v-.82a6.953,6.953,0,0,1,.57-2.9,4.218,4.218,0,0,1,4-2.594,4.41,4.41,0,0,1,2.41.66,4.253,4.253,0,0,1,1.605,1.914,7.071,7.071,0,0,1,.563,2.918Zm-1.492-.734a5.1,5.1,0,0,0-.812-3.105A2.68,2.68,0,0,0,53.5,4.758,2.651,2.651,0,0,0,51.262,5.84a5,5,0,0,0-.84,3V9.68a5.107,5.107,0,0,0,.824,3.082,2.888,2.888,0,0,0,4.52.063,5.079,5.079,0,0,0,.82-3.035ZM69.07,15H67.563L61.836,6.234V15H60.328V3.625h1.508l5.742,8.8v-8.8H69.07Zm9.094-5.258h-4.93v4.031h5.727V15H71.734V3.625h7.148V4.852H73.234V8.516h4.93Zm6.016.188a7.053,7.053,0,0,1-2.809-1.363,2.6,2.6,0,0,1-.879-2,2.751,2.751,0,0,1,1.074-2.223,4.269,4.269,0,0,1,2.793-.879,4.66,4.66,0,0,1,2.09.453,3.436,3.436,0,0,1,1.422,1.25,3.2,3.2,0,0,1,.5,1.742H86.867a2.08,2.08,0,0,0-.656-1.627A2.669,2.669,0,0,0,84.359,4.7a2.732,2.732,0,0,0-1.73.489,1.632,1.632,0,0,0-.621,1.358A1.468,1.468,0,0,0,82.6,7.72a5.785,5.785,0,0,0,2.008.88,9.316,9.316,0,0,1,2.219.88A3.367,3.367,0,0,1,88.012,10.6a2.861,2.861,0,0,1,.387,1.508,2.658,2.658,0,0,1-1.078,2.215,4.6,4.6,0,0,1-2.883.832,5.347,5.347,0,0,1-2.187-.449,3.681,3.681,0,0,1-1.566-1.23,3,3,0,0,1-.551-1.773h1.508a1.959,1.959,0,0,0,.762,1.629,3.207,3.207,0,0,0,2.035.6,2.948,2.948,0,0,0,1.82-.484,1.573,1.573,0,0,0,.633-1.32,1.545,1.545,0,0,0-.586-1.293A6.755,6.755,0,0,0,84.18,9.93Zm13.57-.594,2.969-5.711h1.7L98.5,10.758V15H97V10.758L93.078,3.625H94.8ZM9.18,28.852H5.523V39H4.031V28.852H.383V27.625h8.8ZM15.039,34.4H12.367V39H10.859V27.625h3.766a4.457,4.457,0,0,1,2.957.875,3.148,3.148,0,0,1,1.035,2.547,3.062,3.062,0,0,1-.574,1.852,3.428,3.428,0,0,1-1.6,1.18l2.672,4.828V39H17.508Zm-2.672-1.227h2.3a2.6,2.6,0,0,0,1.777-.579,1.959,1.959,0,0,0,.66-1.55,2.062,2.062,0,0,0-.629-1.62,2.663,2.663,0,0,0-1.816-.571h-2.3ZM27,36.023H22.234L21.164,39H19.617l4.344-11.375h1.313L29.625,39H28.086ZM22.688,34.8h3.867l-1.937-5.32ZM39.9,39H38.391l-5.727-8.766V39H31.156V27.625h1.508l5.742,8.8v-8.8H39.9Zm6.016-5.07a7.053,7.053,0,0,1-2.809-1.363,2.6,2.6,0,0,1-.879-2A2.751,2.751,0,0,1,43.3,28.348a4.269,4.269,0,0,1,2.793-.879,4.66,4.66,0,0,1,2.09.453,3.436,3.436,0,0,1,1.422,1.25,3.2,3.2,0,0,1,.5,1.742H48.6a2.08,2.08,0,0,0-.656-1.627,2.669,2.669,0,0,0-1.852-.592,2.732,2.732,0,0,0-1.73.489,1.632,1.632,0,0,0-.621,1.358,1.468,1.468,0,0,0,.59,1.178,5.786,5.786,0,0,0,2.008.88,9.316,9.316,0,0,1,2.219.88A3.367,3.367,0,0,1,49.746,34.6a2.861,2.861,0,0,1,.387,1.508,2.658,2.658,0,0,1-1.078,2.215,4.6,4.6,0,0,1-2.883.832,5.347,5.347,0,0,1-2.187-.449,3.681,3.681,0,0,1-1.566-1.23,3,3,0,0,1-.551-1.773h1.508a1.959,1.959,0,0,0,.762,1.629,3.207,3.207,0,0,0,2.035.6,2.948,2.948,0,0,0,1.82-.484,1.573,1.573,0,0,0,.633-1.32,1.545,1.545,0,0,0-.586-1.293A6.755,6.755,0,0,0,45.914,33.93Zm12.422,2.094H53.57L52.5,39H50.953L55.3,27.625h1.313L60.961,39H59.422ZM54.023,34.8h3.867l-1.937-5.32Zm16.75.594a4.185,4.185,0,0,1-1.332,2.785,4.365,4.365,0,0,1-2.98.98,4.008,4.008,0,0,1-3.23-1.445,5.815,5.815,0,0,1-1.215-3.867V32.75a6.481,6.481,0,0,1,.566-2.789,4.231,4.231,0,0,1,1.605-1.848,4.47,4.47,0,0,1,2.406-.645A4.11,4.11,0,0,1,69.5,28.48a4.235,4.235,0,0,1,1.273,2.8H69.266a3.268,3.268,0,0,0-.848-1.975,2.565,2.565,0,0,0-1.824-.611,2.684,2.684,0,0,0-2.254,1.063,4.882,4.882,0,0,0-.816,3.026v1.1a5.018,5.018,0,0,0,.773,2.948,2.5,2.5,0,0,0,2.164,1.095,2.886,2.886,0,0,0,1.918-.566,3.143,3.143,0,0,0,.887-1.973Zm10.414,0a4.185,4.185,0,0,1-1.332,2.785,4.365,4.365,0,0,1-2.98.98,4.008,4.008,0,0,1-3.23-1.445,5.815,5.815,0,0,1-1.215-3.867V32.75A6.481,6.481,0,0,1,73,29.961,4.231,4.231,0,0,1,74.6,28.113a4.47,4.47,0,0,1,2.406-.645,4.11,4.11,0,0,1,2.906,1.012,4.235,4.235,0,0,1,1.273,2.8H79.68a3.268,3.268,0,0,0-.848-1.975,2.565,2.565,0,0,0-1.824-.611,2.684,2.684,0,0,0-2.254,1.063,4.882,4.882,0,0,0-.816,3.026v1.1a5.018,5.018,0,0,0,.773,2.948,2.5,2.5,0,0,0,2.164,1.095,2.886,2.886,0,0,0,1.918-.566,3.143,3.143,0,0,0,.887-1.973ZM84.844,39h-1.5V27.625h1.5Zm11.492-5.32a7.037,7.037,0,0,1-.562,2.918,4.261,4.261,0,0,1-1.594,1.9,4.4,4.4,0,0,1-6.4-1.887,6.752,6.752,0,0,1-.59-2.832v-.82a6.953,6.953,0,0,1,.57-2.9,4.218,4.218,0,0,1,4-2.594,4.41,4.41,0,0,1,2.41.66,4.253,4.253,0,0,1,1.605,1.914,7.071,7.071,0,0,1,.563,2.918Zm-1.492-.734a5.1,5.1,0,0,0-.812-3.105,2.68,2.68,0,0,0-2.273-1.082A2.651,2.651,0,0,0,89.52,29.84a5,5,0,0,0-.84,3v.836a5.107,5.107,0,0,0,.824,3.082,2.888,2.888,0,0,0,4.52.063,5.079,5.079,0,0,0,.82-3.035ZM107.328,39H105.82l-5.727-8.766V39H98.586V27.625h1.508l5.742,8.8v-8.8h1.492Zm9.094-5.258h-4.93v4.031h5.727V39h-7.227V27.625h7.148v1.227h-5.648v3.664h4.93Zm6.016.188a7.053,7.053,0,0,1-2.809-1.363,2.6,2.6,0,0,1-.879-2,2.751,2.751,0,0,1,1.074-2.223,4.269,4.269,0,0,1,2.793-.879,4.66,4.66,0,0,1,2.09.453,3.436,3.436,0,0,1,1.422,1.25,3.2,3.2,0,0,1,.5,1.742h-1.508a2.08,2.08,0,0,0-.656-1.627,2.669,2.669,0,0,0-1.852-.592,2.732,2.732,0,0,0-1.73.489,1.632,1.632,0,0,0-.621,1.358,1.468,1.468,0,0,0,.59,1.178,5.786,5.786,0,0,0,2.008.88,9.316,9.316,0,0,1,2.219.88A3.367,3.367,0,0,1,126.27,34.6a2.861,2.861,0,0,1,.387,1.508,2.658,2.658,0,0,1-1.078,2.215,4.6,4.6,0,0,1-2.883.832,5.347,5.347,0,0,1-2.187-.449,3.681,3.681,0,0,1-1.566-1.23,3,3,0,0,1-.551-1.773H119.9a1.959,1.959,0,0,0,.762,1.629,3.207,3.207,0,0,0,2.035.6,2.948,2.948,0,0,0,1.82-.484,1.573,1.573,0,0,0,.633-1.32,1.545,1.545,0,0,0-.586-1.293A6.755,6.755,0,0,0,122.438,33.93Z" transform="translate(1189 14428.3)" fill="#00104e"/>
    <path id="Trazado_825357" data-name="Trazado 825357" d="M36.852,9.742h-4.93v4.031h5.727V15H30.422V3.625H37.57V4.852H31.922V8.516h4.93Zm6.016.188a7.053,7.053,0,0,1-2.809-1.363,2.6,2.6,0,0,1-.879-2,2.751,2.751,0,0,1,1.074-2.223,4.269,4.269,0,0,1,2.793-.879,4.66,4.66,0,0,1,2.09.453,3.436,3.436,0,0,1,1.422,1.25,3.2,3.2,0,0,1,.5,1.742H45.555A2.08,2.08,0,0,0,44.9,5.287,2.669,2.669,0,0,0,43.047,4.7a2.732,2.732,0,0,0-1.73.489A1.632,1.632,0,0,0,40.7,6.542a1.468,1.468,0,0,0,.59,1.178,5.785,5.785,0,0,0,2.008.88,9.316,9.316,0,0,1,2.219.88A3.367,3.367,0,0,1,46.7,10.6a2.861,2.861,0,0,1,.387,1.508,2.658,2.658,0,0,1-1.078,2.215,4.6,4.6,0,0,1-2.883.832,5.347,5.347,0,0,1-2.187-.449,3.681,3.681,0,0,1-1.566-1.23A3,3,0,0,1,38.82,11.7h1.508a1.959,1.959,0,0,0,.762,1.629,3.207,3.207,0,0,0,2.035.6,2.948,2.948,0,0,0,1.82-.484,1.573,1.573,0,0,0,.633-1.32,1.545,1.545,0,0,0-.586-1.293A6.755,6.755,0,0,0,42.867,9.93Zm14-5.078H53.211V15H51.719V4.852H48.07V3.625h8.8ZM62.727,10.4H60.055V15H58.547V3.625h3.766A4.457,4.457,0,0,1,65.27,4.5,3.148,3.148,0,0,1,66.3,7.047,3.062,3.062,0,0,1,65.73,8.9a3.428,3.428,0,0,1-1.6,1.18L66.8,14.906V15H65.2ZM60.055,9.172h2.3a2.6,2.6,0,0,0,1.777-.579,1.959,1.959,0,0,0,.66-1.55,2.062,2.062,0,0,0-.629-1.62,2.663,2.663,0,0,0-1.816-.571h-2.3ZM76.414,3.625v7.734A3.628,3.628,0,0,1,75.4,13.992a4.077,4.077,0,0,1-2.723,1.148l-.4.016A4.258,4.258,0,0,1,69.3,14.148a3.6,3.6,0,0,1-1.125-2.773V3.625h1.484v7.7a2.6,2.6,0,0,0,.68,1.918,3.111,3.111,0,0,0,3.887,0,2.6,2.6,0,0,0,.676-1.914V3.625Zm10.734,7.766a4.185,4.185,0,0,1-1.332,2.785,4.365,4.365,0,0,1-2.98.98,4.008,4.008,0,0,1-3.23-1.445,5.815,5.815,0,0,1-1.215-3.867V8.75a6.481,6.481,0,0,1,.566-2.789,4.231,4.231,0,0,1,1.605-1.848,4.47,4.47,0,0,1,2.406-.645A4.11,4.11,0,0,1,85.875,4.48a4.235,4.235,0,0,1,1.273,2.8H85.641a3.268,3.268,0,0,0-.848-1.975A2.565,2.565,0,0,0,82.969,4.7a2.684,2.684,0,0,0-2.254,1.063A4.882,4.882,0,0,0,79.9,8.785v1.1a5.018,5.018,0,0,0,.773,2.948,2.5,2.5,0,0,0,2.164,1.095,2.886,2.886,0,0,0,1.918-.566,3.143,3.143,0,0,0,.887-1.973Zm9.68-6.539H93.172V15H91.68V4.852H88.031V3.625h8.8Zm9.7-1.227v7.734a3.628,3.628,0,0,1-1.012,2.633,4.077,4.077,0,0,1-2.723,1.148l-.4.016a4.258,4.258,0,0,1-2.977-1.008,3.6,3.6,0,0,1-1.125-2.773V3.625h1.484v7.7a2.6,2.6,0,0,0,.68,1.918,3.111,3.111,0,0,0,3.887,0,2.6,2.6,0,0,0,.676-1.914V3.625Zm6.539,6.773h-2.672V15h-1.508V3.625h3.766a4.457,4.457,0,0,1,2.957.875,3.148,3.148,0,0,1,1.035,2.547,3.062,3.062,0,0,1-.574,1.852,3.428,3.428,0,0,1-1.6,1.18l2.672,4.828V15h-1.609Zm-2.672-1.227h2.3a2.6,2.6,0,0,0,1.777-.579,1.959,1.959,0,0,0,.66-1.55,2.062,2.062,0,0,0-.629-1.62,2.663,2.663,0,0,0-1.816-.571h-2.3Zm14.633,2.852h-4.766L119.188,15h-1.547l4.344-11.375H123.3L127.648,15h-1.539ZM120.711,10.8h3.867l-1.937-5.32Zm11.82-.867a7.053,7.053,0,0,1-2.809-1.363,2.6,2.6,0,0,1-.879-2,2.752,2.752,0,0,1,1.074-2.223,4.269,4.269,0,0,1,2.793-.879,4.66,4.66,0,0,1,2.09.453,3.436,3.436,0,0,1,1.422,1.25,3.2,3.2,0,0,1,.5,1.742h-1.508a2.08,2.08,0,0,0-.656-1.627,2.669,2.669,0,0,0-1.852-.592,2.732,2.732,0,0,0-1.73.489,1.632,1.632,0,0,0-.621,1.358,1.468,1.468,0,0,0,.59,1.178,5.786,5.786,0,0,0,2.008.88,9.316,9.316,0,0,1,2.219.88,3.367,3.367,0,0,1,1.188,1.121,2.861,2.861,0,0,1,.387,1.508,2.658,2.658,0,0,1-1.078,2.215,4.6,4.6,0,0,1-2.883.832,5.347,5.347,0,0,1-2.187-.449,3.681,3.681,0,0,1-1.566-1.23,3,3,0,0,1-.551-1.773h1.508a1.959,1.959,0,0,0,.762,1.629,3.207,3.207,0,0,0,2.035.6,2.948,2.948,0,0,0,1.82-.484,1.573,1.573,0,0,0,.633-1.32,1.545,1.545,0,0,0-.586-1.293A6.755,6.755,0,0,0,132.531,9.93Zm10.1,5.07V3.625h3.211a5.169,5.169,0,0,1,2.625.656,4.438,4.438,0,0,1,1.762,1.867,6.077,6.077,0,0,1,.629,2.781v.727a6.1,6.1,0,0,1-.621,2.82,4.369,4.369,0,0,1-1.773,1.859,5.5,5.5,0,0,1-2.684.664Zm1.5-10.148v8.922h1.578a3.434,3.434,0,0,0,2.7-1.079,4.458,4.458,0,0,0,.965-3.073V8.957a4.529,4.529,0,0,0-.91-3.014,3.239,3.239,0,0,0-2.582-1.091Zm15.422,4.891h-4.93v4.031h5.727V15h-7.227V3.625h7.148V4.852h-5.648V8.516h4.93ZM44.387,39h-1.5V27.625h1.5Zm11.484,0H54.363l-5.727-8.766V39H47.129V27.625h1.508l5.742,8.8v-8.8h1.492Zm8.938-5.023H60.035V39h-1.5V27.625h7.047v1.227H60.035v3.9h4.773Zm11.32-.3a7.037,7.037,0,0,1-.562,2.918,4.261,4.261,0,0,1-1.594,1.9,4.4,4.4,0,0,1-6.4-1.887,6.752,6.752,0,0,1-.59-2.832v-.82a6.953,6.953,0,0,1,.57-2.9,4.218,4.218,0,0,1,4-2.594,4.41,4.41,0,0,1,2.41.66,4.253,4.253,0,0,1,1.605,1.914,7.071,7.071,0,0,1,.563,2.918Zm-1.492-.734a5.1,5.1,0,0,0-.812-3.105,2.68,2.68,0,0,0-2.273-1.082,2.651,2.651,0,0,0-2.238,1.082,5,5,0,0,0-.84,3v.836a5.107,5.107,0,0,0,.824,3.082,2.888,2.888,0,0,0,4.52.063,5.079,5.079,0,0,0,.82-3.035ZM82.551,34.4H79.879V39H78.371V27.625h3.766a4.457,4.457,0,0,1,2.957.875,3.148,3.148,0,0,1,1.035,2.547,3.062,3.062,0,0,1-.574,1.852,3.428,3.428,0,0,1-1.6,1.18l2.672,4.828V39H85.02Zm-2.672-1.227h2.3a2.6,2.6,0,0,0,1.777-.579,1.959,1.959,0,0,0,.66-1.55,2.062,2.062,0,0,0-.629-1.62,2.663,2.663,0,0,0-1.816-.571h-2.3Zm10.289-5.547,3.719,9.281,3.719-9.281h1.945V39h-1.5V34.57l.141-4.781L94.457,39H93.309l-3.727-9.187.148,4.758V39h-1.5V27.625Zm18.453,8.4h-4.766L102.785,39h-1.547l4.344-11.375h1.313L111.246,39h-1.539ZM104.309,34.8h3.867l-1.937-5.32Zm16.75.594a4.185,4.185,0,0,1-1.332,2.785,4.365,4.365,0,0,1-2.98.98,4.008,4.008,0,0,1-3.23-1.445,5.815,5.815,0,0,1-1.215-3.867V32.75a6.481,6.481,0,0,1,.566-2.789,4.231,4.231,0,0,1,1.605-1.848,4.47,4.47,0,0,1,2.406-.645,4.11,4.11,0,0,1,2.906,1.012,4.235,4.235,0,0,1,1.273,2.8h-1.508a3.268,3.268,0,0,0-.848-1.975,2.565,2.565,0,0,0-1.824-.611,2.684,2.684,0,0,0-2.254,1.063,4.882,4.882,0,0,0-.816,3.026v1.1a5.018,5.018,0,0,0,.773,2.948,2.5,2.5,0,0,0,2.164,1.095,2.886,2.886,0,0,0,1.918-.566,3.143,3.143,0,0,0,.887-1.973ZM124.715,39h-1.5V27.625h1.5Zm11.492-5.32a7.037,7.037,0,0,1-.562,2.918,4.261,4.261,0,0,1-1.594,1.9,4.4,4.4,0,0,1-6.4-1.887,6.752,6.752,0,0,1-.59-2.832v-.82a6.953,6.953,0,0,1,.57-2.9,4.218,4.218,0,0,1,4-2.594,4.41,4.41,0,0,1,2.41.66,4.253,4.253,0,0,1,1.605,1.914,7.071,7.071,0,0,1,.563,2.918Zm-1.492-.734a5.1,5.1,0,0,0-.812-3.105,2.68,2.68,0,0,0-2.273-1.082,2.651,2.651,0,0,0-2.238,1.082,5,5,0,0,0-.84,3v.836a5.107,5.107,0,0,0,.824,3.082,2.888,2.888,0,0,0,4.52.063,5.079,5.079,0,0,0,.82-3.035Zm-2.352-8.367h1.75l-2.094,2.3-1.164,0ZM147.2,39h-1.508l-5.727-8.766V39h-1.508V27.625h1.508l5.742,8.8v-8.8H147.2Z" transform="translate(1189 14265.3)" fill="#00104e"/>
    <path id="Trazado_825361" data-name="Trazado 825361" d="M2.93,15H1.43V3.625h1.5Zm2.742,0V3.625H8.883a5.169,5.169,0,0,1,2.625.656A4.438,4.438,0,0,1,13.27,6.148,6.078,6.078,0,0,1,13.9,8.93v.727a6.1,6.1,0,0,1-.621,2.82A4.369,4.369,0,0,1,11.5,14.336,5.5,5.5,0,0,1,8.82,15Zm1.5-10.148v8.922H8.75a3.434,3.434,0,0,0,2.7-1.079,4.458,4.458,0,0,0,.965-3.073V8.957a4.529,4.529,0,0,0-.91-3.014A3.239,3.239,0,0,0,8.922,4.852ZM20.125,15V3.625h3.211a5.169,5.169,0,0,1,2.625.656,4.438,4.438,0,0,1,1.762,1.867,6.078,6.078,0,0,1,.629,2.781v.727a6.1,6.1,0,0,1-.621,2.82,4.369,4.369,0,0,1-1.773,1.859A5.5,5.5,0,0,1,23.273,15Zm1.5-10.148v8.922H23.2a3.434,3.434,0,0,0,2.7-1.079,4.458,4.458,0,0,0,.965-3.073V8.957a4.529,4.529,0,0,0-.91-3.014,3.239,3.239,0,0,0-2.582-1.091ZM37.047,9.742h-4.93v4.031h5.727V15H30.617V3.625h7.148V4.852H32.117V8.516h4.93ZM51.219,4.852H47.563V15H46.07V4.852H42.422V3.625h8.8ZM57.078,10.4H54.406V15H52.9V3.625h3.766a4.457,4.457,0,0,1,2.957.875,3.148,3.148,0,0,1,1.035,2.547A3.062,3.062,0,0,1,60.082,8.9a3.428,3.428,0,0,1-1.6,1.18l2.672,4.828V15H59.547ZM54.406,9.172h2.3a2.6,2.6,0,0,0,1.777-.579,1.959,1.959,0,0,0,.66-1.55,2.062,2.062,0,0,0-.629-1.62A2.663,2.663,0,0,0,56.7,4.852h-2.3Zm14.633,2.852H64.273L63.2,15H61.656L66,3.625h1.313L71.664,15H70.125ZM64.727,10.8h3.867l-1.937-5.32ZM81.938,15H80.43L74.7,6.234V15H73.2V3.625H74.7l5.742,8.8v-8.8h1.492Zm6.016-5.07a7.053,7.053,0,0,1-2.809-1.363,2.6,2.6,0,0,1-.879-2A2.751,2.751,0,0,1,85.34,4.348a4.269,4.269,0,0,1,2.793-.879,4.66,4.66,0,0,1,2.09.453,3.436,3.436,0,0,1,1.422,1.25,3.2,3.2,0,0,1,.5,1.742H90.641a2.08,2.08,0,0,0-.656-1.627A2.669,2.669,0,0,0,88.133,4.7a2.732,2.732,0,0,0-1.73.489,1.632,1.632,0,0,0-.621,1.358,1.468,1.468,0,0,0,.59,1.178,5.785,5.785,0,0,0,2.008.88,9.316,9.316,0,0,1,2.219.88A3.367,3.367,0,0,1,91.785,10.6a2.861,2.861,0,0,1,.387,1.508,2.658,2.658,0,0,1-1.078,2.215,4.6,4.6,0,0,1-2.883.832,5.347,5.347,0,0,1-2.187-.449,3.681,3.681,0,0,1-1.566-1.23,3,3,0,0,1-.551-1.773h1.508a1.959,1.959,0,0,0,.762,1.629,3.207,3.207,0,0,0,2.035.6,2.948,2.948,0,0,0,1.82-.484,1.573,1.573,0,0,0,.633-1.32,1.545,1.545,0,0,0-.586-1.293A6.755,6.755,0,0,0,87.953,9.93Zm12.422,2.094H95.609L94.539,15H92.992L97.336,3.625h1.313L103,15h-1.539ZM96.063,10.8H99.93l-1.937-5.32Zm16.75.594a4.185,4.185,0,0,1-1.332,2.785,4.365,4.365,0,0,1-2.98.98,4.008,4.008,0,0,1-3.23-1.445,5.815,5.815,0,0,1-1.215-3.867V8.75a6.481,6.481,0,0,1,.566-2.789,4.231,4.231,0,0,1,1.605-1.848,4.47,4.47,0,0,1,2.406-.645,4.11,4.11,0,0,1,2.906,1.012,4.235,4.235,0,0,1,1.273,2.8H111.3a3.268,3.268,0,0,0-.848-1.975,2.565,2.565,0,0,0-1.824-.611,2.684,2.684,0,0,0-2.254,1.063,4.882,4.882,0,0,0-.816,3.026v1.1a5.018,5.018,0,0,0,.773,2.948A2.5,2.5,0,0,0,108.5,13.93a2.886,2.886,0,0,0,1.918-.566,3.143,3.143,0,0,0,.887-1.973Zm10.414,0a4.185,4.185,0,0,1-1.332,2.785,4.365,4.365,0,0,1-2.98.98,4.008,4.008,0,0,1-3.23-1.445,5.815,5.815,0,0,1-1.215-3.867V8.75a6.481,6.481,0,0,1,.566-2.789,4.231,4.231,0,0,1,1.605-1.848,4.47,4.47,0,0,1,2.406-.645,4.11,4.11,0,0,1,2.906,1.012,4.235,4.235,0,0,1,1.273,2.8h-1.508a3.268,3.268,0,0,0-.848-1.975,2.565,2.565,0,0,0-1.824-.611,2.684,2.684,0,0,0-2.254,1.063,4.882,4.882,0,0,0-.816,3.026v1.1a5.018,5.018,0,0,0,.773,2.948,2.5,2.5,0,0,0,2.164,1.095,2.886,2.886,0,0,0,1.918-.566,3.143,3.143,0,0,0,.887-1.973ZM126.883,15h-1.5V3.625h1.5Zm11.492-5.32a7.037,7.037,0,0,1-.562,2.918,4.261,4.261,0,0,1-1.594,1.9,4.4,4.4,0,0,1-6.4-1.887,6.752,6.752,0,0,1-.59-2.832v-.82a6.953,6.953,0,0,1,.57-2.9,4.218,4.218,0,0,1,4-2.594,4.41,4.41,0,0,1,2.41.66,4.253,4.253,0,0,1,1.605,1.914,7.071,7.071,0,0,1,.563,2.918Zm-1.492-.734a5.1,5.1,0,0,0-.812-3.105A2.68,2.68,0,0,0,133.8,4.758a2.651,2.651,0,0,0-2.238,1.082,5,5,0,0,0-.84,3V9.68a5.107,5.107,0,0,0,.824,3.082,2.888,2.888,0,0,0,4.52.063,5.079,5.079,0,0,0,.82-3.035ZM134.531.578h1.75l-2.094,2.3-1.164,0ZM149.367,15h-1.508l-5.727-8.766V15h-1.508V3.625h1.508l5.742,8.8v-8.8h1.492Z" transform="translate(616.92 14495.8)" fill="#00104e"/>
    <path id="Trazado_825363" data-name="Trazado 825363" d="M9.688,11.391a4.185,4.185,0,0,1-1.332,2.785,4.365,4.365,0,0,1-2.98.98,4.008,4.008,0,0,1-3.23-1.445A5.815,5.815,0,0,1,.93,9.844V8.75A6.481,6.481,0,0,1,1.5,5.961,4.231,4.231,0,0,1,3.1,4.113a4.47,4.47,0,0,1,2.406-.645A4.11,4.11,0,0,1,8.414,4.48a4.235,4.235,0,0,1,1.273,2.8H8.18a3.268,3.268,0,0,0-.848-1.975A2.565,2.565,0,0,0,5.508,4.7,2.684,2.684,0,0,0,3.254,5.759a4.882,4.882,0,0,0-.816,3.026v1.1a5.018,5.018,0,0,0,.773,2.948A2.5,2.5,0,0,0,5.375,13.93a2.887,2.887,0,0,0,1.918-.566,3.143,3.143,0,0,0,.887-1.973Zm10.8-1.711a7.037,7.037,0,0,1-.562,2.918,4.261,4.261,0,0,1-1.594,1.9,4.385,4.385,0,0,1-2.406.656,4.244,4.244,0,0,1-4-2.543,6.752,6.752,0,0,1-.59-2.832v-.82a6.953,6.953,0,0,1,.57-2.9,4.218,4.218,0,0,1,4-2.594,4.41,4.41,0,0,1,2.41.66,4.253,4.253,0,0,1,1.605,1.914,7.071,7.071,0,0,1,.563,2.918Zm-1.492-.734A5.1,5.1,0,0,0,18.18,5.84a2.68,2.68,0,0,0-2.273-1.082A2.651,2.651,0,0,0,13.668,5.84a5,5,0,0,0-.84,3V9.68a5.107,5.107,0,0,0,.824,3.082,2.662,2.662,0,0,0,2.27,1.121,2.652,2.652,0,0,0,2.25-1.059,5.079,5.079,0,0,0,.82-3.035Zm5.68-5.32,3.719,9.281,3.719-9.281h1.945V15h-1.5V10.57L32.7,5.789,28.961,15H27.813L24.086,5.813l.148,4.758V15h-1.5V3.625ZM38.313,15h-1.5V3.625h1.5Zm9.172-5.258h-4.93v4.031h5.727V15H41.055V3.625H48.2V4.852H42.555V8.516h4.93ZM58.891,15H57.383L51.656,6.234V15H50.148V3.625h1.508l5.742,8.8v-8.8h1.492Zm3.789-1.227h6.508V15H60.906V13.875l6.234-9.023H61.008V3.625h7.93V4.72Zm17-4.094a7.037,7.037,0,0,1-.562,2.918,4.261,4.261,0,0,1-1.594,1.9,4.4,4.4,0,0,1-6.4-1.887,6.752,6.752,0,0,1-.59-2.832v-.82a6.953,6.953,0,0,1,.57-2.9,4.218,4.218,0,0,1,4-2.594,4.41,4.41,0,0,1,2.41.66,4.253,4.253,0,0,1,1.605,1.914,7.071,7.071,0,0,1,.563,2.918Zm-1.492-.734a5.1,5.1,0,0,0-.812-3.105A2.68,2.68,0,0,0,75.1,4.758,2.651,2.651,0,0,0,72.863,5.84a5,5,0,0,0-.84,3V9.68a5.107,5.107,0,0,0,.824,3.082,2.888,2.888,0,0,0,4.52.063,5.079,5.079,0,0,0,.82-3.035ZM85.891,15V3.625H89.1a5.169,5.169,0,0,1,2.625.656,4.438,4.438,0,0,1,1.762,1.867,6.078,6.078,0,0,1,.629,2.781v.727a6.1,6.1,0,0,1-.621,2.82,4.369,4.369,0,0,1-1.773,1.859A5.5,5.5,0,0,1,89.039,15Zm1.5-10.148v8.922h1.578a3.434,3.434,0,0,0,2.7-1.079,4.458,4.458,0,0,0,.965-3.073V8.957a4.529,4.529,0,0,0-.91-3.014,3.239,3.239,0,0,0-2.582-1.091Zm15.422,4.891h-4.93v4.031h5.727V15H96.383V3.625h7.148V4.852H97.883V8.516h4.93Zm14.172-4.891h-3.656V15h-1.492V4.852h-3.648V3.625h8.8Zm5.859,5.547h-2.672V15h-1.508V3.625h3.766a4.457,4.457,0,0,1,2.957.875,3.148,3.148,0,0,1,1.035,2.547,3.062,3.062,0,0,1-.574,1.852,3.428,3.428,0,0,1-1.6,1.18l2.672,4.828V15h-1.609Zm-2.672-1.227h2.3a2.6,2.6,0,0,0,1.777-.579,1.959,1.959,0,0,0,.66-1.55,2.062,2.062,0,0,0-.629-1.62,2.663,2.663,0,0,0-1.816-.571h-2.3ZM134.8,12.023h-4.766L128.969,15h-1.547l4.344-11.375h1.313L137.43,15h-1.539ZM130.492,10.8h3.867l-1.937-5.32ZM147.7,15H146.2l-5.727-8.766V15h-1.508V3.625h1.508l5.742,8.8v-8.8H147.7Zm6.016-5.07a7.053,7.053,0,0,1-2.809-1.363,2.6,2.6,0,0,1-.879-2,2.752,2.752,0,0,1,1.074-2.223,4.269,4.269,0,0,1,2.793-.879,4.66,4.66,0,0,1,2.09.453,3.436,3.436,0,0,1,1.422,1.25,3.2,3.2,0,0,1,.5,1.742h-1.508a2.08,2.08,0,0,0-.656-1.627A2.669,2.669,0,0,0,153.9,4.7a2.732,2.732,0,0,0-1.73.489,1.632,1.632,0,0,0-.621,1.358,1.468,1.468,0,0,0,.59,1.178,5.786,5.786,0,0,0,2.008.88,9.316,9.316,0,0,1,2.219.88,3.367,3.367,0,0,1,1.188,1.121,2.861,2.861,0,0,1,.387,1.508,2.658,2.658,0,0,1-1.078,2.215,4.6,4.6,0,0,1-2.883.832,5.347,5.347,0,0,1-2.187-.449,3.681,3.681,0,0,1-1.566-1.23,3,3,0,0,1-.551-1.773h1.508a1.959,1.959,0,0,0,.762,1.629,3.207,3.207,0,0,0,2.035.6,2.948,2.948,0,0,0,1.82-.484,1.573,1.573,0,0,0,.633-1.32,1.545,1.545,0,0,0-.586-1.293A6.755,6.755,0,0,0,153.719,9.93Zm12.422,2.094h-4.766L160.3,15h-1.547L163.1,3.625h1.313L168.766,15h-1.539ZM161.828,10.8H165.7l-1.937-5.32Zm16.75.594a4.185,4.185,0,0,1-1.332,2.785,4.365,4.365,0,0,1-2.98.98,4.008,4.008,0,0,1-3.23-1.445,5.815,5.815,0,0,1-1.215-3.867V8.75a6.481,6.481,0,0,1,.566-2.789,4.231,4.231,0,0,1,1.605-1.848,4.47,4.47,0,0,1,2.406-.645A4.11,4.11,0,0,1,177.3,4.48a4.235,4.235,0,0,1,1.273,2.8H177.07a3.268,3.268,0,0,0-.848-1.975A2.565,2.565,0,0,0,174.4,4.7a2.684,2.684,0,0,0-2.254,1.063,4.882,4.882,0,0,0-.816,3.026v1.1a5.018,5.018,0,0,0,.773,2.948,2.5,2.5,0,0,0,2.164,1.095,2.887,2.887,0,0,0,1.918-.566,3.143,3.143,0,0,0,.887-1.973Zm10.414,0a4.185,4.185,0,0,1-1.332,2.785,4.365,4.365,0,0,1-2.98.98,4.008,4.008,0,0,1-3.23-1.445,5.815,5.815,0,0,1-1.215-3.867V8.75a6.481,6.481,0,0,1,.566-2.789,4.231,4.231,0,0,1,1.605-1.848,4.47,4.47,0,0,1,2.406-.645,4.11,4.11,0,0,1,2.906,1.012,4.235,4.235,0,0,1,1.273,2.8h-1.508a3.268,3.268,0,0,0-.848-1.975,2.565,2.565,0,0,0-1.824-.611,2.684,2.684,0,0,0-2.254,1.063,4.882,4.882,0,0,0-.816,3.026v1.1a5.018,5.018,0,0,0,.773,2.948,2.5,2.5,0,0,0,2.164,1.095,2.887,2.887,0,0,0,1.918-.566,3.143,3.143,0,0,0,.887-1.973ZM192.648,15h-1.5V3.625h1.5Zm11.492-5.32a7.037,7.037,0,0,1-.562,2.918,4.261,4.261,0,0,1-1.594,1.9,4.4,4.4,0,0,1-6.4-1.887,6.752,6.752,0,0,1-.59-2.832v-.82a6.953,6.953,0,0,1,.57-2.9,4.218,4.218,0,0,1,4-2.594,4.41,4.41,0,0,1,2.41.66,4.253,4.253,0,0,1,1.605,1.914,7.071,7.071,0,0,1,.563,2.918Zm-1.492-.734a5.1,5.1,0,0,0-.812-3.105,2.68,2.68,0,0,0-2.273-1.082,2.651,2.651,0,0,0-2.238,1.082,5,5,0,0,0-.84,3V9.68a5.107,5.107,0,0,0,.824,3.082,2.888,2.888,0,0,0,4.52.063,5.079,5.079,0,0,0,.82-3.035ZM215.133,15h-1.508L207.9,6.234V15h-1.508V3.625H207.9l5.742,8.8v-8.8h1.492Zm9.094-5.258H219.3v4.031h5.727V15H217.8V3.625h7.148V4.852H219.3V8.516h4.93Zm6.016.188a7.053,7.053,0,0,1-2.809-1.363,2.6,2.6,0,0,1-.879-2,2.752,2.752,0,0,1,1.074-2.223,4.269,4.269,0,0,1,2.793-.879,4.66,4.66,0,0,1,2.09.453,3.436,3.436,0,0,1,1.422,1.25,3.2,3.2,0,0,1,.5,1.742H232.93a2.08,2.08,0,0,0-.656-1.627,2.669,2.669,0,0,0-1.852-.592,2.732,2.732,0,0,0-1.73.489,1.632,1.632,0,0,0-.621,1.358,1.468,1.468,0,0,0,.59,1.178,5.786,5.786,0,0,0,2.008.88,9.316,9.316,0,0,1,2.219.88,3.367,3.367,0,0,1,1.188,1.121,2.861,2.861,0,0,1,.387,1.508,2.658,2.658,0,0,1-1.078,2.215,4.6,4.6,0,0,1-2.883.832,5.347,5.347,0,0,1-2.187-.449,3.681,3.681,0,0,1-1.566-1.23A3,3,0,0,1,226.2,11.7H227.7a1.959,1.959,0,0,0,.762,1.629,3.207,3.207,0,0,0,2.035.6,2.948,2.948,0,0,0,1.82-.484,1.573,1.573,0,0,0,.633-1.32,1.545,1.545,0,0,0-.586-1.293A6.755,6.755,0,0,0,230.242,9.93Z" transform="translate(506.9 14639)" fill="#00104e"/>
    <g id="icono15" transform="translate(417.775 14165.767)">
      <g id="Grupo_1075482" data-name="Grupo 1075482" transform="translate(0 0)">
        <g id="Grupo_1075481" data-name="Grupo 1075481" transform="translate(0 28.25)">
          <path id="Trazado_823823" data-name="Trazado 823823" d="M106.053,55.3V74.231a11.59,11.59,0,0,1-.367,3.155c-2.642,14.235-24.068,25.242-49.823,25.242a89.085,89.085,0,0,1-15.629-1.394C21.963,97.859,8.315,88.76,6.04,77.533A15.544,15.544,0,0,1,5.673,74.3L5.6,64.4V55.447H17.927l22.307-.073L93.652,55.3h12.4Z" transform="translate(-5.6 -55.3)" fill="url(#linear-gradient)"/>
        </g>
        <path id="Trazado_823824" data-name="Trazado 823824" d="M106.053,45.05a15.836,15.836,0,0,1-1.761,7.264c-3.082,6.9-10.64,12.694-20.912,16.436a80.039,80.039,0,0,1-27.516,4.7,89.085,89.085,0,0,1-15.629-1.394,68.425,68.425,0,0,1-11.887-3.3c-10.273-3.669-17.831-9.539-20.986-16.29A16.754,16.754,0,0,1,5.6,45.27c0-12.621,14.529-23.26,34.634-27.076A88.242,88.242,0,0,1,55.79,16.8C83.526,16.8,106.053,29.421,106.053,45.05Z" transform="translate(-5.6 -16.8)" fill="#43566c"/>
        <path id="Trazado_823825" data-name="Trazado 823825" d="M58.525,62.892a72.5,72.5,0,0,0,25.022-4.256c8.438-3.155,14.529-7.7,16.73-12.621l.147-.367a8.112,8.112,0,0,0,.954-3.962c0-9.906-17.61-20.986-42.925-20.986a82.181,82.181,0,0,0-14.235,1.247C27.634,25.1,15.6,33.394,15.6,41.833a9.4,9.4,0,0,0,1.027,4.036c2.348,4.99,8.438,9.612,16.877,12.768a56.949,56.949,0,0,0,10.64,2.935A77.678,77.678,0,0,0,58.525,62.892Z" transform="translate(-8.262 -17.838)" fill="#2d3c48"/>
        <path id="Trazado_823826" data-name="Trazado 823826" d="M59.191,61.749A70.429,70.429,0,0,0,83.552,57.64c8-2.935,13.721-7.191,15.7-11.667l.22-.367a6.656,6.656,0,0,0,.734-3.155c0-8-15.629-19.151-41.091-19.151a77.373,77.373,0,0,0-13.868,1.247C29.767,27.482,18.1,35.26,18.1,42.6a8.037,8.037,0,0,0,.807,3.229c2.128,4.549,7.925,8.879,15.923,11.814A59.759,59.759,0,0,0,45.176,60.5,73.234,73.234,0,0,0,59.191,61.749Z" transform="translate(-8.928 -18.531)" fill="#43566c"/>
        <path id="Trazado_823827" data-name="Trazado 823827" d="M104.292,57.5C101.21,64.4,93.652,70.2,83.379,73.94a80.039,80.039,0,0,1-27.516,4.7,89.085,89.085,0,0,1-15.629-1.394,62.5,62.5,0,0,1-11.887-3.3C18.074,70.124,10.516,64.327,7.361,57.5a17.193,17.193,0,0,1-1.468-4.916A18.434,18.434,0,0,0,5.6,54.568a16.5,16.5,0,0,0,1.761,7.191c3.155,6.824,10.713,12.621,20.986,16.363a70.293,70.293,0,0,0,11.887,3.3,88.449,88.449,0,0,0,15.629,1.394,80.039,80.039,0,0,0,27.516-4.7c10.2-3.816,17.831-9.612,20.912-16.436a16.06,16.06,0,0,0,1.761-7.264,13.511,13.511,0,0,0-.22-2.421A16.243,16.243,0,0,1,104.292,57.5Z" transform="translate(-5.6 -26.171)" fill="#383838"/>
      </g>
      <g id="Grupo_1075483" data-name="Grupo 1075483" transform="translate(72.409 58.086)">
        <path id="XMLID_54_" d="M105.1,103.034l1.394.881.147-.294a4.55,4.55,0,0,0,3.008-2.495,5.987,5.987,0,0,0,.807-2.715,2.513,2.513,0,0,0-.294-1.321v-.147l-1.321-.881h0c-1.1-.44-2.715.587-3.742,2.348a6.4,6.4,0,0,0-.807,2.348C104.222,101.86,104.442,102.667,105.1,103.034Z" transform="translate(-104.282 -95.961)" fill="url(#linear-gradient-2)"/>
        <path id="XMLID_53_" d="M106.724,104.264c1.1.587,2.788-.44,3.889-2.275,1.1-1.908,1.1-3.889.073-4.549-1.1-.587-2.788.44-3.889,2.275S105.7,103.6,106.724,104.264Z" transform="translate(-104.729 -96.311)" fill="#13161a"/>
        <path id="Trazado_823828" data-name="Trazado 823828" d="M107.64,104.09c.734,0,1.834-.66,2.715-2.2,1.027-1.761.954-3.375.22-3.816a.931.931,0,0,0-.44-.073c-.734,0-1.834.66-2.715,2.2-1.027,1.761-.954,3.375-.22,3.816C107.347,104.017,107.493,104.09,107.64,104.09Z" transform="translate(-104.912 -96.504)" fill="url(#radial-gradient)"/>
      </g>
    </g>
    <g id="icono15-2" data-name="icono15" transform="translate(521.897 14165.767)">
      <g id="Grupo_1075482-2" data-name="Grupo 1075482" transform="translate(0 0)">
        <g id="Grupo_1075481-2" data-name="Grupo 1075481" transform="translate(0 28.25)">
          <path id="Trazado_823823-2" data-name="Trazado 823823" d="M106.053,55.3V74.231a11.59,11.59,0,0,1-.367,3.155c-2.642,14.235-24.068,25.242-49.823,25.242a89.085,89.085,0,0,1-15.629-1.394C21.963,97.859,8.315,88.76,6.04,77.533A15.544,15.544,0,0,1,5.673,74.3L5.6,64.4V55.447H17.927l22.307-.073L93.652,55.3h12.4Z" transform="translate(-5.6 -55.3)" fill="url(#linear-gradient)"/>
        </g>
        <path id="Trazado_823824-2" data-name="Trazado 823824" d="M106.053,45.05a15.836,15.836,0,0,1-1.761,7.264c-3.082,6.9-10.64,12.694-20.912,16.436a80.039,80.039,0,0,1-27.516,4.7,89.085,89.085,0,0,1-15.629-1.394,68.425,68.425,0,0,1-11.887-3.3c-10.273-3.669-17.831-9.539-20.986-16.29A16.754,16.754,0,0,1,5.6,45.27c0-12.621,14.529-23.26,34.634-27.076A88.242,88.242,0,0,1,55.79,16.8C83.526,16.8,106.053,29.421,106.053,45.05Z" transform="translate(-5.6 -16.8)" fill="#43566c"/>
        <path id="Trazado_823825-2" data-name="Trazado 823825" d="M58.525,62.892a72.5,72.5,0,0,0,25.022-4.256c8.438-3.155,14.529-7.7,16.73-12.621l.147-.367a8.112,8.112,0,0,0,.954-3.962c0-9.906-17.61-20.986-42.925-20.986a82.181,82.181,0,0,0-14.235,1.247C27.634,25.1,15.6,33.394,15.6,41.833a9.4,9.4,0,0,0,1.027,4.036c2.348,4.99,8.438,9.612,16.877,12.768a56.949,56.949,0,0,0,10.64,2.935A77.678,77.678,0,0,0,58.525,62.892Z" transform="translate(-8.262 -17.838)" fill="#2d3c48"/>
        <path id="Trazado_823826-2" data-name="Trazado 823826" d="M59.191,61.749A70.429,70.429,0,0,0,83.552,57.64c8-2.935,13.721-7.191,15.7-11.667l.22-.367a6.656,6.656,0,0,0,.734-3.155c0-8-15.629-19.151-41.091-19.151a77.373,77.373,0,0,0-13.868,1.247C29.767,27.482,18.1,35.26,18.1,42.6a8.037,8.037,0,0,0,.807,3.229c2.128,4.549,7.925,8.879,15.923,11.814A59.759,59.759,0,0,0,45.176,60.5,73.234,73.234,0,0,0,59.191,61.749Z" transform="translate(-8.928 -18.531)" fill="#43566c"/>
        <path id="Trazado_823827-2" data-name="Trazado 823827" d="M104.292,57.5C101.21,64.4,93.652,70.2,83.379,73.94a80.039,80.039,0,0,1-27.516,4.7,89.085,89.085,0,0,1-15.629-1.394,62.5,62.5,0,0,1-11.887-3.3C18.074,70.124,10.516,64.327,7.361,57.5a17.193,17.193,0,0,1-1.468-4.916A18.434,18.434,0,0,0,5.6,54.568a16.5,16.5,0,0,0,1.761,7.191c3.155,6.824,10.713,12.621,20.986,16.363a70.293,70.293,0,0,0,11.887,3.3,88.449,88.449,0,0,0,15.629,1.394,80.039,80.039,0,0,0,27.516-4.7c10.2-3.816,17.831-9.612,20.912-16.436a16.06,16.06,0,0,0,1.761-7.264,13.511,13.511,0,0,0-.22-2.421A16.243,16.243,0,0,1,104.292,57.5Z" transform="translate(-5.6 -26.171)" fill="#383838"/>
      </g>
      <g id="Grupo_1075483-2" data-name="Grupo 1075483" transform="translate(72.409 58.086)">
        <path id="XMLID_54_2" data-name="XMLID_54_" d="M105.1,103.034l1.394.881.147-.294a4.55,4.55,0,0,0,3.008-2.495,5.987,5.987,0,0,0,.807-2.715,2.513,2.513,0,0,0-.294-1.321v-.147l-1.321-.881h0c-1.1-.44-2.715.587-3.742,2.348a6.4,6.4,0,0,0-.807,2.348C104.222,101.86,104.442,102.667,105.1,103.034Z" transform="translate(-104.282 -95.961)" fill="url(#linear-gradient-2)"/>
        <path id="XMLID_53_2" data-name="XMLID_53_" d="M106.724,104.264c1.1.587,2.788-.44,3.889-2.275,1.1-1.908,1.1-3.889.073-4.549-1.1-.587-2.788.44-3.889,2.275S105.7,103.6,106.724,104.264Z" transform="translate(-104.729 -96.311)" fill="#13161a"/>
        <path id="Trazado_823828-2" data-name="Trazado 823828" d="M107.64,104.09c.734,0,1.834-.66,2.715-2.2,1.027-1.761.954-3.375.22-3.816a.931.931,0,0,0-.44-.073c-.734,0-1.834.66-2.715,2.2-1.027,1.761-.954,3.375-.22,3.816C107.347,104.017,107.493,104.09,107.64,104.09Z" transform="translate(-104.912 -96.504)" fill="url(#radial-gradient)"/>
      </g>
    </g>
    <g id="icono15-3" data-name="icono15" transform="translate(625.773 14165.767)">
      <g id="Grupo_1075482-3" data-name="Grupo 1075482" transform="translate(0 0)">
        <g id="Grupo_1075481-3" data-name="Grupo 1075481" transform="translate(0 28.25)">
          <path id="Trazado_823823-3" data-name="Trazado 823823" d="M106.053,55.3V74.231a11.59,11.59,0,0,1-.367,3.155c-2.642,14.235-24.068,25.242-49.823,25.242a89.085,89.085,0,0,1-15.629-1.394C21.963,97.859,8.315,88.76,6.04,77.533A15.544,15.544,0,0,1,5.673,74.3L5.6,64.4V55.447H17.927l22.307-.073L93.652,55.3h12.4Z" transform="translate(-5.6 -55.3)" fill="url(#linear-gradient)"/>
        </g>
        <path id="Trazado_823824-3" data-name="Trazado 823824" d="M106.053,45.05a15.836,15.836,0,0,1-1.761,7.264c-3.082,6.9-10.64,12.694-20.912,16.436a80.039,80.039,0,0,1-27.516,4.7,89.085,89.085,0,0,1-15.629-1.394,68.425,68.425,0,0,1-11.887-3.3c-10.273-3.669-17.831-9.539-20.986-16.29A16.754,16.754,0,0,1,5.6,45.27c0-12.621,14.529-23.26,34.634-27.076A88.242,88.242,0,0,1,55.79,16.8C83.526,16.8,106.053,29.421,106.053,45.05Z" transform="translate(-5.6 -16.8)" fill="#43566c"/>
        <path id="Trazado_823825-3" data-name="Trazado 823825" d="M58.525,62.892a72.5,72.5,0,0,0,25.022-4.256c8.438-3.155,14.529-7.7,16.73-12.621l.147-.367a8.112,8.112,0,0,0,.954-3.962c0-9.906-17.61-20.986-42.925-20.986a82.181,82.181,0,0,0-14.235,1.247C27.634,25.1,15.6,33.394,15.6,41.833a9.4,9.4,0,0,0,1.027,4.036c2.348,4.99,8.438,9.612,16.877,12.768a56.949,56.949,0,0,0,10.64,2.935A77.678,77.678,0,0,0,58.525,62.892Z" transform="translate(-8.262 -17.838)" fill="#2d3c48"/>
        <path id="Trazado_823826-3" data-name="Trazado 823826" d="M59.191,61.749A70.429,70.429,0,0,0,83.552,57.64c8-2.935,13.721-7.191,15.7-11.667l.22-.367a6.656,6.656,0,0,0,.734-3.155c0-8-15.629-19.151-41.091-19.151a77.373,77.373,0,0,0-13.868,1.247C29.767,27.482,18.1,35.26,18.1,42.6a8.037,8.037,0,0,0,.807,3.229c2.128,4.549,7.925,8.879,15.923,11.814A59.759,59.759,0,0,0,45.176,60.5,73.234,73.234,0,0,0,59.191,61.749Z" transform="translate(-8.928 -18.531)" fill="#43566c"/>
        <path id="Trazado_823827-3" data-name="Trazado 823827" d="M104.292,57.5C101.21,64.4,93.652,70.2,83.379,73.94a80.039,80.039,0,0,1-27.516,4.7,89.085,89.085,0,0,1-15.629-1.394,62.5,62.5,0,0,1-11.887-3.3C18.074,70.124,10.516,64.327,7.361,57.5a17.193,17.193,0,0,1-1.468-4.916A18.434,18.434,0,0,0,5.6,54.568a16.5,16.5,0,0,0,1.761,7.191c3.155,6.824,10.713,12.621,20.986,16.363a70.293,70.293,0,0,0,11.887,3.3,88.449,88.449,0,0,0,15.629,1.394,80.039,80.039,0,0,0,27.516-4.7c10.2-3.816,17.831-9.612,20.912-16.436a16.06,16.06,0,0,0,1.761-7.264,13.511,13.511,0,0,0-.22-2.421A16.243,16.243,0,0,1,104.292,57.5Z" transform="translate(-5.6 -26.171)" fill="#383838"/>
      </g>
      <g id="Grupo_1075483-3" data-name="Grupo 1075483" transform="translate(72.409 58.086)">
        <path id="XMLID_54_3" data-name="XMLID_54_" d="M105.1,103.034l1.394.881.147-.294a4.55,4.55,0,0,0,3.008-2.495,5.987,5.987,0,0,0,.807-2.715,2.513,2.513,0,0,0-.294-1.321v-.147l-1.321-.881h0c-1.1-.44-2.715.587-3.742,2.348a6.4,6.4,0,0,0-.807,2.348C104.222,101.86,104.442,102.667,105.1,103.034Z" transform="translate(-104.282 -95.961)" fill="url(#linear-gradient-2)"/>
        <path id="XMLID_53_3" data-name="XMLID_53_" d="M106.724,104.264c1.1.587,2.788-.44,3.889-2.275,1.1-1.908,1.1-3.889.073-4.549-1.1-.587-2.788.44-3.889,2.275S105.7,103.6,106.724,104.264Z" transform="translate(-104.729 -96.311)" fill="#13161a"/>
        <path id="Trazado_823828-3" data-name="Trazado 823828" d="M107.64,104.09c.734,0,1.834-.66,2.715-2.2,1.027-1.761.954-3.375.22-3.816a.931.931,0,0,0-.44-.073c-.734,0-1.834.66-2.715,2.2-1.027,1.761-.954,3.375-.22,3.816C107.347,104.017,107.493,104.09,107.64,104.09Z" transform="translate(-104.912 -96.504)" fill="url(#radial-gradient)"/>
      </g>
    </g>
    <path id="Trazado_825353" data-name="Trazado 825353" d="M1.016,15V3.625H5a5.232,5.232,0,0,1,3.141.793,2.712,2.712,0,0,1,1.07,2.324,2.57,2.57,0,0,1-.43,1.473,2.482,2.482,0,0,1-1.2.934,2.4,2.4,0,0,1,1.379.883,2.61,2.61,0,0,1,.5,1.625,3,3,0,0,1-1.047,2.484A4.713,4.713,0,0,1,5.438,15Zm2.344-4.953v3.07H5.367a1.938,1.938,0,0,0,1.293-.395,1.353,1.353,0,0,0,.465-1.09,1.428,1.428,0,0,0-1.617-1.586Zm0-1.656H5.094q1.773-.031,1.773-1.414a1.307,1.307,0,0,0-.449-1.113A2.363,2.363,0,0,0,5,5.523H3.359ZM11.227,15V3.625h3.5A5.315,5.315,0,0,1,17.41,4.3a4.712,4.712,0,0,1,1.848,1.922,5.928,5.928,0,0,1,.664,2.832v.523a5.945,5.945,0,0,1-.652,2.82,4.672,4.672,0,0,1-1.84,1.914A5.355,5.355,0,0,1,14.75,15ZM13.57,5.523v7.594H14.7a2.545,2.545,0,0,0,2.1-.9,4.06,4.06,0,0,0,.742-2.57v-.6a4.124,4.124,0,0,0-.719-2.629,2.537,2.537,0,0,0-2.1-.895Z" transform="translate(458.5 14181.028)" fill="#fff"/>
    <path id="Trazado_825354" data-name="Trazado 825354" d="M10.359,9.57a6.867,6.867,0,0,1-.594,2.945,4.472,4.472,0,0,1-1.7,1.953,4.7,4.7,0,0,1-2.535.688,4.732,4.732,0,0,1-2.523-.68,4.515,4.515,0,0,1-1.719-1.941,6.67,6.67,0,0,1-.617-2.9V9.07a6.831,6.831,0,0,1,.605-2.957A4.508,4.508,0,0,1,2.988,4.152a4.706,4.706,0,0,1,2.527-.684,4.706,4.706,0,0,1,2.527.684A4.508,4.508,0,0,1,9.754,6.113a6.811,6.811,0,0,1,.605,2.949ZM7.984,9.055a4.787,4.787,0,0,0-.641-2.719,2.088,2.088,0,0,0-1.828-.93,2.088,2.088,0,0,0-1.82.918,4.732,4.732,0,0,0-.648,2.691V9.57a4.847,4.847,0,0,0,.641,2.7,2.082,2.082,0,0,0,1.844.961,2.064,2.064,0,0,0,1.813-.926,4.819,4.819,0,0,0,.641-2.7Zm8.289,1.781H14.406V15H12.063V3.625h4.227a4.778,4.778,0,0,1,3.109.9,3.1,3.1,0,0,1,1.094,2.539A3.5,3.5,0,0,1,19.988,9a3.437,3.437,0,0,1-1.527,1.238l2.461,4.648V15H18.406Zm-1.867-1.9H16.3a1.936,1.936,0,0,0,1.367-.449,1.606,1.606,0,0,0,.484-1.238,1.719,1.719,0,0,0-.457-1.266,1.9,1.9,0,0,0-1.4-.461H14.406ZM28.7,12.656H24.586L23.8,15H21.313L25.547,3.625h2.172L31.977,15H29.484Zm-3.477-1.9h2.844L26.633,6.5Zm16.586.453A4.025,4.025,0,0,1,40.449,14.1a4.76,4.76,0,0,1-3.223,1.055,4.281,4.281,0,0,1-3.441-1.473,6.038,6.038,0,0,1-1.254-4.043v-.7a6.819,6.819,0,0,1,.578-2.891,4.332,4.332,0,0,1,1.652-1.918,5.164,5.164,0,0,1,5.668.387A4.326,4.326,0,0,1,41.82,7.484H39.477a2.376,2.376,0,0,0-.613-1.6,2.271,2.271,0,0,0-1.605-.5,1.991,1.991,0,0,0-1.754.84,4.707,4.707,0,0,0-.6,2.605V9.7a5.038,5.038,0,0,0,.559,2.7,1.954,1.954,0,0,0,1.762.852,2.314,2.314,0,0,0,1.621-.5,2.241,2.241,0,0,0,.613-1.535Z" transform="translate(552.076 14181.028)" fill="#fff"/>
    <path id="Trazado_825355" data-name="Trazado 825355" d="M6.914,12.016A1.2,1.2,0,0,0,6.445,11a6.148,6.148,0,0,0-1.687-.75,11.963,11.963,0,0,1-1.93-.777A3.153,3.153,0,0,1,.891,6.648,2.747,2.747,0,0,1,1.41,5,3.389,3.389,0,0,1,2.9,3.875a5.616,5.616,0,0,1,2.184-.406,5.112,5.112,0,0,1,2.172.441,3.458,3.458,0,0,1,1.48,1.246,3.261,3.261,0,0,1,.527,1.828H6.922A1.534,1.534,0,0,0,6.43,5.77a2.023,2.023,0,0,0-1.383-.434A2.162,2.162,0,0,0,3.711,5.7a1.146,1.146,0,0,0-.477.957,1.1,1.1,0,0,0,.559.93,6.311,6.311,0,0,0,1.645.7A7.106,7.106,0,0,1,8.352,9.781,2.972,2.972,0,0,1,9.266,12a2.737,2.737,0,0,1-1.117,2.316,4.891,4.891,0,0,1-3.008.84,5.808,5.808,0,0,1-2.391-.48,3.783,3.783,0,0,1-1.645-1.316,3.371,3.371,0,0,1-.566-1.937H2.891q0,1.883,2.25,1.883a2.189,2.189,0,0,0,1.3-.34A1.106,1.106,0,0,0,6.914,12.016ZM20.18,9.57a6.853,6.853,0,0,1-.516,2.77,4.754,4.754,0,0,1-1.43,1.887l1.891,1.484-1.492,1.32-2.422-1.945a5.126,5.126,0,0,1-.859.07,4.732,4.732,0,0,1-2.523-.68,4.515,4.515,0,0,1-1.719-1.941,6.67,6.67,0,0,1-.617-2.9V9.07A6.831,6.831,0,0,1,11.1,6.113a4.508,4.508,0,0,1,1.711-1.961,4.706,4.706,0,0,1,2.527-.684,4.706,4.706,0,0,1,2.527.684,4.508,4.508,0,0,1,1.711,1.961,6.811,6.811,0,0,1,.605,2.949ZM17.8,9.055a4.787,4.787,0,0,0-.641-2.719,2.088,2.088,0,0,0-1.828-.93,2.088,2.088,0,0,0-1.82.918,4.732,4.732,0,0,0-.648,2.691V9.57a4.847,4.847,0,0,0,.641,2.7,2.082,2.082,0,0,0,1.844.961,2.064,2.064,0,0,0,1.813-.926,4.819,4.819,0,0,0,.641-2.7Z" transform="translate(664.269 14181.028)" fill="#fff"/>
    <g id="Rectángulo_383205" data-name="Rectángulo 383205" transform="translate(403 14151)" fill="none" stroke="#273a89" stroke-width="2">
      <rect width="337" height="104" rx="13" stroke="none"/>
      <rect x="1" y="1" width="335" height="102" rx="12" fill="none"/>
    </g>
    <rect id="Rectángulo_383206" data-name="Rectángulo 383206" width="190" height="56" rx="7" transform="translate(476 14329)" fill="#c2e3d8"/>
    <rect id="Rectángulo_383210" data-name="Rectángulo 383210" width="190" height="56" rx="7" transform="translate(1070 14163)" fill="#273a89"/>
    <rect id="Rectángulo_383211" data-name="Rectángulo 383211" width="190" height="56" rx="7" transform="translate(1070 14329)" fill="#273a89"/>
    <rect id="Rectángulo_383212" data-name="Rectángulo 383212" width="190" height="56" rx="7" transform="translate(1070 14510)" fill="#273a89"/>
    <rect id="Rectángulo_383213" data-name="Rectángulo 383213" width="190" height="56" rx="7" transform="translate(1070 14662)" fill="#273a89"/>
    <rect id="Rectángulo_383209" data-name="Rectángulo 383209" width="295" height="56" rx="7" transform="translate(475 14538)" fill="#c2e3d8"/>
    <path id="Trazado_825358" data-name="Trazado 825358" d="M2.82,10.547V15H1.32V3.625h4.2a4.215,4.215,0,0,1,2.926.953A3.231,3.231,0,0,1,9.5,7.1,3.189,3.189,0,0,1,8.465,9.652a4.4,4.4,0,0,1-2.965.895Zm0-1.227h2.7a2.7,2.7,0,0,0,1.844-.567A2.075,2.075,0,0,0,8,7.113a2.143,2.143,0,0,0-.641-1.628A2.525,2.525,0,0,0,5.6,4.852H2.82Zm17.344.359A7.037,7.037,0,0,1,19.6,12.6a4.261,4.261,0,0,1-1.594,1.9,4.385,4.385,0,0,1-2.406.656,4.244,4.244,0,0,1-4-2.543,6.752,6.752,0,0,1-.59-2.832v-.82a6.953,6.953,0,0,1,.57-2.9,4.218,4.218,0,0,1,4-2.594,4.41,4.41,0,0,1,2.41.66A4.253,4.253,0,0,1,19.6,6.043a7.071,7.071,0,0,1,.563,2.918Zm-1.492-.734a5.1,5.1,0,0,0-.812-3.105,2.68,2.68,0,0,0-2.273-1.082A2.651,2.651,0,0,0,13.348,5.84a5,5,0,0,0-.84,3V9.68a5.107,5.107,0,0,0,.824,3.082,2.662,2.662,0,0,0,2.27,1.121,2.652,2.652,0,0,0,2.25-1.059,5.079,5.079,0,0,0,.82-3.035Zm12.492.734A7.037,7.037,0,0,1,30.6,12.6a4.261,4.261,0,0,1-1.594,1.9,4.4,4.4,0,0,1-6.4-1.887,6.752,6.752,0,0,1-.59-2.832v-.82a6.953,6.953,0,0,1,.57-2.9,4.218,4.218,0,0,1,4-2.594,4.41,4.41,0,0,1,2.41.66A4.253,4.253,0,0,1,30.6,6.043a7.071,7.071,0,0,1,.563,2.918Zm-1.492-.734a5.1,5.1,0,0,0-.812-3.105,2.68,2.68,0,0,0-2.273-1.082A2.651,2.651,0,0,0,24.348,5.84a5,5,0,0,0-.84,3V9.68a5.107,5.107,0,0,0,.824,3.082,2.888,2.888,0,0,0,4.52.063,5.079,5.079,0,0,0,.82-3.035Zm5.25,4.828h5.391V15h-6.9V3.625h1.508ZM45.984,15V3.625H49.2a5.169,5.169,0,0,1,2.625.656,4.438,4.438,0,0,1,1.762,1.867,6.078,6.078,0,0,1,.629,2.781v.727a6.1,6.1,0,0,1-.621,2.82,4.369,4.369,0,0,1-1.773,1.859A5.5,5.5,0,0,1,49.133,15Zm1.5-10.148v8.922h1.578a3.434,3.434,0,0,0,2.7-1.079,4.458,4.458,0,0,0,.965-3.073V8.957a4.529,4.529,0,0,0-.91-3.014,3.239,3.239,0,0,0-2.582-1.091ZM62.906,9.742h-4.93v4.031H63.7V15H56.477V3.625h7.148V4.852H57.977V8.516h4.93Zm11.031,1.648a4.185,4.185,0,0,1-1.332,2.785,4.365,4.365,0,0,1-2.98.98,4.008,4.008,0,0,1-3.23-1.445A5.815,5.815,0,0,1,65.18,9.844V8.75a6.481,6.481,0,0,1,.566-2.789,4.231,4.231,0,0,1,1.605-1.848,4.47,4.47,0,0,1,2.406-.645A4.11,4.11,0,0,1,72.664,4.48a4.235,4.235,0,0,1,1.273,2.8H72.43a3.268,3.268,0,0,0-.848-1.975A2.565,2.565,0,0,0,69.758,4.7,2.684,2.684,0,0,0,67.5,5.759a4.882,4.882,0,0,0-.816,3.026v1.1a5.018,5.018,0,0,0,.773,2.948,2.5,2.5,0,0,0,2.164,1.095,2.886,2.886,0,0,0,1.918-.566,3.143,3.143,0,0,0,.887-1.973Zm10.8-1.711a7.037,7.037,0,0,1-.562,2.918,4.261,4.261,0,0,1-1.594,1.9,4.4,4.4,0,0,1-6.4-1.887,6.752,6.752,0,0,1-.59-2.832v-.82a6.953,6.953,0,0,1,.57-2.9,4.218,4.218,0,0,1,4-2.594,4.41,4.41,0,0,1,2.41.66,4.253,4.253,0,0,1,1.605,1.914,7.071,7.071,0,0,1,.563,2.918Zm-1.492-.734A5.1,5.1,0,0,0,82.43,5.84a2.68,2.68,0,0,0-2.273-1.082A2.651,2.651,0,0,0,77.918,5.84a5,5,0,0,0-.84,3V9.68a5.107,5.107,0,0,0,.824,3.082,2.888,2.888,0,0,0,4.52.063,5.079,5.079,0,0,0,.82-3.035ZM95.727,15H94.219L88.492,6.234V15H86.984V3.625h1.508l5.742,8.8v-8.8h1.492Zm9.094-5.258h-4.93v4.031h5.727V15H98.391V3.625h7.148V4.852H99.891V8.516h4.93ZM111.2,7.984l2.727-4.359h1.766l-3.594,5.641L115.773,15h-1.781l-2.8-4.437L108.383,15h-1.773L110.3,9.266l-3.6-5.641h1.758ZM119.125,15h-1.5V3.625h1.5Zm11.492-5.32a7.037,7.037,0,0,1-.562,2.918,4.261,4.261,0,0,1-1.594,1.9,4.4,4.4,0,0,1-6.4-1.887,6.752,6.752,0,0,1-.59-2.832v-.82a6.953,6.953,0,0,1,.57-2.9,4.218,4.218,0,0,1,4-2.594,4.41,4.41,0,0,1,2.41.66,4.253,4.253,0,0,1,1.605,1.914,7.071,7.071,0,0,1,.563,2.918Zm-1.492-.734a5.1,5.1,0,0,0-.812-3.105,2.68,2.68,0,0,0-2.273-1.082A2.651,2.651,0,0,0,123.8,5.84a5,5,0,0,0-.84,3V9.68a5.107,5.107,0,0,0,.824,3.082,2.888,2.888,0,0,0,4.52.063,5.079,5.079,0,0,0,.82-3.035ZM141.609,15H140.1l-5.727-8.766V15h-1.508V3.625h1.508l5.742,8.8v-8.8h1.492ZM150.7,9.742h-4.93v4.031H151.5V15h-7.227V3.625h7.148V4.852h-5.648V8.516h4.93Zm6.016.188a7.053,7.053,0,0,1-2.809-1.363,2.6,2.6,0,0,1-.879-2,2.752,2.752,0,0,1,1.074-2.223,4.269,4.269,0,0,1,2.793-.879,4.66,4.66,0,0,1,2.09.453,3.436,3.436,0,0,1,1.422,1.25,3.2,3.2,0,0,1,.5,1.742h-1.508a2.08,2.08,0,0,0-.656-1.627A2.669,2.669,0,0,0,156.9,4.7a2.732,2.732,0,0,0-1.73.489,1.632,1.632,0,0,0-.621,1.358,1.468,1.468,0,0,0,.59,1.178,5.786,5.786,0,0,0,2.008.88,9.316,9.316,0,0,1,2.219.88,3.367,3.367,0,0,1,1.188,1.121,2.861,2.861,0,0,1,.387,1.508,2.658,2.658,0,0,1-1.078,2.215,4.6,4.6,0,0,1-2.883.832,5.347,5.347,0,0,1-2.187-.449,3.681,3.681,0,0,1-1.566-1.23,3,3,0,0,1-.551-1.773h1.508a1.959,1.959,0,0,0,.762,1.629,3.207,3.207,0,0,0,2.035.6,2.948,2.948,0,0,0,1.82-.484,1.573,1.573,0,0,0,.633-1.32,1.545,1.545,0,0,0-.586-1.293A6.755,6.755,0,0,0,156.719,9.93Z" transform="translate(491 14345.65)" fill="#00104e"/>
    <path id="Trazado_825362" data-name="Trazado 825362" d="M9.719,13.508a3.465,3.465,0,0,1-1.613,1.238,6.517,6.517,0,0,1-2.41.41A4.674,4.674,0,0,1,3.227,14.5a4.346,4.346,0,0,1-1.668-1.855A6.408,6.408,0,0,1,.953,9.859V8.867a5.982,5.982,0,0,1,1.2-3.984A4.179,4.179,0,0,1,5.523,3.469a4.316,4.316,0,0,1,2.867.91A3.965,3.965,0,0,1,9.719,6.961h-1.5A2.48,2.48,0,0,0,5.531,4.7a2.655,2.655,0,0,0-2.285,1.06,5.173,5.173,0,0,0-.785,3.069v.93A4.848,4.848,0,0,0,3.336,12.8,2.836,2.836,0,0,0,5.7,13.93a5.228,5.228,0,0,0,1.477-.187,2.283,2.283,0,0,0,1.047-.631V10.563H5.594V9.336H9.719Zm8.93-3.766h-4.93v4.031h5.727V15H12.219V3.625h7.148V4.852H13.719V8.516h4.93Zm6.016.188a7.053,7.053,0,0,1-2.809-1.363,2.6,2.6,0,0,1-.879-2,2.751,2.751,0,0,1,1.074-2.223,4.269,4.269,0,0,1,2.793-.879,4.66,4.66,0,0,1,2.09.453,3.436,3.436,0,0,1,1.422,1.25,3.2,3.2,0,0,1,.5,1.742H27.352A2.08,2.08,0,0,0,26.7,5.287,2.669,2.669,0,0,0,24.844,4.7a2.732,2.732,0,0,0-1.73.489,1.632,1.632,0,0,0-.621,1.358,1.468,1.468,0,0,0,.59,1.178,5.785,5.785,0,0,0,2.008.88,9.316,9.316,0,0,1,2.219.88A3.367,3.367,0,0,1,28.5,10.6a2.861,2.861,0,0,1,.387,1.508A2.658,2.658,0,0,1,27.8,14.324a4.6,4.6,0,0,1-2.883.832,5.347,5.347,0,0,1-2.187-.449,3.681,3.681,0,0,1-1.566-1.23,3,3,0,0,1-.551-1.773h1.508a1.959,1.959,0,0,0,.762,1.629,3.207,3.207,0,0,0,2.035.6,2.948,2.948,0,0,0,1.82-.484,1.573,1.573,0,0,0,.633-1.32,1.545,1.545,0,0,0-.586-1.293A6.755,6.755,0,0,0,24.664,9.93Zm14-5.078H35.008V15H33.516V4.852H29.867V3.625h8.8ZM48.883,9.68A7.037,7.037,0,0,1,48.32,12.6a4.261,4.261,0,0,1-1.594,1.9,4.4,4.4,0,0,1-6.4-1.887,6.752,6.752,0,0,1-.59-2.832v-.82a6.953,6.953,0,0,1,.57-2.9,4.218,4.218,0,0,1,4-2.594,4.41,4.41,0,0,1,2.41.66A4.253,4.253,0,0,1,48.32,6.043a7.071,7.071,0,0,1,.563,2.918Zm-1.492-.734a5.1,5.1,0,0,0-.812-3.105A2.68,2.68,0,0,0,44.3,4.758,2.651,2.651,0,0,0,42.066,5.84a5,5,0,0,0-.84,3V9.68a5.107,5.107,0,0,0,.824,3.082,2.888,2.888,0,0,0,4.52.063,5.079,5.079,0,0,0,.82-3.035ZM55.3,10.4H52.633V15H51.125V3.625h3.766a4.457,4.457,0,0,1,2.957.875,3.148,3.148,0,0,1,1.035,2.547A3.062,3.062,0,0,1,58.309,8.9a3.428,3.428,0,0,1-1.6,1.18l2.672,4.828V15H57.773ZM52.633,9.172h2.3a2.6,2.6,0,0,0,1.777-.579,1.959,1.959,0,0,0,.66-1.55,2.062,2.062,0,0,0-.629-1.62,2.663,2.663,0,0,0-1.816-.571h-2.3ZM64.945,15V3.625h3.211a5.169,5.169,0,0,1,2.625.656,4.438,4.438,0,0,1,1.762,1.867,6.078,6.078,0,0,1,.629,2.781v.727a6.1,6.1,0,0,1-.621,2.82,4.369,4.369,0,0,1-1.773,1.859A5.5,5.5,0,0,1,68.094,15Zm1.5-10.148v8.922h1.578a3.434,3.434,0,0,0,2.7-1.079,4.458,4.458,0,0,0,.965-3.073V8.957a4.529,4.529,0,0,0-.91-3.014A3.239,3.239,0,0,0,68.2,4.852ZM81.867,9.742h-4.93v4.031h5.727V15H75.438V3.625h7.148V4.852H76.938V8.516h4.93ZM96.039,4.852H92.383V15H90.891V4.852H87.242V3.625h8.8ZM101.9,10.4H99.227V15H97.719V3.625h3.766a4.457,4.457,0,0,1,2.957.875,3.148,3.148,0,0,1,1.035,2.547A3.062,3.062,0,0,1,104.9,8.9a3.428,3.428,0,0,1-1.6,1.18l2.672,4.828V15h-1.609ZM99.227,9.172h2.3a2.6,2.6,0,0,0,1.777-.579,1.959,1.959,0,0,0,.66-1.55,2.062,2.062,0,0,0-.629-1.62,2.663,2.663,0,0,0-1.816-.571h-2.3Zm14.633,2.852h-4.766L108.023,15h-1.547L110.82,3.625h1.313L116.484,15h-1.539ZM109.547,10.8h3.867l-1.937-5.32ZM126.758,15H125.25l-5.727-8.766V15h-1.508V3.625h1.508l5.742,8.8v-8.8h1.492Zm6.016-5.07a7.053,7.053,0,0,1-2.809-1.363,2.6,2.6,0,0,1-.879-2,2.752,2.752,0,0,1,1.074-2.223,4.269,4.269,0,0,1,2.793-.879,4.66,4.66,0,0,1,2.09.453,3.436,3.436,0,0,1,1.422,1.25,3.2,3.2,0,0,1,.5,1.742h-1.508a2.08,2.08,0,0,0-.656-1.627,2.669,2.669,0,0,0-1.852-.592,2.732,2.732,0,0,0-1.73.489,1.632,1.632,0,0,0-.621,1.358,1.468,1.468,0,0,0,.59,1.178,5.786,5.786,0,0,0,2.008.88,9.316,9.316,0,0,1,2.219.88,3.367,3.367,0,0,1,1.188,1.121,2.861,2.861,0,0,1,.387,1.508,2.658,2.658,0,0,1-1.078,2.215,4.6,4.6,0,0,1-2.883.832,5.347,5.347,0,0,1-2.187-.449,3.681,3.681,0,0,1-1.566-1.23,3,3,0,0,1-.551-1.773h1.508A1.959,1.959,0,0,0,131,13.332a3.207,3.207,0,0,0,2.035.6,2.948,2.948,0,0,0,1.82-.484,1.573,1.573,0,0,0,.633-1.32,1.545,1.545,0,0,0-.586-1.293A6.755,6.755,0,0,0,132.773,9.93ZM145.2,12.023H140.43L139.359,15h-1.547l4.344-11.375h1.313L147.82,15h-1.539ZM140.883,10.8h3.867l-1.937-5.32Zm16.75.594a4.185,4.185,0,0,1-1.332,2.785,4.365,4.365,0,0,1-2.98.98,4.008,4.008,0,0,1-3.23-1.445,5.815,5.815,0,0,1-1.215-3.867V8.75a6.481,6.481,0,0,1,.566-2.789,4.231,4.231,0,0,1,1.605-1.848,4.47,4.47,0,0,1,2.406-.645,4.11,4.11,0,0,1,2.906,1.012,4.235,4.235,0,0,1,1.273,2.8h-1.508a3.268,3.268,0,0,0-.848-1.975,2.565,2.565,0,0,0-1.824-.611A2.684,2.684,0,0,0,151.2,5.759a4.882,4.882,0,0,0-.816,3.026v1.1a5.018,5.018,0,0,0,.773,2.948,2.5,2.5,0,0,0,2.164,1.095,2.887,2.887,0,0,0,1.918-.566,3.143,3.143,0,0,0,.887-1.973Zm10.414,0a4.185,4.185,0,0,1-1.332,2.785,4.365,4.365,0,0,1-2.98.98,4.008,4.008,0,0,1-3.23-1.445,5.815,5.815,0,0,1-1.215-3.867V8.75a6.481,6.481,0,0,1,.566-2.789,4.231,4.231,0,0,1,1.605-1.848,4.47,4.47,0,0,1,2.406-.645,4.11,4.11,0,0,1,2.906,1.012,4.235,4.235,0,0,1,1.273,2.8h-1.508a3.268,3.268,0,0,0-.848-1.975,2.565,2.565,0,0,0-1.824-.611,2.684,2.684,0,0,0-2.254,1.063,4.882,4.882,0,0,0-.816,3.026v1.1a5.018,5.018,0,0,0,.773,2.948,2.5,2.5,0,0,0,2.164,1.095,2.887,2.887,0,0,0,1.918-.566,3.143,3.143,0,0,0,.887-1.973ZM171.7,15h-1.5V3.625h1.5ZM183.2,9.68a7.037,7.037,0,0,1-.562,2.918,4.261,4.261,0,0,1-1.594,1.9,4.4,4.4,0,0,1-6.4-1.887,6.752,6.752,0,0,1-.59-2.832v-.82a6.953,6.953,0,0,1,.57-2.9,4.218,4.218,0,0,1,4-2.594,4.41,4.41,0,0,1,2.41.66,4.253,4.253,0,0,1,1.605,1.914,7.071,7.071,0,0,1,.563,2.918ZM181.7,8.945a5.1,5.1,0,0,0-.812-3.105,2.68,2.68,0,0,0-2.273-1.082,2.651,2.651,0,0,0-2.238,1.082,5,5,0,0,0-.84,3V9.68a5.107,5.107,0,0,0,.824,3.082,2.888,2.888,0,0,0,4.52.063,5.079,5.079,0,0,0,.82-3.035ZM194.188,15H192.68l-5.727-8.766V15h-1.508V3.625h1.508l5.742,8.8v-8.8h1.492Zm9.094-5.258h-4.93v4.031h5.727V15h-7.227V3.625H204V4.852h-5.648V8.516h4.93Zm6.016.188a7.053,7.053,0,0,1-2.809-1.363,2.6,2.6,0,0,1-.879-2,2.752,2.752,0,0,1,1.074-2.223,4.269,4.269,0,0,1,2.793-.879,4.66,4.66,0,0,1,2.09.453,3.436,3.436,0,0,1,1.422,1.25,3.2,3.2,0,0,1,.5,1.742h-1.508a2.08,2.08,0,0,0-.656-1.627,2.669,2.669,0,0,0-1.852-.592,2.732,2.732,0,0,0-1.73.489,1.632,1.632,0,0,0-.621,1.358,1.468,1.468,0,0,0,.59,1.178,5.786,5.786,0,0,0,2.008.88,9.316,9.316,0,0,1,2.219.88,3.367,3.367,0,0,1,1.188,1.121,2.861,2.861,0,0,1,.387,1.508,2.658,2.658,0,0,1-1.078,2.215,4.6,4.6,0,0,1-2.883.832,5.347,5.347,0,0,1-2.187-.449,3.681,3.681,0,0,1-1.566-1.23,3,3,0,0,1-.551-1.773h1.508a1.959,1.959,0,0,0,.762,1.629,3.207,3.207,0,0,0,2.035.6,2.948,2.948,0,0,0,1.82-.484,1.573,1.573,0,0,0,.633-1.32,1.545,1.545,0,0,0-.586-1.293A6.755,6.755,0,0,0,209.3,9.93Z" transform="translate(506.9 14558)" fill="#00104e"/>
    <path id="Trazado_825356" data-name="Trazado 825356" d="M7.6,12.023H2.836L1.766,15H.219L4.563,3.625H5.875L10.227,15H8.688ZM3.289,10.8H7.156L5.219,5.477Zm16.75.594a4.185,4.185,0,0,1-1.332,2.785,4.365,4.365,0,0,1-2.98.98,4.008,4.008,0,0,1-3.23-1.445,5.815,5.815,0,0,1-1.215-3.867V8.75a6.481,6.481,0,0,1,.566-2.789,4.231,4.231,0,0,1,1.605-1.848,4.47,4.47,0,0,1,2.406-.645A4.11,4.11,0,0,1,18.766,4.48a4.235,4.235,0,0,1,1.273,2.8H18.531a3.268,3.268,0,0,0-.848-1.975A2.565,2.565,0,0,0,15.859,4.7a2.684,2.684,0,0,0-2.254,1.063,4.882,4.882,0,0,0-.816,3.026v1.1a5.018,5.018,0,0,0,.773,2.948,2.5,2.5,0,0,0,2.164,1.095,2.886,2.886,0,0,0,1.918-.566,3.143,3.143,0,0,0,.887-1.973Zm10.414,0a4.185,4.185,0,0,1-1.332,2.785,4.365,4.365,0,0,1-2.98.98,4.008,4.008,0,0,1-3.23-1.445A5.815,5.815,0,0,1,21.7,9.844V8.75a6.481,6.481,0,0,1,.566-2.789,4.231,4.231,0,0,1,1.605-1.848,4.47,4.47,0,0,1,2.406-.645A4.11,4.11,0,0,1,29.18,4.48a4.235,4.235,0,0,1,1.273,2.8H28.945A3.268,3.268,0,0,0,28.1,5.307,2.565,2.565,0,0,0,26.273,4.7,2.684,2.684,0,0,0,24.02,5.759,4.882,4.882,0,0,0,23.2,8.785v1.1a5.018,5.018,0,0,0,.773,2.948,2.5,2.5,0,0,0,2.164,1.095,2.886,2.886,0,0,0,1.918-.566,3.143,3.143,0,0,0,.887-1.973ZM38.93,9.742H34v4.031h5.727V15H32.5V3.625h7.148V4.852H34V8.516h4.93Zm6.016.188a7.053,7.053,0,0,1-2.809-1.363,2.6,2.6,0,0,1-.879-2,2.751,2.751,0,0,1,1.074-2.223,4.269,4.269,0,0,1,2.793-.879,4.66,4.66,0,0,1,2.09.453,3.436,3.436,0,0,1,1.422,1.25,3.2,3.2,0,0,1,.5,1.742H47.633a2.08,2.08,0,0,0-.656-1.627A2.669,2.669,0,0,0,45.125,4.7a2.732,2.732,0,0,0-1.73.489,1.632,1.632,0,0,0-.621,1.358,1.468,1.468,0,0,0,.59,1.178,5.785,5.785,0,0,0,2.008.88,9.316,9.316,0,0,1,2.219.88A3.367,3.367,0,0,1,48.777,10.6a2.861,2.861,0,0,1,.387,1.508,2.658,2.658,0,0,1-1.078,2.215,4.6,4.6,0,0,1-2.883.832,5.347,5.347,0,0,1-2.187-.449,3.681,3.681,0,0,1-1.566-1.23A3,3,0,0,1,40.9,11.7h1.508a1.959,1.959,0,0,0,.762,1.629,3.207,3.207,0,0,0,2.035.6,2.948,2.948,0,0,0,1.82-.484,1.573,1.573,0,0,0,.633-1.32,1.545,1.545,0,0,0-.586-1.293A6.755,6.755,0,0,0,44.945,9.93Zm14.891-.25a7.037,7.037,0,0,1-.562,2.918,4.261,4.261,0,0,1-1.594,1.9,4.4,4.4,0,0,1-6.4-1.887,6.752,6.752,0,0,1-.59-2.832v-.82a6.953,6.953,0,0,1,.57-2.9,4.218,4.218,0,0,1,4-2.594,4.41,4.41,0,0,1,2.41.66,4.253,4.253,0,0,1,1.605,1.914,7.071,7.071,0,0,1,.563,2.918Zm-1.492-.734a5.1,5.1,0,0,0-.812-3.105,2.68,2.68,0,0,0-2.273-1.082A2.651,2.651,0,0,0,53.02,5.84a5,5,0,0,0-.84,3V9.68A5.107,5.107,0,0,0,53,12.762a2.888,2.888,0,0,0,4.52.063,5.079,5.079,0,0,0,.82-3.035Zm13.984,3.078H67.563L66.492,15H64.945L69.289,3.625H70.6L74.953,15H73.414ZM68.016,10.8h3.867l-1.937-5.32ZM80.445,15V3.625h3.211a5.169,5.169,0,0,1,2.625.656,4.438,4.438,0,0,1,1.762,1.867,6.078,6.078,0,0,1,.629,2.781v.727a6.1,6.1,0,0,1-.621,2.82,4.369,4.369,0,0,1-1.773,1.859A5.5,5.5,0,0,1,83.594,15Zm1.5-10.148v8.922h1.578a3.434,3.434,0,0,0,2.7-1.079,4.458,4.458,0,0,0,.965-3.073V8.957a4.529,4.529,0,0,0-.91-3.014A3.239,3.239,0,0,0,83.7,4.852Zm15.109,7.172H92.289L91.219,15H89.672L94.016,3.625h1.313L99.68,15H98.141ZM92.742,10.8h3.867l-1.937-5.32Zm15.32-5.945h-3.656V15h-1.492V4.852H99.266V3.625h8.8ZM118.281,9.68a7.037,7.037,0,0,1-.562,2.918,4.261,4.261,0,0,1-1.594,1.9,4.4,4.4,0,0,1-6.4-1.887,6.752,6.752,0,0,1-.59-2.832v-.82a6.953,6.953,0,0,1,.57-2.9,4.218,4.218,0,0,1,4-2.594,4.41,4.41,0,0,1,2.41.66,4.253,4.253,0,0,1,1.605,1.914,7.071,7.071,0,0,1,.563,2.918Zm-1.492-.734a5.1,5.1,0,0,0-.812-3.105A2.68,2.68,0,0,0,113.7,4.758a2.651,2.651,0,0,0-2.238,1.082,5,5,0,0,0-.84,3V9.68a5.107,5.107,0,0,0,.824,3.082,2.888,2.888,0,0,0,4.52.063,5.079,5.079,0,0,0,.82-3.035Zm7.094.984a7.053,7.053,0,0,1-2.809-1.363,2.6,2.6,0,0,1-.879-2,2.751,2.751,0,0,1,1.074-2.223,4.269,4.269,0,0,1,2.793-.879,4.66,4.66,0,0,1,2.09.453,3.436,3.436,0,0,1,1.422,1.25,3.2,3.2,0,0,1,.5,1.742H126.57a2.08,2.08,0,0,0-.656-1.627,2.669,2.669,0,0,0-1.852-.592,2.732,2.732,0,0,0-1.73.489,1.632,1.632,0,0,0-.621,1.358,1.468,1.468,0,0,0,.59,1.178,5.785,5.785,0,0,0,2.008.88,9.316,9.316,0,0,1,2.219.88,3.367,3.367,0,0,1,1.188,1.121,2.861,2.861,0,0,1,.387,1.508,2.658,2.658,0,0,1-1.078,2.215,4.6,4.6,0,0,1-2.883.832,5.347,5.347,0,0,1-2.187-.449,3.681,3.681,0,0,1-1.566-1.23,3,3,0,0,1-.551-1.773h1.508a1.959,1.959,0,0,0,.762,1.629,3.207,3.207,0,0,0,2.035.6,2.948,2.948,0,0,0,1.82-.484,1.573,1.573,0,0,0,.633-1.32,1.545,1.545,0,0,0-.586-1.293A6.755,6.755,0,0,0,123.883,9.93Z" transform="translate(1097.855 14180.65)" fill="#fff"/>
    <path id="Trazado_825359" data-name="Trazado 825359" d="M10.063,15H8.555L2.828,6.234V15H1.32V3.625H2.828l5.742,8.8v-8.8h1.492Zm9.094-5.258h-4.93v4.031h5.727V15H12.727V3.625h7.148V4.852H14.227V8.516h4.93Zm11.063,3.766a3.465,3.465,0,0,1-1.613,1.238,6.517,6.517,0,0,1-2.41.41,4.674,4.674,0,0,1-2.469-.652,4.346,4.346,0,0,1-1.668-1.855,6.408,6.408,0,0,1-.605-2.789V8.867a5.982,5.982,0,0,1,1.2-3.984,4.179,4.179,0,0,1,3.371-1.414,4.316,4.316,0,0,1,2.867.91,3.965,3.965,0,0,1,1.328,2.582h-1.5A2.48,2.48,0,0,0,26.031,4.7a2.655,2.655,0,0,0-2.285,1.06,5.173,5.173,0,0,0-.785,3.069v.93a4.848,4.848,0,0,0,.875,3.046A2.836,2.836,0,0,0,26.2,13.93a5.228,5.228,0,0,0,1.477-.187,2.283,2.283,0,0,0,1.047-.631V10.563H26.094V9.336h4.125ZM41.469,9.68a7.037,7.037,0,0,1-.562,2.918,4.261,4.261,0,0,1-1.594,1.9,4.4,4.4,0,0,1-6.4-1.887,6.752,6.752,0,0,1-.59-2.832v-.82a6.953,6.953,0,0,1,.57-2.9,4.218,4.218,0,0,1,4-2.594,4.41,4.41,0,0,1,2.41.66,4.253,4.253,0,0,1,1.605,1.914,7.071,7.071,0,0,1,.563,2.918Zm-1.492-.734a5.1,5.1,0,0,0-.812-3.105,2.68,2.68,0,0,0-2.273-1.082A2.651,2.651,0,0,0,34.652,5.84a5,5,0,0,0-.84,3V9.68a5.107,5.107,0,0,0,.824,3.082,2.888,2.888,0,0,0,4.52.063,5.079,5.079,0,0,0,.82-3.035Zm12.109,2.445a4.185,4.185,0,0,1-1.332,2.785,4.365,4.365,0,0,1-2.98.98,4.008,4.008,0,0,1-3.23-1.445,5.815,5.815,0,0,1-1.215-3.867V8.75a6.481,6.481,0,0,1,.566-2.789A4.231,4.231,0,0,1,45.5,4.113a4.47,4.47,0,0,1,2.406-.645A4.11,4.11,0,0,1,50.813,4.48a4.235,4.235,0,0,1,1.273,2.8H50.578a3.268,3.268,0,0,0-.848-1.975A2.565,2.565,0,0,0,47.906,4.7a2.684,2.684,0,0,0-2.254,1.063,4.882,4.882,0,0,0-.816,3.026v1.1a5.018,5.018,0,0,0,.773,2.948,2.5,2.5,0,0,0,2.164,1.095,2.887,2.887,0,0,0,1.918-.566,3.143,3.143,0,0,0,.887-1.973ZM55.742,15h-1.5V3.625h1.5ZM67.234,9.68a7.037,7.037,0,0,1-.562,2.918,4.261,4.261,0,0,1-1.594,1.9,4.4,4.4,0,0,1-6.4-1.887,6.752,6.752,0,0,1-.59-2.832v-.82a6.953,6.953,0,0,1,.57-2.9,4.218,4.218,0,0,1,4-2.594,4.41,4.41,0,0,1,2.41.66,4.253,4.253,0,0,1,1.605,1.914,7.071,7.071,0,0,1,.563,2.918Zm-1.492-.734A5.1,5.1,0,0,0,64.93,5.84a2.68,2.68,0,0,0-2.273-1.082A2.651,2.651,0,0,0,60.418,5.84a5,5,0,0,0-.84,3V9.68a5.107,5.107,0,0,0,.824,3.082,2.888,2.888,0,0,0,4.52.063,5.079,5.079,0,0,0,.82-3.035ZM73.445,15V3.625h3.211a5.169,5.169,0,0,1,2.625.656,4.438,4.438,0,0,1,1.762,1.867,6.078,6.078,0,0,1,.629,2.781v.727a6.1,6.1,0,0,1-.621,2.82,4.369,4.369,0,0,1-1.773,1.859A5.5,5.5,0,0,1,76.594,15Zm1.5-10.148v8.922h1.578a3.434,3.434,0,0,0,2.7-1.079,4.458,4.458,0,0,0,.965-3.073V8.957a4.529,4.529,0,0,0-.91-3.014A3.239,3.239,0,0,0,76.7,4.852ZM90.367,9.742h-4.93v4.031h5.727V15H83.938V3.625h7.148V4.852H85.438V8.516h4.93ZM98.5,13.773h5.391V15h-6.9V3.625H98.5ZM113.844,9.68a7.037,7.037,0,0,1-.562,2.918,4.261,4.261,0,0,1-1.594,1.9,4.4,4.4,0,0,1-6.4-1.887,6.752,6.752,0,0,1-.59-2.832v-.82a6.953,6.953,0,0,1,.57-2.9,4.218,4.218,0,0,1,4-2.594,4.41,4.41,0,0,1,2.41.66,4.253,4.253,0,0,1,1.605,1.914,7.071,7.071,0,0,1,.563,2.918Zm-1.492-.734a5.1,5.1,0,0,0-.812-3.105,2.68,2.68,0,0,0-2.273-1.082,2.651,2.651,0,0,0-2.238,1.082,5,5,0,0,0-.84,3V9.68a5.107,5.107,0,0,0,.824,3.082,2.888,2.888,0,0,0,4.52.063,5.079,5.079,0,0,0,.82-3.035ZM110,.578h1.75l-2.094,2.3-1.164,0Zm14.492,12.93a3.465,3.465,0,0,1-1.613,1.238,6.517,6.517,0,0,1-2.41.41A4.674,4.674,0,0,1,118,14.5a4.346,4.346,0,0,1-1.668-1.855,6.408,6.408,0,0,1-.605-2.789V8.867a5.982,5.982,0,0,1,1.2-3.984A4.179,4.179,0,0,1,120.3,3.469a4.316,4.316,0,0,1,2.867.91,3.965,3.965,0,0,1,1.328,2.582h-1.5A2.48,2.48,0,0,0,120.3,4.7a2.655,2.655,0,0,0-2.285,1.06,5.173,5.173,0,0,0-.785,3.069v.93a4.848,4.848,0,0,0,.875,3.046,2.836,2.836,0,0,0,2.367,1.13,5.228,5.228,0,0,0,1.477-.187A2.283,2.283,0,0,0,123,13.111V10.563h-2.633V9.336h4.125ZM128.6,15h-1.5V3.625h1.5Zm11.109-3.609a4.185,4.185,0,0,1-1.332,2.785,4.365,4.365,0,0,1-2.98.98,4.008,4.008,0,0,1-3.23-1.445,5.815,5.815,0,0,1-1.215-3.867V8.75a6.481,6.481,0,0,1,.566-2.789,4.231,4.231,0,0,1,1.605-1.848,4.47,4.47,0,0,1,2.406-.645,4.11,4.11,0,0,1,2.906,1.012,4.235,4.235,0,0,1,1.273,2.8H138.2a3.268,3.268,0,0,0-.848-1.975,2.565,2.565,0,0,0-1.824-.611,2.684,2.684,0,0,0-2.254,1.063,4.882,4.882,0,0,0-.816,3.026v1.1a5.018,5.018,0,0,0,.773,2.948A2.5,2.5,0,0,0,135.4,13.93a2.887,2.887,0,0,0,1.918-.566,3.143,3.143,0,0,0,.887-1.973Zm8.328.633h-4.766L142.2,15h-1.547L145,3.625h1.313L150.664,15h-1.539ZM143.727,10.8h3.867l-1.937-5.32Z" transform="translate(1091.216 14343.65)" fill="#fff"/>
    <path id="Trazado_825365" data-name="Trazado 825365" d="M2.93,15H1.43V3.625h1.5Zm11.484,0H12.906L7.18,6.234V15H5.672V3.625H7.18l5.742,8.8v-8.8h1.492Zm10.3-10.148H21.055V15H19.563V4.852H15.914V3.625h8.8Zm8.117,4.891H27.9v4.031h5.727V15H26.4V3.625h7.148V4.852H27.9V8.516h4.93Zm6.836.656H36.992V15H35.484V3.625H39.25a4.457,4.457,0,0,1,2.957.875,3.148,3.148,0,0,1,1.035,2.547A3.062,3.062,0,0,1,42.668,8.9a3.428,3.428,0,0,1-1.6,1.18l2.672,4.828V15H42.133ZM36.992,9.172h2.3a2.6,2.6,0,0,0,1.777-.579,1.959,1.959,0,0,0,.66-1.55,2.062,2.062,0,0,0-.629-1.62,2.663,2.663,0,0,0-1.816-.571h-2.3Zm14.625.8H46.844V15h-1.5V3.625h7.047V4.852H46.844v3.9h4.773Zm7.523,2.047H54.375L53.3,15H51.758L56.1,3.625h1.313L61.766,15H60.227ZM54.828,10.8H58.7l-1.937-5.32Zm9.594,2.977H70.93V15H62.648V13.875l6.234-9.023H62.75V3.625h7.93V4.72ZM76.836,15V3.625h3.211a5.169,5.169,0,0,1,2.625.656,4.438,4.438,0,0,1,1.762,1.867,6.078,6.078,0,0,1,.629,2.781v.727a6.1,6.1,0,0,1-.621,2.82,4.369,4.369,0,0,1-1.773,1.859A5.5,5.5,0,0,1,79.984,15Zm1.5-10.148v8.922h1.578a3.434,3.434,0,0,0,2.7-1.079,4.458,4.458,0,0,0,.965-3.073V8.957a4.529,4.529,0,0,0-.91-3.014,3.239,3.239,0,0,0-2.582-1.091ZM93.758,9.742h-4.93v4.031h5.727V15H87.328V3.625h7.148V4.852H88.828V8.516h4.93Zm8.133,4.031h5.391V15h-6.9V3.625h1.508ZM117.234,9.68a7.037,7.037,0,0,1-.562,2.918,4.261,4.261,0,0,1-1.594,1.9,4.4,4.4,0,0,1-6.4-1.887,6.752,6.752,0,0,1-.59-2.832v-.82a6.953,6.953,0,0,1,.57-2.9,4.218,4.218,0,0,1,4-2.594,4.41,4.41,0,0,1,2.41.66,4.253,4.253,0,0,1,1.605,1.914,7.071,7.071,0,0,1,.563,2.918Zm-1.492-.734a5.1,5.1,0,0,0-.812-3.105,2.68,2.68,0,0,0-2.273-1.082,2.651,2.651,0,0,0-2.238,1.082,5,5,0,0,0-.84,3V9.68a5.107,5.107,0,0,0,.824,3.082,2.888,2.888,0,0,0,4.52.063,5.079,5.079,0,0,0,.82-3.035ZM113.391.578h1.75l-2.094,2.3-1.164,0Zm14.492,12.93a3.465,3.465,0,0,1-1.613,1.238,6.517,6.517,0,0,1-2.41.41,4.674,4.674,0,0,1-2.469-.652,4.346,4.346,0,0,1-1.668-1.855,6.408,6.408,0,0,1-.605-2.789V8.867a5.982,5.982,0,0,1,1.2-3.984,4.179,4.179,0,0,1,3.371-1.414,4.316,4.316,0,0,1,2.867.91,3.965,3.965,0,0,1,1.328,2.582h-1.5A2.48,2.48,0,0,0,123.7,4.7a2.655,2.655,0,0,0-2.285,1.06,5.173,5.173,0,0,0-.785,3.069v.93A4.848,4.848,0,0,0,121.5,12.8a2.836,2.836,0,0,0,2.367,1.13,5.228,5.228,0,0,0,1.477-.187,2.283,2.283,0,0,0,1.047-.631V10.563h-2.633V9.336h4.125ZM131.992,15h-1.5V3.625h1.5ZM143.1,11.391a4.185,4.185,0,0,1-1.332,2.785,4.365,4.365,0,0,1-2.98.98,4.008,4.008,0,0,1-3.23-1.445,5.815,5.815,0,0,1-1.215-3.867V8.75a6.481,6.481,0,0,1,.566-2.789,4.231,4.231,0,0,1,1.605-1.848,4.47,4.47,0,0,1,2.406-.645,4.11,4.11,0,0,1,2.906,1.012,4.235,4.235,0,0,1,1.273,2.8h-1.508a3.268,3.268,0,0,0-.848-1.975,2.565,2.565,0,0,0-1.824-.611,2.684,2.684,0,0,0-2.254,1.063,4.882,4.882,0,0,0-.816,3.026v1.1a5.018,5.018,0,0,0,.773,2.948,2.5,2.5,0,0,0,2.164,1.095,2.887,2.887,0,0,0,1.918-.566,3.143,3.143,0,0,0,.887-1.973Zm8.328.633h-4.766L145.594,15h-1.547l4.344-11.375H149.7L154.055,15h-1.539ZM147.117,10.8h3.867l-1.937-5.32Z" transform="translate(1087.094 14525)" fill="#fff"/>
    <path id="Trazado_825367" data-name="Trazado 825367" d="M9.328,3.625v7.734a3.628,3.628,0,0,1-1.012,2.633,4.077,4.077,0,0,1-2.723,1.148l-.4.016a4.258,4.258,0,0,1-2.977-1.008,3.6,3.6,0,0,1-1.125-2.773V3.625H2.578v7.7a2.6,2.6,0,0,0,.68,1.918A2.612,2.612,0,0,0,5.2,13.93a2.63,2.63,0,0,0,1.949-.68,2.6,2.6,0,0,0,.676-1.914V3.625Zm5.719,6.3a7.053,7.053,0,0,1-2.809-1.363,2.6,2.6,0,0,1-.879-2,2.751,2.751,0,0,1,1.074-2.223,4.269,4.269,0,0,1,2.793-.879,4.66,4.66,0,0,1,2.09.453,3.436,3.436,0,0,1,1.422,1.25,3.2,3.2,0,0,1,.5,1.742H17.734a2.08,2.08,0,0,0-.656-1.627A2.669,2.669,0,0,0,15.227,4.7a2.732,2.732,0,0,0-1.73.489,1.632,1.632,0,0,0-.621,1.358,1.468,1.468,0,0,0,.59,1.178,5.785,5.785,0,0,0,2.008.88,9.316,9.316,0,0,1,2.219.88A3.367,3.367,0,0,1,18.879,10.6a2.861,2.861,0,0,1,.387,1.508,2.658,2.658,0,0,1-1.078,2.215,4.6,4.6,0,0,1-2.883.832,5.347,5.347,0,0,1-2.187-.449,3.681,3.681,0,0,1-1.566-1.23A3,3,0,0,1,11,11.7h1.508a1.959,1.959,0,0,0,.762,1.629,3.207,3.207,0,0,0,2.035.6,2.948,2.948,0,0,0,1.82-.484,1.573,1.573,0,0,0,.633-1.32,1.545,1.545,0,0,0-.586-1.293A6.755,6.755,0,0,0,15.047,9.93ZM29.2,3.625v7.734a3.628,3.628,0,0,1-1.012,2.633,4.077,4.077,0,0,1-2.723,1.148l-.4.016a4.258,4.258,0,0,1-2.977-1.008,3.6,3.6,0,0,1-1.125-2.773V3.625h1.484v7.7a2.6,2.6,0,0,0,.68,1.918,2.612,2.612,0,0,0,1.938.684,2.63,2.63,0,0,0,1.949-.68,2.6,2.6,0,0,0,.676-1.914V3.625Zm8.477,8.4H32.906L31.836,15H30.289L34.633,3.625h1.313L40.3,15H38.758ZM33.359,10.8h3.867l-1.937-5.32ZM46,10.4H43.328V15H41.82V3.625h3.766a4.457,4.457,0,0,1,2.957.875,3.148,3.148,0,0,1,1.035,2.547A3.062,3.062,0,0,1,49,8.9a3.428,3.428,0,0,1-1.6,1.18l2.672,4.828V15H48.469ZM43.328,9.172h2.3a2.6,2.6,0,0,0,1.777-.579,1.959,1.959,0,0,0,.66-1.55,2.062,2.062,0,0,0-.629-1.62,2.663,2.663,0,0,0-1.816-.571h-2.3ZM53.289,15h-1.5V3.625h1.5ZM64.781,9.68a7.037,7.037,0,0,1-.562,2.918,4.261,4.261,0,0,1-1.594,1.9,4.4,4.4,0,0,1-6.4-1.887,6.752,6.752,0,0,1-.59-2.832v-.82a6.953,6.953,0,0,1,.57-2.9,4.218,4.218,0,0,1,4-2.594,4.41,4.41,0,0,1,2.41.66,4.253,4.253,0,0,1,1.605,1.914,7.071,7.071,0,0,1,.563,2.918Zm-1.492-.734a5.1,5.1,0,0,0-.812-3.105A2.68,2.68,0,0,0,60.2,4.758,2.651,2.651,0,0,0,57.965,5.84a5,5,0,0,0-.84,3V9.68a5.107,5.107,0,0,0,.824,3.082,2.888,2.888,0,0,0,4.52.063,5.079,5.079,0,0,0,.82-3.035ZM70.992,15V3.625H74.2a5.169,5.169,0,0,1,2.625.656A4.438,4.438,0,0,1,78.59,6.148a6.078,6.078,0,0,1,.629,2.781v.727a6.1,6.1,0,0,1-.621,2.82,4.369,4.369,0,0,1-1.773,1.859A5.5,5.5,0,0,1,74.141,15Zm1.5-10.148v8.922H74.07a3.434,3.434,0,0,0,2.7-1.079,4.458,4.458,0,0,0,.965-3.073V8.957a4.529,4.529,0,0,0-.91-3.014,3.239,3.239,0,0,0-2.582-1.091ZM87.914,9.742h-4.93v4.031h5.727V15H81.484V3.625h7.148V4.852H82.984V8.516h4.93ZM96.148,15h-1.5V3.625h1.5Zm11.484,0h-1.508L100.4,6.234V15H98.891V3.625H100.4l5.742,8.8v-8.8h1.492Zm10.3-10.148h-3.656V15h-1.492V4.852h-3.648V3.625h8.8Zm8.117,4.891h-4.93v4.031h5.727V15h-7.227V3.625h7.148V4.852h-5.648V8.516h4.93Zm6.836.656h-2.672V15H128.7V3.625h3.766a4.457,4.457,0,0,1,2.957.875,3.148,3.148,0,0,1,1.035,2.547,3.062,3.062,0,0,1-.574,1.852,3.428,3.428,0,0,1-1.6,1.18l2.672,4.828V15h-1.609Zm-2.672-1.227h2.3a2.6,2.6,0,0,0,1.777-.579,1.959,1.959,0,0,0,.66-1.55,2.062,2.062,0,0,0-.629-1.62,2.663,2.663,0,0,0-1.816-.571h-2.3Zm14.625.8h-4.773V15h-1.5V3.625h7.047V4.852h-5.547v3.9h4.773Zm7.523,2.047h-4.766L146.523,15h-1.547L149.32,3.625h1.313L154.984,15h-1.539ZM148.047,10.8h3.867l-1.937-5.32Zm9.594,2.977h6.508V15h-8.281V13.875L162.1,4.852h-6.133V3.625h7.93V4.72Z" transform="translate(1080.412 14677)" fill="#fff"/>
    <line id="Línea_305" data-name="Línea 305" y2="101" transform="translate(1112.591 14219.5)" fill="none" stroke="#273a89" stroke-width="2"/>
    <line id="Línea_319" data-name="Línea 319" y2="65" transform="translate(481.878 14255.5)" fill="none" stroke="#273a89" stroke-width="2"/>
    <line id="Línea_320" data-name="Línea 320" y2="65" transform="translate(572.878 14255.5)" fill="none" stroke="#273a89" stroke-width="2"/>
    <line id="Línea_321" data-name="Línea 321" y2="65" transform="translate(681.162 14255.5)" fill="none" stroke="#273a89" stroke-width="2"/>
    <line id="Línea_307" data-name="Línea 307" y2="101" transform="translate(1112.591 14382.5)" fill="none" stroke="#273a89" stroke-width="2"/>
    <line id="Línea_311" data-name="Línea 311" y2="12.85" transform="translate(556.5 14525.5)" fill="none" stroke="#273a89" stroke-width="2"/>
    <line id="Línea_309" data-name="Línea 309" y2="76" transform="translate(1113 14573)" fill="none" stroke="#273a89" stroke-width="2"/>
    <line id="Línea_310" data-name="Línea 310" y2="76" transform="translate(1239.629 14655) rotate(180)" fill="none" stroke="#273a89" stroke-width="2"/>
    <line id="Línea_313" data-name="Línea 313" y1="28" transform="translate(659 14608)" fill="none" stroke="#273a89" stroke-width="2"/>
    <line id="Línea_318" data-name="Línea 318" y1="128" transform="translate(502 14395)" fill="none" stroke="#273a89" stroke-width="2"/>
    <line id="Línea_314" data-name="Línea 314" y1="28" transform="translate(659 14662)" fill="none" stroke="#273a89" stroke-width="2"/>
    <line id="Línea_316" data-name="Línea 316" y1="141" transform="translate(851 14549)" fill="none" stroke="#273a89" stroke-width="2"/>
    <line id="Línea_306" data-name="Línea 306" x2="74.589" transform="translate(1112.5 14275.5)" fill="none" stroke="#273a89" stroke-width="2"/>
    <line id="Línea_312" data-name="Línea 312" x2="484" transform="translate(556.5 14525.5)" fill="none" stroke="#273a89" stroke-width="2"/>
    <line id="Línea_317" data-name="Línea 317" x2="189" transform="translate(851.5 14549.35)" fill="none" stroke="#273a89" stroke-width="2"/>
    <line id="Línea_315" data-name="Línea 315" x2="192" transform="translate(659.5 14690)" fill="none" stroke="#273a89" stroke-width="2"/>
    <line id="Línea_308" data-name="Línea 308" x2="45.145" transform="translate(1112.5 14438.5)" fill="none" stroke="#273a89" stroke-width="2"/>
    <path id="Polígono_16" data-name="Polígono 16" d="M7,0l7,12H0Z" transform="translate(1196 14268) rotate(90)" fill="#273a89"/>
    <path id="Polígono_18" data-name="Polígono 18" d="M7,0l7,12H0Z" transform="translate(1164 14431) rotate(90)" fill="#273a89"/>
    <path id="Polígono_30" data-name="Polígono 30" d="M7,0l7,12H0Z" transform="translate(487 14248) rotate(90)" fill="#273a89"/>
    <path id="Polígono_31" data-name="Polígono 31" d="M7,0l7,12H0Z" transform="translate(580 14248) rotate(90)" fill="#273a89"/>
    <path id="Polígono_32" data-name="Polígono 32" d="M7,0l7,12H0Z" transform="translate(688 14248) rotate(90)" fill="#273a89"/>
    <path id="Polígono_22" data-name="Polígono 22" d="M7,0l7,12H0Z" transform="translate(1052 14518) rotate(90)" fill="#273a89"/>
    <path id="Polígono_24" data-name="Polígono 24" d="M7,0l7,12H0Z" transform="translate(1052 14542) rotate(90)" fill="#273a89"/>
    <path id="Polígono_17" data-name="Polígono 17" d="M7,0l7,12H0Z" transform="translate(1121 14324) rotate(180)" fill="#273a89"/>
    <path id="Polígono_19" data-name="Polígono 19" d="M7,0l7,12H0Z" transform="translate(1121 14487) rotate(180)" fill="#273a89"/>
    <path id="Polígono_20" data-name="Polígono 20" d="M7,0l7,12H0Z" transform="translate(1121 14655) rotate(180)" fill="#273a89"/>
    <path id="Polígono_27" data-name="Polígono 27" d="M7,0l7,12H0Z" transform="translate(489 14324) rotate(180)" fill="#273a89"/>
    <path id="Polígono_28" data-name="Polígono 28" d="M7,0l7,12H0Z" transform="translate(580 14324) rotate(180)" fill="#273a89"/>
    <path id="Polígono_29" data-name="Polígono 29" d="M7,0l7,12H0Z" transform="translate(688 14324) rotate(180)" fill="#273a89"/>
    <path id="Polígono_21" data-name="Polígono 21" d="M7,0l7,12H0Z" transform="translate(1233 14573)" fill="#273a89"/>
    <path id="Polígono_23" data-name="Polígono 23" d="M7,0l7,12H0Z" transform="translate(652 14602)" fill="#273a89"/>
    <path id="Polígono_25" data-name="Polígono 25" d="M7,0l7,12H0Z" transform="translate(495 14389)" fill="#273a89"/>
    <path id="Polígono_26" data-name="Polígono 26" d="M7,0l7,12H0Z" transform="translate(509 14529) rotate(180)" fill="#273a89"/>
  </g>
</svg>
