<svg xmlns="http://www.w3.org/2000/svg" width="610" height="360" viewBox="0 0 610 360">
  <g id="Grupo_1076291" data-name="Grupo 1076291" transform="translate(-705 -15962)">
    <rect id="Rectángulo_383219" data-name="Rectángulo 383219" width="610" height="360" transform="translate(705 15962)" fill="#fff"/>
    <g id="Grupo_1075506" data-name="Grupo 1075506" transform="translate(-57 -597)">
      <rect id="Rectángulo_383229" data-name="Rectángulo 383229" width="190" height="56" rx="7" transform="translate(1017 16599)" fill="#273a89"/>
      <rect id="Rectángulo_383235" data-name="Rectángulo 383235" width="90" height="30" rx="7" transform="translate(877 16636)" fill="#1682fb"/>
      <rect id="Rectángulo_383236" data-name="Rectángulo 383236" width="90" height="30" rx="7" transform="translate(841 16827)" fill="#1682fb"/>
      <path id="Trazado_825368" data-name="Trazado 825368" d="M2.82,10.547V15H1.32V3.625h4.2a4.215,4.215,0,0,1,2.926.953A3.231,3.231,0,0,1,9.5,7.1,3.189,3.189,0,0,1,8.465,9.652a4.4,4.4,0,0,1-2.965.895Zm0-1.227h2.7a2.7,2.7,0,0,0,1.844-.567A2.075,2.075,0,0,0,8,7.113a2.143,2.143,0,0,0-.641-1.628A2.525,2.525,0,0,0,5.6,4.852H2.82ZM12.758,15H11.313V6.547h1.445ZM11.2,4.3a.863.863,0,0,1,.215-.594.807.807,0,0,1,.637-.242.819.819,0,0,1,.641.242.854.854,0,0,1,.219.594.826.826,0,0,1-.219.586.834.834,0,0,1-.641.234.821.821,0,0,1-.637-.234A.834.834,0,0,1,11.2,4.3Zm11.016,6.563a5.062,5.062,0,0,1-.883,3.109,2.829,2.829,0,0,1-2.391,1.18,3.1,3.1,0,0,1-2.422-.977v4.07H15.07V6.547h1.32l.07.938a2.977,2.977,0,0,1,2.453-1.094,2.882,2.882,0,0,1,2.41,1.148,5.117,5.117,0,0,1,.887,3.2ZM20.766,10.7a3.735,3.735,0,0,0-.609-2.258,1.963,1.963,0,0,0-1.672-.828,2.125,2.125,0,0,0-1.969,1.164V12.82A2.129,2.129,0,0,0,18.5,13.977a1.954,1.954,0,0,0,1.652-.824A4.077,4.077,0,0,0,20.766,10.7Zm6.789,4.453a3.693,3.693,0,0,1-2.8-1.129,4.19,4.19,0,0,1-1.078-3.02v-.266A5.073,5.073,0,0,1,24.16,8.5,3.748,3.748,0,0,1,25.5,6.949a3.378,3.378,0,0,1,1.871-.559,3.166,3.166,0,0,1,2.563,1.086,4.7,4.7,0,0,1,.914,3.109v.6H25.125a3,3,0,0,0,.73,2.02,2.3,2.3,0,0,0,1.777.77,2.517,2.517,0,0,0,1.3-.312,3.259,3.259,0,0,0,.93-.828l.883.688A3.55,3.55,0,0,1,27.555,15.156Zm-.18-7.578a1.928,1.928,0,0,0-1.469.637A3.1,3.1,0,0,0,25.172,10h4.234V9.891a2.753,2.753,0,0,0-.594-1.707A1.815,1.815,0,0,0,27.375,7.578Zm10.07,5.18a1.064,1.064,0,0,0-.441-.91,4.249,4.249,0,0,0-1.539-.559,7.277,7.277,0,0,1-1.742-.562,2.479,2.479,0,0,1-.953-.781,1.869,1.869,0,0,1-.309-1.078,2.193,2.193,0,0,1,.879-1.758,3.432,3.432,0,0,1,2.246-.719,3.532,3.532,0,0,1,2.332.742,2.357,2.357,0,0,1,.895,1.9H37.359a1.3,1.3,0,0,0-.5-1.023,1.888,1.888,0,0,0-1.27-.43,1.976,1.976,0,0,0-1.234.344,1.082,1.082,0,0,0-.445.9.877.877,0,0,0,.414.789,5.1,5.1,0,0,0,1.5.508,7.8,7.8,0,0,1,1.754.578,2.558,2.558,0,0,1,1,.809,1.988,1.988,0,0,1,.324,1.152,2.163,2.163,0,0,1-.906,1.816,3.8,3.8,0,0,1-2.352.684,4.257,4.257,0,0,1-1.8-.359,2.922,2.922,0,0,1-1.223-1,2.42,2.42,0,0,1-.441-1.395h1.445a1.5,1.5,0,0,0,.582,1.152,2.258,2.258,0,0,0,1.434.426,2.331,2.331,0,0,0,1.316-.332A1.02,1.02,0,0,0,37.445,12.758ZM49.953,15a3.036,3.036,0,0,1-.2-.891,3.225,3.225,0,0,1-2.406,1.047,2.984,2.984,0,0,1-2.051-.707,2.287,2.287,0,0,1-.8-1.793,2.39,2.39,0,0,1,1-2.051,4.733,4.733,0,0,1,2.824-.73h1.406V9.211A1.623,1.623,0,0,0,49.273,8a1.821,1.821,0,0,0-1.336-.449,2.107,2.107,0,0,0-1.3.391,1.151,1.151,0,0,0-.523.945H44.664a2,2,0,0,1,.449-1.223,3.066,3.066,0,0,1,1.219-.934,4.1,4.1,0,0,1,1.691-.344,3.342,3.342,0,0,1,2.289.73,2.635,2.635,0,0,1,.859,2.012v3.891a4.757,4.757,0,0,0,.3,1.852V15Zm-2.4-1.1a2.54,2.54,0,0,0,1.289-.352,2.127,2.127,0,0,0,.883-.914V10.9H48.594q-2.656,0-2.656,1.555a1.316,1.316,0,0,0,.453,1.063A1.742,1.742,0,0,0,47.555,13.9ZM54.8,6.547l.047,1.063a3.08,3.08,0,0,1,2.531-1.219q2.68,0,2.7,3.023V15H58.641V9.406a1.946,1.946,0,0,0-.418-1.352,1.675,1.675,0,0,0-1.277-.437,2.086,2.086,0,0,0-1.234.375,2.546,2.546,0,0,0-.828.984V15H53.438V6.547ZM61.914,10.7a4.952,4.952,0,0,1,.922-3.129A3.137,3.137,0,0,1,67.6,7.406V3h1.445V15H67.719l-.07-.906a2.943,2.943,0,0,1-2.414,1.063,2.887,2.887,0,0,1-2.395-1.2,5.008,5.008,0,0,1-.926-3.141Zm1.445.164a3.749,3.749,0,0,0,.594,2.25,1.92,1.92,0,0,0,1.641.813A2.108,2.108,0,0,0,67.6,12.7V8.813a2.125,2.125,0,0,0-1.992-1.2,1.929,1.929,0,0,0-1.656.82A4.128,4.128,0,0,0,63.359,10.867ZM81.75,9.977H76.977V15h-1.5V3.625h7.047V4.852H76.977v3.9H81.75ZM85.664,15H84.219V6.547h1.445ZM84.1,4.3a.863.863,0,0,1,.215-.594.807.807,0,0,1,.637-.242.819.819,0,0,1,.641.242.854.854,0,0,1,.219.594.826.826,0,0,1-.219.586.834.834,0,0,1-.641.234.821.821,0,0,1-.637-.234A.834.834,0,0,1,84.1,4.3ZM89.547,15H88.1V3h1.445ZM93.82,4.5V6.547H95.4V7.664H93.82v5.249a1.173,1.173,0,0,0,.211.763.888.888,0,0,0,.719.254,3.5,3.5,0,0,0,.688-.094V15a4.215,4.215,0,0,1-1.109.155,1.8,1.8,0,0,1-1.461-.586,2.517,2.517,0,0,1-.492-1.664V7.664H90.836V6.547h1.539V4.5Zm6.773,10.656a3.693,3.693,0,0,1-2.8-1.129,4.19,4.19,0,0,1-1.078-3.02v-.266A5.073,5.073,0,0,1,97.2,8.5a3.748,3.748,0,0,1,1.344-1.547,3.378,3.378,0,0,1,1.871-.559,3.166,3.166,0,0,1,2.563,1.086,4.7,4.7,0,0,1,.914,3.109v.6H98.164a3,3,0,0,0,.73,2.02,2.3,2.3,0,0,0,1.777.77,2.517,2.517,0,0,0,1.3-.312,3.259,3.259,0,0,0,.93-.828l.883.688A3.55,3.55,0,0,1,100.594,15.156Zm-.18-7.578a1.928,1.928,0,0,0-1.469.637A3.1,3.1,0,0,0,98.211,10h4.234V9.891a2.753,2.753,0,0,0-.594-1.707A1.815,1.815,0,0,0,100.414,7.578Zm9.234.266a4.331,4.331,0,0,0-.711-.055A1.9,1.9,0,0,0,107.008,9v6h-1.445V6.547h1.406l.023.977a2.251,2.251,0,0,1,2.016-1.133,1.477,1.477,0,0,1,.641.109Zm6.25,4.914a1.064,1.064,0,0,0-.441-.91,4.249,4.249,0,0,0-1.539-.559,7.277,7.277,0,0,1-1.742-.562,2.479,2.479,0,0,1-.953-.781,1.869,1.869,0,0,1-.309-1.078,2.193,2.193,0,0,1,.879-1.758,3.432,3.432,0,0,1,2.246-.719,3.532,3.532,0,0,1,2.332.742,2.357,2.357,0,0,1,.895,1.9h-1.453a1.3,1.3,0,0,0-.5-1.023,1.888,1.888,0,0,0-1.27-.43,1.976,1.976,0,0,0-1.234.344,1.082,1.082,0,0,0-.445.9.877.877,0,0,0,.414.789,5.1,5.1,0,0,0,1.5.508,7.8,7.8,0,0,1,1.754.578,2.558,2.558,0,0,1,1,.809,1.988,1.988,0,0,1,.324,1.152,2.163,2.163,0,0,1-.906,1.816,3.8,3.8,0,0,1-2.352.684,4.257,4.257,0,0,1-1.8-.359,2.922,2.922,0,0,1-1.223-1,2.42,2.42,0,0,1-.441-1.395h1.445a1.5,1.5,0,0,0,.582,1.152,2.258,2.258,0,0,0,1.434.426,2.331,2.331,0,0,0,1.316-.332A1.02,1.02,0,0,0,115.9,12.758ZM1.039,34.383a12.079,12.079,0,0,1,.473-3.391,9.85,9.85,0,0,1,1.41-2.953,6,6,0,0,1,1.945-1.875l.3.953a6.222,6.222,0,0,0-1.871,2.672,11.583,11.583,0,0,0-.8,4.023l-.008.664a11.643,11.643,0,0,0,1.1,5.234,6.252,6.252,0,0,0,1.578,2.078l-.3.883a6.192,6.192,0,0,1-1.984-1.937A10.859,10.859,0,0,1,1.039,34.383ZM8.523,28.5v2.047H10.1v1.117H8.523v5.249a1.173,1.173,0,0,0,.211.763.888.888,0,0,0,.719.254,3.5,3.5,0,0,0,.688-.094V39a4.215,4.215,0,0,1-1.109.155A1.8,1.8,0,0,1,7.57,38.57a2.517,2.517,0,0,1-.492-1.664V31.664H5.539V30.547H7.078V28.5Zm8.484,9.664a3.07,3.07,0,0,1-2.477.992,2.628,2.628,0,0,1-2.059-.785,3.4,3.4,0,0,1-.715-2.324v-5.5H13.2v5.461q0,1.922,1.563,1.922a2.163,2.163,0,0,0,2.2-1.234V30.547h1.445V39H17.039Zm10.758-3.3a5.026,5.026,0,0,1-.891,3.113,2.846,2.846,0,0,1-2.391,1.176,2.947,2.947,0,0,1-2.477-1.133l-.07.977H20.609V27h1.445v4.477a2.93,2.93,0,0,1,2.414-1.086,2.863,2.863,0,0,1,2.418,1.164,5.177,5.177,0,0,1,.879,3.188ZM26.32,34.7a3.906,3.906,0,0,0-.57-2.281,1.888,1.888,0,0,0-1.641-.8,2.122,2.122,0,0,0-2.055,1.328V36.6a2.181,2.181,0,0,0,2.07,1.328,1.878,1.878,0,0,0,1.617-.8A4.153,4.153,0,0,0,26.32,34.7Zm6.773,4.453a3.693,3.693,0,0,1-2.8-1.129,4.19,4.19,0,0,1-1.078-3.02v-.266A5.073,5.073,0,0,1,29.7,32.5a3.748,3.748,0,0,1,1.344-1.547,3.378,3.378,0,0,1,1.871-.559,3.166,3.166,0,0,1,2.563,1.086,4.7,4.7,0,0,1,.914,3.109v.6H30.664a3,3,0,0,0,.73,2.02,2.3,2.3,0,0,0,1.777.77,2.517,2.517,0,0,0,1.3-.312,3.258,3.258,0,0,0,.93-.828l.883.688A3.55,3.55,0,0,1,33.094,39.156Zm-.18-7.578a1.928,1.928,0,0,0-1.469.637A3.1,3.1,0,0,0,30.711,34h4.234v-.109a2.753,2.753,0,0,0-.594-1.707A1.815,1.815,0,0,0,32.914,31.578Zm9.234.266a4.331,4.331,0,0,0-.711-.055A1.9,1.9,0,0,0,39.508,33v6H38.063V30.547h1.406l.023.977a2.251,2.251,0,0,1,2.016-1.133,1.477,1.477,0,0,1,.641.109ZM45.047,39H43.594V30.547h1.453Zm.016-11.977h1.75l-2.094,2.3-1.164,0ZM52.648,39a3.036,3.036,0,0,1-.2-.891,3.225,3.225,0,0,1-2.406,1.047,2.984,2.984,0,0,1-2.051-.707,2.287,2.287,0,0,1-.8-1.793,2.39,2.39,0,0,1,1-2.051,4.733,4.733,0,0,1,2.824-.73h1.406v-.664A1.623,1.623,0,0,0,51.969,32a1.821,1.821,0,0,0-1.336-.449,2.107,2.107,0,0,0-1.3.391,1.151,1.151,0,0,0-.523.945H47.359a2,2,0,0,1,.449-1.223,3.066,3.066,0,0,1,1.219-.934,4.1,4.1,0,0,1,1.691-.344,3.342,3.342,0,0,1,2.289.73,2.635,2.635,0,0,1,.859,2.012v3.891a4.757,4.757,0,0,0,.3,1.852V39Zm-2.4-1.1a2.54,2.54,0,0,0,1.289-.352,2.127,2.127,0,0,0,.883-.914V34.9H51.289q-2.656,0-2.656,1.555a1.316,1.316,0,0,0,.453,1.063A1.742,1.742,0,0,0,50.25,37.9Zm10.8-1.141a1.064,1.064,0,0,0-.441-.91,4.249,4.249,0,0,0-1.539-.559,7.277,7.277,0,0,1-1.742-.562,2.479,2.479,0,0,1-.953-.781,1.869,1.869,0,0,1-.309-1.078,2.193,2.193,0,0,1,.879-1.758,3.432,3.432,0,0,1,2.246-.719,3.532,3.532,0,0,1,2.332.742,2.357,2.357,0,0,1,.895,1.9H60.969a1.3,1.3,0,0,0-.5-1.023,1.888,1.888,0,0,0-1.27-.43,1.976,1.976,0,0,0-1.234.344,1.082,1.082,0,0,0-.445.9.877.877,0,0,0,.414.789,5.1,5.1,0,0,0,1.5.508,7.8,7.8,0,0,1,1.754.578,2.558,2.558,0,0,1,1,.809,1.988,1.988,0,0,1,.324,1.152,2.163,2.163,0,0,1-.906,1.816,3.8,3.8,0,0,1-2.352.684,4.257,4.257,0,0,1-1.8-.359,2.922,2.922,0,0,1-1.223-1,2.42,2.42,0,0,1-.441-1.395h1.445a1.5,1.5,0,0,0,.582,1.152,2.258,2.258,0,0,0,1.434.426,2.331,2.331,0,0,0,1.316-.332A1.02,1.02,0,0,0,61.055,36.758Zm10.055.125,1.969-6.336h1.547l-3.4,9.758q-.789,2.109-2.508,2.109l-.273-.023-.539-.1V41.117l.391.031a1.923,1.923,0,0,0,1.145-.3,2.149,2.149,0,0,0,.676-1.086l.32-.859-3.016-8.359H69ZM80.359,39V31.664H79.023V30.547h1.336v-.719a2.937,2.937,0,0,1,.809-2.2,3.136,3.136,0,0,1,2.285-.789,6.881,6.881,0,0,1,2.211.477l-.242,1.219a5.008,5.008,0,0,0-1.859-.391,1.819,1.819,0,0,0-1.34.418,1.723,1.723,0,0,0-.41,1.254v.734h1.727v1.117H81.813V39Zm6.023,0H84.93V30.547h1.453ZM90.3,39H88.859V27H90.3Zm4.273-10.5v2.047h1.578v1.117H94.578v5.249a1.173,1.173,0,0,0,.211.763.888.888,0,0,0,.719.254,3.5,3.5,0,0,0,.688-.094V39a4.215,4.215,0,0,1-1.109.155,1.8,1.8,0,0,1-1.461-.586,2.517,2.517,0,0,1-.492-1.664V31.664H91.594V30.547h1.539V28.5Zm7.352,3.344a4.331,4.331,0,0,0-.711-.055A1.9,1.9,0,0,0,99.289,33v6H97.844V30.547H99.25l.023.977a2.251,2.251,0,0,1,2.016-1.133,1.477,1.477,0,0,1,.641.109Zm.789,2.852a4.993,4.993,0,0,1,.488-2.234,3.643,3.643,0,0,1,1.359-1.531,3.7,3.7,0,0,1,1.988-.539,3.565,3.565,0,0,1,2.793,1.2,4.6,4.6,0,0,1,1.066,3.18v.1a5.036,5.036,0,0,1-.473,2.215,3.589,3.589,0,0,1-1.352,1.527,3.743,3.743,0,0,1-2.02.547,3.556,3.556,0,0,1-2.785-1.2,4.575,4.575,0,0,1-1.066-3.164Zm1.453.172a3.616,3.616,0,0,0,.652,2.258,2.211,2.211,0,0,0,3.5-.012,3.955,3.955,0,0,0,.648-2.418,3.61,3.61,0,0,0-.66-2.254,2.1,2.1,0,0,0-1.754-.863,2.075,2.075,0,0,0-1.727.852A3.925,3.925,0,0,0,104.172,34.867Zm12.977,1.891a1.064,1.064,0,0,0-.441-.91,4.249,4.249,0,0,0-1.539-.559,7.277,7.277,0,0,1-1.742-.562,2.479,2.479,0,0,1-.953-.781,1.869,1.869,0,0,1-.309-1.078,2.193,2.193,0,0,1,.879-1.758,3.432,3.432,0,0,1,2.246-.719,3.532,3.532,0,0,1,2.332.742,2.357,2.357,0,0,1,.895,1.9h-1.453a1.3,1.3,0,0,0-.5-1.023,1.888,1.888,0,0,0-1.27-.43,1.976,1.976,0,0,0-1.234.344,1.082,1.082,0,0,0-.445.9.877.877,0,0,0,.414.789,5.1,5.1,0,0,0,1.5.508,7.8,7.8,0,0,1,1.754.578,2.558,2.558,0,0,1,1,.809,1.988,1.988,0,0,1,.324,1.152,2.163,2.163,0,0,1-.906,1.816,3.8,3.8,0,0,1-2.352.684,4.257,4.257,0,0,1-1.8-.359,2.922,2.922,0,0,1-1.223-1,2.42,2.42,0,0,1-.441-1.395h1.445a1.5,1.5,0,0,0,.582,1.152,2.258,2.258,0,0,0,1.434.426,2.331,2.331,0,0,0,1.316-.332A1.02,1.02,0,0,0,117.148,36.758Zm6.664-2.3a12.085,12.085,0,0,1-.457,3.34,9.876,9.876,0,0,1-1.4,2.949,6.127,6.127,0,0,1-1.973,1.922l-.3-.883a6.281,6.281,0,0,0,1.934-2.863,12.387,12.387,0,0,0,.746-4.309v-.25a12.861,12.861,0,0,0-.344-3.051,10.3,10.3,0,0,0-.957-2.527,5.838,5.838,0,0,0-1.379-1.742l.3-.883a6.1,6.1,0,0,1,1.965,1.906,9.9,9.9,0,0,1,1.4,2.945A12.363,12.363,0,0,1,123.813,34.461Z" transform="translate(1044.855 16605.65)" fill="#fff"/>
      <path id="Trazado_825370" data-name="Trazado 825370" d="M3.359,10.992V15H1.016V3.625H5.453a5.134,5.134,0,0,1,2.254.469A3.454,3.454,0,0,1,9.2,5.426a3.714,3.714,0,0,1,.523,1.965,3.266,3.266,0,0,1-1.145,2.637,4.767,4.767,0,0,1-3.168.965Zm0-1.9H5.453a2.059,2.059,0,0,0,1.418-.437,1.591,1.591,0,0,0,.488-1.25,1.876,1.876,0,0,0-.492-1.352,1.839,1.839,0,0,0-1.359-.531H3.359ZM13.57,15H11.3V6.547H13.57Zm-2.4-10.641a1.112,1.112,0,0,1,.34-.836,1.277,1.277,0,0,1,.926-.328,1.28,1.28,0,0,1,.922.328,1.105,1.105,0,0,1,.344.836,1.108,1.108,0,0,1-.348.844,1.448,1.448,0,0,1-1.836,0A1.108,1.108,0,0,1,11.172,4.359Zm11.867,6.492a5.07,5.07,0,0,1-.887,3.129,2.843,2.843,0,0,1-2.395,1.176,2.633,2.633,0,0,1-2.07-.891V18.25H15.43V6.547h2.094l.078.828a2.654,2.654,0,0,1,2.141-.984,2.862,2.862,0,0,1,2.43,1.156,5.207,5.207,0,0,1,.867,3.188Zm-2.258-.172a3.345,3.345,0,0,0-.418-1.826,1.36,1.36,0,0,0-1.215-.643,1.478,1.478,0,0,0-1.461.815V12.5a1.5,1.5,0,0,0,1.477.839Q20.781,13.336,20.781,10.679Zm7.547,4.477A4.15,4.15,0,0,1,25.3,14.016a4.054,4.054,0,0,1-1.168-3.039v-.219a5.106,5.106,0,0,1,.492-2.277A3.612,3.612,0,0,1,26.02,6.934a3.914,3.914,0,0,1,2.059-.543,3.508,3.508,0,0,1,2.73,1.094,4.444,4.444,0,0,1,1,3.1v.922H26.422a2.1,2.1,0,0,0,.66,1.328,2,2,0,0,0,1.395.5,2.437,2.437,0,0,0,2.039-.945l1.109,1.242a3.389,3.389,0,0,1-1.375,1.121A4.511,4.511,0,0,1,28.328,15.156ZM28.07,8.211a1.411,1.411,0,0,0-1.09.455,2.357,2.357,0,0,0-.535,1.3h3.141V9.788a1.681,1.681,0,0,0-.406-1.165A1.456,1.456,0,0,0,28.07,8.211Zm9.594,4.453a.727.727,0,0,0-.41-.652,4.659,4.659,0,0,0-1.316-.426q-3.016-.633-3.016-2.562a2.323,2.323,0,0,1,.934-1.879A3.766,3.766,0,0,1,36.3,6.391a4.053,4.053,0,0,1,2.574.758,2.388,2.388,0,0,1,.965,1.969H37.578a1.092,1.092,0,0,0-.312-.8A1.322,1.322,0,0,0,36.289,8a1.351,1.351,0,0,0-.883.258.814.814,0,0,0-.312.656.7.7,0,0,0,.355.605,3.657,3.657,0,0,0,1.2.4,9.8,9.8,0,0,1,1.422.379,2.336,2.336,0,0,1,1.789,2.273,2.2,2.2,0,0,1-.992,1.871,4.28,4.28,0,0,1-2.562.715,4.47,4.47,0,0,1-1.887-.379,3.166,3.166,0,0,1-1.293-1.039,2.414,2.414,0,0,1-.469-1.426H34.8a1.179,1.179,0,0,0,.445.922,1.766,1.766,0,0,0,1.109.32,1.635,1.635,0,0,0,.98-.246A.766.766,0,0,0,37.664,12.664Z" transform="translate(866 16833.301)" fill="#fff"/>
      <rect id="Rectángulo_383228" data-name="Rectángulo 383228" width="51" height="36" rx="5" transform="translate(882 16726)" fill="#7fae21"/>
      <rect id="Rectángulo_383232" data-name="Rectángulo 383232" width="51" height="36" rx="5" transform="translate(1073 16726)" fill="#7fae21"/>
      <rect id="Rectángulo_383233" data-name="Rectángulo 383233" width="51" height="36" rx="5" transform="translate(1203 16726)" fill="#7fae21"/>
      <rect id="Rectángulo_383234" data-name="Rectángulo 383234" width="51" height="36" rx="5" transform="translate(1203 16775)" fill="#7fae21"/>
      <rect id="Rectángulo_383230" data-name="Rectángulo 383230" width="51" height="36" rx="5" transform="translate(964 16690)" fill="#7fae21"/>
      <rect id="Rectángulo_383231" data-name="Rectángulo 383231" width="51" height="36" rx="5" transform="translate(964 16762)" fill="#7fae21"/>
      <line id="Línea_348" data-name="Línea 348" x2="41" transform="translate(833.5 16744.5)" fill="none" stroke="#273a89" stroke-linecap="round" stroke-width="2"/>
      <line id="Línea_351" data-name="Línea 351" x2="18" transform="translate(934.5 16744.5)" fill="none" stroke="#273a89" stroke-linecap="round" stroke-width="2"/>
      <line id="Línea_353" data-name="Línea 353" x2="32" transform="translate(1017 16708)" fill="none" stroke="#273a89" stroke-linecap="round" stroke-width="2"/>
      <line id="Línea_354" data-name="Línea 354" x2="32" transform="translate(1017 16780)" fill="none" stroke="#273a89" stroke-linecap="round" stroke-width="2"/>
      <line id="Línea_355" data-name="Línea 355" x2="20" transform="translate(1049 16738)" fill="none" stroke="#273a89" stroke-linecap="round" stroke-width="2"/>
      <line id="Línea_370" data-name="Línea 370" x2="20" transform="translate(1258 16744)" fill="none" stroke="#273a89" stroke-linecap="round" stroke-width="2"/>
      <line id="Línea_371" data-name="Línea 371" x2="20" transform="translate(1258 16792)" fill="none" stroke="#273a89" stroke-linecap="round" stroke-width="2"/>
      <line id="Línea_369" data-name="Línea 369" x2="14" transform="translate(1254 16804)" fill="none" stroke="#273a89" stroke-linecap="round" stroke-width="2"/>
      <line id="Línea_367" data-name="Línea 367" x2="61" transform="translate(1128 16738)" fill="none" stroke="#273a89" stroke-linecap="round" stroke-width="2"/>
      <line id="Línea_368" data-name="Línea 368" x2="61" transform="translate(1128 16752)" fill="none" stroke="#273a89" stroke-linecap="round" stroke-width="2"/>
      <line id="Línea_356" data-name="Línea 356" x2="172" transform="translate(1017 16792)" fill="none" stroke="#273a89" stroke-linecap="round" stroke-width="2"/>
      <line id="Línea_357" data-name="Línea 357" x2="324" transform="translate(944 16822)" fill="none" stroke="#273a89" stroke-linecap="round" stroke-width="2"/>
      <line id="Línea_358" data-name="Línea 358" x2="20" transform="translate(1049 16753)" fill="none" stroke="#273a89" stroke-linecap="round" stroke-width="2"/>
      <line id="Línea_352" data-name="Línea 352" x2="18" transform="translate(934.5 16755.5)" fill="none" stroke="#273a89" stroke-linecap="round" stroke-width="2"/>
      <line id="Línea_359" data-name="Línea 359" x2="16" transform="translate(943.5 16796)" fill="none" stroke="#273a89" stroke-linecap="round" stroke-width="2"/>
      <line id="Línea_374" data-name="Línea 374" x2="63" transform="translate(874 16782)" fill="none" stroke="#ffb41e" stroke-linecap="round" stroke-width="2"/>
      <line id="Línea_377" data-name="Línea 377" y2="48.199" transform="translate(892 16666.5)" fill="none" stroke="#ffb41e" stroke-linecap="round" stroke-width="2"/>
      <line id="Línea_379" data-name="Línea 379" y2="25" transform="translate(1002 16654.5)" fill="none" stroke="#ffb41e" stroke-linecap="round" stroke-width="2"/>
      <line id="Línea_376" data-name="Línea 376" x2="33" transform="translate(898 16798)" fill="none" stroke="#ffb41e" stroke-linecap="round" stroke-width="2"/>
      <line id="Línea_378" data-name="Línea 378" x2="33" transform="translate(969 16654)" fill="none" stroke="#ffb41e" stroke-linecap="round" stroke-width="2"/>
      <line id="Línea_360" data-name="Línea 360" x2="7" transform="translate(953.5 16708.5)" fill="none" stroke="#273a89" stroke-linecap="round" stroke-width="2"/>
      <line id="Línea_361" data-name="Línea 361" x2="7" transform="translate(953.5 16781.5)" fill="none" stroke="#273a89" stroke-linecap="round" stroke-width="2"/>
      <path id="Polígono_46" data-name="Polígono 46" d="M6,0l6,10H0Z" transform="translate(879 16738) rotate(90)" fill="#273a89"/>
      <path id="Polígono_49" data-name="Polígono 49" d="M6,0l6,10H0Z" transform="translate(969 16702) rotate(90)" fill="#273a89"/>
      <path id="Polígono_52" data-name="Polígono 52" d="M6,0l6,10H0Z" transform="translate(1078 16732) rotate(90)" fill="#273a89"/>
      <path id="Polígono_57" data-name="Polígono 57" d="M6,0l6,10H0Z" transform="translate(1287 16738) rotate(90)" fill="#273a89"/>
      <path id="Polígono_58" data-name="Polígono 58" d="M6,0l6,10H0Z" transform="translate(1287 16786) rotate(90)" fill="#273a89"/>
      <path id="Polígono_54" data-name="Polígono 54" d="M6,0l6,10H0Z" transform="translate(1198 16732) rotate(90)" fill="#273a89"/>
      <path id="Polígono_55" data-name="Polígono 55" d="M6,0l6,10H0Z" transform="translate(1198 16746) rotate(90)" fill="#273a89"/>
      <path id="Polígono_56" data-name="Polígono 56" d="M6,0l6,10H0Z" transform="translate(1199 16786) rotate(90)" fill="#273a89"/>
      <path id="Polígono_53" data-name="Polígono 53" d="M6,0l6,10H0Z" transform="translate(1078 16747) rotate(90)" fill="#273a89"/>
      <path id="Polígono_50" data-name="Polígono 50" d="M6,0l6,10H0Z" transform="translate(969 16775) rotate(90)" fill="#273a89"/>
      <path id="Polígono_59" data-name="Polígono 59" d="M6,0l6,10H0Z" transform="translate(943 16776) rotate(90)" fill="#ffb41e"/>
      <path id="Polígono_61" data-name="Polígono 61" d="M6,0l6,10H0Z" transform="translate(898 16720.699) rotate(180)" fill="#ffb41e"/>
      <path id="Polígono_62" data-name="Polígono 62" d="M6,0l6,10H0Z" transform="translate(1008 16687.5) rotate(180)" fill="#ffb41e"/>
      <path id="Polígono_60" data-name="Polígono 60" d="M6,0l6,10H0Z" transform="translate(938 16792) rotate(90)" fill="#ffb41e"/>
      <path id="Polígono_51" data-name="Polígono 51" d="M6,0l6,10H0Z" transform="translate(969 16790) rotate(90)" fill="#273a89"/>
      <line id="Línea_362" data-name="Línea 362" y1="36" transform="translate(952.5 16708.5)" fill="none" stroke="#273a89" stroke-linecap="round" stroke-width="2"/>
      <line id="Línea_363" data-name="Línea 363" y1="29" transform="translate(1049 16708.5)" fill="none" stroke="#273a89" stroke-linecap="round" stroke-width="2"/>
      <line id="Línea_364" data-name="Línea 364" y1="27" transform="translate(1049 16753)" fill="none" stroke="#273a89" stroke-linecap="round" stroke-width="2"/>
      <line id="Línea_365" data-name="Línea 365" y1="26" transform="translate(952.5 16755.5)" fill="none" stroke="#273a89" stroke-linecap="round" stroke-width="2"/>
      <line id="Línea_366" data-name="Línea 366" y1="26" transform="translate(943.5 16796)" fill="none" stroke="#273a89" stroke-linecap="round" stroke-width="2"/>
      <line id="Línea_373" data-name="Línea 373" y1="39.5" transform="translate(873.5 16782.5)" fill="none" stroke="#ffb41e" stroke-linecap="round" stroke-width="2"/>
      <line id="Línea_375" data-name="Línea 375" y1="23.5" transform="translate(897.5 16798.5)" fill="none" stroke="#ffb41e" stroke-linecap="round" stroke-width="2"/>
      <line id="Línea_372" data-name="Línea 372" y1="18" transform="translate(1268 16804)" fill="none" stroke="#273a89" stroke-linecap="round" stroke-width="2"/>
      <path id="Trazado_825369" data-name="Trazado 825369" d="M7.859,10.352h-4.5V15H1.016V3.625H8.422v1.9H3.359V8.461h4.5ZM12.016,15H9.75V6.547h2.266ZM9.617,4.359a1.112,1.112,0,0,1,.34-.836,1.277,1.277,0,0,1,.926-.328,1.28,1.28,0,0,1,.922.328,1.105,1.105,0,0,1,.344.836A1.108,1.108,0,0,1,11.8,5.2a1.283,1.283,0,0,1-.918.328A1.283,1.283,0,0,1,9.965,5.2,1.108,1.108,0,0,1,9.617,4.359ZM16.258,15H13.992V3h2.266ZM20.82,4.469V6.547h1.445V8.2H20.82v4.219a1.007,1.007,0,0,0,.18.672.9.9,0,0,0,.688.2,3.6,3.6,0,0,0,.664-.055v1.711a4.648,4.648,0,0,1-1.367.2,2.156,2.156,0,0,1-2.422-2.4V8.2H17.328V6.547h1.234V4.469Zm6.594,10.688a4.15,4.15,0,0,1-3.027-1.141,4.054,4.054,0,0,1-1.168-3.039v-.219a5.106,5.106,0,0,1,.492-2.277,3.612,3.612,0,0,1,1.395-1.547,3.914,3.914,0,0,1,2.059-.543,3.508,3.508,0,0,1,2.73,1.094,4.444,4.444,0,0,1,1,3.1v.922H25.508a2.1,2.1,0,0,0,.66,1.328,2,2,0,0,0,1.395.5,2.437,2.437,0,0,0,2.039-.945l1.109,1.242a3.389,3.389,0,0,1-1.375,1.121A4.511,4.511,0,0,1,27.414,15.156Zm-.258-6.945a1.411,1.411,0,0,0-1.09.455,2.357,2.357,0,0,0-.535,1.3h3.141V9.788a1.681,1.681,0,0,0-.406-1.165A1.456,1.456,0,0,0,27.156,8.211Zm9.766.453a6.134,6.134,0,0,0-.812-.062,1.654,1.654,0,0,0-1.68.867V15H32.172V6.547H34.3l.063,1.008A2.092,2.092,0,0,1,36.25,6.391a2.366,2.366,0,0,1,.7.1Zm5.664,4a.727.727,0,0,0-.41-.652,4.659,4.659,0,0,0-1.316-.426q-3.016-.633-3.016-2.562a2.323,2.323,0,0,1,.934-1.879,3.766,3.766,0,0,1,2.441-.754,4.053,4.053,0,0,1,2.574.758,2.388,2.388,0,0,1,.965,1.969H42.5a1.092,1.092,0,0,0-.312-.8A1.322,1.322,0,0,0,41.211,8a1.351,1.351,0,0,0-.883.258.814.814,0,0,0-.312.656.7.7,0,0,0,.355.605,3.657,3.657,0,0,0,1.2.4,9.8,9.8,0,0,1,1.422.379,2.336,2.336,0,0,1,1.789,2.273,2.2,2.2,0,0,1-.992,1.871,4.28,4.28,0,0,1-2.562.715,4.47,4.47,0,0,1-1.887-.379,3.166,3.166,0,0,1-1.293-1.039,2.414,2.414,0,0,1-.469-1.426h2.141a1.179,1.179,0,0,0,.445.922,1.766,1.766,0,0,0,1.109.32,1.635,1.635,0,0,0,.98-.246A.766.766,0,0,0,42.586,12.664Z" transform="translate(901.5 16642.301)" fill="#fff"/>
    </g>
  </g>
</svg>
