<svg xmlns="http://www.w3.org/2000/svg" width="938" height="433.635" viewBox="0 0 938 433.635">
  <g id="Grupo_1076389" data-name="Grupo 1076389" transform="translate(-331 -2364.391)">
    <rect id="Rectángulo_383402" data-name="Rectángulo 383402" width="393.652" height="149.157" transform="translate(390.971 2364.391)" fill="#1682fb"/>
    <rect id="Rectángulo_383405" data-name="Rectángulo 383405" width="393.652" height="149.157" transform="translate(875.348 2611.961)" fill="#1682fb"/>
    <rect id="Rectángulo_383403" data-name="Rectángulo 383403" width="116.866" height="38.443" transform="translate(331 2388.994)" fill="#273a89"/>
    <rect id="Rectángulo_383406" data-name="Rectángulo 383406" width="116.866" height="38.443" transform="translate(815.377 2636.564)" fill="#273a89"/>
    <rect id="Rectángulo_383404" data-name="Rectángulo 383404" width="116.866" height="38.443" transform="translate(331 2439.738)" fill="#273a89"/>
    <rect id="Rectángulo_383407" data-name="Rectángulo 383407" width="116.866" height="38.443" transform="translate(815.377 2687.309)" fill="#273a89"/>
    <path id="Trazado_825603" data-name="Trazado 825603" d="M20.125,22.3a8.308,8.308,0,0,1-1.281,4.2,7.733,7.733,0,0,1-3.289,2.82,11.2,11.2,0,0,1-4.836,1,8.934,8.934,0,0,1-7.062-2.922q-2.578-2.922-2.578-8.25V18.016a13.771,13.771,0,0,1,1.164-5.852A8.82,8.82,0,0,1,5.594,8.289a9.351,9.351,0,0,1,5.063-1.367A9.806,9.806,0,0,1,17.313,9.1a8.612,8.612,0,0,1,2.859,6.008H14.7a4.075,4.075,0,0,0-1.047-2.984,4.306,4.306,0,0,0-3-.906,3.276,3.276,0,0,0-3,1.531,9.841,9.841,0,0,0-1,4.891V19.25a10.89,10.89,0,0,0,.914,5.2,3.345,3.345,0,0,0,3.148,1.563,4.211,4.211,0,0,0,2.891-.891A3.78,3.78,0,0,0,14.672,22.3Zm1.688-.906a9.978,9.978,0,0,1,.984-4.508,7.04,7.04,0,0,1,2.828-3.039,8.518,8.518,0,0,1,4.328-1.062,7.774,7.774,0,0,1,5.984,2.352,9.024,9.024,0,0,1,2.188,6.4v.188a8.755,8.755,0,0,1-2.2,6.273,7.794,7.794,0,0,1-5.945,2.32,7.883,7.883,0,0,1-5.8-2.164,8.464,8.464,0,0,1-2.359-5.867Zm5.266.328a6.291,6.291,0,0,0,.734,3.438,2.447,2.447,0,0,0,2.172,1.094q2.813,0,2.875-4.328v-.531q0-4.547-2.906-4.547-2.641,0-2.859,3.922Zm18.344-8.625.172,1.984a5.813,5.813,0,0,1,4.828-2.3,4.279,4.279,0,0,1,4.328,2.547,5.626,5.626,0,0,1,4.969-2.547Q64.859,12.781,65,19V30H59.719V19.328a3.223,3.223,0,0,0-.437-1.891,1.862,1.862,0,0,0-1.594-.594,2.5,2.5,0,0,0-2.328,1.391l.016.219V30H50.094V19.359a3.388,3.388,0,0,0-.422-1.922,1.857,1.857,0,0,0-1.609-.594,2.525,2.525,0,0,0-2.312,1.391V30H40.484V13.094ZM83.7,21.672a10.2,10.2,0,0,1-1.773,6.289,5.686,5.686,0,0,1-4.789,2.352,4.874,4.874,0,0,1-3.828-1.7V36.5H68.047V13.094h4.922l.156,1.563a4.874,4.874,0,0,1,3.984-1.875,5.732,5.732,0,0,1,4.859,2.3A10.321,10.321,0,0,1,83.7,21.422Zm-5.266-.328q0-4.5-2.625-4.5a2.478,2.478,0,0,0-2.5,1.344v6.656a2.559,2.559,0,0,0,2.531,1.406q2.516,0,2.594-4.344Zm6.922.047a9.978,9.978,0,0,1,.984-4.508,7.04,7.04,0,0,1,2.828-3.039A8.518,8.518,0,0,1,93.5,12.781a7.774,7.774,0,0,1,5.984,2.352,9.024,9.024,0,0,1,2.188,6.4v.188a8.755,8.755,0,0,1-2.2,6.273,7.794,7.794,0,0,1-5.945,2.32,7.883,7.883,0,0,1-5.8-2.164,8.464,8.464,0,0,1-2.359-5.867Zm5.266.328a6.291,6.291,0,0,0,.734,3.438,2.447,2.447,0,0,0,2.172,1.094q2.813,0,2.875-4.328v-.531q0-4.547-2.906-4.547-2.641,0-2.859,3.922Zm18.2-8.625L109,15.078a5.733,5.733,0,0,1,4.828-2.3,4.823,4.823,0,0,1,3.945,1.578,7.513,7.513,0,0,1,1.352,4.75V30h-5.281V19.328a2.853,2.853,0,0,0-.516-1.883,2.385,2.385,0,0,0-1.875-.6,2.511,2.511,0,0,0-2.3,1.219V30h-5.266V13.094Zm21.391,17.219a8.691,8.691,0,0,1-6.3-2.32,8.013,8.013,0,0,1-2.406-6.039v-.437a10.383,10.383,0,0,1,.961-4.578,7.031,7.031,0,0,1,2.8-3.07,8.467,8.467,0,0,1,4.375-1.086,7.318,7.318,0,0,1,5.625,2.211,8.688,8.688,0,0,1,2.063,6.164V23.2H126.875a3.8,3.8,0,0,0,1.234,2.234,3.673,3.673,0,0,0,2.469.813,4.732,4.732,0,0,0,3.906-1.75l2.406,2.844a6.726,6.726,0,0,1-2.789,2.164A9.425,9.425,0,0,1,130.219,30.313Zm-.594-13.469q-2.313,0-2.75,3.063h5.313V19.5a2.608,2.608,0,0,0-.641-1.961A2.549,2.549,0,0,0,129.625,16.844Zm14.672-3.75.172,1.984a5.733,5.733,0,0,1,4.828-2.3,4.823,4.823,0,0,1,3.945,1.578,7.513,7.513,0,0,1,1.352,4.75V30h-5.281V19.328a2.853,2.853,0,0,0-.516-1.883,2.385,2.385,0,0,0-1.875-.6,2.511,2.511,0,0,0-2.3,1.219V30h-5.266V13.094Zm19.344-4.2v4.2h2.781V16.75h-2.781v7.734a1.975,1.975,0,0,0,.344,1.328,1.844,1.844,0,0,0,1.359.375,7.725,7.725,0,0,0,1.313-.094v3.766a9.718,9.718,0,0,1-2.969.453,5.516,5.516,0,0,1-4.016-1.281,5.252,5.252,0,0,1-1.3-3.891V16.75h-2.156V13.094h2.156v-4.2Zm13.031,21.422a8.691,8.691,0,0,1-6.3-2.32,8.013,8.013,0,0,1-2.406-6.039v-.437a10.383,10.383,0,0,1,.961-4.578,7.031,7.031,0,0,1,2.8-3.07,8.467,8.467,0,0,1,4.375-1.086,7.318,7.318,0,0,1,5.625,2.211,8.688,8.688,0,0,1,2.063,6.164V23.2H173.328a3.8,3.8,0,0,0,1.234,2.234,3.673,3.673,0,0,0,2.469.813,4.732,4.732,0,0,0,3.906-1.75l2.406,2.844a6.726,6.726,0,0,1-2.789,2.164A9.425,9.425,0,0,1,176.672,30.313Zm-.594-13.469q-2.313,0-2.75,3.063h5.313V19.5A2.608,2.608,0,0,0,178,17.539,2.549,2.549,0,0,0,176.078,16.844Z" transform="translate(498.406 2415.135)" fill="#fff"/>
    <path id="Trazado_825604" data-name="Trazado 825604" d="M7.563,30H2.094V7.25H7.563Zm8.406-16.906.172,1.984a5.733,5.733,0,0,1,4.828-2.3,4.823,4.823,0,0,1,3.945,1.578,7.513,7.513,0,0,1,1.352,4.75V30H20.984V19.328a2.853,2.853,0,0,0-.516-1.883,2.385,2.385,0,0,0-1.875-.6,2.511,2.511,0,0,0-2.3,1.219V30H11.031V13.094Zm19.344-4.2v4.2h2.781V16.75H35.313v7.734a1.975,1.975,0,0,0,.344,1.328,1.844,1.844,0,0,0,1.359.375,7.725,7.725,0,0,0,1.313-.094v3.766a9.718,9.718,0,0,1-2.969.453,5.516,5.516,0,0,1-4.016-1.281,5.252,5.252,0,0,1-1.3-3.891V16.75H27.891V13.094h2.156v-4.2ZM48.344,30.313a8.691,8.691,0,0,1-6.3-2.32,8.013,8.013,0,0,1-2.406-6.039v-.437a10.383,10.383,0,0,1,.961-4.578,7.031,7.031,0,0,1,2.8-3.07,8.467,8.467,0,0,1,4.375-1.086,7.318,7.318,0,0,1,5.625,2.211,8.688,8.688,0,0,1,2.063,6.164V23.2H45a3.8,3.8,0,0,0,1.234,2.234,3.673,3.673,0,0,0,2.469.813,4.732,4.732,0,0,0,3.906-1.75l2.406,2.844a6.726,6.726,0,0,1-2.789,2.164A9.425,9.425,0,0,1,48.344,30.313ZM47.75,16.844q-2.313,0-2.75,3.063h5.313V19.5a2.608,2.608,0,0,0-.641-1.961A2.549,2.549,0,0,0,47.75,16.844Zm20.063,1.016-1.734-.125q-2.484,0-3.187,1.563V30H57.625V13.094h4.938l.172,2.172a4.077,4.077,0,0,1,3.7-2.484,5.135,5.135,0,0,1,1.469.188ZM71.188,30V16.75H68.734V13.094h2.453V11.75a5.841,5.841,0,0,1,1.7-4.484,6.729,6.729,0,0,1,4.781-1.594A10.47,10.47,0,0,1,80.141,6l.016,3.875a4.81,4.81,0,0,0-1.3-.141q-2.391,0-2.391,2.063v1.3h3.3V16.75h-3.3V30Zm19.953,0a5.946,5.946,0,0,1-.5-1.516,4.9,4.9,0,0,1-4.062,1.828,6,6,0,0,1-4.062-1.445,4.6,4.6,0,0,1-1.672-3.633,4.728,4.728,0,0,1,2.031-4.156,10.348,10.348,0,0,1,5.906-1.406h1.625v-.9q0-2.339-2.016-2.339a1.648,1.648,0,0,0-1.875,1.853H81.25a4.72,4.72,0,0,1,2.086-3.98,8.766,8.766,0,0,1,5.32-1.529,7.686,7.686,0,0,1,5.109,1.578,5.487,5.487,0,0,1,1.922,4.328v7.484a7.665,7.665,0,0,0,.719,3.563V30Zm-3.3-3.437a2.937,2.937,0,0,0,1.633-.422,2.644,2.644,0,0,0,.93-.953v-2.7H88.875q-2.75,0-2.75,2.469a1.507,1.507,0,0,0,.484,1.164A1.753,1.753,0,0,0,87.844,26.563Zm16.969-.625h7.7V30H98.156V27.063l7.5-9.906H98.484V13.094h13.859v2.844Z" transform="translate(533.906 2767.713)" fill="#12263f"/>
    <path id="Trazado_825605" data-name="Trazado 825605" d="M20.125,22.3a8.308,8.308,0,0,1-1.281,4.2,7.733,7.733,0,0,1-3.289,2.82,11.2,11.2,0,0,1-4.836,1,8.934,8.934,0,0,1-7.062-2.922q-2.578-2.922-2.578-8.25V18.016a13.771,13.771,0,0,1,1.164-5.852A8.82,8.82,0,0,1,5.594,8.289a9.351,9.351,0,0,1,5.063-1.367A9.806,9.806,0,0,1,17.313,9.1a8.612,8.612,0,0,1,2.859,6.008H14.7a4.075,4.075,0,0,0-1.047-2.984,4.306,4.306,0,0,0-3-.906,3.276,3.276,0,0,0-3,1.531,9.841,9.841,0,0,0-1,4.891V19.25a10.89,10.89,0,0,0,.914,5.2,3.345,3.345,0,0,0,3.148,1.563,4.211,4.211,0,0,0,2.891-.891A3.78,3.78,0,0,0,14.672,22.3Zm1.688-.906a9.978,9.978,0,0,1,.984-4.508,7.04,7.04,0,0,1,2.828-3.039,8.518,8.518,0,0,1,4.328-1.062,7.774,7.774,0,0,1,5.984,2.352,9.024,9.024,0,0,1,2.188,6.4v.188a8.755,8.755,0,0,1-2.2,6.273,7.794,7.794,0,0,1-5.945,2.32,7.883,7.883,0,0,1-5.8-2.164,8.464,8.464,0,0,1-2.359-5.867Zm5.266.328a6.291,6.291,0,0,0,.734,3.438,2.447,2.447,0,0,0,2.172,1.094q2.813,0,2.875-4.328v-.531q0-4.547-2.906-4.547-2.641,0-2.859,3.922Zm18.344-8.625.172,1.984a5.813,5.813,0,0,1,4.828-2.3,4.279,4.279,0,0,1,4.328,2.547,5.626,5.626,0,0,1,4.969-2.547Q64.859,12.781,65,19V30H59.719V19.328a3.223,3.223,0,0,0-.437-1.891,1.862,1.862,0,0,0-1.594-.594,2.5,2.5,0,0,0-2.328,1.391l.016.219V30H50.094V19.359a3.388,3.388,0,0,0-.422-1.922,1.857,1.857,0,0,0-1.609-.594,2.525,2.525,0,0,0-2.312,1.391V30H40.484V13.094ZM83.7,21.672a10.2,10.2,0,0,1-1.773,6.289,5.686,5.686,0,0,1-4.789,2.352,4.874,4.874,0,0,1-3.828-1.7V36.5H68.047V13.094h4.922l.156,1.563a4.874,4.874,0,0,1,3.984-1.875,5.732,5.732,0,0,1,4.859,2.3A10.321,10.321,0,0,1,83.7,21.422Zm-5.266-.328q0-4.5-2.625-4.5a2.478,2.478,0,0,0-2.5,1.344v6.656a2.559,2.559,0,0,0,2.531,1.406q2.516,0,2.594-4.344Zm6.922.047a9.978,9.978,0,0,1,.984-4.508,7.04,7.04,0,0,1,2.828-3.039A8.518,8.518,0,0,1,93.5,12.781a7.774,7.774,0,0,1,5.984,2.352,9.024,9.024,0,0,1,2.188,6.4v.188a8.755,8.755,0,0,1-2.2,6.273,7.794,7.794,0,0,1-5.945,2.32,7.883,7.883,0,0,1-5.8-2.164,8.464,8.464,0,0,1-2.359-5.867Zm5.266.328a6.291,6.291,0,0,0,.734,3.438,2.447,2.447,0,0,0,2.172,1.094q2.813,0,2.875-4.328v-.531q0-4.547-2.906-4.547-2.641,0-2.859,3.922Zm18.2-8.625L109,15.078a5.733,5.733,0,0,1,4.828-2.3,4.823,4.823,0,0,1,3.945,1.578,7.513,7.513,0,0,1,1.352,4.75V30h-5.281V19.328a2.853,2.853,0,0,0-.516-1.883,2.385,2.385,0,0,0-1.875-.6,2.511,2.511,0,0,0-2.3,1.219V30h-5.266V13.094Zm21.391,17.219a8.691,8.691,0,0,1-6.3-2.32,8.013,8.013,0,0,1-2.406-6.039v-.437a10.383,10.383,0,0,1,.961-4.578,7.031,7.031,0,0,1,2.8-3.07,8.467,8.467,0,0,1,4.375-1.086,7.318,7.318,0,0,1,5.625,2.211,8.688,8.688,0,0,1,2.063,6.164V23.2H126.875a3.8,3.8,0,0,0,1.234,2.234,3.673,3.673,0,0,0,2.469.813,4.732,4.732,0,0,0,3.906-1.75l2.406,2.844a6.726,6.726,0,0,1-2.789,2.164A9.425,9.425,0,0,1,130.219,30.313Zm-.594-13.469q-2.313,0-2.75,3.063h5.313V19.5a2.608,2.608,0,0,0-.641-1.961A2.549,2.549,0,0,0,129.625,16.844Zm14.672-3.75.172,1.984a5.733,5.733,0,0,1,4.828-2.3,4.823,4.823,0,0,1,3.945,1.578,7.513,7.513,0,0,1,1.352,4.75V30h-5.281V19.328a2.853,2.853,0,0,0-.516-1.883,2.385,2.385,0,0,0-1.875-.6,2.511,2.511,0,0,0-2.3,1.219V30h-5.266V13.094Zm19.344-4.2v4.2h2.781V16.75h-2.781v7.734a1.975,1.975,0,0,0,.344,1.328,1.844,1.844,0,0,0,1.359.375,7.725,7.725,0,0,0,1.313-.094v3.766a9.718,9.718,0,0,1-2.969.453,5.516,5.516,0,0,1-4.016-1.281,5.252,5.252,0,0,1-1.3-3.891V16.75h-2.156V13.094h2.156v-4.2Zm13.031,21.422a8.691,8.691,0,0,1-6.3-2.32,8.013,8.013,0,0,1-2.406-6.039v-.437a10.383,10.383,0,0,1,.961-4.578,7.031,7.031,0,0,1,2.8-3.07,8.467,8.467,0,0,1,4.375-1.086,7.318,7.318,0,0,1,5.625,2.211,8.688,8.688,0,0,1,2.063,6.164V23.2H173.328a3.8,3.8,0,0,0,1.234,2.234,3.673,3.673,0,0,0,2.469.813,4.732,4.732,0,0,0,3.906-1.75l2.406,2.844a6.726,6.726,0,0,1-2.789,2.164A9.425,9.425,0,0,1,176.672,30.313Zm-.594-13.469q-2.313,0-2.75,3.063h5.313V19.5A2.608,2.608,0,0,0,178,17.539,2.549,2.549,0,0,0,176.078,16.844Z" transform="translate(992.515 2662.705)" fill="#fff"/>
    <g id="Grupo_1075641" data-name="Grupo 1075641" transform="translate(639 2659.741) rotate(90)">
      <path id="Sustracción_110" data-name="Sustracción 110" d="M93.576,38.428H0a47.716,47.716,0,0,1,93.576,0Z" transform="translate(0 0)" fill="#273a89"/>
      <ellipse id="Elipse_6561" data-name="Elipse 6561" cx="39.048" cy="39.255" rx="39.048" ry="39.255" transform="translate(85.836 87.187) rotate(180)" fill="#fff"/>
      <ellipse id="Elipse_6570" data-name="Elipse 6570" cx="35.743" cy="35.949" rx="35.743" ry="35.949" transform="translate(11.045 11.983)" fill="#1682fb"/>
    </g>
    <line id="Línea_496" data-name="Línea 496" y2="154.183" transform="translate(594.717 2514.317)" fill="none" stroke="#273a89" stroke-width="1"/>
    <line id="Línea_497" data-name="Línea 497" x2="235.079" transform="translate(639.5 2706.53)" fill="none" stroke="#273a89" stroke-width="1"/>
  </g>
</svg>
