<svg xmlns="http://www.w3.org/2000/svg" width="1030" height="516" viewBox="0 0 1030 516">
  <g id="Grupo_1076301" data-name="Grupo 1076301" transform="translate(-285 -2334)">
    <rect id="Rectángulo_383472" data-name="Rectángulo 383472" width="1030" height="516" rx="18" transform="translate(285 2334)" fill="#f3f9ff"/>
    <g id="Grupo_1075649" data-name="Grupo 1075649" transform="translate(0 58)">
      <rect id="Rectángulo_383402" data-name="Rectángulo 383402" width="256" height="97" transform="translate(534 2377.637)" fill="#1682fb"/>
      <rect id="Rectángulo_383405" data-name="Rectángulo 383405" width="256" height="97" transform="translate(849 2538.637)" fill="#1682fb"/>
      <rect id="Rectángulo_383403" data-name="Rectángulo 383403" width="76" height="25" transform="translate(495 2393.637)" fill="#273a89"/>
      <rect id="Rectángulo_383406" data-name="Rectángulo 383406" width="76" height="25" transform="translate(810 2554.637)" fill="#273a89"/>
      <rect id="Rectángulo_383404" data-name="Rectángulo 383404" width="76" height="25" transform="translate(495 2426.637)" fill="#273a89"/>
      <rect id="Rectángulo_383407" data-name="Rectángulo 383407" width="76" height="25" transform="translate(810 2587.637)" fill="#273a89"/>
      <path id="Trazado_825332" data-name="Trazado 825332" d="M12.578,14.186a5.193,5.193,0,0,1-.8,2.622A4.833,4.833,0,0,1,9.722,18.57,7,7,0,0,1,6.7,19.2a5.584,5.584,0,0,1-4.414-1.826A7.54,7.54,0,0,1,.674,12.213v-.7A8.607,8.607,0,0,1,1.4,7.853,5.513,5.513,0,0,1,3.5,5.431,5.844,5.844,0,0,1,6.66,4.576a6.129,6.129,0,0,1,4.16,1.362,5.383,5.383,0,0,1,1.787,3.755H9.189a2.547,2.547,0,0,0-.654-1.865A2.691,2.691,0,0,0,6.66,7.262a2.048,2.048,0,0,0-1.875.957,6.151,6.151,0,0,0-.625,3.057v1.006a6.806,6.806,0,0,0,.571,3.252A2.091,2.091,0,0,0,6.7,16.51a2.632,2.632,0,0,0,1.807-.557,2.363,2.363,0,0,0,.664-1.768Zm1.055-.566a6.236,6.236,0,0,1,.615-2.817,4.4,4.4,0,0,1,1.768-1.9,5.323,5.323,0,0,1,2.705-.664,4.858,4.858,0,0,1,3.74,1.47,5.64,5.64,0,0,1,1.367,4v.117a5.472,5.472,0,0,1-1.372,3.921A4.871,4.871,0,0,1,18.74,19.2a4.927,4.927,0,0,1-3.623-1.353,5.29,5.29,0,0,1-1.475-3.667Zm3.291.205a3.932,3.932,0,0,0,.459,2.148,1.529,1.529,0,0,0,1.357.684q1.758,0,1.8-2.705v-.332q0-2.842-1.816-2.842-1.65,0-1.787,2.451ZM28.389,8.434l.107,1.24a3.633,3.633,0,0,1,3.018-1.436A2.675,2.675,0,0,1,34.219,9.83a3.516,3.516,0,0,1,3.105-1.592q3.213,0,3.3,3.887V19h-3.3V12.33a2.014,2.014,0,0,0-.273-1.182,1.164,1.164,0,0,0-1-.371,1.559,1.559,0,0,0-1.455.869l.01.137V19h-3.3V12.35a2.117,2.117,0,0,0-.264-1.2,1.161,1.161,0,0,0-1.006-.371,1.578,1.578,0,0,0-1.445.869V19H25.3V8.434Zm23.926,5.361a6.372,6.372,0,0,1-1.108,3.931,3.554,3.554,0,0,1-2.993,1.47,3.046,3.046,0,0,1-2.393-1.064v4.932H42.529V8.434h3.076l.1.977a3.046,3.046,0,0,1,2.49-1.172,3.582,3.582,0,0,1,3.037,1.44,6.45,6.45,0,0,1,1.084,3.96Zm-3.291-.205q0-2.812-1.641-2.812a1.549,1.549,0,0,0-1.562.84v4.16a1.6,1.6,0,0,0,1.582.879q1.572,0,1.621-2.715Zm4.326.029a6.236,6.236,0,0,1,.615-2.817,4.4,4.4,0,0,1,1.768-1.9,5.323,5.323,0,0,1,2.705-.664,4.858,4.858,0,0,1,3.74,1.47,5.64,5.64,0,0,1,1.367,4v.117a5.472,5.472,0,0,1-1.372,3.921,4.871,4.871,0,0,1-3.716,1.45,4.927,4.927,0,0,1-3.623-1.353,5.29,5.29,0,0,1-1.475-3.667Zm3.291.205a3.932,3.932,0,0,0,.459,2.148,1.529,1.529,0,0,0,1.357.684q1.758,0,1.8-2.705v-.332q0-2.842-1.816-2.842-1.65,0-1.787,2.451ZM68.018,8.434l.107,1.24a3.583,3.583,0,0,1,3.018-1.436,3.015,3.015,0,0,1,2.466.986,4.7,4.7,0,0,1,.845,2.969V19h-3.3V12.33a1.783,1.783,0,0,0-.322-1.177,1.491,1.491,0,0,0-1.172-.376,1.569,1.569,0,0,0-1.436.762V19H64.932V8.434ZM81.387,19.2a5.432,5.432,0,0,1-3.936-1.45,5.008,5.008,0,0,1-1.5-3.774V13.7a6.489,6.489,0,0,1,.6-2.861A4.395,4.395,0,0,1,78.3,8.917a5.292,5.292,0,0,1,2.734-.679A4.574,4.574,0,0,1,84.551,9.62a5.43,5.43,0,0,1,1.289,3.853v1.279H79.3a2.372,2.372,0,0,0,.771,1.4,2.3,2.3,0,0,0,1.543.508,2.958,2.958,0,0,0,2.441-1.094l1.5,1.777a4.2,4.2,0,0,1-1.743,1.353A5.891,5.891,0,0,1,81.387,19.2Zm-.371-8.418q-1.445,0-1.719,1.914h3.32v-.254a1.63,1.63,0,0,0-.4-1.226A1.593,1.593,0,0,0,81.016,10.777Zm9.17-2.344.107,1.24a3.583,3.583,0,0,1,3.018-1.436,3.015,3.015,0,0,1,2.466.986,4.7,4.7,0,0,1,.845,2.969V19h-3.3V12.33A1.783,1.783,0,0,0,93,11.153a1.491,1.491,0,0,0-1.172-.376,1.569,1.569,0,0,0-1.436.762V19H87.1V8.434Zm12.09-2.627V8.434h1.738v2.285h-1.738v4.834a1.234,1.234,0,0,0,.215.83,1.152,1.152,0,0,0,.85.234,4.828,4.828,0,0,0,.82-.059v2.354a6.074,6.074,0,0,1-1.855.283,3.448,3.448,0,0,1-2.51-.8,3.282,3.282,0,0,1-.811-2.432V10.719H97.637V8.434h1.348V5.807ZM110.42,19.2a5.432,5.432,0,0,1-3.936-1.45,5.008,5.008,0,0,1-1.5-3.774V13.7a6.489,6.489,0,0,1,.6-2.861,4.395,4.395,0,0,1,1.753-1.919,5.292,5.292,0,0,1,2.734-.679,4.574,4.574,0,0,1,3.516,1.382,5.43,5.43,0,0,1,1.289,3.853v1.279H108.33a2.372,2.372,0,0,0,.771,1.4,2.3,2.3,0,0,0,1.543.508,2.958,2.958,0,0,0,2.441-1.094l1.5,1.777a4.2,4.2,0,0,1-1.743,1.353A5.891,5.891,0,0,1,110.42,19.2Zm-.371-8.418q-1.445,0-1.719,1.914h3.32v-.254a1.63,1.63,0,0,0-.4-1.226A1.593,1.593,0,0,0,110.049,10.777Z" transform="translate(618 2410.637)" fill="#fff"/>
      <path id="Trazado_825333" data-name="Trazado 825333" d="M3.3,17H1.608V4.2H3.3ZM7.664,7.49l.053,1.2a3.465,3.465,0,0,1,2.848-1.371q3.015,0,3.041,3.4V17H11.979V10.707a2.189,2.189,0,0,0-.47-1.521,1.884,1.884,0,0,0-1.437-.492,2.347,2.347,0,0,0-1.389.422,2.865,2.865,0,0,0-.932,1.107V17H6.126V7.49Zm10.6-2.3v2.3h1.775V8.747H18.264v5.9a1.32,1.32,0,0,0,.237.858,1,1,0,0,0,.809.286,3.937,3.937,0,0,0,.773-.105V17a4.742,4.742,0,0,1-1.248.175,2.025,2.025,0,0,1-1.644-.659,2.832,2.832,0,0,1-.554-1.872v-5.9H14.906V7.49h1.731v-2.3Zm7.62,11.988a4.155,4.155,0,0,1-3.146-1.27,4.714,4.714,0,0,1-1.213-3.4v-.3a5.707,5.707,0,0,1,.541-2.527,4.217,4.217,0,0,1,1.512-1.74,3.8,3.8,0,0,1,2.1-.628,3.562,3.562,0,0,1,2.883,1.222,5.289,5.289,0,0,1,1.028,3.5v.677H23.15a3.38,3.38,0,0,0,.822,2.272,2.583,2.583,0,0,0,2,.866,2.832,2.832,0,0,0,1.459-.352,3.666,3.666,0,0,0,1.046-.932l.993.773A3.993,3.993,0,0,1,25.884,17.176Zm-.2-8.525a2.169,2.169,0,0,0-1.652.716,3.482,3.482,0,0,0-.826,2.008h4.764v-.123a3.1,3.1,0,0,0-.668-1.92A2.042,2.042,0,0,0,25.682,8.65Zm10.389.3a4.873,4.873,0,0,0-.8-.062A2.143,2.143,0,0,0,33.1,10.25V17H31.474V7.49h1.582l.026,1.1A2.532,2.532,0,0,1,35.35,7.314a1.661,1.661,0,0,1,.721.123ZM38.5,17V8.747h-1.5V7.49h1.5V6.515a3.238,3.238,0,0,1,.817-2.364,3.088,3.088,0,0,1,2.312-.835,4.293,4.293,0,0,1,1.116.148l-.088,1.311a4.67,4.67,0,0,0-.879-.079,1.586,1.586,0,0,0-1.222.463,1.877,1.877,0,0,0-.431,1.327V7.49h2.03V8.747h-2.03V17Zm11.32,0a3.416,3.416,0,0,1-.229-1,3.628,3.628,0,0,1-2.707,1.178,3.357,3.357,0,0,1-2.307-.8,2.573,2.573,0,0,1-.9-2.017A2.688,2.688,0,0,1,44.8,12.056a5.325,5.325,0,0,1,3.177-.822h1.582v-.747a1.826,1.826,0,0,0-.51-1.358,2.049,2.049,0,0,0-1.5-.505,2.371,2.371,0,0,0-1.459.439,1.3,1.3,0,0,0-.589,1.063H43.866a2.244,2.244,0,0,1,.505-1.375A3.449,3.449,0,0,1,45.743,7.7a4.613,4.613,0,0,1,1.9-.387,3.759,3.759,0,0,1,2.575.822,2.964,2.964,0,0,1,.967,2.263v4.377a5.351,5.351,0,0,0,.334,2.083V17Zm-2.7-1.239a2.858,2.858,0,0,0,1.45-.4,2.392,2.392,0,0,0,.993-1.028V12.386H48.287q-2.988,0-2.988,1.749a1.48,1.48,0,0,0,.51,1.2A1.959,1.959,0,0,0,47.118,15.761Zm8.147-.088h5.563V17h-7.55V15.8l5.247-6.97H53.358V7.49h7.207V8.642Z" transform="translate(632 2620.637)" fill="#273a89"/>
      <path id="Trazado_825334" data-name="Trazado 825334" d="M12.578,14.186a5.193,5.193,0,0,1-.8,2.622A4.833,4.833,0,0,1,9.722,18.57,7,7,0,0,1,6.7,19.2a5.584,5.584,0,0,1-4.414-1.826A7.54,7.54,0,0,1,.674,12.213v-.7A8.607,8.607,0,0,1,1.4,7.853,5.513,5.513,0,0,1,3.5,5.431,5.844,5.844,0,0,1,6.66,4.576a6.129,6.129,0,0,1,4.16,1.362,5.383,5.383,0,0,1,1.787,3.755H9.189a2.547,2.547,0,0,0-.654-1.865A2.691,2.691,0,0,0,6.66,7.262a2.048,2.048,0,0,0-1.875.957,6.151,6.151,0,0,0-.625,3.057v1.006a6.806,6.806,0,0,0,.571,3.252A2.091,2.091,0,0,0,6.7,16.51a2.632,2.632,0,0,0,1.807-.557,2.363,2.363,0,0,0,.664-1.768Zm1.055-.566a6.236,6.236,0,0,1,.615-2.817,4.4,4.4,0,0,1,1.768-1.9,5.323,5.323,0,0,1,2.705-.664,4.858,4.858,0,0,1,3.74,1.47,5.64,5.64,0,0,1,1.367,4v.117a5.472,5.472,0,0,1-1.372,3.921A4.871,4.871,0,0,1,18.74,19.2a4.927,4.927,0,0,1-3.623-1.353,5.29,5.29,0,0,1-1.475-3.667Zm3.291.205a3.932,3.932,0,0,0,.459,2.148,1.529,1.529,0,0,0,1.357.684q1.758,0,1.8-2.705v-.332q0-2.842-1.816-2.842-1.65,0-1.787,2.451ZM28.389,8.434l.107,1.24a3.633,3.633,0,0,1,3.018-1.436A2.675,2.675,0,0,1,34.219,9.83a3.516,3.516,0,0,1,3.105-1.592q3.213,0,3.3,3.887V19h-3.3V12.33a2.014,2.014,0,0,0-.273-1.182,1.164,1.164,0,0,0-1-.371,1.559,1.559,0,0,0-1.455.869l.01.137V19h-3.3V12.35a2.117,2.117,0,0,0-.264-1.2,1.161,1.161,0,0,0-1.006-.371,1.578,1.578,0,0,0-1.445.869V19H25.3V8.434Zm23.926,5.361a6.372,6.372,0,0,1-1.108,3.931,3.554,3.554,0,0,1-2.993,1.47,3.046,3.046,0,0,1-2.393-1.064v4.932H42.529V8.434h3.076l.1.977a3.046,3.046,0,0,1,2.49-1.172,3.582,3.582,0,0,1,3.037,1.44,6.45,6.45,0,0,1,1.084,3.96Zm-3.291-.205q0-2.812-1.641-2.812a1.549,1.549,0,0,0-1.562.84v4.16a1.6,1.6,0,0,0,1.582.879q1.572,0,1.621-2.715Zm4.326.029a6.236,6.236,0,0,1,.615-2.817,4.4,4.4,0,0,1,1.768-1.9,5.323,5.323,0,0,1,2.705-.664,4.858,4.858,0,0,1,3.74,1.47,5.64,5.64,0,0,1,1.367,4v.117a5.472,5.472,0,0,1-1.372,3.921,4.871,4.871,0,0,1-3.716,1.45,4.927,4.927,0,0,1-3.623-1.353,5.29,5.29,0,0,1-1.475-3.667Zm3.291.205a3.932,3.932,0,0,0,.459,2.148,1.529,1.529,0,0,0,1.357.684q1.758,0,1.8-2.705v-.332q0-2.842-1.816-2.842-1.65,0-1.787,2.451ZM68.018,8.434l.107,1.24a3.583,3.583,0,0,1,3.018-1.436,3.015,3.015,0,0,1,2.466.986,4.7,4.7,0,0,1,.845,2.969V19h-3.3V12.33a1.783,1.783,0,0,0-.322-1.177,1.491,1.491,0,0,0-1.172-.376,1.569,1.569,0,0,0-1.436.762V19H64.932V8.434ZM81.387,19.2a5.432,5.432,0,0,1-3.936-1.45,5.008,5.008,0,0,1-1.5-3.774V13.7a6.489,6.489,0,0,1,.6-2.861A4.395,4.395,0,0,1,78.3,8.917a5.292,5.292,0,0,1,2.734-.679A4.574,4.574,0,0,1,84.551,9.62a5.43,5.43,0,0,1,1.289,3.853v1.279H79.3a2.372,2.372,0,0,0,.771,1.4,2.3,2.3,0,0,0,1.543.508,2.958,2.958,0,0,0,2.441-1.094l1.5,1.777a4.2,4.2,0,0,1-1.743,1.353A5.891,5.891,0,0,1,81.387,19.2Zm-.371-8.418q-1.445,0-1.719,1.914h3.32v-.254a1.63,1.63,0,0,0-.4-1.226A1.593,1.593,0,0,0,81.016,10.777Zm9.17-2.344.107,1.24a3.583,3.583,0,0,1,3.018-1.436,3.015,3.015,0,0,1,2.466.986,4.7,4.7,0,0,1,.845,2.969V19h-3.3V12.33A1.783,1.783,0,0,0,93,11.153a1.491,1.491,0,0,0-1.172-.376,1.569,1.569,0,0,0-1.436.762V19H87.1V8.434Zm12.09-2.627V8.434h1.738v2.285h-1.738v4.834a1.234,1.234,0,0,0,.215.83,1.152,1.152,0,0,0,.85.234,4.828,4.828,0,0,0,.82-.059v2.354a6.074,6.074,0,0,1-1.855.283,3.448,3.448,0,0,1-2.51-.8,3.282,3.282,0,0,1-.811-2.432V10.719H97.637V8.434h1.348V5.807ZM110.42,19.2a5.432,5.432,0,0,1-3.936-1.45,5.008,5.008,0,0,1-1.5-3.774V13.7a6.489,6.489,0,0,1,.6-2.861,4.395,4.395,0,0,1,1.753-1.919,5.292,5.292,0,0,1,2.734-.679,4.574,4.574,0,0,1,3.516,1.382,5.43,5.43,0,0,1,1.289,3.853v1.279H108.33a2.372,2.372,0,0,0,.771,1.4,2.3,2.3,0,0,0,1.543.508,2.958,2.958,0,0,0,2.441-1.094l1.5,1.777a4.2,4.2,0,0,1-1.743,1.353A5.891,5.891,0,0,1,110.42,19.2Zm-.371-8.418q-1.445,0-1.719,1.914h3.32v-.254a1.63,1.63,0,0,0-.4-1.226A1.593,1.593,0,0,0,110.049,10.777Z" transform="translate(933 2571.637)" fill="#fff"/>
      <g id="Grupo_1075641" data-name="Grupo 1075641" transform="translate(4282.174 2192.908) rotate(90)">
        <path id="Sustracción_110" data-name="Sustracción 110" d="M34.455,14.15H0a17.569,17.569,0,0,1,34.455,0Z" transform="translate(390 3599.174)" fill="#273a89"/>
        <ellipse id="Elipse_6561" data-name="Elipse 6561" cx="14.378" cy="14.454" rx="14.378" ry="14.454" transform="translate(421.605 3631.277) rotate(180)" fill="#fff"/>
        <ellipse id="Elipse_6570" data-name="Elipse 6570" cx="13.161" cy="13.237" rx="13.161" ry="13.237" transform="translate(394.067 3603.586)" fill="#1682fb"/>
      </g>
      <line id="Línea_496" data-name="Línea 496" y2="109" transform="translate(666.5 2475.137)" fill="none" stroke="#273a89" stroke-width="1"/>
      <line id="Línea_497" data-name="Línea 497" x2="163.5" transform="translate(685 2600.137)" fill="none" stroke="#273a89" stroke-width="1"/>
    </g>
  </g>
</svg>
