<svg xmlns="http://www.w3.org/2000/svg" width="1030" height="516" viewBox="0 0 1030 516">
  <g id="Grupo_1076304" data-name="Grupo 1076304" transform="translate(-285 -4595)">
    <rect id="Rectángulo_383470" data-name="Rectángulo 383470" width="1030" height="516" rx="18" transform="translate(285 4595)" fill="#f3f9ff"/>
    <g id="Grupo_1075647" data-name="Grupo 1075647">
      <g id="Rectángulo_383428" data-name="Rectángulo 383428" transform="translate(475 4798.273)" fill="#e1f6ef" stroke="#2e775d" stroke-width="1">
        <rect width="735" height="160" stroke="none"/>
        <rect x="0.5" y="0.5" width="734" height="159" fill="none"/>
      </g>
      <g id="Rectángulo_383447" data-name="Rectángulo 383447" transform="translate(475 4652.273)" fill="#e1f6ef" stroke="#2e775d" stroke-width="1">
        <rect width="545" height="93" stroke="none"/>
        <rect x="0.5" y="0.5" width="544" height="92" fill="none"/>
      </g>
      <g id="Rectángulo_383443" data-name="Rectángulo 383443" transform="translate(475 5011.273)" fill="#e1f6ef" stroke="#2e775d" stroke-width="1">
        <rect width="210" height="50" stroke="none"/>
        <rect x="0.5" y="0.5" width="209" height="49" fill="none"/>
      </g>
      <g id="Rectángulo_383444" data-name="Rectángulo 383444" transform="translate(810 5011.273)" fill="#e1f6ef" stroke="#2e775d" stroke-width="1">
        <rect width="210" height="50" stroke="none"/>
        <rect x="0.5" y="0.5" width="209" height="49" fill="none"/>
      </g>
      <g id="Rectángulo_383429" data-name="Rectángulo 383429" transform="translate(475 4766.273)" fill="#bae9d9" stroke="#2e775d" stroke-width="1">
        <rect width="233" height="33" stroke="none"/>
        <rect x="0.5" y="0.5" width="232" height="32" fill="none"/>
      </g>
      <g id="Rectángulo_383446" data-name="Rectángulo 383446" transform="translate(475 4620.273)" fill="#bae9d9" stroke="#2e775d" stroke-width="1">
        <rect width="233" height="33" stroke="none"/>
        <rect x="0.5" y="0.5" width="232" height="32" fill="none"/>
      </g>
      <g id="Rectángulo_383442" data-name="Rectángulo 383442" transform="translate(475 4979.273)" fill="#bae9d9" stroke="#2e775d" stroke-width="1">
        <rect width="125" height="33" stroke="none"/>
        <rect x="0.5" y="0.5" width="124" height="32" fill="none"/>
      </g>
      <g id="Rectángulo_383445" data-name="Rectángulo 383445" transform="translate(810 4979.273)" fill="#bae9d9" stroke="#2e775d" stroke-width="1">
        <rect width="125" height="33" stroke="none"/>
        <rect x="0.5" y="0.5" width="124" height="32" fill="none"/>
      </g>
      <rect id="Rectángulo_383431" data-name="Rectángulo 383431" width="174" height="41" transform="translate(511 4826.273)" fill="#1682fb"/>
      <rect id="Rectángulo_383454" data-name="Rectángulo 383454" width="174" height="41" transform="translate(721 4826.273)" fill="#1682fb"/>
      <rect id="Rectángulo_383460" data-name="Rectángulo 383460" width="174" height="41" transform="translate(931 4826.273)" fill="#1682fb"/>
      <rect id="Rectángulo_383448" data-name="Rectángulo 383448" width="153" height="41" transform="translate(511 4680.273)" fill="#1682fb"/>
      <rect id="Rectángulo_383466" data-name="Rectángulo 383466" width="194" height="41" transform="translate(721 4680.273)" fill="#1682fb"/>
      <rect id="Rectángulo_383432" data-name="Rectángulo 383432" width="174" height="41" transform="translate(511 4893.273)" fill="#1682fb"/>
      <rect id="Rectángulo_383455" data-name="Rectángulo 383455" width="174" height="41" transform="translate(721 4893.273)" fill="#1682fb"/>
      <rect id="Rectángulo_383461" data-name="Rectángulo 383461" width="174" height="41" transform="translate(931 4893.273)" fill="#1682fb"/>
      <rect id="Rectángulo_383430" data-name="Rectángulo 383430" width="31" height="10" transform="translate(495 4833.273)" fill="#273a89"/>
      <rect id="Rectángulo_383456" data-name="Rectángulo 383456" width="31" height="10" transform="translate(705 4833.273)" fill="#273a89"/>
      <rect id="Rectángulo_383462" data-name="Rectángulo 383462" width="31" height="10" transform="translate(915 4833.273)" fill="#273a89"/>
      <rect id="Rectángulo_383449" data-name="Rectángulo 383449" width="31" height="10" transform="translate(495 4687.273)" fill="#273a89"/>
      <rect id="Rectángulo_383467" data-name="Rectángulo 383467" width="31" height="10" transform="translate(705 4687.273)" fill="#273a89"/>
      <rect id="Rectángulo_383433" data-name="Rectángulo 383433" width="31" height="11" transform="translate(495 4900.273)" fill="#273a89"/>
      <rect id="Rectángulo_383457" data-name="Rectángulo 383457" width="31" height="11" transform="translate(705 4900.273)" fill="#273a89"/>
      <rect id="Rectángulo_383463" data-name="Rectángulo 383463" width="31" height="11" transform="translate(915 4900.273)" fill="#273a89"/>
      <rect id="Rectángulo_383434" data-name="Rectángulo 383434" width="31" height="10" transform="translate(495 4847.273)" fill="#273a89"/>
      <rect id="Rectángulo_383458" data-name="Rectángulo 383458" width="31" height="10" transform="translate(705 4847.273)" fill="#273a89"/>
      <rect id="Rectángulo_383464" data-name="Rectángulo 383464" width="31" height="10" transform="translate(915 4847.273)" fill="#273a89"/>
      <rect id="Rectángulo_383450" data-name="Rectángulo 383450" width="31" height="10" transform="translate(495 4701.273)" fill="#273a89"/>
      <rect id="Rectángulo_383468" data-name="Rectángulo 383468" width="31" height="10" transform="translate(705 4701.273)" fill="#273a89"/>
      <rect id="Rectángulo_383435" data-name="Rectángulo 383435" width="31" height="10" transform="translate(495 4914.273)" fill="#273a89"/>
      <rect id="Rectángulo_383459" data-name="Rectángulo 383459" width="31" height="10" transform="translate(705 4914.273)" fill="#273a89"/>
      <rect id="Rectángulo_383465" data-name="Rectángulo 383465" width="31" height="10" transform="translate(915 4914.273)" fill="#273a89"/>
      <path id="Trazado_825346" data-name="Trazado 825346" d="M8.8,9.63a3.635,3.635,0,0,1-.561,1.835A3.383,3.383,0,0,1,6.805,12.7a4.9,4.9,0,0,1-2.116.438A3.908,3.908,0,0,1,1.6,11.858,5.278,5.278,0,0,1,.472,8.249V7.757A6.025,6.025,0,0,1,.981,5.2,3.859,3.859,0,0,1,2.447,3.5a4.091,4.091,0,0,1,2.215-.6,4.29,4.29,0,0,1,2.912.954A3.768,3.768,0,0,1,8.825,6.485H6.433A1.783,1.783,0,0,0,5.975,5.18a1.884,1.884,0,0,0-1.312-.4,1.433,1.433,0,0,0-1.312.67,4.306,4.306,0,0,0-.437,2.14v.7a4.764,4.764,0,0,0,.4,2.276,1.463,1.463,0,0,0,1.377.684,1.842,1.842,0,0,0,1.265-.39A1.654,1.654,0,0,0,6.419,9.63Zm5.5-1.941-.759-.055a1.363,1.363,0,0,0-1.395.684V13h-2.3V5.6h2.16l.075.95a1.784,1.784,0,0,1,1.62-1.087,2.247,2.247,0,0,1,.643.082Zm4.279,5.448a3.8,3.8,0,0,1-2.755-1.015,3.506,3.506,0,0,1-1.053-2.642V9.288a4.542,4.542,0,0,1,.42-2,3.076,3.076,0,0,1,1.227-1.343,3.7,3.7,0,0,1,1.914-.475,3.2,3.2,0,0,1,2.461.967,3.8,3.8,0,0,1,.9,2.7v.9h-4.58a1.66,1.66,0,0,0,.54.978,1.607,1.607,0,0,0,1.08.355,2.07,2.07,0,0,0,1.709-.766l1.053,1.244a2.943,2.943,0,0,1-1.22.947A4.124,4.124,0,0,1,18.587,13.137Zm-.26-5.893q-1.012,0-1.2,1.34h2.324V8.406a1.141,1.141,0,0,0-.28-.858A1.115,1.115,0,0,0,18.327,7.244ZM26.8,13a2.6,2.6,0,0,1-.219-.663,2.142,2.142,0,0,1-1.777.8,2.624,2.624,0,0,1-1.777-.632,2.013,2.013,0,0,1-.731-1.589A2.069,2.069,0,0,1,23.181,9.1a4.527,4.527,0,0,1,2.584-.615h.711V8.09q0-1.023-.882-1.023a.721.721,0,0,0-.82.811h-2.3a2.065,2.065,0,0,1,.913-1.741,3.835,3.835,0,0,1,2.328-.669,3.363,3.363,0,0,1,2.235.69,2.4,2.4,0,0,1,.841,1.894v3.274a3.353,3.353,0,0,0,.314,1.559V13Zm-1.442-1.5a1.285,1.285,0,0,0,.714-.185,1.157,1.157,0,0,0,.407-.417V9.712h-.67q-1.2,0-1.2,1.08a.659.659,0,0,0,.212.509A.767.767,0,0,0,25.354,11.5Zm7.834-.137a1.025,1.025,0,0,0,.752-.263.965.965,0,0,0,.26-.735h2.16a2.557,2.557,0,0,1-.872,2,3.242,3.242,0,0,1-2.246.779A3.282,3.282,0,0,1,30.7,12.125a3.986,3.986,0,0,1-.93-2.8v-.1a4.505,4.505,0,0,1,.414-1.979,3.011,3.011,0,0,1,1.193-1.319,3.557,3.557,0,0,1,1.846-.461,3.2,3.2,0,0,1,2.29.8,2.837,2.837,0,0,1,.848,2.167H34.2a1.265,1.265,0,0,0-.28-.882.967.967,0,0,0-.752-.308q-.9,0-1.046,1.142a8.055,8.055,0,0,0-.048,1,3.164,3.164,0,0,0,.267,1.545A.923.923,0,0,0,33.188,11.359ZM39.765,13H37.454V5.6h2.311ZM37.317,3.689a1.037,1.037,0,0,1,.355-.812,1.5,1.5,0,0,1,1.846,0,1.037,1.037,0,0,1,.355.812,1.037,1.037,0,0,1-.355.812,1.5,1.5,0,0,1-1.846,0A1.037,1.037,0,0,1,37.317,3.689Zm3.575,5.544a4.366,4.366,0,0,1,.431-1.972,3.08,3.08,0,0,1,1.237-1.33,3.726,3.726,0,0,1,1.894-.465A3.4,3.4,0,0,1,47.072,6.5a3.948,3.948,0,0,1,.957,2.8v.082a3.83,3.83,0,0,1-.96,2.745,3.41,3.41,0,0,1-2.6,1.015,3.449,3.449,0,0,1-2.536-.947A3.7,3.7,0,0,1,40.9,9.623Zm2.3.144a2.752,2.752,0,0,0,.321,1.5,1.07,1.07,0,0,0,.95.479q1.23,0,1.258-1.894V9.233q0-1.989-1.271-1.989Q43.3,7.244,43.2,8.96ZM44.769,2.5H47.2L45.3,4.646l-1.88,0ZM51.16,5.6l.075.868a2.508,2.508,0,0,1,2.112-1,2.11,2.11,0,0,1,1.726.69,3.287,3.287,0,0,1,.591,2.078V13H53.354V8.331a1.248,1.248,0,0,0-.226-.824,1.044,1.044,0,0,0-.82-.263,1.1,1.1,0,0,0-1,.533V13H49V5.6Zm8.976,3.644a4.518,4.518,0,0,1,.759-2.769,2.5,2.5,0,0,1,2.119-1.012,2.124,2.124,0,0,1,1.668.779V2.5h2.311V13H64.921l-.116-.793a2.181,2.181,0,0,1-1.8.93,2.493,2.493,0,0,1-2.092-1.012A4.662,4.662,0,0,1,60.136,9.247Zm2.3.144q0,1.969,1.148,1.969a1.134,1.134,0,0,0,1.094-.643V7.9a1.1,1.1,0,0,0-1.08-.656q-1.066,0-1.155,1.723Zm9.44,3.746a3.8,3.8,0,0,1-2.755-1.015,3.506,3.506,0,0,1-1.053-2.642V9.288a4.542,4.542,0,0,1,.42-2A3.076,3.076,0,0,1,69.72,5.942a3.7,3.7,0,0,1,1.914-.475,3.2,3.2,0,0,1,2.461.967,3.8,3.8,0,0,1,.9,2.7v.9h-4.58a1.66,1.66,0,0,0,.54.978,1.607,1.607,0,0,0,1.08.355,2.07,2.07,0,0,0,1.709-.766L74.8,11.838a2.943,2.943,0,0,1-1.22.947A4.124,4.124,0,0,1,71.88,13.137Zm-.26-5.893q-1.012,0-1.2,1.34h2.324V8.406a1.141,1.141,0,0,0-.28-.858A1.115,1.115,0,0,0,71.62,7.244ZM79.919,13V7.2H78.846V5.6h1.073V5.016a2.556,2.556,0,0,1,.745-1.962,2.944,2.944,0,0,1,2.092-.7,4.581,4.581,0,0,1,1.08.144l.007,1.7a2.1,2.1,0,0,0-.567-.062q-1.046,0-1.046.9V5.6h1.442V7.2H82.229V13Zm8.729,0a2.6,2.6,0,0,1-.219-.663,2.142,2.142,0,0,1-1.777.8,2.624,2.624,0,0,1-1.777-.632,2.013,2.013,0,0,1-.731-1.589A2.069,2.069,0,0,1,85.032,9.1a4.527,4.527,0,0,1,2.584-.615h.711V8.09q0-1.023-.882-1.023a.721.721,0,0,0-.82.811h-2.3a2.065,2.065,0,0,1,.913-1.741,3.835,3.835,0,0,1,2.328-.669,3.363,3.363,0,0,1,2.235.69,2.4,2.4,0,0,1,.841,1.894v3.274a3.353,3.353,0,0,0,.314,1.559V13Zm-1.442-1.5a1.285,1.285,0,0,0,.714-.185,1.157,1.157,0,0,0,.407-.417V9.712h-.67q-1.2,0-1.2,1.08a.659.659,0,0,0,.212.509A.767.767,0,0,0,87.206,11.5Zm7.834-.137a1.025,1.025,0,0,0,.752-.263.965.965,0,0,0,.26-.735h2.16a2.557,2.557,0,0,1-.872,2,3.242,3.242,0,0,1-2.246.779,3.282,3.282,0,0,1-2.543-1.012,3.986,3.986,0,0,1-.93-2.8v-.1a4.505,4.505,0,0,1,.414-1.979,3.011,3.011,0,0,1,1.193-1.319,3.557,3.557,0,0,1,1.846-.461,3.2,3.2,0,0,1,2.29.8,2.837,2.837,0,0,1,.848,2.167h-2.16a1.265,1.265,0,0,0-.28-.882.967.967,0,0,0-.752-.308q-.9,0-1.046,1.142a8.056,8.056,0,0,0-.048,1,3.164,3.164,0,0,0,.267,1.545A.923.923,0,0,0,95.04,11.359Zm6.829-7.595V5.6h1.217V7.2h-1.217v3.384a.864.864,0,0,0,.15.581.807.807,0,0,0,.595.164,3.379,3.379,0,0,0,.574-.041v1.647a4.252,4.252,0,0,1-1.3.2,2.413,2.413,0,0,1-1.757-.561,2.3,2.3,0,0,1-.567-1.7V7.2h-.943V5.6h.943V3.765ZM108.4,12.2a2.375,2.375,0,0,1-1.976.937,2.329,2.329,0,0,1-1.842-.708,2.976,2.976,0,0,1-.625-2.034V5.6h2.3v4.806a.828.828,0,0,0,.923.95,1.2,1.2,0,0,0,1.128-.567V5.6h2.317V13h-2.16Zm7.964-4.512-.759-.055a1.363,1.363,0,0,0-1.395.684V13h-2.3V5.6h2.16l.075.95a1.784,1.784,0,0,1,1.62-1.087,2.246,2.246,0,0,1,.643.082ZM121.153,13a2.6,2.6,0,0,1-.219-.663,2.142,2.142,0,0,1-1.777.8,2.624,2.624,0,0,1-1.777-.632,2.013,2.013,0,0,1-.731-1.589,2.069,2.069,0,0,1,.889-1.818,4.527,4.527,0,0,1,2.584-.615h.711V8.09q0-1.023-.882-1.023a.721.721,0,0,0-.82.811h-2.3a2.065,2.065,0,0,1,.913-1.741,3.835,3.835,0,0,1,2.328-.669,3.363,3.363,0,0,1,2.235.69,2.4,2.4,0,0,1,.841,1.894v3.274a3.353,3.353,0,0,0,.314,1.559V13Zm-1.442-1.5a1.285,1.285,0,0,0,.714-.185,1.157,1.157,0,0,0,.407-.417V9.712h-.67q-1.2,0-1.2,1.08a.659.659,0,0,0,.212.509A.767.767,0,0,0,119.711,11.5Zm8.579-.574a.532.532,0,0,0-.308-.472,4.679,4.679,0,0,0-1.169-.369,5.33,5.33,0,0,1-1.422-.5,2.382,2.382,0,0,1-.854-.755,1.8,1.8,0,0,1-.294-1.019,2.044,2.044,0,0,1,.841-1.678,3.464,3.464,0,0,1,2.2-.66,3.837,3.837,0,0,1,2.352.663,2.074,2.074,0,0,1,.889,1.743h-2.311q0-.889-.937-.889a.928.928,0,0,0-.608.2.624.624,0,0,0-.246.5.573.573,0,0,0,.3.5,2.842,2.842,0,0,0,.96.314,8.3,8.3,0,0,1,1.159.294,2.105,2.105,0,0,1,1.668,2.058,1.937,1.937,0,0,1-.9,1.647,3.942,3.942,0,0,1-2.328.636,4.023,4.023,0,0,1-1.7-.342,2.835,2.835,0,0,1-1.162-.93,2.105,2.105,0,0,1-.417-1.237h2.153a.89.89,0,0,0,.342.749,1.406,1.406,0,0,0,.841.236,1.106,1.106,0,0,0,.708-.191A.612.612,0,0,0,128.29,10.922Z" transform="translate(543 4840.273)" fill="#fff"/>
      <path id="Trazado_825347" data-name="Trazado 825347" d="M8.9,11.77a3.858,3.858,0,0,1-1.62.991,6.988,6.988,0,0,1-2.338.376,4.169,4.169,0,0,1-3.124-1.2A4.843,4.843,0,0,1,.567,8.611L.561,7.75a5.94,5.94,0,0,1,.52-2.567A3.858,3.858,0,0,1,2.567,3.495,4.206,4.206,0,0,1,4.806,2.9a4.409,4.409,0,0,1,2.888.851,3.606,3.606,0,0,1,1.2,2.54H6.583A1.887,1.887,0,0,0,6.05,5.1a1.72,1.72,0,0,0-1.162-.355,1.566,1.566,0,0,0-1.395.766,4.088,4.088,0,0,0-.5,2.188v.6A4,4,0,0,0,3.5,10.542a1.8,1.8,0,0,0,1.6.749A2.016,2.016,0,0,0,6.5,10.874V9.329H4.833V7.682H8.9Zm4.867,1.367a3.8,3.8,0,0,1-2.755-1.015A3.506,3.506,0,0,1,9.96,9.479V9.288a4.542,4.542,0,0,1,.42-2,3.076,3.076,0,0,1,1.227-1.343,3.7,3.7,0,0,1,1.914-.475,3.2,3.2,0,0,1,2.461.967,3.8,3.8,0,0,1,.9,2.7v.9H12.3a1.66,1.66,0,0,0,.54.978,1.607,1.607,0,0,0,1.08.355,2.07,2.07,0,0,0,1.709-.766l1.053,1.244a2.943,2.943,0,0,1-1.22.947A4.123,4.123,0,0,1,13.768,13.137Zm-.26-5.893q-1.012,0-1.2,1.34h2.324V8.406a1.141,1.141,0,0,0-.28-.858A1.115,1.115,0,0,0,13.508,7.244Zm8.176,3.678a.532.532,0,0,0-.308-.472,4.679,4.679,0,0,0-1.169-.369,5.33,5.33,0,0,1-1.422-.5,2.382,2.382,0,0,1-.854-.755A1.8,1.8,0,0,1,17.637,7.8a2.044,2.044,0,0,1,.841-1.678,3.464,3.464,0,0,1,2.2-.66,3.837,3.837,0,0,1,2.352.663,2.074,2.074,0,0,1,.889,1.743H21.608q0-.889-.937-.889a.928.928,0,0,0-.608.2.624.624,0,0,0-.246.5.573.573,0,0,0,.3.5,2.842,2.842,0,0,0,.96.314,8.3,8.3,0,0,1,1.159.294,2.105,2.105,0,0,1,1.668,2.058,1.937,1.937,0,0,1-.9,1.647,3.942,3.942,0,0,1-2.328.636,4.023,4.023,0,0,1-1.7-.342,2.835,2.835,0,0,1-1.162-.93,2.105,2.105,0,0,1-.417-1.237h2.153a.89.89,0,0,0,.342.749,1.406,1.406,0,0,0,.841.236,1.106,1.106,0,0,0,.708-.191A.612.612,0,0,0,21.684,10.922Zm5.981-7.157V5.6h1.217V7.2H27.665v3.384a.864.864,0,0,0,.15.581.807.807,0,0,0,.595.164,3.38,3.38,0,0,0,.574-.041v1.647a4.252,4.252,0,0,1-1.3.2,2.413,2.413,0,0,1-1.757-.561,2.3,2.3,0,0,1-.567-1.7V7.2h-.943V5.6h.943V3.765ZM32.218,13H29.907V5.6h2.311ZM29.771,3.689a1.037,1.037,0,0,1,.355-.812,1.5,1.5,0,0,1,1.846,0,1.037,1.037,0,0,1,.355.812,1.037,1.037,0,0,1-.355.812,1.5,1.5,0,0,1-1.846,0A1.037,1.037,0,0,1,29.771,3.689Zm3.575,5.544a4.366,4.366,0,0,1,.431-1.972,3.08,3.08,0,0,1,1.237-1.33,3.726,3.726,0,0,1,1.894-.465A3.4,3.4,0,0,1,39.525,6.5a3.948,3.948,0,0,1,.957,2.8v.082a3.83,3.83,0,0,1-.96,2.745,3.41,3.41,0,0,1-2.6,1.015,3.449,3.449,0,0,1-2.536-.947,3.7,3.7,0,0,1-1.032-2.567Zm2.3.144a2.752,2.752,0,0,0,.321,1.5,1.07,1.07,0,0,0,.95.479q1.23,0,1.258-1.894V9.233q0-1.989-1.271-1.989-1.155,0-1.251,1.716ZM37.222,2.5h2.434l-1.9,2.146-1.88,0Zm6.392,3.1.075.868a2.508,2.508,0,0,1,2.112-1,2.11,2.11,0,0,1,1.726.69,3.287,3.287,0,0,1,.591,2.078V13H45.808V8.331a1.248,1.248,0,0,0-.226-.824,1.044,1.044,0,0,0-.82-.263,1.1,1.1,0,0,0-1,.533V13h-2.3V5.6Zm8.976,3.644a4.518,4.518,0,0,1,.759-2.769,2.5,2.5,0,0,1,2.119-1.012,2.124,2.124,0,0,1,1.668.779V2.5h2.311V13H57.374l-.116-.793a2.181,2.181,0,0,1-1.8.93,2.493,2.493,0,0,1-2.092-1.012A4.662,4.662,0,0,1,52.589,9.247Zm2.3.144q0,1.969,1.148,1.969a1.134,1.134,0,0,0,1.094-.643V7.9a1.1,1.1,0,0,0-1.08-.656q-1.066,0-1.155,1.723Zm9.44,3.746a3.8,3.8,0,0,1-2.755-1.015,3.506,3.506,0,0,1-1.053-2.642V9.288a4.542,4.542,0,0,1,.42-2,3.076,3.076,0,0,1,1.227-1.343,3.7,3.7,0,0,1,1.914-.475,3.2,3.2,0,0,1,2.461.967,3.8,3.8,0,0,1,.9,2.7v.9H62.87a1.66,1.66,0,0,0,.54.978,1.607,1.607,0,0,0,1.08.355,2.07,2.07,0,0,0,1.709-.766l1.053,1.244a2.943,2.943,0,0,1-1.22.947A4.124,4.124,0,0,1,64.333,13.137Zm-.26-5.893q-1.012,0-1.2,1.34h2.324V8.406a1.141,1.141,0,0,0-.28-.858A1.115,1.115,0,0,0,64.073,7.244ZM76.029,13a2.6,2.6,0,0,1-.219-.663,2.142,2.142,0,0,1-1.777.8,2.624,2.624,0,0,1-1.777-.632,2.013,2.013,0,0,1-.731-1.589A2.069,2.069,0,0,1,72.413,9.1,4.527,4.527,0,0,1,75,8.481h.711V8.09q0-1.023-.882-1.023a.721.721,0,0,0-.82.811H71.7a2.065,2.065,0,0,1,.913-1.741,3.835,3.835,0,0,1,2.328-.669,3.363,3.363,0,0,1,2.235.69,2.4,2.4,0,0,1,.841,1.894v3.274a3.353,3.353,0,0,0,.314,1.559V13Zm-1.442-1.5a1.285,1.285,0,0,0,.714-.185,1.157,1.157,0,0,0,.407-.417V9.712h-.67q-1.2,0-1.2,1.08a.659.659,0,0,0,.212.509A.767.767,0,0,0,74.587,11.5ZM81.409,5.6l.075.868a2.508,2.508,0,0,1,2.112-1,2.11,2.11,0,0,1,1.726.69,3.287,3.287,0,0,1,.591,2.078V13H83.6V8.331a1.248,1.248,0,0,0-.226-.824,1.044,1.044,0,0,0-.82-.263,1.1,1.1,0,0,0-1,.533V13h-2.3V5.6Zm8.21,7.4H87.309V5.6h2.311ZM87.172,3.689a1.037,1.037,0,0,1,.355-.812,1.5,1.5,0,0,1,1.846,0,1.037,1.037,0,0,1,.355.812,1.037,1.037,0,0,1-.355.812,1.5,1.5,0,0,1-1.846,0A1.037,1.037,0,0,1,87.172,3.689ZM93.215,5.6l.075.868a2.543,2.543,0,0,1,2.112-1A1.872,1.872,0,0,1,97.3,6.581,2.462,2.462,0,0,1,99.47,5.467q2.249,0,2.311,2.721V13H99.47V8.331a1.41,1.41,0,0,0-.191-.827.815.815,0,0,0-.7-.26,1.091,1.091,0,0,0-1.019.608l.007.1V13H95.259V8.345a1.482,1.482,0,0,0-.185-.841.812.812,0,0,0-.7-.26,1.1,1.1,0,0,0-1.012.608V13h-2.3V5.6ZM107.263,13a2.6,2.6,0,0,1-.219-.663,2.142,2.142,0,0,1-1.777.8,2.624,2.624,0,0,1-1.777-.632,2.013,2.013,0,0,1-.731-1.589,2.069,2.069,0,0,1,.889-1.818,4.527,4.527,0,0,1,2.584-.615h.711V8.09q0-1.023-.882-1.023a.721.721,0,0,0-.82.811h-2.3a2.065,2.065,0,0,1,.913-1.741,3.835,3.835,0,0,1,2.328-.669,3.363,3.363,0,0,1,2.235.69,2.4,2.4,0,0,1,.841,1.894v3.274a3.353,3.353,0,0,0,.314,1.559V13Zm-1.442-1.5a1.285,1.285,0,0,0,.714-.185,1.157,1.157,0,0,0,.407-.417V9.712h-.67q-1.2,0-1.2,1.08a.659.659,0,0,0,.212.509A.767.767,0,0,0,105.82,11.5Zm7.137,1.5h-2.311V2.5h2.311Zm5,.137a3.8,3.8,0,0,1-2.755-1.015,3.506,3.506,0,0,1-1.053-2.642V9.288a4.542,4.542,0,0,1,.42-2,3.076,3.076,0,0,1,1.227-1.343,3.7,3.7,0,0,1,1.914-.475,3.2,3.2,0,0,1,2.461.967,3.8,3.8,0,0,1,.9,2.7v.9h-4.58a1.66,1.66,0,0,0,.54.978,1.607,1.607,0,0,0,1.08.355,2.07,2.07,0,0,0,1.709-.766l1.053,1.244a2.943,2.943,0,0,1-1.22.947A4.124,4.124,0,0,1,117.954,13.137Zm-.26-5.893q-1.012,0-1.2,1.34h2.324V8.406a1.141,1.141,0,0,0-.28-.858A1.115,1.115,0,0,0,117.694,7.244Zm8.176,3.678a.532.532,0,0,0-.308-.472,4.679,4.679,0,0,0-1.169-.369,5.33,5.33,0,0,1-1.422-.5,2.382,2.382,0,0,1-.854-.755,1.8,1.8,0,0,1-.294-1.019,2.044,2.044,0,0,1,.841-1.678,3.464,3.464,0,0,1,2.2-.66,3.837,3.837,0,0,1,2.352.663,2.074,2.074,0,0,1,.889,1.743h-2.311q0-.889-.937-.889a.928.928,0,0,0-.608.2.624.624,0,0,0-.246.5.573.573,0,0,0,.3.5,2.842,2.842,0,0,0,.96.314,8.3,8.3,0,0,1,1.159.294,2.105,2.105,0,0,1,1.668,2.058,1.937,1.937,0,0,1-.9,1.647,3.942,3.942,0,0,1-2.328.636,4.023,4.023,0,0,1-1.7-.342,2.835,2.835,0,0,1-1.162-.93,2.105,2.105,0,0,1-.417-1.237h2.153a.89.89,0,0,0,.342.749,1.406,1.406,0,0,0,.841.236,1.106,1.106,0,0,0,.708-.191A.612.612,0,0,0,125.87,10.922Z" transform="translate(753 4840.273)" fill="#fff"/>
      <path id="Trazado_825348" data-name="Trazado 825348" d="M8.9,11.77a3.858,3.858,0,0,1-1.62.991,6.988,6.988,0,0,1-2.338.376,4.169,4.169,0,0,1-3.124-1.2A4.843,4.843,0,0,1,.567,8.611L.561,7.75a5.94,5.94,0,0,1,.52-2.567A3.858,3.858,0,0,1,2.567,3.495,4.206,4.206,0,0,1,4.806,2.9a4.409,4.409,0,0,1,2.888.851,3.606,3.606,0,0,1,1.2,2.54H6.583A1.887,1.887,0,0,0,6.05,5.1a1.72,1.72,0,0,0-1.162-.355,1.566,1.566,0,0,0-1.395.766,4.088,4.088,0,0,0-.5,2.188v.6A4,4,0,0,0,3.5,10.542a1.8,1.8,0,0,0,1.6.749A2.016,2.016,0,0,0,6.5,10.874V9.329H4.833V7.682H8.9Zm4.867,1.367a3.8,3.8,0,0,1-2.755-1.015A3.506,3.506,0,0,1,9.96,9.479V9.288a4.542,4.542,0,0,1,.42-2,3.076,3.076,0,0,1,1.227-1.343,3.7,3.7,0,0,1,1.914-.475,3.2,3.2,0,0,1,2.461.967,3.8,3.8,0,0,1,.9,2.7v.9H12.3a1.66,1.66,0,0,0,.54.978,1.607,1.607,0,0,0,1.08.355,2.07,2.07,0,0,0,1.709-.766l1.053,1.244a2.943,2.943,0,0,1-1.22.947A4.123,4.123,0,0,1,13.768,13.137Zm-.26-5.893q-1.012,0-1.2,1.34h2.324V8.406a1.141,1.141,0,0,0-.28-.858A1.115,1.115,0,0,0,13.508,7.244Zm8.176,3.678a.532.532,0,0,0-.308-.472,4.679,4.679,0,0,0-1.169-.369,5.33,5.33,0,0,1-1.422-.5,2.382,2.382,0,0,1-.854-.755A1.8,1.8,0,0,1,17.637,7.8a2.044,2.044,0,0,1,.841-1.678,3.464,3.464,0,0,1,2.2-.66,3.837,3.837,0,0,1,2.352.663,2.074,2.074,0,0,1,.889,1.743H21.608q0-.889-.937-.889a.928.928,0,0,0-.608.2.624.624,0,0,0-.246.5.573.573,0,0,0,.3.5,2.842,2.842,0,0,0,.96.314,8.3,8.3,0,0,1,1.159.294,2.105,2.105,0,0,1,1.668,2.058,1.937,1.937,0,0,1-.9,1.647,3.942,3.942,0,0,1-2.328.636,4.023,4.023,0,0,1-1.7-.342,2.835,2.835,0,0,1-1.162-.93,2.105,2.105,0,0,1-.417-1.237h2.153a.89.89,0,0,0,.342.749,1.406,1.406,0,0,0,.841.236,1.106,1.106,0,0,0,.708-.191A.612.612,0,0,0,21.684,10.922Zm5.981-7.157V5.6h1.217V7.2H27.665v3.384a.864.864,0,0,0,.15.581.807.807,0,0,0,.595.164,3.38,3.38,0,0,0,.574-.041v1.647a4.252,4.252,0,0,1-1.3.2,2.413,2.413,0,0,1-1.757-.561,2.3,2.3,0,0,1-.567-1.7V7.2h-.943V5.6h.943V3.765ZM32.218,13H29.907V5.6h2.311ZM29.771,3.689a1.037,1.037,0,0,1,.355-.812,1.5,1.5,0,0,1,1.846,0,1.037,1.037,0,0,1,.355.812,1.037,1.037,0,0,1-.355.812,1.5,1.5,0,0,1-1.846,0A1.037,1.037,0,0,1,29.771,3.689Zm3.575,5.544a4.366,4.366,0,0,1,.431-1.972,3.08,3.08,0,0,1,1.237-1.33,3.726,3.726,0,0,1,1.894-.465A3.4,3.4,0,0,1,39.525,6.5a3.948,3.948,0,0,1,.957,2.8v.082a3.83,3.83,0,0,1-.96,2.745,3.41,3.41,0,0,1-2.6,1.015,3.449,3.449,0,0,1-2.536-.947,3.7,3.7,0,0,1-1.032-2.567Zm2.3.144a2.752,2.752,0,0,0,.321,1.5,1.07,1.07,0,0,0,.95.479q1.23,0,1.258-1.894V9.233q0-1.989-1.271-1.989-1.155,0-1.251,1.716ZM37.222,2.5h2.434l-1.9,2.146-1.88,0Zm6.392,3.1.075.868a2.508,2.508,0,0,1,2.112-1,2.11,2.11,0,0,1,1.726.69,3.287,3.287,0,0,1,.591,2.078V13H45.808V8.331a1.248,1.248,0,0,0-.226-.824,1.044,1.044,0,0,0-.82-.263,1.1,1.1,0,0,0-1,.533V13h-2.3V5.6Zm8.976,3.644a4.518,4.518,0,0,1,.759-2.769,2.5,2.5,0,0,1,2.119-1.012,2.124,2.124,0,0,1,1.668.779V2.5h2.311V13H57.374l-.116-.793a2.181,2.181,0,0,1-1.8.93,2.493,2.493,0,0,1-2.092-1.012A4.662,4.662,0,0,1,52.589,9.247Zm2.3.144q0,1.969,1.148,1.969a1.134,1.134,0,0,0,1.094-.643V7.9a1.1,1.1,0,0,0-1.08-.656q-1.066,0-1.155,1.723Zm9.44,3.746a3.8,3.8,0,0,1-2.755-1.015,3.506,3.506,0,0,1-1.053-2.642V9.288a4.542,4.542,0,0,1,.42-2,3.076,3.076,0,0,1,1.227-1.343,3.7,3.7,0,0,1,1.914-.475,3.2,3.2,0,0,1,2.461.967,3.8,3.8,0,0,1,.9,2.7v.9H62.87a1.66,1.66,0,0,0,.54.978,1.607,1.607,0,0,0,1.08.355,2.07,2.07,0,0,0,1.709-.766l1.053,1.244a2.943,2.943,0,0,1-1.22.947A4.124,4.124,0,0,1,64.333,13.137Zm-.26-5.893q-1.012,0-1.2,1.34h2.324V8.406a1.141,1.141,0,0,0-.28-.858A1.115,1.115,0,0,0,64.073,7.244Zm11.368,5.893a3.8,3.8,0,0,1-2.755-1.015,3.506,3.506,0,0,1-1.053-2.642V9.288a4.542,4.542,0,0,1,.42-2,3.076,3.076,0,0,1,1.227-1.343A3.7,3.7,0,0,1,75.2,5.467a3.2,3.2,0,0,1,2.461.967,3.8,3.8,0,0,1,.9,2.7v.9h-4.58a1.66,1.66,0,0,0,.54.978,1.607,1.607,0,0,0,1.08.355,2.07,2.07,0,0,0,1.709-.766l1.053,1.244a2.943,2.943,0,0,1-1.22.947A4.124,4.124,0,0,1,75.441,13.137Zm-.26-5.893q-1.012,0-1.2,1.34H76.3V8.406a1.141,1.141,0,0,0-.28-.858A1.115,1.115,0,0,0,75.182,7.244ZM81.662,5.6l.075.868a2.543,2.543,0,0,1,2.112-1,1.872,1.872,0,0,1,1.894,1.114,2.462,2.462,0,0,1,2.174-1.114q2.249,0,2.311,2.721V13H87.917V8.331a1.41,1.41,0,0,0-.191-.827.815.815,0,0,0-.7-.26,1.091,1.091,0,0,0-1.019.608l.007.1V13H83.706V8.345a1.482,1.482,0,0,0-.185-.841.812.812,0,0,0-.7-.26,1.1,1.1,0,0,0-1.012.608V13H79.5V5.6ZM98.41,9.356a4.46,4.46,0,0,1-.776,2.751,2.488,2.488,0,0,1-2.1,1.029,2.132,2.132,0,0,1-1.675-.745v3.452h-2.3V5.6h2.153l.068.684a2.132,2.132,0,0,1,1.743-.82,2.508,2.508,0,0,1,2.126,1.008,4.515,4.515,0,0,1,.759,2.772Zm-2.3-.144q0-1.969-1.148-1.969a1.084,1.084,0,0,0-1.094.588v2.912a1.119,1.119,0,0,0,1.107.615q1.1,0,1.135-1.9ZM101.855,13H99.545V2.5h2.311Zm5,.137a3.8,3.8,0,0,1-2.755-1.015,3.506,3.506,0,0,1-1.053-2.642V9.288a4.542,4.542,0,0,1,.42-2,3.076,3.076,0,0,1,1.227-1.343,3.7,3.7,0,0,1,1.914-.475,3.2,3.2,0,0,1,2.461.967,3.8,3.8,0,0,1,.9,2.7v.9h-4.58a1.66,1.66,0,0,0,.54.978,1.607,1.607,0,0,0,1.08.355,2.07,2.07,0,0,0,1.709-.766l1.053,1.244a2.943,2.943,0,0,1-1.22.947A4.124,4.124,0,0,1,106.853,13.137Zm-.26-5.893q-1.012,0-1.2,1.34h2.324V8.406a1.141,1.141,0,0,0-.28-.858A1.115,1.115,0,0,0,106.593,7.244ZM115.063,13a2.6,2.6,0,0,1-.219-.663,2.142,2.142,0,0,1-1.777.8,2.624,2.624,0,0,1-1.777-.632,2.013,2.013,0,0,1-.731-1.589,2.069,2.069,0,0,1,.889-1.818,4.527,4.527,0,0,1,2.584-.615h.711V8.09q0-1.023-.882-1.023a.721.721,0,0,0-.82.811h-2.3a2.065,2.065,0,0,1,.913-1.741,3.835,3.835,0,0,1,2.328-.669,3.363,3.363,0,0,1,2.235.69,2.4,2.4,0,0,1,.841,1.894v3.274a3.353,3.353,0,0,0,.314,1.559V13Zm-1.442-1.5a1.285,1.285,0,0,0,.714-.185,1.157,1.157,0,0,0,.407-.417V9.712h-.67q-1.2,0-1.2,1.08a.659.659,0,0,0,.212.509A.767.767,0,0,0,113.62,11.5Zm4.416-2.249a4.518,4.518,0,0,1,.759-2.769,2.5,2.5,0,0,1,2.119-1.012,2.124,2.124,0,0,1,1.668.779V2.5h2.311V13h-2.071l-.116-.793a2.181,2.181,0,0,1-1.8.93,2.493,2.493,0,0,1-2.092-1.012A4.661,4.661,0,0,1,118.036,9.247Zm2.3.144q0,1.969,1.148,1.969a1.134,1.134,0,0,0,1.094-.643V7.9a1.1,1.1,0,0,0-1.08-.656q-1.066,0-1.155,1.723Zm5.571-.157a4.366,4.366,0,0,1,.431-1.972,3.08,3.08,0,0,1,1.237-1.33,3.726,3.726,0,0,1,1.894-.465A3.4,3.4,0,0,1,132.091,6.5a3.948,3.948,0,0,1,.957,2.8v.082a3.83,3.83,0,0,1-.96,2.745,3.41,3.41,0,0,1-2.6,1.015,3.449,3.449,0,0,1-2.536-.947,3.7,3.7,0,0,1-1.032-2.567Zm2.3.144a2.752,2.752,0,0,0,.321,1.5,1.07,1.07,0,0,0,.95.479q1.23,0,1.258-1.894V9.233q0-1.989-1.271-1.989-1.155,0-1.251,1.716Zm9.721,1.545a.532.532,0,0,0-.308-.472,4.679,4.679,0,0,0-1.169-.369,5.33,5.33,0,0,1-1.422-.5,2.382,2.382,0,0,1-.854-.755,1.8,1.8,0,0,1-.294-1.019,2.044,2.044,0,0,1,.841-1.678,3.464,3.464,0,0,1,2.2-.66,3.837,3.837,0,0,1,2.352.663,2.074,2.074,0,0,1,.889,1.743H137.86q0-.889-.937-.889a.928.928,0,0,0-.608.2.624.624,0,0,0-.246.5.573.573,0,0,0,.3.5,2.842,2.842,0,0,0,.96.314,8.3,8.3,0,0,1,1.159.294,2.105,2.105,0,0,1,1.668,2.058,1.937,1.937,0,0,1-.9,1.647,3.942,3.942,0,0,1-2.328.636,4.023,4.023,0,0,1-1.7-.342,2.835,2.835,0,0,1-1.162-.93,2.105,2.105,0,0,1-.417-1.237h2.153a.89.89,0,0,0,.342.749,1.406,1.406,0,0,0,.841.236,1.106,1.106,0,0,0,.708-.191A.612.612,0,0,0,137.936,10.922Z" transform="translate(953 4840.273)" fill="#fff"/>
      <path id="Trazado_825343" data-name="Trazado 825343" d="M3.309,13H.916V3.047H3.309ZM6.986,5.6l.075.868a2.508,2.508,0,0,1,2.112-1,2.11,2.11,0,0,1,1.726.69,3.287,3.287,0,0,1,.591,2.078V13H9.181V8.331a1.248,1.248,0,0,0-.226-.824,1.044,1.044,0,0,0-.82-.263,1.1,1.1,0,0,0-1,.533V13h-2.3V5.6Zm8.463-1.839V5.6h1.217V7.2H15.449v3.384a.864.864,0,0,0,.15.581.807.807,0,0,0,.595.164,3.38,3.38,0,0,0,.574-.041v1.647a4.252,4.252,0,0,1-1.3.2,2.413,2.413,0,0,1-1.757-.561,2.3,2.3,0,0,1-.567-1.7V7.2H12.2V5.6h.943V3.765Zm5.7,9.372A3.8,3.8,0,0,1,18.4,12.122a3.506,3.506,0,0,1-1.053-2.642V9.288a4.542,4.542,0,0,1,.42-2A3.076,3.076,0,0,1,18.99,5.942,3.7,3.7,0,0,1,20.9,5.467a3.2,3.2,0,0,1,2.461.967,3.8,3.8,0,0,1,.9,2.7v.9h-4.58a1.66,1.66,0,0,0,.54.978,1.607,1.607,0,0,0,1.08.355,2.07,2.07,0,0,0,1.709-.766l1.053,1.244a2.943,2.943,0,0,1-1.22.947A4.124,4.124,0,0,1,21.15,13.137Zm-.26-5.893q-1.012,0-1.2,1.34h2.324V8.406a1.141,1.141,0,0,0-.28-.858A1.115,1.115,0,0,0,20.891,7.244Zm8.777.444-.759-.055a1.363,1.363,0,0,0-1.395.684V13h-2.3V5.6h2.16l.075.95a1.784,1.784,0,0,1,1.62-1.087,2.247,2.247,0,0,1,.643.082ZM31.145,13V7.2H30.071V5.6h1.073V5.016a2.556,2.556,0,0,1,.745-1.962,2.944,2.944,0,0,1,2.092-.7,4.581,4.581,0,0,1,1.08.144l.007,1.7a2.1,2.1,0,0,0-.567-.062q-1.046,0-1.046.9V5.6H34.9V7.2H33.455V13Zm8.729,0a2.6,2.6,0,0,1-.219-.663,2.142,2.142,0,0,1-1.777.8A2.624,2.624,0,0,1,36.1,12.5a2.013,2.013,0,0,1-.731-1.589A2.069,2.069,0,0,1,36.258,9.1a4.527,4.527,0,0,1,2.584-.615h.711V8.09q0-1.023-.882-1.023a.721.721,0,0,0-.82.811h-2.3a2.065,2.065,0,0,1,.913-1.741,3.835,3.835,0,0,1,2.328-.669,3.363,3.363,0,0,1,2.235.69,2.4,2.4,0,0,1,.841,1.894v3.274a3.353,3.353,0,0,0,.314,1.559V13Zm-1.442-1.5a1.285,1.285,0,0,0,.714-.185,1.157,1.157,0,0,0,.407-.417V9.712h-.67q-1.2,0-1.2,1.08a.659.659,0,0,0,.212.509A.767.767,0,0,0,38.432,11.5Zm7.424-.273h3.37V13H42.943V11.715l3.281-4.334H43.087V5.6H49.15V6.848Zm12.38.978a2.375,2.375,0,0,1-1.976.937,2.329,2.329,0,0,1-1.842-.708,2.976,2.976,0,0,1-.625-2.034V5.6h2.3v4.806a.828.828,0,0,0,.923.95,1.2,1.2,0,0,0,1.128-.567V5.6h2.317V13H58.3ZM65.6,10.922a.532.532,0,0,0-.308-.472,4.679,4.679,0,0,0-1.169-.369,5.33,5.33,0,0,1-1.422-.5,2.382,2.382,0,0,1-.854-.755A1.8,1.8,0,0,1,61.551,7.8a2.044,2.044,0,0,1,.841-1.678,3.464,3.464,0,0,1,2.2-.66,3.837,3.837,0,0,1,2.352.663,2.074,2.074,0,0,1,.889,1.743H65.522q0-.889-.937-.889a.928.928,0,0,0-.608.2.624.624,0,0,0-.246.5.573.573,0,0,0,.3.5,2.842,2.842,0,0,0,.96.314,8.3,8.3,0,0,1,1.159.294,2.105,2.105,0,0,1,1.668,2.058,1.937,1.937,0,0,1-.9,1.647,3.942,3.942,0,0,1-2.328.636,4.023,4.023,0,0,1-1.7-.342,2.835,2.835,0,0,1-1.162-.93,2.105,2.105,0,0,1-.417-1.237h2.153a.89.89,0,0,0,.342.749,1.406,1.406,0,0,0,.841.236,1.106,1.106,0,0,0,.708-.191A.612.612,0,0,0,65.6,10.922ZM73.3,12.2a2.375,2.375,0,0,1-1.976.937,2.329,2.329,0,0,1-1.842-.708,2.976,2.976,0,0,1-.625-2.034V5.6h2.3v4.806a.828.828,0,0,0,.923.95,1.2,1.2,0,0,0,1.128-.567V5.6H75.53V13H73.37Zm7.656.8a2.6,2.6,0,0,1-.219-.663,2.142,2.142,0,0,1-1.777.8,2.624,2.624,0,0,1-1.777-.632,2.013,2.013,0,0,1-.731-1.589A2.069,2.069,0,0,1,77.342,9.1a4.527,4.527,0,0,1,2.584-.615h.711V8.09q0-1.023-.882-1.023a.721.721,0,0,0-.82.811h-2.3a2.065,2.065,0,0,1,.913-1.741,3.835,3.835,0,0,1,2.328-.669,3.363,3.363,0,0,1,2.235.69,2.4,2.4,0,0,1,.841,1.894v3.274a3.353,3.353,0,0,0,.314,1.559V13Zm-1.442-1.5a1.285,1.285,0,0,0,.714-.185,1.157,1.157,0,0,0,.407-.417V9.712h-.67q-1.2,0-1.2,1.08a.659.659,0,0,0,.212.509A.767.767,0,0,0,79.516,11.5ZM88.7,7.688l-.759-.055a1.363,1.363,0,0,0-1.395.684V13h-2.3V5.6H86.4l.075.95a1.784,1.784,0,0,1,1.62-1.087,2.246,2.246,0,0,1,.643.082ZM91.957,13H89.646V5.6h2.311ZM89.51,3.689a1.037,1.037,0,0,1,.355-.812,1.5,1.5,0,0,1,1.846,0,1.037,1.037,0,0,1,.355.812,1.037,1.037,0,0,1-.355.812,1.5,1.5,0,0,1-1.846,0A1.037,1.037,0,0,1,89.51,3.689Zm3.575,5.544a4.366,4.366,0,0,1,.431-1.972,3.08,3.08,0,0,1,1.237-1.33,3.726,3.726,0,0,1,1.894-.465A3.4,3.4,0,0,1,99.265,6.5a3.948,3.948,0,0,1,.957,2.8v.082a3.83,3.83,0,0,1-.96,2.745,3.41,3.41,0,0,1-2.6,1.015,3.449,3.449,0,0,1-2.536-.947,3.7,3.7,0,0,1-1.032-2.567Zm2.3.144a2.752,2.752,0,0,0,.321,1.5,1.07,1.07,0,0,0,.95.479q1.23,0,1.258-1.894V9.233q0-1.989-1.271-1.989-1.155,0-1.251,1.716Zm9.721,1.545a.532.532,0,0,0-.308-.472,4.679,4.679,0,0,0-1.169-.369,5.33,5.33,0,0,1-1.422-.5,2.382,2.382,0,0,1-.854-.755,1.8,1.8,0,0,1-.294-1.019,2.044,2.044,0,0,1,.841-1.678,3.464,3.464,0,0,1,2.2-.66,3.837,3.837,0,0,1,2.352.663,2.074,2.074,0,0,1,.889,1.743h-2.311q0-.889-.937-.889a.928.928,0,0,0-.608.2.624.624,0,0,0-.246.5.573.573,0,0,0,.3.5,2.842,2.842,0,0,0,.96.314,8.3,8.3,0,0,1,1.159.294,2.105,2.105,0,0,1,1.668,2.058,1.937,1.937,0,0,1-.9,1.647,3.942,3.942,0,0,1-2.328.636,4.023,4.023,0,0,1-1.7-.342,2.835,2.835,0,0,1-1.162-.93,2.105,2.105,0,0,1-.417-1.237h2.153a.89.89,0,0,0,.342.749,1.406,1.406,0,0,0,.841.236,1.106,1.106,0,0,0,.708-.191A.612.612,0,0,0,105.109,10.922Z" transform="translate(543 4694.273)" fill="#fff"/>
      <path id="Trazado_825344" data-name="Trazado 825344" d="M3.309,13H.916V3.047H3.309ZM6.986,5.6l.075.868a2.508,2.508,0,0,1,2.112-1,2.11,2.11,0,0,1,1.726.69,3.287,3.287,0,0,1,.591,2.078V13H9.181V8.331a1.248,1.248,0,0,0-.226-.824,1.044,1.044,0,0,0-.82-.263,1.1,1.1,0,0,0-1,.533V13h-2.3V5.6Zm8.463-1.839V5.6h1.217V7.2H15.449v3.384a.864.864,0,0,0,.15.581.807.807,0,0,0,.595.164,3.38,3.38,0,0,0,.574-.041v1.647a4.252,4.252,0,0,1-1.3.2,2.413,2.413,0,0,1-1.757-.561,2.3,2.3,0,0,1-.567-1.7V7.2H12.2V5.6h.943V3.765Zm5.7,9.372A3.8,3.8,0,0,1,18.4,12.122a3.506,3.506,0,0,1-1.053-2.642V9.288a4.542,4.542,0,0,1,.42-2A3.076,3.076,0,0,1,18.99,5.942,3.7,3.7,0,0,1,20.9,5.467a3.2,3.2,0,0,1,2.461.967,3.8,3.8,0,0,1,.9,2.7v.9h-4.58a1.66,1.66,0,0,0,.54.978,1.607,1.607,0,0,0,1.08.355,2.07,2.07,0,0,0,1.709-.766l1.053,1.244a2.943,2.943,0,0,1-1.22.947A4.124,4.124,0,0,1,21.15,13.137Zm-.26-5.893q-1.012,0-1.2,1.34h2.324V8.406a1.141,1.141,0,0,0-.28-.858A1.115,1.115,0,0,0,20.891,7.244Zm8.777.444-.759-.055a1.363,1.363,0,0,0-1.395.684V13h-2.3V5.6h2.16l.075.95a1.784,1.784,0,0,1,1.62-1.087,2.247,2.247,0,0,1,.643.082ZM31.145,13V7.2H30.071V5.6h1.073V5.016a2.556,2.556,0,0,1,.745-1.962,2.944,2.944,0,0,1,2.092-.7,4.581,4.581,0,0,1,1.08.144l.007,1.7a2.1,2.1,0,0,0-.567-.062q-1.046,0-1.046.9V5.6H34.9V7.2H33.455V13Zm8.729,0a2.6,2.6,0,0,1-.219-.663,2.142,2.142,0,0,1-1.777.8A2.624,2.624,0,0,1,36.1,12.5a2.013,2.013,0,0,1-.731-1.589A2.069,2.069,0,0,1,36.258,9.1a4.527,4.527,0,0,1,2.584-.615h.711V8.09q0-1.023-.882-1.023a.721.721,0,0,0-.82.811h-2.3a2.065,2.065,0,0,1,.913-1.741,3.835,3.835,0,0,1,2.328-.669,3.363,3.363,0,0,1,2.235.69,2.4,2.4,0,0,1,.841,1.894v3.274a3.353,3.353,0,0,0,.314,1.559V13Zm-1.442-1.5a1.285,1.285,0,0,0,.714-.185,1.157,1.157,0,0,0,.407-.417V9.712h-.67q-1.2,0-1.2,1.08a.659.659,0,0,0,.212.509A.767.767,0,0,0,38.432,11.5Zm7.424-.273h3.37V13H42.943V11.715l3.281-4.334H43.087V5.6H49.15V6.848ZM58,13a2.6,2.6,0,0,1-.219-.663,2.142,2.142,0,0,1-1.777.8,2.624,2.624,0,0,1-1.777-.632,2.013,2.013,0,0,1-.731-1.589A2.069,2.069,0,0,1,54.38,9.1a4.527,4.527,0,0,1,2.584-.615h.711V8.09q0-1.023-.882-1.023a.721.721,0,0,0-.82.811h-2.3a2.065,2.065,0,0,1,.913-1.741,3.835,3.835,0,0,1,2.328-.669,3.363,3.363,0,0,1,2.235.69,2.4,2.4,0,0,1,.841,1.894v3.274a3.353,3.353,0,0,0,.314,1.559V13Zm-1.442-1.5a1.285,1.285,0,0,0,.714-.185,1.157,1.157,0,0,0,.407-.417V9.712H57q-1.2,0-1.2,1.08a.659.659,0,0,0,.212.509A.767.767,0,0,0,56.554,11.5ZM60.97,9.247a4.518,4.518,0,0,1,.759-2.769,2.5,2.5,0,0,1,2.119-1.012,2.124,2.124,0,0,1,1.668.779V2.5h2.311V13H65.755l-.116-.793a2.181,2.181,0,0,1-1.8.93,2.493,2.493,0,0,1-2.092-1.012A4.662,4.662,0,0,1,60.97,9.247Zm2.3.144q0,1.969,1.148,1.969a1.134,1.134,0,0,0,1.094-.643V7.9a1.1,1.1,0,0,0-1.08-.656q-1.066,0-1.155,1.723ZM71.313,5.6l.075.868a2.543,2.543,0,0,1,2.112-1,1.872,1.872,0,0,1,1.894,1.114,2.462,2.462,0,0,1,2.174-1.114q2.249,0,2.311,2.721V13H77.567V8.331a1.41,1.41,0,0,0-.191-.827.815.815,0,0,0-.7-.26,1.091,1.091,0,0,0-1.019.608l.007.1V13H73.356V8.345a1.482,1.482,0,0,0-.185-.841.812.812,0,0,0-.7-.26,1.1,1.1,0,0,0-1.012.608V13h-2.3V5.6ZM83.624,13H81.313V5.6h2.311ZM81.177,3.689a1.037,1.037,0,0,1,.355-.812,1.5,1.5,0,0,1,1.846,0,1.037,1.037,0,0,1,.355.812,1.037,1.037,0,0,1-.355.812,1.5,1.5,0,0,1-1.846,0A1.037,1.037,0,0,1,81.177,3.689ZM87.158,5.6l.075.868a2.508,2.508,0,0,1,2.112-1,2.11,2.11,0,0,1,1.726.69,3.287,3.287,0,0,1,.591,2.078V13H89.353V8.331a1.248,1.248,0,0,0-.226-.824,1.044,1.044,0,0,0-.82-.263,1.1,1.1,0,0,0-1,.533V13H85V5.6Zm8.21,7.4H93.058V5.6h2.311ZM92.921,3.689a1.037,1.037,0,0,1,.355-.812,1.5,1.5,0,0,1,1.846,0,1.037,1.037,0,0,1,.355.812,1.037,1.037,0,0,1-.355.812,1.5,1.5,0,0,1-1.846,0A1.037,1.037,0,0,1,92.921,3.689Zm7.738,7.232a.532.532,0,0,0-.308-.472,4.679,4.679,0,0,0-1.169-.369,5.33,5.33,0,0,1-1.422-.5,2.382,2.382,0,0,1-.854-.755A1.8,1.8,0,0,1,96.612,7.8a2.044,2.044,0,0,1,.841-1.678,3.464,3.464,0,0,1,2.2-.66,3.837,3.837,0,0,1,2.352.663,2.074,2.074,0,0,1,.889,1.743h-2.311q0-.889-.937-.889a.928.928,0,0,0-.608.2.624.624,0,0,0-.246.5.573.573,0,0,0,.3.5,2.842,2.842,0,0,0,.96.314,8.3,8.3,0,0,1,1.159.294,2.105,2.105,0,0,1,1.668,2.058,1.937,1.937,0,0,1-.9,1.647,3.942,3.942,0,0,1-2.328.636,4.023,4.023,0,0,1-1.7-.342,2.835,2.835,0,0,1-1.162-.93,2.105,2.105,0,0,1-.417-1.237h2.153a.89.89,0,0,0,.342.749,1.406,1.406,0,0,0,.841.236,1.106,1.106,0,0,0,.708-.191A.612.612,0,0,0,100.659,10.922Zm5.981-7.157V5.6h1.217V7.2h-1.217v3.384a.864.864,0,0,0,.15.581.807.807,0,0,0,.595.164,3.379,3.379,0,0,0,.574-.041v1.647a4.252,4.252,0,0,1-1.3.2,2.413,2.413,0,0,1-1.757-.561,2.3,2.3,0,0,1-.567-1.7V7.2h-.943V5.6h.943V3.765Zm6.6,3.924-.759-.055a1.363,1.363,0,0,0-1.395.684V13h-2.3V5.6h2.16l.075.95a1.784,1.784,0,0,1,1.62-1.087,2.246,2.246,0,0,1,.643.082ZM118.029,13a2.6,2.6,0,0,1-.219-.663,2.142,2.142,0,0,1-1.777.8,2.624,2.624,0,0,1-1.777-.632,2.013,2.013,0,0,1-.731-1.589,2.069,2.069,0,0,1,.889-1.818A4.527,4.527,0,0,1,117,8.481h.711V8.09q0-1.023-.882-1.023a.721.721,0,0,0-.82.811h-2.3a2.065,2.065,0,0,1,.913-1.741,3.835,3.835,0,0,1,2.328-.669,3.363,3.363,0,0,1,2.235.69,2.4,2.4,0,0,1,.841,1.894v3.274a3.353,3.353,0,0,0,.314,1.559V13Zm-1.442-1.5a1.285,1.285,0,0,0,.714-.185,1.157,1.157,0,0,0,.407-.417V9.712h-.67q-1.2,0-1.2,1.08a.659.659,0,0,0,.212.509A.767.767,0,0,0,116.587,11.5ZM121,9.247a4.518,4.518,0,0,1,.759-2.769,2.5,2.5,0,0,1,2.119-1.012,2.124,2.124,0,0,1,1.668.779V2.5h2.311V13h-2.071l-.116-.793a2.181,2.181,0,0,1-1.8.93,2.493,2.493,0,0,1-2.092-1.012A4.661,4.661,0,0,1,121,9.247Zm2.3.144q0,1.969,1.148,1.969a1.134,1.134,0,0,0,1.094-.643V7.9a1.1,1.1,0,0,0-1.08-.656q-1.066,0-1.155,1.723Zm5.571-.157a4.366,4.366,0,0,1,.431-1.972,3.08,3.08,0,0,1,1.237-1.33,3.726,3.726,0,0,1,1.894-.465A3.4,3.4,0,0,1,135.058,6.5a3.948,3.948,0,0,1,.957,2.8v.082a3.83,3.83,0,0,1-.96,2.745,3.41,3.41,0,0,1-2.6,1.015,3.449,3.449,0,0,1-2.536-.947,3.7,3.7,0,0,1-1.032-2.567Zm2.3.144a2.752,2.752,0,0,0,.321,1.5,1.07,1.07,0,0,0,.95.479q1.23,0,1.258-1.894V9.233q0-1.989-1.271-1.989-1.155,0-1.251,1.716ZM141.5,7.688l-.759-.055a1.363,1.363,0,0,0-1.395.684V13h-2.3V5.6h2.16l.075.95a1.784,1.784,0,0,1,1.62-1.087,2.247,2.247,0,0,1,.643.082Z" transform="translate(753 4694.273)" fill="#fff"/>
      <path id="Trazado_825345" data-name="Trazado 825345" d="M3.151,11.154H7.328V13H.752V3.047h2.4ZM7.943,9.233a4.366,4.366,0,0,1,.431-1.972,3.08,3.08,0,0,1,1.237-1.33A3.726,3.726,0,0,1,11.5,5.467,3.4,3.4,0,0,1,14.123,6.5a3.948,3.948,0,0,1,.957,2.8v.082a3.83,3.83,0,0,1-.96,2.745,3.41,3.41,0,0,1-2.6,1.015,3.449,3.449,0,0,1-2.536-.947A3.7,3.7,0,0,1,7.95,9.623Zm2.3.144a2.752,2.752,0,0,0,.321,1.5,1.07,1.07,0,0,0,.95.479q1.23,0,1.258-1.894V9.233q0-1.989-1.271-1.989-1.155,0-1.251,1.716ZM11.819,2.5h2.434l-1.9,2.146-1.88,0Zm4.006,6.747a4.994,4.994,0,0,1,.369-1.982,2.972,2.972,0,0,1,1.06-1.33,2.793,2.793,0,0,1,1.606-.468,2.221,2.221,0,0,1,1.8.779l.082-.643h2.092V12.72a3.118,3.118,0,0,1-.455,1.7,2.917,2.917,0,0,1-1.316,1.107,4.837,4.837,0,0,1-2,.386A4.173,4.173,0,0,1,17.5,15.6a2.844,2.844,0,0,1-1.166-.8l.964-1.354a2.112,2.112,0,0,0,1.7.759,1.372,1.372,0,0,0,1.531-1.572v-.232a2.163,2.163,0,0,1-1.675.731A2.673,2.673,0,0,1,16.659,12.1a4.291,4.291,0,0,1-.834-2.772Zm2.311.144a2.631,2.631,0,0,0,.342,1.439,1.078,1.078,0,0,0,.957.53,1.224,1.224,0,0,0,1.087-.5V7.75a1.193,1.193,0,0,0-1.073-.506,1.086,1.086,0,0,0-.964.55A3,3,0,0,0,18.136,9.391ZM26.578,13H24.268V5.6h2.311ZM24.131,3.689a1.037,1.037,0,0,1,.355-.812,1.5,1.5,0,0,1,1.846,0,1.037,1.037,0,0,1,.355.812,1.037,1.037,0,0,1-.355.812,1.5,1.5,0,0,1-1.846,0A1.037,1.037,0,0,1,24.131,3.689Zm6.993,7.67a1.025,1.025,0,0,0,.752-.263.965.965,0,0,0,.26-.735H34.3a2.557,2.557,0,0,1-.872,2,3.242,3.242,0,0,1-2.246.779,3.282,3.282,0,0,1-2.543-1.012,3.986,3.986,0,0,1-.93-2.8v-.1a4.505,4.505,0,0,1,.414-1.979,3.011,3.011,0,0,1,1.193-1.319,3.557,3.557,0,0,1,1.846-.461,3.2,3.2,0,0,1,2.29.8A2.837,2.837,0,0,1,34.3,8.434h-2.16a1.265,1.265,0,0,0-.28-.882.967.967,0,0,0-.752-.308q-.9,0-1.046,1.142a8.056,8.056,0,0,0-.048,1,3.164,3.164,0,0,0,.267,1.545A.923.923,0,0,0,31.124,11.359ZM39.437,13a2.6,2.6,0,0,1-.219-.663,2.142,2.142,0,0,1-1.777.8,2.624,2.624,0,0,1-1.777-.632,2.013,2.013,0,0,1-.731-1.589A2.069,2.069,0,0,1,35.82,9.1,4.527,4.527,0,0,1,38.4,8.481h.711V8.09q0-1.023-.882-1.023a.721.721,0,0,0-.82.811h-2.3a2.065,2.065,0,0,1,.913-1.741,3.835,3.835,0,0,1,2.328-.669,3.363,3.363,0,0,1,2.235.69,2.4,2.4,0,0,1,.841,1.894v3.274a3.353,3.353,0,0,0,.314,1.559V13Zm-1.442-1.5a1.285,1.285,0,0,0,.714-.185,1.157,1.157,0,0,0,.407-.417V9.712h-.67q-1.2,0-1.2,1.08a.659.659,0,0,0,.212.509A.767.767,0,0,0,37.994,11.5Zm7.9-2.249a4.518,4.518,0,0,1,.759-2.769,2.5,2.5,0,0,1,2.119-1.012,2.124,2.124,0,0,1,1.668.779V2.5h2.311V13H50.682l-.116-.793a2.181,2.181,0,0,1-1.8.93,2.493,2.493,0,0,1-2.092-1.012A4.662,4.662,0,0,1,45.9,9.247Zm2.3.144q0,1.969,1.148,1.969a1.134,1.134,0,0,0,1.094-.643V7.9a1.1,1.1,0,0,0-1.08-.656q-1.066,0-1.155,1.723Zm9.44,3.746a3.8,3.8,0,0,1-2.755-1.015,3.506,3.506,0,0,1-1.053-2.642V9.288a4.542,4.542,0,0,1,.42-2A3.076,3.076,0,0,1,55.48,5.942a3.7,3.7,0,0,1,1.914-.475,3.2,3.2,0,0,1,2.461.967,3.8,3.8,0,0,1,.9,2.7v.9h-4.58a1.66,1.66,0,0,0,.54.978,1.607,1.607,0,0,0,1.08.355,2.07,2.07,0,0,0,1.709-.766l1.053,1.244a2.943,2.943,0,0,1-1.22.947A4.123,4.123,0,0,1,57.641,13.137Zm-.26-5.893q-1.012,0-1.2,1.34H58.5V8.406a1.141,1.141,0,0,0-.28-.858A1.115,1.115,0,0,0,57.381,7.244ZM67.286,5.6l.075.868a2.508,2.508,0,0,1,2.112-1,2.11,2.11,0,0,1,1.726.69,3.287,3.287,0,0,1,.591,2.078V13H69.48V8.331a1.248,1.248,0,0,0-.226-.824,1.044,1.044,0,0,0-.82-.263,1.1,1.1,0,0,0-1,.533V13h-2.3V5.6Zm9.358,7.533a3.8,3.8,0,0,1-2.755-1.015,3.506,3.506,0,0,1-1.053-2.642V9.288a4.542,4.542,0,0,1,.42-2,3.076,3.076,0,0,1,1.227-1.343A3.7,3.7,0,0,1,76.4,5.467a3.2,3.2,0,0,1,2.461.967,3.8,3.8,0,0,1,.9,2.7v.9h-4.58a1.66,1.66,0,0,0,.54.978,1.607,1.607,0,0,0,1.08.355,2.07,2.07,0,0,0,1.709-.766l1.053,1.244a2.943,2.943,0,0,1-1.22.947A4.124,4.124,0,0,1,76.645,13.137Zm-.26-5.893q-1.012,0-1.2,1.34h2.324V8.406a1.141,1.141,0,0,0-.28-.858A1.115,1.115,0,0,0,76.385,7.244Zm4.033,2a4.994,4.994,0,0,1,.369-1.982,2.972,2.972,0,0,1,1.06-1.33,2.793,2.793,0,0,1,1.606-.468,2.221,2.221,0,0,1,1.8.779L85.34,5.6h2.092V12.72a3.118,3.118,0,0,1-.455,1.7,2.917,2.917,0,0,1-1.316,1.107,4.837,4.837,0,0,1-2,.386,4.173,4.173,0,0,1-1.576-.308,2.844,2.844,0,0,1-1.166-.8l.964-1.354a2.112,2.112,0,0,0,1.7.759,1.372,1.372,0,0,0,1.531-1.572v-.232a2.163,2.163,0,0,1-1.675.731A2.673,2.673,0,0,1,81.252,12.1a4.291,4.291,0,0,1-.834-2.772Zm2.311.144a2.631,2.631,0,0,0,.342,1.439,1.078,1.078,0,0,0,.957.53,1.224,1.224,0,0,0,1.087-.5V7.75a1.193,1.193,0,0,0-1.073-.506,1.086,1.086,0,0,0-.964.55A3,3,0,0,0,82.729,9.391Zm5.722-.157a4.366,4.366,0,0,1,.431-1.972,3.08,3.08,0,0,1,1.237-1.33,3.726,3.726,0,0,1,1.894-.465A3.4,3.4,0,0,1,94.63,6.5a3.948,3.948,0,0,1,.957,2.8v.082a3.83,3.83,0,0,1-.96,2.745,3.41,3.41,0,0,1-2.6,1.015,3.449,3.449,0,0,1-2.536-.947,3.7,3.7,0,0,1-1.032-2.567Zm2.3.144a2.752,2.752,0,0,0,.321,1.5,1.07,1.07,0,0,0,.95.479q1.23,0,1.258-1.894V9.233q0-1.989-1.271-1.989-1.155,0-1.251,1.716Zm8.976,1.982a1.025,1.025,0,0,0,.752-.263.965.965,0,0,0,.26-.735h2.16a2.557,2.557,0,0,1-.872,2,3.242,3.242,0,0,1-2.246.779,3.282,3.282,0,0,1-2.543-1.012,3.986,3.986,0,0,1-.93-2.8v-.1a4.505,4.505,0,0,1,.414-1.979,3.011,3.011,0,0,1,1.193-1.319,3.557,3.557,0,0,1,1.846-.461,3.2,3.2,0,0,1,2.29.8,2.837,2.837,0,0,1,.848,2.167h-2.16a1.265,1.265,0,0,0-.28-.882.967.967,0,0,0-.752-.308q-.9,0-1.046,1.142a8.056,8.056,0,0,0-.048,1,3.164,3.164,0,0,0,.267,1.545A.923.923,0,0,0,99.729,11.359ZM106.306,13H104V5.6h2.311Zm-2.447-9.311a1.037,1.037,0,0,1,.355-.812,1.5,1.5,0,0,1,1.846,0,1.037,1.037,0,0,1,.355.812,1.037,1.037,0,0,1-.355.812,1.5,1.5,0,0,1-1.846,0A1.037,1.037,0,0,1,103.858,3.689Zm3.575,5.544a4.366,4.366,0,0,1,.431-1.972,3.08,3.08,0,0,1,1.237-1.33A3.726,3.726,0,0,1,111,5.467,3.4,3.4,0,0,1,113.613,6.5a3.948,3.948,0,0,1,.957,2.8v.082a3.83,3.83,0,0,1-.96,2.745,3.41,3.41,0,0,1-2.6,1.015,3.449,3.449,0,0,1-2.536-.947,3.7,3.7,0,0,1-1.032-2.567Zm2.3.144a2.752,2.752,0,0,0,.321,1.5,1.07,1.07,0,0,0,.95.479q1.23,0,1.258-1.894V9.233q0-1.989-1.271-1.989-1.155,0-1.251,1.716Z" transform="translate(495 4774.273)" fill="#273a89"/>
      <path id="Trazado_825342" data-name="Trazado 825342" d="M3.151,9.623V13H.752V3.047H4.724a4.626,4.626,0,0,1,2.02.42,3.168,3.168,0,0,1,1.36,1.2,3.267,3.267,0,0,1,.482,1.76A2.88,2.88,0,0,1,7.543,8.751a4.326,4.326,0,0,1-2.861.872Zm0-1.853H4.724a1.483,1.483,0,0,0,1.063-.349,1.3,1.3,0,0,0,.366-.984,1.6,1.6,0,0,0-.376-1.114A1.331,1.331,0,0,0,4.751,4.9h-1.6Zm11.081-.082-.759-.055a1.363,1.363,0,0,0-1.395.684V13h-2.3V5.6h2.16l.075.95a1.784,1.784,0,0,1,1.62-1.087,2.247,2.247,0,0,1,.643.082Zm4.279,5.448a3.8,3.8,0,0,1-2.755-1.015A3.506,3.506,0,0,1,14.7,9.479V9.288a4.542,4.542,0,0,1,.42-2,3.076,3.076,0,0,1,1.227-1.343,3.7,3.7,0,0,1,1.914-.475,3.2,3.2,0,0,1,2.461.967,3.8,3.8,0,0,1,.9,2.7v.9h-4.58a1.66,1.66,0,0,0,.54.978,1.607,1.607,0,0,0,1.08.355,2.07,2.07,0,0,0,1.709-.766l1.053,1.244a2.943,2.943,0,0,1-1.22.947A4.124,4.124,0,0,1,18.512,13.137Zm-.26-5.893q-1.012,0-1.2,1.34h2.324V8.406a1.141,1.141,0,0,0-.28-.858A1.115,1.115,0,0,0,18.252,7.244Zm8.176,3.678a.532.532,0,0,0-.308-.472,4.679,4.679,0,0,0-1.169-.369,5.33,5.33,0,0,1-1.422-.5,2.382,2.382,0,0,1-.854-.755A1.8,1.8,0,0,1,22.381,7.8a2.044,2.044,0,0,1,.841-1.678,3.464,3.464,0,0,1,2.2-.66,3.837,3.837,0,0,1,2.352.663,2.074,2.074,0,0,1,.889,1.743H26.353q0-.889-.937-.889a.928.928,0,0,0-.608.2.624.624,0,0,0-.246.5.573.573,0,0,0,.3.5,2.842,2.842,0,0,0,.96.314,8.3,8.3,0,0,1,1.159.294,2.105,2.105,0,0,1,1.668,2.058,1.937,1.937,0,0,1-.9,1.647,3.942,3.942,0,0,1-2.328.636,4.023,4.023,0,0,1-1.7-.342,2.835,2.835,0,0,1-1.162-.93,2.105,2.105,0,0,1-.417-1.237H24.3a.89.89,0,0,0,.342.749,1.406,1.406,0,0,0,.841.236,1.106,1.106,0,0,0,.708-.191A.612.612,0,0,0,26.428,10.922ZM33.3,13.137a3.8,3.8,0,0,1-2.755-1.015A3.506,3.506,0,0,1,29.5,9.479V9.288a4.542,4.542,0,0,1,.42-2,3.076,3.076,0,0,1,1.227-1.343,3.7,3.7,0,0,1,1.914-.475,3.2,3.2,0,0,1,2.461.967,3.8,3.8,0,0,1,.9,2.7v.9h-4.58a1.66,1.66,0,0,0,.54.978,1.607,1.607,0,0,0,1.08.355,2.07,2.07,0,0,0,1.709-.766l1.053,1.244a2.943,2.943,0,0,1-1.22.947A4.123,4.123,0,0,1,33.3,13.137Zm-.26-5.893q-1.012,0-1.2,1.34h2.324V8.406a1.141,1.141,0,0,0-.28-.858A1.115,1.115,0,0,0,33.045,7.244ZM39.464,5.6l.075.868a2.508,2.508,0,0,1,2.112-1,2.11,2.11,0,0,1,1.726.69,3.287,3.287,0,0,1,.591,2.078V13H41.658V8.331a1.248,1.248,0,0,0-.226-.824,1.044,1.044,0,0,0-.82-.263,1.1,1.1,0,0,0-1,.533V13H37.3V5.6Zm8.463-1.839V5.6h1.217V7.2H47.927v3.384a.864.864,0,0,0,.15.581.807.807,0,0,0,.595.164,3.38,3.38,0,0,0,.574-.041v1.647a4.252,4.252,0,0,1-1.3.2,2.413,2.413,0,0,1-1.757-.561,2.3,2.3,0,0,1-.567-1.7V7.2H44.68V5.6h.943V3.765ZM54.216,13A2.6,2.6,0,0,1,54,12.337a2.142,2.142,0,0,1-1.777.8,2.624,2.624,0,0,1-1.777-.632,2.013,2.013,0,0,1-.731-1.589A2.069,2.069,0,0,1,50.6,9.1a4.527,4.527,0,0,1,2.584-.615h.711V8.09q0-1.023-.882-1.023a.721.721,0,0,0-.82.811h-2.3A2.065,2.065,0,0,1,50.8,6.136a3.835,3.835,0,0,1,2.328-.669,3.363,3.363,0,0,1,2.235.69,2.4,2.4,0,0,1,.841,1.894v3.274a3.353,3.353,0,0,0,.314,1.559V13Zm-1.442-1.5a1.285,1.285,0,0,0,.714-.185,1.157,1.157,0,0,0,.407-.417V9.712h-.67q-1.2,0-1.2,1.08a.659.659,0,0,0,.212.509A.767.767,0,0,0,52.773,11.5Zm7.834-.137a1.025,1.025,0,0,0,.752-.263.965.965,0,0,0,.26-.735h2.16a2.557,2.557,0,0,1-.872,2,3.242,3.242,0,0,1-2.246.779,3.282,3.282,0,0,1-2.543-1.012,3.986,3.986,0,0,1-.93-2.8v-.1A4.505,4.505,0,0,1,57.6,7.248,3.011,3.011,0,0,1,58.8,5.928a3.557,3.557,0,0,1,1.846-.461,3.2,3.2,0,0,1,2.29.8,2.837,2.837,0,0,1,.848,2.167h-2.16a1.265,1.265,0,0,0-.28-.882.967.967,0,0,0-.752-.308q-.9,0-1.046,1.142a8.055,8.055,0,0,0-.048,1,3.164,3.164,0,0,0,.267,1.545A.923.923,0,0,0,60.607,11.359ZM67.184,13H64.873V5.6h2.311ZM64.736,3.689a1.037,1.037,0,0,1,.355-.812,1.5,1.5,0,0,1,1.846,0,1.037,1.037,0,0,1,.355.812,1.037,1.037,0,0,1-.355.812,1.5,1.5,0,0,1-1.846,0A1.037,1.037,0,0,1,64.736,3.689Zm3.575,5.544a4.366,4.366,0,0,1,.431-1.972,3.08,3.08,0,0,1,1.237-1.33,3.726,3.726,0,0,1,1.894-.465A3.4,3.4,0,0,1,74.491,6.5a3.948,3.948,0,0,1,.957,2.8v.082a3.83,3.83,0,0,1-.96,2.745,3.41,3.41,0,0,1-2.6,1.015,3.449,3.449,0,0,1-2.536-.947,3.7,3.7,0,0,1-1.032-2.567Zm2.3.144a2.752,2.752,0,0,0,.321,1.5,1.07,1.07,0,0,0,.95.479q1.23,0,1.258-1.894V9.233q0-1.989-1.271-1.989-1.155,0-1.251,1.716ZM72.188,2.5h2.434l-1.9,2.146-1.88,0Zm6.392,3.1.075.868a2.508,2.508,0,0,1,2.112-1,2.11,2.11,0,0,1,1.726.69,3.287,3.287,0,0,1,.591,2.078V13H80.773V8.331a1.248,1.248,0,0,0-.226-.824,1.044,1.044,0,0,0-.82-.263,1.1,1.1,0,0,0-1,.533V13h-2.3V5.6Z" transform="translate(495 4628.273)" fill="#273a89"/>
      <path id="Trazado_825352" data-name="Trazado 825352" d="M.752,13V3.047H4.327a5.063,5.063,0,0,1,2.922.7,2.343,2.343,0,0,1,1,2.044A2.368,2.368,0,0,1,7.9,7.114a2.071,2.071,0,0,1-1.046.807,2.1,2.1,0,0,1,1.2.766,2.226,2.226,0,0,1,.417,1.367,2.635,2.635,0,0,1-.926,2.2A4.408,4.408,0,0,1,4.792,13Zm2.4-4.231v2.386H4.724a1.5,1.5,0,0,0,1-.3,1.041,1.041,0,0,0,.349-.837A1.1,1.1,0,0,0,4.833,8.769Zm0-1.572H4.4a1.777,1.777,0,0,0,1.121-.288,1.022,1.022,0,0,0,.335-.83A1.073,1.073,0,0,0,5.5,5.17a1.939,1.939,0,0,0-1.169-.278H3.151ZM9.782,13V3.047h3.575a5.063,5.063,0,0,1,2.922.7,2.343,2.343,0,0,1,1,2.044,2.368,2.368,0,0,1-.355,1.319,2.071,2.071,0,0,1-1.046.807,2.1,2.1,0,0,1,1.2.766,2.226,2.226,0,0,1,.417,1.367,2.635,2.635,0,0,1-.926,2.2A4.408,4.408,0,0,1,13.822,13Zm2.4-4.231v2.386h1.572a1.5,1.5,0,0,0,1-.3,1.041,1.041,0,0,0,.349-.837,1.1,1.1,0,0,0-1.237-1.251Zm0-1.572h1.251a1.777,1.777,0,0,0,1.121-.288,1.022,1.022,0,0,0,.335-.83,1.073,1.073,0,0,0-.362-.908,1.939,1.939,0,0,0-1.169-.278H12.182ZM18.813,13V3.047h3.206a4.716,4.716,0,0,1,2.372.6,4.2,4.2,0,0,1,1.644,1.688,5.1,5.1,0,0,1,.6,2.444v.458a5.127,5.127,0,0,1-.578,2.451,4.223,4.223,0,0,1-1.627,1.7A4.612,4.612,0,0,1,22.087,13Zm2.4-8.1v6.255h.834a1.867,1.867,0,0,0,1.586-.735,3.6,3.6,0,0,0,.554-2.184V7.8a3.572,3.572,0,0,0-.554-2.174A1.9,1.9,0,0,0,22.019,4.9ZM27.863,13V3.047h3.206a4.716,4.716,0,0,1,2.372.6,4.2,4.2,0,0,1,1.644,1.688,5.1,5.1,0,0,1,.6,2.444v.458a5.127,5.127,0,0,1-.578,2.451,4.223,4.223,0,0,1-1.627,1.7A4.612,4.612,0,0,1,31.138,13Zm2.4-8.1v6.255H31.1a1.867,1.867,0,0,0,1.586-.735,3.6,3.6,0,0,0,.554-2.184V7.8a3.572,3.572,0,0,0-.554-2.174A1.9,1.9,0,0,0,31.069,4.9Z" transform="translate(495 4987.273)" fill="#273a89"/>
      <path id="Trazado_825353" data-name="Trazado 825353" d="M5.886,10.354a.986.986,0,0,0-.373-.82A4.631,4.631,0,0,0,4.2,8.926a12.559,12.559,0,0,1-1.531-.608A2.9,2.9,0,0,1,.738,5.706,2.342,2.342,0,0,1,1.22,4.247a3.117,3.117,0,0,1,1.364-.984A5.307,5.307,0,0,1,4.566,2.91a4.642,4.642,0,0,1,1.924.383,3.047,3.047,0,0,1,1.323,1.09A2.847,2.847,0,0,1,8.285,6H5.893a1.2,1.2,0,0,0-.373-.943,1.452,1.452,0,0,0-1.008-.335A1.638,1.638,0,0,0,3.5,5.005.835.835,0,0,0,3.534,6.42a5.172,5.172,0,0,0,1.442.643,8.836,8.836,0,0,1,1.7.714,2.849,2.849,0,0,1,1.613,2.563A2.43,2.43,0,0,1,7.3,12.392a4.378,4.378,0,0,1-2.7.745A5.357,5.357,0,0,1,2.41,12.7,3.3,3.3,0,0,1,.933,11.513a3.1,3.1,0,0,1-.5-1.74H2.844a1.526,1.526,0,0,0,.414,1.179,1.955,1.955,0,0,0,1.343.379,1.544,1.544,0,0,0,.94-.256A.846.846,0,0,0,5.886,10.354Zm7.1,2.782a3.8,3.8,0,0,1-2.755-1.015A3.506,3.506,0,0,1,9.181,9.479V9.288a4.542,4.542,0,0,1,.42-2,3.076,3.076,0,0,1,1.227-1.343,3.7,3.7,0,0,1,1.914-.475,3.2,3.2,0,0,1,2.461.967,3.8,3.8,0,0,1,.9,2.7v.9h-4.58a1.66,1.66,0,0,0,.54.978,1.607,1.607,0,0,0,1.08.355,2.07,2.07,0,0,0,1.709-.766l1.053,1.244a2.943,2.943,0,0,1-1.22.947A4.123,4.123,0,0,1,12.988,13.137Zm-.26-5.893q-1.012,0-1.2,1.34H13.85V8.406a1.141,1.141,0,0,0-.28-.858A1.115,1.115,0,0,0,12.729,7.244Zm8.777.444-.759-.055a1.363,1.363,0,0,0-1.395.684V13h-2.3V5.6h2.16l.075.95A1.784,1.784,0,0,1,20.9,5.467a2.247,2.247,0,0,1,.643.082Zm3.9,2.57L26.578,5.6H29L26.592,13H24.24L21.827,5.6h2.434ZM32.122,13H29.812V5.6h2.311ZM29.675,3.689a1.037,1.037,0,0,1,.355-.812,1.5,1.5,0,0,1,1.846,0,1.037,1.037,0,0,1,.355.812,1.037,1.037,0,0,1-.355.812,1.5,1.5,0,0,1-1.846,0A1.037,1.037,0,0,1,29.675,3.689Zm6.993,7.67a1.025,1.025,0,0,0,.752-.263.965.965,0,0,0,.26-.735h2.16a2.557,2.557,0,0,1-.872,2,3.242,3.242,0,0,1-2.246.779,3.282,3.282,0,0,1-2.543-1.012,3.986,3.986,0,0,1-.93-2.8v-.1a4.505,4.505,0,0,1,.414-1.979,3.011,3.011,0,0,1,1.193-1.319A3.557,3.557,0,0,1,36.7,5.467a3.2,3.2,0,0,1,2.29.8,2.837,2.837,0,0,1,.848,2.167H37.68a1.265,1.265,0,0,0-.28-.882.967.967,0,0,0-.752-.308q-.9,0-1.046,1.142a8.055,8.055,0,0,0-.048,1,3.164,3.164,0,0,0,.267,1.545A.923.923,0,0,0,36.668,11.359ZM43.244,13H40.934V5.6h2.311ZM40.8,3.689a1.037,1.037,0,0,1,.355-.812,1.5,1.5,0,0,1,1.846,0,1.037,1.037,0,0,1,.355.812A1.037,1.037,0,0,1,43,4.5a1.5,1.5,0,0,1-1.846,0A1.037,1.037,0,0,1,40.8,3.689Zm3.575,5.544A4.366,4.366,0,0,1,44.8,7.261a3.08,3.08,0,0,1,1.237-1.33,3.726,3.726,0,0,1,1.894-.465A3.4,3.4,0,0,1,50.552,6.5a3.948,3.948,0,0,1,.957,2.8v.082a3.83,3.83,0,0,1-.96,2.745,3.41,3.41,0,0,1-2.6,1.015,3.449,3.449,0,0,1-2.536-.947,3.7,3.7,0,0,1-1.032-2.567Zm2.3.144a2.752,2.752,0,0,0,.321,1.5,1.07,1.07,0,0,0,.95.479q1.23,0,1.258-1.894V9.233q0-1.989-1.271-1.989-1.155,0-1.251,1.716ZM56.4,10.922a.532.532,0,0,0-.308-.472,4.679,4.679,0,0,0-1.169-.369,5.33,5.33,0,0,1-1.422-.5,2.382,2.382,0,0,1-.854-.755A1.8,1.8,0,0,1,52.35,7.8a2.044,2.044,0,0,1,.841-1.678,3.464,3.464,0,0,1,2.2-.66,3.837,3.837,0,0,1,2.352.663,2.074,2.074,0,0,1,.889,1.743H56.321q0-.889-.937-.889a.928.928,0,0,0-.608.2.624.624,0,0,0-.246.5.573.573,0,0,0,.3.5,2.842,2.842,0,0,0,.96.314A8.3,8.3,0,0,1,56.95,8.8a2.105,2.105,0,0,1,1.668,2.058,1.937,1.937,0,0,1-.9,1.647,3.942,3.942,0,0,1-2.328.636,4.023,4.023,0,0,1-1.7-.342,2.835,2.835,0,0,1-1.162-.93,2.105,2.105,0,0,1-.417-1.237h2.153a.89.89,0,0,0,.342.749,1.406,1.406,0,0,0,.841.236,1.106,1.106,0,0,0,.708-.191A.612.612,0,0,0,56.4,10.922Z" transform="translate(830 4987.273)" fill="#273a89"/>
      <path id="Trazado_825351" data-name="Trazado 825351" d="M8.9,11.77a3.858,3.858,0,0,1-1.62.991,6.988,6.988,0,0,1-2.338.376,4.169,4.169,0,0,1-3.124-1.2A4.843,4.843,0,0,1,.567,8.611L.561,7.75a5.94,5.94,0,0,1,.52-2.567A3.858,3.858,0,0,1,2.567,3.495,4.206,4.206,0,0,1,4.806,2.9a4.409,4.409,0,0,1,2.888.851,3.606,3.606,0,0,1,1.2,2.54H6.583A1.887,1.887,0,0,0,6.05,5.1a1.72,1.72,0,0,0-1.162-.355,1.566,1.566,0,0,0-1.395.766,4.088,4.088,0,0,0-.5,2.188v.6A4,4,0,0,0,3.5,10.542a1.8,1.8,0,0,0,1.6.749A2.016,2.016,0,0,0,6.5,10.874V9.329H4.833V7.682H8.9Zm4.867,1.367a3.8,3.8,0,0,1-2.755-1.015A3.506,3.506,0,0,1,9.96,9.479V9.288a4.542,4.542,0,0,1,.42-2,3.076,3.076,0,0,1,1.227-1.343,3.7,3.7,0,0,1,1.914-.475,3.2,3.2,0,0,1,2.461.967,3.8,3.8,0,0,1,.9,2.7v.9H12.3a1.66,1.66,0,0,0,.54.978,1.607,1.607,0,0,0,1.08.355,2.07,2.07,0,0,0,1.709-.766l1.053,1.244a2.943,2.943,0,0,1-1.22.947A4.123,4.123,0,0,1,13.768,13.137Zm-.26-5.893q-1.012,0-1.2,1.34h2.324V8.406a1.141,1.141,0,0,0-.28-.858A1.115,1.115,0,0,0,13.508,7.244Zm8.176,3.678a.532.532,0,0,0-.308-.472,4.679,4.679,0,0,0-1.169-.369,5.33,5.33,0,0,1-1.422-.5,2.382,2.382,0,0,1-.854-.755A1.8,1.8,0,0,1,17.637,7.8a2.044,2.044,0,0,1,.841-1.678,3.464,3.464,0,0,1,2.2-.66,3.837,3.837,0,0,1,2.352.663,2.074,2.074,0,0,1,.889,1.743H21.608q0-.889-.937-.889a.928.928,0,0,0-.608.2.624.624,0,0,0-.246.5.573.573,0,0,0,.3.5,2.842,2.842,0,0,0,.96.314,8.3,8.3,0,0,1,1.159.294,2.105,2.105,0,0,1,1.668,2.058,1.937,1.937,0,0,1-.9,1.647,3.942,3.942,0,0,1-2.328.636,4.023,4.023,0,0,1-1.7-.342,2.835,2.835,0,0,1-1.162-.93,2.105,2.105,0,0,1-.417-1.237h2.153a.89.89,0,0,0,.342.749,1.406,1.406,0,0,0,.841.236,1.106,1.106,0,0,0,.708-.191A.612.612,0,0,0,21.684,10.922Zm5.981-7.157V5.6h1.217V7.2H27.665v3.384a.864.864,0,0,0,.15.581.807.807,0,0,0,.595.164,3.38,3.38,0,0,0,.574-.041v1.647a4.252,4.252,0,0,1-1.3.2,2.413,2.413,0,0,1-1.757-.561,2.3,2.3,0,0,1-.567-1.7V7.2h-.943V5.6h.943V3.765Zm1.627,5.469a4.366,4.366,0,0,1,.431-1.972,3.08,3.08,0,0,1,1.237-1.33,3.726,3.726,0,0,1,1.894-.465A3.4,3.4,0,0,1,35.472,6.5a3.948,3.948,0,0,1,.957,2.8v.082a3.83,3.83,0,0,1-.96,2.745,3.41,3.41,0,0,1-2.6,1.015,3.449,3.449,0,0,1-2.536-.947A3.7,3.7,0,0,1,29.3,9.623Zm2.3.144a2.752,2.752,0,0,0,.321,1.5,1.07,1.07,0,0,0,.95.479q1.23,0,1.258-1.894V9.233q0-1.989-1.271-1.989Q31.7,7.244,31.6,8.96ZM41.918,7.688l-.759-.055a1.363,1.363,0,0,0-1.395.684V13h-2.3V5.6h2.16l.075.95a1.784,1.784,0,0,1,1.62-1.087,2.247,2.247,0,0,1,.643.082Zm4.026,1.559A4.518,4.518,0,0,1,46.7,6.479a2.5,2.5,0,0,1,2.119-1.012,2.124,2.124,0,0,1,1.668.779V2.5H52.8V13H50.729l-.116-.793a2.181,2.181,0,0,1-1.8.93,2.493,2.493,0,0,1-2.092-1.012A4.662,4.662,0,0,1,45.944,9.247Zm2.3.144q0,1.969,1.148,1.969a1.134,1.134,0,0,0,1.094-.643V7.9a1.1,1.1,0,0,0-1.08-.656q-1.066,0-1.155,1.723Zm9.44,3.746a3.8,3.8,0,0,1-2.755-1.015,3.506,3.506,0,0,1-1.053-2.642V9.288a4.542,4.542,0,0,1,.42-2,3.076,3.076,0,0,1,1.227-1.343,3.7,3.7,0,0,1,1.914-.475,3.2,3.2,0,0,1,2.461.967,3.8,3.8,0,0,1,.9,2.7v.9h-4.58a1.66,1.66,0,0,0,.54.978,1.607,1.607,0,0,0,1.08.355,2.07,2.07,0,0,0,1.709-.766l1.053,1.244a2.943,2.943,0,0,1-1.22.947A4.123,4.123,0,0,1,57.688,13.137Zm-.26-5.893q-1.012,0-1.2,1.34H58.55V8.406a1.141,1.141,0,0,0-.28-.858A1.115,1.115,0,0,0,57.429,7.244ZM69.385,13a2.6,2.6,0,0,1-.219-.663,2.142,2.142,0,0,1-1.777.8,2.624,2.624,0,0,1-1.777-.632,2.013,2.013,0,0,1-.731-1.589A2.069,2.069,0,0,1,65.769,9.1a4.527,4.527,0,0,1,2.584-.615h.711V8.09q0-1.023-.882-1.023a.721.721,0,0,0-.82.811h-2.3a2.065,2.065,0,0,1,.913-1.741A3.835,3.835,0,0,1,68.3,5.467a3.363,3.363,0,0,1,2.235.69,2.4,2.4,0,0,1,.841,1.894v3.274a3.353,3.353,0,0,0,.314,1.559V13Zm-1.442-1.5a1.285,1.285,0,0,0,.714-.185,1.157,1.157,0,0,0,.407-.417V9.712h-.67q-1.2,0-1.2,1.08a.659.659,0,0,0,.212.509A.767.767,0,0,0,67.942,11.5ZM75.5,10.259,76.665,5.6h2.427L76.679,13H74.327L71.914,5.6h2.434ZM82.209,13H79.9V5.6h2.311ZM79.762,3.689a1.037,1.037,0,0,1,.355-.812,1.5,1.5,0,0,1,1.846,0,1.037,1.037,0,0,1,.355.812,1.037,1.037,0,0,1-.355.812,1.5,1.5,0,0,1-1.846,0A1.037,1.037,0,0,1,79.762,3.689ZM87.5,10.922a.532.532,0,0,0-.308-.472,4.679,4.679,0,0,0-1.169-.369,5.33,5.33,0,0,1-1.422-.5,2.382,2.382,0,0,1-.854-.755A1.8,1.8,0,0,1,83.453,7.8a2.044,2.044,0,0,1,.841-1.678,3.464,3.464,0,0,1,2.2-.66,3.837,3.837,0,0,1,2.352.663,2.074,2.074,0,0,1,.889,1.743H87.425q0-.889-.937-.889a.928.928,0,0,0-.608.2.624.624,0,0,0-.246.5.573.573,0,0,0,.3.5,2.842,2.842,0,0,0,.96.314,8.3,8.3,0,0,1,1.159.294,2.105,2.105,0,0,1,1.668,2.058,1.937,1.937,0,0,1-.9,1.647,3.942,3.942,0,0,1-2.328.636,4.023,4.023,0,0,1-1.7-.342,2.835,2.835,0,0,1-1.162-.93,2.105,2.105,0,0,1-.417-1.237h2.153a.89.89,0,0,0,.342.749,1.406,1.406,0,0,0,.841.236,1.106,1.106,0,0,0,.708-.191A.612.612,0,0,0,87.5,10.922Zm3.008-1.688a4.366,4.366,0,0,1,.431-1.972,3.08,3.08,0,0,1,1.237-1.33,3.726,3.726,0,0,1,1.894-.465A3.4,3.4,0,0,1,96.688,6.5a3.948,3.948,0,0,1,.957,2.8v.082a3.83,3.83,0,0,1-.96,2.745,3.41,3.41,0,0,1-2.6,1.015,3.449,3.449,0,0,1-2.536-.947,3.7,3.7,0,0,1-1.032-2.567Zm2.3.144a2.752,2.752,0,0,0,.321,1.5,1.07,1.07,0,0,0,.95.479q1.23,0,1.258-1.894V9.233q0-1.989-1.271-1.989-1.155,0-1.251,1.716Zm9.721,1.545a.532.532,0,0,0-.308-.472,4.679,4.679,0,0,0-1.169-.369,5.33,5.33,0,0,1-1.422-.5,2.382,2.382,0,0,1-.854-.755A1.8,1.8,0,0,1,98.485,7.8a2.044,2.044,0,0,1,.841-1.678,3.464,3.464,0,0,1,2.2-.66,3.837,3.837,0,0,1,2.352.663,2.074,2.074,0,0,1,.889,1.743h-2.311q0-.889-.937-.889a.928.928,0,0,0-.608.2.624.624,0,0,0-.246.5.573.573,0,0,0,.3.5,2.842,2.842,0,0,0,.96.314,8.3,8.3,0,0,1,1.159.294,2.105,2.105,0,0,1,1.668,2.058,1.937,1.937,0,0,1-.9,1.647,3.942,3.942,0,0,1-2.328.636,4.023,4.023,0,0,1-1.7-.342,2.835,2.835,0,0,1-1.162-.93,2.105,2.105,0,0,1-.417-1.237h2.153a.89.89,0,0,0,.342.749,1.406,1.406,0,0,0,.841.236,1.106,1.106,0,0,0,.708-.191A.612.612,0,0,0,102.532,10.922Z" transform="translate(543 4907.273)" fill="#fff"/>
      <path id="Trazado_825350" data-name="Trazado 825350" d="M8.463,9.288,9.6,3.047h2.379L9.871,13H7.383L6.05,7.326,4.744,13H2.263L.144,3.047H2.529L3.671,9.288,5.038,3.047H7.075Zm3.849-.055a4.366,4.366,0,0,1,.431-1.972,3.08,3.08,0,0,1,1.237-1.33,3.726,3.726,0,0,1,1.894-.465A3.4,3.4,0,0,1,18.491,6.5a3.948,3.948,0,0,1,.957,2.8v.082a3.83,3.83,0,0,1-.96,2.745,3.41,3.41,0,0,1-2.6,1.015,3.449,3.449,0,0,1-2.536-.947,3.7,3.7,0,0,1-1.032-2.567Zm2.3.144a2.752,2.752,0,0,0,.321,1.5,1.07,1.07,0,0,0,.95.479q1.23,0,1.258-1.894V9.233q0-1.989-1.271-1.989-1.155,0-1.251,1.716ZM24.938,7.688l-.759-.055a1.363,1.363,0,0,0-1.395.684V13h-2.3V5.6h2.16l.075.95a1.784,1.784,0,0,1,1.62-1.087,2.247,2.247,0,0,1,.643.082Zm3.8,2.557-.649.649V13h-2.3V2.493h2.3V8.071l.232-.308L30.058,5.6h2.762L30.229,8.646,32.99,13H30.352Zm9.837-6.063q-.588-.048-.991-.048-1.34,0-1.34,1.046V5.6h1.442V7.2H36.244V13H33.934V7.2H32.86V5.6h1.073V5.125a2.554,2.554,0,0,1,.858-2.047,3.668,3.668,0,0,1,2.437-.721q1.128,0,3.664.144V13H38.575Zm3.432,5.052a4.366,4.366,0,0,1,.431-1.972,3.08,3.08,0,0,1,1.237-1.33,3.726,3.726,0,0,1,1.894-.465A3.4,3.4,0,0,1,48.187,6.5a3.948,3.948,0,0,1,.957,2.8v.082a3.83,3.83,0,0,1-.96,2.745,3.41,3.41,0,0,1-2.6,1.015,3.449,3.449,0,0,1-2.536-.947,3.7,3.7,0,0,1-1.032-2.567Zm2.3.144a2.752,2.752,0,0,0,.321,1.5,1.07,1.07,0,0,0,.95.479q1.23,0,1.258-1.894V9.233q0-1.989-1.271-1.989-1.155,0-1.251,1.716Zm12.236.588L57.292,5.6H59.5L57.757,13H55.809L54.585,8.611,53.354,13H51.406L49.663,5.6h2.208l.731,4.464L53.778,5.6h1.606Z" transform="translate(753 4907.273)" fill="#fff"/>
      <path id="Trazado_825349" data-name="Trazado 825349" d="M8.9,11.77a3.858,3.858,0,0,1-1.62.991,6.988,6.988,0,0,1-2.338.376,4.169,4.169,0,0,1-3.124-1.2A4.843,4.843,0,0,1,.567,8.611L.561,7.75a5.94,5.94,0,0,1,.52-2.567A3.858,3.858,0,0,1,2.567,3.495,4.206,4.206,0,0,1,4.806,2.9a4.409,4.409,0,0,1,2.888.851,3.606,3.606,0,0,1,1.2,2.54H6.583A1.887,1.887,0,0,0,6.05,5.1a1.72,1.72,0,0,0-1.162-.355,1.566,1.566,0,0,0-1.395.766,4.088,4.088,0,0,0-.5,2.188v.6A4,4,0,0,0,3.5,10.542a1.8,1.8,0,0,0,1.6.749A2.016,2.016,0,0,0,6.5,10.874V9.329H4.833V7.682H8.9Zm4.867,1.367a3.8,3.8,0,0,1-2.755-1.015A3.506,3.506,0,0,1,9.96,9.479V9.288a4.542,4.542,0,0,1,.42-2,3.076,3.076,0,0,1,1.227-1.343,3.7,3.7,0,0,1,1.914-.475,3.2,3.2,0,0,1,2.461.967,3.8,3.8,0,0,1,.9,2.7v.9H12.3a1.66,1.66,0,0,0,.54.978,1.607,1.607,0,0,0,1.08.355,2.07,2.07,0,0,0,1.709-.766l1.053,1.244a2.943,2.943,0,0,1-1.22.947A4.123,4.123,0,0,1,13.768,13.137Zm-.26-5.893q-1.012,0-1.2,1.34h2.324V8.406a1.141,1.141,0,0,0-.28-.858A1.115,1.115,0,0,0,13.508,7.244Zm8.176,3.678a.532.532,0,0,0-.308-.472,4.679,4.679,0,0,0-1.169-.369,5.33,5.33,0,0,1-1.422-.5,2.382,2.382,0,0,1-.854-.755A1.8,1.8,0,0,1,17.637,7.8a2.044,2.044,0,0,1,.841-1.678,3.464,3.464,0,0,1,2.2-.66,3.837,3.837,0,0,1,2.352.663,2.074,2.074,0,0,1,.889,1.743H21.608q0-.889-.937-.889a.928.928,0,0,0-.608.2.624.624,0,0,0-.246.5.573.573,0,0,0,.3.5,2.842,2.842,0,0,0,.96.314,8.3,8.3,0,0,1,1.159.294,2.105,2.105,0,0,1,1.668,2.058,1.937,1.937,0,0,1-.9,1.647,3.942,3.942,0,0,1-2.328.636,4.023,4.023,0,0,1-1.7-.342,2.835,2.835,0,0,1-1.162-.93,2.105,2.105,0,0,1-.417-1.237h2.153a.89.89,0,0,0,.342.749,1.406,1.406,0,0,0,.841.236,1.106,1.106,0,0,0,.708-.191A.612.612,0,0,0,21.684,10.922Zm5.981-7.157V5.6h1.217V7.2H27.665v3.384a.864.864,0,0,0,.15.581.807.807,0,0,0,.595.164,3.38,3.38,0,0,0,.574-.041v1.647a4.252,4.252,0,0,1-1.3.2,2.413,2.413,0,0,1-1.757-.561,2.3,2.3,0,0,1-.567-1.7V7.2h-.943V5.6h.943V3.765Zm1.627,5.469a4.366,4.366,0,0,1,.431-1.972,3.08,3.08,0,0,1,1.237-1.33,3.726,3.726,0,0,1,1.894-.465A3.4,3.4,0,0,1,35.472,6.5a3.948,3.948,0,0,1,.957,2.8v.082a3.83,3.83,0,0,1-.96,2.745,3.41,3.41,0,0,1-2.6,1.015,3.449,3.449,0,0,1-2.536-.947A3.7,3.7,0,0,1,29.3,9.623Zm2.3.144a2.752,2.752,0,0,0,.321,1.5,1.07,1.07,0,0,0,.95.479q1.23,0,1.258-1.894V9.233q0-1.989-1.271-1.989Q31.7,7.244,31.6,8.96ZM41.918,7.688l-.759-.055a1.363,1.363,0,0,0-1.395.684V13h-2.3V5.6h2.16l.075.95a1.784,1.784,0,0,1,1.62-1.087,2.247,2.247,0,0,1,.643.082Zm4.026,1.559A4.518,4.518,0,0,1,46.7,6.479a2.5,2.5,0,0,1,2.119-1.012,2.124,2.124,0,0,1,1.668.779V2.5H52.8V13H50.729l-.116-.793a2.181,2.181,0,0,1-1.8.93,2.493,2.493,0,0,1-2.092-1.012A4.662,4.662,0,0,1,45.944,9.247Zm2.3.144q0,1.969,1.148,1.969a1.134,1.134,0,0,0,1.094-.643V7.9a1.1,1.1,0,0,0-1.08-.656q-1.066,0-1.155,1.723Zm5.571-.157a4.366,4.366,0,0,1,.431-1.972,3.08,3.08,0,0,1,1.237-1.33,3.726,3.726,0,0,1,1.894-.465A3.4,3.4,0,0,1,60,6.5a3.948,3.948,0,0,1,.957,2.8v.082A3.83,3.83,0,0,1,60,12.122a3.41,3.41,0,0,1-2.6,1.015,3.449,3.449,0,0,1-2.536-.947,3.7,3.7,0,0,1-1.032-2.567Zm2.3.144a2.752,2.752,0,0,0,.321,1.5,1.07,1.07,0,0,0,.95.479q1.23,0,1.258-1.894V9.233q0-1.989-1.271-1.989-1.155,0-1.251,1.716ZM65.1,11.359a1.025,1.025,0,0,0,.752-.263.965.965,0,0,0,.26-.735h2.16a2.557,2.557,0,0,1-.872,2,3.242,3.242,0,0,1-2.246.779,3.282,3.282,0,0,1-2.543-1.012,3.986,3.986,0,0,1-.93-2.8v-.1a4.505,4.505,0,0,1,.414-1.979,3.011,3.011,0,0,1,1.193-1.319,3.557,3.557,0,0,1,1.846-.461,3.2,3.2,0,0,1,2.29.8,2.837,2.837,0,0,1,.848,2.167H66.11a1.265,1.265,0,0,0-.28-.882.967.967,0,0,0-.752-.308q-.9,0-1.046,1.142a8.056,8.056,0,0,0-.048,1,3.164,3.164,0,0,0,.267,1.545A.923.923,0,0,0,65.1,11.359Zm8.552.841a2.375,2.375,0,0,1-1.976.937,2.329,2.329,0,0,1-1.842-.708,2.976,2.976,0,0,1-.625-2.034V5.6h2.3v4.806a.828.828,0,0,0,.923.95,1.2,1.2,0,0,0,1.128-.567V5.6h2.317V13h-2.16Zm5.667-6.6.075.868a2.543,2.543,0,0,1,2.112-1A1.872,1.872,0,0,1,83.4,6.581a2.462,2.462,0,0,1,2.174-1.114q2.249,0,2.311,2.721V13H85.572V8.331a1.41,1.41,0,0,0-.191-.827.815.815,0,0,0-.7-.26,1.091,1.091,0,0,0-1.019.608l.007.1V13H81.361V8.345a1.482,1.482,0,0,0-.185-.841.812.812,0,0,0-.7-.26,1.1,1.1,0,0,0-1.012.608V13h-2.3V5.6Zm13.46,7.533a3.8,3.8,0,0,1-2.755-1.015A3.506,3.506,0,0,1,88.97,9.479V9.288a4.542,4.542,0,0,1,.42-2,3.076,3.076,0,0,1,1.227-1.343,3.7,3.7,0,0,1,1.914-.475,3.2,3.2,0,0,1,2.461.967,3.8,3.8,0,0,1,.9,2.7v.9h-4.58a1.66,1.66,0,0,0,.54.978,1.607,1.607,0,0,0,1.08.355,2.07,2.07,0,0,0,1.709-.766L95.7,11.838a2.943,2.943,0,0,1-1.22.947A4.124,4.124,0,0,1,92.777,13.137Zm-.26-5.893q-1.012,0-1.2,1.34h2.324V8.406a1.141,1.141,0,0,0-.28-.858A1.115,1.115,0,0,0,92.518,7.244ZM98.937,5.6l.075.868a2.508,2.508,0,0,1,2.112-1,2.11,2.11,0,0,1,1.726.69,3.287,3.287,0,0,1,.591,2.078V13h-2.311V8.331a1.248,1.248,0,0,0-.226-.824,1.044,1.044,0,0,0-.82-.263,1.1,1.1,0,0,0-1,.533V13h-2.3V5.6ZM107.4,3.765V5.6h1.217V7.2H107.4v3.384a.864.864,0,0,0,.15.581.807.807,0,0,0,.595.164,3.379,3.379,0,0,0,.574-.041v1.647a4.252,4.252,0,0,1-1.3.2,2.413,2.413,0,0,1-1.757-.561,2.3,2.3,0,0,1-.567-1.7V7.2h-.943V5.6h.943V3.765ZM113.688,13a2.6,2.6,0,0,1-.219-.663,2.142,2.142,0,0,1-1.777.8,2.624,2.624,0,0,1-1.777-.632,2.013,2.013,0,0,1-.731-1.589,2.069,2.069,0,0,1,.889-1.818,4.527,4.527,0,0,1,2.584-.615h.711V8.09q0-1.023-.882-1.023a.721.721,0,0,0-.82.811h-2.3a2.065,2.065,0,0,1,.913-1.741,3.835,3.835,0,0,1,2.328-.669,3.363,3.363,0,0,1,2.235.69,2.4,2.4,0,0,1,.841,1.894v3.274a3.353,3.353,0,0,0,.314,1.559V13Zm-1.442-1.5a1.285,1.285,0,0,0,.714-.185,1.157,1.157,0,0,0,.407-.417V9.712h-.67q-1.2,0-1.2,1.08a.659.659,0,0,0,.212.509A.767.767,0,0,0,112.246,11.5Zm7.137,1.5h-2.311V2.5h2.311Z" transform="translate(963 4907.273)" fill="#fff"/>
    </g>
  </g>
</svg>
