<svg xmlns="http://www.w3.org/2000/svg" width="308.018" height="342" viewBox="0 0 308.018 342">
  <g id="Grupo_1076226" data-name="Grupo 1076226" transform="translate(3110.874 11099)">
    <g id="OBJECTS" transform="translate(-3110.874 -11099)">
      <g id="Grupo_1076225" data-name="Grupo 1076225" transform="translate(0)">
        <g id="Grupo_1076101" data-name="Grupo 1076101" transform="translate(54.847 221.077)">
          <path id="Trazado_825100" data-name="Trazado 825100" d="M152.9,275.772c-.5,4.783-3.685,6.808-7.841,6.808s-5.933-4.127-5.933-8.936,1.54-7.61,6.36-7.605C151.651,266.046,153.412,270.859,152.9,275.772Z" transform="translate(-139.128 -266.039)" fill="#0091c8"/>
        </g>
        <g id="Grupo_1076102" data-name="Grupo 1076102" transform="translate(0 338.431)">
          <path id="Trazado_825101" data-name="Trazado 825101" d="M377.574,410.829H76.7a3.569,3.569,0,0,1-3.569-3.569H381.144A3.57,3.57,0,0,1,377.574,410.829Z" transform="translate(-73.126 -407.26)" fill="#afe6ff"/>
        </g>
        <g id="Grupo_1076103" data-name="Grupo 1076103" transform="translate(50.998 333.187)">
          <path id="Trazado_825102" data-name="Trazado 825102" d="M134.5,403.739a7.3,7.3,0,0,0,5.615,1.238,8.339,8.339,0,0,0,0-4.028h-5.247A1.757,1.757,0,0,1,134.5,403.739Z" transform="translate(-134.496 -400.949)" fill="#c8e6eb"/>
        </g>
        <g id="Grupo_1076104" data-name="Grupo 1076104" transform="translate(42.394 335.201)">
          <path id="Trazado_825103" data-name="Trazado 825103" d="M139.83,405.125a1,1,0,0,0-.987-.552c-1.156.086-3.635.49-5.182-.668a2.957,2.957,0,0,0-2.279-.483c-2.369.408-6.658,1.264-7.24,4.857a37.9,37.9,0,0,0,8.688.107c2.93-.459,7.228-1.512,7.228-1.512A3.592,3.592,0,0,0,139.83,405.125Z" transform="translate(-124.142 -403.372)" fill="#73c8f0"/>
        </g>
        <g id="Grupo_1076105" data-name="Grupo 1076105" transform="translate(69.184 333.187)">
          <path id="Trazado_825104" data-name="Trazado 825104" d="M163.05,403.657l-6.267,1.32a5.239,5.239,0,0,1,0-4.028h5.247C161.682,402.107,161.556,402.963,163.05,403.657Z" transform="translate(-156.381 -400.949)" fill="#c8e6eb"/>
        </g>
        <g id="Grupo_1076106" data-name="Grupo 1076106" transform="translate(15.329 252.847)">
          <path id="Trazado_825105" data-name="Trazado 825105" d="M106.744,390.044c-14.564-37.944-18.669-63.513-12.2-75.995a17,17,0,0,1,11.712-8.915c4.328-1.1,14.442-.843,14.87-.831l-.027,1.059c-.1,0-10.4-.261-14.582.8a16.009,16.009,0,0,0-11.031,8.374c-6.323,12.2-2.2,37.479,12.249,75.128Z" transform="translate(-91.573 -304.27)" fill="#5046af"/>
        </g>
        <g id="Grupo_1076107" data-name="Grupo 1076107" transform="translate(33.796 251.195)">
          <path id="Trazado_825106" data-name="Trazado 825106" d="M127.436,308.545l-.539,7.065s-3.719-5.671-4.276-7.065-1.581-5.02-1.674-5.3a5.163,5.163,0,0,0-4.7-.692c-.621.216-.132,2.264-.039,2.275a12.507,12.507,0,0,0-2.183.114c-.4.062-.429.716,1.275,1.15a4.891,4.891,0,0,1,2.239,1.514,25.607,25.607,0,0,1,2.294,3.077c.239.559,1.782,8.317,6.041,12.559a2.547,2.547,0,0,0,4.061-.743c1-2.054,2.112-5.6,2.356-11.444Z" transform="translate(-113.796 -302.283)" fill="#73c8f0"/>
        </g>
        <path id="Trazado_825107" data-name="Trazado 825107" d="M158.5,360.375c-.52-9.219-.706-9.555-4.542-25.6a2.887,2.887,0,0,0-2.806-2.215H137.436a2.889,2.889,0,0,0-2.85,2.44c-2.539,16.11-2.686,16.507-2.686,25.706,0,8.583,1.871,28.735,1.871,28.735.655,1.1,5.089,1.667,6.292,1.138,0,0,.991-17.915.9-25.009-.037-2.829,2.288-18.093,2.908-22.111l1.306.477c1.217,4.694,4.737,18.432,4.961,21.119.329,3.942,1.616,25.183,1.616,25.183,1.9.951,5.592,1.252,6.845-.258C158.6,389.981,158.982,368.944,158.5,360.375Z" transform="translate(-83.059 -56.205)" fill="#5046af"/>
        <g id="Grupo_1076108" data-name="Grupo 1076108" transform="translate(83.964 251.348)">
          <path id="Trazado_825108" data-name="Trazado 825108" d="M207.983,334.657a16.814,16.814,0,0,1-8.458-2.044c-5.008-2.878-7.771-8.733-8.21-17.4-.229-4.532-1.713-7.794-4.407-9.7-4.925-3.476-12.362-1.3-12.437-1.281l-.3-1.015c.325-.1,8-2.343,13.348,1.428,2.977,2.1,4.612,5.634,4.859,10.51.42,8.288,3,13.852,7.68,16.538,8.941,5.139,22.714-1.874,22.852-1.946l.487.942C222.969,330.908,215.6,334.657,207.983,334.657Z" transform="translate(-174.166 -302.467)" fill="#5046af"/>
        </g>
        <g id="Grupo_1076109" data-name="Grupo 1076109" transform="translate(74.262 250.201)">
          <path id="Trazado_825109" data-name="Trazado 825109" d="M167.951,307.347l.539,7.065s3.719-5.671,4.276-7.065,1.581-5.02,1.674-5.3a5.163,5.163,0,0,1,4.7-.692c.621.216.132,2.264.039,2.275a12.554,12.554,0,0,1,2.183.113c.4.062.429.715-1.275,1.15a4.891,4.891,0,0,0-2.239,1.514,25.517,25.517,0,0,0-2.294,3.077c-.24.559-1.787,8.34-6.059,12.576a2.542,2.542,0,0,1-4.03-.7c-1.047-2.041-2.307-5.618-2.977-11.634Z" transform="translate(-162.491 -301.086)" fill="#73c8f0"/>
        </g>
        <g id="Grupo_1076110" data-name="Grupo 1076110" transform="translate(113.796 94.77)">
          <path id="Trazado_825110" data-name="Trazado 825110" d="M346.631,357.7H219.106a9.041,9.041,0,0,1-9.04-9.04V123.084a9.041,9.041,0,0,1,9.04-9.04H346.631a9.041,9.041,0,0,1,9.04,9.04v225.58A9.04,9.04,0,0,1,346.631,357.7Z" transform="translate(-210.066 -114.044)" fill="#827ddc"/>
        </g>
        <g id="Grupo_1076111" data-name="Grupo 1076111" transform="translate(121.438 114.399)">
          <path id="Trazado_825111" data-name="Trazado 825111" d="M340.156,342.067H228.69a9.427,9.427,0,0,1-9.428-9.428V147.093a9.427,9.427,0,0,1,9.428-9.428H340.156a9.427,9.427,0,0,1,9.428,9.428V332.64A9.428,9.428,0,0,1,340.156,342.067Z" transform="translate(-219.262 -137.665)" fill="#5046af"/>
        </g>
        <g id="Grupo_1076112" data-name="Grupo 1076112" transform="translate(121.438 184.335)">
          <rect id="Rectángulo_383582" data-name="Rectángulo 383582" width="107.016" height="28.208" fill="#393499"/>
        </g>
        <g id="Grupo_1076140" data-name="Grupo 1076140" transform="translate(125.644 135.894)">
          <g id="Grupo_1076121" data-name="Grupo 1076121" transform="translate(0 89.056)">
            <g id="Grupo_1076113" data-name="Grupo 1076113" transform="translate(119.569 27.149)">
              <path id="Trazado_825112" data-name="Trazado 825112" d="M369.8,304.958h-1.324a.264.264,0,0,1,0-.529h.794v-.794a.264.264,0,0,1,.529,0v1.323Z" transform="translate(-368.209 -303.371)" fill="#fff"/>
            </g>
            <g id="Grupo_1076114" data-name="Grupo 1076114" transform="translate(5.292 28.208)">
              <path id="Trazado_825113" data-name="Trazado 825113" d="M341,305.174h-2.117a.264.264,0,1,1,0-.529H341a.264.264,0,1,1,0,.529Zm-6.349,0h-2.117a.264.264,0,1,1,0-.529h2.117a.264.264,0,0,1,0,.529Zm-6.349,0h-2.117a.264.264,0,0,1,0-.529H328.3a.264.264,0,0,1,0,.529Zm-6.349,0h-2.116a.264.264,0,0,1,0-.529h2.116a.264.264,0,1,1,0,.529Zm-6.349,0h-2.117a.264.264,0,1,1,0-.529h2.117a.264.264,0,1,1,0,.529Zm-6.349,0H307.14a.264.264,0,1,1,0-.529h2.117a.264.264,0,0,1,0,.529Zm-6.348,0h-2.117a.264.264,0,1,1,0-.529h2.117a.264.264,0,1,1,0,.529Zm-6.35,0h-2.116a.264.264,0,1,1,0-.529h2.116a.264.264,0,1,1,0,.529Zm-6.349,0h-2.117a.264.264,0,1,1,0-.529h2.117a.264.264,0,0,1,0,.529Zm-6.348,0h-2.117a.264.264,0,0,1,0-.529h2.117a.264.264,0,1,1,0,.529Zm-6.349,0H275.4a.264.264,0,0,1,0-.529h2.117a.264.264,0,0,1,0,.529Zm-6.35,0h-2.116a.264.264,0,1,1,0-.529h2.116a.264.264,0,0,1,0,.529Zm-6.348,0H262.7a.264.264,0,0,1,0-.529h2.117a.264.264,0,0,1,0,.529Zm-6.349,0H256.35a.264.264,0,0,1,0-.529h2.117a.264.264,0,0,1,0,.529Zm-6.348,0H250a.264.264,0,1,1,0-.529h2.117a.264.264,0,0,1,0,.529Zm-6.35,0h-2.116a.264.264,0,1,1,0-.529h2.116a.264.264,0,1,1,0,.529Zm-6.349,0H237.3a.264.264,0,1,1,0-.529h2.116a.264.264,0,1,1,0,.529Zm-6.348,0h-2.117a.264.264,0,1,1,0-.529h2.117a.264.264,0,1,1,0,.529Z" transform="translate(-230.691 -304.645)" fill="#fff"/>
            </g>
            <g id="Grupo_1076115" data-name="Grupo 1076115" transform="translate(0 27.149)">
              <path id="Trazado_825114" data-name="Trazado 825114" d="M225.647,304.958h-1.324v-1.324a.265.265,0,0,1,.53,0v.794h.794a.265.265,0,1,1,0,.529Z" transform="translate(-224.323 -303.37)" fill="#fff"/>
            </g>
            <g id="Grupo_1076116" data-name="Grupo 1076116" transform="translate(0 5.805)">
              <path id="Trazado_825115" data-name="Trazado 825115" d="M224.588,294.815a.265.265,0,0,1-.265-.264v-2.372a.265.265,0,0,1,.53,0v2.372A.266.266,0,0,1,224.588,294.815Zm0-7.116a.265.265,0,0,1-.265-.264v-2.371a.265.265,0,0,1,.53,0v2.371A.266.266,0,0,1,224.588,287.7Zm0-7.115a.265.265,0,0,1-.265-.264v-2.371a.265.265,0,0,1,.53,0v2.371A.266.266,0,0,1,224.588,280.584Z" transform="translate(-224.323 -277.685)" fill="#fff"/>
            </g>
            <g id="Grupo_1076117" data-name="Grupo 1076117">
              <path id="Trazado_825116" data-name="Trazado 825116" d="M224.588,272.288a.265.265,0,0,1-.265-.264V270.7h1.324a.264.264,0,1,1,0,.529h-.794v.794A.265.265,0,0,1,224.588,272.288Z" transform="translate(-224.323 -270.7)" fill="#fff"/>
            </g>
            <g id="Grupo_1076118" data-name="Grupo 1076118" transform="translate(5.292 0.001)">
              <path id="Trazado_825117" data-name="Trazado 825117" d="M341,271.23h-2.116a.264.264,0,1,1,0-.529H341a.264.264,0,0,1,0,.529Zm-6.349,0h-2.117a.264.264,0,0,1,0-.529h2.117a.264.264,0,1,1,0,.529Zm-6.349,0h-2.117a.264.264,0,1,1,0-.529H328.3a.264.264,0,0,1,0,.529Zm-6.348,0h-2.117a.264.264,0,0,1,0-.529h2.117a.264.264,0,0,1,0,.529Zm-6.35,0h-2.116a.264.264,0,0,1,0-.529H315.6a.264.264,0,0,1,0,.529Zm-6.349,0h-2.117a.264.264,0,0,1,0-.529h2.117a.264.264,0,0,1,0,.529Zm-6.348,0h-2.116a.264.264,0,1,1,0-.529h2.116a.264.264,0,0,1,0,.529Zm-6.349,0h-2.117a.264.264,0,0,1,0-.529h2.117a.264.264,0,0,1,0,.529Zm-6.35,0h-2.116a.264.264,0,1,1,0-.529h2.116a.264.264,0,1,1,0,.529Zm-6.348,0h-2.117a.264.264,0,0,1,0-.529h2.117a.264.264,0,0,1,0,.529Zm-6.349,0H275.4a.264.264,0,0,1,0-.529h2.117a.264.264,0,0,1,0,.529Zm-6.349,0h-2.117a.264.264,0,0,1,0-.529h2.117a.264.264,0,0,1,0,.529Zm-6.349,0H262.7a.264.264,0,0,1,0-.529h2.116a.264.264,0,0,1,0,.529Zm-6.349,0H256.35a.264.264,0,0,1,0-.529h2.117a.264.264,0,0,1,0,.529Zm-6.348,0H250a.264.264,0,0,1,0-.529h2.117a.264.264,0,0,1,0,.529Zm-6.35,0h-2.116a.264.264,0,1,1,0-.529h2.116a.264.264,0,1,1,0,.529Zm-6.348,0H237.3a.264.264,0,1,1,0-.529h2.117a.264.264,0,1,1,0,.529Zm-6.349,0h-2.116a.264.264,0,1,1,0-.529h2.116a.264.264,0,1,1,0,.529Z" transform="translate(-230.691 -270.701)" fill="#fff"/>
            </g>
            <g id="Grupo_1076119" data-name="Grupo 1076119" transform="translate(119.569 0.001)">
              <path id="Trazado_825118" data-name="Trazado 825118" d="M369.533,272.288a.264.264,0,0,1-.264-.264v-.794h-.794a.264.264,0,0,1,0-.529H369.8v1.324A.265.265,0,0,1,369.533,272.288Z" transform="translate(-368.21 -270.701)" fill="#fff"/>
            </g>
            <g id="Grupo_1076120" data-name="Grupo 1076120" transform="translate(120.628 5.804)">
              <path id="Trazado_825119" data-name="Trazado 825119" d="M369.748,294.814a.264.264,0,0,1-.264-.264v-2.371a.264.264,0,1,1,.528,0v2.371A.265.265,0,0,1,369.748,294.814Zm0-7.116a.264.264,0,0,1-.264-.264v-2.371a.264.264,0,1,1,.528,0v2.371A.264.264,0,0,1,369.748,287.7Zm0-7.114a.264.264,0,0,1-.264-.264v-2.372a.264.264,0,1,1,.528,0v2.372A.265.265,0,0,1,369.748,280.584Z" transform="translate(-369.484 -277.684)" fill="#fff"/>
            </g>
          </g>
          <g id="Grupo_1076130" data-name="Grupo 1076130" transform="translate(0 44.527)">
            <g id="Grupo_1076122" data-name="Grupo 1076122" transform="translate(119.569 27.15)">
              <path id="Trazado_825120" data-name="Trazado 825120" d="M369.8,251.375h-1.324a.264.264,0,1,1,0-.529h.794v-.794a.264.264,0,1,1,.529,0v1.323Z" transform="translate(-368.209 -249.787)" fill="#fff"/>
            </g>
            <g id="Grupo_1076123" data-name="Grupo 1076123" transform="translate(5.292 28.21)">
              <path id="Trazado_825121" data-name="Trazado 825121" d="M341,251.59h-2.117a.264.264,0,1,1,0-.528H341a.264.264,0,1,1,0,.528Zm-6.349,0h-2.117a.264.264,0,1,1,0-.528h2.117a.264.264,0,1,1,0,.528Zm-6.349,0h-2.117a.264.264,0,1,1,0-.528H328.3a.264.264,0,0,1,0,.528Zm-6.349,0h-2.116a.264.264,0,0,1,0-.528h2.116a.264.264,0,1,1,0,.528Zm-6.349,0h-2.117a.264.264,0,1,1,0-.528h2.117a.264.264,0,1,1,0,.528Zm-6.349,0H307.14a.264.264,0,1,1,0-.528h2.117a.264.264,0,0,1,0,.528Zm-6.348,0h-2.117a.264.264,0,1,1,0-.528h2.117a.264.264,0,1,1,0,.528Zm-6.35,0h-2.116a.264.264,0,1,1,0-.528h2.116a.264.264,0,1,1,0,.528Zm-6.349,0h-2.117a.264.264,0,1,1,0-.528h2.117a.264.264,0,0,1,0,.528Zm-6.348,0h-2.117a.264.264,0,1,1,0-.528h2.117a.264.264,0,1,1,0,.528Zm-6.349,0H275.4a.264.264,0,0,1,0-.528h2.117a.264.264,0,1,1,0,.528Zm-6.35,0h-2.116a.264.264,0,1,1,0-.528h2.116a.264.264,0,1,1,0,.528Zm-6.348,0H262.7a.264.264,0,1,1,0-.528h2.117a.264.264,0,1,1,0,.528Zm-6.349,0H256.35a.264.264,0,0,1,0-.528h2.117a.264.264,0,1,1,0,.528Zm-6.348,0H250a.264.264,0,1,1,0-.528h2.117a.264.264,0,0,1,0,.528Zm-6.35,0h-2.116a.264.264,0,1,1,0-.528h2.116a.264.264,0,1,1,0,.528Zm-6.349,0H237.3a.264.264,0,1,1,0-.528h2.116a.264.264,0,1,1,0,.528Zm-6.348,0h-2.117a.264.264,0,1,1,0-.528h2.117a.264.264,0,1,1,0,.528Z" transform="translate(-230.691 -251.062)" fill="#fff"/>
            </g>
            <g id="Grupo_1076124" data-name="Grupo 1076124" transform="translate(0 27.149)">
              <path id="Trazado_825122" data-name="Trazado 825122" d="M225.647,251.375h-1.324v-1.324a.265.265,0,1,1,.53,0v.794h.794a.265.265,0,1,1,0,.529Z" transform="translate(-224.323 -249.786)" fill="#fff"/>
            </g>
            <g id="Grupo_1076125" data-name="Grupo 1076125" transform="translate(0 5.803)">
              <path id="Trazado_825123" data-name="Trazado 825123" d="M224.588,241.231a.265.265,0,0,1-.265-.265v-2.372a.265.265,0,1,1,.53,0v2.372A.266.266,0,0,1,224.588,241.231Zm0-7.115a.265.265,0,0,1-.265-.265v-2.372a.265.265,0,1,1,.53,0v2.372A.266.266,0,0,1,224.588,234.116Zm0-7.115a.265.265,0,0,1-.265-.265v-2.372a.265.265,0,0,1,.53,0v2.372A.266.266,0,0,1,224.588,227Z" transform="translate(-224.323 -224.098)" fill="#fff"/>
            </g>
            <g id="Grupo_1076126" data-name="Grupo 1076126" transform="translate(0 0.001)">
              <path id="Trazado_825124" data-name="Trazado 825124" d="M224.588,218.7a.265.265,0,0,1-.265-.265v-1.324h1.324a.265.265,0,0,1,0,.53h-.794v.794A.265.265,0,0,1,224.588,218.7Z" transform="translate(-224.323 -217.116)" fill="#fff"/>
            </g>
            <g id="Grupo_1076127" data-name="Grupo 1076127" transform="translate(5.292 0.001)">
              <path id="Trazado_825125" data-name="Trazado 825125" d="M341,217.646h-2.116a.265.265,0,0,1,0-.53H341a.265.265,0,0,1,0,.53Zm-6.349,0h-2.117a.265.265,0,0,1,0-.53h2.117a.265.265,0,0,1,0,.53Zm-6.349,0h-2.117a.265.265,0,0,1,0-.53H328.3a.265.265,0,0,1,0,.53Zm-6.348,0h-2.117a.265.265,0,0,1,0-.53h2.117a.265.265,0,0,1,0,.53Zm-6.35,0h-2.116a.265.265,0,0,1,0-.53H315.6a.265.265,0,0,1,0,.53Zm-6.349,0h-2.117a.265.265,0,0,1,0-.53h2.117a.265.265,0,0,1,0,.53Zm-6.348,0h-2.116a.265.265,0,0,1,0-.53h2.116a.265.265,0,0,1,0,.53Zm-6.349,0h-2.117a.265.265,0,0,1,0-.53h2.117a.265.265,0,0,1,0,.53Zm-6.35,0h-2.116a.265.265,0,0,1,0-.53h2.116a.265.265,0,0,1,0,.53Zm-6.348,0h-2.117a.265.265,0,0,1,0-.53h2.117a.265.265,0,0,1,0,.53Zm-6.349,0H275.4a.265.265,0,0,1,0-.53h2.117a.265.265,0,0,1,0,.53Zm-6.349,0h-2.117a.265.265,0,0,1,0-.53h2.117a.265.265,0,0,1,0,.53Zm-6.349,0H262.7a.265.265,0,0,1,0-.53h2.116a.265.265,0,0,1,0,.53Zm-6.349,0H256.35a.265.265,0,0,1,0-.53h2.117a.265.265,0,0,1,0,.53Zm-6.348,0H250a.265.265,0,0,1,0-.53h2.117a.265.265,0,0,1,0,.53Zm-6.35,0h-2.116a.265.265,0,0,1,0-.53h2.116a.265.265,0,0,1,0,.53Zm-6.348,0H237.3a.265.265,0,1,1,0-.53h2.117a.265.265,0,0,1,0,.53Zm-6.349,0h-2.116a.265.265,0,0,1,0-.53h2.116a.265.265,0,0,1,0,.53Z" transform="translate(-230.691 -217.116)" fill="#fff"/>
            </g>
            <g id="Grupo_1076128" data-name="Grupo 1076128" transform="translate(119.569)">
              <path id="Trazado_825126" data-name="Trazado 825126" d="M369.533,218.7a.265.265,0,0,1-.264-.265v-.794h-.794a.265.265,0,0,1,0-.53H369.8v1.324A.267.267,0,0,1,369.533,218.7Z" transform="translate(-368.21 -217.115)" fill="#fff"/>
            </g>
            <g id="Grupo_1076129" data-name="Grupo 1076129" transform="translate(120.628 5.804)">
              <path id="Trazado_825127" data-name="Trazado 825127" d="M369.748,241.232a.265.265,0,0,1-.264-.265v-2.372a.264.264,0,1,1,.528,0v2.372A.265.265,0,0,1,369.748,241.232Zm0-7.116a.265.265,0,0,1-.264-.265v-2.372a.264.264,0,1,1,.528,0v2.372A.265.265,0,0,1,369.748,234.116Zm0-7.115a.265.265,0,0,1-.264-.265v-2.372a.264.264,0,1,1,.528,0v2.372A.265.265,0,0,1,369.748,227Z" transform="translate(-369.484 -224.099)" fill="#fff"/>
            </g>
          </g>
          <g id="Grupo_1076139" data-name="Grupo 1076139">
            <g id="Grupo_1076131" data-name="Grupo 1076131" transform="translate(119.569 27.149)">
              <path id="Trazado_825128" data-name="Trazado 825128" d="M369.8,197.792h-1.324a.265.265,0,0,1,0-.53h.794v-.794a.264.264,0,1,1,.529,0v1.325Z" transform="translate(-368.209 -196.202)" fill="#fff"/>
            </g>
            <g id="Grupo_1076132" data-name="Grupo 1076132" transform="translate(5.292 28.208)">
              <path id="Trazado_825129" data-name="Trazado 825129" d="M341,198.007h-2.117a.265.265,0,0,1,0-.53H341a.265.265,0,0,1,0,.53Zm-6.349,0h-2.117a.265.265,0,0,1,0-.53h2.117a.265.265,0,0,1,0,.53Zm-6.349,0h-2.117a.265.265,0,0,1,0-.53H328.3a.265.265,0,0,1,0,.53Zm-6.349,0h-2.116a.265.265,0,0,1,0-.53h2.116a.265.265,0,0,1,0,.53Zm-6.349,0h-2.117a.265.265,0,0,1,0-.53h2.117a.265.265,0,0,1,0,.53Zm-6.349,0H307.14a.265.265,0,0,1,0-.53h2.117a.265.265,0,0,1,0,.53Zm-6.348,0h-2.117a.265.265,0,0,1,0-.53h2.117a.265.265,0,0,1,0,.53Zm-6.35,0h-2.116a.265.265,0,0,1,0-.53h2.116a.265.265,0,0,1,0,.53Zm-6.349,0h-2.117a.265.265,0,0,1,0-.53h2.117a.265.265,0,0,1,0,.53Zm-6.348,0h-2.117a.265.265,0,0,1,0-.53h2.117a.265.265,0,0,1,0,.53Zm-6.349,0H275.4a.265.265,0,0,1,0-.53h2.117a.265.265,0,0,1,0,.53Zm-6.35,0h-2.116a.265.265,0,0,1,0-.53h2.116a.265.265,0,0,1,0,.53Zm-6.348,0H262.7a.265.265,0,0,1,0-.53h2.117a.265.265,0,0,1,0,.53Zm-6.349,0H256.35a.265.265,0,0,1,0-.53h2.117a.265.265,0,0,1,0,.53Zm-6.348,0H250a.265.265,0,0,1,0-.53h2.117a.265.265,0,0,1,0,.53Zm-6.35,0h-2.116a.265.265,0,1,1,0-.53h2.116a.265.265,0,1,1,0,.53Zm-6.349,0H237.3a.265.265,0,0,1,0-.53h2.116a.265.265,0,0,1,0,.53Zm-6.348,0h-2.117a.265.265,0,0,1,0-.53h2.117a.265.265,0,0,1,0,.53Z" transform="translate(-230.691 -197.477)" fill="#fff"/>
            </g>
            <g id="Grupo_1076133" data-name="Grupo 1076133" transform="translate(0 27.149)">
              <path id="Trazado_825130" data-name="Trazado 825130" d="M225.647,197.792h-1.324v-1.324a.265.265,0,0,1,.53,0v.794h.794a.265.265,0,1,1,0,.529Z" transform="translate(-224.323 -196.203)" fill="#fff"/>
            </g>
            <g id="Grupo_1076134" data-name="Grupo 1076134" transform="translate(0 5.802)">
              <path id="Trazado_825131" data-name="Trazado 825131" d="M224.588,187.647a.265.265,0,0,1-.265-.265v-2.372a.265.265,0,1,1,.53,0v2.372A.266.266,0,0,1,224.588,187.647Zm0-7.116a.265.265,0,0,1-.265-.265v-2.372a.265.265,0,0,1,.53,0v2.372A.266.266,0,0,1,224.588,180.532Zm0-7.115a.265.265,0,0,1-.265-.265v-2.372a.265.265,0,1,1,.53,0v2.372A.266.266,0,0,1,224.588,173.417Z" transform="translate(-224.323 -170.514)" fill="#fff"/>
            </g>
            <g id="Grupo_1076135" data-name="Grupo 1076135" transform="translate(0 0.001)">
              <path id="Trazado_825132" data-name="Trazado 825132" d="M224.588,165.122a.265.265,0,0,1-.265-.265v-1.324h1.324a.265.265,0,0,1,0,.53h-.794v.794A.265.265,0,0,1,224.588,165.122Z" transform="translate(-224.323 -163.533)" fill="#fff"/>
            </g>
            <g id="Grupo_1076136" data-name="Grupo 1076136" transform="translate(5.292)">
              <path id="Trazado_825133" data-name="Trazado 825133" d="M341,164.062h-2.116a.265.265,0,0,1,0-.53H341a.265.265,0,0,1,0,.53Zm-6.349,0h-2.117a.265.265,0,0,1,0-.53h2.117a.265.265,0,0,1,0,.53Zm-6.349,0h-2.117a.265.265,0,0,1,0-.53H328.3a.265.265,0,0,1,0,.53Zm-6.348,0h-2.117a.265.265,0,0,1,0-.53h2.117a.265.265,0,0,1,0,.53Zm-6.35,0h-2.116a.265.265,0,0,1,0-.53H315.6a.265.265,0,0,1,0,.53Zm-6.349,0h-2.117a.265.265,0,0,1,0-.53h2.117a.265.265,0,0,1,0,.53Zm-6.348,0h-2.116a.265.265,0,0,1,0-.53h2.116a.265.265,0,0,1,0,.53Zm-6.349,0h-2.117a.265.265,0,0,1,0-.53h2.117a.265.265,0,0,1,0,.53Zm-6.35,0h-2.116a.265.265,0,0,1,0-.53h2.116a.265.265,0,0,1,0,.53Zm-6.348,0h-2.117a.265.265,0,0,1,0-.53h2.117a.265.265,0,0,1,0,.53Zm-6.349,0H275.4a.265.265,0,0,1,0-.53h2.117a.265.265,0,0,1,0,.53Zm-6.349,0h-2.117a.265.265,0,0,1,0-.53h2.117a.265.265,0,0,1,0,.53Zm-6.349,0H262.7a.265.265,0,0,1,0-.53h2.116a.265.265,0,0,1,0,.53Zm-6.349,0H256.35a.265.265,0,0,1,0-.53h2.117a.265.265,0,0,1,0,.53Zm-6.348,0H250a.265.265,0,0,1,0-.53h2.117a.265.265,0,0,1,0,.53Zm-6.35,0h-2.116a.265.265,0,0,1,0-.53h2.116a.265.265,0,0,1,0,.53Zm-6.348,0H237.3a.265.265,0,1,1,0-.53h2.117a.265.265,0,0,1,0,.53Zm-6.349,0h-2.116a.265.265,0,0,1,0-.53h2.116a.265.265,0,1,1,0,.53Z" transform="translate(-230.691 -163.532)" fill="#fff"/>
            </g>
            <g id="Grupo_1076137" data-name="Grupo 1076137" transform="translate(119.569 0)">
              <path id="Trazado_825134" data-name="Trazado 825134" d="M369.533,165.122a.265.265,0,0,1-.264-.265v-.794h-.794a.265.265,0,0,1,0-.53H369.8v1.324A.267.267,0,0,1,369.533,165.122Z" transform="translate(-368.21 -163.532)" fill="#fff"/>
            </g>
            <g id="Grupo_1076138" data-name="Grupo 1076138" transform="translate(120.628 5.803)">
              <path id="Trazado_825135" data-name="Trazado 825135" d="M369.748,187.648a.265.265,0,0,1-.264-.265V185.01a.264.264,0,1,1,.528,0v2.373A.265.265,0,0,1,369.748,187.648Zm0-7.115a.265.265,0,0,1-.264-.265V177.9a.264.264,0,1,1,.528,0v2.372A.265.265,0,0,1,369.748,180.533Zm0-7.116a.265.265,0,0,1-.264-.265V170.78a.264.264,0,1,1,.528,0v2.372A.265.265,0,0,1,369.748,173.417Z" transform="translate(-369.484 -170.515)" fill="#fff"/>
            </g>
          </g>
        </g>
        <g id="Grupo_1076141" data-name="Grupo 1076141" transform="translate(146.895 103.535)">
          <path id="Trazado_825136" data-name="Trazado 825136" d="M327.128,128.942H252.072a2.175,2.175,0,0,1-2.176-2.176h0a2.175,2.175,0,0,1,2.176-2.176h75.056a2.175,2.175,0,0,1,2.176,2.176h0A2.175,2.175,0,0,1,327.128,128.942Z" transform="translate(-249.896 -124.591)" fill="#5046af"/>
        </g>
        <g id="Grupo_1076144" data-name="Grupo 1076144" transform="translate(134.535 325.769)">
          <g id="Grupo_1076142" data-name="Grupo 1076142">
            <path id="Trazado_825137" data-name="Trazado 825137" d="M258.944,397.906H237.965a2.943,2.943,0,0,1-2.943-2.942h0a2.942,2.942,0,0,1,2.943-2.942h20.979a2.942,2.942,0,0,1,2.942,2.942h0A2.942,2.942,0,0,1,258.944,397.906Z" transform="translate(-235.022 -392.023)" fill="#5046af"/>
          </g>
          <g id="Grupo_1076143" data-name="Grupo 1076143" transform="translate(77.264)">
            <path id="Trazado_825138" data-name="Trazado 825138" d="M351.922,397.906H330.943A2.943,2.943,0,0,1,328,394.965h0a2.942,2.942,0,0,1,2.943-2.942h20.979a2.943,2.943,0,0,1,2.943,2.942h0A2.943,2.943,0,0,1,351.922,397.906Z" transform="translate(-328 -392.023)" fill="#5046af"/>
          </g>
        </g>
        <g id="Grupo_1076152" data-name="Grupo 1076152" transform="translate(153.075)">
          <path id="Trazado_825139" data-name="Trazado 825139" d="M362.565,129.752,324.854,88.5a5.727,5.727,0,0,0-2.087-10.416V75.95h8.974V55.761h-8.974V51.183a5.726,5.726,0,0,0,0-11.256V0h-2.118V39.927a5.726,5.726,0,0,0,0,11.256v4.578h-8.973V75.951h8.974V80.11h1.059a3.6,3.6,0,0,1,1.678,6.79l-1.42-1.554-1.58,1.728a3.611,3.611,0,0,1-2.289-3.352H315.98a5.729,5.729,0,0,0,2.914,4.984l-37.526,41.047.923.845,37.828-41.376a5.628,5.628,0,0,0,3.575-.132L361.642,130.6ZM318.1,45.554a3.6,3.6,0,0,1,2.552-3.435v.256h2.118V42.12a3.587,3.587,0,0,1,0,6.869v-.265h-2.118v.265A3.6,3.6,0,0,1,318.1,45.554Zm3.763,41.762.106-.116.088.1C321.99,87.3,321.926,87.314,321.86,87.317Z" transform="translate(-261.395)" fill="#73c8f0"/>
          <g id="Grupo_1076151" data-name="Grupo 1076151" transform="translate(0 128.117)">
            <g id="Grupo_1076145" data-name="Grupo 1076145" transform="translate(5.691 7.208)">
              <rect id="Rectángulo_383583" data-name="Rectángulo 383583" width="92.994" height="28.208" fill="#393499"/>
            </g>
            <g id="Grupo_1076150" data-name="Grupo 1076150">
              <g id="Grupo_1076146" data-name="Grupo 1076146">
                <rect id="Rectángulo_383584" data-name="Rectángulo 383584" width="120.627" height="28.208" fill="#fff"/>
              </g>
              <g id="Grupo_1076147" data-name="Grupo 1076147" transform="translate(8.329 6.002)">
                <rect id="Rectángulo_383585" data-name="Rectángulo 383585" width="16.145" height="16.145" fill="#73c8f0"/>
              </g>
              <g id="Grupo_1076148" data-name="Grupo 1076148" transform="translate(31.156 6.002)">
                <rect id="Rectángulo_383586" data-name="Rectángulo 383586" width="83.325" height="3.159" fill="#73c8f0"/>
              </g>
              <g id="Grupo_1076149" data-name="Grupo 1076149" transform="translate(31.156 18.988)">
                <rect id="Rectángulo_383587" data-name="Rectángulo 383587" width="83.325" height="3.159" fill="#73c8f0"/>
              </g>
            </g>
          </g>
        </g>
        <g id="Grupo_1076154" data-name="Grupo 1076154" transform="translate(206.445 245.772)">
          <path id="Trazado_825140" data-name="Trazado 825140" d="M376.595,297.443a4.468,4.468,0,0,0-3.686,3.049l-5.671,17.029H344.812v4.328H365.8l-2.835,8.514H339.633v4.328H361.52l-2.835,8.514H334.453v4.328h22.789l-2.835,8.514H330.154v4.328h22.812l-2.835,8.514H325.856v4.328h22.835l-2.835,8.514h-24.3v4.328h22.857l-.879,2.641H348l17.986-54.011h.47v-1.411l3.807-11.431h1.373v-4.121l4.96-14.9v-5.387Z" transform="translate(-321.557 -296.041)" fill="#41b4e6"/>
          <path id="Trazado_825141" data-name="Trazado 825141" d="M423.269,388.694l-33.885-88.4a4.471,4.471,0,0,0-3.9-2.886v4.554l5.961,15.55H368.551v4.328H393.1l3.263,8.514H373.73v4.328h24.3l3.263,8.514H378.909v4.328h24.04l3.263,8.514h-23.26v4.328H407.87l3.264,8.514H388.2v4.328h24.6l3.263,8.514H393.241v4.328h24.475l1.012,2.641h4.541Z" transform="translate(-329.499 -296.035)" fill="#73c8f0"/>
          <g id="Grupo_1076153" data-name="Grupo 1076153" transform="translate(52.957)">
            <path id="Trazado_825142" data-name="Trazado 825142" d="M389.9,300.12c0,2.41-1.034,4.364-2.308,4.364s-2.309-1.954-2.309-4.364,1.034-4.364,2.309-4.364S389.9,297.71,389.9,300.12Z" transform="translate(-385.284 -295.756)" fill="#41b4e6"/>
          </g>
        </g>
        <g id="Grupo_1076159" data-name="Grupo 1076159" transform="translate(103.01 177.871)">
          <g id="Grupo_1076155" data-name="Grupo 1076155">
            <rect id="Rectángulo_383588" data-name="Rectángulo 383588" width="120.627" height="28.208" fill="#fff"/>
          </g>
          <g id="Grupo_1076156" data-name="Grupo 1076156" transform="translate(8.329 6.002)">
            <rect id="Rectángulo_383589" data-name="Rectángulo 383589" width="16.145" height="16.145" fill="#73c8f0"/>
          </g>
          <g id="Grupo_1076157" data-name="Grupo 1076157" transform="translate(31.156 6.002)">
            <rect id="Rectángulo_383590" data-name="Rectángulo 383590" width="83.325" height="3.159" fill="#73c8f0"/>
          </g>
          <g id="Grupo_1076158" data-name="Grupo 1076158" transform="translate(31.156 18.988)">
            <rect id="Rectángulo_383591" data-name="Rectángulo 383591" width="83.325" height="3.159" fill="#73c8f0"/>
          </g>
        </g>
        <g id="Grupo_1076164" data-name="Grupo 1076164" transform="translate(0.642 306.865)">
          <g id="Grupo_1076160" data-name="Grupo 1076160" transform="translate(3.449)">
            <path id="Trazado_825143" data-name="Trazado 825143" d="M96.8,400.839H78.049l9.374-31.565Z" transform="translate(-78.049 -369.274)" fill="#73c8f0"/>
          </g>
          <g id="Grupo_1076161" data-name="Grupo 1076161" transform="translate(0 29.357)">
            <rect id="Rectángulo_383592" data-name="Rectángulo 383592" width="25.81" height="2.209" fill="#73c8f0"/>
          </g>
          <g id="Grupo_1076162" data-name="Grupo 1076162" transform="translate(4.104 23.894)">
            <path id="Trazado_825144" data-name="Trazado 825144" d="M78.838,403.491H96.275l-1.622-5.463H80.46Z" transform="translate(-78.838 -398.028)" fill="#6e64c3"/>
          </g>
          <g id="Grupo_1076163" data-name="Grupo 1076163" transform="translate(7.349 12.97)">
            <path id="Trazado_825145" data-name="Trazado 825145" d="M92.776,387.263l-.707-2.381h-7.7l-.89,2.995-.732,2.467H93.691Z" transform="translate(-82.743 -384.882)" fill="#6e64c3"/>
          </g>
        </g>
        <g id="Grupo_1076165" data-name="Grupo 1076165" transform="translate(175.118 297.228)">
          <path id="Trazado_825146" data-name="Trazado 825146" d="M283.859,362.177v-4.448h.5v4h1.27v.451Z" transform="translate(-283.859 -357.686)" fill="#fff"/>
          <path id="Trazado_825147" data-name="Trazado 825147" d="M287.92,358.795c0-.679.337-1.118,1.017-1.118s1.022.438,1.022,1.118v2.3c0,.674-.337,1.119-1.022,1.119s-1.017-.445-1.017-1.119Zm.489,2.324c0,.406.171.642.528.642s.527-.235.527-.642v-2.35c0-.4-.165-.642-.527-.642s-.528.242-.528.642Z" transform="translate(-284.545 -357.677)" fill="#fff"/>
          <path id="Trazado_825148" data-name="Trazado 825148" d="M292.939,361.281l-.172.9h-.457l.852-4.448h.717l.852,4.448h-.5l-.171-.9Zm.064-.425h.991l-.5-2.567Z" transform="translate(-285.287 -357.686)" fill="#fff"/>
          <path id="Trazado_825149" data-name="Trazado 825149" d="M298.262,357.729c.692,0,1.01.42,1.01,1.105v2.243c0,.679-.318,1.1-1.01,1.1H297.22v-4.447h1.042Zm-.007,4c.356,0,.528-.223.528-.629v-2.287c0-.406-.172-.629-.534-.629h-.534v3.545Z" transform="translate(-286.117 -357.686)" fill="#fff"/>
          <path id="Trazado_825150" data-name="Trazado 825150" d="M302.273,357.729v4.448h-.5v-4.448Z" transform="translate(-286.887 -357.686)" fill="#fff"/>
          <path id="Trazado_825151" data-name="Trazado 825151" d="M304.953,362.177h-.445v-4.448h.629l1.029,3.214v-3.214h.439v4.448h-.514l-1.138-3.6v3.6Z" transform="translate(-287.349 -357.686)" fill="#fff"/>
          <path id="Trazado_825152" data-name="Trazado 825152" d="M311.128,358.795v.381h-.47v-.406c0-.4-.159-.641-.521-.641s-.521.242-.521.641v2.35c0,.4.165.641.521.641s.521-.241.521-.641v-.889H310.2v-.445h.927v1.309c0,.674-.317,1.119-1,1.119s-1-.445-1-1.119v-2.3c0-.674.318-1.118,1-1.118S311.128,358.121,311.128,358.795Z" transform="translate(-288.129 -357.677)" fill="#fff"/>
        </g>
        <g id="Grupo_1076193" data-name="Grupo 1076193" transform="translate(176.842 266.454)">
          <g id="Grupo_1076168" data-name="Grupo 1076168" transform="translate(9.951)">
            <g id="Grupo_1076166" data-name="Grupo 1076166">
              <path id="Trazado_825153" data-name="Trazado 825153" d="M298.94,322.708a1.032,1.032,0,1,0-1.031-1.032A1.031,1.031,0,0,0,298.94,322.708Z" transform="translate(-297.909 -320.645)" fill="#fff"/>
            </g>
            <g id="Grupo_1076167" data-name="Grupo 1076167" transform="translate(0 20.208)">
              <path id="Trazado_825154" data-name="Trazado 825154" d="M298.94,344.963a1.031,1.031,0,1,0,1.031,1.031A1.031,1.031,0,0,0,298.94,344.963Z" transform="translate(-297.909 -344.963)" fill="#827ddc"/>
            </g>
          </g>
          <g id="Grupo_1076171" data-name="Grupo 1076171" transform="translate(6.495 0.609)">
            <g id="Grupo_1076169" data-name="Grupo 1076169">
              <path id="Trazado_825155" data-name="Trazado 825155" d="M295.134,323.379a1.032,1.032,0,1,0-1.322-.617A1.032,1.032,0,0,0,295.134,323.379Z" transform="translate(-293.75 -321.378)" fill="#c2c2ef"/>
            </g>
            <g id="Grupo_1076170" data-name="Grupo 1076170" transform="translate(6.911 18.989)">
              <path id="Trazado_825156" data-name="Trazado 825156" d="M302.746,344.292a1.032,1.032,0,1,0,1.322.617A1.032,1.032,0,0,0,302.746,344.292Z" transform="translate(-302.067 -344.23)" fill="#827ddc"/>
            </g>
          </g>
          <g id="Grupo_1076174" data-name="Grupo 1076174" transform="translate(3.456 2.364)">
            <g id="Grupo_1076172" data-name="Grupo 1076172">
              <path id="Trazado_825157" data-name="Trazado 825157" d="M291.787,325.311a1.032,1.032,0,1,0-1.453-.127A1.032,1.032,0,0,0,291.787,325.311Z" transform="translate(-290.093 -323.49)" fill="#9292f7"/>
            </g>
            <g id="Grupo_1076173" data-name="Grupo 1076173" transform="translate(12.99 15.481)">
              <path id="Trazado_825158" data-name="Trazado 825158" d="M306.093,342.36a1.032,1.032,0,1,0,1.453.127A1.032,1.032,0,0,0,306.093,342.36Z" transform="translate(-305.724 -342.118)" fill="#827ddc"/>
            </g>
          </g>
          <g id="Grupo_1076177" data-name="Grupo 1076177" transform="translate(1.2 5.052)">
            <g id="Grupo_1076175" data-name="Grupo 1076175">
              <path id="Trazado_825159" data-name="Trazado 825159" d="M289.3,328.272a1.032,1.032,0,1,0-1.409.377A1.032,1.032,0,0,0,289.3,328.272Z" transform="translate(-287.378 -326.724)" fill="#9a9afc"/>
            </g>
            <g id="Grupo_1076176" data-name="Grupo 1076176" transform="translate(17.501 10.104)">
              <path id="Trazado_825160" data-name="Trazado 825160" d="M308.577,339.4a1.032,1.032,0,1,0,1.409-.377A1.032,1.032,0,0,0,308.577,339.4Z" transform="translate(-308.438 -338.883)" fill="#827ddc"/>
            </g>
          </g>
          <g id="Grupo_1076180" data-name="Grupo 1076180" transform="translate(0 8.35)">
            <g id="Grupo_1076178" data-name="Grupo 1076178">
              <path id="Trazado_825161" data-name="Trazado 825161" d="M287.982,331.9a1.032,1.032,0,1,0-1.195.837A1.032,1.032,0,0,0,287.982,331.9Z" transform="translate(-285.934 -330.693)" fill="#827ddc"/>
            </g>
            <g id="Grupo_1076179" data-name="Grupo 1076179" transform="translate(19.901 3.508)">
              <path id="Trazado_825162" data-name="Trazado 825162" d="M309.9,335.768a1.032,1.032,0,1,0,1.195-.837A1.032,1.032,0,0,0,309.9,335.768Z" transform="translate(-309.883 -334.915)" fill="#827ddc"/>
            </g>
          </g>
          <g id="Grupo_1076183" data-name="Grupo 1076183" transform="translate(0 8.35)">
            <g id="Grupo_1076181" data-name="Grupo 1076181" transform="translate(0 3.508)">
              <path id="Trazado_825163" data-name="Trazado 825163" d="M287.982,335.768a1.032,1.032,0,1,0-.837,1.195A1.032,1.032,0,0,0,287.982,335.768Z" transform="translate(-285.934 -334.915)" fill="#827ddc"/>
            </g>
            <g id="Grupo_1076182" data-name="Grupo 1076182" transform="translate(19.901)">
              <path id="Trazado_825164" data-name="Trazado 825164" d="M309.9,331.9a1.032,1.032,0,1,0,.837-1.195A1.032,1.032,0,0,0,309.9,331.9Z" transform="translate(-309.883 -330.693)" fill="#827ddc"/>
            </g>
          </g>
          <g id="Grupo_1076186" data-name="Grupo 1076186" transform="translate(1.2 5.052)">
            <g id="Grupo_1076184" data-name="Grupo 1076184" transform="translate(0 10.104)">
              <path id="Trazado_825165" data-name="Trazado 825165" d="M289.3,339.4a1.032,1.032,0,1,0-.377,1.409A1.031,1.031,0,0,0,289.3,339.4Z" transform="translate(-287.378 -338.883)" fill="#827ddc"/>
            </g>
            <g id="Grupo_1076185" data-name="Grupo 1076185" transform="translate(17.501)">
              <path id="Trazado_825166" data-name="Trazado 825166" d="M308.577,328.272a1.032,1.032,0,1,0,.377-1.409A1.031,1.031,0,0,0,308.577,328.272Z" transform="translate(-308.438 -326.724)" fill="#827ddc"/>
            </g>
          </g>
          <g id="Grupo_1076189" data-name="Grupo 1076189" transform="translate(3.456 2.364)">
            <g id="Grupo_1076187" data-name="Grupo 1076187" transform="translate(0 15.481)">
              <path id="Trazado_825167" data-name="Trazado 825167" d="M291.787,342.36a1.032,1.032,0,1,0,.127,1.453A1.032,1.032,0,0,0,291.787,342.36Z" transform="translate(-290.092 -342.118)" fill="#827ddc"/>
            </g>
            <g id="Grupo_1076188" data-name="Grupo 1076188" transform="translate(12.99)">
              <path id="Trazado_825168" data-name="Trazado 825168" d="M306.093,325.311a1.032,1.032,0,1,0-.127-1.453A1.032,1.032,0,0,0,306.093,325.311Z" transform="translate(-305.724 -323.49)" fill="#827ddc"/>
            </g>
          </g>
          <g id="Grupo_1076192" data-name="Grupo 1076192" transform="translate(6.495 0.609)">
            <g id="Grupo_1076190" data-name="Grupo 1076190" transform="translate(0 18.99)">
              <path id="Trazado_825169" data-name="Trazado 825169" d="M295.134,344.292a1.032,1.032,0,1,0,.617,1.322A1.032,1.032,0,0,0,295.134,344.292Z" transform="translate(-293.75 -344.23)" fill="#827ddc"/>
            </g>
            <g id="Grupo_1076191" data-name="Grupo 1076191" transform="translate(6.911)">
              <path id="Trazado_825170" data-name="Trazado 825170" d="M302.746,323.379a1.032,1.032,0,1,0-.617-1.322A1.032,1.032,0,0,0,302.746,323.379Z" transform="translate(-302.067 -321.378)" fill="#827ddc"/>
            </g>
          </g>
        </g>
        <g id="Grupo_1076194" data-name="Grupo 1076194" transform="translate(46.232 240.075)">
          <path id="Trazado_825171" data-name="Trazado 825171" d="M140.417,290.506s-7.551,3.6-8.667,4.621-2.99,13.545-2.99,13.545a7.755,7.755,0,0,0,6.249,2.719l.645-3.341s.93,7.158,0,9.947-2.24,9.907-2.24,9.907,8.784,4.833,20.566.373c0,0,2.033-19.483,1.289-24.038.766,3.266.912,4.5,1.519,7.088,2.043.312,4.766-1.241,6.223-3.718,0,0-2.33-13.4-5.511-15.46-2.486-1.613-10.412-3.25-10.412-3.25Z" transform="translate(-128.76 -288.9)" fill="#97f4ec"/>
        </g>
        <g id="Grupo_1076195" data-name="Grupo 1076195" transform="translate(55.34 222.957)">
          <path id="Trazado_825172" data-name="Trazado 825172" d="M151.748,275.754c0,1.458-1.2,3.078-1.727,4.384-1.037,2.577-2.926,4.525-5,4.525a5.157,5.157,0,0,1-3.843-2.369c-1.339-1.764-1.462-4.355-1.462-6.749,0-4.332,1.537-7.244,5.384-7.244C148.223,268.3,151.748,270.229,151.748,275.754Z" transform="translate(-139.721 -268.301)" fill="#73c8f0"/>
        </g>
        <g id="Grupo_1076196" data-name="Grupo 1076196" transform="translate(57.709 235.436)">
          <path id="Trazado_825173" data-name="Trazado 825173" d="M149.9,291.079c-2.236,1.3-5.026,1.517-6.669.615a1.183,1.183,0,0,1-.57-1.188,28.957,28.957,0,0,0-.092-6.7l6.626-.491a14.407,14.407,0,0,0,1.407,5.5A1.713,1.713,0,0,1,149.9,291.079Z" transform="translate(-142.572 -283.318)" fill="#73c8f0"/>
        </g>
        <g id="Grupo_1076197" data-name="Grupo 1076197" transform="translate(43.121 250.77)">
          <path id="Trazado_825174" data-name="Trazado 825174" d="M134.5,308.923l-6.886-1.058a3.065,3.065,0,0,1-2.564-3.494h0a3.065,3.065,0,0,1,3.494-2.564l6.886,1.058Z" transform="translate(-125.017 -301.771)" fill="#5046af"/>
        </g>
        <g id="Grupo_1076198" data-name="Grupo 1076198" transform="translate(74.874 250.265)">
          <path id="Trazado_825175" data-name="Trazado 825175" d="M163.227,302.95l6.758-1.7a3.065,3.065,0,0,1,3.718,2.227h0a3.064,3.064,0,0,1-2.227,3.718l-6.758,1.694Z" transform="translate(-163.227 -301.162)" fill="#5046af"/>
        </g>
        <g id="Grupo_1076199" data-name="Grupo 1076199" transform="translate(71.311 253.298)">
          <rect id="Rectángulo_383593" data-name="Rectángulo 383593" width="4.251" height="1.059" transform="translate(0 1.173) rotate(-16.015)" fill="#5046af"/>
        </g>
        <g id="Grupo_1076200" data-name="Grupo 1076200" transform="translate(72.077 255.382)">
          <rect id="Rectángulo_383594" data-name="Rectángulo 383594" width="4.251" height="1.059" transform="translate(0 1.173) rotate(-16.015)" fill="#5046af"/>
        </g>
        <g id="Grupo_1076201" data-name="Grupo 1076201" transform="translate(68.268 335.201)">
          <path id="Trazado_825176" data-name="Trazado 825176" d="M155.516,405.125a1,1,0,0,1,.987-.552c1.156.086,3.635.49,5.182-.668a2.957,2.957,0,0,1,2.279-.483c2.369.408,6.658,1.264,7.24,4.857a37.9,37.9,0,0,1-8.688.107c-2.93-.459-7.228-1.512-7.228-1.512A3.6,3.6,0,0,1,155.516,405.125Z" transform="translate(-155.278 -403.372)" fill="#73c8f0"/>
        </g>
        <g id="Grupo_1076202" data-name="Grupo 1076202" transform="translate(57.897 236.86)">
          <path id="Trazado_825177" data-name="Trazado 825177" d="M142.847,287.971a3.809,3.809,0,0,0,2.038.649c1.8,0,3.45-1.479,4.536-3.554l0-.034a5.019,5.019,0,0,1-3.868,2.46,4.267,4.267,0,0,1-2.75-1.193Q142.845,287.149,142.847,287.971Z" transform="translate(-142.798 -285.032)" fill="#41b4e6"/>
        </g>
        <g id="Grupo_1076203" data-name="Grupo 1076203" transform="translate(64.863 227.148)">
          <path id="Trazado_825178" data-name="Trazado 825178" d="M153.958,278.073h-1.6a1.175,1.175,0,0,1-1.174-1.174v-3.553h2.777Z" transform="translate(-151.181 -273.345)" fill="#0091c8"/>
        </g>
        <g id="Grupo_1076204" data-name="Grupo 1076204" transform="translate(65.585 229.866)">
          <path id="Trazado_825179" data-name="Trazado 825179" d="M154.079,278.914c-.112,1.195-.686,2.053-1.276,2s-.838-1.035-.727-2.23.681-2.119,1.272-2.063S154.191,277.719,154.079,278.914Z" transform="translate(-152.05 -276.615)" fill="#73c8f0"/>
        </g>
        <g id="Grupo_1076205" data-name="Grupo 1076205" transform="translate(55.648 222.699)">
          <path id="Trazado_825180" data-name="Trazado 825180" d="M151.582,274.313h-8.07a3.421,3.421,0,0,1-3.421-3.421h0a2.9,2.9,0,0,1,2.9-2.9h5.942a2.648,2.648,0,0,1,2.648,2.648Z" transform="translate(-140.091 -267.991)" fill="#0091c8"/>
        </g>
        <g id="Grupo_1076219" data-name="Grupo 1076219" transform="translate(220.284 174.992)">
          <path id="Trazado_825181" data-name="Trazado 825181" d="M366.5,237.057a62.993,62.993,0,0,0-8.192-2.175c-1.355-1.571-6.631-6.523-10.605-10.64a5.247,5.247,0,0,1-1.047-2.6c-.216-1.92-.392-5.087-.93-4.836-.568.265-.722,1.856-.753,2.379a.376.376,0,0,1-.555.315c-.22-.122-.484-.258-.751-.376h0s-3.613-2.161-3.931-1.627c-.166.279,1.477,1.63,2.171,2.184-.044.086-.091.171-.13.258-1.16-.435-3.107-1.1-3.272-.695-.139.34,2.329,1.648,2.864,1.926-.024.1-.048.205-.067.306-1.206-.319-2.965-.713-3.084-.324-.1.332,2.213,1.325,2.936,1.626,0,.025,0,.054,0,.079a1.353,1.353,0,0,0,.022.184c-1.134-.06-2.38-.066-2.4.189s2.44.778,3.116.912a1.437,1.437,0,0,0,.168.1l2.912,1.227s5.782,11.773,10.624,13.955c.035-.017,11.737,3.769,11.737,3.769Z" transform="translate(-338.211 -211.631)" fill="#73c8f0"/>
          <g id="Grupo_1076211" data-name="Grupo 1076211" transform="translate(34.134)">
            <g id="Grupo_1076206" data-name="Grupo 1076206" transform="translate(1.08 0.524)">
              <path id="Trazado_825182" data-name="Trazado 825182" d="M386.156,211.3c2.3-.464,6.718.778,6.788,4.95s-.5,10.89-4.314,11.951c-2.14.594-4.789.028-5.993-1.708-.944-1.361-1.233-3.715-1.442-4.681C380.444,218.33,379.155,212.718,386.156,211.3Z" transform="translate(-380.587 -211.212)" fill="#73c8f0"/>
            </g>
            <g id="Grupo_1076207" data-name="Grupo 1076207" transform="translate(4.316 14.97)">
              <path id="Trazado_825183" data-name="Trazado 825183" d="M386.037,228.6l-1.556,5.94a5.672,5.672,0,0,0,3.96,1.768c2.192-.141,5.485-2.478,5.485-2.478s-2.333-2.9-2.333-5.091Z" transform="translate(-384.481 -228.596)" fill="#73c8f0"/>
            </g>
            <g id="Grupo_1076208" data-name="Grupo 1076208">
              <path id="Trazado_825184" data-name="Trazado 825184" d="M379.289,217.138s-.35-7.248,7.126-6.5a17.477,17.477,0,0,1,4.639.861c3.079,1.436,3.3,3.536,2.972,7.008-.417,4.406-3.281,7.547-2.339,8.7h-3.349a2.971,2.971,0,0,1-2.884-2.1,8.451,8.451,0,0,1-.252-3.545c0-.376.376-3.843-1.981-3.044A3.664,3.664,0,0,1,379.289,217.138Z" transform="translate(-379.287 -210.581)" fill="#0091c8"/>
            </g>
            <g id="Grupo_1076209" data-name="Grupo 1076209" transform="translate(3.708 7.37)">
              <path id="Trazado_825185" data-name="Trazado 825185" d="M383.749,221.566c0,1.168.642,2.116,1.434,2.116s1.434-.947,1.434-2.116-.642-2.116-1.434-2.116S383.749,220.4,383.749,221.566Z" transform="translate(-383.749 -219.45)" fill="#73c8f0"/>
            </g>
            <g id="Grupo_1076210" data-name="Grupo 1076210" transform="translate(0.936 9.94)">
              <path id="Trazado_825186" data-name="Trazado 825186" d="M381.04,222.543l-.607,2.045a.468.468,0,0,0,.427.6l1.748.079Z" transform="translate(-380.413 -222.543)" fill="#73c8f0"/>
            </g>
          </g>
          <path id="Trazado_825187" data-name="Trazado 825187" d="M404.271,280.757l-.617-3.444s7.445-12.471,6.552-18.284c-.037-.022-3.579-13.174-3.579-13.174l-5.2,4.471a69.561,69.561,0,0,0,2.923,8.919c-.641,2.205-2.058,10.093-3.484,16.267a5.82,5.82,0,0,1-1.782,2.54c-1.653,1.359-4.487,3.433-3.93,3.78.588.367,2.159-.449,2.664-.736a.417.417,0,0,1,.627.326c.019.278.053.6.1.923h0s.173,4.659.86,4.633c.36-.014.623-2.355.718-3.333.106-.011.214-.019.318-.035.295,1.34.856,3.547,1.328,3.457.4-.076.126-3.157.062-3.822.11-.04.219-.079.324-.121.43,1.312,1.127,3.184,1.559,3.06.37-.106-.1-2.854-.261-3.707l.076-.043a1.481,1.481,0,0,0,.157-.132c.629,1.089,1.374,2.25,1.625,2.119s-.75-2.734-1.033-3.444A1.926,1.926,0,0,0,404.271,280.757Z" transform="translate(-347.822 -216.543)" fill="#73c8f0"/>
          <g id="Grupo_1076212" data-name="Grupo 1076212" transform="translate(17.212 86.954)">
            <path id="Trazado_825188" data-name="Trazado 825188" d="M358.924,318.06a7.436,7.436,0,0,0,5.717,1.261,8.484,8.484,0,0,0,0-4.1H359.3A1.79,1.79,0,0,1,358.924,318.06Z" transform="translate(-358.924 -315.22)" fill="#c8e6eb"/>
          </g>
          <g id="Grupo_1076213" data-name="Grupo 1076213" transform="translate(8.452 89.005)">
            <path id="Trazado_825189" data-name="Trazado 825189" d="M364.355,319.473a1.02,1.02,0,0,0-1.005-.562c-1.177.087-3.7.5-5.276-.681a3.009,3.009,0,0,0-2.32-.491c-2.412.415-6.778,1.287-7.371,4.945,0,0,5.087-.09,8.76-.324a49.23,49.23,0,0,0,7.443-1.106A3.652,3.652,0,0,0,364.355,319.473Z" transform="translate(-348.382 -317.688)" fill="#73c8f0"/>
          </g>
          <g id="Grupo_1076214" data-name="Grupo 1076214" transform="translate(16.558 52.877)">
            <path id="Trazado_825190" data-name="Trazado 825190" d="M374.043,276.077c-10.6-2.49-15.906-4.025-15.906,5.791,0,8.738.361,26.284.361,26.284.667,1.119,5.181,1.7,6.406,1.158,0,0,1.476-17.138,1.887-24.35,7.859.5,18.59,3.872,18.59,3.872Z" transform="translate(-358.137 -274.212)" fill="#41378c"/>
          </g>
          <g id="Grupo_1076215" data-name="Grupo 1076215" transform="translate(49.01 112.599)">
            <path id="Trazado_825191" data-name="Trazado 825191" d="M397.189,348.838l6.38,1.343a5.332,5.332,0,0,0,0-4.1h-5.342C398.583,347.261,398.711,348.131,397.189,348.838Z" transform="translate(-397.189 -346.08)" fill="#c8e6eb"/>
          </g>
          <g id="Grupo_1076216" data-name="Grupo 1076216" transform="translate(41.561 54.741)">
            <path id="Trazado_825192" data-name="Trazado 825192" d="M397.707,276.456c4.429,18.576,2.919,19.282,3.473,29.082.492,8.725,1.792,29.377,1.792,29.377-1.276,1.537-5.034,1.231-6.969.263,0,0-3-20.859-3.336-24.872-.277-3.311-4.441-24.909-4.441-24.909Z" transform="translate(-388.225 -276.456)" fill="#41378c"/>
          </g>
          <g id="Grupo_1076217" data-name="Grupo 1076217" transform="translate(33.134 52.252)">
            <path id="Trazado_825193" data-name="Trazado 825193" d="M378.084,276.4l.1-1.866,17.312-1.078v3.784l-8.141,10.382-2.746-1Z" transform="translate(-378.084 -273.46)" fill="#41378c"/>
          </g>
          <g id="Grupo_1076218" data-name="Grupo 1076218" transform="translate(40.52 114.65)">
            <path id="Trazado_825194" data-name="Trazado 825194" d="M402.945,350.333a1.02,1.02,0,0,0-1.005-.562c-1.177.087-3.7.5-5.276-.681a3.009,3.009,0,0,0-2.32-.491c-2.412.416-6.778,1.287-7.371,4.945,0,0,4.678,0,8.933-.324a72.279,72.279,0,0,0,7.271-1.106A3.654,3.654,0,0,0,402.945,350.333Z" transform="translate(-386.972 -348.548)" fill="#73c8f0"/>
          </g>
          <path id="Trazado_825195" data-name="Trazado 825195" d="M397.06,235.3a9.547,9.547,0,0,0-1.5-.679c0,.012-.008.022-.012.035-.522-.169-1.08-.329-1.678-.474a32.766,32.766,0,0,0-12.472-.514l-1.323.193s-3.159,1.506-5.726,2.861v.093c-2.937,1.979-6.878,2.2-11.21.181-.932,2.135-1.7,5.853-.491,8.141,4.782,2.067,9.5,2.5,12.334,1.045l.047-.032c.336,3.645.666,6.866.649,6.753.044,1.349.943,5.592.693,9.746a23.829,23.829,0,0,1-1.669,6.514s8.592,12.4,20.5,8.783c0,0,1.363-18.938.337-29.161.66,2.51.887,3.758,1.516,6.051,2.09.241,4.8-1.442,6.192-4.016C403.25,250.818,400.374,237.276,397.06,235.3Z" transform="translate(-342.236 -214.42)" fill="#97f4ec"/>
        </g>
        <g id="Grupo_1076224" data-name="Grupo 1076224" transform="translate(203.258 246.096)">
          <g id="Grupo_1076222" data-name="Grupo 1076222" transform="translate(0 1.038)">
            <g id="Grupo_1076220" data-name="Grupo 1076220">
              <path id="Trazado_825196" data-name="Trazado 825196" d="M322.188,388.691l28.929-86.87a.313.313,0,0,1,.068-.125v-4.3a4.478,4.478,0,0,0-4.088,3.088l-29.375,88.208Z" transform="translate(-317.722 -297.395)" fill="#41b4e6"/>
            </g>
            <g id="Grupo_1076221" data-name="Grupo 1076221" transform="translate(34.411 0.047)">
              <path id="Trazado_825197" data-name="Trazado 825197" d="M396.513,388.7l-33.885-88.4a4.478,4.478,0,0,0-3.5-2.851v5.566L391.974,388.7h4.539Z" transform="translate(-359.131 -297.452)" fill="#73c8f0"/>
            </g>
          </g>
          <g id="Grupo_1076223" data-name="Grupo 1076223" transform="translate(31.581)">
            <path id="Trazado_825198" data-name="Trazado 825198" d="M360.343,300.51c0,2.41-1.034,4.364-2.308,4.364s-2.309-1.954-2.309-4.364,1.034-4.364,2.309-4.364S360.343,298.1,360.343,300.51Z" transform="translate(-355.726 -296.146)" fill="#41b4e6"/>
          </g>
        </g>
      </g>
    </g>
  </g>
</svg>
