<svg xmlns="http://www.w3.org/2000/svg" width="610" height="360" viewBox="0 0 610 360">
  <g id="Grupo_1076286" data-name="Grupo 1076286" transform="translate(-705 -15962)">
    <rect id="Rectángulo_383219" data-name="Rectángulo 383219" width="610" height="360" transform="translate(705 15962)" fill="#fff"/>
    <g id="Grupo_1075506" data-name="Grupo 1075506" transform="translate(-57 -597)">
      <rect id="Rectángulo_383229" data-name="Rectángulo 383229" width="190" height="56" rx="7" transform="translate(1017 16599)" fill="#273a89"/>
      <rect id="Rectángulo_383235" data-name="Rectángulo 383235" width="90" height="30" rx="7" transform="translate(877 16636)" fill="#1682fb"/>
      <rect id="Rectángulo_383236" data-name="Rectángulo 383236" width="90" height="30" rx="7" transform="translate(841 16827)" fill="#1682fb"/>
      <path id="Trazado_825286" data-name="Trazado 825286" d="M3.109,10.688,2.469,15H.57l1.7-11.375H6.633a3.688,3.688,0,0,1,2.77.984,2.846,2.846,0,0,1,.723,2.547A3.894,3.894,0,0,1,8.68,9.75a4.879,4.879,0,0,1-3.1.938Zm.234-1.523H5.8a2.372,2.372,0,0,0,1.645-.57,2.337,2.337,0,0,0,.77-1.422A1.837,1.837,0,0,0,7.91,5.711a1.8,1.8,0,0,0-1.5-.562H3.945ZM12.586,15h-1.9l1.266-8.453h1.9ZM14.164,4.477h-1.9l.25-1.664h1.9Zm8.547,6.578a5.559,5.559,0,0,1-1.316,3.012,3.372,3.372,0,0,1-2.582,1.1,2.621,2.621,0,0,1-1.223-.27,2.17,2.17,0,0,1-.848-.793l-.617,4.148h-1.9l1.75-11.7h1.6l.031,1.063A3.475,3.475,0,0,1,18.723,6.7,3.024,3.024,0,0,1,20.1,6.391a2.367,2.367,0,0,1,2.211,1.254,5.026,5.026,0,0,1,.422,3.246Zm-1.867-.164a3.886,3.886,0,0,0-.168-2.145,1.34,1.34,0,0,0-1.34-.8,2.03,2.03,0,0,0-1.027.262,2.543,2.543,0,0,0-.793.723l-.57,3.8a1.437,1.437,0,0,0,.57.684,1.837,1.837,0,0,0,.984.238,1.913,1.913,0,0,0,1.535-.727,3.769,3.769,0,0,0,.785-1.867Zm6.492,4.273a3.179,3.179,0,0,1-2.687-1.18,3.807,3.807,0,0,1-.625-3.016l.047-.312a5.254,5.254,0,0,1,1.5-3.1,3.965,3.965,0,0,1,2.875-1.164,2.714,2.714,0,0,1,2.383,1.063,3.75,3.75,0,0,1,.492,2.8l-.148,1.023H25.883a2.657,2.657,0,0,0,.32,1.738,1.629,1.629,0,0,0,1.469.637,4.573,4.573,0,0,0,1.359-.191,4.488,4.488,0,0,0,1.141-.535l.43,1.242a4.833,4.833,0,0,1-1.387.711A5.749,5.749,0,0,1,27.336,15.164Zm.883-7.25a1.707,1.707,0,0,0-1.242.539A3.136,3.136,0,0,0,26.2,9.836l.016.047H29.5l.023-.148a1.946,1.946,0,0,0-.18-1.332A1.22,1.22,0,0,0,28.219,7.914Zm9.039,4.773A.763.763,0,0,0,37,11.961a3.327,3.327,0,0,0-1.332-.508,4.965,4.965,0,0,1-2.156-.9,1.643,1.643,0,0,1-.57-1.594,2.67,2.67,0,0,1,1.148-1.836,4.07,4.07,0,0,1,2.477-.734,3.26,3.26,0,0,1,2.3.781,1.958,1.958,0,0,1,.656,1.867l-.016.047H37.68A1.054,1.054,0,0,0,37.4,8.18a1.36,1.36,0,0,0-1.035-.367,1.748,1.748,0,0,0-1.078.316,1.138,1.138,0,0,0-.484.762.713.713,0,0,0,.238.7,3.357,3.357,0,0,0,1.324.453,4.915,4.915,0,0,1,2.215.918,1.7,1.7,0,0,1,.559,1.621,2.634,2.634,0,0,1-1.2,1.887,4.507,4.507,0,0,1-2.586.7,3.333,3.333,0,0,1-2.445-.855,2.069,2.069,0,0,1-.672-1.926l.016-.047h1.773a1.1,1.1,0,0,0,.383,1.07,1.917,1.917,0,0,0,1.172.336,2.093,2.093,0,0,0,1.156-.293A1.054,1.054,0,0,0,37.258,12.688ZM49.547,15a5.4,5.4,0,0,1-.074-.613,4.5,4.5,0,0,1,0-.621,4.13,4.13,0,0,1-1.176,1,2.937,2.937,0,0,1-1.488.4,2.453,2.453,0,0,1-1.9-.687,2.136,2.136,0,0,1-.449-1.859,2.618,2.618,0,0,1,1.246-1.934,5.324,5.324,0,0,1,2.84-.66h1.477l.109-.742a1.232,1.232,0,0,0-.227-1.051,1.38,1.38,0,0,0-1.07-.363,1.816,1.816,0,0,0-1.07.313,1.126,1.126,0,0,0-.508.8l-1.82.008-.016-.047a2.492,2.492,0,0,1,1.156-1.793,4.344,4.344,0,0,1,2.594-.754,3.173,3.173,0,0,1,2.246.758A2.3,2.3,0,0,1,52.031,9.3l-.57,3.758a7.212,7.212,0,0,0-.078,1.016,5.062,5.062,0,0,0,.086.93ZM47.43,13.641a2.636,2.636,0,0,0,1.328-.367,2.3,2.3,0,0,0,.9-.828l.188-1.234H48.336a2.162,2.162,0,0,0-1.344.414,1.5,1.5,0,0,0-.633.961.857.857,0,0,0,.2.777A1.188,1.188,0,0,0,47.43,13.641ZM56.07,7.719a3.722,3.722,0,0,1,1.2-.98,3.179,3.179,0,0,1,1.469-.348,2.268,2.268,0,0,1,1.91.82,3.305,3.305,0,0,1,.387,2.531L60.242,15h-1.9l.789-5.242a1.9,1.9,0,0,0-.168-1.418,1.344,1.344,0,0,0-1.105-.395,2.36,2.36,0,0,0-1.07.238,2.516,2.516,0,0,0-.828.668L55.039,15h-1.9l1.266-8.453h1.734Zm6.414,3.172a6.375,6.375,0,0,1,1.352-3.3,3.32,3.32,0,0,1,2.625-1.2,2.276,2.276,0,0,1,1.172.293,2.368,2.368,0,0,1,.828.832l.711-4.7h1.9L69.242,15H67.7l-.062-1.07a3.549,3.549,0,0,1-1.125.918,3.017,3.017,0,0,1-1.383.316,2.447,2.447,0,0,1-2.219-1.145,4.232,4.232,0,0,1-.453-2.965Zm1.875.164a3.122,3.122,0,0,0,.16,1.887,1.356,1.356,0,0,0,1.332.676,2.067,2.067,0,0,0,1.039-.262,2.506,2.506,0,0,0,.8-.746l.555-3.672a1.608,1.608,0,0,0-.578-.73,1.665,1.665,0,0,0-.961-.262,1.832,1.832,0,0,0-1.535.828,4.672,4.672,0,0,0-.793,2.117Zm18.313-.906H78.086L77.359,15h-1.9l1.7-11.375h7.281l-.227,1.523H78.828l-.516,3.477H82.9ZM86.148,15h-1.9l1.266-8.453h1.9ZM87.727,4.477h-1.9l.25-1.664h1.9ZM90.3,15H88.4L90.227,2.813h1.9ZM96.43,4.492l-.312,2.055h1.516l-.211,1.406H95.906l-.7,4.672a.894.894,0,0,0,.1.758.75.75,0,0,0,.578.211,1.766,1.766,0,0,0,.3-.027,2.062,2.062,0,0,0,.3-.074l-.008,1.391a2.432,2.432,0,0,1-.6.207,3.322,3.322,0,0,1-.7.074,1.888,1.888,0,0,1-1.535-.621,2.375,2.375,0,0,1-.324-1.918l.7-4.672H92.727l.211-1.406h1.289l.313-2.055Zm5.031,10.672a3.179,3.179,0,0,1-2.687-1.18,3.807,3.807,0,0,1-.625-3.016l.047-.312a5.254,5.254,0,0,1,1.5-3.1,3.965,3.965,0,0,1,2.875-1.164,2.714,2.714,0,0,1,2.383,1.063,3.75,3.75,0,0,1,.492,2.8l-.148,1.023h-5.289a2.657,2.657,0,0,0,.32,1.738,1.629,1.629,0,0,0,1.469.637,4.573,4.573,0,0,0,1.359-.191,4.488,4.488,0,0,0,1.141-.535l.43,1.242a4.833,4.833,0,0,1-1.387.711A5.749,5.749,0,0,1,101.461,15.164Zm.883-7.25a1.707,1.707,0,0,0-1.242.539,3.136,3.136,0,0,0-.781,1.383l.016.047h3.289l.023-.148a1.946,1.946,0,0,0-.18-1.332A1.22,1.22,0,0,0,102.344,7.914Zm9.148.344-.8-.031a1.809,1.809,0,0,0-.949.246,2.088,2.088,0,0,0-.691.691L108.172,15h-1.9l1.266-8.453h1.734l-.055,1.2a3.255,3.255,0,0,1,.969-1,2.213,2.213,0,0,1,1.219-.355,1.788,1.788,0,0,1,.316.027,1.943,1.943,0,0,1,.27.066ZM117,12.688a.763.763,0,0,0-.262-.727,3.327,3.327,0,0,0-1.332-.508,4.965,4.965,0,0,1-2.156-.9,1.643,1.643,0,0,1-.57-1.594,2.67,2.67,0,0,1,1.148-1.836,4.07,4.07,0,0,1,2.477-.734,3.26,3.26,0,0,1,2.3.781,1.958,1.958,0,0,1,.656,1.867l-.016.047h-1.828a1.054,1.054,0,0,0-.277-.906,1.36,1.36,0,0,0-1.035-.367,1.748,1.748,0,0,0-1.078.316,1.138,1.138,0,0,0-.484.762.713.713,0,0,0,.238.7,3.357,3.357,0,0,0,1.324.453,4.915,4.915,0,0,1,2.215.918,1.7,1.7,0,0,1,.559,1.621,2.634,2.634,0,0,1-1.2,1.887,4.507,4.507,0,0,1-2.586.7,3.333,3.333,0,0,1-2.445-.855,2.069,2.069,0,0,1-.672-1.926l.016-.047h1.773a1.1,1.1,0,0,0,.383,1.07,1.917,1.917,0,0,0,1.172.336,2.093,2.093,0,0,0,1.156-.293A1.054,1.054,0,0,0,117,12.688ZM1.039,34.383a12.079,12.079,0,0,1,.473-3.391,9.85,9.85,0,0,1,1.41-2.953,6,6,0,0,1,1.945-1.875l.3.953a6.222,6.222,0,0,0-1.871,2.672,11.583,11.583,0,0,0-.8,4.023l-.008.664a11.643,11.643,0,0,0,1.1,5.234,6.252,6.252,0,0,0,1.578,2.078l-.3.883a6.192,6.192,0,0,1-1.984-1.937A10.859,10.859,0,0,1,1.039,34.383ZM8.523,28.5v2.047H10.1v1.117H8.523v5.249a1.173,1.173,0,0,0,.211.763.888.888,0,0,0,.719.254,3.5,3.5,0,0,0,.688-.094V39a4.215,4.215,0,0,1-1.109.155A1.8,1.8,0,0,1,7.57,38.57a2.517,2.517,0,0,1-.492-1.664V31.664H5.539V30.547H7.078V28.5Zm8.484,9.664a3.07,3.07,0,0,1-2.477.992,2.628,2.628,0,0,1-2.059-.785,3.4,3.4,0,0,1-.715-2.324v-5.5H13.2v5.461q0,1.922,1.563,1.922a2.163,2.163,0,0,0,2.2-1.234V30.547h1.445V39H17.039Zm10.758-3.3a5.026,5.026,0,0,1-.891,3.113,2.846,2.846,0,0,1-2.391,1.176,2.947,2.947,0,0,1-2.477-1.133l-.07.977H20.609V27h1.445v4.477a2.93,2.93,0,0,1,2.414-1.086,2.863,2.863,0,0,1,2.418,1.164,5.177,5.177,0,0,1,.879,3.188ZM26.32,34.7a3.906,3.906,0,0,0-.57-2.281,1.888,1.888,0,0,0-1.641-.8,2.122,2.122,0,0,0-2.055,1.328V36.6a2.181,2.181,0,0,0,2.07,1.328,1.878,1.878,0,0,0,1.617-.8A4.153,4.153,0,0,0,26.32,34.7Zm6.773,4.453a3.693,3.693,0,0,1-2.8-1.129,4.19,4.19,0,0,1-1.078-3.02v-.266A5.073,5.073,0,0,1,29.7,32.5a3.748,3.748,0,0,1,1.344-1.547,3.378,3.378,0,0,1,1.871-.559,3.166,3.166,0,0,1,2.563,1.086,4.7,4.7,0,0,1,.914,3.109v.6H30.664a3,3,0,0,0,.73,2.02,2.3,2.3,0,0,0,1.777.77,2.517,2.517,0,0,0,1.3-.312,3.258,3.258,0,0,0,.93-.828l.883.688A3.55,3.55,0,0,1,33.094,39.156Zm-.18-7.578a1.928,1.928,0,0,0-1.469.637A3.1,3.1,0,0,0,30.711,34h4.234v-.109a2.753,2.753,0,0,0-.594-1.707A1.815,1.815,0,0,0,32.914,31.578Zm9.234.266a4.331,4.331,0,0,0-.711-.055A1.9,1.9,0,0,0,39.508,33v6H38.063V30.547h1.406l.023.977a2.251,2.251,0,0,1,2.016-1.133,1.477,1.477,0,0,1,.641.109ZM45.047,39H43.594V30.547h1.453Zm.016-11.977h1.75l-2.094,2.3-1.164,0ZM52.648,39a3.036,3.036,0,0,1-.2-.891,3.225,3.225,0,0,1-2.406,1.047,2.984,2.984,0,0,1-2.051-.707,2.287,2.287,0,0,1-.8-1.793,2.39,2.39,0,0,1,1-2.051,4.733,4.733,0,0,1,2.824-.73h1.406v-.664A1.623,1.623,0,0,0,51.969,32a1.821,1.821,0,0,0-1.336-.449,2.107,2.107,0,0,0-1.3.391,1.151,1.151,0,0,0-.523.945H47.359a2,2,0,0,1,.449-1.223,3.066,3.066,0,0,1,1.219-.934,4.1,4.1,0,0,1,1.691-.344,3.342,3.342,0,0,1,2.289.73,2.635,2.635,0,0,1,.859,2.012v3.891a4.757,4.757,0,0,0,.3,1.852V39Zm-2.4-1.1a2.54,2.54,0,0,0,1.289-.352,2.127,2.127,0,0,0,.883-.914V34.9H51.289q-2.656,0-2.656,1.555a1.316,1.316,0,0,0,.453,1.063A1.742,1.742,0,0,0,50.25,37.9Zm10.8-1.141a1.064,1.064,0,0,0-.441-.91,4.249,4.249,0,0,0-1.539-.559,7.277,7.277,0,0,1-1.742-.562,2.479,2.479,0,0,1-.953-.781,1.869,1.869,0,0,1-.309-1.078,2.193,2.193,0,0,1,.879-1.758,3.432,3.432,0,0,1,2.246-.719,3.532,3.532,0,0,1,2.332.742,2.357,2.357,0,0,1,.895,1.9H60.969a1.3,1.3,0,0,0-.5-1.023,1.888,1.888,0,0,0-1.27-.43,1.976,1.976,0,0,0-1.234.344,1.082,1.082,0,0,0-.445.9.877.877,0,0,0,.414.789,5.1,5.1,0,0,0,1.5.508,7.8,7.8,0,0,1,1.754.578,2.558,2.558,0,0,1,1,.809,1.988,1.988,0,0,1,.324,1.152,2.163,2.163,0,0,1-.906,1.816,3.8,3.8,0,0,1-2.352.684,4.257,4.257,0,0,1-1.8-.359,2.922,2.922,0,0,1-1.223-1,2.42,2.42,0,0,1-.441-1.395h1.445a1.5,1.5,0,0,0,.582,1.152,2.258,2.258,0,0,0,1.434.426,2.331,2.331,0,0,0,1.316-.332A1.02,1.02,0,0,0,61.055,36.758Zm10.055.125,1.969-6.336h1.547l-3.4,9.758q-.789,2.109-2.508,2.109l-.273-.023-.539-.1V41.117l.391.031a1.923,1.923,0,0,0,1.145-.3,2.149,2.149,0,0,0,.676-1.086l.32-.859-3.016-8.359H69ZM80.359,39V31.664H79.023V30.547h1.336v-.719a2.937,2.937,0,0,1,.809-2.2,3.136,3.136,0,0,1,2.285-.789,6.881,6.881,0,0,1,2.211.477l-.242,1.219a5.008,5.008,0,0,0-1.859-.391,1.819,1.819,0,0,0-1.34.418,1.723,1.723,0,0,0-.41,1.254v.734h1.727v1.117H81.813V39Zm6.023,0H84.93V30.547h1.453ZM90.3,39H88.859V27H90.3Zm4.273-10.5v2.047h1.578v1.117H94.578v5.249a1.173,1.173,0,0,0,.211.763.888.888,0,0,0,.719.254,3.5,3.5,0,0,0,.688-.094V39a4.215,4.215,0,0,1-1.109.155,1.8,1.8,0,0,1-1.461-.586,2.517,2.517,0,0,1-.492-1.664V31.664H91.594V30.547h1.539V28.5Zm7.352,3.344a4.331,4.331,0,0,0-.711-.055A1.9,1.9,0,0,0,99.289,33v6H97.844V30.547H99.25l.023.977a2.251,2.251,0,0,1,2.016-1.133,1.477,1.477,0,0,1,.641.109Zm.789,2.852a4.993,4.993,0,0,1,.488-2.234,3.643,3.643,0,0,1,1.359-1.531,3.7,3.7,0,0,1,1.988-.539,3.565,3.565,0,0,1,2.793,1.2,4.6,4.6,0,0,1,1.066,3.18v.1a5.036,5.036,0,0,1-.473,2.215,3.589,3.589,0,0,1-1.352,1.527,3.743,3.743,0,0,1-2.02.547,3.556,3.556,0,0,1-2.785-1.2,4.575,4.575,0,0,1-1.066-3.164Zm1.453.172a3.616,3.616,0,0,0,.652,2.258,2.211,2.211,0,0,0,3.5-.012,3.955,3.955,0,0,0,.648-2.418,3.61,3.61,0,0,0-.66-2.254,2.1,2.1,0,0,0-1.754-.863,2.075,2.075,0,0,0-1.727.852A3.925,3.925,0,0,0,104.172,34.867Zm12.977,1.891a1.064,1.064,0,0,0-.441-.91,4.249,4.249,0,0,0-1.539-.559,7.277,7.277,0,0,1-1.742-.562,2.479,2.479,0,0,1-.953-.781,1.869,1.869,0,0,1-.309-1.078,2.193,2.193,0,0,1,.879-1.758,3.432,3.432,0,0,1,2.246-.719,3.532,3.532,0,0,1,2.332.742,2.357,2.357,0,0,1,.895,1.9h-1.453a1.3,1.3,0,0,0-.5-1.023,1.888,1.888,0,0,0-1.27-.43,1.976,1.976,0,0,0-1.234.344,1.082,1.082,0,0,0-.445.9.877.877,0,0,0,.414.789,5.1,5.1,0,0,0,1.5.508,7.8,7.8,0,0,1,1.754.578,2.558,2.558,0,0,1,1,.809,1.988,1.988,0,0,1,.324,1.152,2.163,2.163,0,0,1-.906,1.816,3.8,3.8,0,0,1-2.352.684,4.257,4.257,0,0,1-1.8-.359,2.922,2.922,0,0,1-1.223-1,2.42,2.42,0,0,1-.441-1.395h1.445a1.5,1.5,0,0,0,.582,1.152,2.258,2.258,0,0,0,1.434.426,2.331,2.331,0,0,0,1.316-.332A1.02,1.02,0,0,0,117.148,36.758Zm6.664-2.3a12.085,12.085,0,0,1-.457,3.34,9.876,9.876,0,0,1-1.4,2.949,6.127,6.127,0,0,1-1.973,1.922l-.3-.883a6.281,6.281,0,0,0,1.934-2.863,12.387,12.387,0,0,0,.746-4.309v-.25a12.861,12.861,0,0,0-.344-3.051,10.3,10.3,0,0,0-.957-2.527,5.838,5.838,0,0,0-1.379-1.742l.3-.883a6.1,6.1,0,0,1,1.965,1.906,9.9,9.9,0,0,1,1.4,2.945A12.363,12.363,0,0,1,123.813,34.461Z" transform="translate(1044.855 16605.65)" fill="#fff"/>
      <path id="Trazado_825288" data-name="Trazado 825288" d="M3.281,10.875,2.688,15H.406L2.055,3.625H6.406A3.943,3.943,0,0,1,9.324,4.633,2.935,2.935,0,0,1,10.1,7.258,3.947,3.947,0,0,1,8.59,9.9a5.125,5.125,0,0,1-3.23.977Zm.258-1.758h2.07a2.1,2.1,0,0,0,2.2-1.844A1.74,1.74,0,0,0,7.52,5.91a1.633,1.633,0,0,0-1.371-.527H4.078ZM12.766,15H10.484l1.227-8.453h2.281ZM14.281,4.523H12l.25-1.711h2.281Zm8.563,6.484a5.586,5.586,0,0,1-1.3,3.035,3.351,3.351,0,0,1-2.586,1.121,2.354,2.354,0,0,1-1.129-.254,2.107,2.107,0,0,1-.785-.746l-.594,4.086H14.172l1.7-11.7h2.055l-.008,1a3.327,3.327,0,0,1,1.023-.855,2.687,2.687,0,0,1,1.273-.3,2.384,2.384,0,0,1,2.234,1.234,5,5,0,0,1,.422,3.219Zm-2.258-.164a3.941,3.941,0,0,0-.113-1.949,1.089,1.089,0,0,0-1.113-.73,1.83,1.83,0,0,0-.9.219A2.028,2.028,0,0,0,17.781,9l-.531,3.688a1.167,1.167,0,0,0,.5.539,1.75,1.75,0,0,0,.859.188,1.555,1.555,0,0,0,1.3-.656,3.738,3.738,0,0,0,.652-1.75Zm6.773,4.32A3.361,3.361,0,0,1,24.566,14a3.71,3.71,0,0,1-.668-2.98l.047-.312a5.35,5.35,0,0,1,1.48-3.129,4.072,4.072,0,0,1,3.012-1.184,2.829,2.829,0,0,1,2.438,1.047,3.7,3.7,0,0,1,.523,2.8l-.172,1.18H26.18l-.016.039a1.957,1.957,0,0,0,.32,1.418,1.6,1.6,0,0,0,1.359.535,4.993,4.993,0,0,0,1.266-.141,9.4,9.4,0,0,0,1.2-.422l.352,1.438a5.365,5.365,0,0,1-1.418.617A6.622,6.622,0,0,1,27.359,15.164Zm.82-7.016a1.462,1.462,0,0,0-1.109.473,2.765,2.765,0,0,0-.641,1.246l.016.047h2.766l.031-.172A1.857,1.857,0,0,0,29.1,8.566.973.973,0,0,0,28.18,8.148Zm8.8,4.508a.665.665,0,0,0-.27-.645,3.385,3.385,0,0,0-1.285-.473,4.649,4.649,0,0,1-2.125-.9,1.721,1.721,0,0,1-.547-1.633,2.747,2.747,0,0,1,1.18-1.863,4.2,4.2,0,0,1,2.563-.754,3.565,3.565,0,0,1,2.441.77,1.95,1.95,0,0,1,.676,1.9l-.016.047h-2.2a1.018,1.018,0,0,0-.215-.832,1.143,1.143,0,0,0-.9-.316,1.458,1.458,0,0,0-.9.273.994.994,0,0,0-.418.672.658.658,0,0,0,.242.641,3.3,3.3,0,0,0,1.289.438,4.721,4.721,0,0,1,2.184.918A1.784,1.784,0,0,1,39.2,12.57a2.67,2.67,0,0,1-1.238,1.879,4.719,4.719,0,0,1-2.684.715,3.458,3.458,0,0,1-2.527-.863,2.086,2.086,0,0,1-.684-1.941l.023-.047H34.18a1.041,1.041,0,0,0,.309.984,1.648,1.648,0,0,0,1.059.3,1.741,1.741,0,0,0,.992-.254A.969.969,0,0,0,36.977,12.656Z" transform="translate(866 16833.301)" fill="#fff"/>
      <rect id="Rectángulo_383228" data-name="Rectángulo 383228" width="51" height="36" rx="5" transform="translate(882 16726)" fill="#7fae21"/>
      <rect id="Rectángulo_383232" data-name="Rectángulo 383232" width="51" height="36" rx="5" transform="translate(1073 16726)" fill="#7fae21"/>
      <rect id="Rectángulo_383233" data-name="Rectángulo 383233" width="51" height="36" rx="5" transform="translate(1203 16726)" fill="#7fae21"/>
      <rect id="Rectángulo_383234" data-name="Rectángulo 383234" width="51" height="36" rx="5" transform="translate(1203 16775)" fill="#7fae21"/>
      <rect id="Rectángulo_383230" data-name="Rectángulo 383230" width="51" height="36" rx="5" transform="translate(964 16690)" fill="#7fae21"/>
      <rect id="Rectángulo_383231" data-name="Rectángulo 383231" width="51" height="36" rx="5" transform="translate(964 16762)" fill="#7fae21"/>
      <line id="Línea_348" data-name="Línea 348" x2="41" transform="translate(833.5 16744.5)" fill="none" stroke="#273a89" stroke-linecap="round" stroke-width="2"/>
      <line id="Línea_351" data-name="Línea 351" x2="18" transform="translate(934.5 16744.5)" fill="none" stroke="#273a89" stroke-linecap="round" stroke-width="2"/>
      <line id="Línea_353" data-name="Línea 353" x2="32" transform="translate(1017 16708)" fill="none" stroke="#273a89" stroke-linecap="round" stroke-width="2"/>
      <line id="Línea_354" data-name="Línea 354" x2="32" transform="translate(1017 16780)" fill="none" stroke="#273a89" stroke-linecap="round" stroke-width="2"/>
      <line id="Línea_355" data-name="Línea 355" x2="20" transform="translate(1049 16738)" fill="none" stroke="#273a89" stroke-linecap="round" stroke-width="2"/>
      <line id="Línea_370" data-name="Línea 370" x2="20" transform="translate(1258 16744)" fill="none" stroke="#273a89" stroke-linecap="round" stroke-width="2"/>
      <line id="Línea_371" data-name="Línea 371" x2="20" transform="translate(1258 16792)" fill="none" stroke="#273a89" stroke-linecap="round" stroke-width="2"/>
      <line id="Línea_369" data-name="Línea 369" x2="14" transform="translate(1254 16804)" fill="none" stroke="#273a89" stroke-linecap="round" stroke-width="2"/>
      <line id="Línea_367" data-name="Línea 367" x2="61" transform="translate(1128 16738)" fill="none" stroke="#273a89" stroke-linecap="round" stroke-width="2"/>
      <line id="Línea_368" data-name="Línea 368" x2="61" transform="translate(1128 16752)" fill="none" stroke="#273a89" stroke-linecap="round" stroke-width="2"/>
      <line id="Línea_356" data-name="Línea 356" x2="172" transform="translate(1017 16792)" fill="none" stroke="#273a89" stroke-linecap="round" stroke-width="2"/>
      <line id="Línea_357" data-name="Línea 357" x2="324" transform="translate(944 16822)" fill="none" stroke="#273a89" stroke-linecap="round" stroke-width="2"/>
      <line id="Línea_358" data-name="Línea 358" x2="20" transform="translate(1049 16753)" fill="none" stroke="#273a89" stroke-linecap="round" stroke-width="2"/>
      <line id="Línea_352" data-name="Línea 352" x2="18" transform="translate(934.5 16755.5)" fill="none" stroke="#273a89" stroke-linecap="round" stroke-width="2"/>
      <line id="Línea_359" data-name="Línea 359" x2="16" transform="translate(943.5 16796)" fill="none" stroke="#273a89" stroke-linecap="round" stroke-width="2"/>
      <line id="Línea_374" data-name="Línea 374" x2="63" transform="translate(874 16782)" fill="none" stroke="#ffb41e" stroke-linecap="round" stroke-width="2"/>
      <line id="Línea_377" data-name="Línea 377" y2="48.199" transform="translate(892 16666.5)" fill="none" stroke="#ffb41e" stroke-linecap="round" stroke-width="2"/>
      <line id="Línea_379" data-name="Línea 379" y2="25" transform="translate(1002 16654.5)" fill="none" stroke="#ffb41e" stroke-linecap="round" stroke-width="2"/>
      <line id="Línea_376" data-name="Línea 376" x2="33" transform="translate(898 16798)" fill="none" stroke="#ffb41e" stroke-linecap="round" stroke-width="2"/>
      <line id="Línea_378" data-name="Línea 378" x2="33" transform="translate(969 16654)" fill="none" stroke="#ffb41e" stroke-linecap="round" stroke-width="2"/>
      <line id="Línea_360" data-name="Línea 360" x2="7" transform="translate(953.5 16708.5)" fill="none" stroke="#273a89" stroke-linecap="round" stroke-width="2"/>
      <line id="Línea_361" data-name="Línea 361" x2="7" transform="translate(953.5 16781.5)" fill="none" stroke="#273a89" stroke-linecap="round" stroke-width="2"/>
      <path id="Polígono_46" data-name="Polígono 46" d="M6,0l6,10H0Z" transform="translate(879 16738) rotate(90)" fill="#273a89"/>
      <path id="Polígono_49" data-name="Polígono 49" d="M6,0l6,10H0Z" transform="translate(969 16702) rotate(90)" fill="#273a89"/>
      <path id="Polígono_52" data-name="Polígono 52" d="M6,0l6,10H0Z" transform="translate(1078 16732) rotate(90)" fill="#273a89"/>
      <path id="Polígono_57" data-name="Polígono 57" d="M6,0l6,10H0Z" transform="translate(1287 16738) rotate(90)" fill="#273a89"/>
      <path id="Polígono_58" data-name="Polígono 58" d="M6,0l6,10H0Z" transform="translate(1287 16786) rotate(90)" fill="#273a89"/>
      <path id="Polígono_54" data-name="Polígono 54" d="M6,0l6,10H0Z" transform="translate(1198 16732) rotate(90)" fill="#273a89"/>
      <path id="Polígono_55" data-name="Polígono 55" d="M6,0l6,10H0Z" transform="translate(1198 16746) rotate(90)" fill="#273a89"/>
      <path id="Polígono_56" data-name="Polígono 56" d="M6,0l6,10H0Z" transform="translate(1199 16786) rotate(90)" fill="#273a89"/>
      <path id="Polígono_53" data-name="Polígono 53" d="M6,0l6,10H0Z" transform="translate(1078 16747) rotate(90)" fill="#273a89"/>
      <path id="Polígono_50" data-name="Polígono 50" d="M6,0l6,10H0Z" transform="translate(969 16775) rotate(90)" fill="#273a89"/>
      <path id="Polígono_59" data-name="Polígono 59" d="M6,0l6,10H0Z" transform="translate(943 16776) rotate(90)" fill="#ffb41e"/>
      <path id="Polígono_61" data-name="Polígono 61" d="M6,0l6,10H0Z" transform="translate(898 16720.699) rotate(180)" fill="#ffb41e"/>
      <path id="Polígono_62" data-name="Polígono 62" d="M6,0l6,10H0Z" transform="translate(1008 16687.5) rotate(180)" fill="#ffb41e"/>
      <path id="Polígono_60" data-name="Polígono 60" d="M6,0l6,10H0Z" transform="translate(938 16792) rotate(90)" fill="#ffb41e"/>
      <path id="Polígono_51" data-name="Polígono 51" d="M6,0l6,10H0Z" transform="translate(969 16790) rotate(90)" fill="#273a89"/>
      <line id="Línea_362" data-name="Línea 362" y1="36" transform="translate(952.5 16708.5)" fill="none" stroke="#273a89" stroke-linecap="round" stroke-width="2"/>
      <line id="Línea_363" data-name="Línea 363" y1="29" transform="translate(1049 16708.5)" fill="none" stroke="#273a89" stroke-linecap="round" stroke-width="2"/>
      <line id="Línea_364" data-name="Línea 364" y1="27" transform="translate(1049 16753)" fill="none" stroke="#273a89" stroke-linecap="round" stroke-width="2"/>
      <line id="Línea_365" data-name="Línea 365" y1="26" transform="translate(952.5 16755.5)" fill="none" stroke="#273a89" stroke-linecap="round" stroke-width="2"/>
      <line id="Línea_366" data-name="Línea 366" y1="26" transform="translate(943.5 16796)" fill="none" stroke="#273a89" stroke-linecap="round" stroke-width="2"/>
      <line id="Línea_373" data-name="Línea 373" y1="39.5" transform="translate(873.5 16782.5)" fill="none" stroke="#ffb41e" stroke-linecap="round" stroke-width="2"/>
      <line id="Línea_375" data-name="Línea 375" y1="23.5" transform="translate(897.5 16798.5)" fill="none" stroke="#ffb41e" stroke-linecap="round" stroke-width="2"/>
      <line id="Línea_372" data-name="Línea 372" y1="18" transform="translate(1268 16804)" fill="none" stroke="#273a89" stroke-linecap="round" stroke-width="2"/>
      <path id="Trazado_825287" data-name="Trazado 825287" d="M7.75,10.273H3.367L2.688,15H.406L2.055,3.625H9.508L9.25,5.383H4.078L3.625,8.516H8ZM11.477,15H9.2l1.227-8.453H12.7ZM12.992,4.523H10.711l.25-1.711h2.281ZM15.75,15H13.469L15.234,2.813h2.281ZM21.844,4.477l-.3,2.07h1.43l-.234,1.6H21.313l-.625,4.3a.887.887,0,0,0,.1.711.65.65,0,0,0,.52.2,2.284,2.284,0,0,0,.313-.02,2.514,2.514,0,0,0,.313-.066l-.047,1.648a5.04,5.04,0,0,1-.7.176,4.184,4.184,0,0,1-.719.059,2.116,2.116,0,0,1-1.711-.656,2.538,2.538,0,0,1-.352-2.047l.625-4.312H17.8l.234-1.6h1.227l.3-2.07ZM26.8,15.164A3.361,3.361,0,0,1,24.012,14a3.71,3.71,0,0,1-.668-2.98l.047-.312a5.35,5.35,0,0,1,1.48-3.129,4.072,4.072,0,0,1,3.012-1.184A2.829,2.829,0,0,1,30.32,7.438a3.7,3.7,0,0,1,.523,2.8l-.172,1.18H25.625l-.016.039a1.957,1.957,0,0,0,.32,1.418,1.6,1.6,0,0,0,1.359.535,4.993,4.993,0,0,0,1.266-.141,9.4,9.4,0,0,0,1.2-.422l.352,1.438a5.365,5.365,0,0,1-1.418.617A6.622,6.622,0,0,1,26.8,15.164Zm.82-7.016a1.462,1.462,0,0,0-1.109.473,2.765,2.765,0,0,0-.641,1.246l.016.047h2.766l.031-.172a1.857,1.857,0,0,0-.141-1.176A.973.973,0,0,0,27.625,8.148Zm9.242.359-.828-.023a1.642,1.642,0,0,0-.863.219,1.722,1.722,0,0,0-.6.617L33.758,15H31.484l1.227-8.453h2.117L34.75,7.789a3.168,3.168,0,0,1,.914-1.035,1.971,1.971,0,0,1,1.148-.363,1.659,1.659,0,0,1,.309.027q.145.027.285.066Zm5.188,4.148a.665.665,0,0,0-.27-.645,3.385,3.385,0,0,0-1.285-.473,4.649,4.649,0,0,1-2.125-.9,1.721,1.721,0,0,1-.547-1.633,2.747,2.747,0,0,1,1.18-1.863,4.2,4.2,0,0,1,2.563-.754,3.565,3.565,0,0,1,2.441.77,1.95,1.95,0,0,1,.676,1.9l-.016.047h-2.2a1.018,1.018,0,0,0-.215-.832,1.143,1.143,0,0,0-.9-.316,1.458,1.458,0,0,0-.9.273.994.994,0,0,0-.418.672.658.658,0,0,0,.242.641,3.3,3.3,0,0,0,1.289.438,4.721,4.721,0,0,1,2.184.918,1.784,1.784,0,0,1,.535,1.668,2.67,2.67,0,0,1-1.238,1.879,4.719,4.719,0,0,1-2.684.715,3.458,3.458,0,0,1-2.527-.863,2.086,2.086,0,0,1-.684-1.941l.023-.047h2.086a1.041,1.041,0,0,0,.309.984,1.648,1.648,0,0,0,1.059.3,1.741,1.741,0,0,0,.992-.254A.969.969,0,0,0,42.055,12.656Z" transform="translate(901.5 16642.301)" fill="#fff"/>
    </g>
  </g>
</svg>
