<svg xmlns="http://www.w3.org/2000/svg" width="400" height="314.396" viewBox="0 0 400 314.396">
  <g id="OBJECTS" transform="translate(-27.1 -27.3)">
    <g id="Grupo_1076089" data-name="Grupo 1076089" transform="translate(27.1 27.3)">
      <g id="Grupo_1076027" data-name="Grupo 1076027" transform="translate(0 91.492)" opacity="0.61">
        <g id="Grupo_1076026" data-name="Grupo 1076026">
          <path id="Trazado_824933" data-name="Trazado 824933" d="M128.832,119.315l1.861,157.457a3.575,3.575,0,0,1-3.515,3.618l-94.6,1.137a3.575,3.575,0,0,1-3.619-3.515L27.1,120.556a3.575,3.575,0,0,1,3.515-3.619l94.6-1.137A3.643,3.643,0,0,1,128.832,119.315Z" transform="translate(-27.1 -115.795)" fill="#6d6cd4" opacity="0.74"/>
          <g id="Grupo_1076025" data-name="Grupo 1076025" transform="translate(0.414)">
            <path id="Trazado_824934" data-name="Trazado 824934" d="M129.128,119.315l.1,9.3L27.6,129.861l-.1-9.511a3.354,3.354,0,0,1,3.308-3.412l94.7-1.137A3.447,3.447,0,0,1,129.128,119.315Z" transform="translate(-27.5 -115.795)" fill="#3e479b"/>
          </g>
        </g>
        <path id="Trazado_824935" data-name="Trazado 824935" d="M34.268,125.035a2.068,2.068,0,1,1,2.068-2.068A2.074,2.074,0,0,1,34.268,125.035Zm0-3.412a1.241,1.241,0,1,0,1.241,1.241A1.257,1.257,0,0,0,34.268,121.624Z" transform="translate(-26.927 -115.622)" fill="#fff"/>
        <path id="Trazado_824936" data-name="Trazado 824936" d="M41.068,124.935a2.068,2.068,0,1,1,2.068-2.068A2.074,2.074,0,0,1,41.068,124.935Zm0-3.308a1.241,1.241,0,1,0,1.241,1.241A1.257,1.257,0,0,0,41.068,121.627Z" transform="translate(-26.697 -115.626)" fill="#fff"/>
        <path id="Trazado_824937" data-name="Trazado 824937" d="M47.668,124.935a2.068,2.068,0,1,1,2.068-2.068A2.074,2.074,0,0,1,47.668,124.935Zm-.1-3.412a1.241,1.241,0,1,0,1.241,1.241A1.257,1.257,0,0,0,47.564,121.524Z" transform="translate(-26.474 -115.626)" fill="#fff"/>
        <path id="Trazado_824938" data-name="Trazado 824938" d="M82.964,143.451l-46.937.414a.827.827,0,0,1,0-1.654l46.937-.31a.889.889,0,0,1,.827.827A.737.737,0,0,1,82.964,143.451Z" transform="translate(-26.826 -114.911)" fill="#fff"/>
        <path id="Trazado_824939" data-name="Trazado 824939" d="M96.945,143.354l-9.718.1a.827.827,0,1,1,0-1.654l9.718-.1a.889.889,0,0,1,.827.827A.815.815,0,0,1,96.945,143.354Z" transform="translate(-25.092 -114.918)" fill="#3e479b"/>
        <path id="Trazado_824940" data-name="Trazado 824940" d="M83.264,181.254l-46.937.31a.827.827,0,0,1,0-1.654l46.937-.31a.889.889,0,0,1,.827.827A.815.815,0,0,1,83.264,181.254Z" transform="translate(-26.816 -113.635)" fill="#fff"/>
        <path id="Trazado_824941" data-name="Trazado 824941" d="M97.245,181.154l-9.718.1a.827.827,0,1,1,0-1.654l9.718-.1a.827.827,0,1,1,0,1.654Z" transform="translate(-25.082 -113.638)" fill="#599af2"/>
        <path id="Trazado_824942" data-name="Trazado 824942" d="M83.164,161.554l-46.937.31a.827.827,0,0,1,0-1.654l46.937-.31a.889.889,0,0,1,.827.827C83.991,161.141,83.578,161.451,83.164,161.554Z" transform="translate(-26.819 -114.302)" fill="#599af2"/>
        <path id="Trazado_824943" data-name="Trazado 824943" d="M97.045,161.354l-9.718.1a.827.827,0,0,1,0-1.654l9.718-.1a.889.889,0,0,1,.827.827A.761.761,0,0,1,97.045,161.354Z" transform="translate(-25.089 -114.309)" fill="#fff"/>
        <path id="Trazado_824944" data-name="Trazado 824944" d="M112.545,161.254l-9.718.1a.827.827,0,1,1,0-1.654l9.718-.1a.889.889,0,0,1,.827.827A.815.815,0,0,1,112.545,161.254Z" transform="translate(-24.564 -114.312)" fill="#3e479b"/>
        <path id="Trazado_824945" data-name="Trazado 824945" d="M67.353,152.454l-31.326.207a.827.827,0,0,1,0-1.654l31.326-.207a.889.889,0,0,1,.827.827A.761.761,0,0,1,67.353,152.454Z" transform="translate(-26.826 -114.61)" fill="#3e479b"/>
        <path id="Trazado_824946" data-name="Trazado 824946" d="M85.677,152.354l-13.75.1a.827.827,0,0,1,0-1.654l13.75-.1a.889.889,0,0,1,.827.827A.815.815,0,0,1,85.677,152.354Z" transform="translate(-25.61 -114.613)" fill="#f7a9b4"/>
        <path id="Trazado_824947" data-name="Trazado 824947" d="M86.453,171.354l-31.326.207a.827.827,0,0,1,0-1.654l31.326-.207a.889.889,0,0,1,.827.827C87.28,170.941,86.867,171.251,86.453,171.354Z" transform="translate(-26.179 -113.97)" fill="#3e479b"/>
        <path id="Trazado_824948" data-name="Trazado 824948" d="M49.977,171.554l-13.75.1a.827.827,0,0,1,0-1.654l13.75-.1a.889.889,0,0,1,.827.827A.815.815,0,0,1,49.977,171.554Z" transform="translate(-26.819 -113.963)" fill="#f7a9b4"/>
        <path id="Trazado_824949" data-name="Trazado 824949" d="M83.364,193.954l-46.937.31a.827.827,0,0,1,0-1.654l46.937-.31a.889.889,0,0,1,.827.827A.815.815,0,0,1,83.364,193.954Z" transform="translate(-26.812 -113.205)" fill="#f7a9b4"/>
        <path id="Trazado_824950" data-name="Trazado 824950" d="M97.345,193.854l-9.718.1a.827.827,0,0,1,0-1.654l9.718-.1a.827.827,0,0,1,0,1.654Z" transform="translate(-25.079 -113.208)" fill="#3e479b"/>
        <path id="Trazado_824951" data-name="Trazado 824951" d="M83.668,231.651l-47.041.414a.827.827,0,1,1,0-1.654l46.937-.31a.889.889,0,0,1,.827.827C84.495,231.341,84.081,231.651,83.668,231.651Z" transform="translate(-26.805 -111.925)" fill="#fff"/>
        <path id="Trazado_824952" data-name="Trazado 824952" d="M97.545,231.554l-9.718.1a.827.827,0,1,1,0-1.654l9.718-.1a.889.889,0,0,1,.827.827A.815.815,0,0,1,97.545,231.554Z" transform="translate(-25.072 -111.932)" fill="#599af2"/>
        <path id="Trazado_824953" data-name="Trazado 824953" d="M83.464,211.954l-46.937.31a.827.827,0,1,1,0-1.654l46.937-.31a.889.889,0,0,1,.827.827A.815.815,0,0,1,83.464,211.954Z" transform="translate(-26.809 -112.595)" fill="#599af2"/>
        <path id="Trazado_824954" data-name="Trazado 824954" d="M97.445,211.854l-9.718.1a.827.827,0,1,1,0-1.654l9.718-.1a.827.827,0,1,1,0,1.654Z" transform="translate(-25.075 -112.599)" fill="#fff"/>
        <path id="Trazado_824955" data-name="Trazado 824955" d="M112.945,211.754l-9.718.1a.827.827,0,1,1,0-1.654l9.718-.1a.889.889,0,0,1,.827.827A.815.815,0,0,1,112.945,211.754Z" transform="translate(-24.55 -112.602)" fill="#3e479b"/>
        <path id="Trazado_824956" data-name="Trazado 824956" d="M67.753,202.954l-31.326.207a.827.827,0,1,1,0-1.654l31.326-.207a.889.889,0,0,1,.827.827A.815.815,0,0,1,67.753,202.954Z" transform="translate(-26.812 -112.9)" fill="#3e479b"/>
        <path id="Trazado_824957" data-name="Trazado 824957" d="M86.077,202.754l-13.75.1a.827.827,0,1,1,0-1.654l13.75-.1a.889.889,0,0,1,.827.827A.815.815,0,0,1,86.077,202.754Z" transform="translate(-25.597 -112.907)" fill="#f7a9b4"/>
        <path id="Trazado_824958" data-name="Trazado 824958" d="M86.753,221.754l-31.326.207a.827.827,0,1,1,0-1.654l31.326-.207a.889.889,0,0,1,.827.827A.815.815,0,0,1,86.753,221.754Z" transform="translate(-26.169 -112.264)" fill="#3e479b"/>
        <path id="Trazado_824959" data-name="Trazado 824959" d="M50.377,222.054l-13.75.1a.827.827,0,1,1,0-1.654l13.75-.1a.827.827,0,0,1,0,1.654Z" transform="translate(-26.805 -112.253)" fill="#f7a9b4"/>
        <path id="Trazado_824960" data-name="Trazado 824960" d="M83.764,243.354l-46.937.31a.827.827,0,1,1,0-1.654l46.937-.31a.827.827,0,0,1,0,1.654Z" transform="translate(-26.799 -111.532)" fill="#f7a9b4"/>
        <path id="Trazado_824961" data-name="Trazado 824961" d="M97.645,243.254l-9.718.1a.827.827,0,1,1,0-1.654l9.718-.1a.889.889,0,0,1,.827.827A.815.815,0,0,1,97.645,243.254Z" transform="translate(-25.068 -111.536)" fill="#3e479b"/>
        <path id="Trazado_824962" data-name="Trazado 824962" d="M97.845,267.054l-9.718.1a.827.827,0,0,1,0-1.654l9.718-.1a.889.889,0,0,1,.827.827A.815.815,0,0,1,97.845,267.054Z" transform="translate(-25.062 -110.73)" fill="#fff"/>
        <path id="Trazado_824963" data-name="Trazado 824963" d="M113.345,266.954l-9.718.1a.827.827,0,1,1,0-1.654l9.718-.1a.889.889,0,0,1,.827.827A.815.815,0,0,1,113.345,266.954Z" transform="translate(-24.537 -110.733)" fill="#3e479b"/>
        <path id="Trazado_824964" data-name="Trazado 824964" d="M68.153,252.354l-31.326.207a.827.827,0,0,1,0-1.654l31.326-.207a.827.827,0,1,1,0,1.654Z" transform="translate(-26.799 -111.228)" fill="#3e479b"/>
        <path id="Trazado_824965" data-name="Trazado 824965" d="M86.477,252.154l-13.75.1a.827.827,0,0,1,0-1.654l13.75-.1a.889.889,0,0,1,.827.827A.815.815,0,0,1,86.477,252.154Z" transform="translate(-25.583 -111.234)" fill="#f7a9b4"/>
      </g>
      <g id="Grupo_1076053" data-name="Grupo 1076053" transform="translate(87.258)">
        <g id="Grupo_1076037" data-name="Grupo 1076037">
          <g id="Grupo_1076036" data-name="Grupo 1076036">
            <g id="Grupo_1076035" data-name="Grupo 1076035">
              <g id="Grupo_1076034" data-name="Grupo 1076034">
                <g id="Grupo_1076029" data-name="Grupo 1076029">
                  <path id="Trazado_824966" data-name="Trazado 824966" d="M111.5,62.941l1.034,3.619V61.7Z" transform="translate(-111.5 -26.135)" fill="none"/>
                  <g id="Grupo_1076028" data-name="Grupo 1076028" transform="translate(0.103)">
                    <path id="Trazado_824967" data-name="Trazado 824967" d="M112.634,292.359V287.5l-1.034,3.619Z" transform="translate(-111.6 -18.49)" fill="none"/>
                    <path id="Trazado_824968" data-name="Trazado 824968" d="M112.5,42.084V315.333a14.775,14.775,0,0,0,14.784,14.784H254.035a14.751,14.751,0,0,0,14.784-14.784l-.1-273.146a15.043,15.043,0,0,0-5.273-11.372,14.757,14.757,0,0,0-9.511-3.515l-126.751.1A14.54,14.54,0,0,0,112.5,42.084Z" transform="translate(-111.57 -27.3)" fill="#4c65ba"/>
                    <path id="Trazado_824969" data-name="Trazado 824969" d="M113.6,47.06V311.418a14.414,14.414,0,0,0,9.512,13.44,13.933,13.933,0,0,0,5.169.93h125.1a14.989,14.989,0,0,0,8.271-2.481,14.229,14.229,0,0,0,6.307-11.786l-.1-264.254a14.267,14.267,0,0,0-5.169-10.959A14.878,14.878,0,0,0,253.274,33l-124.994.1A13.886,13.886,0,0,0,113.6,47.06Z" transform="translate(-111.532 -27.107)" fill="#3e479b"/>
                  </g>
                </g>
                <g id="Grupo_1076032" data-name="Grupo 1076032" transform="translate(9.201 37.938)">
                  <path id="Trazado_824970" data-name="Trazado 824970" d="M260.485,67.515l.1,219.488a3.486,3.486,0,0,1-3.515,3.515l-132.954.207a3.486,3.486,0,0,1-3.515-3.515l-.1-219.488a3.486,3.486,0,0,1,3.515-3.515L256.969,64A3.486,3.486,0,0,1,260.485,67.515Z" transform="translate(-120.397 -63.995)" fill="#fff"/>
                  <g id="Grupo_1076031" data-name="Grupo 1076031">
                    <path id="Trazado_824971" data-name="Trazado 824971" d="M260.488,67.515V81.783l-140.088.1V67.515a3.442,3.442,0,0,1,3.412-3.412L256.869,64A3.392,3.392,0,0,1,260.488,67.515Z" transform="translate(-120.4 -63.995)" fill="#599af2"/>
                    <g id="Grupo_1076030" data-name="Grupo 1076030" transform="translate(122.306 5.794)">
                      <path id="Trazado_824972" data-name="Trazado 824972" d="M239.217,70.634a.517.517,0,0,1,0-1.034h10.545a.517.517,0,0,1,0,1.034Z" transform="translate(-238.7 -69.6)" fill="#fff"/>
                      <path id="Trazado_824973" data-name="Trazado 824973" d="M239.217,73.234a.517.517,0,0,1,0-1.034h10.545a.517.517,0,0,1,0,1.034Z" transform="translate(-238.7 -69.512)" fill="#fff"/>
                      <path id="Trazado_824974" data-name="Trazado 824974" d="M239.217,75.834a.517.517,0,0,1,0-1.034h10.545a.517.517,0,0,1,0,1.034Z" transform="translate(-238.7 -69.424)" fill="#fff"/>
                    </g>
                    <path id="Trazado_824975" data-name="Trazado 824975" d="M132.746,77.7a.622.622,0,0,1-.414-.1l-3.825-3.825a.941.941,0,0,1,0-1.241l3.618-3.722a.512.512,0,1,1,.724.724l-3.515,3.515,3.722,3.722a.5.5,0,0,1,0,.724C132.953,77.7,132.85,77.7,132.746,77.7Z" transform="translate(-120.133 -63.838)" fill="#fff"/>
                  </g>
                </g>
                <path id="Trazado_824976" data-name="Trazado 824976" d="M188.425,51.551a3.825,3.825,0,1,1,0-7.651h0a3.825,3.825,0,0,1,0,7.651Zm0-6h0a2.171,2.171,0,1,0,0,4.342h0a2.171,2.171,0,1,0,0-4.342Z" transform="translate(-109.025 -26.738)" fill="#fff"/>
                <path id="Trazado_824977" data-name="Trazado 824977" d="M184.881,310a2.516,2.516,0,0,1-2.481-2.481v-7.237a2.516,2.516,0,0,1,2.481-2.481h7.237a2.516,2.516,0,0,1,2.481,2.481v7.237A2.516,2.516,0,0,1,192.118,310Zm7.237-10.959h-7.237a1.479,1.479,0,0,0-1.447,1.447v7.237a1.479,1.479,0,0,0,1.447,1.447h7.237a1.479,1.479,0,0,0,1.447-1.447v-7.237A1.554,1.554,0,0,0,192.118,299.041Z" transform="translate(-109.099 -18.141)" fill="#fff"/>
                <g id="Grupo_1076033" data-name="Grupo 1076033" transform="translate(31.946 281.003)">
                  <path id="Trazado_824978" data-name="Trazado 824978" d="M142.917,300.134a.517.517,0,1,1,0-1.034h6.927a.517.517,0,1,1,0,1.034Z" transform="translate(-142.4 -299.1)" fill="#fff"/>
                  <path id="Trazado_824979" data-name="Trazado 824979" d="M142.917,303.734a.517.517,0,1,1,0-1.034h6.927a.517.517,0,1,1,0,1.034Z" transform="translate(-142.4 -298.978)" fill="#fff"/>
                  <path id="Trazado_824980" data-name="Trazado 824980" d="M142.917,307.434a.517.517,0,0,1,0-1.034h6.927a.517.517,0,0,1,0,1.034Z" transform="translate(-142.4 -298.853)" fill="#fff"/>
                </g>
                <path id="Trazado_824981" data-name="Trazado 824981" d="M235.493,309.961a.622.622,0,0,1-.414-.1l-5.479-5.479,5.273-5.273a.512.512,0,1,1,.724.724l-4.549,4.549,4.756,4.756a.5.5,0,0,1,0,.724A.453.453,0,0,1,235.493,309.961Z" transform="translate(-107.501 -18.102)" fill="#fff"/>
              </g>
            </g>
          </g>
        </g>
        <g id="Grupo_1076038" data-name="Grupo 1076038" transform="translate(9.512 55.932)">
          <rect id="Rectángulo_383576" data-name="Rectángulo 383576" width="139.881" height="45.8" fill="#599af2" opacity="0.36"/>
          <path id="Trazado_824982" data-name="Trazado 824982" d="M183.393,101.672H133.147a1.413,1.413,0,0,1-1.447-1.447V91.747a1.413,1.413,0,0,1,1.447-1.447h50.246a1.413,1.413,0,0,1,1.447,1.447v8.478A1.413,1.413,0,0,1,183.393,101.672Z" transform="translate(-120.328 -81.099)" fill="#fff" opacity="0.43"/>
          <path id="Trazado_824983" data-name="Trazado 824983" d="M211,113.086h-77.85a1.413,1.413,0,0,1-1.447-1.447v-2.791a1.413,1.413,0,0,1,1.447-1.447H211a1.413,1.413,0,0,1,1.447,1.447v2.791A1.413,1.413,0,0,1,211,113.086Z" transform="translate(-120.328 -80.52)" fill="#fff" opacity="0.43"/>
          <path id="Trazado_824984" data-name="Trazado 824984" d="M239.649,112.7a10.649,10.649,0,1,1,0-21.3h0A10.59,10.59,0,0,1,250.3,102.049h0A10.59,10.59,0,0,1,239.649,112.7Zm0-19.437h0a8.441,8.441,0,0,0-6.1,2.585,8.685,8.685,0,0,0,6.1,14.784h0a8.829,8.829,0,0,0,8.684-8.684h0a8.829,8.829,0,0,0-8.684-8.684Z" transform="translate(-117.033 -81.061)" fill="#fff" opacity="0.43"/>
        </g>
        <g id="Grupo_1076052" data-name="Grupo 1076052" transform="translate(21.814 118.17)">
          <g id="Grupo_1076051" data-name="Grupo 1076051">
            <g id="Grupo_1076042" data-name="Grupo 1076042">
              <g id="Grupo_1076040" data-name="Grupo 1076040">
                <path id="Trazado_824985" data-name="Trazado 824985" d="M160.514,174.27H137.356a4.743,4.743,0,0,1-4.756-4.756V146.356a4.743,4.743,0,0,1,4.756-4.756h23.158a4.743,4.743,0,0,1,4.756,4.756v23.158A4.81,4.81,0,0,1,160.514,174.27Z" transform="translate(-132.6 -141.6)" fill="#4c65ba"/>
                <g id="Grupo_1076039" data-name="Grupo 1076039" transform="translate(9.305 9.512)" opacity="0.36">
                  <path id="Trazado_824986" data-name="Trazado 824986" d="M155.66,157.83a7.03,7.03,0,1,1-7.03-7.03A7.105,7.105,0,0,1,155.66,157.83Z" transform="translate(-141.6 -150.8)" fill="#599af2"/>
                </g>
              </g>
              <g id="Grupo_1076041" data-name="Grupo 1076041" transform="translate(37.219 5.273)" opacity="0.26">
                <path id="Trazado_824987" data-name="Trazado 824987" d="M189.137,152.49h-18.3a1.147,1.147,0,0,1-1.137-1.137v-3.515a1.147,1.147,0,0,1,1.137-1.137h18.3a1.147,1.147,0,0,1,1.137,1.137v3.515A1.147,1.147,0,0,1,189.137,152.49Z" transform="translate(-168.563 -146.7)" fill="#3e479b"/>
                <path id="Trazado_824988" data-name="Trazado 824988" d="M169.634,161.068a1.034,1.034,0,0,1,0-2.068h35.255a1.034,1.034,0,0,1,0,2.068Z" transform="translate(-168.6 -146.284)" fill="#3e479b"/>
                <path id="Trazado_824989" data-name="Trazado 824989" d="M169.634,168.168a1.034,1.034,0,1,1,0-2.068h57.483a1.034,1.034,0,1,1,0,2.068Z" transform="translate(-168.6 -146.043)" fill="#3e479b"/>
                <path id="Trazado_824990" data-name="Trazado 824990" d="M211.334,160.968a1.034,1.034,0,0,1,0-2.068h35.255a1.034,1.034,0,1,1,0,2.068Z" transform="translate(-167.188 -146.287)" fill="#3e479b"/>
              </g>
            </g>
            <g id="Grupo_1076047" data-name="Grupo 1076047" transform="translate(0 94.701)">
              <g id="Grupo_1076045" data-name="Grupo 1076045">
                <g id="Grupo_1076043" data-name="Grupo 1076043">
                  <path id="Trazado_824991" data-name="Trazado 824991" d="M160.514,265.87H137.356a4.743,4.743,0,0,1-4.756-4.756V237.956a4.743,4.743,0,0,1,4.756-4.756h23.158a4.743,4.743,0,0,1,4.756,4.756v23.158A4.743,4.743,0,0,1,160.514,265.87Z" transform="translate(-132.6 -233.2)" fill="#599af2"/>
                </g>
                <g id="Grupo_1076044" data-name="Grupo 1076044" transform="translate(9.305 9.512)" opacity="0.57">
                  <path id="Trazado_824992" data-name="Trazado 824992" d="M155.66,249.43a7.03,7.03,0,1,1-7.03-7.03A6.972,6.972,0,0,1,155.66,249.43Z" transform="translate(-141.6 -242.4)" fill="#3e479b"/>
                </g>
              </g>
              <g id="Grupo_1076046" data-name="Grupo 1076046" transform="translate(37.322 5.273)" opacity="0.26">
                <path id="Trazado_824993" data-name="Trazado 824993" d="M189.137,244.09h-18.3a1.147,1.147,0,0,1-1.137-1.137v-3.515a1.147,1.147,0,0,1,1.137-1.137h18.3a1.147,1.147,0,0,1,1.137,1.137v3.515A1.147,1.147,0,0,1,189.137,244.09Z" transform="translate(-168.666 -238.3)" fill="#3e479b"/>
                <path id="Trazado_824994" data-name="Trazado 824994" d="M169.734,252.668a1.034,1.034,0,0,1,0-2.068h35.255a1.034,1.034,0,0,1,0,2.068Z" transform="translate(-168.7 -237.883)" fill="#3e479b"/>
                <path id="Trazado_824995" data-name="Trazado 824995" d="M169.734,259.768a1.034,1.034,0,1,1,0-2.068h57.483a1.034,1.034,0,1,1,0,2.068Z" transform="translate(-168.7 -237.643)" fill="#3e479b"/>
                <path id="Trazado_824996" data-name="Trazado 824996" d="M211.434,252.668a1.034,1.034,0,0,1,0-2.068h35.255a1.034,1.034,0,0,1,0,2.068Z" transform="translate(-167.288 -237.883)" fill="#3e479b"/>
              </g>
            </g>
            <g id="Grupo_1076050" data-name="Grupo 1076050" transform="translate(0 47.247)">
              <g id="Grupo_1076048" data-name="Grupo 1076048">
                <path id="Trazado_824997" data-name="Trazado 824997" d="M160.514,219.97H137.356a4.743,4.743,0,0,1-4.756-4.756V192.056a4.743,4.743,0,0,1,4.756-4.756h23.158a4.743,4.743,0,0,1,4.756,4.756v23.158A4.743,4.743,0,0,1,160.514,219.97Z" transform="translate(-132.6 -187.3)" fill="#f7a9b4"/>
                <path id="Trazado_824998" data-name="Trazado 824998" d="M155.66,203.53a7.03,7.03,0,1,1-7.03-7.03A6.972,6.972,0,0,1,155.66,203.53Z" transform="translate(-132.295 -186.988)" fill="#fff" opacity="0.43"/>
              </g>
              <g id="Grupo_1076049" data-name="Grupo 1076049" transform="translate(37.219 5.273)" opacity="0.26">
                <path id="Trazado_824999" data-name="Trazado 824999" d="M189.137,198.19h-18.3a1.147,1.147,0,0,1-1.137-1.137v-3.515a1.147,1.147,0,0,1,1.137-1.137h18.3a1.147,1.147,0,0,1,1.137,1.137v3.515A1.147,1.147,0,0,1,189.137,198.19Z" transform="translate(-168.563 -192.4)" fill="#3e479b"/>
                <path id="Trazado_825000" data-name="Trazado 825000" d="M169.634,206.768a1.034,1.034,0,1,1,0-2.068h16.335a1.034,1.034,0,1,1,0,2.068Z" transform="translate(-168.6 -191.984)" fill="#3e479b"/>
                <path id="Trazado_825001" data-name="Trazado 825001" d="M169.634,213.868a1.034,1.034,0,0,1,0-2.068h33.5a1.034,1.034,0,0,1,0,2.068Z" transform="translate(-168.6 -191.743)" fill="#3e479b"/>
                <path id="Trazado_825002" data-name="Trazado 825002" d="M192.034,206.768a1.034,1.034,0,1,1,0-2.068H224.6a1.034,1.034,0,1,1,0,2.068Z" transform="translate(-167.842 -191.984)" fill="#3e479b"/>
                <path id="Trazado_825003" data-name="Trazado 825003" d="M229.434,206.668a1.034,1.034,0,0,1,0-2.068h16.335a1.034,1.034,0,1,1,0,2.068Z" transform="translate(-166.575 -191.987)" fill="#3e479b"/>
              </g>
            </g>
          </g>
        </g>
      </g>
      <g id="Grupo_1076073" data-name="Grupo 1076073" transform="translate(211.321 19.023)">
        <g id="Grupo_1076056" data-name="Grupo 1076056" transform="translate(58.206 176.062)">
          <g id="Grupo_1076055" data-name="Grupo 1076055">
            <path id="Trazado_825004" data-name="Trazado 825004" d="M361.1,219.515l1.344,111.347a3.575,3.575,0,0,1-3.515,3.618l-66.167.827a3.575,3.575,0,0,1-3.618-3.515L287.8,220.446a3.575,3.575,0,0,1,3.515-3.618L357.482,216A3.643,3.643,0,0,1,361.1,219.515Z" transform="translate(-287.8 -215.995)" fill="#fff" opacity="0.39"/>
            <path id="Trazado_825005" data-name="Trazado 825005" d="M361.1,219.515l1.344,111.347a3.575,3.575,0,0,1-3.515,3.618l-66.167.827a3.575,3.575,0,0,1-3.618-3.515L287.8,220.446a3.575,3.575,0,0,1,3.515-3.618L357.482,216A3.643,3.643,0,0,1,361.1,219.515Z" transform="translate(-287.8 -215.995)" fill="#f7a9b4" opacity="0.39"/>
            <g id="Grupo_1076054" data-name="Grupo 1076054" transform="translate(0.31)">
              <path id="Trazado_825006" data-name="Trazado 825006" d="M361.3,219.515l.1,5.686-73.2.93-.1-5.893a3.354,3.354,0,0,1,3.308-3.412l66.27-.827A3.509,3.509,0,0,1,361.3,219.515Z" transform="translate(-288.1 -215.996)" fill="#f7a9b4"/>
            </g>
          </g>
          <path id="Trazado_825007" data-name="Trazado 825007" d="M292.951,222.6a1.5,1.5,0,1,1,1.447-1.551A1.387,1.387,0,0,1,292.951,222.6Zm0-2.378a.93.93,0,1,0,.93.93A.927.927,0,0,0,292.951,220.22Z" transform="translate(-287.678 -215.873)" fill="#fff"/>
          <path id="Trazado_825008" data-name="Trazado 825008" d="M297.851,222.6a1.5,1.5,0,1,1,1.447-1.551A1.438,1.438,0,0,1,297.851,222.6Zm0-2.378a.93.93,0,1,0,.93.93A.868.868,0,0,0,297.851,220.22Z" transform="translate(-287.512 -215.873)" fill="#fff"/>
          <path id="Trazado_825009" data-name="Trazado 825009" d="M302.551,222.6A1.5,1.5,0,1,1,304,221.047,1.383,1.383,0,0,1,302.551,222.6Zm0-2.481a.93.93,0,1,0,.931.93A.927.927,0,0,0,302.551,220.117Z" transform="translate(-287.353 -215.873)" fill="#fff"/>
          <path id="Trazado_825010" data-name="Trazado 825010" d="M328.027,235.941l-33.807.207a.62.62,0,1,1,0-1.241l33.807-.207a.667.667,0,0,1,.62.62A.6.6,0,0,1,328.027,235.941Z" transform="translate(-287.604 -215.362)" fill="#fff"/>
          <path id="Trazado_825011" data-name="Trazado 825011" d="M338.151,235.841l-7.03.1a.62.62,0,0,1,0-1.241l7.03-.1a.667.667,0,0,1,.62.62C338.667,235.53,338.461,235.841,338.151,235.841Z" transform="translate(-286.354 -215.366)" fill="#fff"/>
          <path id="Trazado_825012" data-name="Trazado 825012" d="M328.227,263.141l-33.807.207a.62.62,0,0,1,0-1.241l33.807-.207a.667.667,0,0,1,.62.62A.6.6,0,0,1,328.227,263.141Z" transform="translate(-287.597 -214.441)" fill="#fff"/>
          <path id="Trazado_825013" data-name="Trazado 825013" d="M338.351,263.041l-7.03.1a.62.62,0,0,1,0-1.241l7.03-.1a.667.667,0,0,1,.62.62C338.867,262.73,338.661,263.041,338.351,263.041Z" transform="translate(-286.347 -214.445)" fill="#fff"/>
          <path id="Trazado_825014" data-name="Trazado 825014" d="M328.128,248.941l-33.807.207a.62.62,0,1,1,0-1.241l33.807-.207a.667.667,0,0,1,.62.62A.6.6,0,0,1,328.128,248.941Z" transform="translate(-287.6 -214.922)" fill="#fff"/>
          <path id="Trazado_825015" data-name="Trazado 825015" d="M338.251,248.841l-7.03.1a.62.62,0,0,1,0-1.241l7.03-.1a.667.667,0,0,1,.62.62C338.767,248.53,338.561,248.841,338.251,248.841Z" transform="translate(-286.351 -214.925)" fill="#fff"/>
          <path id="Trazado_825016" data-name="Trazado 825016" d="M349.351,248.741l-7.03.1a.62.62,0,0,1,0-1.241l7.03-.1a.667.667,0,0,1,.62.62A.6.6,0,0,1,349.351,248.741Z" transform="translate(-285.975 -214.929)" fill="#fff"/>
          <path id="Trazado_825017" data-name="Trazado 825017" d="M316.858,242.441l-22.538.207a.62.62,0,0,1,0-1.241l22.538-.207a.62.62,0,0,1,0,1.241Z" transform="translate(-287.6 -215.142)" fill="#fff"/>
          <path id="Trazado_825018" data-name="Trazado 825018" d="M330.045,242.341l-9.925.1a.62.62,0,0,1,0-1.241l9.925-.1a.667.667,0,0,1,.62.62C330.562,242.03,330.356,242.341,330.045,242.341Z" transform="translate(-286.727 -215.146)" fill="#fff"/>
          <path id="Trazado_825019" data-name="Trazado 825019" d="M330.558,255.941l-22.538.207a.62.62,0,0,1,0-1.241l22.538-.207a.667.667,0,0,1,.62.62A.6.6,0,0,1,330.558,255.941Z" transform="translate(-287.136 -214.685)" fill="#fff"/>
          <path id="Trazado_825020" data-name="Trazado 825020" d="M304.245,256.141l-9.925.1a.62.62,0,1,1,0-1.241l9.925-.1a.667.667,0,0,1,.62.62A.6.6,0,0,1,304.245,256.141Z" transform="translate(-287.6 -214.678)" fill="#fff"/>
          <path id="Trazado_825021" data-name="Trazado 825021" d="M328.328,272.241l-33.807.207a.62.62,0,1,1,0-1.241L328.328,271a.667.667,0,0,1,.62.62A.6.6,0,0,1,328.328,272.241Z" transform="translate(-287.593 -214.133)" fill="#fff"/>
          <path id="Trazado_825022" data-name="Trazado 825022" d="M338.351,272.141l-7.03.1a.62.62,0,0,1,0-1.241l7.03-.1a.667.667,0,0,1,.62.62A.6.6,0,0,1,338.351,272.141Z" transform="translate(-286.347 -214.137)" fill="#fff"/>
          <path id="Trazado_825023" data-name="Trazado 825023" d="M328.527,299.441l-33.807.207a.62.62,0,0,1,0-1.241l33.807-.207a.62.62,0,1,1,0,1.241Z" transform="translate(-287.587 -213.212)" fill="#fff"/>
          <path id="Trazado_825024" data-name="Trazado 825024" d="M338.551,299.341l-7.03.1a.62.62,0,0,1,0-1.241l7.03-.1a.667.667,0,0,1,.62.62A.6.6,0,0,1,338.551,299.341Z" transform="translate(-286.341 -213.216)" fill="#fff"/>
          <path id="Trazado_825025" data-name="Trazado 825025" d="M328.427,285.241l-33.807.207a.62.62,0,1,1,0-1.241L328.427,284a.62.62,0,1,1,0,1.241Z" transform="translate(-287.59 -213.693)" fill="#fff"/>
          <path id="Trazado_825026" data-name="Trazado 825026" d="M338.451,285.141l-7.03.1a.62.62,0,0,1,0-1.241l7.03-.1a.62.62,0,0,1,0,1.241Z" transform="translate(-286.344 -213.696)" fill="#fff"/>
          <path id="Trazado_825027" data-name="Trazado 825027" d="M349.651,285.041l-7.03.1a.62.62,0,0,1,0-1.241l7.03-.1a.667.667,0,0,1,.62.62A.6.6,0,0,1,349.651,285.041Z" transform="translate(-285.965 -213.7)" fill="#fff"/>
          <path id="Trazado_825028" data-name="Trazado 825028" d="M317.158,278.741l-22.538.207a.62.62,0,1,1,0-1.241l22.538-.207a.667.667,0,0,1,.62.62C317.675,278.43,317.469,278.741,317.158,278.741Z" transform="translate(-287.59 -213.913)" fill="#fff"/>
          <path id="Trazado_825029" data-name="Trazado 825029" d="M330.245,278.641l-9.925.1a.62.62,0,1,1,0-1.241l9.925-.1a.667.667,0,0,1,.62.62A.6.6,0,0,1,330.245,278.641Z" transform="translate(-286.72 -213.916)" fill="#fff"/>
          <path id="Trazado_825030" data-name="Trazado 825030" d="M330.758,292.241l-22.538.207a.62.62,0,1,1,0-1.241L330.758,291a.667.667,0,0,1,.62.62A.548.548,0,0,1,330.758,292.241Z" transform="translate(-287.13 -213.456)" fill="#fff"/>
          <path id="Trazado_825031" data-name="Trazado 825031" d="M304.545,292.441l-9.925.1a.62.62,0,1,1,0-1.241l9.925-.1a.667.667,0,0,1,.62.62A.6.6,0,0,1,304.545,292.441Z" transform="translate(-287.59 -213.449)" fill="#fff"/>
          <path id="Trazado_825032" data-name="Trazado 825032" d="M328.628,307.841l-33.807.207a.62.62,0,1,1,0-1.241l33.807-.207a.62.62,0,0,1,0,1.241Z" transform="translate(-287.583 -212.928)" fill="#fff"/>
          <path id="Trazado_825033" data-name="Trazado 825033" d="M338.651,307.741l-7.03.1a.62.62,0,0,1,0-1.241l7.03-.1a.62.62,0,0,1,0,1.241Z" transform="translate(-286.337 -212.931)" fill="#fff"/>
          <path id="Trazado_825034" data-name="Trazado 825034" d="M338.751,324.941l-7.03.1a.62.62,0,1,1,0-1.241l7.03-.1a.62.62,0,1,1,0,1.241Z" transform="translate(-286.334 -212.349)" fill="#fff"/>
          <path id="Trazado_825035" data-name="Trazado 825035" d="M349.951,324.841l-7.03.1a.62.62,0,1,1,0-1.241l7.03-.1a.62.62,0,0,1,0,1.241Z" transform="translate(-285.955 -212.352)" fill="#fff"/>
          <path id="Trazado_825036" data-name="Trazado 825036" d="M317.358,314.341l-22.538.207a.62.62,0,1,1,0-1.241l22.538-.207a.62.62,0,1,1,0,1.241Z" transform="translate(-287.583 -212.708)" fill="#fff"/>
          <path id="Trazado_825037" data-name="Trazado 825037" d="M330.545,314.241l-9.925.1a.62.62,0,0,1,0-1.241l9.925-.1a.62.62,0,1,1,0,1.241Z" transform="translate(-286.71 -212.711)" fill="#fff"/>
        </g>
        <g id="Grupo_1076066" data-name="Grupo 1076066" transform="translate(60.584)">
          <g id="Grupo_1076065" data-name="Grupo 1076065">
            <path id="Trazado_825038" data-name="Trazado 825038" d="M381.441,55.215l1.344,133.161a3.643,3.643,0,0,1-3.515,3.618l-79.607.827a3.643,3.643,0,0,1-3.618-3.515L294.7,56.146a3.643,3.643,0,0,1,3.515-3.619l79.607-.827A3.575,3.575,0,0,1,381.441,55.215Z" transform="translate(-289.944 -45.497)" fill="#3e479b" opacity="0.22"/>
            <path id="Trazado_825039" data-name="Trazado 825039" d="M376.841,49.215l1.344,133.161a3.643,3.643,0,0,1-3.515,3.618l-79.607.827a3.643,3.643,0,0,1-3.618-3.515L290.1,50.146a3.643,3.643,0,0,1,3.515-3.619l79.607-.827A3.644,3.644,0,0,1,376.841,49.215Z" transform="translate(-290.1 -45.7)" fill="#fff"/>
            <g id="Grupo_1076058" data-name="Grupo 1076058" transform="translate(0.31)">
              <path id="Trazado_825040" data-name="Trazado 825040" d="M377.141,49.215l.1,7.444-86.741.93-.1-7.651a3.376,3.376,0,0,1,3.412-3.412l79.711-.827A3.575,3.575,0,0,1,377.141,49.215Z" transform="translate(-290.4 -45.7)" fill="#599af2"/>
              <g id="Grupo_1076057" data-name="Grupo 1076057" transform="translate(75.472 3.412)">
                <path id="Trazado_825041" data-name="Trazado 825041" d="M363.917,50.137a.517.517,0,1,1,0-1.034l6.513-.1a.554.554,0,0,1,.517.517.488.488,0,0,1-.517.517l-6.513.1Z" transform="translate(-363.4 -49)" fill="#fff"/>
                <path id="Trazado_825042" data-name="Trazado 825042" d="M364.017,51.737a.517.517,0,1,1,0-1.034l6.513-.1a.554.554,0,0,1,.517.517.488.488,0,0,1-.517.517l-6.513.1Z" transform="translate(-363.397 -48.946)" fill="#fff"/>
                <path id="Trazado_825043" data-name="Trazado 825043" d="M364.017,53.337a.517.517,0,1,1,0-1.034l6.513-.1h0a.517.517,0,1,1,0,1.034l-6.513.1Z" transform="translate(-363.397 -48.892)" fill="#fff"/>
              </g>
              <path id="Trazado_825044" data-name="Trazado 825044" d="M298.1,55.195c-.1,0-.31,0-.31-.1l-2.378-2.378a.691.691,0,0,1,0-1.034l2.274-2.274a.512.512,0,0,1,.724.724L296.338,52.2l2.171,2.068a.5.5,0,0,1,0,.724C298.3,55.091,298.2,55.195,298.1,55.195Z" transform="translate(-290.238 -45.58)" fill="#fff"/>
            </g>
            <path id="Trazado_825045" data-name="Trazado 825045" d="M374.439,182.726l-79.917.414a3.486,3.486,0,0,1-3.515-3.515l-.207-27.707,86.844-.517.207,27.707A3.368,3.368,0,0,1,374.439,182.726Z" transform="translate(-290.076 -42.121)" fill="#599af2" opacity="0.36"/>
            <path id="Trazado_825046" data-name="Trazado 825046" d="M350.582,75.6l-34.944.207a1.147,1.147,0,0,1-1.137-1.137V70.844a1.147,1.147,0,0,1,1.137-1.137l34.944-.207a1.147,1.147,0,0,1,1.137,1.137v3.825A1.147,1.147,0,0,1,350.582,75.6Z" transform="translate(-289.274 -44.894)" fill="#4c65ba"/>
            <g id="Grupo_1076061" data-name="Grupo 1076061" transform="translate(10.649 44.663)">
              <path id="Trazado_825047" data-name="Trazado 825047" d="M362.225,99.962l-56.862.31a5.011,5.011,0,0,1-4.963-4.859V94.173a5.011,5.011,0,0,1,4.859-4.963l56.862-.31a5.011,5.011,0,0,1,4.963,4.859V95A4.877,4.877,0,0,1,362.225,99.962Z" transform="translate(-300.4 -88.9)" fill="#599af2" opacity="0.32"/>
              <g id="Grupo_1076060" data-name="Grupo 1076060" transform="translate(2.275 2.481)">
                <path id="Trazado_825048" data-name="Trazado 825048" d="M309.423,94.712a3.412,3.412,0,1,1-3.412-3.412A3.512,3.512,0,0,1,309.423,94.712Z" transform="translate(-302.6 -91.3)" fill="#fff" opacity="0.43"/>
                <g id="Grupo_1076059" data-name="Grupo 1076059" transform="translate(1.654 1.241)">
                  <path id="Trazado_825049" data-name="Trazado 825049" d="M307.181,93.741a1.241,1.241,0,1,1-1.241-1.241A1.194,1.194,0,0,1,307.181,93.741Z" transform="translate(-304.183 -92.5)" fill="#fff"/>
                  <path id="Trazado_825050" data-name="Trazado 825050" d="M307.819,96.774H304.2v-.414a1.853,1.853,0,0,1,1.861-1.861h0a1.723,1.723,0,0,1,1.758,1.654Z" transform="translate(-304.2 -92.432)" fill="#fff"/>
                </g>
              </g>
            </g>
            <g id="Grupo_1076064" data-name="Grupo 1076064" transform="translate(10.752 62.548)">
              <path id="Trazado_825051" data-name="Trazado 825051" d="M362.325,117.262l-56.862.31a5.011,5.011,0,0,1-4.963-4.859v-1.241a5.011,5.011,0,0,1,4.859-4.963l56.862-.31a5.011,5.011,0,0,1,4.962,4.859V112.3A4.877,4.877,0,0,1,362.325,117.262Z" transform="translate(-300.5 -106.2)" fill="#599af2" opacity="0.32"/>
              <g id="Grupo_1076063" data-name="Grupo 1076063" transform="translate(2.275 2.481)">
                <path id="Trazado_825052" data-name="Trazado 825052" d="M309.523,112.012a3.412,3.412,0,1,1-3.412-3.412A3.512,3.512,0,0,1,309.523,112.012Z" transform="translate(-302.7 -108.6)" fill="#fff" opacity="0.43"/>
                <g id="Grupo_1076062" data-name="Grupo 1076062" transform="translate(2.068 1.447)">
                  <path id="Trazado_825053" data-name="Trazado 825053" d="M307.285,114.088H305.01a.274.274,0,0,1-.31-.31V111.71a.274.274,0,0,1,.31-.31h2.275a.274.274,0,0,1,.31.31v2.068A.466.466,0,0,1,307.285,114.088Z" transform="translate(-304.7 -109.953)" fill="#fff"/>
                  <path id="Trazado_825054" data-name="Trazado 825054" d="M304.9,111.654v-.827a1.469,1.469,0,0,1,.207-.62.76.76,0,0,1,.62-.207h.724a.707.707,0,0,1,.724.724v.93h-.207v-.93a.365.365,0,0,0-.414-.414h-.724a.784.784,0,0,0-.414.207.537.537,0,0,0-.207.414v.827Z" transform="translate(-304.693 -110)" fill="#fff"/>
                </g>
              </g>
            </g>
            <path id="Trazado_825055" data-name="Trazado 825055" d="M346.779,136.552l-24.5.1a5.339,5.339,0,0,1-5.376-5.376h0a5.339,5.339,0,0,1,5.376-5.376l24.5-.1a5.339,5.339,0,0,1,5.376,5.376h0A5.339,5.339,0,0,1,346.779,136.552Z" transform="translate(-289.193 -42.988)" fill="#f7a9b4"/>
          </g>
          <path id="Trazado_825056" data-name="Trazado 825056" d="M310.034,163.078A1.036,1.036,0,0,1,309,162.044a.977.977,0,0,1,1.034-1.034l47.454-.31h0a1.036,1.036,0,0,1,1.034,1.034.977.977,0,0,1-1.034,1.034l-47.454.31Z" transform="translate(-289.46 -41.806)" fill="#fff"/>
          <path id="Trazado_825057" data-name="Trazado 825057" d="M319.434,169.974a1.036,1.036,0,0,1-1.034-1.034.977.977,0,0,1,1.034-1.034l28.224-.207h0a1.036,1.036,0,0,1,1.034,1.034.977.977,0,0,1-1.034,1.034l-28.224.207Z" transform="translate(-289.142 -41.569)" fill="#fff"/>
        </g>
        <g id="Grupo_1076072" data-name="Grupo 1076072" transform="translate(0 90.458)">
          <g id="Grupo_1076071" data-name="Grupo 1076071">
            <path id="Trazado_825058" data-name="Trazado 825058" d="M322.841,142.715l1.344,133.161a3.643,3.643,0,0,1-3.515,3.618l-79.607.827a3.643,3.643,0,0,1-3.618-3.515L236.1,143.646a3.643,3.643,0,0,1,3.515-3.619l79.607-.827A3.643,3.643,0,0,1,322.841,142.715Z" transform="translate(-231.344 -132.992)" fill="#3e479b" opacity="0.22"/>
            <path id="Trazado_825059" data-name="Trazado 825059" d="M318.241,136.715l1.344,133.161a3.643,3.643,0,0,1-3.515,3.618l-79.607.827a3.643,3.643,0,0,1-3.618-3.515L231.5,137.646a3.643,3.643,0,0,1,3.515-3.619l79.607-.827A3.643,3.643,0,0,1,318.241,136.715Z" transform="translate(-231.5 -133.195)" fill="#fff"/>
            <path id="Trazado_825060" data-name="Trazado 825060" d="M318.241,136.715l1.344,133.161a3.643,3.643,0,0,1-3.515,3.618l-79.607.827a3.643,3.643,0,0,1-3.618-3.515L231.5,137.646a3.643,3.643,0,0,1,3.515-3.619l79.607-.827A3.643,3.643,0,0,1,318.241,136.715Z" transform="translate(-231.5 -133.195)" fill="#599af2" opacity="0.42"/>
            <g id="Grupo_1076068" data-name="Grupo 1076068" transform="translate(0.207)">
              <path id="Trazado_825061" data-name="Trazado 825061" d="M318.441,136.715l.1,7.444-86.741.93-.1-7.651a3.376,3.376,0,0,1,3.412-3.412l79.711-.827A3.45,3.45,0,0,1,318.441,136.715Z" transform="translate(-231.7 -133.196)" fill="#599af2"/>
              <g id="Grupo_1076067" data-name="Grupo 1076067" transform="translate(75.575 3.313)">
                <path id="Trazado_825062" data-name="Trazado 825062" d="M305.317,137.537a.517.517,0,1,1,0-1.034l6.513-.1a.554.554,0,0,1,.517.517.488.488,0,0,1-.517.517l-6.513.1Z" transform="translate(-304.8 -136.4)" fill="#fff"/>
                <path id="Trazado_825063" data-name="Trazado 825063" d="M305.317,139.237a.517.517,0,1,1,0-1.034l6.513-.1h0a.517.517,0,1,1,0,1.034l-6.513.1Z" transform="translate(-304.8 -136.342)" fill="#fff"/>
                <path id="Trazado_825064" data-name="Trazado 825064" d="M305.317,140.837a.517.517,0,1,1,0-1.034l6.513-.1h0a.517.517,0,1,1,0,1.034l-6.513.1Z" transform="translate(-304.8 -136.288)" fill="#fff"/>
              </g>
              <path id="Trazado_825065" data-name="Trazado 825065" d="M239.4,142.595c-.1,0-.31,0-.31-.1l-2.378-2.378a.691.691,0,0,1,0-1.034l2.275-2.274a.512.512,0,0,1,.724.724l-2.068,2.068,2.171,2.068a.5.5,0,0,1,0,.724A.413.413,0,0,1,239.4,142.595Z" transform="translate(-231.538 -133.079)" fill="#fff"/>
            </g>
            <g id="Grupo_1076069" data-name="Grupo 1076069" transform="translate(0.207 108.87)" opacity="0.36">
              <path id="Trazado_825066" data-name="Trazado 825066" d="M315.839,270.226l-79.917.414a3.486,3.486,0,0,1-3.515-3.515l-.207-27.707,86.844-.517.207,27.707A3.486,3.486,0,0,1,315.839,270.226Z" transform="translate(-231.683 -238.486)" fill="#fff"/>
              <path id="Trazado_825067" data-name="Trazado 825067" d="M235.939,271.17a3.994,3.994,0,0,1-2.791-1.137,4.619,4.619,0,0,1-1.241-2.791l-.207-28.224,87.878-.517.207,28.224a4.037,4.037,0,0,1-4.032,4.032l-79.814.414Zm-3.1-31.119.1,27.19a2.6,2.6,0,0,0,.93,2.068,3.074,3.074,0,0,0,2.068.827h0l79.917-.414a3,3,0,0,0,3-3l-.1-27.191Z" transform="translate(-231.7 -238.5)" fill="#fff"/>
            </g>
            <g id="Grupo_1076070" data-name="Grupo 1076070" transform="translate(13.027 22.018)">
              <path id="Trazado_825068" data-name="Trazado 825068" d="M308.816,164.839l-62.652-.1a1.927,1.927,0,0,1-1.964-2.068v-6.2a1.927,1.927,0,0,1,2.068-1.964l62.652.1a1.927,1.927,0,0,1,1.964,2.068v6.2A2.055,2.055,0,0,1,308.816,164.839Z" transform="translate(-244.097 -154.492)" fill="#fff"/>
              <path id="Trazado_825069" data-name="Trazado 825069" d="M309.126,172.312l-63.272-.1a1.633,1.633,0,0,1-1.654-1.654h0a1.633,1.633,0,0,1,1.654-1.654l63.272.1a1.633,1.633,0,0,1,1.654,1.654h0A1.573,1.573,0,0,1,309.126,172.312Z" transform="translate(-244.097 -154.005)" fill="#fff"/>
              <path id="Trazado_825070" data-name="Trazado 825070" d="M309.126,179.912l-63.272-.1a1.633,1.633,0,0,1-1.654-1.654h0a1.633,1.633,0,0,1,1.654-1.654l63.272.1a1.633,1.633,0,0,1,1.654,1.654h0A1.573,1.573,0,0,1,309.126,179.912Z" transform="translate(-244.097 -153.747)" fill="#fff"/>
              <path id="Trazado_825071" data-name="Trazado 825071" d="M252.781,191.142a4.291,4.291,0,1,1-4.239-4.342A4.348,4.348,0,0,1,252.781,191.142Z" transform="translate(-244.097 -153.398)" fill="#f7a9b4"/>
              <path id="Trazado_825072" data-name="Trazado 825072" d="M252.781,209.942a4.291,4.291,0,1,1-4.239-4.342A4.348,4.348,0,0,1,252.781,209.942Z" transform="translate(-244.097 -152.762)" fill="#f7a9b4"/>
              <path id="Trazado_825073" data-name="Trazado 825073" d="M252.681,228.142a4.291,4.291,0,1,1-4.239-4.342A4.347,4.347,0,0,1,252.681,228.142Z" transform="translate(-244.1 -152.146)" fill="#f7a9b4"/>
              <path id="Trazado_825074" data-name="Trazado 825074" d="M295.861,189.534H254.817a.517.517,0,0,1,0-1.034h41.044a.517.517,0,0,1,0,1.034Z" transform="translate(-243.755 -153.341)" fill="#fff"/>
              <path id="Trazado_825075" data-name="Trazado 825075" d="M275.387,193.734h-20.47a.517.517,0,0,1,0-1.034h20.47a.488.488,0,0,1,.517.517A.554.554,0,0,1,275.387,193.734Z" transform="translate(-243.751 -153.199)" fill="#fff"/>
              <path id="Trazado_825076" data-name="Trazado 825076" d="M295.861,208.934H254.817a.517.517,0,0,1,0-1.034h41.044a.517.517,0,0,1,0,1.034Z" transform="translate(-243.755 -152.684)" fill="#fff"/>
              <path id="Trazado_825077" data-name="Trazado 825077" d="M275.287,213.134h-20.47a.517.517,0,0,1,0-1.034h20.47a.517.517,0,1,1,0,1.034Z" transform="translate(-243.755 -152.542)" fill="#fff"/>
              <path id="Trazado_825078" data-name="Trazado 825078" d="M295.861,226.634H254.817a.517.517,0,0,1,0-1.034h41.044a.488.488,0,0,1,.517.517A.554.554,0,0,1,295.861,226.634Z" transform="translate(-243.755 -152.085)" fill="#fff"/>
              <path id="Trazado_825079" data-name="Trazado 825079" d="M275.287,230.834h-20.47a.517.517,0,0,1,0-1.034h20.47a.517.517,0,1,1,0,1.034Z" transform="translate(-243.755 -151.943)" fill="#fff"/>
            </g>
          </g>
          <path id="Trazado_825080" data-name="Trazado 825080" d="M251.434,250.578a1.036,1.036,0,0,1-1.034-1.034.977.977,0,0,1,1.034-1.034l47.454-.31h0a1.036,1.036,0,0,1,1.034,1.034.977.977,0,0,1-1.034,1.034l-47.454.31Z" transform="translate(-230.86 -129.302)" fill="#fff"/>
          <path id="Trazado_825081" data-name="Trazado 825081" d="M260.734,257.474a1.036,1.036,0,0,1-1.034-1.034.977.977,0,0,1,1.034-1.034l28.224-.207h0a1.036,1.036,0,0,1,1.034,1.034.977.977,0,0,1-1.034,1.034l-28.224.207Z" transform="translate(-230.545 -129.065)" fill="#fff"/>
        </g>
      </g>
      <g id="Grupo_1076088" data-name="Grupo 1076088" transform="translate(39.08 65.96)">
        <g id="Grupo_1076087" data-name="Grupo 1076087">
          <g id="Grupo_1076079" data-name="Grupo 1076079">
            <path id="Trazado_825082" data-name="Trazado 825082" d="M140.682,115.913H66.554a1.633,1.633,0,0,1-1.654-1.654v-21.5A1.633,1.633,0,0,1,66.554,91.1h74.128a1.633,1.633,0,0,1,1.654,1.654v21.5A1.633,1.633,0,0,1,140.682,115.913Z" transform="translate(-64.9 -91.1)" fill="#599af2"/>
            <g id="Grupo_1076074" data-name="Grupo 1076074" transform="translate(5.066 2.791)">
              <path id="Trazado_825083" data-name="Trazado 825083" d="M77.761,110.921a7.961,7.961,0,1,1,7.961-7.961A7.964,7.964,0,0,1,77.761,110.921Z" transform="translate(-69.8 -93.759)" fill="#f7a9b4"/>
              <path id="Trazado_825084" data-name="Trazado 825084" d="M76.9,105.9l-3-4.135a.841.841,0,0,1,.207-1.137.684.684,0,0,1,.62-.1.569.569,0,0,1,.517.31l1.861,2.688,9.512-9.512a.79.79,0,0,1,.517-.207h0a.79.79,0,0,1,.517.207.811.811,0,0,1,0,1.137Z" transform="translate(-69.666 -93.8)" fill="#fff"/>
            </g>
            <g id="Grupo_1076075" data-name="Grupo 1076075" transform="translate(27.294 7.754)">
              <line id="Línea_536" data-name="Línea 536" x2="39.597" transform="translate(0.517 0.517)" fill="#fff"/>
              <path id="Trazado_825085" data-name="Trazado 825085" d="M131.414,99.634h-39.6a.517.517,0,0,1,0-1.034h39.6a.517.517,0,0,1,0,1.034Z" transform="translate(-91.3 -98.6)" fill="#fff" opacity="0.38"/>
            </g>
            <g id="Grupo_1076076" data-name="Grupo 1076076" transform="translate(27.294 12.51)">
              <line id="Línea_537" data-name="Línea 537" x2="17.679" transform="translate(0.517 0.517)" fill="#fff"/>
              <path id="Trazado_825086" data-name="Trazado 825086" d="M109.5,104.234H91.817a.517.517,0,0,1,0-1.034H109.5a.488.488,0,0,1,.517.517A.554.554,0,0,1,109.5,104.234Z" transform="translate(-91.3 -103.2)" fill="#fff" opacity="0.38"/>
            </g>
            <g id="Grupo_1076077" data-name="Grupo 1076077" transform="translate(49.212 12.51)">
              <line id="Línea_538" data-name="Línea 538" x2="17.679" transform="translate(0.517 0.517)" fill="#fff"/>
              <path id="Trazado_825087" data-name="Trazado 825087" d="M130.7,104.234H113.017a.517.517,0,0,1,0-1.034H130.7a.488.488,0,0,1,.517.517A.554.554,0,0,1,130.7,104.234Z" transform="translate(-112.5 -103.2)" fill="#fff" opacity="0.38"/>
            </g>
            <g id="Grupo_1076078" data-name="Grupo 1076078" transform="translate(27.294 17.369)">
              <line id="Línea_539" data-name="Línea 539" x2="39.597" transform="translate(0.517 0.517)" fill="#fff"/>
              <path id="Trazado_825088" data-name="Trazado 825088" d="M131.414,108.934h-39.6a.517.517,0,0,1,0-1.034h39.6a.517.517,0,0,1,0,1.034Z" transform="translate(-91.3 -107.9)" fill="#fff" opacity="0.38"/>
            </g>
          </g>
          <g id="Grupo_1076086" data-name="Grupo 1076086" transform="translate(283.484 114.345)">
            <g id="Grupo_1076085" data-name="Grupo 1076085">
              <path id="Trazado_825089" data-name="Trazado 825089" d="M414.882,226.513H340.754a1.633,1.633,0,0,1-1.654-1.654v-21.5a1.633,1.633,0,0,1,1.654-1.654h74.128a1.633,1.633,0,0,1,1.654,1.654v21.5A1.633,1.633,0,0,1,414.882,226.513Z" transform="translate(-339.1 -201.7)" fill="#599af2"/>
              <g id="Grupo_1076080" data-name="Grupo 1076080" transform="translate(5.066 2.662)">
                <path id="Trazado_825090" data-name="Trazado 825090" d="M351.961,221.421a7.961,7.961,0,1,1,7.961-7.961A7.964,7.964,0,0,1,351.961,221.421Z" transform="translate(-344 -204.234)" fill="#f7a9b4"/>
                <path id="Trazado_825091" data-name="Trazado 825091" d="M351.1,216.5l-3-4.135a.684.684,0,0,1-.1-.62.569.569,0,0,1,.31-.517.684.684,0,0,1,.62-.1.569.569,0,0,1,.517.31l1.861,2.585,9.512-9.512a.8.8,0,0,1,1.137,1.137Zm-2.585-4.446Z" transform="translate(-343.866 -204.275)" fill="#fff"/>
              </g>
              <g id="Grupo_1076081" data-name="Grupo 1076081" transform="translate(27.294 7.754)">
                <line id="Línea_540" data-name="Línea 540" x2="39.597" transform="translate(0.517 0.517)" fill="#fff"/>
                <path id="Trazado_825092" data-name="Trazado 825092" d="M405.614,210.234h-39.6a.517.517,0,1,1,0-1.034h39.6a.517.517,0,1,1,0,1.034Z" transform="translate(-365.5 -209.2)" fill="#fff" opacity="0.38"/>
              </g>
              <g id="Grupo_1076082" data-name="Grupo 1076082" transform="translate(27.294 12.406)">
                <line id="Línea_541" data-name="Línea 541" x2="17.679" transform="translate(0.517 0.517)" fill="#fff"/>
                <path id="Trazado_825093" data-name="Trazado 825093" d="M383.7,214.734H366.017a.517.517,0,1,1,0-1.034H383.7a.517.517,0,1,1,0,1.034Z" transform="translate(-365.5 -213.7)" fill="#fff" opacity="0.38"/>
              </g>
              <g id="Grupo_1076083" data-name="Grupo 1076083" transform="translate(49.212 12.406)">
                <line id="Línea_542" data-name="Línea 542" x2="17.679" transform="translate(0.517 0.517)" fill="#fff"/>
                <path id="Trazado_825094" data-name="Trazado 825094" d="M404.9,214.734H387.217a.517.517,0,1,1,0-1.034H404.9a.517.517,0,1,1,0,1.034Z" transform="translate(-386.7 -213.7)" fill="#fff" opacity="0.38"/>
              </g>
              <g id="Grupo_1076084" data-name="Grupo 1076084" transform="translate(27.294 17.369)">
                <line id="Línea_543" data-name="Línea 543" x2="39.597" transform="translate(0.517 0.517)" fill="#fff"/>
                <path id="Trazado_825095" data-name="Trazado 825095" d="M405.614,219.534h-39.6a.517.517,0,1,1,0-1.034h39.6a.517.517,0,1,1,0,1.034Z" transform="translate(-365.5 -218.5)" fill="#fff" opacity="0.38"/>
              </g>
            </g>
          </g>
        </g>
      </g>
    </g>
  </g>
</svg>
