<svg xmlns="http://www.w3.org/2000/svg" width="882" height="213.885" viewBox="0 0 882 213.885">
  <g id="Grupo_1075650" data-name="Grupo 1075650" transform="translate(-632 -1650.137)">
    <rect id="Rectángulo_383399" data-name="Rectángulo 383399" width="796.005" height="213.885" transform="translate(717.995 1650.137)" fill="#1682fb"/>
    <rect id="Rectángulo_383400" data-name="Rectángulo 383400" width="167.58" height="55.125" transform="translate(632 1685.417)" fill="#273a89"/>
    <rect id="Rectángulo_383401" data-name="Rectángulo 383401" width="167.58" height="55.125" transform="translate(632 1758.182)" fill="#273a89"/>
    <path id="Trazado_825602" data-name="Trazado 825602" d="M20.125,22.3a8.308,8.308,0,0,1-1.281,4.2,7.733,7.733,0,0,1-3.289,2.82,11.2,11.2,0,0,1-4.836,1,8.934,8.934,0,0,1-7.062-2.922q-2.578-2.922-2.578-8.25V18.016a13.771,13.771,0,0,1,1.164-5.852A8.82,8.82,0,0,1,5.594,8.289a9.351,9.351,0,0,1,5.063-1.367A9.806,9.806,0,0,1,17.313,9.1a8.612,8.612,0,0,1,2.859,6.008H14.7a4.075,4.075,0,0,0-1.047-2.984,4.306,4.306,0,0,0-3-.906,3.276,3.276,0,0,0-3,1.531,9.841,9.841,0,0,0-1,4.891V19.25a10.89,10.89,0,0,0,.914,5.2,3.345,3.345,0,0,0,3.148,1.563,4.211,4.211,0,0,0,2.891-.891A3.78,3.78,0,0,0,14.672,22.3Zm1.688-.906a9.978,9.978,0,0,1,.984-4.508,7.04,7.04,0,0,1,2.828-3.039,8.518,8.518,0,0,1,4.328-1.062,7.774,7.774,0,0,1,5.984,2.352,9.024,9.024,0,0,1,2.188,6.4v.188a8.755,8.755,0,0,1-2.2,6.273,7.794,7.794,0,0,1-5.945,2.32,7.883,7.883,0,0,1-5.8-2.164,8.464,8.464,0,0,1-2.359-5.867Zm5.266.328a6.291,6.291,0,0,0,.734,3.438,2.447,2.447,0,0,0,2.172,1.094q2.813,0,2.875-4.328v-.531q0-4.547-2.906-4.547-2.641,0-2.859,3.922Zm18.344-8.625.172,1.984a5.813,5.813,0,0,1,4.828-2.3,4.279,4.279,0,0,1,4.328,2.547,5.626,5.626,0,0,1,4.969-2.547Q64.859,12.781,65,19V30H59.719V19.328a3.223,3.223,0,0,0-.437-1.891,1.862,1.862,0,0,0-1.594-.594,2.5,2.5,0,0,0-2.328,1.391l.016.219V30H50.094V19.359a3.388,3.388,0,0,0-.422-1.922,1.857,1.857,0,0,0-1.609-.594,2.525,2.525,0,0,0-2.312,1.391V30H40.484V13.094ZM83.7,21.672a10.2,10.2,0,0,1-1.773,6.289,5.686,5.686,0,0,1-4.789,2.352,4.874,4.874,0,0,1-3.828-1.7V36.5H68.047V13.094h4.922l.156,1.563a4.874,4.874,0,0,1,3.984-1.875,5.732,5.732,0,0,1,4.859,2.3A10.321,10.321,0,0,1,83.7,21.422Zm-5.266-.328q0-4.5-2.625-4.5a2.478,2.478,0,0,0-2.5,1.344v6.656a2.559,2.559,0,0,0,2.531,1.406q2.516,0,2.594-4.344Zm6.922.047a9.978,9.978,0,0,1,.984-4.508,7.04,7.04,0,0,1,2.828-3.039A8.518,8.518,0,0,1,93.5,12.781a7.774,7.774,0,0,1,5.984,2.352,9.024,9.024,0,0,1,2.188,6.4v.188a8.755,8.755,0,0,1-2.2,6.273,7.794,7.794,0,0,1-5.945,2.32,7.883,7.883,0,0,1-5.8-2.164,8.464,8.464,0,0,1-2.359-5.867Zm5.266.328a6.291,6.291,0,0,0,.734,3.438,2.447,2.447,0,0,0,2.172,1.094q2.813,0,2.875-4.328v-.531q0-4.547-2.906-4.547-2.641,0-2.859,3.922Zm18.2-8.625L109,15.078a5.733,5.733,0,0,1,4.828-2.3,4.823,4.823,0,0,1,3.945,1.578,7.513,7.513,0,0,1,1.352,4.75V30h-5.281V19.328a2.853,2.853,0,0,0-.516-1.883,2.385,2.385,0,0,0-1.875-.6,2.511,2.511,0,0,0-2.3,1.219V30h-5.266V13.094Zm21.391,17.219a8.691,8.691,0,0,1-6.3-2.32,8.013,8.013,0,0,1-2.406-6.039v-.437a10.383,10.383,0,0,1,.961-4.578,7.031,7.031,0,0,1,2.8-3.07,8.467,8.467,0,0,1,4.375-1.086,7.318,7.318,0,0,1,5.625,2.211,8.688,8.688,0,0,1,2.063,6.164V23.2H126.875a3.8,3.8,0,0,0,1.234,2.234,3.673,3.673,0,0,0,2.469.813,4.732,4.732,0,0,0,3.906-1.75l2.406,2.844a6.726,6.726,0,0,1-2.789,2.164A9.425,9.425,0,0,1,130.219,30.313Zm-.594-13.469q-2.313,0-2.75,3.063h5.313V19.5a2.608,2.608,0,0,0-.641-1.961A2.549,2.549,0,0,0,129.625,16.844Zm14.672-3.75.172,1.984a5.733,5.733,0,0,1,4.828-2.3,4.823,4.823,0,0,1,3.945,1.578,7.513,7.513,0,0,1,1.352,4.75V30h-5.281V19.328a2.853,2.853,0,0,0-.516-1.883,2.385,2.385,0,0,0-1.875-.6,2.511,2.511,0,0,0-2.3,1.219V30h-5.266V13.094Zm19.344-4.2v4.2h2.781V16.75h-2.781v7.734a1.975,1.975,0,0,0,.344,1.328,1.844,1.844,0,0,0,1.359.375,7.725,7.725,0,0,0,1.313-.094v3.766a9.718,9.718,0,0,1-2.969.453,5.516,5.516,0,0,1-4.016-1.281,5.252,5.252,0,0,1-1.3-3.891V16.75h-2.156V13.094h2.156v-4.2Zm13.031,21.422a8.691,8.691,0,0,1-6.3-2.32,8.013,8.013,0,0,1-2.406-6.039v-.437a10.383,10.383,0,0,1,.961-4.578,7.031,7.031,0,0,1,2.8-3.07,8.467,8.467,0,0,1,4.375-1.086,7.318,7.318,0,0,1,5.625,2.211,8.688,8.688,0,0,1,2.063,6.164V23.2H173.328a3.8,3.8,0,0,0,1.234,2.234,3.673,3.673,0,0,0,2.469.813,4.732,4.732,0,0,0,3.906-1.75l2.406,2.844a6.726,6.726,0,0,1-2.789,2.164A9.425,9.425,0,0,1,176.672,30.313Zm-.594-13.469q-2.313,0-2.75,3.063h5.313V19.5A2.608,2.608,0,0,0,178,17.539,2.549,2.549,0,0,0,176.078,16.844Z" transform="translate(1022.498 1734.182)" fill="#fff"/>
  </g>
</svg>
