<svg xmlns="http://www.w3.org/2000/svg" xmlns:xlink="http://www.w3.org/1999/xlink" width="396.056" height="320.375" viewBox="0 0 396.056 320.375">
  <defs>
    <linearGradient id="linear-gradient" x1="-0.395" y1="0.5" x2="0.605" y2="0.5" gradientUnits="objectBoundingBox">
      <stop offset="0" stop-color="#fff"/>
      <stop offset="1" stop-color="#c9daff"/>
    </linearGradient>
    <linearGradient id="linear-gradient-2" x1="0.76" y1="1.267" x2="0.45" y2="0.351" xlink:href="#linear-gradient"/>
    <linearGradient id="linear-gradient-3" x1="0.499" y1="0.916" x2="0.499" y2="-0.086" gradientUnits="objectBoundingBox">
      <stop offset="0" stop-color="#a33434" stop-opacity="0"/>
      <stop offset="1" stop-color="#a33434"/>
    </linearGradient>
    <linearGradient id="linear-gradient-4" x1="0.253" y1="1.23" x2="0.598" y2="0.226" gradientUnits="objectBoundingBox">
      <stop offset="0" stop-color="#275acc"/>
      <stop offset="0.135" stop-color="#3566d6"/>
      <stop offset="0.491" stop-color="#5482ec"/>
      <stop offset="0.791" stop-color="#6793fa"/>
      <stop offset="1" stop-color="#6e99ff"/>
    </linearGradient>
    <linearGradient id="linear-gradient-5" x1="0.3" y1="-0.051" x2="0.547" y2="0.58" xlink:href="#linear-gradient-4"/>
    <linearGradient id="linear-gradient-6" x1="0.5" y1="0.945" x2="0.5" y2="-0.172" gradientUnits="objectBoundingBox">
      <stop offset="0" stop-color="#fff" stop-opacity="0"/>
      <stop offset="0.689" stop-color="#6b9aff"/>
    </linearGradient>
    <clipPath id="clip-path">
      <path id="Trazado_824890" data-name="Trazado 824890" d="M54.934,140.4c-13.912,8.063-13.912,21.263,0,29.246,13.912,8.063,36.756,8.063,50.746,0,13.912-8.062,13.912-21.263,0-29.246C91.768,132.334,68.925,132.334,54.934,140.4Z" transform="translate(-44.5 -134.35)"/>
    </clipPath>
    <linearGradient id="linear-gradient-7" x1="0.777" y1="0.759" x2="0.216" y2="0.235" gradientUnits="objectBoundingBox">
      <stop offset="0" stop-color="#fff" stop-opacity="0"/>
      <stop offset="0.059" stop-color="#f8faff" stop-opacity="0.059"/>
      <stop offset="0.484" stop-color="#cadaff" stop-opacity="0.482"/>
      <stop offset="0.812" stop-color="#aec6ff" stop-opacity="0.812"/>
      <stop offset="1" stop-color="#a3bfff"/>
    </linearGradient>
    <linearGradient id="linear-gradient-8" x1="0.843" y1="0.76" x2="0.098" y2="0.194" xlink:href="#linear-gradient-7"/>
    <linearGradient id="linear-gradient-9" x1="0.722" y1="-0.477" x2="0.473" y2="0.638" xlink:href="#linear-gradient-4"/>
    <linearGradient id="linear-gradient-10" x1="-0.183" y1="0.5" x2="0.817" y2="0.5" xlink:href="#linear-gradient-4"/>
    <linearGradient id="linear-gradient-11" x1="0.389" y1="0.5" x2="1.389" y2="0.5" xlink:href="#linear-gradient-4"/>
    <linearGradient id="linear-gradient-12" x1="0.504" y1="0.473" x2="0.098" y2="2.07" xlink:href="#linear-gradient-4"/>
    <linearGradient id="linear-gradient-13" x1="0.379" y1="1.113" x2="0.654" y2="0.004" gradientUnits="objectBoundingBox">
      <stop offset="0.382" stop-color="#d95757"/>
      <stop offset="1" stop-color="#ad2f2f"/>
    </linearGradient>
  </defs>
  <g id="OBJECTS" transform="translate(-19.926 -17.263)">
    <g id="Grupo_1076024" data-name="Grupo 1076024" transform="translate(19.926 17.263)">
      <path id="Trazado_824838" data-name="Trazado 824838" d="M406.669,259.36a24.685,24.685,0,0,0-3.478-2.529l-1.028-.553h0L174.042,124.59c-10.592-6.086-27.586-6.086-38.1,0L33.659,184.031c-.474.237-.869.553-1.265.79-17.074,10.513-16.6,27.349,1.344,37.546h0l229.07,132.241c10.513,6.086,27.586,6.086,38.1,0L402.084,295.8h0l1.107-.632a24.466,24.466,0,0,0,3.478-2.45C419.079,282.915,419.079,269.162,406.669,259.36Z" transform="translate(-19.926 -38.798)" fill="url(#linear-gradient)"/>
      <g id="Grupo_1076023" data-name="Grupo 1076023" transform="translate(0.078)">
        <g id="Grupo_1075988" data-name="Grupo 1075988" transform="translate(0 61.94)">
          <path id="Trazado_824839" data-name="Trazado 824839" d="M402.184,236.194v16.283L174.062,120.79c-10.592-6.086-27.586-6.086-38.1,0L33.838,180.231v-16.2c-18.417,10.434-18.417,27.9,0,38.336h0L262.908,334.6c10.513,6.086,27.586,6.086,38.1,0L402.184,275.8h0l1.107-.632a24.464,24.464,0,0,0,3.478-2.45C420.443,261.726,418.942,246,402.184,236.194Z" transform="translate(-20.025 -99.942)" fill="#25468f"/>
          <g id="Grupo_1075980" data-name="Grupo 1075980" transform="translate(33.811 102.868)">
            <path id="Trazado_824840" data-name="Trazado 824840" d="M92.916,247.846,64.7,231.642a5.021,5.021,0,0,1-1.9-3.952h0c0-1.581.869-2.292,1.9-1.739l28.219,16.2a5.021,5.021,0,0,1,1.9,3.952h0C94.813,247.688,93.943,248.478,92.916,247.846Z" transform="translate(-62.8 -225.765)" fill="#275acc"/>
            <path id="Trazado_824841" data-name="Trazado 824841" d="M137.916,273.646l-28.219-16.2a5.021,5.021,0,0,1-1.9-3.952h0c0-1.581.869-2.292,1.9-1.739l28.219,16.2a5.021,5.021,0,0,1,1.9,3.952h0C139.813,273.488,138.943,274.278,137.916,273.646Z" transform="translate(-72.23 -231.171)" fill="#275acc"/>
          </g>
          <g id="Grupo_1075981" data-name="Grupo 1075981" transform="translate(5.819)">
            <path id="Trazado_824842" data-name="Trazado 824842" d="M404.755,232.51,175.605,100.19c-10.592-6.086-27.586-6.086-38.1,0L35.223,159.71c-10.513,6.086-10.434,15.967.158,22.053L264.451,314c10.513,6.086,27.586,6.086,38.1,0l102.283-59.441C415.346,248.477,415.267,238.6,404.755,232.51Z" transform="translate(-27.387 -95.625)" fill="#275acc"/>
          </g>
          <path id="Trazado_824843" data-name="Trazado 824843" d="M400.038,238.481l-229.07-132.32c-6.4-3.715-16.678-3.715-23.081,0L129.944,116.6c-2.055,1.186-2.371,3.083-.711,4.506l4.031,3.4c1.581,1.344,1.265,3.083-.632,4.189L84.414,156.671a9.252,9.252,0,0,1-7.272.4l-5.928-2.371a9.929,9.929,0,0,0-7.825.4L45.445,165.524c-6.324,3.715-6.324,9.643.079,13.358l229.07,132.241c6.4,3.715,16.678,3.715,23.081,0l102.283-59.441C406.44,248.125,406.44,242.117,400.038,238.481Z" transform="translate(-24.36 -97.249)" fill="url(#linear-gradient-2)"/>
          <g id="Grupo_1075982" data-name="Grupo 1075982" transform="translate(58.137 27.527)">
            <path id="Trazado_824844" data-name="Trazado 824844" d="M129.594,136.306a3.691,3.691,0,0,0-3.162,0l-21.1,12.331a.96.96,0,0,0,0,1.818,3.691,3.691,0,0,0,3.162,0l21.184-12.331a.976.976,0,0,0-.079-1.818" transform="translate(-95.901 -131.603)" fill="#25468f"/>
            <path id="Trazado_824845" data-name="Trazado 824845" d="M144.139,130.806a3.691,3.691,0,0,0-3.162,0l-2.45,1.423a.96.96,0,0,0,0,1.818,3.691,3.691,0,0,0,3.162,0l2.45-1.423a.975.975,0,0,0,0-1.818" transform="translate(-102.858 -130.45)" fill="#25468f"/>
            <path id="Trazado_824846" data-name="Trazado 824846" d="M100.234,156.127a6.2,6.2,0,0,0-5.533,0c-1.5.87-1.5,2.292,0,3.162a6.194,6.194,0,0,0,5.533,0c1.5-.869,1.5-2.292,0-3.162" transform="translate(-93.575 -135.694)" fill="#25468f"/>
          </g>
          <path id="Trazado_824847" data-name="Trazado 824847" d="M188.494,116.358l-17.627-10.2c-6.4-3.715-16.678-3.715-23.081,0L129.844,116.6c-2.055,1.186-2.371,3.083-.711,4.506l4.031,3.4c1.581,1.344,1.265,3.083-.632,4.189L84.314,156.671a9.252,9.252,0,0,1-7.272.4l-5.928-2.371a9.929,9.929,0,0,0-7.825.4L45.345,165.524c-6.324,3.715-6.324,9.643.079,13.358l17.232,9.96Z" transform="translate(-24.339 -97.249)" fill="#1cd971"/>
          <g id="Grupo_1075983" data-name="Grupo 1075983" transform="translate(33.1 103.738)">
            <path id="Trazado_824848" data-name="Trazado 824848" d="M92.016,248.946,63.8,232.742a5.021,5.021,0,0,1-1.9-3.952h0c0-1.581.869-2.292,1.9-1.739l28.219,16.2a5.021,5.021,0,0,1,1.9,3.952h0C93.913,248.788,93.043,249.578,92.016,248.946Z" transform="translate(-61.9 -226.865)" fill="#adc7ff"/>
            <path id="Trazado_824849" data-name="Trazado 824849" d="M137.016,274.846l-28.219-16.2a5.021,5.021,0,0,1-1.9-3.952h0c0-1.581.869-2.292,1.9-1.739l28.219,16.2a5.021,5.021,0,0,1,1.9,3.952h0C138.913,274.688,138.043,275.478,137.016,274.846Z" transform="translate(-71.33 -232.292)" fill="#adc7ff"/>
          </g>
          <g id="Grupo_1075984" data-name="Grupo 1075984" transform="translate(322.323 187.572)">
            <path id="Trazado_824850" data-name="Trazado 824850" d="M429.776,350.453l19.84-11.382a5.054,5.054,0,0,0,1.976-4.11h0c0-1.66-.87-2.45-1.976-1.818l-19.84,11.382a5.053,5.053,0,0,0-1.976,4.11h0C427.8,350.295,428.669,351.085,429.776,350.453Z" transform="translate(-427.8 -332.925)" fill="#182747"/>
            <path id="Trazado_824851" data-name="Trazado 824851" d="M450.611,333a2.679,2.679,0,0,1,.474,1.581,5.053,5.053,0,0,1-1.976,4.11l-19.84,11.382a2.06,2.06,0,0,1-.869.237,1.194,1.194,0,0,0,1.581.237l19.84-11.382a5.053,5.053,0,0,0,1.976-4.11C451.718,333.79,451.244,333.079,450.611,333Z" transform="translate(-427.926 -332.941)" fill="#275acc"/>
          </g>
          <g id="Grupo_1075985" data-name="Grupo 1075985" transform="translate(294.78 166.017)">
            <path id="Trazado_824852" data-name="Trazado 824852" d="M394.334,333.989a1.5,1.5,0,0,1-1.186-.632,1.314,1.314,0,0,1,.474-1.818l45.055-25.689a1.329,1.329,0,1,1,1.344,2.292L394.967,333.83A.951.951,0,0,1,394.334,333.989Z" transform="translate(-392.956 -305.656)" fill="#adc7ff"/>
          </g>
          <g id="Grupo_1075986" data-name="Grupo 1075986" transform="translate(353.071 170.438)">
            <path id="Trazado_824853" data-name="Trazado 824853" d="M466.7,330.014a3.366,3.366,0,0,1,1.66-2.767c.869-.474,1.66-.079,1.66.949a3.366,3.366,0,0,1-1.66,2.767C467.49,331.437,466.7,331.041,466.7,330.014Z" transform="translate(-466.7 -314.559)" fill="#182747"/>
            <path id="Trazado_824854" data-name="Trazado 824854" d="M472.2,326.814a3.366,3.366,0,0,1,1.66-2.767c.869-.474,1.66-.079,1.66.949a3.366,3.366,0,0,1-1.66,2.767C472.911,328.316,472.2,327.841,472.2,326.814Z" transform="translate(-467.853 -313.888)" fill="#182747"/>
            <path id="Trazado_824855" data-name="Trazado 824855" d="M477.6,323.714a3.366,3.366,0,0,1,1.66-2.767c.869-.474,1.66-.079,1.66.949a3.366,3.366,0,0,1-1.66,2.767C478.39,325.137,477.6,324.741,477.6,323.714Z" transform="translate(-468.984 -313.239)" fill="#182747"/>
            <path id="Trazado_824856" data-name="Trazado 824856" d="M483.1,320.514a3.366,3.366,0,0,1,1.66-2.767c.869-.474,1.66-.079,1.66.949a3.366,3.366,0,0,1-1.66,2.767C483.811,322.016,483.1,321.541,483.1,320.514Z" transform="translate(-470.137 -312.568)" fill="#182747"/>
            <path id="Trazado_824857" data-name="Trazado 824857" d="M488.6,317.414a3.366,3.366,0,0,1,1.66-2.767c.87-.474,1.66-.079,1.66.949a3.366,3.366,0,0,1-1.66,2.767C489.311,318.837,488.6,318.441,488.6,317.414Z" transform="translate(-471.289 -311.919)" fill="#182747"/>
            <path id="Trazado_824858" data-name="Trazado 824858" d="M494,314.214a3.366,3.366,0,0,1,1.66-2.767c.869-.474,1.66-.079,1.66.949a3.366,3.366,0,0,1-1.66,2.767C494.79,315.716,494,315.241,494,314.214Z" transform="translate(-472.421 -311.248)" fill="#182747"/>
          </g>
          <g id="Grupo_1075987" data-name="Grupo 1075987" transform="translate(288.729 207.509)">
            <path id="Trazado_824859" data-name="Trazado 824859" d="M385.3,376.914a3.366,3.366,0,0,1,1.66-2.767c.87-.474,1.66-.079,1.66.949a3.366,3.366,0,0,1-1.66,2.767C386.011,378.337,385.3,377.941,385.3,376.914Z" transform="translate(-385.3 -361.459)" fill="#182747"/>
            <path id="Trazado_824860" data-name="Trazado 824860" d="M390.8,373.714a3.366,3.366,0,0,1,1.66-2.767c.869-.474,1.66-.079,1.66.949a3.366,3.366,0,0,1-1.66,2.767C391.511,375.216,390.8,374.741,390.8,373.714Z" transform="translate(-386.453 -360.788)" fill="#182747"/>
            <path id="Trazado_824861" data-name="Trazado 824861" d="M396.2,370.614a3.366,3.366,0,0,1,1.66-2.767c.869-.474,1.66-.079,1.66.949a3.366,3.366,0,0,1-1.66,2.767C396.911,372.037,396.2,371.641,396.2,370.614Z" transform="translate(-387.584 -360.139)" fill="#182747"/>
            <path id="Trazado_824862" data-name="Trazado 824862" d="M401.7,367.414a3.366,3.366,0,0,1,1.66-2.767c.869-.474,1.66-.079,1.66.949a3.366,3.366,0,0,1-1.66,2.767C402.411,368.916,401.7,368.441,401.7,367.414Z" transform="translate(-388.737 -359.468)" fill="#182747"/>
            <path id="Trazado_824863" data-name="Trazado 824863" d="M407.1,364.314a3.366,3.366,0,0,1,1.66-2.767c.87-.474,1.66-.079,1.66.949a3.366,3.366,0,0,1-1.66,2.767C407.89,365.737,407.1,365.341,407.1,364.314Z" transform="translate(-389.868 -358.819)" fill="#182747"/>
            <path id="Trazado_824864" data-name="Trazado 824864" d="M412.6,361.114a3.366,3.366,0,0,1,1.66-2.767c.869-.474,1.66-.079,1.66.949a3.366,3.366,0,0,1-1.66,2.767C413.311,362.616,412.6,362.141,412.6,361.114Z" transform="translate(-391.021 -358.148)" fill="#182747"/>
          </g>
        </g>
        <g id="Grupo_1075991" data-name="Grupo 1075991" transform="translate(245.245 197.343)">
          <path id="Trazado_824865" data-name="Trazado 824865" d="M333.143,326.157c-3.794,2.213-3.794,5.77-.079,7.983l.4.237c3.794,2.213,9.96,2.292,13.754.079l93.9-54.224c3.794-2.213,3.873-5.77.079-7.983a15.074,15.074,0,0,0-13.754-.079Z" transform="translate(-330.287 -267.684)" fill="#adc7ff"/>
          <path id="Trazado_824866" data-name="Trazado 824866" d="M447.284,269.356c-5.612,3.241-5.612,8.537,0,11.778s14.781,3.241,20.393,0,5.612-8.537,0-11.778S452.9,266.115,447.284,269.356Z" transform="translate(-353.923 -266.925)" fill="#275acc"/>
          <g id="Grupo_1075989" data-name="Grupo 1075989" transform="translate(49.077 26.855)">
            <path id="Trazado_824867" data-name="Trazado 824867" d="M392.79,314.837a.631.631,0,0,0,0,1.186,2.345,2.345,0,0,0,2.055,0,.631.631,0,0,0,0-1.186A2.345,2.345,0,0,0,392.79,314.837Z" transform="translate(-392.375 -303.771)" fill="#6b9aff"/>
            <path id="Trazado_824868" data-name="Trazado 824868" d="M397.59,312.137a.631.631,0,0,0,0,1.186,2.345,2.345,0,0,0,2.055,0,.631.631,0,0,0,0-1.186A2.345,2.345,0,0,0,397.59,312.137Z" transform="translate(-393.381 -303.205)" fill="#6b9aff"/>
            <path id="Trazado_824869" data-name="Trazado 824869" d="M402.29,309.337a.631.631,0,0,0,0,1.186,2.345,2.345,0,0,0,2.055,0,.631.631,0,0,0,0-1.186A2.343,2.343,0,0,0,402.29,309.337Z" transform="translate(-394.366 -302.618)" fill="#6b9aff"/>
            <path id="Trazado_824870" data-name="Trazado 824870" d="M407.09,306.637a.631.631,0,0,0,0,1.186,2.345,2.345,0,0,0,2.055,0,.631.631,0,0,0,0-1.186A2.345,2.345,0,0,0,407.09,306.637Z" transform="translate(-395.372 -302.053)" fill="#6b9aff"/>
            <path id="Trazado_824871" data-name="Trazado 824871" d="M411.89,303.937a.631.631,0,0,0,0,1.186,2.345,2.345,0,0,0,2.055,0,.631.631,0,0,0,0-1.186A2.343,2.343,0,0,0,411.89,303.937Z" transform="translate(-396.378 -301.487)" fill="#6b9aff"/>
            <path id="Trazado_824872" data-name="Trazado 824872" d="M416.59,301.137a.631.631,0,0,0,0,1.186,2.345,2.345,0,0,0,2.055,0,.631.631,0,0,0,0-1.186A2.345,2.345,0,0,0,416.59,301.137Z" transform="translate(-397.362 -300.9)" fill="#6b9aff"/>
          </g>
          <g id="Grupo_1075990" data-name="Grupo 1075990" transform="translate(93.835 3.458)">
            <path id="Trazado_824873" data-name="Trazado 824873" d="M465.757,271.3,449,273.592l7.588,3,9.169-5.3" transform="translate(-449 -271.3)" fill="#ffd000"/>
            <path id="Trazado_824874" data-name="Trazado 824874" d="M467.769,271.3l-9.169,5.3,5.3,4.427,3.873-9.722" transform="translate(-451.012 -271.3)" fill="#ff8400"/>
          </g>
        </g>
        <path id="Trazado_824875" data-name="Trazado 824875" d="M362.264,196.274l-6.007.158a24.519,24.519,0,0,0-3.873-2.846,27.328,27.328,0,0,0-17.074-3.241c-7.746.869-11.224,4.11-12.805,6.877l-21.1.474V212.32h0c.237,3,2.688,5.454,6.007,7.43a46.76,46.76,0,0,0,15.1,4.9A103.108,103.108,0,0,0,358,222.912a23.059,23.059,0,0,0,4.268-12.015h.079V196.274Z" transform="translate(-78.989 -53.491)" fill="url(#linear-gradient-3)"/>
        <g id="Grupo_1075995" data-name="Grupo 1075995" transform="translate(221.225 145.826)">
          <g id="Grupo_1075992" data-name="Grupo 1075992" transform="translate(0 8.853)" opacity="0.19">
            <path id="Trazado_824876" data-name="Trazado 824876" d="M301.323,273.7c-1.9,1.107-1.9,2.925,0,4.031L331.043,295.2a7.538,7.538,0,0,0,6.877,0l101.572-58.651,10.434-.711L411.985,213.78a7.537,7.537,0,0,0-6.877,0Z" transform="translate(-299.9 -212.95)" fill="#223763"/>
          </g>
          <g id="Grupo_1075994" data-name="Grupo 1075994">
            <path id="Trazado_824877" data-name="Trazado 824877" d="M301.323,262.416c-1.9,1.107-1.9,2.925,0,4.031l29.721,17.469a7.537,7.537,0,0,0,6.877,0l101.572-58.651,10.434-.711-38.02-21.974a7.537,7.537,0,0,0-6.877,0Z" transform="translate(-299.9 -201.75)" fill="url(#linear-gradient-4)"/>
            <g id="Grupo_1075993" data-name="Grupo 1075993" transform="translate(27.705 11.837)">
              <path id="Trazado_824878" data-name="Trazado 824878" d="M431.785,219.63l.79-.474,4.664,2.688c2.767,1.581,2.767,4.11.079,5.691a10.885,10.885,0,0,1-9.88,0l-4.664-2.687.79-.474,4.664,2.688a9.048,9.048,0,0,0,8.3,0c2.292-1.344,2.292-3.478,0-4.822l-4.743-2.608m6.877,1.344-4.9-2.846a2.679,2.679,0,0,0-2.45,0l-1.028.632-1.739-1.028a9.048,9.048,0,0,0-8.3,0c-2.292,1.344-2.292,3.478,0,4.822l1.739,1.028-1.028.632a.771.771,0,0,0,0,1.423l4.9,2.846c3,1.739,7.667,1.976,11.145.79a2.2,2.2,0,0,1,1.739.079l2.371,1.344a.631.631,0,0,1,0,1.186l-2.608,1.5a.467.467,0,0,0,0,.869,1.674,1.674,0,0,0,1.5,0l8.853-5.138a.467.467,0,0,0,0-.869,1.674,1.674,0,0,0-1.5,0l-2.608,1.5a2.345,2.345,0,0,1-2.055,0l-2.371-1.344a.617.617,0,0,1-.237-1.028c2.055-1.976,1.66-4.664-1.423-6.4" transform="translate(-352.464 -216.725)" fill="#275acc"/>
              <path id="Trazado_824879" data-name="Trazado 824879" d="M403.679,234.937a2.016,2.016,0,0,0-1.9,0L335.306,273.59a.608.608,0,0,0,0,1.107,2.016,2.016,0,0,0,1.9,0l66.476-38.653c.553-.316.553-.79,0-1.107" transform="translate(-334.95 -220.492)" fill="#fff"/>
            </g>
            <path id="Trazado_824880" data-name="Trazado 824880" d="M355.434,264.97c-2.846,1.66-2.846,4.426,0,6.086a11.719,11.719,0,0,0,10.513,0c2.925-1.66,2.925-4.426,0-6.086A11.719,11.719,0,0,0,355.434,264.97Z" transform="translate(-311.09 -214.737)" fill="#ffd000"/>
          </g>
        </g>
        <g id="Grupo_1076000" data-name="Grupo 1076000" transform="translate(124.396 148.988)">
          <g id="Grupo_1075996" data-name="Grupo 1075996" transform="translate(0 11.224)" opacity="0.19">
            <path id="Trazado_824881" data-name="Trazado 824881" d="M178.823,266.072c-1.9,1.107-1.9,2.925,0,3.952L240,305.515,239.292,295l73.195-42.289c1.9-1.107,1.9-2.925,0-3.952L264.033,220.78a7.537,7.537,0,0,0-6.877,0Z" transform="translate(-177.4 -219.95)" fill="#223763"/>
          </g>
          <g id="Grupo_1075999" data-name="Grupo 1075999">
            <path id="Trazado_824882" data-name="Trazado 824882" d="M178.823,251.793c-1.9,1.107-1.9,2.925,0,3.952L240,291.236l-.711-10.513,73.195-42.289c1.9-1.107,1.9-2.925,0-3.952l-48.454-27.9a7.537,7.537,0,0,0-6.877,0Z" transform="translate(-177.4 -205.75)" fill="url(#linear-gradient-5)"/>
            <g id="Grupo_1075997" data-name="Grupo 1075997" transform="translate(51.458 10.71)">
              <line id="Línea_524" data-name="Línea 524" y1="16.678" x2="28.851" fill="none" stroke="#fff" stroke-linecap="round" stroke-linejoin="round" stroke-miterlimit="10" stroke-width="1.762"/>
              <line id="Línea_525" data-name="Línea 525" y1="16.678" x2="28.851" transform="translate(4.901 2.846)" fill="none" stroke="#fff" stroke-linecap="round" stroke-linejoin="round" stroke-miterlimit="10" stroke-width="1.762"/>
              <line id="Línea_526" data-name="Línea 526" y1="11.699" x2="20.156" transform="translate(9.801 10.671)" fill="none" stroke="#fff" stroke-linecap="round" stroke-linejoin="round" stroke-miterlimit="10" stroke-width="1.762"/>
              <line id="Línea_527" data-name="Línea 527" y1="10.355" x2="17.943" transform="translate(14.702 14.86)" fill="none" stroke="#fff" stroke-linecap="round" stroke-linejoin="round" stroke-miterlimit="10" stroke-width="1.762"/>
            </g>
            <g id="Grupo_1075998" data-name="Grupo 1075998" transform="translate(15.493 30.234)">
              <path id="Trazado_824883" data-name="Trazado 824883" d="M241.581,254.75l12.568,7.272L230.594,275.7l-2.45,1.423-26.164-15.1,26.006-15.1,13.6,7.825m23.16,10.434L227.985,244,197,262.022l36.756,21.184,30.985-18.022" transform="translate(-197 -244)" fill="#fff"/>
              <path id="Trazado_824884" data-name="Trazado 824884" d="M217.607,261.749c-2.371-1.423-2.45-3.636,0-5.059a9.389,9.389,0,0,1,8.695,0c2.371,1.423,2.45,3.636,0,5.059a9.389,9.389,0,0,1-8.695,0M242.9,255.5l-13.6-7.9L203.3,262.7l26.164,15.1-11.382-6.561V266.1h13.833l-.079-10.592H242.9" transform="translate(-198.32 -244.754)" fill="#6e99ff"/>
              <path id="Trazado_824885" data-name="Trazado 824885" d="M235.733,271H221.9l.079,5.217,11.382,6.561,2.45-1.423L235.733,271" transform="translate(-202.218 -249.658)" fill="#3b75ff"/>
              <path id="Trazado_824886" data-name="Trazado 824886" d="M263.013,264.872,250.445,257.6H239.3l.079,10.592.079,10.355,23.555-13.675" transform="translate(-205.864 -246.85)" fill="#99b7ff"/>
              <path id="Trazado_824887" data-name="Trazado 824887" d="M229.523,258.917a9.389,9.389,0,0,0-8.695,0c-2.371,1.423-2.371,3.636,0,5.059a9.39,9.39,0,0,0,8.695,0c2.45-1.423,2.45-3.715,0-5.059" transform="translate(-201.621 -246.902)" fill="#ffd000"/>
            </g>
          </g>
        </g>
        <g id="Grupo_1076005" data-name="Grupo 1076005" transform="translate(19.346 92.55)">
          <path id="Trazado_824888" data-name="Trazado 824888" d="M74.474,186.893c-6.165,3.557-6.165,9.327,0,12.884s16.2,3.557,22.29,0c6.165-3.557,6.165-9.327,0-12.884C90.678,183.336,80.64,183.336,74.474,186.893Z" transform="translate(-49.812 -144.802)" fill="#223763"/>
          <g id="Grupo_1076004" data-name="Grupo 1076004">
            <rect id="Rectángulo_383575" data-name="Rectángulo 383575" width="71.614" height="30.827" transform="translate(0 20.67)" fill="url(#linear-gradient-6)"/>
            <g id="Grupo_1076003" data-name="Grupo 1076003">
              <g id="Grupo_1076001" data-name="Grupo 1076001" clip-path="url(#clip-path)">
                <path id="Trazado_824889" data-name="Trazado 824889" d="M54.934,140.4c-13.912,8.063-13.912,21.263,0,29.246,13.912,8.063,36.756,8.063,50.746,0,13.912-8.062,13.912-21.263,0-29.246C91.768,132.334,68.925,132.334,54.934,140.4Z" transform="translate(-44.5 -134.35)" fill="#6b9aff"/>
              </g>
              <g id="Grupo_1076002" data-name="Grupo 1076002" clip-path="url(#clip-path)">
                <path id="Trazado_824891" data-name="Trazado 824891" d="M96.216,147.359s-20.789-7.825-30.195-2.371,4.189,17.469,4.189,17.469a36.629,36.629,0,0,0,13.121-2.767h0l-3.4-1.976a13.158,13.158,0,0,1-5.691-1.423l-2.213-1.265a1.677,1.677,0,0,1-.949-2.134c.4-.949.474-2.371-1.028-4.189a23.476,23.476,0,0,0,10.118-.316,4.953,4.953,0,0,1,3.557.316l2.055,1.186a4.235,4.235,0,0,1,2.371,3.241l3.32,1.9h0c2.767-2.371,4.664-4.98,4.743-7.667" transform="translate(-48.315 -136.174)" fill="#ffd000"/>
                <path id="Trazado_824892" data-name="Trazado 824892" d="M103.064,155.737l-1.739.79a9.5,9.5,0,0,1-7.9-.237h0l-3.32-1.9a4.17,4.17,0,0,0-2.371-3.241l-2.055-1.186a4.953,4.953,0,0,0-3.557-.316A23.476,23.476,0,0,1,72,149.967c1.423,1.818,1.423,3.241,1.028,4.189a1.677,1.677,0,0,0,.949,2.134l2.213,1.265a12.135,12.135,0,0,0,5.691,1.423l3.4,1.976h0c2.134,1.265,2.371,3.241.474,4.585l-1.423,1.028a24.521,24.521,0,0,0,13.833-2.846c5.375-3.083,5.3-6.482,4.9-7.983" transform="translate(-50.263 -137.518)" fill="#fc7979"/>
                <path id="Trazado_824893" data-name="Trazado 824893" d="M138.182,161.987l-14.939-7.114a20.227,20.227,0,0,0-14.149-.632l-4.506,1.581a1.958,1.958,0,0,1,.237.711c.4,1.423.474,4.9-4.9,7.983a23.856,23.856,0,0,1-13.833,2.846c-.79-.079-1.265-.158-1.265-.158l-2.688,2.608c-2.687,2.608-2.213,5.849,1.107,8.221l12.331,8.616,21.263-12.41,21.342-12.252" transform="translate(-52.023 -138.313)" fill="#fff"/>
              </g>
            </g>
          </g>
        </g>
        <path id="Trazado_824895" data-name="Trazado 824895" d="M174,99.7v46.083L138.9,165.86v-46Z" transform="translate(-44.936 -34.539)" fill="url(#linear-gradient-7)"/>
        <g id="Grupo_1076008" data-name="Grupo 1076008" transform="translate(135.304)">
          <path id="Trazado_824896" data-name="Trazado 824896" d="M226.3,54.7v63l-35.1,20.077v-63Z" transform="translate(-191.2 -25.109)" fill="url(#linear-gradient-8)"/>
          <g id="Grupo_1076007" data-name="Grupo 1076007">
            <path id="Trazado_824897" data-name="Trazado 824897" d="M226.3,50.254a12.266,12.266,0,0,1-5.612,9.643L196.812,73.572c-3.083,1.739-5.612.316-5.612-3.241V41.322a12.266,12.266,0,0,1,5.612-9.643L220.684,18c3.083-1.739,5.612-.316,5.612,3.241Z" transform="translate(-191.2 -17.263)" fill="#d95757"/>
            <g id="Grupo_1076006" data-name="Grupo 1076006" transform="translate(5.375 14.217)">
              <path id="Trazado_824898" data-name="Trazado 824898" d="M211.2,59.1l-11.461,6.561c-.949.553-1.739.079-1.739-1.107V50.882a4.009,4.009,0,0,1,1.739-3.083L211.2,41.239c.949-.553,1.739-.079,1.739,1.107V56.02A3.689,3.689,0,0,1,211.2,59.1Z" transform="translate(-198 -36.457)" fill="#fff"/>
              <path id="Trazado_824899" data-name="Trazado 824899" d="M220.37,49.359l4.664,1.9c.711.316,1.818-.949,1.818-2.055V36.08c0-1.107-1.107-1.107-1.818,0l-4.664,7.193C218.71,45.8,218.71,48.727,220.37,49.359Z" transform="translate(-202.427 -35.25)" fill="#fff"/>
            </g>
          </g>
        </g>
        <g id="Grupo_1076009" data-name="Grupo 1076009" transform="translate(93.964 33.436)">
          <path id="Trazado_824900" data-name="Trazado 824900" d="M174,92.554a12.266,12.266,0,0,1-5.612,9.643l-23.871,13.675c-3.083,1.739-5.612.316-5.612-3.241V83.622a12.266,12.266,0,0,1,5.612-9.643L168.383,60.3c3.083-1.739,5.612-.316,5.612,3.241Z" transform="translate(-138.9 -59.563)" fill="#ed9a00"/>
          <path id="Trazado_824901" data-name="Trazado 824901" d="M164.025,96.269,162.6,97.85c-.711.79-1.581,1.186-2.213.869a6.407,6.407,0,0,1-3.083-4.426,15.524,15.524,0,0,1,.237-7.351,4.414,4.414,0,0,1,1.818-2.608l1.581-1.028a1.594,1.594,0,0,0,.711-1.66l-1.5-4.822c-.158-.4-.632-.4-1.107.079-5.059,5.533-7.746,14.544-6.165,21.263,1.581,6.64,6.956,8.616,12.489,4.98a1.725,1.725,0,0,0,.711-1.5l-.949-5.3C165.053,95.715,164.5,95.715,164.025,96.269Z" transform="translate(-141.735 -63.12)" fill="#fff"/>
        </g>
        <g id="Grupo_1076010" data-name="Grupo 1076010" transform="translate(123.151 68.303)">
          <path id="Trazado_824902" data-name="Trazado 824902" d="M177.307,150.779c-1.976-1.186-1.976-3,0-4.189l50.825-29.325a7.878,7.878,0,0,1,7.272,0l34.621,19.919-10.276,1.344-48.138,27.745a7.878,7.878,0,0,1-7.272,0Z" transform="translate(-175.825 -106.336)" fill="#223763" opacity="0.19"/>
          <path id="Trazado_824903" data-name="Trazado 824903" d="M177.307,138.079c-1.976-1.186-1.976-3,0-4.189l50.825-29.325a7.878,7.878,0,0,1,7.272,0l34.621,19.919-10.276,1.344-48.138,27.745a7.878,7.878,0,0,1-7.272,0Z" transform="translate(-175.825 -103.675)" fill="url(#linear-gradient-9)"/>
          <line id="Línea_528" data-name="Línea 528" y1="22.37" x2="38.732" transform="translate(19.267 6.739)" fill="none" stroke="#fff" stroke-linecap="round" stroke-linejoin="round" stroke-miterlimit="10" stroke-width="1.762"/>
          <line id="Línea_529" data-name="Línea 529" y1="22.37" x2="38.653" transform="translate(25.432 10.296)" fill="none" stroke="#fff" stroke-linecap="round" stroke-linejoin="round" stroke-miterlimit="10" stroke-width="1.762"/>
          <line id="Línea_530" data-name="Línea 530" y1="22.37" x2="38.653" transform="translate(31.598 13.853)" fill="none" stroke="#fff" stroke-linecap="round" stroke-linejoin="round" stroke-miterlimit="10" stroke-width="1.762"/>
          <line id="Línea_531" data-name="Línea 531" y1="10.592" x2="18.417" transform="translate(57.999 17.409)" fill="none" stroke="#fff" stroke-linecap="round" stroke-linejoin="round" stroke-miterlimit="10" stroke-width="1.762"/>
        </g>
        <g id="Grupo_1076014" data-name="Grupo 1076014" transform="translate(60.054 120.532)">
          <g id="Grupo_1076011" data-name="Grupo 1076011" transform="translate(0 10.197)" opacity="0.19">
            <path id="Trazado_824904" data-name="Trazado 824904" d="M166.27,183.48a7.537,7.537,0,0,0-6.877,0L97.423,219.287c-1.9,1.107-1.9,2.925,0,3.952l32.408,18.734v-5.217a3.02,3.02,0,0,1,1.423-2.529l58.018-33.515c1.9-1.107,1.9-2.925,0-3.952Z" transform="translate(-96 -182.65)" fill="#223763"/>
          </g>
          <g id="Grupo_1076013" data-name="Grupo 1076013">
            <path id="Trazado_824905" data-name="Trazado 824905" d="M166.27,170.58a7.537,7.537,0,0,0-6.877,0L97.423,206.387c-1.9,1.107-1.9,2.925,0,3.952l32.408,18.733v-5.217a3.02,3.02,0,0,1,1.423-2.529l58.018-33.515c1.9-1.107,1.9-2.925,0-3.952Z" transform="translate(-96 -169.75)" fill="url(#linear-gradient-10)"/>
            <g id="Grupo_1076012" data-name="Grupo 1076012" transform="translate(14.386 10.631)">
              <line id="Línea_532" data-name="Línea 532" y1="26.401" x2="45.609" fill="none" stroke="#fff" stroke-linecap="round" stroke-linejoin="round" stroke-miterlimit="10" stroke-width="1.762"/>
              <line id="Línea_533" data-name="Línea 533" y1="26.401" x2="45.609" transform="translate(4.901 2.846)" fill="none" stroke="#fff" stroke-linecap="round" stroke-linejoin="round" stroke-miterlimit="10" stroke-width="1.762"/>
              <line id="Línea_534" data-name="Línea 534" y1="20.314" x2="35.254" transform="translate(9.801 11.699)" fill="none" stroke="#fff" stroke-linecap="round" stroke-linejoin="round" stroke-miterlimit="10" stroke-width="1.762"/>
              <line id="Línea_535" data-name="Línea 535" y1="10.355" x2="17.943" transform="translate(14.702 24.504)" fill="none" stroke="#fff" stroke-linecap="round" stroke-linejoin="round" stroke-miterlimit="10" stroke-width="1.762"/>
            </g>
          </g>
        </g>
        <g id="Grupo_1076016" data-name="Grupo 1076016" transform="translate(128.585 84.646)">
          <path id="Trazado_824906" data-name="Trazado 824906" d="M184.123,197.9c-1.9,1.107-1.9,2.925,0,3.952l29.958,17.311a7.537,7.537,0,0,0,6.877,0l103.785-59.916c1.9-1.107,1.9-2.925,0-3.952L294.785,137.98a7.537,7.537,0,0,0-6.877,0Z" transform="translate(-182.7 -127.032)" fill="#223763" opacity="0.19"/>
          <path id="Trazado_824907" data-name="Trazado 824907" d="M184.123,185.1c-1.9,1.107-1.9,2.925,0,3.952l29.958,17.311a7.537,7.537,0,0,0,6.877,0l103.785-59.916c1.9-1.107,1.9-2.925,0-3.952L294.785,125.18a7.537,7.537,0,0,0-6.877,0Z" transform="translate(-182.7 -124.35)" fill="url(#linear-gradient-11)"/>
          <g id="Grupo_1076015" data-name="Grupo 1076015" transform="translate(28.821 16.619)">
            <path id="Trazado_824908" data-name="Trazado 824908" d="M223.54,194.138c-.079-.079-.158-.079-.158-.158q-.119-.356.474-.474l5.77-.869a1.541,1.541,0,0,1,.632.079.289.289,0,0,1,.158.4l-1.5,3.32-.158.158a.84.84,0,0,1-.632.079c-.158,0-.237-.079-.316-.079a.289.289,0,0,1-.158-.4l1.265-2.687-4.664.711a1.754,1.754,0,0,1-.711-.079m11.145-4.031,4.664-.711a1.541,1.541,0,0,1,.632.079c.079.079.158.079.158.158.079.158,0,.237-.158.4l-.316.079-5.77.869a1.541,1.541,0,0,1-.632-.079.289.289,0,0,1-.158-.4l1.5-3.32c.079-.237.474-.316.79-.237.158,0,.237.079.316.079a.289.289,0,0,1,.158.4l-1.186,2.687m-5.612,9.169c-.474-.316-.553-.79,0-1.107l13.754-7.983a2.014,2.014,0,0,1,1.9,0c.079.079.237.158.237.237,1.9,2.529,1.107,5.533-2.45,7.667-3.557,2.055-8.774,2.529-13.121,1.423a1.091,1.091,0,0,1-.316-.237m15.73-12.252c-5.928-3.4-15.414-3.4-21.263,0s-5.849,8.932.079,12.331,15.414,3.4,21.263,0,5.77-8.932-.079-12.331" transform="translate(-219.162 -153.569)" fill="#ffd000"/>
            <path id="Trazado_824909" data-name="Trazado 824909" d="M231.373,194.77a.84.84,0,0,0-.632-.079l-5.77.869c-.316.079-.553.237-.474.474a.17.17,0,0,0,.158.158.84.84,0,0,0,.632.079l4.664-.711-1.265,2.688c-.079.158,0,.237.158.4.079.079.158.079.316.079a1.541,1.541,0,0,0,.632-.079l.158-.158,1.5-3.32c.158-.158.079-.237-.079-.4" transform="translate(-220.277 -155.703)" fill="#223763"/>
            <path id="Trazado_824910" data-name="Trazado 824910" d="M243.69,190.124a.84.84,0,0,0-.632-.079l-4.664.711,1.265-2.687c.079-.158,0-.237-.158-.4-.079-.079-.158-.079-.316-.079a.81.81,0,0,0-.79.237l-1.5,3.32c-.079.158,0,.237.158.4a.84.84,0,0,0,.632.079l5.77-.869.316-.079a.289.289,0,0,0,.158-.4c-.079-.079-.158-.158-.237-.158" transform="translate(-222.871 -154.218)" fill="#223763"/>
            <path id="Trazado_824911" data-name="Trazado 824911" d="M247.248,191.637a2.014,2.014,0,0,0-1.9,0L231.6,199.621c-.553.316-.474.79,0,1.107.079.079.237.079.4.158,4.347,1.107,9.643.632,13.121-1.423,3.557-2.055,4.347-5.138,2.45-7.667-.079-.079-.237-.079-.316-.158" transform="translate(-221.687 -155.02)" fill="#fff"/>
            <path id="Trazado_824912" data-name="Trazado 824912" d="M261.171,174.7c-1.028-.553-1.344-1.344-.632-1.739a3.457,3.457,0,0,1,3.083.4c1.028.553,1.344,1.344.632,1.739a3.708,3.708,0,0,1-3.083-.4m6.007-3.478c-1.028-.553-1.344-1.423-.632-1.739a3.457,3.457,0,0,1,3.083.4c1.028.553,1.344,1.344.632,1.739a4.032,4.032,0,0,1-3.083-.4m-1.818,7.9c-.158-.079-.237-.237-.158-.316.4-1.66,1.739-3.162,3.873-4.426a18.572,18.572,0,0,1,7.588-2.213,1.172,1.172,0,0,1,.553.079c.079.079.158.158.158.237a.411.411,0,0,1-.158.316.592.592,0,0,1-.4.079,17.1,17.1,0,0,0-6.877,2.055,7.09,7.09,0,0,0-3.478,3.952.594.594,0,0,1-.711.316c-.158,0-.237-.079-.4-.079m13.042-11.7c-5.928-3.4-15.414-3.4-21.263,0s-5.849,8.932.079,12.331,15.414,3.4,21.263,0,5.77-8.853-.079-12.331" transform="translate(-226.204 -149.461)" fill="#d95757"/>
            <path id="Trazado_824913" data-name="Trazado 824913" d="M265.59,175.343a3.708,3.708,0,0,0-3.083-.4c-.632.4-.4,1.186.632,1.739a3.708,3.708,0,0,0,3.083.4c.711-.4.316-1.107-.632-1.739" transform="translate(-228.173 -151.531)" fill="#223763"/>
            <path id="Trazado_824914" data-name="Trazado 824914" d="M273.09,170.943a3.708,3.708,0,0,0-3.083-.4c-.632.4-.4,1.186.632,1.739a3.708,3.708,0,0,0,3.083.4c.711-.316.4-1.107-.632-1.739" transform="translate(-229.744 -150.609)" fill="#223763"/>
            <path id="Trazado_824915" data-name="Trazado 824915" d="M280.515,174.17a.649.649,0,0,0-.553-.079,18.946,18.946,0,0,0-7.588,2.213,7.618,7.618,0,0,0-3.873,4.426.411.411,0,0,0,.158.316.592.592,0,0,0,.4.079c.316,0,.711-.079.711-.316.316-1.5,1.581-2.846,3.478-3.952a17.1,17.1,0,0,1,6.877-2.055,3.422,3.422,0,0,0,.4-.079c.158-.079.237-.237.158-.316,0-.158-.079-.158-.158-.237" transform="translate(-229.502 -151.386)" fill="#223763"/>
            <path id="Trazado_824916" data-name="Trazado 824916" d="M294.771,155.117c-1.028-.553-1.344-1.344-.632-1.739a3.457,3.457,0,0,1,3.083.4c1.028.553,1.344,1.344.632,1.739a3.439,3.439,0,0,1-3.083-.4m6.007-3.4c-1.028-.553-1.344-1.423-.632-1.739a3.457,3.457,0,0,1,3.083.4c1.028.553,1.344,1.344.632,1.739a4.032,4.032,0,0,1-3.083-.4m-3.557,6.8c-.079-.079-.158-.158-.158-.237a.411.411,0,0,1,.158-.316.592.592,0,0,1,.4-.079,17.1,17.1,0,0,0,6.877-2.055,6.8,6.8,0,0,0,3.478-3.952.594.594,0,0,1,.711-.316,3.423,3.423,0,0,1,.4.079c.158.079.237.237.158.316-.4,1.66-1.739,3.162-3.873,4.426a18.573,18.573,0,0,1-7.588,2.213.468.468,0,0,1-.553-.079M312,147.924c-5.928-3.4-15.414-3.4-21.263,0s-5.849,8.932.079,12.331,15.414,3.4,21.263,0,5.77-8.932-.079-12.331" transform="translate(-233.245 -145.375)" fill="#ffd000"/>
            <path id="Trazado_824917" data-name="Trazado 824917" d="M299.19,155.843a3.708,3.708,0,0,0-3.083-.4c-.632.4-.4,1.186.632,1.739a3.708,3.708,0,0,0,3.083.4c.632-.4.316-1.186-.632-1.739" transform="translate(-235.214 -147.445)" fill="#223763"/>
            <path id="Trazado_824918" data-name="Trazado 824918" d="M306.69,151.443a3.708,3.708,0,0,0-3.083-.4c-.632.4-.4,1.186.632,1.739a3.708,3.708,0,0,0,3.083.4c.711-.4.4-1.186-.632-1.739" transform="translate(-236.785 -146.523)" fill="#223763"/>
            <path id="Trazado_824919" data-name="Trazado 824919" d="M311.807,153.379a.592.592,0,0,0-.4-.079c-.4,0-.711.079-.711.316-.316,1.5-1.581,2.846-3.478,3.952a17.1,17.1,0,0,1-6.877,2.055c-.158,0-.237.079-.4.079-.158.079-.237.158-.158.316,0,.079.079.158.158.237a.649.649,0,0,0,.553.079,18.946,18.946,0,0,0,7.588-2.213,7.617,7.617,0,0,0,3.873-4.426c.079-.158,0-.237-.158-.316" transform="translate(-236.052 -147.036)" fill="#223763"/>
          </g>
        </g>
        <g id="Grupo_1076020" data-name="Grupo 1076020" transform="translate(180.992 227.953)">
          <g id="Grupo_1076017" data-name="Grupo 1076017" transform="translate(0 8.142)" opacity="0.19">
            <path id="Trazado_824920" data-name="Trazado 824920" d="M253.743,350.848c-6.324,3.636-6.324,9.564,0,13.279l3.32,1.9c6.324,3.636,16.6,3.636,22.923,0l67.267-38.811-14.781-8.537c-6.324-3.636-16.6-3.636-22.923,0Z" transform="translate(-249 -315.95)" fill="#223763"/>
          </g>
          <g id="Grupo_1076019" data-name="Grupo 1076019">
            <path id="Trazado_824921" data-name="Trazado 824921" d="M253.743,340.548c-6.324,3.636-6.324,9.564,0,13.279l3.32,1.9c6.324,3.636,16.6,3.636,22.923,0l67.267-38.811-14.781-8.537c-6.324-3.636-16.6-3.636-22.923,0Z" transform="translate(-249 -305.65)" fill="url(#linear-gradient-12)"/>
            <g id="Grupo_1076018" data-name="Grupo 1076018" transform="translate(21.026 13.319)">
              <path id="Trazado_824922" data-name="Trazado 824922" d="M278.762,349.379l-1.423.79-1.028-.87-.711.4.553,1.107-.553.79.474.4.79-.474,2.292,2.055a2.4,2.4,0,0,0,.553.4,2.541,2.541,0,0,0,2.688-.079,1.418,1.418,0,0,0,.553-.4,1.388,1.388,0,0,0,.316-.4l-.949-.553a2.132,2.132,0,0,1-.632.553.79.79,0,0,1-.949,0,1.389,1.389,0,0,1-.4-.316l-2.292-2.055,1.423-.79-.711-.553" transform="translate(-275.6 -328.116)" fill="#adc7ff"/>
              <path id="Trazado_824923" data-name="Trazado 824923" d="M286.359,344.6l-1.265.79L286.517,348a11.41,11.41,0,0,0,.949,1.344h0c-.237-.158-.553-.316-.949-.553a5.2,5.2,0,0,0-.949-.474l-3.083-1.423-1.186.711,6.561,2.846.237.4a1.077,1.077,0,0,1,.158.79,1.063,1.063,0,0,1-.474.553,3.1,3.1,0,0,1-.711.316l.949.553a2.473,2.473,0,0,0,.79-.4,1.439,1.439,0,0,0,.632-2.213l-3.083-5.849" transform="translate(-276.794 -327.131)" fill="#adc7ff"/>
              <path id="Trazado_824924" data-name="Trazado 824924" d="M294.368,344.568a3.329,3.329,0,0,1-1.107-.949,1.542,1.542,0,0,1-.4-1.028.83.83,0,0,1,.4-.711,1.716,1.716,0,0,1,1.818.158,7.769,7.769,0,0,1,1.186.949,1.366,1.366,0,0,1,.474.949.691.691,0,0,1-.4.711,2.1,2.1,0,0,1-.949.237,1.914,1.914,0,0,1-1.028-.316m1.9-3.241a4.494,4.494,0,0,0-1.9-.632,2.382,2.382,0,0,0-1.66.4,1.437,1.437,0,0,0-.711,1.66h-.079l-.869-.632-.949.553,6.482,5.77,1.186-.711-1.9-1.66a6.915,6.915,0,0,0-.79-.632h.079a3.649,3.649,0,0,0,2.292-.237,1.687,1.687,0,0,0,.869-1.107,1.911,1.911,0,0,0-.474-1.423,4.561,4.561,0,0,0-1.581-1.344" transform="translate(-278.639 -326.309)" fill="#adc7ff"/>
              <path id="Trazado_824925" data-name="Trazado 824925" d="M300.1,336.665l-1.186.711,4.506,3.952,1.186-.711-4.506-3.952m-1.186-1.107a1.047,1.047,0,0,0-1.107,0c-.237.158-.4.316-.316.474,0,.158.158.316.4.474a1.489,1.489,0,0,0,.632.158,1.142,1.142,0,0,0,.553-.158c.237-.158.316-.237.316-.4-.158-.316-.237-.474-.474-.553" transform="translate(-280.184 -325.203)" fill="#adc7ff"/>
              <path id="Trazado_824926" data-name="Trazado 824926" d="M309.833,332.9a2.528,2.528,0,0,0-1.5-.4,2.73,2.73,0,0,0-1.423.4,3.019,3.019,0,0,0-.711.711,1.524,1.524,0,0,0,0,1.028h0l-.949-.632-.949.553,4.506,3.952,1.186-.711-1.9-1.66a2.8,2.8,0,0,1-.79-.949,2.06,2.06,0,0,1-.237-.869.594.594,0,0,1,.4-.553,1.358,1.358,0,0,1,1.344,0,2.523,2.523,0,0,1,.553.474l2.688,2.45,1.186-.711-2.687-2.371a2.013,2.013,0,0,0-.711-.711" transform="translate(-281.614 -324.596)" fill="#adc7ff"/>
              <path id="Trazado_824927" data-name="Trazado 824927" d="M319.117,333.456c-.237-.158-.4-.316-.4-.553a.956.956,0,0,1,.474-.711l.79-.4a3.633,3.633,0,0,1,1.028-.316,1.54,1.54,0,0,1,.632.079c.316.237.474.474.316.711a3.041,3.041,0,0,1-1.028.949,3.387,3.387,0,0,1-1.028.4,1.425,1.425,0,0,1-.79-.158m-3-3.4a4.383,4.383,0,0,1-.632-.474.753.753,0,0,1-.158-.553,1.054,1.054,0,0,1,.4-.474,1.512,1.512,0,0,1,1.423,0,2.131,2.131,0,0,1,.632.553.752.752,0,0,1,.158.553c0,.158-.158.316-.4.474a1.175,1.175,0,0,1-.711.158,1.82,1.82,0,0,1-.711-.237m1.739-3.557-1.976,1.107a4.839,4.839,0,0,0-.949.4c-.711.4-1.028.87-1.028,1.344a1.455,1.455,0,0,0,1.028,1.265,2.8,2.8,0,0,0,1.976.316,1.819,1.819,0,0,0-.237.711.584.584,0,0,0,.4.474,1.507,1.507,0,0,0,1.028.158,1.913,1.913,0,0,0-.474,1.028.844.844,0,0,0,.553.711,3.666,3.666,0,0,0,1.66.316,5.46,5.46,0,0,0,1.976-.711,3.538,3.538,0,0,0,1.66-1.581c.158-.474-.079-.949-.79-1.344a2.6,2.6,0,0,0-1.344-.316,4.435,4.435,0,0,0-1.739.474l-.711.316a3.859,3.859,0,0,0-.553.237.592.592,0,0,1-.4-.079c-.237-.158-.237-.316,0-.632l.474-.237c.711-.4,1.028-.79,1.028-1.265s-.316-.87-.949-1.265a2.832,2.832,0,0,0-.869-.316l.79-.632-.553-.474" transform="translate(-283.626 -323.338)" fill="#adc7ff"/>
              <path id="Trazado_824928" data-name="Trazado 824928" d="M327.66,328.358a1.344,1.344,0,0,0-1.265,0c-.316.158-.4.316-.4.553a.753.753,0,0,0,.474.553,1.489,1.489,0,0,0,.632.158,2.307,2.307,0,0,0,.711-.158c.237-.158.4-.316.4-.553a1.245,1.245,0,0,0-.553-.553" transform="translate(-286.162 -323.694)" fill="#adc7ff"/>
              <path id="Trazado_824929" data-name="Trazado 824929" d="M332.56,325.458a1.344,1.344,0,0,0-1.265,0c-.316.158-.4.316-.4.553a.753.753,0,0,0,.474.553,1.489,1.489,0,0,0,.632.158,2.308,2.308,0,0,0,.711-.158c.237-.158.4-.316.4-.553a1.847,1.847,0,0,0-.553-.553" transform="translate(-287.189 -323.087)" fill="#adc7ff"/>
              <path id="Trazado_824930" data-name="Trazado 824930" d="M337.46,322.658a1.344,1.344,0,0,0-1.265,0c-.316.158-.4.316-.4.553a.753.753,0,0,0,.474.553,1.489,1.489,0,0,0,.632.158,2.308,2.308,0,0,0,.711-.158c.237-.158.4-.316.4-.553a1.847,1.847,0,0,0-.553-.553" transform="translate(-288.215 -322.5)" fill="#adc7ff"/>
            </g>
          </g>
        </g>
        <g id="Grupo_1076022" data-name="Grupo 1076022" transform="translate(222.312 123.528)">
          <g id="Grupo_1076021" data-name="Grupo 1076021">
            <path id="Trazado_824931" data-name="Trazado 824931" d="M352.357,176.986a27.328,27.328,0,0,0-17.074-3.241c-14.307,1.581-14.149,11.3-14.149,11.3s-16.836-.079-19.524,8.221c-1.344,4.11,1.5,7.43,5.691,9.881a46.76,46.76,0,0,0,15.1,4.9,103.108,103.108,0,0,0,35.491-1.739c3.557-4.98,6.086-13.121,2.846-20.551-1.028-2.608-3.873-6.165-8.379-8.774" transform="translate(-301.275 -173.54)" fill="#d95757"/>
          </g>
          <path id="Trazado_824932" data-name="Trazado 824932" d="M321.135,188.1s-16.836-.079-19.524,8.221c-1.344,4.11,1.5,7.43,5.691,9.881a46.76,46.76,0,0,0,15.1,4.9,103.108,103.108,0,0,0,35.491-1.739Z" transform="translate(-301.275 -176.591)" fill="url(#linear-gradient-13)"/>
        </g>
      </g>
    </g>
  </g>
</svg>
