<svg id="Grupo_1074585" data-name="Grupo 1074585" xmlns="http://www.w3.org/2000/svg" width="67" height="67" viewBox="0 0 67 67">
  <circle id="Elipse_9669" data-name="Elipse 9669" cx="33.5" cy="33.5" r="33.5" fill="#ffce00"/>
  <g id="diseno" transform="translate(10 10)">
    <g id="Grupo_1073042" data-name="Grupo 1073042" transform="translate(0.794 41.299)">
      <path id="Trazado_819894" data-name="Trazado 819894" d="M51.59,52h4.3a1.588,1.588,0,1,1,0,3.177h-4.3Z" transform="translate(-11.411 -52)" fill="#a4bcce"/>
      <path id="Trazado_819895" data-name="Trazado 819895" d="M34.59,52H40.8v3.177H34.59Z" transform="translate(-7.913 -52)" fill="#a4bcce"/>
      <path id="Trazado_819896" data-name="Trazado 819896" d="M6.885,55.177h-4.3a1.553,1.553,0,0,1-1.12-.469A1.553,1.553,0,0,1,1,53.588,1.593,1.593,0,0,1,2.588,52h4.3Z" transform="translate(-1 -52)" fill="#a4bcce"/>
      <path id="Trazado_819897" data-name="Trazado 819897" d="M17.59,52H23.8v3.177H17.59Z" transform="translate(-4.414 -52)" fill="#a4bcce"/>
    </g>
    <ellipse id="Elipse_9676" data-name="Elipse 9676" cx="4" cy="3.5" rx="4" ry="3.5" transform="translate(6.284 39.26)" fill="#c5dcf0"/>
    <ellipse id="Elipse_9677" data-name="Elipse 9677" cx="4" cy="3.5" rx="4" ry="3.5" transform="translate(20.284 39.26)" fill="#c5dcf0"/>
    <ellipse id="Elipse_9678" data-name="Elipse 9678" cx="4.5" cy="3.5" rx="4.5" ry="3.5" transform="translate(32.284 39.26)" fill="#c5dcf0"/>
    <path id="Trazado_819898" data-name="Trazado 819898" d="M43.533,4.177v27a3.177,3.177,0,0,1-3.177,3.177H31.62l-6.354,4.765-6.354-4.765H10.177A3.177,3.177,0,0,1,7,31.18v-27A3.177,3.177,0,0,1,10.177,1h30.18A3.177,3.177,0,0,1,43.533,4.177Z" transform="translate(-1.44 -0.206)" fill="#6f79b2"/>
    <path id="Trazado_819899" data-name="Trazado 819899" d="M22.942,19.119H16.588A1.593,1.593,0,0,1,15,17.53V9.588A1.593,1.593,0,0,1,16.588,8H24.53a1.593,1.593,0,0,1,1.588,1.588v4.035Z" transform="translate(-3.087 -1.646)" fill="#81e4c5"/>
    <path id="Trazado_819900" data-name="Trazado 819900" d="M28.884,26.207a6.348,6.348,0,0,1-.707-11.349A6.235,6.235,0,0,1,31.354,14a6.33,6.33,0,0,1,4.225,1.612l-1.048,6.33Z" transform="translate(-5.145 -2.881)" fill="#eb7180"/>
    <path id="Trazado_819901" data-name="Trazado 819901" d="M35.959,23.16l5.027,7.767a1.939,1.939,0,0,1-1.644,2.986H28.955a1.939,1.939,0,0,1-1.644-2.986l5.2-8.037a1.94,1.94,0,0,1,2.017-.85Z" transform="translate(-5.557 -4.528)" fill="#8fe0ff"/>
    <path id="Trazado_819902" data-name="Trazado 819902" d="M50.638,3.152,52.319,1.47a1.579,1.579,0,0,1,2.248,0l2.248,2.24a1.592,1.592,0,0,1,0,2.248L55.129,7.643H53.443L50.638,4.478Z" transform="translate(-10.421 -0.206)" fill="#a04657"/>
    <path id="Trazado_819903" data-name="Trazado 819903" d="M42.072,20.927a1.326,1.326,0,0,1-.651.342l-4.432.937a.572.572,0,0,1-.683-.683l.937-4.44a1.288,1.288,0,0,1,.334-.643l3.193,1.376Z" transform="translate(-7.469 -3.383)" fill="#a87757"/>
    <path id="Trazado_819904" data-name="Trazado 819904" d="M50.736,9.534l-.477,1.493-7.839,7.847-.016.016L37.91,14.4,45.773,6.54h1.739Z" transform="translate(-7.802 -1.346)" fill="#f9cd5f"/>
    <path id="Trazado_819905" data-name="Trazado 819905" d="M54.549,8.2,50.056,3.71,47.81,5.956,52.3,10.449l0,0L54.547,8.2Z" transform="translate(-9.839 -0.763)" fill="#e4f0ff"/>
    <path id="Trazado_819906" data-name="Trazado 819906" d="M45.27,40.5H41.448a4.754,4.754,0,0,0-8.241,0H27.946a4.79,4.79,0,0,0-2.249-2l4.747-3.56h8.472a3.976,3.976,0,0,0,3.971-3.971V10.381l4.068-4.068a2.4,2.4,0,0,0,0-3.371L44.714.707A2.357,2.357,0,0,0,43.032,0h-.007a2.37,2.37,0,0,0-1.688.7l-.07.069A3.957,3.957,0,0,0,38.916,0H8.736A3.976,3.976,0,0,0,4.765,3.971V7.148a.794.794,0,1,0,1.588,0V3.971A2.383,2.383,0,0,1,8.736,1.588h30.18a2.367,2.367,0,0,1,1.2.338L30.37,11.668a7.041,7.041,0,0,0-6.544-.92V7.942a2.383,2.383,0,0,0-2.383-2.383H13.5a2.383,2.383,0,0,0-2.383,2.383v7.942A2.383,2.383,0,0,0,13.5,18.267H19.12A7.109,7.109,0,0,0,22.6,23.632L21.085,25.97a2.687,2.687,0,0,0-.1,2.78A2.746,2.746,0,0,0,23.4,30.18H33.785A2.746,2.746,0,0,0,36.2,28.75a2.688,2.688,0,0,0-.1-2.78l-4.4-6.793,2.427-.514a2.051,2.051,0,0,0,1.05-.572L41.3,11.969v19a2.383,2.383,0,0,1-2.383,2.383H30.18a.794.794,0,0,0-.477.159l-5.877,4.408-5.877-4.408a.794.794,0,0,0-.477-.159H8.736a2.383,2.383,0,0,1-2.383-2.383V11.119a.794.794,0,1,0-1.588,0V30.974a3.976,3.976,0,0,0,3.971,3.971h8.472l4.747,3.56a4.79,4.79,0,0,0-2.249,2H14.445a4.754,4.754,0,0,0-8.241,0H2.383A2.383,2.383,0,0,0,0,42.887,2.319,2.319,0,0,0,.693,44.56a2.333,2.333,0,0,0,1.689.709H6.2a4.754,4.754,0,0,0,8.241,0h5.261a4.754,4.754,0,0,0,8.241,0h5.261a4.754,4.754,0,0,0,8.241,0H45.27a2.383,2.383,0,1,0,0-4.765ZM42.461,8.561,39.094,5.193l1.123-1.124,3.368,3.368Zm.564-6.972a.673.673,0,0,1,.556.238l2.244,2.236a.8.8,0,0,1,0,1.127L44.708,6.314,41.34,2.946l1.12-1.119a.794.794,0,0,1,.565-.238Zm-12.607,12.9,2.754,2.755-3.494.737Zm-17.711,1.4V7.942a.794.794,0,0,1,.794-.794h7.942a.794.794,0,0,1,.794.794v3.612a7.13,7.13,0,0,0-3.124,5.124H13.5A.794.794,0,0,1,12.707,15.884Zm7.942,1.588a5.559,5.559,0,0,1,2.786-4.812,5.455,5.455,0,0,1,2.773-.747,5.535,5.535,0,0,1,3.067.931,2,2,0,0,0-.282.694L28.327,16.7a2.714,2.714,0,0,0-2.039,1.235l-2.825,4.364A5.536,5.536,0,0,1,20.649,17.472Zm14.113,9.357a1.121,1.121,0,0,1,.043,1.16,1.144,1.144,0,0,1-1.02.6H23.4a1.144,1.144,0,0,1-1.02-.6,1.119,1.119,0,0,1,.042-1.159l5.2-8.039a1.086,1.086,0,0,1,.42-.375,1.35,1.35,0,0,0,1.35,1.215,1.406,1.406,0,0,0,.287-.03l.355-.079Zm-.163-10.4-3.368-3.368L37.97,6.318l3.368,3.368ZM2.383,43.681a.776.776,0,0,1-.566-.244.762.762,0,0,1-.228-.55.794.794,0,0,1,.794-.794H5.631a4.448,4.448,0,0,0,0,1.588Zm7.942,2.383A3.177,3.177,0,1,1,13.5,42.887,3.177,3.177,0,0,1,10.325,46.064Zm4.694-2.383a4.448,4.448,0,0,0,0-1.588h4.114a4.448,4.448,0,0,0,0,1.588Zm8.808,2.383A3.177,3.177,0,1,1,27,42.887,3.177,3.177,0,0,1,23.826,46.064Zm4.694-2.383a4.447,4.447,0,0,0,0-1.588h4.114a4.447,4.447,0,0,0,0,1.588Zm8.808,2.383A3.177,3.177,0,1,1,40.5,42.887,3.177,3.177,0,0,1,37.328,46.064Zm7.942-2.383H42.021a4.447,4.447,0,0,0,0-1.588H45.27a.776.776,0,0,1,.566.244.762.762,0,0,1,.228.55A.794.794,0,0,1,45.27,43.681Z" transform="translate(0 0)"/>
  </g>
</svg>
