<svg xmlns="http://www.w3.org/2000/svg" xmlns:xlink="http://www.w3.org/1999/xlink" width="402" height="384.341" viewBox="0 0 402 384.341">
  <defs>
    <linearGradient id="linear-gradient" x1="0.5" y1="1" x2="0.5" gradientUnits="objectBoundingBox">
      <stop offset="0" stop-color="#3d1f81"/>
      <stop offset="1" stop-color="#6b34a6"/>
    </linearGradient>
  </defs>
  <g id="Objects_1_" transform="translate(-90.122 -77.241)">
    <g id="Grupo_1076277" data-name="Grupo 1076277" transform="translate(91.122 77.241)">
      <g id="Grupo_1076232" data-name="Grupo 1076232" transform="translate(285.975 99.897)">
        <path id="Trazado_825206" data-name="Trazado 825206" d="M354.663,214.133c-2.076,2.834-1.865,6.627-.987,9.863a41.276,41.276,0,0,0,4.763,10.712c1.085,1.772,2.161,3.6,3.38,5.289.515.713,1.977,2.057,1.867,3.027a1.694,1.694,0,0,0,.409,1.581,1.779,1.779,0,0,0,.361.317s0,0,0,0c.034.022.068.044.1.063a.353.353,0,0,0,.051.031c.019.011.035.02.054.028.036.017.072.035.109.051h0a1.768,1.768,0,0,0,.462.134,1.691,1.691,0,0,0,1.55-.505c.842-.684,3.122-.059,4.117-.052,2.1.014,4.2.059,6.294-.015a37.642,37.642,0,0,0,11.488-1.9c3.146-1.149,6.448-3.021,7.486-6.442a9.42,9.42,0,0,0-.067-5.45,13.069,13.069,0,0,1-.955-3.9c.048-1.429,5.929-1.912,7.208-2.3,3.338-1.02,6.725-2.774,8.07-6.2,1.2-3.059.516-6.969-2.2-9.007a22.758,22.758,0,0,0-5.647-2.838,51.412,51.412,0,0,0,3.957-5.046,44.874,44.874,0,0,0,6.049-10.256c.893-2.362,2.474-5.912.295-8.093-1.7-1.707-4.406-1.407-6.88-.651.69-1.093,1.365-2.2,1.976-3.332,1.755-3.257,1.7-7.492-1.711-9.57a1.341,1.341,0,0,0-.3-.132,1.306,1.306,0,0,0-.273-.182c-3.666-1.795-7.316.578-9.087,3.892q-.888,1.666-1.69,3.371c-.069-.224-.129-.448-.205-.668-.883-2.584-2.887-6.041-6.162-4.645-2.923,1.248-4.947,4.695-6.392,7.362a71.008,71.008,0,0,0-4.694,10.879c-.209.614-.643,1.636-.977,2.724a16.848,16.848,0,0,0-5.766-3.28,7.984,7.984,0,0,0-8.671,3.506c-1.888,3.076-1.549,6.923-.455,10.226.444,1.342,3.106,6.185,1.565,6.975a42.584,42.584,0,0,1-4.074,1.3A9.437,9.437,0,0,0,354.663,214.133Z" transform="translate(-353.043 -168.735)" fill="#bc74e1"/>
        <path id="Trazado_825207" data-name="Trazado 825207" d="M379.058,192.243a.815.815,0,1,1,1.378-.871l5.98,9.467,5.626-10.271-6.461-10.233a.815.815,0,1,1,1.378-.871l5.978,9.47q3.12-5.7,6.241-11.39c.008-.015.016-.029.023-.043a.816.816,0,0,1,1.431.783c-.009.014-.016.028-.024.044l-6.242,11.389,11.2-.058a.815.815,0,0,1,.009,1.63l-12.1.061-5.627,10.271,11.2-.059a.816.816,0,1,1,.008,1.631l-12.1.062q-3.032,5.531-6.062,11.063l11.2-.056a.816.816,0,0,1,.009,1.631l-12.1.061q-3.3,6.027-6.6,12.051l11.2-.057a.815.815,0,1,1,.01,1.63l-12.1.061q-2.943,5.375-5.889,10.75a.816.816,0,0,1-1.431-.784l5.89-10.749L364.6,218.624a.815.815,0,0,1,1.378-.871l5.98,9.467q3.3-6.024,6.6-12.048L372.1,204.939a.815.815,0,1,1,1.379-.87l5.978,9.467q3.033-5.531,6.062-11.063Z" transform="translate(-351.993 -167.968)" fill="#a364c8"/>
      </g>
      <g id="Grupo_1076233" data-name="Grupo 1076233" transform="translate(38.969)">
        <path id="Trazado_825208" data-name="Trazado 825208" d="M136.464,96.811h-9.651l8.415-19.57h9.651Z" transform="translate(-126.813 -77.241)" fill="#6833a3"/>
        <path id="Trazado_825209" data-name="Trazado 825209" d="M149.284,96.811h-9.651l8.416-19.57H157.7Z" transform="translate(-125.636 -77.241)" fill="#6833a3"/>
        <path id="Trazado_825210" data-name="Trazado 825210" d="M162.1,96.811h-9.651l8.416-19.57h9.651Z" transform="translate(-124.458 -77.241)" fill="#6833a3"/>
        <path id="Trazado_825211" data-name="Trazado 825211" d="M174.924,96.811h-9.651l8.415-19.57h9.652Z" transform="translate(-123.281 -77.241)" fill="#6833a3" opacity="0.4"/>
        <path id="Trazado_825212" data-name="Trazado 825212" d="M187.745,96.811h-9.651l8.415-19.57h9.652Z" transform="translate(-122.103 -77.241)" fill="#6833a3" opacity="0.4"/>
        <path id="Trazado_825213" data-name="Trazado 825213" d="M200.565,96.811h-9.651l8.416-19.57h9.651Z" transform="translate(-120.926 -77.241)" fill="#6833a3" opacity="0.4"/>
        <path id="Trazado_825214" data-name="Trazado 825214" d="M213.386,96.811h-9.652l8.416-19.57H221.8Z" transform="translate(-119.749 -77.241)" fill="#6833a3" opacity="0.4"/>
      </g>
      <g id="Grupo_1076235" data-name="Grupo 1076235" transform="translate(309.015 21.2)">
        <path id="Trazado_825215" data-name="Trazado 825215" d="M430.18,133.894a8.075,8.075,0,0,1-8.074,8.075H382.22a8.075,8.075,0,0,1-8.075-8.075V104.733a8.075,8.075,0,0,1,8.075-8.075h39.886a8.075,8.075,0,0,1,8.074,8.075Z" transform="translate(-374.145 -96.658)" fill="none" stroke="#6833a3" stroke-miterlimit="10" stroke-width="1"/>
        <g id="Grupo_1076234" data-name="Grupo 1076234" transform="translate(20.072 14.711)">
          <rect id="Rectángulo_383596" data-name="Rectángulo 383596" width="15.89" height="4.221" transform="translate(0 5.834)" fill="#6833a3"/>
          <rect id="Rectángulo_383597" data-name="Rectángulo 383597" width="4.22" height="15.888" transform="translate(5.835)" fill="#6833a3"/>
        </g>
      </g>
      <path id="Trazado_825216" data-name="Trazado 825216" d="M151.145,144.023v-4.26h-6.151a8.89,8.89,0,0,0-1.032-2.485l4.352-4.352-3.012-3.013-4.352,4.352a8.847,8.847,0,0,0-2.485-1.033v-6.153H134.2v6.153a8.824,8.824,0,0,0-2.484,1.032l-4.353-4.353-3.013,3.013,4.353,4.353a8.886,8.886,0,0,0-1.033,2.484H121.52v4.261h6.153a8.838,8.838,0,0,0,1.032,2.484l-4.352,4.353,3.013,3.013,4.352-4.353a8.853,8.853,0,0,0,2.484,1.033V156.7h4.26v-6.153a8.851,8.851,0,0,0,2.486-1.032l4.352,4.352,3.013-3.012-4.352-4.352a8.847,8.847,0,0,0,1.033-2.485h6.15Zm-14.812,1.927a4.058,4.058,0,1,1,4.057-4.058A4.062,4.062,0,0,1,136.333,145.95Z" transform="translate(-88.33 -72.664)" fill="#6833a3"/>
      <path id="Trazado_825217" data-name="Trazado 825217" d="M259.642,90.54V87.982h-3.694a5.351,5.351,0,0,0-.619-1.493l2.614-2.613-1.809-1.809-2.613,2.614a5.3,5.3,0,0,0-1.491-.62V80.366H249.47v3.695a5.33,5.33,0,0,0-1.491.619l-2.614-2.614-1.809,1.809,2.614,2.614a5.3,5.3,0,0,0-.619,1.491h-3.695V90.54h3.695a5.316,5.316,0,0,0,.619,1.491l-2.614,2.614,1.809,1.809,2.614-2.614a5.306,5.306,0,0,0,1.491.62v3.694h2.558V94.461a5.34,5.34,0,0,0,1.493-.62l2.613,2.613,1.809-1.809-2.614-2.613a5.326,5.326,0,0,0,.62-1.493h3.693ZM250.748,91.7a2.436,2.436,0,1,1,2.436-2.436A2.438,2.438,0,0,1,250.748,91.7Z" transform="translate(-77.279 -76.954)" fill="#bc74e1"/>
      <g id="Grupo_1076238" data-name="Grupo 1076238" transform="translate(85.177 38.779)">
        <path id="Trazado_825218" data-name="Trazado 825218" d="M363.845,117.311H181.651a12.463,12.463,0,0,0-2.986.373l-.488-2.038-4.842,4.846a12.5,12.5,0,0,0-1.027,1.027l-.108.108v.011a12.451,12.451,0,0,0-3.066,8.19V445.538a12.517,12.517,0,0,0,12.518,12.517H363.846a12.516,12.516,0,0,0,12.517-12.517V129.829A12.519,12.519,0,0,0,363.845,117.311Z" transform="translate(-169.134 -112.493)" fill="#7ca1d6"/>
        <g id="Grupo_1076237" data-name="Grupo 1076237" transform="translate(4.818)">
          <path id="Trazado_825219" data-name="Trazado 825219" d="M380.776,440.984A12.517,12.517,0,0,1,368.258,453.5H186.064a12.517,12.517,0,0,1-12.517-12.517V125.275a12.517,12.517,0,0,1,12.517-12.517H368.258a12.518,12.518,0,0,1,12.518,12.517Z" transform="translate(-173.547 -112.758)" fill="url(#linear-gradient)"/>
          <g id="Grupo_1076236" data-name="Grupo 1076236" transform="translate(65.752 17.1)">
            <path id="Trazado_825220" data-name="Trazado 825220" d="M307.8,132.971a2.69,2.69,0,0,1-2.69,2.69H236.458a2.69,2.69,0,0,1-2.69-2.69h0a2.69,2.69,0,0,1,2.69-2.689h68.653a2.688,2.688,0,0,1,2.69,2.689Z" transform="translate(-233.768 -128.249)" fill="#fff"/>
            <path id="Trazado_825221" data-name="Trazado 825221" d="M320.513,133.142a4.723,4.723,0,1,1-4.722-4.722A4.723,4.723,0,0,1,320.513,133.142Z" transform="translate(-226.669 -128.42)" fill="#fff"/>
          </g>
        </g>
      </g>
      <g id="Grupo_1076239" data-name="Grupo 1076239" transform="translate(14.769 94.904)">
        <path id="Trazado_825222" data-name="Trazado 825222" d="M251.485,226.641a10.832,10.832,0,0,1-10.832,10.832H115.481a10.832,10.832,0,0,1-10.832-10.832V178.305a10.832,10.832,0,0,1,10.832-10.832H240.653a10.832,10.832,0,0,1,10.832,10.832Z" transform="translate(-104.649 -163.858)" fill="#5b8cdd"/>
        <path id="Trazado_825223" data-name="Trazado 825223" d="M254.795,223.33a10.832,10.832,0,0,1-10.832,10.832H118.791a10.832,10.832,0,0,1-10.832-10.832V174.994a10.832,10.832,0,0,1,10.832-10.832H243.963a10.832,10.832,0,0,1,10.832,10.832Z" transform="translate(-104.345 -164.162)" fill="#a9c7f9"/>
        <text id="_" data-name="&lt;/&gt;" transform="translate(33.847 48.922)" fill="#fff" font-size="42" font-family="Montserrat-Regular, Montserrat"><tspan x="0" y="0">&lt;/&gt;</tspan></text>
      </g>
      <g id="Grupo_1076240" data-name="Grupo 1076240" transform="translate(183.509 88.563)">
        <rect id="Rectángulo_383598" data-name="Rectángulo 383598" width="100.33" height="6.447" fill="#fff" opacity="0.4"/>
        <rect id="Rectángulo_383599" data-name="Rectángulo 383599" width="42.351" height="6.447" transform="translate(57.979 11.902)" fill="#fff" opacity="0.4"/>
        <rect id="Rectángulo_383600" data-name="Rectángulo 383600" width="17.176" height="6.446" transform="translate(83.153 43.147)" fill="#fff" opacity="0.4"/>
        <rect id="Rectángulo_383601" data-name="Rectángulo 383601" width="74.158" height="6.447" transform="translate(26.172 24.916)" fill="#fff" opacity="0.4"/>
        <rect id="Rectángulo_383602" data-name="Rectángulo 383602" width="67.243" height="6.446" transform="translate(4.46 43.147)" fill="#fff" opacity="0.4"/>
      </g>
      <path id="Trazado_825224" data-name="Trazado 825224" d="M289.393,221.481v45.737H217.271v44.531" transform="translate(-79.537 -63.994)" fill="none" stroke="#402083" stroke-miterlimit="10" stroke-width="4" opacity="0.4"/>
      <path id="Trazado_825225" data-name="Trazado 825225" d="M307.467,371.056V321.59H262.935" transform="translate(-75.343 -54.8)" fill="none" stroke="#402083" stroke-miterlimit="10" stroke-width="4" opacity="0.4"/>
      <g id="Grupo_1076241" data-name="Grupo 1076241" transform="translate(58.44 229.237)">
        <path id="Trazado_825226" data-name="Trazado 825226" d="M274.616,349.673A10.832,10.832,0,0,1,263.783,360.5h-108.3a10.832,10.832,0,0,1-10.832-10.832V301.337a10.832,10.832,0,0,1,10.832-10.832h108.3a10.833,10.833,0,0,1,10.833,10.832Z" transform="translate(-144.646 -286.892)" fill="#008487"/>
        <path id="Trazado_825227" data-name="Trazado 825227" d="M277.925,346.364A10.832,10.832,0,0,1,267.092,357.2h-108.3a10.832,10.832,0,0,1-10.832-10.832V298.028A10.832,10.832,0,0,1,158.787,287.2h108.3a10.833,10.833,0,0,1,10.833,10.832Z" transform="translate(-144.342 -287.196)" fill="#00cbdc"/>
        <text id="C_" data-name="C++" transform="translate(29.157 47.845)" fill="#fff" font-size="35" font-family="Montserrat-Regular, Montserrat"><tspan x="0" y="0">C++</tspan></text>
      </g>
      <g id="Grupo_1076256" data-name="Grupo 1076256" transform="translate(245.117 226.589)">
        <g id="Grupo_1076255" data-name="Grupo 1076255">
          <g id="Grupo_1076254" data-name="Grupo 1076254">
            <g id="Grupo_1076244" data-name="Grupo 1076244">
              <g id="Grupo_1076243" data-name="Grupo 1076243">
                <g id="Grupo_1076242" data-name="Grupo 1076242">
                  <rect id="Rectángulo_383603" data-name="Rectángulo 383603" width="24.564" height="22.417" fill="none"/>
                </g>
                <rect id="Rectángulo_383604" data-name="Rectángulo 383604" width="2.457" height="4.161" transform="translate(10.695 16.599)" fill="#fff"/>
                <rect id="Rectángulo_383605" data-name="Rectángulo 383605" width="2.457" height="4.16" transform="translate(10.695 9.137)" fill="#fff"/>
                <rect id="Rectángulo_383606" data-name="Rectángulo 383606" width="2.457" height="4.16" transform="translate(10.695 1.698)" fill="#fff"/>
              </g>
            </g>
            <g id="Grupo_1076247" data-name="Grupo 1076247" transform="translate(0 22.417)">
              <g id="Grupo_1076246" data-name="Grupo 1076246">
                <g id="Grupo_1076245" data-name="Grupo 1076245">
                  <rect id="Rectángulo_383607" data-name="Rectángulo 383607" width="24.564" height="22.415" fill="none"/>
                </g>
                <rect id="Rectángulo_383608" data-name="Rectángulo 383608" width="2.457" height="4.16" transform="translate(10.695 16.599)" fill="#fff"/>
                <rect id="Rectángulo_383609" data-name="Rectángulo 383609" width="2.457" height="4.161" transform="translate(10.695 9.137)" fill="#fff"/>
                <rect id="Rectángulo_383610" data-name="Rectángulo 383610" width="2.457" height="4.161" transform="translate(10.695 1.698)" fill="#fff"/>
              </g>
            </g>
            <g id="Grupo_1076250" data-name="Grupo 1076250" transform="translate(0 44.832)">
              <g id="Grupo_1076249" data-name="Grupo 1076249">
                <g id="Grupo_1076248" data-name="Grupo 1076248">
                  <rect id="Rectángulo_383611" data-name="Rectángulo 383611" width="24.564" height="22.417" fill="none"/>
                </g>
                <rect id="Rectángulo_383612" data-name="Rectángulo 383612" width="2.457" height="4.161" transform="translate(10.695 16.6)" fill="#fff"/>
                <rect id="Rectángulo_383613" data-name="Rectángulo 383613" width="2.457" height="4.16" transform="translate(10.695 9.138)" fill="#fff"/>
                <rect id="Rectángulo_383614" data-name="Rectángulo 383614" width="2.457" height="4.162" transform="translate(10.695 1.699)" fill="#fff"/>
              </g>
            </g>
            <g id="Grupo_1076253" data-name="Grupo 1076253" transform="translate(0 67.249)">
              <g id="Grupo_1076252" data-name="Grupo 1076252">
                <g id="Grupo_1076251" data-name="Grupo 1076251">
                  <rect id="Rectángulo_383615" data-name="Rectángulo 383615" width="24.564" height="22.417" fill="none"/>
                </g>
                <rect id="Rectángulo_383616" data-name="Rectángulo 383616" width="2.457" height="4.162" transform="translate(10.695 16.599)" fill="#fff"/>
                <rect id="Rectángulo_383617" data-name="Rectángulo 383617" width="2.457" height="4.162" transform="translate(10.695 9.136)" fill="#fff"/>
                <rect id="Rectángulo_383618" data-name="Rectángulo 383618" width="2.457" height="4.162" transform="translate(10.695 1.699)" fill="#fff"/>
              </g>
            </g>
          </g>
        </g>
      </g>
      <g id="Grupo_1076257" data-name="Grupo 1076257" transform="translate(237.737 167.621)">
        <path id="Trazado_825228" data-name="Trazado 825228" d="M455.7,293.242a10.831,10.831,0,0,1-10.832,10.832H319.694a10.831,10.831,0,0,1-10.832-10.832V244.906a10.832,10.832,0,0,1,10.832-10.832H444.866A10.832,10.832,0,0,1,455.7,244.906Z" transform="translate(-308.862 -230.459)" fill="#235098"/>
        <path id="Trazado_825229" data-name="Trazado 825229" d="M459.008,289.931a10.832,10.832,0,0,1-10.832,10.832H323.005a10.833,10.833,0,0,1-10.833-10.832V241.6a10.833,10.833,0,0,1,10.833-10.832H448.177A10.832,10.832,0,0,1,459.009,241.6v48.336Z" transform="translate(-308.558 -230.763)" fill="#4883ed"/>
        <text id="JAVA" transform="translate(27.452 44.642)" fill="#fff" font-size="30" font-family="Montserrat-Regular, Montserrat"><tspan x="0" y="0">JAVA</tspan></text>
      </g>
      <g id="Grupo_1076275" data-name="Grupo 1076275" transform="translate(114.756 180.002)">
        <g id="Grupo_1076269" data-name="Grupo 1076269" transform="translate(11.078)">
          <g id="Grupo_1076268" data-name="Grupo 1076268">
            <g id="Grupo_1076267" data-name="Grupo 1076267">
              <g id="Grupo_1076260" data-name="Grupo 1076260">
                <g id="Grupo_1076259" data-name="Grupo 1076259">
                  <g id="Grupo_1076258" data-name="Grupo 1076258">
                    <rect id="Rectángulo_383619" data-name="Rectángulo 383619" width="19.736" height="24.564" fill="none"/>
                  </g>
                  <rect id="Rectángulo_383620" data-name="Rectángulo 383620" width="3.663" height="2.457" transform="translate(14.614 11.414)" fill="#fff"/>
                  <rect id="Rectángulo_383621" data-name="Rectángulo 383621" width="3.663" height="2.457" transform="translate(8.044 11.414)" fill="#fff"/>
                  <rect id="Rectángulo_383622" data-name="Rectángulo 383622" width="3.663" height="2.457" transform="translate(1.495 11.414)" fill="#fff"/>
                </g>
              </g>
              <g id="Grupo_1076263" data-name="Grupo 1076263" transform="translate(19.736)">
                <g id="Grupo_1076262" data-name="Grupo 1076262">
                  <g id="Grupo_1076261" data-name="Grupo 1076261">
                    <rect id="Rectángulo_383623" data-name="Rectángulo 383623" width="19.736" height="24.564" fill="none"/>
                  </g>
                  <rect id="Rectángulo_383624" data-name="Rectángulo 383624" width="3.663" height="2.457" transform="translate(14.614 11.414)" fill="#fff"/>
                  <rect id="Rectángulo_383625" data-name="Rectángulo 383625" width="3.663" height="2.457" transform="translate(8.044 11.414)" fill="#fff"/>
                  <rect id="Rectángulo_383626" data-name="Rectángulo 383626" width="3.663" height="2.457" transform="translate(1.495 11.414)" fill="#fff"/>
                </g>
              </g>
              <g id="Grupo_1076266" data-name="Grupo 1076266" transform="translate(39.471)">
                <g id="Grupo_1076265" data-name="Grupo 1076265">
                  <g id="Grupo_1076264" data-name="Grupo 1076264">
                    <rect id="Rectángulo_383627" data-name="Rectángulo 383627" width="19.736" height="24.564" fill="none"/>
                  </g>
                  <rect id="Rectángulo_383628" data-name="Rectángulo 383628" width="3.662" height="2.457" transform="translate(14.615 11.414)" fill="#fff"/>
                  <rect id="Rectángulo_383629" data-name="Rectángulo 383629" width="3.663" height="2.457" transform="translate(8.045 11.414)" fill="#fff"/>
                  <rect id="Rectángulo_383630" data-name="Rectángulo 383630" width="3.663" height="2.457" transform="translate(1.496 11.414)" fill="#fff"/>
                </g>
              </g>
            </g>
          </g>
        </g>
        <g id="Grupo_1076274" data-name="Grupo 1076274" transform="translate(0 17.103)">
          <g id="Grupo_1076273" data-name="Grupo 1076273">
            <g id="Grupo_1076272" data-name="Grupo 1076272">
              <g id="Grupo_1076271" data-name="Grupo 1076271">
                <g id="Grupo_1076270" data-name="Grupo 1076270">
                  <rect id="Rectángulo_383631" data-name="Rectángulo 383631" width="24.564" height="24.071" fill="none"/>
                </g>
                <rect id="Rectángulo_383632" data-name="Rectángulo 383632" width="2.457" height="4.468" transform="translate(11.413 1.779)" fill="#fff"/>
                <rect id="Rectángulo_383633" data-name="Rectángulo 383633" width="2.457" height="4.469" transform="translate(11.413 9.791)" fill="#fff"/>
                <rect id="Rectángulo_383634" data-name="Rectángulo 383634" width="2.457" height="4.469" transform="translate(11.413 17.778)" fill="#fff"/>
              </g>
            </g>
          </g>
        </g>
      </g>
      <g id="Grupo_1076276" data-name="Grupo 1076276" transform="translate(122.192 326.895)">
        <rect id="Rectángulo_383635" data-name="Rectángulo 383635" width="149.65" height="22.675" fill="#fff" opacity="0.4"/>
        <text id="CONNECTED" transform="translate(17.958 16.155)" fill="#fff" font-size="13" font-family="Montserrat-Regular, Montserrat" opacity="0.4"><tspan x="0" y="0">CONNECTED</tspan></text>
      </g>
      <path id="Trazado_825230" data-name="Trazado 825230" d="M438.293,201.607a5.389,5.389,0,1,1-5.388-5.389A5.389,5.389,0,0,1,438.293,201.607Z" transform="translate(-60.228 -66.314)" fill="none" stroke="#6833a3" stroke-miterlimit="10" stroke-width="3"/>
      <path id="Trazado_825231" data-name="Trazado 825231" d="M458.139,161.638A3.938,3.938,0,1,1,454.2,157.7,3.938,3.938,0,0,1,458.139,161.638Z" transform="translate(-58.139 -69.852)" fill="none" stroke="#6833a3" stroke-miterlimit="10" stroke-width="2"/>
      <path id="Trazado_825232" data-name="Trazado 825232" d="M99,119.673a3.937,3.937,0,1,1-3.937-3.938A3.937,3.937,0,0,1,99,119.673Z" transform="translate(-91.122 -73.706)" fill="none" stroke="#6833a3" stroke-miterlimit="10" stroke-width="2"/>
    </g>
  </g>
</svg>
