<svg xmlns="http://www.w3.org/2000/svg" width="586" height="297" viewBox="0 0 586 297">
  <g id="Grupo_1076290" data-name="Grupo 1076290" transform="translate(-810 -1220)">
    <rect id="Rectángulo_383391" data-name="Rectángulo 383391" width="586" height="297" transform="translate(810 1220)" fill="#f3f9ff"/>
    <g id="Grupo_1075624" data-name="Grupo 1075624">
      <path id="Trazado_825305" data-name="Trazado 825305" d="M8.235,14.609H4.008L3.27,17h-3.3L4.667,4.2h2.9L12.3,17H8.982ZM4.746,12.228H7.5L6.117,7.789Zm14.1-2.057-.976-.07a1.752,1.752,0,0,0-1.793.879V17H13.113V7.49h2.777l.1,1.222a2.294,2.294,0,0,1,2.083-1.4,2.888,2.888,0,0,1,.826.105ZM23.8,5.126V7.49h1.564V9.547H23.8V13.9a1.111,1.111,0,0,0,.193.747,1.037,1.037,0,0,0,.765.211A4.345,4.345,0,0,0,25.5,14.8v2.118a5.466,5.466,0,0,1-1.67.255,3.1,3.1,0,0,1-2.259-.721,2.954,2.954,0,0,1-.729-2.188V9.547H19.626V7.49h1.213V5.126ZM29.654,17H26.684V7.49h2.971ZM26.508,5.029a1.334,1.334,0,0,1,.457-1.043,1.934,1.934,0,0,1,2.373,0,1.334,1.334,0,0,1,.457,1.043,1.334,1.334,0,0,1-.457,1.043,1.934,1.934,0,0,1-2.373,0A1.334,1.334,0,0,1,26.508,5.029ZM32.133,17V9.547h-1.38V7.49h1.38V6.734a3.286,3.286,0,0,1,.958-2.522,3.785,3.785,0,0,1,2.689-.9,5.89,5.89,0,0,1,1.389.185l.009,2.18a2.706,2.706,0,0,0-.729-.079Q35.1,5.6,35.1,6.761V7.49h1.854V9.547H35.1V17Zm11.224,0a3.344,3.344,0,0,1-.281-.853,2.754,2.754,0,0,1-2.285,1.028,3.374,3.374,0,0,1-2.285-.813,2.588,2.588,0,0,1-.94-2.043,2.66,2.66,0,0,1,1.143-2.338,5.821,5.821,0,0,1,3.322-.791h.914v-.5q0-1.316-1.134-1.316a.927.927,0,0,0-1.055,1.042H37.793a2.655,2.655,0,0,1,1.173-2.239,4.931,4.931,0,0,1,2.993-.86,4.323,4.323,0,0,1,2.874.888,3.086,3.086,0,0,1,1.081,2.435v4.21a4.311,4.311,0,0,0,.4,2V17ZM41.5,15.066a1.652,1.652,0,0,0,.918-.237,1.487,1.487,0,0,0,.523-.536V12.772h-.861q-1.547,0-1.547,1.389a.848.848,0,0,0,.272.655A.986.986,0,0,0,41.5,15.066Zm10.072-.176a1.317,1.317,0,0,0,.967-.338,1.241,1.241,0,0,0,.334-.945h2.777a3.288,3.288,0,0,1-1.121,2.566,4.168,4.168,0,0,1-2.887,1,4.22,4.22,0,0,1-3.27-1.3,5.125,5.125,0,0,1-1.2-3.6v-.123A5.792,5.792,0,0,1,47.711,9.6a3.872,3.872,0,0,1,1.534-1.7,4.573,4.573,0,0,1,2.373-.593,4.116,4.116,0,0,1,2.944,1.028,3.647,3.647,0,0,1,1.09,2.786H52.875A1.626,1.626,0,0,0,52.515,10a1.244,1.244,0,0,0-.967-.4Q50.4,9.6,50.2,11.067a10.357,10.357,0,0,0-.062,1.283,4.068,4.068,0,0,0,.343,1.986A1.187,1.187,0,0,0,51.574,14.891Zm8.78-9.765V7.49h1.564V9.547H60.354V13.9a1.111,1.111,0,0,0,.193.747,1.037,1.037,0,0,0,.765.211,4.345,4.345,0,0,0,.738-.053v2.118a5.466,5.466,0,0,1-1.67.255,3.1,3.1,0,0,1-2.259-.721,2.954,2.954,0,0,1-.729-2.188V9.547H56.18V7.49h1.213V5.126Z" transform="translate(1085.565 1306)" fill="#12263f"/>
      <g id="Rectángulo_383382" data-name="Rectángulo 383382" transform="translate(915 1272)" fill="none" stroke="#273a89" stroke-linecap="round" stroke-width="2">
        <rect width="400" height="90" stroke="none"/>
        <rect x="1" y="1" width="398" height="88" fill="none"/>
      </g>
      <g id="Rectángulo_383383" data-name="Rectángulo 383383" transform="translate(1275 1283)" fill="none" stroke="#273a89" stroke-width="2">
        <rect width="24" height="34" stroke="none"/>
        <rect x="1" y="1" width="22" height="32" fill="none"/>
      </g>
      <line id="Línea_474" data-name="Línea 474" y2="5" transform="translate(1292.5 1284.5)" fill="none" stroke="#273a89" stroke-width="1"/>
      <line id="Línea_475" data-name="Línea 475" x2="5" transform="translate(1292.5 1289.5)" fill="none" stroke="#273a89" stroke-linecap="round" stroke-width="1"/>
    </g>
  </g>
</svg>
