<svg xmlns="http://www.w3.org/2000/svg" width="610" height="270" viewBox="0 0 610 270">
  <g id="Grupo_1076388" data-name="Grupo 1076388" transform="translate(-495 -1713)">
    <rect id="Rectángulo_383330" data-name="Rectángulo 383330" width="610" height="270" rx="18" transform="translate(495 1713)" fill="#e1f6ef"/>
    <line id="Línea_432" data-name="Línea 432" x2="107" transform="translate(686 1876)" fill="none" stroke="#273a89" stroke-linecap="round" stroke-width="3"/>
    <line id="Línea_439" data-name="Línea 439" x2="107" transform="translate(980 1788)" fill="none" stroke="#273a89" stroke-linecap="round" stroke-width="3"/>
    <line id="Línea_437" data-name="Línea 437" x2="26" transform="translate(1061 1900)" fill="none" stroke="#273a89" stroke-linecap="round" stroke-width="3"/>
    <path id="Polígono_98" data-name="Polígono 98" d="M6.5,0,13,12H0Z" transform="translate(805 1870) rotate(90)" fill="#273a89"/>
    <path id="Polígono_100" data-name="Polígono 100" d="M6.5,0,13,12H0Z" transform="translate(986.5 1817.5) rotate(180)" fill="#273a89"/>
    <path id="Trazado_825598" data-name="Trazado 825598" d="M-133.08-3.1a1.389,1.389,0,0,0-.4-1.3,6,6,0,0,0-1.9-.971,8.774,8.774,0,0,1-3.283-1.7,2.773,2.773,0,0,1-.839-2.6,3.374,3.374,0,0,1,1.573-2.421,5.824,5.824,0,0,1,3.278-.892,5.012,5.012,0,0,1,3.384,1.042,2.909,2.909,0,0,1,.9,2.878l-.018.053h-2.487a1.587,1.587,0,0,0-.448-1.437A2.205,2.205,0,0,0-134.934-11a2.381,2.381,0,0,0-1.345.378,1.312,1.312,0,0,0-.642.94,1.24,1.24,0,0,0,.409,1.244,8.119,8.119,0,0,0,2.184.989,7.669,7.669,0,0,1,3.072,1.666,2.952,2.952,0,0,1,.743,2.667,3.333,3.333,0,0,1-1.578,2.448,6.1,6.1,0,0,1-3.335.857,6.286,6.286,0,0,1-3.56-.954,2.7,2.7,0,0,1-1.09-2.966l.018-.053h2.487a1.4,1.4,0,0,0,.6,1.542,3.444,3.444,0,0,0,1.828.461,2.572,2.572,0,0,0,1.38-.369A1.341,1.341,0,0,0-133.08-3.1Zm6.223,3.1h-2.566l1.38-9.51h2.566Zm1.705-11.786h-2.566l.281-1.925h2.566Zm4.052,3.612a4.15,4.15,0,0,1,1.323-1.116,3.429,3.429,0,0,1,1.622-.4,2.42,2.42,0,0,1,2.1.936,4.018,4.018,0,0,1,.4,2.922L-116.5,0h-2.575l.844-5.818a2.137,2.137,0,0,0-.141-1.459,1.149,1.149,0,0,0-1.011-.413,2.409,2.409,0,0,0-1.033.22,2.421,2.421,0,0,0-.813.615L-122.225,0h-2.566l1.38-9.51h2.391Zm6.812,3.5a7.025,7.025,0,0,1,1.5-3.656,3.722,3.722,0,0,1,2.949-1.354,2.374,2.374,0,0,1,1.34.369,2.6,2.6,0,0,1,.892,1.046l.387-1.239h2.206l-1.371,9.466a4.18,4.18,0,0,1-1.626,2.892,5.8,5.8,0,0,1-3.533.993,6.044,6.044,0,0,1-1.494-.2,6.476,6.476,0,0,1-1.424-.536l.7-1.916a5.248,5.248,0,0,0,1.16.426,5.745,5.745,0,0,0,1.336.145,2.552,2.552,0,0,0,1.6-.444,2.034,2.034,0,0,0,.712-1.367l.123-.861a3.553,3.553,0,0,1-1.112.817,3.187,3.187,0,0,1-1.349.281,2.762,2.762,0,0,1-2.522-1.292,4.905,4.905,0,0,1-.5-3.384Zm2.54.185a3.654,3.654,0,0,0,.132,1.978,1.247,1.247,0,0,0,1.266.7,2.249,2.249,0,0,0,1.02-.224,2.075,2.075,0,0,0,.756-.646l.6-4.087a1.431,1.431,0,0,0-.558-.686,1.732,1.732,0,0,0-.945-.237,1.719,1.719,0,0,0-1.481.839,5.177,5.177,0,0,0-.76,2.175ZM-101.729,0H-104.3l1.986-13.711h2.566Zm6.258.185a3.781,3.781,0,0,1-3.142-1.314,4.174,4.174,0,0,1-.751-3.353l.053-.352a6.019,6.019,0,0,1,1.666-3.52,4.581,4.581,0,0,1,3.388-1.332,3.183,3.183,0,0,1,2.742,1.178,4.159,4.159,0,0,1,.589,3.155l-.193,1.327H-96.8l-.018.044a2.2,2.2,0,0,0,.36,1.6,1.8,1.8,0,0,0,1.529.6A5.617,5.617,0,0,0-93.5-1.942a10.571,10.571,0,0,0,1.354-.475l.4,1.617a6.036,6.036,0,0,1-1.6.694A7.45,7.45,0,0,1-95.471.185Zm.923-7.893a1.644,1.644,0,0,0-1.248.532,3.11,3.11,0,0,0-.721,1.4l.018.053h3.111l.035-.193a2.089,2.089,0,0,0-.158-1.323A1.1,1.1,0,0,0-94.548-7.708Zm7.989-.466A4.15,4.15,0,0,1-85.236-9.29a3.429,3.429,0,0,1,1.622-.4,2.42,2.42,0,0,1,2.1.936,4.018,4.018,0,0,1,.4,2.922L-81.962,0h-2.575l.844-5.818a2.137,2.137,0,0,0-.141-1.459,1.149,1.149,0,0,0-1.011-.413,2.409,2.409,0,0,0-1.033.22,2.421,2.421,0,0,0-.813.615L-87.684,0H-90.25l1.38-9.51h2.391ZM-75.3-11.839l-.343,2.329h1.608l-.264,1.8h-1.6l-.7,4.843a1,1,0,0,0,.11.8.731.731,0,0,0,.584.229,2.569,2.569,0,0,0,.352-.022,2.829,2.829,0,0,0,.352-.075l-.053,1.854a5.67,5.67,0,0,1-.782.2,4.707,4.707,0,0,1-.809.066,2.381,2.381,0,0,1-1.925-.738,2.855,2.855,0,0,1-.4-2.3l.7-4.852h-1.389l.264-1.8h1.38l.343-2.329Zm1.74,7A5.914,5.914,0,0,1-71.868-8.35a4.8,4.8,0,0,1,3.485-1.336,3.6,3.6,0,0,1,3.076,1.362,4.536,4.536,0,0,1,.721,3.48l-.026.185a5.943,5.943,0,0,1-1.7,3.516A4.811,4.811,0,0,1-69.8.185a3.61,3.61,0,0,1-3.085-1.358,4.487,4.487,0,0,1-.7-3.485Zm2.531.185a3.879,3.879,0,0,0,.149,2.1,1.34,1.34,0,0,0,1.362.773,1.855,1.855,0,0,0,1.56-.8,4.5,4.5,0,0,0,.778-2.079l.026-.185a3.842,3.842,0,0,0-.163-2.079,1.339,1.339,0,0,0-1.358-.787,1.846,1.846,0,0,0-1.56.809A4.476,4.476,0,0,0-71-4.843ZM-60.06-8.174A4.15,4.15,0,0,1-58.737-9.29a3.429,3.429,0,0,1,1.622-.4,2.42,2.42,0,0,1,2.1.936,4.018,4.018,0,0,1,.4,2.922L-55.463,0h-2.575l.844-5.818a2.137,2.137,0,0,0-.141-1.459,1.149,1.149,0,0,0-1.011-.413,2.409,2.409,0,0,0-1.033.22,2.421,2.421,0,0,0-.813.615L-61.185,0h-2.566l1.38-9.51h2.391Zm20.224,3.683A6.284,6.284,0,0,1-41.3-1.077,3.769,3.769,0,0,1-44.213.185,2.648,2.648,0,0,1-45.483-.1a2.37,2.37,0,0,1-.883-.839l-.668,4.6h-2.558L-47.685-9.51h2.312l-.009,1.125a3.742,3.742,0,0,1,1.151-.962A3.023,3.023,0,0,1-42.8-9.686,2.682,2.682,0,0,1-40.285-8.3a5.626,5.626,0,0,1,.475,3.621Zm-2.54-.185A4.434,4.434,0,0,0-42.5-6.869a1.225,1.225,0,0,0-1.252-.822,2.058,2.058,0,0,0-1.015.246,2.282,2.282,0,0,0-.76.694l-.6,4.148A1.313,1.313,0,0,0-45.567-2a1.969,1.969,0,0,0,.967.211,1.749,1.749,0,0,0,1.463-.738A4.205,4.205,0,0,0-42.4-4.491ZM-33.35,0a3.339,3.339,0,0,1-.119-.655,5.88,5.88,0,0,1-.013-.76A4.387,4.387,0,0,1-34.695-.268,2.934,2.934,0,0,1-36.3.185a2.811,2.811,0,0,1-2.171-.773A2.436,2.436,0,0,1-39-2.681a2.987,2.987,0,0,1,1.393-2.18,6.012,6.012,0,0,1,3.256-.756h1.433l.114-.756a1.349,1.349,0,0,0-.207-1.072,1.244,1.244,0,0,0-1.015-.369,1.6,1.6,0,0,0-1,.3,1.2,1.2,0,0,0-.466.831h-2.47l-.009-.053a2.871,2.871,0,0,1,1.354-2.1,5.176,5.176,0,0,1,3.032-.857,3.759,3.759,0,0,1,2.624.866,2.618,2.618,0,0,1,.725,2.465l-.571,3.929a6.693,6.693,0,0,0-.083,1.266A6.3,6.3,0,0,0-30.74,0ZM-35.4-1.714a2.451,2.451,0,0,0,1.239-.338,2.215,2.215,0,0,0,.844-.778l.193-1.336h-1.441a1.939,1.939,0,0,0-1.288.409,1.531,1.531,0,0,0-.567.989A.855.855,0,0,0-36.224-2,1.1,1.1,0,0,0-35.4-1.714Zm10.907-10.125-.343,2.329h1.608l-.264,1.8h-1.6l-.7,4.843a1,1,0,0,0,.11.8.731.731,0,0,0,.584.229,2.569,2.569,0,0,0,.352-.022,2.829,2.829,0,0,0,.352-.075l-.053,1.854a5.67,5.67,0,0,1-.782.2,4.707,4.707,0,0,1-.809.066,2.381,2.381,0,0,1-1.925-.738,2.855,2.855,0,0,1-.4-2.3l.7-4.852h-1.389l.264-1.8h1.38l.343-2.329Zm6.179,0-.343,2.329h1.608l-.264,1.8h-1.6l-.7,4.843a1,1,0,0,0,.11.8.731.731,0,0,0,.584.229,2.569,2.569,0,0,0,.352-.022,2.829,2.829,0,0,0,.352-.075l-.053,1.854a5.67,5.67,0,0,1-.782.2,4.707,4.707,0,0,1-.809.066,2.381,2.381,0,0,1-1.925-.738,2.855,2.855,0,0,1-.4-2.3l.7-4.852h-1.389l.264-1.8h1.38l.343-2.329ZM-12.731.185a3.781,3.781,0,0,1-3.142-1.314,4.174,4.174,0,0,1-.751-3.353l.053-.352a6.019,6.019,0,0,1,1.666-3.52,4.581,4.581,0,0,1,3.388-1.332A3.183,3.183,0,0,1-8.776-8.508a4.159,4.159,0,0,1,.589,3.155L-8.38-4.025h-5.678l-.018.044a2.2,2.2,0,0,0,.36,1.6,1.8,1.8,0,0,0,1.529.6,5.617,5.617,0,0,0,1.424-.158,10.571,10.571,0,0,0,1.354-.475l.4,1.617a6.036,6.036,0,0,1-1.6.694A7.45,7.45,0,0,1-12.731.185Zm.923-7.893a1.644,1.644,0,0,0-1.248.532,3.11,3.11,0,0,0-.721,1.4l.018.053h3.111l.035-.193a2.089,2.089,0,0,0-.158-1.323A1.1,1.1,0,0,0-11.808-7.708Zm10.4.4-.932-.026a1.847,1.847,0,0,0-.971.246,1.938,1.938,0,0,0-.672.694L-4.909,0H-7.466l1.38-9.51H-3.7l-.088,1.4A3.564,3.564,0,0,1-2.764-9.277a2.218,2.218,0,0,1,1.292-.409,1.867,1.867,0,0,1,.347.031q.163.031.321.075Zm3.929-.87A4.15,4.15,0,0,1,3.841-9.29a3.429,3.429,0,0,1,1.622-.4,2.42,2.42,0,0,1,2.1.936,4.018,4.018,0,0,1,.4,2.922L7.115,0H4.54l.844-5.818a2.137,2.137,0,0,0-.141-1.459A1.149,1.149,0,0,0,4.232-7.69a2.409,2.409,0,0,0-1.033.22,2.421,2.421,0,0,0-.813.615L1.393,0H-1.173L.207-9.51H2.6ZM19.639-4.482H14.462l.29-1.978h5.177Zm16.594.246.018.053a4.666,4.666,0,0,1-1.705,3.23A5.819,5.819,0,0,1,30.828.185a4.248,4.248,0,0,1-3.476-1.49,4.673,4.673,0,0,1-.883-3.819l.36-2.54a6.267,6.267,0,0,1,1.929-3.854A5.467,5.467,0,0,1,32.6-12.981a4.76,4.76,0,0,1,3.463,1.151,3.447,3.447,0,0,1,.844,3.208l-.026.053h-2.5a2.313,2.313,0,0,0-.321-1.846A2.184,2.184,0,0,0,32.322-11a2.449,2.449,0,0,0-1.925.936,4.549,4.549,0,0,0-1,2.386l-.369,2.558A3.612,3.612,0,0,0,29.342-2.7a1.9,1.9,0,0,0,1.767.918,2.562,2.562,0,0,0,1.8-.606,3.013,3.013,0,0,0,.848-1.846ZM39.986,0H37.419l1.986-13.711h2.566ZM47.65,0a3.339,3.339,0,0,1-.119-.655,5.88,5.88,0,0,1-.013-.76A4.387,4.387,0,0,1,46.305-.268,2.934,2.934,0,0,1,44.7.185a2.811,2.811,0,0,1-2.171-.773A2.436,2.436,0,0,1,42-2.681a2.987,2.987,0,0,1,1.393-2.18,6.012,6.012,0,0,1,3.256-.756h1.433l.114-.756a1.349,1.349,0,0,0-.207-1.072,1.244,1.244,0,0,0-1.015-.369,1.6,1.6,0,0,0-1,.3,1.2,1.2,0,0,0-.466.831h-2.47l-.009-.053a2.871,2.871,0,0,1,1.354-2.1,5.176,5.176,0,0,1,3.032-.857,3.759,3.759,0,0,1,2.624.866,2.618,2.618,0,0,1,.725,2.465L50.19-2.426a6.693,6.693,0,0,0-.083,1.266A6.3,6.3,0,0,0,50.26,0ZM45.6-1.714a2.451,2.451,0,0,0,1.239-.338,2.215,2.215,0,0,0,.844-.778l.193-1.336H46.437a1.939,1.939,0,0,0-1.288.409,1.531,1.531,0,0,0-.567.989A.855.855,0,0,0,44.776-2,1.1,1.1,0,0,0,45.6-1.714Zm11.716-.923a.748.748,0,0,0-.3-.725,3.808,3.808,0,0,0-1.446-.532A5.231,5.231,0,0,1,53.178-4.9a1.936,1.936,0,0,1-.615-1.837,3.091,3.091,0,0,1,1.327-2.1,4.729,4.729,0,0,1,2.883-.848,4.01,4.01,0,0,1,2.747.866,2.193,2.193,0,0,1,.76,2.14l-.018.053H57.784a1.146,1.146,0,0,0-.242-.936,1.286,1.286,0,0,0-1.015-.356,1.64,1.64,0,0,0-1.015.308,1.118,1.118,0,0,0-.47.756.741.741,0,0,0,.272.721,3.716,3.716,0,0,0,1.45.492A5.312,5.312,0,0,1,59.221-4.61a2.007,2.007,0,0,1,.6,1.876A3,3,0,0,1,58.43-.62a5.309,5.309,0,0,1-3.019.8,3.89,3.89,0,0,1-2.843-.971A2.347,2.347,0,0,1,51.8-2.971l.026-.053h2.347a1.172,1.172,0,0,0,.347,1.107,1.853,1.853,0,0,0,1.191.343,1.958,1.958,0,0,0,1.116-.286A1.09,1.09,0,0,0,57.318-2.637Zm9.281,0a.748.748,0,0,0-.3-.725,3.808,3.808,0,0,0-1.446-.532A5.231,5.231,0,0,1,62.459-4.9a1.936,1.936,0,0,1-.615-1.837,3.091,3.091,0,0,1,1.327-2.1,4.729,4.729,0,0,1,2.883-.848A4.01,4.01,0,0,1,68.8-8.82a2.193,2.193,0,0,1,.76,2.14l-.018.053H67.065a1.146,1.146,0,0,0-.242-.936,1.286,1.286,0,0,0-1.015-.356,1.64,1.64,0,0,0-1.015.308,1.118,1.118,0,0,0-.47.756.741.741,0,0,0,.272.721,3.716,3.716,0,0,0,1.45.492A5.312,5.312,0,0,1,68.5-4.61a2.007,2.007,0,0,1,.6,1.876A3,3,0,0,1,67.711-.62a5.309,5.309,0,0,1-3.019.8,3.89,3.89,0,0,1-2.843-.971,2.347,2.347,0,0,1-.769-2.184l.026-.053h2.347A1.172,1.172,0,0,0,63.8-1.916a1.853,1.853,0,0,0,1.191.343,1.958,1.958,0,0,0,1.116-.286A1.09,1.09,0,0,0,66.6-2.637Zm8.49-2.039a7.025,7.025,0,0,1,1.5-3.656,3.713,3.713,0,0,1,2.94-1.354,2.322,2.322,0,0,1,1.226.316,2.593,2.593,0,0,1,.875.9l.765-5.238h2.575L82.982,0H80.793l-.053-1.169a3.838,3.838,0,0,1-1.2,1.006,3.116,3.116,0,0,1-1.459.347A2.752,2.752,0,0,1,75.56-1.107a4.923,4.923,0,0,1-.5-3.384Zm2.531.185a3.62,3.62,0,0,0,.136,1.978,1.256,1.256,0,0,0,1.27.7,2.147,2.147,0,0,0,1-.229,2.217,2.217,0,0,0,.769-.668l.589-4.034a1.563,1.563,0,0,0-.567-.7,1.612,1.612,0,0,0-.918-.25,1.729,1.729,0,0,0-1.485.839,5.138,5.138,0,0,0-.765,2.175ZM87.667,0H85.1l1.38-9.51h2.566Zm1.705-11.786H86.805l.281-1.925h2.566ZM95.331,0a3.339,3.339,0,0,1-.119-.655,5.88,5.88,0,0,1-.013-.76A4.387,4.387,0,0,1,93.986-.268a2.934,2.934,0,0,1-1.608.453,2.811,2.811,0,0,1-2.171-.773,2.436,2.436,0,0,1-.527-2.092,2.987,2.987,0,0,1,1.393-2.18,6.012,6.012,0,0,1,3.256-.756h1.433l.114-.756a1.349,1.349,0,0,0-.207-1.072,1.244,1.244,0,0,0-1.015-.369,1.6,1.6,0,0,0-1,.3,1.2,1.2,0,0,0-.466.831h-2.47l-.009-.053a2.871,2.871,0,0,1,1.354-2.1,5.176,5.176,0,0,1,3.032-.857,3.759,3.759,0,0,1,2.624.866,2.618,2.618,0,0,1,.725,2.465l-.571,3.929a6.693,6.693,0,0,0-.083,1.266A6.3,6.3,0,0,0,97.941,0ZM93.283-1.714a2.451,2.451,0,0,0,1.239-.338,2.215,2.215,0,0,0,.844-.778l.193-1.336H94.118a1.939,1.939,0,0,0-1.288.409,1.531,1.531,0,0,0-.567.989A.855.855,0,0,0,92.457-2,1.1,1.1,0,0,0,93.283-1.714Zm6.46-2.962a7.025,7.025,0,0,1,1.5-3.656,3.722,3.722,0,0,1,2.949-1.354,2.374,2.374,0,0,1,1.34.369,2.6,2.6,0,0,1,.892,1.046l.387-1.239h2.206L107.644-.044a4.18,4.18,0,0,1-1.626,2.892,5.8,5.8,0,0,1-3.533.993,6.044,6.044,0,0,1-1.494-.2A6.476,6.476,0,0,1,99.567,3.1l.7-1.916a5.248,5.248,0,0,0,1.16.426,5.745,5.745,0,0,0,1.336.145,2.552,2.552,0,0,0,1.6-.444,2.034,2.034,0,0,0,.712-1.367l.123-.861a3.553,3.553,0,0,1-1.112.817,3.187,3.187,0,0,1-1.349.281,2.762,2.762,0,0,1-2.522-1.292,4.905,4.905,0,0,1-.5-3.384Zm2.54.185a3.654,3.654,0,0,0,.132,1.978,1.247,1.247,0,0,0,1.266.7,2.249,2.249,0,0,0,1.02-.224,2.075,2.075,0,0,0,.756-.646l.6-4.087a1.431,1.431,0,0,0-.558-.686,1.732,1.732,0,0,0-.945-.237,1.719,1.719,0,0,0-1.481.839,5.177,5.177,0,0,0-.76,2.175ZM115.66-7.3l-.932-.026a1.847,1.847,0,0,0-.971.246,1.938,1.938,0,0,0-.672.694L112.162,0H109.6l1.38-9.51h2.382l-.088,1.4a3.564,3.564,0,0,1,1.028-1.165,2.218,2.218,0,0,1,1.292-.409,1.867,1.867,0,0,1,.347.031q.163.031.321.075ZM121.5,0a3.339,3.339,0,0,1-.119-.655,5.88,5.88,0,0,1-.013-.76,4.387,4.387,0,0,1-1.213,1.147,2.934,2.934,0,0,1-1.608.453,2.811,2.811,0,0,1-2.171-.773,2.436,2.436,0,0,1-.527-2.092,2.987,2.987,0,0,1,1.393-2.18,6.012,6.012,0,0,1,3.256-.756h1.433l.114-.756a1.349,1.349,0,0,0-.207-1.072,1.244,1.244,0,0,0-1.015-.369,1.6,1.6,0,0,0-1,.3,1.2,1.2,0,0,0-.466.831h-2.47l-.009-.053a2.871,2.871,0,0,1,1.354-2.1,5.176,5.176,0,0,1,3.032-.857,3.759,3.759,0,0,1,2.624.866,2.618,2.618,0,0,1,.725,2.465l-.571,3.929a6.693,6.693,0,0,0-.083,1.266A6.3,6.3,0,0,0,124.106,0Zm-2.048-1.714a2.451,2.451,0,0,0,1.239-.338,2.215,2.215,0,0,0,.844-.778l.193-1.336h-1.441A1.939,1.939,0,0,0,119-3.757a1.531,1.531,0,0,0-.567.989.855.855,0,0,0,.193.773A1.1,1.1,0,0,0,119.448-1.714ZM129.3-8.279a3.782,3.782,0,0,1,1.288-1.042,3.707,3.707,0,0,1,1.657-.365,2.6,2.6,0,0,1,1.481.4,2.04,2.04,0,0,1,.822,1.213,3.968,3.968,0,0,1,1.314-1.191,3.5,3.5,0,0,1,1.727-.426,2.313,2.313,0,0,1,2.057,1,4.359,4.359,0,0,1,.387,3.041L139.214,0h-2.566l.817-5.651a2.535,2.535,0,0,0-.114-1.6,1.081,1.081,0,0,0-.984-.435,1.962,1.962,0,0,0-.976.246,2.248,2.248,0,0,0-.747.686q-.009.123-.022.255t-.031.255L133.686,0h-2.558l.817-5.651a2.49,2.49,0,0,0-.119-1.591,1.08,1.08,0,0,0-.989-.448,2.11,2.11,0,0,0-.94.207,2.243,2.243,0,0,0-.738.584L128.167,0h-2.558l1.38-9.51h2.382Z" transform="translate(780 1749)" fill="#273a89"/>
    <g id="Grupo_1075612" data-name="Grupo 1075612" transform="translate(0 -21)">
      <rect id="Rectángulo_383336" data-name="Rectángulo 383336" width="172" height="100" rx="10" transform="translate(513 1841)" fill="#1682fb"/>
      <path id="Trazado_825604" data-name="Trazado 825604" d="M13.137,11.211A4.025,4.025,0,0,1,11.781,14.1a4.76,4.76,0,0,1-3.223,1.055,4.28,4.28,0,0,1-3.441-1.473A6.038,6.038,0,0,1,3.863,9.641v-.7a6.819,6.819,0,0,1,.578-2.891A4.332,4.332,0,0,1,6.094,4.137a4.629,4.629,0,0,1,2.5-.668,4.637,4.637,0,0,1,3.172,1.055,4.326,4.326,0,0,1,1.391,2.961H10.809a2.376,2.376,0,0,0-.613-1.6,2.271,2.271,0,0,0-1.605-.5,1.991,1.991,0,0,0-1.754.84,4.707,4.707,0,0,0-.6,2.605V9.7a5.038,5.038,0,0,0,.559,2.7,1.954,1.954,0,0,0,1.762.852,2.314,2.314,0,0,0,1.621-.5,2.241,2.241,0,0,0,.613-1.535ZM16.91,15H14.645V3H16.91Zm4.242,0H18.887V6.547h2.266Zm-2.4-10.641a1.112,1.112,0,0,1,.34-.836,1.465,1.465,0,0,1,1.848,0,1.105,1.105,0,0,1,.344.836,1.108,1.108,0,0,1-.348.844,1.448,1.448,0,0,1-1.836,0A1.108,1.108,0,0,1,18.754,4.359Zm8.148,10.8a4.15,4.15,0,0,1-3.027-1.141,4.054,4.054,0,0,1-1.168-3.039v-.219A5.106,5.106,0,0,1,23.2,8.48a3.612,3.612,0,0,1,1.395-1.547,3.914,3.914,0,0,1,2.059-.543,3.508,3.508,0,0,1,2.73,1.094,4.444,4.444,0,0,1,1,3.1v.922H25a2.1,2.1,0,0,0,.66,1.328,2,2,0,0,0,1.395.5,2.437,2.437,0,0,0,2.039-.945L30.2,13.633a3.389,3.389,0,0,1-1.375,1.121A4.511,4.511,0,0,1,26.9,15.156Zm-.258-6.945a1.411,1.411,0,0,0-1.09.455,2.357,2.357,0,0,0-.535,1.3H28.16V9.788a1.681,1.681,0,0,0-.406-1.165A1.456,1.456,0,0,0,26.645,8.211Zm7.094-1.664.07.977a2.951,2.951,0,0,1,2.43-1.133,2.453,2.453,0,0,1,2,.789,3.682,3.682,0,0,1,.672,2.359V15H36.652V9.581a1.47,1.47,0,0,0-.312-1.045A1.4,1.4,0,0,0,35.3,8.211a1.553,1.553,0,0,0-1.43.814V15H31.613V6.547Zm9.586-2.078V6.547H44.77V8.2H43.324v4.219a1.007,1.007,0,0,0,.18.672.9.9,0,0,0,.688.2,3.6,3.6,0,0,0,.664-.055v1.711a4.648,4.648,0,0,1-1.367.2,2.156,2.156,0,0,1-2.422-2.4V8.2H39.832V6.547h1.234V4.469Zm6.594,10.688a4.15,4.15,0,0,1-3.027-1.141,4.054,4.054,0,0,1-1.168-3.039v-.219a5.106,5.106,0,0,1,.492-2.277,3.612,3.612,0,0,1,1.395-1.547,3.914,3.914,0,0,1,2.059-.543A3.508,3.508,0,0,1,52.4,7.484a4.444,4.444,0,0,1,1,3.1v.922H48.012a2.1,2.1,0,0,0,.66,1.328,2,2,0,0,0,1.395.5,2.437,2.437,0,0,0,2.039-.945l1.109,1.242a3.389,3.389,0,0,1-1.375,1.121A4.511,4.511,0,0,1,49.918,15.156ZM49.66,8.211a1.411,1.411,0,0,0-1.09.455,2.357,2.357,0,0,0-.535,1.3h3.141V9.788a1.681,1.681,0,0,0-.406-1.165A1.456,1.456,0,0,0,49.66,8.211Z" transform="translate(574 1850)" fill="#fff"/>
      <line id="Línea_435" data-name="Línea 435" x2="172" transform="translate(513.5 1877)" fill="none" stroke="#fff" stroke-width="1"/>
      <line id="Línea_436" data-name="Línea 436" x2="172" transform="translate(513.5 1907.5)" fill="none" stroke="#fff" stroke-width="1"/>
    </g>
    <g id="Grupo_1075613" data-name="Grupo 1075613" transform="translate(297 -21)">
      <rect id="Rectángulo_383336-2" data-name="Rectángulo 383336" width="251" height="100" rx="10" transform="translate(513 1841)" fill="#273a89"/>
      <path id="Trazado_825601" data-name="Trazado 825601" d="M8.793,12.016A1.2,1.2,0,0,0,8.324,11a6.148,6.148,0,0,0-1.687-.75,11.963,11.963,0,0,1-1.93-.777A3.153,3.153,0,0,1,2.77,6.648,2.747,2.747,0,0,1,3.289,5,3.389,3.389,0,0,1,4.781,3.875a5.616,5.616,0,0,1,2.184-.406,5.112,5.112,0,0,1,2.172.441,3.458,3.458,0,0,1,1.48,1.246,3.261,3.261,0,0,1,.527,1.828H8.8A1.534,1.534,0,0,0,8.309,5.77a2.023,2.023,0,0,0-1.383-.434A2.162,2.162,0,0,0,5.59,5.7a1.146,1.146,0,0,0-.477.957,1.1,1.1,0,0,0,.559.93,6.311,6.311,0,0,0,1.645.7A7.106,7.106,0,0,1,10.23,9.781,2.972,2.972,0,0,1,11.145,12a2.737,2.737,0,0,1-1.117,2.316,4.891,4.891,0,0,1-3.008.84,5.808,5.808,0,0,1-2.391-.48,3.783,3.783,0,0,1-1.645-1.316,3.371,3.371,0,0,1-.566-1.937H4.77q0,1.883,2.25,1.883a2.189,2.189,0,0,0,1.3-.34A1.106,1.106,0,0,0,8.793,12.016ZM14.965,15H12.7V6.547h2.266Zm-2.4-10.641a1.112,1.112,0,0,1,.34-.836,1.465,1.465,0,0,1,1.848,0,1.105,1.105,0,0,1,.344.836,1.108,1.108,0,0,1-.348.844,1.448,1.448,0,0,1-1.836,0A1.108,1.108,0,0,1,12.566,4.359ZM18.9,6.547l.07.977A2.951,2.951,0,0,1,21.4,6.391a2.453,2.453,0,0,1,2,.789,3.682,3.682,0,0,1,.672,2.359V15H21.816V9.581A1.47,1.47,0,0,0,21.5,8.536a1.4,1.4,0,0,0-1.039-.325,1.553,1.553,0,0,0-1.43.814V15H16.777V6.547Zm6.555,4.164a4.954,4.954,0,0,1,.926-3.133,3,3,0,0,1,2.5-1.187,2.631,2.631,0,0,1,2.164.953l.094-.8h2.047v8.172a3.613,3.613,0,0,1-.5,1.93,3.236,3.236,0,0,1-1.418,1.25,4.985,4.985,0,0,1-2.141.43,4.635,4.635,0,0,1-1.812-.371A3.217,3.217,0,0,1,25.973,17l1-1.375a2.645,2.645,0,0,0,2.047.945,1.936,1.936,0,0,0,1.4-.48,1.8,1.8,0,0,0,.5-1.363v-.453a2.612,2.612,0,0,1-2.055.883A2.992,2.992,0,0,1,26.4,13.965a4.953,4.953,0,0,1-.941-3.16Zm2.258.161a3.1,3.1,0,0,0,.461,1.809,1.465,1.465,0,0,0,1.266.655,1.567,1.567,0,0,0,1.477-.777V8.988a1.563,1.563,0,0,0-1.461-.777,1.474,1.474,0,0,0-1.277.667A3.5,3.5,0,0,0,27.715,10.872ZM37.3,15H35.035V3H37.3Zm5.75.156a4.15,4.15,0,0,1-3.027-1.141,4.054,4.054,0,0,1-1.168-3.039v-.219a5.106,5.106,0,0,1,.492-2.277,3.612,3.612,0,0,1,1.395-1.547A3.914,3.914,0,0,1,42.8,6.391a3.508,3.508,0,0,1,2.73,1.094,4.444,4.444,0,0,1,1,3.1v.922H41.145a2.1,2.1,0,0,0,.66,1.328,2,2,0,0,0,1.395.5,2.437,2.437,0,0,0,2.039-.945l1.109,1.242a3.389,3.389,0,0,1-1.375,1.121A4.511,4.511,0,0,1,43.051,15.156Zm-.258-6.945a1.411,1.411,0,0,0-1.09.455,2.357,2.357,0,0,0-.535,1.3h3.141V9.788A1.681,1.681,0,0,0,43.9,8.623,1.456,1.456,0,0,0,42.793,8.211Zm7.719-3.742V6.547h1.445V8.2H50.512v4.219a1.007,1.007,0,0,0,.18.672.9.9,0,0,0,.688.2,3.6,3.6,0,0,0,.664-.055v1.711a4.648,4.648,0,0,1-1.367.2,2.156,2.156,0,0,1-2.422-2.4V8.2H47.02V6.547h1.234V4.469ZM52.629,10.7a5.013,5.013,0,0,1,.484-2.242A3.546,3.546,0,0,1,54.508,6.93a4.069,4.069,0,0,1,2.113-.539,3.849,3.849,0,0,1,2.793,1.047,4.2,4.2,0,0,1,1.207,2.844l.016.578a4.418,4.418,0,0,1-1.086,3.121,4.209,4.209,0,0,1-5.832,0,4.5,4.5,0,0,1-1.09-3.187Zm2.258.16A3.16,3.16,0,0,0,55.34,12.7a1.628,1.628,0,0,0,2.578.008,3.457,3.457,0,0,0,.461-2.015,3.128,3.128,0,0,0-.461-1.831,1.5,1.5,0,0,0-1.3-.649,1.474,1.474,0,0,0-1.281.646A3.516,3.516,0,0,0,54.887,10.856Zm9.219-4.309.07.977a2.951,2.951,0,0,1,2.43-1.133,2.453,2.453,0,0,1,2,.789,3.682,3.682,0,0,1,.672,2.359V15H67.02V9.581a1.47,1.47,0,0,0-.312-1.045,1.4,1.4,0,0,0-1.039-.325,1.553,1.553,0,0,0-1.43.814V15H61.98V6.547Z" transform="translate(606 1850)" fill="#f9c107"/>
      <path id="Trazado_825602" data-name="Trazado 825602" d="M8.289,10.758H4.477V9.578H8.289Zm10.289,2a1.064,1.064,0,0,0-.441-.91,4.249,4.249,0,0,0-1.539-.559,7.277,7.277,0,0,1-1.742-.562,2.479,2.479,0,0,1-.953-.781,1.869,1.869,0,0,1-.309-1.078,2.193,2.193,0,0,1,.879-1.758,3.432,3.432,0,0,1,2.246-.719,3.532,3.532,0,0,1,2.332.742,2.357,2.357,0,0,1,.895,1.9H18.492a1.3,1.3,0,0,0-.5-1.023,1.888,1.888,0,0,0-1.27-.43,1.976,1.976,0,0,0-1.234.344,1.082,1.082,0,0,0-.445.9.877.877,0,0,0,.414.789,5.1,5.1,0,0,0,1.5.508A7.8,7.8,0,0,1,18.7,10.7a2.558,2.558,0,0,1,1,.809,1.988,1.988,0,0,1,.324,1.152,2.163,2.163,0,0,1-.906,1.816,3.8,3.8,0,0,1-2.352.684,4.257,4.257,0,0,1-1.8-.359,2.922,2.922,0,0,1-1.223-1A2.42,2.42,0,0,1,13.3,12.4H14.75a1.5,1.5,0,0,0,.582,1.152,2.258,2.258,0,0,0,1.434.426,2.331,2.331,0,0,0,1.316-.332A1.02,1.02,0,0,0,18.578,12.758ZM23.477,15H22.031V6.547h1.445ZM21.914,4.3a.863.863,0,0,1,.215-.594.807.807,0,0,1,.637-.242.819.819,0,0,1,.641.242.854.854,0,0,1,.219.594.826.826,0,0,1-.219.586.834.834,0,0,1-.641.234.821.821,0,0,1-.637-.234A.834.834,0,0,1,21.914,4.3Zm5.242,2.242L27.2,7.609a3.08,3.08,0,0,1,2.531-1.219q2.68,0,2.7,3.023V15H30.992V9.406a1.946,1.946,0,0,0-.418-1.352A1.675,1.675,0,0,0,29.3,7.617a2.086,2.086,0,0,0-1.234.375,2.546,2.546,0,0,0-.828.984V15H25.789V6.547ZM34.273,10.7a4.968,4.968,0,0,1,.914-3.145,3.151,3.151,0,0,1,4.836-.074l.07-.937h1.32V14.8a3.439,3.439,0,0,1-.973,2.586,3.589,3.589,0,0,1-2.613.945,4.348,4.348,0,0,1-1.789-.391,3.08,3.08,0,0,1-1.336-1.07l.75-.867a2.826,2.826,0,0,0,2.273,1.148,2.214,2.214,0,0,0,1.645-.594,2.269,2.269,0,0,0,.59-1.672v-.727a2.971,2.971,0,0,1-2.367,1,2.887,2.887,0,0,1-2.4-1.2A5.224,5.224,0,0,1,34.273,10.7Zm1.453.164a3.79,3.79,0,0,0,.586,2.246,1.9,1.9,0,0,0,1.641.816,2.117,2.117,0,0,0,2.008-1.242V8.828a2.142,2.142,0,0,0-1.992-1.211,1.921,1.921,0,0,0-1.648.82A4.128,4.128,0,0,0,35.727,10.867ZM45.164,15H43.719V3h1.445Zm5.82.156a3.693,3.693,0,0,1-2.8-1.129,4.19,4.19,0,0,1-1.078-3.02v-.266A5.073,5.073,0,0,1,47.59,8.5a3.748,3.748,0,0,1,1.344-1.547A3.378,3.378,0,0,1,50.8,6.391a3.166,3.166,0,0,1,2.563,1.086,4.7,4.7,0,0,1,.914,3.109v.6H48.555a3,3,0,0,0,.73,2.02,2.3,2.3,0,0,0,1.777.77,2.517,2.517,0,0,0,1.3-.312,3.259,3.259,0,0,0,.93-.828l.883.688A3.55,3.55,0,0,1,50.984,15.156ZM50.8,7.578a1.928,1.928,0,0,0-1.469.637A3.1,3.1,0,0,0,48.6,10h4.234V9.891a2.753,2.753,0,0,0-.594-1.707A1.815,1.815,0,0,0,50.8,7.578ZM57.914,4.5V6.547h1.578V7.664H57.914v5.249a1.173,1.173,0,0,0,.211.763.888.888,0,0,0,.719.254,3.5,3.5,0,0,0,.688-.094V15a4.215,4.215,0,0,1-1.109.155,1.8,1.8,0,0,1-1.461-.586,2.517,2.517,0,0,1-.492-1.664V7.664H54.93V6.547h1.539V4.5Zm2.727,6.2a4.993,4.993,0,0,1,.488-2.234A3.643,3.643,0,0,1,62.488,6.93a3.7,3.7,0,0,1,1.988-.539,3.565,3.565,0,0,1,2.793,1.2,4.6,4.6,0,0,1,1.066,3.18v.1a5.036,5.036,0,0,1-.473,2.215,3.589,3.589,0,0,1-1.352,1.527,3.743,3.743,0,0,1-2.02.547,3.556,3.556,0,0,1-2.785-1.2A4.575,4.575,0,0,1,60.641,10.8Zm1.453.172a3.616,3.616,0,0,0,.652,2.258,2.211,2.211,0,0,0,3.5-.012,3.955,3.955,0,0,0,.648-2.418,3.61,3.61,0,0,0-.66-2.254,2.1,2.1,0,0,0-1.754-.863,2.075,2.075,0,0,0-1.727.852A3.925,3.925,0,0,0,62.094,10.867Zm9.422-4.32.047,1.063a3.08,3.08,0,0,1,2.531-1.219q2.68,0,2.7,3.023V15H75.352V9.406a1.946,1.946,0,0,0-.418-1.352,1.675,1.675,0,0,0-1.277-.437,2.086,2.086,0,0,0-1.234.375,2.546,2.546,0,0,0-.828.984V15H70.148V6.547ZM80.547,15H79.1V6.547h1.445ZM78.984,4.3a.863.863,0,0,1,.215-.594.807.807,0,0,1,.637-.242.819.819,0,0,1,.641.242A.854.854,0,0,1,80.7,4.3a.826.826,0,0,1-.219.586.834.834,0,0,1-.641.234.821.821,0,0,1-.637-.234A.834.834,0,0,1,78.984,4.3Zm5.242,2.242.047,1.063A3.08,3.08,0,0,1,86.8,6.391q2.68,0,2.7,3.023V15H88.063V9.406a1.946,1.946,0,0,0-.418-1.352,1.675,1.675,0,0,0-1.277-.437,2.086,2.086,0,0,0-1.234.375,2.546,2.546,0,0,0-.828.984V15H82.859V6.547Zm12.383,6.211a1.064,1.064,0,0,0-.441-.91,4.249,4.249,0,0,0-1.539-.559,7.277,7.277,0,0,1-1.742-.562,2.479,2.479,0,0,1-.953-.781,1.869,1.869,0,0,1-.309-1.078A2.193,2.193,0,0,1,92.5,7.109a3.432,3.432,0,0,1,2.246-.719,3.532,3.532,0,0,1,2.332.742,2.357,2.357,0,0,1,.895,1.9H96.523a1.3,1.3,0,0,0-.5-1.023,1.888,1.888,0,0,0-1.27-.43,1.976,1.976,0,0,0-1.234.344,1.082,1.082,0,0,0-.445.9.877.877,0,0,0,.414.789,5.1,5.1,0,0,0,1.5.508,7.8,7.8,0,0,1,1.754.578,2.558,2.558,0,0,1,1,.809,1.988,1.988,0,0,1,.324,1.152,2.163,2.163,0,0,1-.906,1.816,3.8,3.8,0,0,1-2.352.684A4.257,4.257,0,0,1,93,14.8a2.922,2.922,0,0,1-1.223-1,2.42,2.42,0,0,1-.441-1.395h1.445a1.5,1.5,0,0,0,.582,1.152,2.258,2.258,0,0,0,1.434.426,2.331,2.331,0,0,0,1.316-.332A1.02,1.02,0,0,0,96.609,12.758ZM101.9,4.5V6.547h1.578V7.664H101.9v5.249a1.173,1.173,0,0,0,.211.763.888.888,0,0,0,.719.254,3.5,3.5,0,0,0,.688-.094V15a4.215,4.215,0,0,1-1.109.155,1.8,1.8,0,0,1-1.461-.586,2.517,2.517,0,0,1-.492-1.664V7.664H98.914V6.547h1.539V4.5ZM110.383,15a3.036,3.036,0,0,1-.2-.891,3.225,3.225,0,0,1-2.406,1.047,2.984,2.984,0,0,1-2.051-.707,2.288,2.288,0,0,1-.8-1.793,2.39,2.39,0,0,1,1-2.051,4.733,4.733,0,0,1,2.824-.73h1.406V9.211A1.623,1.623,0,0,0,109.7,8a1.821,1.821,0,0,0-1.336-.449,2.108,2.108,0,0,0-1.3.391,1.151,1.151,0,0,0-.523.945h-1.453a2,2,0,0,1,.449-1.223,3.066,3.066,0,0,1,1.219-.934,4.1,4.1,0,0,1,1.691-.344,3.342,3.342,0,0,1,2.289.73,2.635,2.635,0,0,1,.859,2.012v3.891a4.757,4.757,0,0,0,.3,1.852V15Zm-2.4-1.1a2.54,2.54,0,0,0,1.289-.352,2.127,2.127,0,0,0,.883-.914V10.9h-1.133q-2.656,0-2.656,1.555a1.316,1.316,0,0,0,.453,1.063A1.742,1.742,0,0,0,107.984,13.9Zm7.25-7.352.047,1.063a3.08,3.08,0,0,1,2.531-1.219q2.68,0,2.7,3.023V15H119.07V9.406a1.946,1.946,0,0,0-.418-1.352,1.675,1.675,0,0,0-1.277-.437,2.086,2.086,0,0,0-1.234.375,2.546,2.546,0,0,0-.828.984V15h-1.445V6.547Zm10.852,7.43a2.082,2.082,0,0,0,1.352-.469,1.649,1.649,0,0,0,.641-1.172h1.367a2.621,2.621,0,0,1-.5,1.383,3.293,3.293,0,0,1-1.23,1.047,3.55,3.55,0,0,1-1.629.391A3.482,3.482,0,0,1,123.34,14a4.59,4.59,0,0,1-1.02-3.152v-.242a5.089,5.089,0,0,1,.453-2.2,3.451,3.451,0,0,1,1.3-1.492,3.7,3.7,0,0,1,2-.531,3.39,3.39,0,0,1,2.363.852,3.043,3.043,0,0,1,1,2.211h-1.367a1.992,1.992,0,0,0-.621-1.348,1.932,1.932,0,0,0-1.379-.527,2.023,2.023,0,0,0-1.707.793,3.724,3.724,0,0,0-.605,2.293v.273a3.65,3.65,0,0,0,.6,2.25A2.033,2.033,0,0,0,126.086,13.977Zm8.492,1.18a3.693,3.693,0,0,1-2.8-1.129,4.19,4.19,0,0,1-1.078-3.02v-.266a5.073,5.073,0,0,1,.48-2.246,3.748,3.748,0,0,1,1.344-1.547,3.378,3.378,0,0,1,1.871-.559,3.166,3.166,0,0,1,2.563,1.086,4.7,4.7,0,0,1,.914,3.109v.6h-5.727a3,3,0,0,0,.73,2.02,2.3,2.3,0,0,0,1.777.77,2.517,2.517,0,0,0,1.3-.312,3.258,3.258,0,0,0,.93-.828l.883.688A3.55,3.55,0,0,1,134.578,15.156Zm-.18-7.578a1.928,1.928,0,0,0-1.469.637A3.1,3.1,0,0,0,132.2,10h4.234V9.891a2.753,2.753,0,0,0-.594-1.707A1.815,1.815,0,0,0,134.4,7.578Zm9.063,6.664a.905.905,0,0,1,.223-.625.848.848,0,0,1,.668-.25.874.874,0,0,1,.676.25.887.887,0,0,1,.23.625.839.839,0,0,1-.23.6.89.89,0,0,1-.676.242.8.8,0,0,1-.891-.844Zm.008-6.9a.905.905,0,0,1,.223-.625.848.848,0,0,1,.668-.25.874.874,0,0,1,.676.25.887.887,0,0,1,.23.625.839.839,0,0,1-.23.6.89.89,0,0,1-.676.242.8.8,0,0,1-.891-.844ZM154.922,9.93a7.053,7.053,0,0,1-2.809-1.363,2.6,2.6,0,0,1-.879-2,2.752,2.752,0,0,1,1.074-2.223,4.269,4.269,0,0,1,2.793-.879,4.66,4.66,0,0,1,2.09.453,3.436,3.436,0,0,1,1.422,1.25,3.2,3.2,0,0,1,.5,1.742h-1.508a2.08,2.08,0,0,0-.656-1.627A2.669,2.669,0,0,0,155.1,4.7a2.732,2.732,0,0,0-1.73.489,1.632,1.632,0,0,0-.621,1.358,1.468,1.468,0,0,0,.59,1.178,5.786,5.786,0,0,0,2.008.88,9.316,9.316,0,0,1,2.219.88,3.367,3.367,0,0,1,1.188,1.121,2.861,2.861,0,0,1,.387,1.508,2.658,2.658,0,0,1-1.078,2.215,4.6,4.6,0,0,1-2.883.832,5.347,5.347,0,0,1-2.187-.449,3.681,3.681,0,0,1-1.566-1.23,3,3,0,0,1-.551-1.773h1.508a1.959,1.959,0,0,0,.762,1.629,3.207,3.207,0,0,0,2.035.6,2.948,2.948,0,0,0,1.82-.484,1.573,1.573,0,0,0,.633-1.32,1.545,1.545,0,0,0-.586-1.293A6.755,6.755,0,0,0,154.922,9.93ZM162.406,15h-1.445V6.547h1.445ZM160.844,4.3a.863.863,0,0,1,.215-.594.807.807,0,0,1,.637-.242.819.819,0,0,1,.641.242.854.854,0,0,1,.219.594.826.826,0,0,1-.219.586.834.834,0,0,1-.641.234.821.821,0,0,1-.637-.234A.834.834,0,0,1,160.844,4.3Zm5.242,2.242.047,1.063a3.08,3.08,0,0,1,2.531-1.219q2.68,0,2.7,3.023V15h-1.445V9.406a1.946,1.946,0,0,0-.418-1.352,1.675,1.675,0,0,0-1.277-.437,2.086,2.086,0,0,0-1.234.375,2.546,2.546,0,0,0-.828.984V15h-1.445V6.547ZM173.2,10.7a4.968,4.968,0,0,1,.914-3.145,3.151,3.151,0,0,1,4.836-.074l.07-.937h1.32V14.8a3.439,3.439,0,0,1-.973,2.586,3.589,3.589,0,0,1-2.613.945,4.348,4.348,0,0,1-1.789-.391,3.08,3.08,0,0,1-1.336-1.07l.75-.867a2.826,2.826,0,0,0,2.273,1.148,2.214,2.214,0,0,0,1.645-.594,2.269,2.269,0,0,0,.59-1.672v-.727a2.971,2.971,0,0,1-2.367,1,2.887,2.887,0,0,1-2.4-1.2A5.224,5.224,0,0,1,173.2,10.7Zm1.453.164a3.79,3.79,0,0,0,.586,2.246,1.9,1.9,0,0,0,1.641.816,2.117,2.117,0,0,0,2.008-1.242V8.828A2.142,2.142,0,0,0,176.9,7.617a1.921,1.921,0,0,0-1.648.82A4.128,4.128,0,0,0,174.656,10.867ZM184.094,15h-1.445V3h1.445Zm5.82.156a3.693,3.693,0,0,1-2.8-1.129,4.19,4.19,0,0,1-1.078-3.02v-.266a5.073,5.073,0,0,1,.48-2.246,3.748,3.748,0,0,1,1.344-1.547,3.378,3.378,0,0,1,1.871-.559A3.166,3.166,0,0,1,192.3,7.477a4.7,4.7,0,0,1,.914,3.109v.6h-5.727a3,3,0,0,0,.73,2.02,2.3,2.3,0,0,0,1.777.77,2.517,2.517,0,0,0,1.3-.312,3.258,3.258,0,0,0,.93-.828l.883.688A3.55,3.55,0,0,1,189.914,15.156Zm-.18-7.578a1.928,1.928,0,0,0-1.469.637A3.1,3.1,0,0,0,187.531,10h4.234V9.891a2.753,2.753,0,0,0-.594-1.707A1.815,1.815,0,0,0,189.734,7.578ZM196.844,4.5V6.547h1.578V7.664h-1.578v5.249a1.173,1.173,0,0,0,.211.763.888.888,0,0,0,.719.254,3.5,3.5,0,0,0,.688-.094V15a4.215,4.215,0,0,1-1.109.155,1.8,1.8,0,0,1-1.461-.586,2.517,2.517,0,0,1-.492-1.664V7.664h-1.539V6.547H195.4V4.5Zm2.727,6.2a4.993,4.993,0,0,1,.488-2.234,3.642,3.642,0,0,1,1.359-1.531,3.7,3.7,0,0,1,1.988-.539,3.565,3.565,0,0,1,2.793,1.2,4.6,4.6,0,0,1,1.066,3.18v.1a5.036,5.036,0,0,1-.473,2.215,3.589,3.589,0,0,1-1.352,1.527,3.743,3.743,0,0,1-2.02.547,3.556,3.556,0,0,1-2.785-1.2A4.575,4.575,0,0,1,199.57,10.8Zm1.453.172a3.616,3.616,0,0,0,.652,2.258,2.211,2.211,0,0,0,3.5-.012,3.954,3.954,0,0,0,.648-2.418,3.61,3.61,0,0,0-.66-2.254,2.1,2.1,0,0,0-1.754-.863,2.075,2.075,0,0,0-1.727.852A3.925,3.925,0,0,0,201.023,10.867Zm9.422-4.32.047,1.063a3.08,3.08,0,0,1,2.531-1.219q2.68,0,2.7,3.023V15h-1.445V9.406a1.946,1.946,0,0,0-.418-1.352,1.675,1.675,0,0,0-1.277-.437,2.086,2.086,0,0,0-1.234.375,2.546,2.546,0,0,0-.828.984V15h-1.445V6.547Z" transform="translate(527 1882)" fill="#fff"/>
      <path id="Trazado_825603" data-name="Trazado 825603" d="M20.465,8.9h3.172v1.367H20.465v3.594H19.012V10.266H15.84V8.9h3.172V5.578h1.453Zm8.547,1.8a4.968,4.968,0,0,1,.914-3.145,3.151,3.151,0,0,1,4.836-.074l.07-.937h1.32V14.8a3.439,3.439,0,0,1-.973,2.586,3.589,3.589,0,0,1-2.613.945,4.348,4.348,0,0,1-1.789-.391,3.08,3.08,0,0,1-1.336-1.07l.75-.867a2.826,2.826,0,0,0,2.273,1.148,2.214,2.214,0,0,0,1.645-.594,2.269,2.269,0,0,0,.59-1.672v-.727a2.971,2.971,0,0,1-2.367,1,2.887,2.887,0,0,1-2.4-1.2A5.224,5.224,0,0,1,29.012,10.7Zm1.453.164a3.79,3.79,0,0,0,.586,2.246,1.9,1.9,0,0,0,1.641.816A2.117,2.117,0,0,0,34.7,12.688V8.828a2.142,2.142,0,0,0-1.992-1.211,1.921,1.921,0,0,0-1.648.82A4.128,4.128,0,0,0,30.465,10.867ZM41.84,15.156a3.693,3.693,0,0,1-2.8-1.129,4.19,4.19,0,0,1-1.078-3.02v-.266a5.073,5.073,0,0,1,.48-2.246,3.748,3.748,0,0,1,1.344-1.547,3.378,3.378,0,0,1,1.871-.559,3.166,3.166,0,0,1,2.563,1.086,4.7,4.7,0,0,1,.914,3.109v.6H39.41a3,3,0,0,0,.73,2.02,2.3,2.3,0,0,0,1.777.77,2.517,2.517,0,0,0,1.3-.312,3.259,3.259,0,0,0,.93-.828l.883.688A3.55,3.55,0,0,1,41.84,15.156Zm-.18-7.578a1.928,1.928,0,0,0-1.469.637A3.1,3.1,0,0,0,39.457,10h4.234V9.891A2.753,2.753,0,0,0,43.1,8.184,1.815,1.815,0,0,0,41.66,7.578ZM48.77,4.5V6.547h1.578V7.664H48.77v5.249a1.173,1.173,0,0,0,.211.763.888.888,0,0,0,.719.254,3.5,3.5,0,0,0,.688-.094V15a4.215,4.215,0,0,1-1.109.155,1.8,1.8,0,0,1-1.461-.586,2.517,2.517,0,0,1-.492-1.664V7.664H45.785V6.547h1.539V4.5ZM53.605,15H52.16V6.547h1.445ZM52.043,4.3a.863.863,0,0,1,.215-.594.807.807,0,0,1,.637-.242.819.819,0,0,1,.641.242.854.854,0,0,1,.219.594.826.826,0,0,1-.219.586.834.834,0,0,1-.641.234.821.821,0,0,1-.637-.234A.834.834,0,0,1,52.043,4.3Zm5.242,2.242.047,1.063a3.08,3.08,0,0,1,2.531-1.219q2.68,0,2.7,3.023V15H61.121V9.406A1.946,1.946,0,0,0,60.7,8.055a1.675,1.675,0,0,0-1.277-.437,2.086,2.086,0,0,0-1.234.375,2.546,2.546,0,0,0-.828.984V15H55.918V6.547Zm12.383,6.211a1.064,1.064,0,0,0-.441-.91,4.249,4.249,0,0,0-1.539-.559,7.277,7.277,0,0,1-1.742-.562,2.479,2.479,0,0,1-.953-.781,1.869,1.869,0,0,1-.309-1.078,2.193,2.193,0,0,1,.879-1.758,3.432,3.432,0,0,1,2.246-.719,3.532,3.532,0,0,1,2.332.742,2.357,2.357,0,0,1,.895,1.9H69.582a1.3,1.3,0,0,0-.5-1.023,1.888,1.888,0,0,0-1.27-.43,1.976,1.976,0,0,0-1.234.344,1.082,1.082,0,0,0-.445.9.877.877,0,0,0,.414.789,5.1,5.1,0,0,0,1.5.508,7.8,7.8,0,0,1,1.754.578,2.558,2.558,0,0,1,1,.809,1.988,1.988,0,0,1,.324,1.152,2.163,2.163,0,0,1-.906,1.816,3.8,3.8,0,0,1-2.352.684,4.257,4.257,0,0,1-1.8-.359,2.922,2.922,0,0,1-1.223-1,2.42,2.42,0,0,1-.441-1.395H65.84a1.5,1.5,0,0,0,.582,1.152,2.258,2.258,0,0,0,1.434.426,2.331,2.331,0,0,0,1.316-.332A1.02,1.02,0,0,0,69.668,12.758ZM74.957,4.5V6.547h1.578V7.664H74.957v5.249a1.173,1.173,0,0,0,.211.763.888.888,0,0,0,.719.254,3.5,3.5,0,0,0,.688-.094V15a4.215,4.215,0,0,1-1.109.155A1.8,1.8,0,0,1,74,14.57a2.517,2.517,0,0,1-.492-1.664V7.664H71.973V6.547h1.539V4.5ZM83.441,15a3.036,3.036,0,0,1-.2-.891,3.225,3.225,0,0,1-2.406,1.047,2.984,2.984,0,0,1-2.051-.707,2.288,2.288,0,0,1-.8-1.793,2.39,2.39,0,0,1,1-2.051,4.733,4.733,0,0,1,2.824-.73h1.406V9.211A1.623,1.623,0,0,0,82.762,8a1.821,1.821,0,0,0-1.336-.449,2.108,2.108,0,0,0-1.3.391,1.151,1.151,0,0,0-.523.945H78.152A2,2,0,0,1,78.6,7.668a3.066,3.066,0,0,1,1.219-.934,4.1,4.1,0,0,1,1.691-.344,3.342,3.342,0,0,1,2.289.73,2.635,2.635,0,0,1,.859,2.012v3.891a4.757,4.757,0,0,0,.3,1.852V15Zm-2.4-1.1a2.54,2.54,0,0,0,1.289-.352,2.127,2.127,0,0,0,.883-.914V10.9H82.082q-2.656,0-2.656,1.555a1.316,1.316,0,0,0,.453,1.063A1.742,1.742,0,0,0,81.043,13.9Zm7.25-7.352.047,1.063a3.08,3.08,0,0,1,2.531-1.219q2.68,0,2.7,3.023V15H92.129V9.406a1.946,1.946,0,0,0-.418-1.352,1.675,1.675,0,0,0-1.277-.437,2.086,2.086,0,0,0-1.234.375,2.546,2.546,0,0,0-.828.984V15H86.926V6.547Zm10.852,7.43a2.082,2.082,0,0,0,1.352-.469,1.649,1.649,0,0,0,.641-1.172H102.5a2.621,2.621,0,0,1-.5,1.383,3.293,3.293,0,0,1-1.23,1.047,3.55,3.55,0,0,1-1.629.391A3.482,3.482,0,0,1,96.4,14a4.59,4.59,0,0,1-1.02-3.152v-.242a5.089,5.089,0,0,1,.453-2.2,3.451,3.451,0,0,1,1.3-1.492,3.7,3.7,0,0,1,2-.531,3.39,3.39,0,0,1,2.363.852,3.043,3.043,0,0,1,1,2.211h-1.367a1.992,1.992,0,0,0-.621-1.348,1.932,1.932,0,0,0-1.379-.527,2.023,2.023,0,0,0-1.707.793,3.724,3.724,0,0,0-.605,2.293v.273a3.65,3.65,0,0,0,.6,2.25A2.033,2.033,0,0,0,99.145,13.977Zm8.492,1.18a3.693,3.693,0,0,1-2.8-1.129,4.19,4.19,0,0,1-1.078-3.02v-.266a5.073,5.073,0,0,1,.48-2.246,3.748,3.748,0,0,1,1.344-1.547,3.378,3.378,0,0,1,1.871-.559,3.166,3.166,0,0,1,2.563,1.086,4.7,4.7,0,0,1,.914,3.109v.6h-5.727a3,3,0,0,0,.73,2.02,2.3,2.3,0,0,0,1.777.77,2.517,2.517,0,0,0,1.3-.312,3.259,3.259,0,0,0,.93-.828l.883.688A3.55,3.55,0,0,1,107.637,15.156Zm-.18-7.578a1.928,1.928,0,0,0-1.469.637A3.1,3.1,0,0,0,105.254,10h4.234V9.891a2.753,2.753,0,0,0-.594-1.707A1.815,1.815,0,0,0,107.457,7.578Zm5.094,2.8a12.079,12.079,0,0,1,.473-3.391,9.849,9.849,0,0,1,1.41-2.953,6,6,0,0,1,1.945-1.875l.3.953A6.222,6.222,0,0,0,114.8,5.789a11.583,11.583,0,0,0-.8,4.023l-.008.664a11.643,11.643,0,0,0,1.1,5.234,6.252,6.252,0,0,0,1.578,2.078l-.3.883a6.192,6.192,0,0,1-1.984-1.937A10.859,10.859,0,0,1,112.551,10.383Zm8.859.078a12.084,12.084,0,0,1-.457,3.34,9.876,9.876,0,0,1-1.4,2.949,6.127,6.127,0,0,1-1.973,1.922l-.3-.883a6.281,6.281,0,0,0,1.934-2.863,12.387,12.387,0,0,0,.746-4.309v-.25a12.861,12.861,0,0,0-.344-3.051,10.3,10.3,0,0,0-.957-2.527,5.838,5.838,0,0,0-1.379-1.742l.3-.883a6.1,6.1,0,0,1,1.965,1.906,9.9,9.9,0,0,1,1.4,2.945A12.363,12.363,0,0,1,121.41,10.461Zm2.18,3.781a.905.905,0,0,1,.223-.625.848.848,0,0,1,.668-.25.874.874,0,0,1,.676.25.887.887,0,0,1,.23.625.839.839,0,0,1-.23.6.89.89,0,0,1-.676.242.8.8,0,0,1-.891-.844Zm.008-6.9a.905.905,0,0,1,.223-.625.848.848,0,0,1,.668-.25.874.874,0,0,1,.676.25.887.887,0,0,1,.23.625.839.839,0,0,1-.23.6.89.89,0,0,1-.676.242.8.8,0,0,1-.891-.844ZM135.051,9.93a7.053,7.053,0,0,1-2.809-1.363,2.6,2.6,0,0,1-.879-2,2.752,2.752,0,0,1,1.074-2.223,4.269,4.269,0,0,1,2.793-.879,4.66,4.66,0,0,1,2.09.453,3.436,3.436,0,0,1,1.422,1.25,3.2,3.2,0,0,1,.5,1.742h-1.508a2.08,2.08,0,0,0-.656-1.627A2.669,2.669,0,0,0,135.23,4.7a2.732,2.732,0,0,0-1.73.489,1.632,1.632,0,0,0-.621,1.358,1.468,1.468,0,0,0,.59,1.178,5.786,5.786,0,0,0,2.008.88,9.316,9.316,0,0,1,2.219.88,3.367,3.367,0,0,1,1.188,1.121,2.861,2.861,0,0,1,.387,1.508,2.658,2.658,0,0,1-1.078,2.215,4.6,4.6,0,0,1-2.883.832,5.347,5.347,0,0,1-2.187-.449,3.681,3.681,0,0,1-1.566-1.23A3,3,0,0,1,131,11.7h1.508a1.959,1.959,0,0,0,.762,1.629,3.207,3.207,0,0,0,2.035.6,2.948,2.948,0,0,0,1.82-.484,1.573,1.573,0,0,0,.633-1.32,1.545,1.545,0,0,0-.586-1.293A6.755,6.755,0,0,0,135.051,9.93ZM142.535,15H141.09V6.547h1.445ZM140.973,4.3a.863.863,0,0,1,.215-.594.807.807,0,0,1,.637-.242.819.819,0,0,1,.641.242.854.854,0,0,1,.219.594.826.826,0,0,1-.219.586.834.834,0,0,1-.641.234.821.821,0,0,1-.637-.234A.834.834,0,0,1,140.973,4.3Zm5.242,2.242.047,1.063a3.08,3.08,0,0,1,2.531-1.219q2.68,0,2.7,3.023V15h-1.445V9.406a1.946,1.946,0,0,0-.418-1.352,1.675,1.675,0,0,0-1.277-.437,2.086,2.086,0,0,0-1.234.375,2.546,2.546,0,0,0-.828.984V15h-1.445V6.547Zm7.117,4.156a4.968,4.968,0,0,1,.914-3.145,3.151,3.151,0,0,1,4.836-.074l.07-.937h1.32V14.8a3.439,3.439,0,0,1-.973,2.586,3.589,3.589,0,0,1-2.613.945,4.348,4.348,0,0,1-1.789-.391,3.08,3.08,0,0,1-1.336-1.07l.75-.867a2.826,2.826,0,0,0,2.273,1.148,2.214,2.214,0,0,0,1.645-.594,2.269,2.269,0,0,0,.59-1.672v-.727a2.971,2.971,0,0,1-2.367,1,2.887,2.887,0,0,1-2.4-1.2A5.224,5.224,0,0,1,153.332,10.7Zm1.453.164a3.79,3.79,0,0,0,.586,2.246,1.9,1.9,0,0,0,1.641.816,2.117,2.117,0,0,0,2.008-1.242V8.828a2.142,2.142,0,0,0-1.992-1.211,1.921,1.921,0,0,0-1.648.82A4.128,4.128,0,0,0,154.785,10.867ZM164.223,15h-1.445V3h1.445Zm5.82.156a3.693,3.693,0,0,1-2.8-1.129,4.19,4.19,0,0,1-1.078-3.02v-.266a5.073,5.073,0,0,1,.48-2.246,3.748,3.748,0,0,1,1.344-1.547,3.378,3.378,0,0,1,1.871-.559,3.166,3.166,0,0,1,2.563,1.086,4.7,4.7,0,0,1,.914,3.109v.6h-5.727a3,3,0,0,0,.73,2.02,2.3,2.3,0,0,0,1.777.77,2.517,2.517,0,0,0,1.3-.312,3.258,3.258,0,0,0,.93-.828l.883.688A3.55,3.55,0,0,1,170.043,15.156Zm-.18-7.578a1.928,1.928,0,0,0-1.469.637A3.1,3.1,0,0,0,167.66,10h4.234V9.891a2.753,2.753,0,0,0-.594-1.707A1.815,1.815,0,0,0,169.863,7.578Zm6.516-1.031.047,1.063a3.08,3.08,0,0,1,2.531-1.219q2.68,0,2.7,3.023V15h-1.445V9.406a1.946,1.946,0,0,0-.418-1.352,1.675,1.675,0,0,0-1.277-.437,2.086,2.086,0,0,0-1.234.375,2.546,2.546,0,0,0-.828.984V15h-1.445V6.547ZM185.8,4.5V6.547h1.578V7.664H185.8v5.249a1.173,1.173,0,0,0,.211.763.888.888,0,0,0,.719.254,3.5,3.5,0,0,0,.688-.094V15a4.215,4.215,0,0,1-1.109.155,1.8,1.8,0,0,1-1.461-.586,2.517,2.517,0,0,1-.492-1.664V7.664h-1.539V6.547h1.539V4.5Zm2.727,6.2a4.993,4.993,0,0,1,.488-2.234,3.642,3.642,0,0,1,1.359-1.531,3.7,3.7,0,0,1,1.988-.539,3.565,3.565,0,0,1,2.793,1.2,4.6,4.6,0,0,1,1.066,3.18v.1a5.036,5.036,0,0,1-.473,2.215,3.589,3.589,0,0,1-1.352,1.527,3.743,3.743,0,0,1-2.02.547,3.556,3.556,0,0,1-2.785-1.2,4.575,4.575,0,0,1-1.066-3.164Zm1.453.172a3.616,3.616,0,0,0,.652,2.258,2.211,2.211,0,0,0,3.5-.012,3.954,3.954,0,0,0,.648-2.418,3.61,3.61,0,0,0-.66-2.254,2.1,2.1,0,0,0-1.754-.863,2.075,2.075,0,0,0-1.727.852A3.925,3.925,0,0,0,189.98,10.867Zm9.422-4.32.047,1.063a3.08,3.08,0,0,1,2.531-1.219q2.68,0,2.7,3.023V15h-1.445V9.406a1.946,1.946,0,0,0-.418-1.352,1.675,1.675,0,0,0-1.277-.437,2.086,2.086,0,0,0-1.234.375,2.546,2.546,0,0,0-.828.984V15h-1.445V6.547Z" transform="translate(527 1914)" fill="#fff"/>
      <line id="Línea_435-2" data-name="Línea 435" x2="250.5" transform="translate(513.5 1877)" fill="none" stroke="#fff" stroke-width="1"/>
      <line id="Línea_436-2" data-name="Línea 436" x2="250.5" transform="translate(513.5 1907.5)" fill="none" stroke="#fff" stroke-width="1"/>
    </g>
    <path id="Trazado_825600" data-name="Trazado 825600" d="M-8.941-.836a3.125,3.125,0,0,1-1.152.77,3.655,3.655,0,0,1-1.371.223,2.388,2.388,0,0,1-1.145-.277,1.96,1.96,0,0,1-.719-.7,2.644,2.644,0,0,1-.344-1,4.8,4.8,0,0,1-.02-1.18l.906-5.461h1.414l-.914,5.484a3.68,3.68,0,0,0-.016.676,1.668,1.668,0,0,0,.148.6,1.106,1.106,0,0,0,.367.438,1.181,1.181,0,0,0,.648.188,2.654,2.654,0,0,0,1.348-.289,2.689,2.689,0,0,0,1-.937L-7.73-8.453h1.414L-7.785,0H-9.121Zm8.57-1.453a.953.953,0,0,0-.086-.6,1.14,1.14,0,0,0-.375-.4,2.124,2.124,0,0,0-.543-.254q-.3-.094-.582-.164-.469-.117-.949-.289a3.592,3.592,0,0,1-.863-.441A2.129,2.129,0,0,1-4.387-5.1,1.752,1.752,0,0,1-4.6-6.078a2.212,2.212,0,0,1,.336-1.1,2.75,2.75,0,0,1,.773-.8,3.5,3.5,0,0,1,1.043-.48,4.007,4.007,0,0,1,1.137-.152,3.6,3.6,0,0,1,1.121.188A2.716,2.716,0,0,1,.73-7.9a2.363,2.363,0,0,1,.609.828,2.538,2.538,0,0,1,.2,1.113L.137-5.969a1.453,1.453,0,0,0-.1-.594,1.262,1.262,0,0,0-.312-.453A1.418,1.418,0,0,0-.758-7.3a1.88,1.88,0,0,0-.605-.109,2.355,2.355,0,0,0-.613.066,1.913,1.913,0,0,0-.566.234,1.524,1.524,0,0,0-.434.4,1.264,1.264,0,0,0-.223.578.807.807,0,0,0,.031.395.846.846,0,0,0,.188.3,1.106,1.106,0,0,0,.293.215,2.81,2.81,0,0,0,.359.152q.191.066.383.113t.355.094a9.008,9.008,0,0,1,.965.309,3.567,3.567,0,0,1,.863.469,2.12,2.12,0,0,1,.605.7,1.85,1.85,0,0,1,.191,1A2.332,2.332,0,0,1,.68-1.246a2.712,2.712,0,0,1-.8.8A3.508,3.508,0,0,1-1.2.023,4.439,4.439,0,0,1-2.395.156a3.824,3.824,0,0,1-1.176-.2,3.057,3.057,0,0,1-.984-.539,2.532,2.532,0,0,1-.672-.859,2.517,2.517,0,0,1-.23-1.172l1.414.008a1.664,1.664,0,0,0,.129.676,1.415,1.415,0,0,0,.352.492,1.479,1.479,0,0,0,.531.3,2.178,2.178,0,0,0,.684.1,2.863,2.863,0,0,0,.641-.059A2.257,2.257,0,0,0-1.1-1.3,1.556,1.556,0,0,0-.617-1.7,1.153,1.153,0,0,0-.371-2.289ZM6,.156A3.229,3.229,0,0,1,4.5-.2a2.9,2.9,0,0,1-1.02-.9A3.588,3.588,0,0,1,2.93-2.391a4.959,4.959,0,0,1-.09-1.516l.039-.336a5.9,5.9,0,0,1,.23-1.078,5.8,5.8,0,0,1,.434-1.031,5.01,5.01,0,0,1,.629-.91,4.188,4.188,0,0,1,.813-.723,3.766,3.766,0,0,1,.977-.473A3.4,3.4,0,0,1,7.09-8.609a2.832,2.832,0,0,1,1.453.387,2.593,2.593,0,0,1,.9.945,3.62,3.62,0,0,1,.418,1.316,5.789,5.789,0,0,1-.008,1.5l-.094.648H4.246a3.463,3.463,0,0,0,0,.984,2.508,2.508,0,0,0,.293.887,1.849,1.849,0,0,0,.613.648,1.821,1.821,0,0,0,.961.27,2.5,2.5,0,0,0,1.289-.3,4.153,4.153,0,0,0,1.039-.824l.813.688a3.649,3.649,0,0,1-.641.711,3.82,3.82,0,0,1-.777.512,3.689,3.689,0,0,1-.883.3A4.308,4.308,0,0,1,6,.156ZM7.012-7.43a1.907,1.907,0,0,0-.957.188,2.521,2.521,0,0,0-.734.559,3.623,3.623,0,0,0-.543.789A6.152,6.152,0,0,0,4.4-5l4.109.016.031-.141a2.888,2.888,0,0,0,.008-.82,1.968,1.968,0,0,0-.242-.73A1.548,1.548,0,0,0,7.8-7.207,1.521,1.521,0,0,0,7.012-7.43Z" transform="translate(752 1862)" fill="#273a89"/>
    <path id="Trazado_825599" data-name="Trazado 825599" d="M-13.254-8.461l-.2,1.07a4.182,4.182,0,0,1,1.164-.9,2.93,2.93,0,0,1,1.43-.32,2.416,2.416,0,0,1,1.129.266,1.9,1.9,0,0,1,.707.668,2.493,2.493,0,0,1,.336.973,4.809,4.809,0,0,1,.016,1.164L-9.6,0h-1.414l.93-5.562a2.968,2.968,0,0,0,.008-.711,1.462,1.462,0,0,0-.184-.574,1.034,1.034,0,0,0-.414-.391,1.517,1.517,0,0,0-.691-.152,2.044,2.044,0,0,0-.687.1,2.486,2.486,0,0,0-.6.289,2.908,2.908,0,0,0-.516.438,4.694,4.694,0,0,0-.434.535L-14.645,0h-1.414l1.469-8.453ZM-3.91.156A3.229,3.229,0,0,1-5.406-.2a2.9,2.9,0,0,1-1.02-.9,3.588,3.588,0,0,1-.551-1.289,4.959,4.959,0,0,1-.09-1.516l.039-.336A5.9,5.9,0,0,1-6.8-5.32a5.8,5.8,0,0,1,.434-1.031,5.01,5.01,0,0,1,.629-.91,4.188,4.188,0,0,1,.813-.723,3.766,3.766,0,0,1,.977-.473,3.4,3.4,0,0,1,1.129-.152,2.832,2.832,0,0,1,1.453.387,2.593,2.593,0,0,1,.9.945A3.62,3.62,0,0,1-.043-5.961a5.789,5.789,0,0,1-.008,1.5l-.094.648H-5.66a3.463,3.463,0,0,0,0,.984,2.508,2.508,0,0,0,.293.887,1.849,1.849,0,0,0,.613.648,1.821,1.821,0,0,0,.961.27,2.5,2.5,0,0,0,1.289-.3,4.153,4.153,0,0,0,1.039-.824l.813.688a3.649,3.649,0,0,1-.641.711,3.82,3.82,0,0,1-.777.512,3.689,3.689,0,0,1-.883.3A4.308,4.308,0,0,1-3.91.156ZM-2.895-7.43a1.907,1.907,0,0,0-.957.188,2.521,2.521,0,0,0-.734.559,3.623,3.623,0,0,0-.543.789A6.152,6.152,0,0,0-5.5-5l4.109.016.031-.141a2.888,2.888,0,0,0,.008-.82,1.968,1.968,0,0,0-.242-.73,1.548,1.548,0,0,0-.508-.531A1.521,1.521,0,0,0-2.895-7.43ZM8.465-2l2.7-6.453h1.461L8.77,0H7.621L6.746-6.391,3.7,0H2.551L1.637-8.453H2.988l.516,6.3,3-6.3H7.645Z" transform="translate(1026 1774)" fill="#273a89"/>
    <line id="Línea_438" data-name="Línea 438" y1="114" transform="translate(1087.5 1786.5)" fill="none" stroke="#273a89" stroke-width="3"/>
    <line id="Línea_440" data-name="Línea 440" y1="18" transform="translate(980 1788)" fill="none" stroke="#273a89" stroke-width="3"/>
  </g>
</svg>
