<svg xmlns="http://www.w3.org/2000/svg" width="586" height="304" viewBox="0 0 586 304">
  <g id="Grupo_1076291" data-name="Grupo 1076291" transform="translate(-810 -1654)">
    <rect id="Rectángulo_383392" data-name="Rectángulo 383392" width="586" height="304" transform="translate(810 1654)" fill="#f3f9ff"/>
    <g id="Grupo_1075625" data-name="Grupo 1075625" transform="translate(30.5 -16)">
      <path id="Trazado_825307" data-name="Trazado 825307" d="M11.654,17H8.587L4.052,9.037V17H.967V4.2H4.052l4.526,7.963V4.2h3.076ZM13.1,12.157a5.613,5.613,0,0,1,.554-2.536A3.96,3.96,0,0,1,15.24,7.912a4.791,4.791,0,0,1,2.435-.6,4.373,4.373,0,0,1,3.366,1.323,5.076,5.076,0,0,1,1.23,3.6v.105a4.925,4.925,0,0,1-1.235,3.529,4.384,4.384,0,0,1-3.344,1.305,4.434,4.434,0,0,1-3.261-1.217,4.761,4.761,0,0,1-1.327-3.3Zm2.962.185a3.538,3.538,0,0,0,.413,1.934,1.376,1.376,0,0,0,1.222.615q1.582,0,1.617-2.435v-.3q0-2.558-1.635-2.558-1.485,0-1.608,2.206Zm7.146-.167a5.809,5.809,0,0,1,.976-3.56,3.211,3.211,0,0,1,2.725-1.3,2.731,2.731,0,0,1,2.145,1V3.5h2.971V17H29.355l-.149-1.02a2.8,2.8,0,0,1-2.32,1.2,3.205,3.205,0,0,1-2.689-1.3A5.993,5.993,0,0,1,23.2,12.175Zm2.962.185q0,2.531,1.477,2.531a1.458,1.458,0,0,0,1.406-.826V10.443A1.419,1.419,0,0,0,27.659,9.6q-1.371,0-1.485,2.215ZM38.3,17.176a4.889,4.889,0,0,1-3.542-1.305,4.507,4.507,0,0,1-1.354-3.4v-.246a5.84,5.84,0,0,1,.541-2.575,3.955,3.955,0,0,1,1.578-1.727,4.763,4.763,0,0,1,2.461-.611A4.117,4.117,0,0,1,41.15,8.558a4.887,4.887,0,0,1,1.16,3.467v1.151H36.422a2.135,2.135,0,0,0,.694,1.257,2.066,2.066,0,0,0,1.389.457,2.662,2.662,0,0,0,2.2-.984l1.354,1.6a3.784,3.784,0,0,1-1.569,1.217A5.3,5.3,0,0,1,38.3,17.176ZM37.969,9.6q-1.3,0-1.547,1.723H39.41v-.229a1.467,1.467,0,0,0-.36-1.1A1.434,1.434,0,0,0,37.969,9.6Z" transform="translate(895.182 1784.463)" fill="#12263f"/>
      <path id="Trazado_825306" data-name="Trazado 825306" d="M11.654,17H8.587L4.052,9.037V17H.967V4.2H4.052l4.526,7.963V4.2h3.076ZM13.1,12.157a5.613,5.613,0,0,1,.554-2.536A3.96,3.96,0,0,1,15.24,7.912a4.791,4.791,0,0,1,2.435-.6,4.373,4.373,0,0,1,3.366,1.323,5.076,5.076,0,0,1,1.23,3.6v.105a4.925,4.925,0,0,1-1.235,3.529,4.384,4.384,0,0,1-3.344,1.305,4.434,4.434,0,0,1-3.261-1.217,4.761,4.761,0,0,1-1.327-3.3Zm2.962.185a3.538,3.538,0,0,0,.413,1.934,1.376,1.376,0,0,0,1.222.615q1.582,0,1.617-2.435v-.3q0-2.558-1.635-2.558-1.485,0-1.608,2.206Zm7.146-.167a5.809,5.809,0,0,1,.976-3.56,3.211,3.211,0,0,1,2.725-1.3,2.731,2.731,0,0,1,2.145,1V3.5h2.971V17H29.355l-.149-1.02a2.8,2.8,0,0,1-2.32,1.2,3.205,3.205,0,0,1-2.689-1.3A5.993,5.993,0,0,1,23.2,12.175Zm2.962.185q0,2.531,1.477,2.531a1.458,1.458,0,0,0,1.406-.826V10.443A1.419,1.419,0,0,0,27.659,9.6q-1.371,0-1.485,2.215ZM38.3,17.176a4.889,4.889,0,0,1-3.542-1.305,4.507,4.507,0,0,1-1.354-3.4v-.246a5.84,5.84,0,0,1,.541-2.575,3.955,3.955,0,0,1,1.578-1.727,4.763,4.763,0,0,1,2.461-.611A4.117,4.117,0,0,1,41.15,8.558a4.887,4.887,0,0,1,1.16,3.467v1.151H36.422a2.135,2.135,0,0,0,.694,1.257,2.066,2.066,0,0,0,1.389.457,2.662,2.662,0,0,0,2.2-.984l1.354,1.6a3.784,3.784,0,0,1-1.569,1.217A5.3,5.3,0,0,1,38.3,17.176ZM37.969,9.6q-1.3,0-1.547,1.723H39.41v-.229a1.467,1.467,0,0,0-.36-1.1A1.434,1.434,0,0,0,37.969,9.6Z" transform="translate(1190.182 1784.463)" fill="#12263f"/>
      <g id="Rectángulo_383385" data-name="Rectángulo 383385" transform="translate(810 1778.856)" fill="none" stroke="#273a89" stroke-linecap="round" stroke-width="2">
        <rect width="199.762" height="109.869" stroke="none"/>
        <rect x="1" y="1" width="197.762" height="107.869" fill="none"/>
      </g>
      <g id="Rectángulo_383386" data-name="Rectángulo 383386" transform="translate(1105 1778.856)" fill="none" stroke="#273a89" stroke-linecap="round" stroke-width="2">
        <rect width="199.762" height="109.869" stroke="none"/>
        <rect x="1" y="1" width="197.762" height="107.869" fill="none"/>
      </g>
      <line id="Línea_476" data-name="Línea 476" x1="14.483" y2="10.488" transform="translate(810.25 1768.618)" fill="none" stroke="#273a89" stroke-linecap="round" stroke-width="2"/>
      <line id="Línea_487" data-name="Línea 487" x1="14.483" y2="10.488" transform="translate(1105.25 1768.618)" fill="none" stroke="#273a89" stroke-linecap="round" stroke-width="2"/>
      <line id="Línea_479" data-name="Línea 479" y1="10.488" x2="9.988" transform="translate(1009.762 1768.868)" fill="none" stroke="#273a89" stroke-linecap="round" stroke-width="2"/>
      <line id="Línea_482" data-name="Línea 482" y1="10.488" x2="9.988" transform="translate(1304.762 1768.868)" fill="none" stroke="#273a89" stroke-linecap="round" stroke-width="2"/>
      <line id="Línea_480" data-name="Línea 480" y1="9.489" x2="9.988" transform="translate(1009.762 1878.238)" fill="none" stroke="#273a89" stroke-linecap="round" stroke-width="3"/>
      <line id="Línea_486" data-name="Línea 486" y1="9.489" x2="9.988" transform="translate(1304.762 1878.238)" fill="none" stroke="#273a89" stroke-linecap="round" stroke-width="3"/>
      <line id="Línea_477" data-name="Línea 477" x2="195.268" transform="translate(824.732 1768.618)" fill="none" stroke="#273a89" stroke-linecap="round" stroke-width="2"/>
      <line id="Línea_483" data-name="Línea 483" x2="195.268" transform="translate(1119.732 1768.618)" fill="none" stroke="#273a89" stroke-linecap="round" stroke-width="2"/>
      <line id="Línea_481" data-name="Línea 481" y2="109.37" transform="translate(1019.75 1768.868)" fill="none" stroke="#273a89" stroke-linecap="round" stroke-width="2"/>
      <line id="Línea_484" data-name="Línea 484" y2="109.37" transform="translate(1314.75 1768.868)" fill="none" stroke="#273a89" stroke-linecap="round" stroke-width="2"/>
      <line id="Línea_478" data-name="Línea 478" x2="196.766" transform="translate(811.498 1806.463)" fill="none" stroke="#273a89" stroke-linecap="round" stroke-width="2"/>
      <line id="Línea_488" data-name="Línea 488" x2="84.5" transform="translate(1020.5 1833.791)" fill="none" stroke="#273a89" stroke-linecap="round" stroke-width="2"/>
      <line id="Línea_485" data-name="Línea 485" x2="196.766" transform="translate(1106.498 1806.463)" fill="none" stroke="#273a89" stroke-linecap="round" stroke-width="2"/>
    </g>
  </g>
</svg>
