<svg xmlns="http://www.w3.org/2000/svg" width="888" height="489.992" viewBox="0 0 888 489.992">
  <g id="Grupo_1076390" data-name="Grupo 1076390" transform="translate(-305 -3855.342)">
    <g id="Rectángulo_383426" data-name="Rectángulo 383426" transform="translate(305 3894.258)" fill="#e1f6ef" stroke="#2e775d" stroke-width="1">
      <rect width="888" height="451.076" stroke="none"/>
      <rect x="0.5" y="0.5" width="887" height="450.076" fill="none"/>
    </g>
    <g id="Rectángulo_383427" data-name="Rectángulo 383427" transform="translate(305 3855.342)" fill="#bae9d9" stroke="#2e775d" stroke-width="1">
      <rect width="412.159" height="40.685" stroke="none"/>
      <rect x="0.5" y="0.5" width="411.159" height="39.685" fill="none"/>
    </g>
    <rect id="Rectángulo_383416" data-name="Rectángulo 383416" width="291.872" height="111.442" transform="translate(425.286 3977.397)" fill="#1682fb"/>
    <rect id="Rectángulo_383420" data-name="Rectángulo 383420" width="291.872" height="111.442" transform="translate(796.761 3977.397)" fill="#1682fb"/>
    <rect id="Rectángulo_383417" data-name="Rectángulo 383417" width="291.872" height="111.442" transform="translate(425.286 4159.597)" fill="#1682fb"/>
    <rect id="Rectángulo_383423" data-name="Rectángulo 383423" width="291.872" height="111.442" transform="translate(796.761 4159.597)" fill="#1682fb"/>
    <rect id="Rectángulo_383414" data-name="Rectángulo 383414" width="86.677" height="26.534" transform="translate(381.063 3996.855)" fill="#273a89"/>
    <rect id="Rectángulo_383421" data-name="Rectángulo 383421" width="86.677" height="26.534" transform="translate(752.537 3996.855)" fill="#273a89"/>
    <rect id="Rectángulo_383418" data-name="Rectángulo 383418" width="86.677" height="28.303" transform="translate(381.063 4179.055)" fill="#273a89"/>
    <rect id="Rectángulo_383424" data-name="Rectángulo 383424" width="86.677" height="28.303" transform="translate(752.537 4179.055)" fill="#273a89"/>
    <rect id="Rectángulo_383415" data-name="Rectángulo 383415" width="86.677" height="26.534" transform="translate(381.063 4034.003)" fill="#273a89"/>
    <rect id="Rectángulo_383422" data-name="Rectángulo 383422" width="86.677" height="26.534" transform="translate(752.537 4034.003)" fill="#273a89"/>
    <rect id="Rectángulo_383419" data-name="Rectángulo 383419" width="86.677" height="28.303" transform="translate(381.063 4216.202)" fill="#273a89"/>
    <rect id="Rectángulo_383425" data-name="Rectángulo 383425" width="86.677" height="28.303" transform="translate(752.537 4216.202)" fill="#273a89"/>
    <path id="Trazado_825609" data-name="Trazado 825609" d="M20.125,22.3a8.308,8.308,0,0,1-1.281,4.2,7.733,7.733,0,0,1-3.289,2.82,11.2,11.2,0,0,1-4.836,1,8.934,8.934,0,0,1-7.062-2.922q-2.578-2.922-2.578-8.25V18.016a13.771,13.771,0,0,1,1.164-5.852A8.82,8.82,0,0,1,5.594,8.289a9.351,9.351,0,0,1,5.063-1.367A9.806,9.806,0,0,1,17.313,9.1a8.612,8.612,0,0,1,2.859,6.008H14.7a4.075,4.075,0,0,0-1.047-2.984,4.306,4.306,0,0,0-3-.906,3.276,3.276,0,0,0-3,1.531,9.841,9.841,0,0,0-1,4.891V19.25a10.89,10.89,0,0,0,.914,5.2,3.345,3.345,0,0,0,3.148,1.563,4.211,4.211,0,0,0,2.891-.891A3.78,3.78,0,0,0,14.672,22.3Zm1.688-.906a9.978,9.978,0,0,1,.984-4.508,7.04,7.04,0,0,1,2.828-3.039,8.518,8.518,0,0,1,4.328-1.062,7.774,7.774,0,0,1,5.984,2.352,9.024,9.024,0,0,1,2.188,6.4v.188a8.755,8.755,0,0,1-2.2,6.273,7.794,7.794,0,0,1-5.945,2.32,7.883,7.883,0,0,1-5.8-2.164,8.464,8.464,0,0,1-2.359-5.867Zm5.266.328a6.291,6.291,0,0,0,.734,3.438,2.447,2.447,0,0,0,2.172,1.094q2.813,0,2.875-4.328v-.531q0-4.547-2.906-4.547-2.641,0-2.859,3.922Zm18.344-8.625.172,1.984a5.813,5.813,0,0,1,4.828-2.3,4.279,4.279,0,0,1,4.328,2.547,5.626,5.626,0,0,1,4.969-2.547Q64.859,12.781,65,19V30H59.719V19.328a3.223,3.223,0,0,0-.437-1.891,1.862,1.862,0,0,0-1.594-.594,2.5,2.5,0,0,0-2.328,1.391l.016.219V30H50.094V19.359a3.388,3.388,0,0,0-.422-1.922,1.857,1.857,0,0,0-1.609-.594,2.525,2.525,0,0,0-2.312,1.391V30H40.484V13.094ZM83.7,21.672a10.2,10.2,0,0,1-1.773,6.289,5.686,5.686,0,0,1-4.789,2.352,4.874,4.874,0,0,1-3.828-1.7V36.5H68.047V13.094h4.922l.156,1.563a4.874,4.874,0,0,1,3.984-1.875,5.732,5.732,0,0,1,4.859,2.3A10.321,10.321,0,0,1,83.7,21.422Zm-5.266-.328q0-4.5-2.625-4.5a2.478,2.478,0,0,0-2.5,1.344v6.656a2.559,2.559,0,0,0,2.531,1.406q2.516,0,2.594-4.344Zm6.922.047a9.978,9.978,0,0,1,.984-4.508,7.04,7.04,0,0,1,2.828-3.039A8.518,8.518,0,0,1,93.5,12.781a7.774,7.774,0,0,1,5.984,2.352,9.024,9.024,0,0,1,2.188,6.4v.188a8.755,8.755,0,0,1-2.2,6.273,7.794,7.794,0,0,1-5.945,2.32,7.883,7.883,0,0,1-5.8-2.164,8.464,8.464,0,0,1-2.359-5.867Zm5.266.328a6.291,6.291,0,0,0,.734,3.438,2.447,2.447,0,0,0,2.172,1.094q2.813,0,2.875-4.328v-.531q0-4.547-2.906-4.547-2.641,0-2.859,3.922Zm18.2-8.625L109,15.078a5.733,5.733,0,0,1,4.828-2.3,4.823,4.823,0,0,1,3.945,1.578,7.513,7.513,0,0,1,1.352,4.75V30h-5.281V19.328a2.853,2.853,0,0,0-.516-1.883,2.385,2.385,0,0,0-1.875-.6,2.511,2.511,0,0,0-2.3,1.219V30h-5.266V13.094Zm21.391,17.219a8.691,8.691,0,0,1-6.3-2.32,8.013,8.013,0,0,1-2.406-6.039v-.437a10.383,10.383,0,0,1,.961-4.578,7.031,7.031,0,0,1,2.8-3.07,8.467,8.467,0,0,1,4.375-1.086,7.318,7.318,0,0,1,5.625,2.211,8.688,8.688,0,0,1,2.063,6.164V23.2H126.875a3.8,3.8,0,0,0,1.234,2.234,3.673,3.673,0,0,0,2.469.813,4.732,4.732,0,0,0,3.906-1.75l2.406,2.844a6.726,6.726,0,0,1-2.789,2.164A9.425,9.425,0,0,1,130.219,30.313Zm-.594-13.469q-2.313,0-2.75,3.063h5.313V19.5a2.608,2.608,0,0,0-.641-1.961A2.549,2.549,0,0,0,129.625,16.844Zm14.672-3.75.172,1.984a5.733,5.733,0,0,1,4.828-2.3,4.823,4.823,0,0,1,3.945,1.578,7.513,7.513,0,0,1,1.352,4.75V30h-5.281V19.328a2.853,2.853,0,0,0-.516-1.883,2.385,2.385,0,0,0-1.875-.6,2.511,2.511,0,0,0-2.3,1.219V30h-5.266V13.094Zm19.344-4.2v4.2h2.781V16.75h-2.781v7.734a1.975,1.975,0,0,0,.344,1.328,1.844,1.844,0,0,0,1.359.375,7.725,7.725,0,0,0,1.313-.094v3.766a9.718,9.718,0,0,1-2.969.453,5.516,5.516,0,0,1-4.016-1.281,5.252,5.252,0,0,1-1.3-3.891V16.75h-2.156V13.094h2.156v-4.2Zm13.031,21.422a8.691,8.691,0,0,1-6.3-2.32,8.013,8.013,0,0,1-2.406-6.039v-.437a10.383,10.383,0,0,1,.961-4.578,7.031,7.031,0,0,1,2.8-3.07,8.467,8.467,0,0,1,4.375-1.086,7.318,7.318,0,0,1,5.625,2.211,8.688,8.688,0,0,1,2.063,6.164V23.2H173.328a3.8,3.8,0,0,0,1.234,2.234,3.673,3.673,0,0,0,2.469.813,4.732,4.732,0,0,0,3.906-1.75l2.406,2.844a6.726,6.726,0,0,1-2.789,2.164A9.425,9.425,0,0,1,176.672,30.313Zm-.594-13.469q-2.313,0-2.75,3.063h5.313V19.5A2.608,2.608,0,0,0,178,17.539,2.549,2.549,0,0,0,176.078,16.844Z" transform="translate(497.464 4014.545)" fill="#fff"/>
    <path id="Trazado_825608" data-name="Trazado 825608" d="M7.2,22.281V30H1.719V7.25H10.8a10.574,10.574,0,0,1,4.617.961,7.242,7.242,0,0,1,3.109,2.734,7.468,7.468,0,0,1,1.1,4.023,6.583,6.583,0,0,1-2.383,5.32A9.887,9.887,0,0,1,10.7,22.281Zm0-4.234H10.8a3.389,3.389,0,0,0,2.43-.8A2.961,2.961,0,0,0,14.063,15a3.66,3.66,0,0,0-.859-2.547,3.043,3.043,0,0,0-2.344-.969H7.2ZM31.656,30a5.945,5.945,0,0,1-.5-1.516,4.9,4.9,0,0,1-4.062,1.828,6,6,0,0,1-4.062-1.445,4.6,4.6,0,0,1-1.672-3.633,4.728,4.728,0,0,1,2.031-4.156A10.348,10.348,0,0,1,29.3,19.672h1.625v-.9q0-2.339-2.016-2.339a1.648,1.648,0,0,0-1.875,1.853H21.766a4.72,4.72,0,0,1,2.086-3.98,8.766,8.766,0,0,1,5.32-1.529,7.686,7.686,0,0,1,5.109,1.578A5.487,5.487,0,0,1,36.2,18.688v7.484a7.665,7.665,0,0,0,.719,3.563V30Zm-3.3-3.437a2.937,2.937,0,0,0,1.633-.422,2.644,2.644,0,0,0,.93-.953v-2.7H29.391q-2.75,0-2.75,2.469a1.507,1.507,0,0,0,.484,1.164A1.753,1.753,0,0,0,28.359,26.563Zm10.094-5.187a10.149,10.149,0,0,1,1.75-6.312,5.748,5.748,0,0,1,4.828-2.281,4.909,4.909,0,0,1,4.156,2.125l.375-1.812h4.563V36.5H48.844V28.594A4.9,4.9,0,0,1,45,30.313a5.7,5.7,0,0,1-4.773-2.32A10.714,10.714,0,0,1,38.453,21.375Zm5.266.328q0,4.547,2.625,4.547a2.542,2.542,0,0,0,2.5-1.375V18.188a2.488,2.488,0,0,0-2.469-1.344q-2.453,0-2.641,3.922Zm23.453,6.469a5.429,5.429,0,0,1-4.516,2.141A5.324,5.324,0,0,1,58.445,28.7a6.8,6.8,0,0,1-1.43-4.648V13.094h5.266V24.078a1.893,1.893,0,0,0,2.109,2.172,2.752,2.752,0,0,0,2.578-1.3V13.094h5.3V30H67.328Zm16.156,2.141a8.691,8.691,0,0,1-6.3-2.32,8.013,8.013,0,0,1-2.406-6.039v-.437a10.383,10.383,0,0,1,.961-4.578,7.031,7.031,0,0,1,2.8-3.07,8.467,8.467,0,0,1,4.375-1.086,7.318,7.318,0,0,1,5.625,2.211,8.688,8.688,0,0,1,2.063,6.164V23.2H79.984a3.8,3.8,0,0,0,1.234,2.234,3.673,3.673,0,0,0,2.469.813,4.732,4.732,0,0,0,3.906-1.75L90,27.344a6.726,6.726,0,0,1-2.789,2.164A9.425,9.425,0,0,1,83.328,30.313Zm-.594-13.469q-2.312,0-2.75,3.063H85.3V19.5a2.608,2.608,0,0,0-.641-1.961A2.549,2.549,0,0,0,82.734,16.844ZM98.7,8.891v4.2h2.781V16.75H98.7v7.734a1.975,1.975,0,0,0,.344,1.328,1.844,1.844,0,0,0,1.359.375,7.725,7.725,0,0,0,1.313-.094v3.766a9.718,9.718,0,0,1-2.969.453,5.516,5.516,0,0,1-4.016-1.281,5.252,5.252,0,0,1-1.3-3.891V16.75H91.281V13.094h2.156v-4.2Zm13.031,21.422a8.691,8.691,0,0,1-6.3-2.32,8.013,8.013,0,0,1-2.406-6.039v-.437a10.383,10.383,0,0,1,.961-4.578,7.031,7.031,0,0,1,2.8-3.07,8.467,8.467,0,0,1,4.375-1.086,7.318,7.318,0,0,1,5.625,2.211,8.688,8.688,0,0,1,2.063,6.164V23.2H108.391a3.8,3.8,0,0,0,1.234,2.234,3.673,3.673,0,0,0,2.469.813A4.732,4.732,0,0,0,116,24.5l2.406,2.844a6.726,6.726,0,0,1-2.789,2.164A9.425,9.425,0,0,1,111.734,30.313Zm-.594-13.469q-2.312,0-2.75,3.063H113.7V19.5a2.608,2.608,0,0,0-.641-1.961A2.549,2.549,0,0,0,111.141,16.844Z" transform="translate(676.964 3917.254)" fill="#12263f"/>
    <path id="Trazado_825610" data-name="Trazado 825610" d="M20.125,22.3a8.308,8.308,0,0,1-1.281,4.2,7.733,7.733,0,0,1-3.289,2.82,11.2,11.2,0,0,1-4.836,1,8.934,8.934,0,0,1-7.062-2.922q-2.578-2.922-2.578-8.25V18.016a13.771,13.771,0,0,1,1.164-5.852A8.82,8.82,0,0,1,5.594,8.289a9.351,9.351,0,0,1,5.063-1.367A9.806,9.806,0,0,1,17.313,9.1a8.612,8.612,0,0,1,2.859,6.008H14.7a4.075,4.075,0,0,0-1.047-2.984,4.306,4.306,0,0,0-3-.906,3.276,3.276,0,0,0-3,1.531,9.841,9.841,0,0,0-1,4.891V19.25a10.89,10.89,0,0,0,.914,5.2,3.345,3.345,0,0,0,3.148,1.563,4.211,4.211,0,0,0,2.891-.891A3.78,3.78,0,0,0,14.672,22.3Zm1.688-.906a9.978,9.978,0,0,1,.984-4.508,7.04,7.04,0,0,1,2.828-3.039,8.518,8.518,0,0,1,4.328-1.062,7.774,7.774,0,0,1,5.984,2.352,9.024,9.024,0,0,1,2.188,6.4v.188a8.755,8.755,0,0,1-2.2,6.273,7.794,7.794,0,0,1-5.945,2.32,7.883,7.883,0,0,1-5.8-2.164,8.464,8.464,0,0,1-2.359-5.867Zm5.266.328a6.291,6.291,0,0,0,.734,3.438,2.447,2.447,0,0,0,2.172,1.094q2.813,0,2.875-4.328v-.531q0-4.547-2.906-4.547-2.641,0-2.859,3.922Zm18.344-8.625.172,1.984a5.813,5.813,0,0,1,4.828-2.3,4.279,4.279,0,0,1,4.328,2.547,5.626,5.626,0,0,1,4.969-2.547Q64.859,12.781,65,19V30H59.719V19.328a3.223,3.223,0,0,0-.437-1.891,1.862,1.862,0,0,0-1.594-.594,2.5,2.5,0,0,0-2.328,1.391l.016.219V30H50.094V19.359a3.388,3.388,0,0,0-.422-1.922,1.857,1.857,0,0,0-1.609-.594,2.525,2.525,0,0,0-2.312,1.391V30H40.484V13.094ZM83.7,21.672a10.2,10.2,0,0,1-1.773,6.289,5.686,5.686,0,0,1-4.789,2.352,4.874,4.874,0,0,1-3.828-1.7V36.5H68.047V13.094h4.922l.156,1.563a4.874,4.874,0,0,1,3.984-1.875,5.732,5.732,0,0,1,4.859,2.3A10.321,10.321,0,0,1,83.7,21.422Zm-5.266-.328q0-4.5-2.625-4.5a2.478,2.478,0,0,0-2.5,1.344v6.656a2.559,2.559,0,0,0,2.531,1.406q2.516,0,2.594-4.344Zm6.922.047a9.978,9.978,0,0,1,.984-4.508,7.04,7.04,0,0,1,2.828-3.039A8.518,8.518,0,0,1,93.5,12.781a7.774,7.774,0,0,1,5.984,2.352,9.024,9.024,0,0,1,2.188,6.4v.188a8.755,8.755,0,0,1-2.2,6.273,7.794,7.794,0,0,1-5.945,2.32,7.883,7.883,0,0,1-5.8-2.164,8.464,8.464,0,0,1-2.359-5.867Zm5.266.328a6.291,6.291,0,0,0,.734,3.438,2.447,2.447,0,0,0,2.172,1.094q2.813,0,2.875-4.328v-.531q0-4.547-2.906-4.547-2.641,0-2.859,3.922Zm18.2-8.625L109,15.078a5.733,5.733,0,0,1,4.828-2.3,4.823,4.823,0,0,1,3.945,1.578,7.513,7.513,0,0,1,1.352,4.75V30h-5.281V19.328a2.853,2.853,0,0,0-.516-1.883,2.385,2.385,0,0,0-1.875-.6,2.511,2.511,0,0,0-2.3,1.219V30h-5.266V13.094Zm21.391,17.219a8.691,8.691,0,0,1-6.3-2.32,8.013,8.013,0,0,1-2.406-6.039v-.437a10.383,10.383,0,0,1,.961-4.578,7.031,7.031,0,0,1,2.8-3.07,8.467,8.467,0,0,1,4.375-1.086,7.318,7.318,0,0,1,5.625,2.211,8.688,8.688,0,0,1,2.063,6.164V23.2H126.875a3.8,3.8,0,0,0,1.234,2.234,3.673,3.673,0,0,0,2.469.813,4.732,4.732,0,0,0,3.906-1.75l2.406,2.844a6.726,6.726,0,0,1-2.789,2.164A9.425,9.425,0,0,1,130.219,30.313Zm-.594-13.469q-2.313,0-2.75,3.063h5.313V19.5a2.608,2.608,0,0,0-.641-1.961A2.549,2.549,0,0,0,129.625,16.844Zm14.672-3.75.172,1.984a5.733,5.733,0,0,1,4.828-2.3,4.823,4.823,0,0,1,3.945,1.578,7.513,7.513,0,0,1,1.352,4.75V30h-5.281V19.328a2.853,2.853,0,0,0-.516-1.883,2.385,2.385,0,0,0-1.875-.6,2.511,2.511,0,0,0-2.3,1.219V30h-5.266V13.094Zm19.344-4.2v4.2h2.781V16.75h-2.781v7.734a1.975,1.975,0,0,0,.344,1.328,1.844,1.844,0,0,0,1.359.375,7.725,7.725,0,0,0,1.313-.094v3.766a9.718,9.718,0,0,1-2.969.453,5.516,5.516,0,0,1-4.016-1.281,5.252,5.252,0,0,1-1.3-3.891V16.75h-2.156V13.094h2.156v-4.2Zm13.031,21.422a8.691,8.691,0,0,1-6.3-2.32,8.013,8.013,0,0,1-2.406-6.039v-.437a10.383,10.383,0,0,1,.961-4.578,7.031,7.031,0,0,1,2.8-3.07,8.467,8.467,0,0,1,4.375-1.086,7.318,7.318,0,0,1,5.625,2.211,8.688,8.688,0,0,1,2.063,6.164V23.2H173.328a3.8,3.8,0,0,0,1.234,2.234,3.673,3.673,0,0,0,2.469.813,4.732,4.732,0,0,0,3.906-1.75l2.406,2.844a6.726,6.726,0,0,1-2.789,2.164A9.425,9.425,0,0,1,176.672,30.313Zm-.594-13.469q-2.313,0-2.75,3.063h5.313V19.5A2.608,2.608,0,0,0,178,17.539,2.549,2.549,0,0,0,176.078,16.844Z" transform="translate(877 4014.545)" fill="#fff"/>
    <path id="Trazado_825612" data-name="Trazado 825612" d="M20.125,22.3a8.308,8.308,0,0,1-1.281,4.2,7.733,7.733,0,0,1-3.289,2.82,11.2,11.2,0,0,1-4.836,1,8.934,8.934,0,0,1-7.062-2.922q-2.578-2.922-2.578-8.25V18.016a13.771,13.771,0,0,1,1.164-5.852A8.82,8.82,0,0,1,5.594,8.289a9.351,9.351,0,0,1,5.063-1.367A9.806,9.806,0,0,1,17.313,9.1a8.612,8.612,0,0,1,2.859,6.008H14.7a4.075,4.075,0,0,0-1.047-2.984,4.306,4.306,0,0,0-3-.906,3.276,3.276,0,0,0-3,1.531,9.841,9.841,0,0,0-1,4.891V19.25a10.89,10.89,0,0,0,.914,5.2,3.345,3.345,0,0,0,3.148,1.563,4.211,4.211,0,0,0,2.891-.891A3.78,3.78,0,0,0,14.672,22.3Zm1.688-.906a9.978,9.978,0,0,1,.984-4.508,7.04,7.04,0,0,1,2.828-3.039,8.518,8.518,0,0,1,4.328-1.062,7.774,7.774,0,0,1,5.984,2.352,9.024,9.024,0,0,1,2.188,6.4v.188a8.755,8.755,0,0,1-2.2,6.273,7.794,7.794,0,0,1-5.945,2.32,7.883,7.883,0,0,1-5.8-2.164,8.464,8.464,0,0,1-2.359-5.867Zm5.266.328a6.291,6.291,0,0,0,.734,3.438,2.447,2.447,0,0,0,2.172,1.094q2.813,0,2.875-4.328v-.531q0-4.547-2.906-4.547-2.641,0-2.859,3.922Zm18.344-8.625.172,1.984a5.813,5.813,0,0,1,4.828-2.3,4.279,4.279,0,0,1,4.328,2.547,5.626,5.626,0,0,1,4.969-2.547Q64.859,12.781,65,19V30H59.719V19.328a3.223,3.223,0,0,0-.437-1.891,1.862,1.862,0,0,0-1.594-.594,2.5,2.5,0,0,0-2.328,1.391l.016.219V30H50.094V19.359a3.388,3.388,0,0,0-.422-1.922,1.857,1.857,0,0,0-1.609-.594,2.525,2.525,0,0,0-2.312,1.391V30H40.484V13.094ZM83.7,21.672a10.2,10.2,0,0,1-1.773,6.289,5.686,5.686,0,0,1-4.789,2.352,4.874,4.874,0,0,1-3.828-1.7V36.5H68.047V13.094h4.922l.156,1.563a4.874,4.874,0,0,1,3.984-1.875,5.732,5.732,0,0,1,4.859,2.3A10.321,10.321,0,0,1,83.7,21.422Zm-5.266-.328q0-4.5-2.625-4.5a2.478,2.478,0,0,0-2.5,1.344v6.656a2.559,2.559,0,0,0,2.531,1.406q2.516,0,2.594-4.344Zm6.922.047a9.978,9.978,0,0,1,.984-4.508,7.04,7.04,0,0,1,2.828-3.039A8.518,8.518,0,0,1,93.5,12.781a7.774,7.774,0,0,1,5.984,2.352,9.024,9.024,0,0,1,2.188,6.4v.188a8.755,8.755,0,0,1-2.2,6.273,7.794,7.794,0,0,1-5.945,2.32,7.883,7.883,0,0,1-5.8-2.164,8.464,8.464,0,0,1-2.359-5.867Zm5.266.328a6.291,6.291,0,0,0,.734,3.438,2.447,2.447,0,0,0,2.172,1.094q2.813,0,2.875-4.328v-.531q0-4.547-2.906-4.547-2.641,0-2.859,3.922Zm18.2-8.625L109,15.078a5.733,5.733,0,0,1,4.828-2.3,4.823,4.823,0,0,1,3.945,1.578,7.513,7.513,0,0,1,1.352,4.75V30h-5.281V19.328a2.853,2.853,0,0,0-.516-1.883,2.385,2.385,0,0,0-1.875-.6,2.511,2.511,0,0,0-2.3,1.219V30h-5.266V13.094Zm21.391,17.219a8.691,8.691,0,0,1-6.3-2.32,8.013,8.013,0,0,1-2.406-6.039v-.437a10.383,10.383,0,0,1,.961-4.578,7.031,7.031,0,0,1,2.8-3.07,8.467,8.467,0,0,1,4.375-1.086,7.318,7.318,0,0,1,5.625,2.211,8.688,8.688,0,0,1,2.063,6.164V23.2H126.875a3.8,3.8,0,0,0,1.234,2.234,3.673,3.673,0,0,0,2.469.813,4.732,4.732,0,0,0,3.906-1.75l2.406,2.844a6.726,6.726,0,0,1-2.789,2.164A9.425,9.425,0,0,1,130.219,30.313Zm-.594-13.469q-2.313,0-2.75,3.063h5.313V19.5a2.608,2.608,0,0,0-.641-1.961A2.549,2.549,0,0,0,129.625,16.844Zm14.672-3.75.172,1.984a5.733,5.733,0,0,1,4.828-2.3,4.823,4.823,0,0,1,3.945,1.578,7.513,7.513,0,0,1,1.352,4.75V30h-5.281V19.328a2.853,2.853,0,0,0-.516-1.883,2.385,2.385,0,0,0-1.875-.6,2.511,2.511,0,0,0-2.3,1.219V30h-5.266V13.094Zm19.344-4.2v4.2h2.781V16.75h-2.781v7.734a1.975,1.975,0,0,0,.344,1.328,1.844,1.844,0,0,0,1.359.375,7.725,7.725,0,0,0,1.313-.094v3.766a9.718,9.718,0,0,1-2.969.453,5.516,5.516,0,0,1-4.016-1.281,5.252,5.252,0,0,1-1.3-3.891V16.75h-2.156V13.094h2.156v-4.2Zm13.031,21.422a8.691,8.691,0,0,1-6.3-2.32,8.013,8.013,0,0,1-2.406-6.039v-.437a10.383,10.383,0,0,1,.961-4.578,7.031,7.031,0,0,1,2.8-3.07,8.467,8.467,0,0,1,4.375-1.086,7.318,7.318,0,0,1,5.625,2.211,8.688,8.688,0,0,1,2.063,6.164V23.2H173.328a3.8,3.8,0,0,0,1.234,2.234,3.673,3.673,0,0,0,2.469.813,4.732,4.732,0,0,0,3.906-1.75l2.406,2.844a6.726,6.726,0,0,1-2.789,2.164A9.425,9.425,0,0,1,176.672,30.313Zm-.594-13.469q-2.313,0-2.75,3.063h5.313V19.5A2.608,2.608,0,0,0,178,17.539,2.549,2.549,0,0,0,176.078,16.844Z" transform="translate(491.964 4196.744)" fill="#fff"/>
    <path id="Trazado_825611" data-name="Trazado 825611" d="M20.125,22.3a8.308,8.308,0,0,1-1.281,4.2,7.733,7.733,0,0,1-3.289,2.82,11.2,11.2,0,0,1-4.836,1,8.934,8.934,0,0,1-7.062-2.922q-2.578-2.922-2.578-8.25V18.016a13.771,13.771,0,0,1,1.164-5.852A8.82,8.82,0,0,1,5.594,8.289a9.351,9.351,0,0,1,5.063-1.367A9.806,9.806,0,0,1,17.313,9.1a8.612,8.612,0,0,1,2.859,6.008H14.7a4.075,4.075,0,0,0-1.047-2.984,4.306,4.306,0,0,0-3-.906,3.276,3.276,0,0,0-3,1.531,9.841,9.841,0,0,0-1,4.891V19.25a10.89,10.89,0,0,0,.914,5.2,3.345,3.345,0,0,0,3.148,1.563,4.211,4.211,0,0,0,2.891-.891A3.78,3.78,0,0,0,14.672,22.3Zm1.688-.906a9.978,9.978,0,0,1,.984-4.508,7.04,7.04,0,0,1,2.828-3.039,8.518,8.518,0,0,1,4.328-1.062,7.774,7.774,0,0,1,5.984,2.352,9.024,9.024,0,0,1,2.188,6.4v.188a8.755,8.755,0,0,1-2.2,6.273,7.794,7.794,0,0,1-5.945,2.32,7.883,7.883,0,0,1-5.8-2.164,8.464,8.464,0,0,1-2.359-5.867Zm5.266.328a6.291,6.291,0,0,0,.734,3.438,2.447,2.447,0,0,0,2.172,1.094q2.813,0,2.875-4.328v-.531q0-4.547-2.906-4.547-2.641,0-2.859,3.922Zm18.344-8.625.172,1.984a5.813,5.813,0,0,1,4.828-2.3,4.279,4.279,0,0,1,4.328,2.547,5.626,5.626,0,0,1,4.969-2.547Q64.859,12.781,65,19V30H59.719V19.328a3.223,3.223,0,0,0-.437-1.891,1.862,1.862,0,0,0-1.594-.594,2.5,2.5,0,0,0-2.328,1.391l.016.219V30H50.094V19.359a3.388,3.388,0,0,0-.422-1.922,1.857,1.857,0,0,0-1.609-.594,2.525,2.525,0,0,0-2.312,1.391V30H40.484V13.094ZM83.7,21.672a10.2,10.2,0,0,1-1.773,6.289,5.686,5.686,0,0,1-4.789,2.352,4.874,4.874,0,0,1-3.828-1.7V36.5H68.047V13.094h4.922l.156,1.563a4.874,4.874,0,0,1,3.984-1.875,5.732,5.732,0,0,1,4.859,2.3A10.321,10.321,0,0,1,83.7,21.422Zm-5.266-.328q0-4.5-2.625-4.5a2.478,2.478,0,0,0-2.5,1.344v6.656a2.559,2.559,0,0,0,2.531,1.406q2.516,0,2.594-4.344Zm6.922.047a9.978,9.978,0,0,1,.984-4.508,7.04,7.04,0,0,1,2.828-3.039A8.518,8.518,0,0,1,93.5,12.781a7.774,7.774,0,0,1,5.984,2.352,9.024,9.024,0,0,1,2.188,6.4v.188a8.755,8.755,0,0,1-2.2,6.273,7.794,7.794,0,0,1-5.945,2.32,7.883,7.883,0,0,1-5.8-2.164,8.464,8.464,0,0,1-2.359-5.867Zm5.266.328a6.291,6.291,0,0,0,.734,3.438,2.447,2.447,0,0,0,2.172,1.094q2.813,0,2.875-4.328v-.531q0-4.547-2.906-4.547-2.641,0-2.859,3.922Zm18.2-8.625L109,15.078a5.733,5.733,0,0,1,4.828-2.3,4.823,4.823,0,0,1,3.945,1.578,7.513,7.513,0,0,1,1.352,4.75V30h-5.281V19.328a2.853,2.853,0,0,0-.516-1.883,2.385,2.385,0,0,0-1.875-.6,2.511,2.511,0,0,0-2.3,1.219V30h-5.266V13.094Zm21.391,17.219a8.691,8.691,0,0,1-6.3-2.32,8.013,8.013,0,0,1-2.406-6.039v-.437a10.383,10.383,0,0,1,.961-4.578,7.031,7.031,0,0,1,2.8-3.07,8.467,8.467,0,0,1,4.375-1.086,7.318,7.318,0,0,1,5.625,2.211,8.688,8.688,0,0,1,2.063,6.164V23.2H126.875a3.8,3.8,0,0,0,1.234,2.234,3.673,3.673,0,0,0,2.469.813,4.732,4.732,0,0,0,3.906-1.75l2.406,2.844a6.726,6.726,0,0,1-2.789,2.164A9.425,9.425,0,0,1,130.219,30.313Zm-.594-13.469q-2.313,0-2.75,3.063h5.313V19.5a2.608,2.608,0,0,0-.641-1.961A2.549,2.549,0,0,0,129.625,16.844Zm14.672-3.75.172,1.984a5.733,5.733,0,0,1,4.828-2.3,4.823,4.823,0,0,1,3.945,1.578,7.513,7.513,0,0,1,1.352,4.75V30h-5.281V19.328a2.853,2.853,0,0,0-.516-1.883,2.385,2.385,0,0,0-1.875-.6,2.511,2.511,0,0,0-2.3,1.219V30h-5.266V13.094Zm19.344-4.2v4.2h2.781V16.75h-2.781v7.734a1.975,1.975,0,0,0,.344,1.328,1.844,1.844,0,0,0,1.359.375,7.725,7.725,0,0,0,1.313-.094v3.766a9.718,9.718,0,0,1-2.969.453,5.516,5.516,0,0,1-4.016-1.281,5.252,5.252,0,0,1-1.3-3.891V16.75h-2.156V13.094h2.156v-4.2Zm13.031,21.422a8.691,8.691,0,0,1-6.3-2.32,8.013,8.013,0,0,1-2.406-6.039v-.437a10.383,10.383,0,0,1,.961-4.578,7.031,7.031,0,0,1,2.8-3.07,8.467,8.467,0,0,1,4.375-1.086,7.318,7.318,0,0,1,5.625,2.211,8.688,8.688,0,0,1,2.063,6.164V23.2H173.328a3.8,3.8,0,0,0,1.234,2.234,3.673,3.673,0,0,0,2.469.813,4.732,4.732,0,0,0,3.906-1.75l2.406,2.844a6.726,6.726,0,0,1-2.789,2.164A9.425,9.425,0,0,1,176.672,30.313Zm-.594-13.469q-2.313,0-2.75,3.063h5.313V19.5A2.608,2.608,0,0,0,178,17.539,2.549,2.549,0,0,0,176.078,16.844Z" transform="translate(877 4196.744)" fill="#fff"/>
  </g>
</svg>
