<svg xmlns="http://www.w3.org/2000/svg" xmlns:xlink="http://www.w3.org/1999/xlink" width="400" height="429" viewBox="0 0 400 429">
  <defs>
    <clipPath id="clip-path">
      <rect id="Rectángulo_383484" data-name="Rectángulo 383484" width="399.742" height="428.986"/>
    </clipPath>
    <clipPath id="clip-path-4">
      <rect id="Rectángulo_383538" data-name="Rectángulo 383538" width="400" height="429"/>
    </clipPath>
    <linearGradient id="linear-gradient" y1="0.5" x2="1" y2="0.5" gradientUnits="objectBoundingBox">
      <stop offset="0.086" stop-color="#83a2ce"/>
      <stop offset="0.868" stop-color="#cedff4"/>
    </linearGradient>
    <linearGradient id="linear-gradient-2" x1="-0.731" y1="0.5" x2="0.269" y2="0.5" xlink:href="#linear-gradient"/>
    <linearGradient id="linear-gradient-3" x1="0.507" y1="1.589" x2="0.488" y2="-0.013" xlink:href="#linear-gradient"/>
    <linearGradient id="linear-gradient-4" x1="0.524" y1="1.589" x2="0.489" y2="0.007" xlink:href="#linear-gradient"/>
    <linearGradient id="linear-gradient-5" x1="0.523" y1="1.549" x2="0.488" y2="-0.032" xlink:href="#linear-gradient"/>
    <clipPath id="clip-path-5">
      <rect id="Rectángulo_383539" data-name="Rectángulo 383539" width="400" height="399"/>
    </clipPath>
  </defs>
  <g id="_13744588_2021_03_08" data-name="13744588_2021_03_08" transform="translate(0 -0.333)">
    <g id="BG" transform="translate(0 0.347)">
      <g id="BG_1_">
        <g id="Grupo_1075665" data-name="Grupo 1075665">
          <g id="Grupo_1075664" data-name="Grupo 1075664">
            <rect id="Rectángulo_383483" data-name="Rectángulo 383483" width="399.742" height="428.986" fill="#e6f0ff"/>
            <g id="Grupo_1075661" data-name="Grupo 1075661" clip-path="url(#clip-path)">
              <path id="Trazado_824529" data-name="Trazado 824529" d="M305.318,623.169H295.056l10.261-10.343v-1.133l-10.839,10.925V609.29h10.839v-.806H-138v.806h10.334L-138,619.706v1.133l10.855-10.942v13.271H-138v.806h11.158a.363.363,0,0,0,.082.01.359.359,0,0,0,.08-.01h14.351a.363.363,0,0,0,.082.01.356.356,0,0,0,.08-.01h14.248a.363.363,0,0,0,.082.01.356.356,0,0,0,.08-.01H-83.4a.363.363,0,0,0,.082.01.359.359,0,0,0,.08-.01H-68.89a.363.363,0,0,0,.082.01.359.359,0,0,0,.08-.01h14.351a.364.364,0,0,0,.082.01.358.358,0,0,0,.08-.01h14.3a.363.363,0,0,0,.082.01.359.359,0,0,0,.08-.01H-25.4a.363.363,0,0,0,.082.01.359.359,0,0,0,.08-.01h14.351a.363.363,0,0,0,.082.01.359.359,0,0,0,.08-.01H3.626a.363.363,0,0,0,.082.01.359.359,0,0,0,.08-.01H18.517a.363.363,0,0,0,.082.01.359.359,0,0,0,.08-.01H33.031a.363.363,0,0,0,.082.01.358.358,0,0,0,.08-.01H47.442a.364.364,0,0,0,.082.01.359.359,0,0,0,.08-.01H61.955a.364.364,0,0,0,.082.01.358.358,0,0,0,.08-.01H76.469a.363.363,0,0,0,.082.01.358.358,0,0,0,.08-.01H90.982a.364.364,0,0,0,.082.01.358.358,0,0,0,.08-.01h14.3a.363.363,0,0,0,.082.01.359.359,0,0,0,.08-.01h14.351a.363.363,0,0,0,.082.01.358.358,0,0,0,.08-.01h14.351a.363.363,0,0,0,.082.01.359.359,0,0,0,.08-.01h14.351a.364.364,0,0,0,.082.01.359.359,0,0,0,.08-.01h14.4a.363.363,0,0,0,.082.01.359.359,0,0,0,.08-.01H178.06a.363.363,0,0,0,.082.01.359.359,0,0,0,.08-.01h14.248a.363.363,0,0,0,.082.01.358.358,0,0,0,.08-.01h14.351a.363.363,0,0,0,.082.01.358.358,0,0,0,.08-.01H221.5a.363.363,0,0,0,.082.01.356.356,0,0,0,.08-.01h14.351a.362.362,0,0,0,.082.01.358.358,0,0,0,.08-.01h14.3a.364.364,0,0,0,.082.01.356.356,0,0,0,.08-.01h14.351a.362.362,0,0,0,.082.01.359.359,0,0,0,.08-.01H279.5a.363.363,0,0,0,.082.01.358.358,0,0,0,.08-.01h14.351a.362.362,0,0,0,.082.01.358.358,0,0,0,.08-.01h11.143v-.806ZM-126.374,609.29h13.222l-13.222,13.327Zm13.744,13.879H-125.8L-112.63,609.9Zm.77-13.879h13.222l-13.222,13.327Zm13.641,13.879h-13.064L-98.22,610v13.168Zm.77-13.879h13.222L-97.45,622.618Zm13.744,13.879H-96.873L-83.706,609.9Zm.77-13.879h13.222l-13.222,13.327Zm13.744,13.879H-82.359L-69.193,609.9Zm.77-13.879H-55.2l-13.222,13.327Zm13.744,13.879H-67.846L-54.679,609.9Zm.77-13.879h13.222L-53.91,622.618Zm13.692,13.879H-53.332l13.115-13.22v13.22Zm.77-13.879h13.222l-13.222,13.327V609.29ZM-25.7,623.169H-38.87L-25.7,609.9Zm.77-13.879h13.222l-13.222,13.327Zm13.744,13.879H-24.357L-11.19,609.9Zm.77-13.879H2.8l-13.222,13.327ZM3.323,623.169H-9.843L3.323,609.9Zm.77-13.879H17.315L4.093,622.618Zm14.122,13.879H5.048L18.214,609.9Zm.77-13.879H32.206L18.984,622.618Zm13.744,13.879H19.561L32.728,609.9Zm.77-13.879H46.719L33.5,622.618Zm13.642,13.879H34.075L47.139,610Zm.769-13.879H61.13L47.908,622.618Zm13.745,13.879H48.486L61.653,609.9Zm.769-13.879H75.644L62.422,622.618Zm13.743,13.879H63L76.165,609.9Zm.771-13.879H90.158L76.936,622.618Zm13.743,13.879H77.512L90.679,609.9Zm.769-13.879H104.67L91.448,622.618Zm13.694,13.879H92.026l13.115-13.22Zm.769-13.879h13.222l-13.222,13.327Zm13.743,13.879H106.487L119.654,609.9Zm.771-13.879h13.222l-13.222,13.327Zm13.743,13.879H121L134.168,609.9Zm.769-13.879h13.222l-13.222,13.327Zm13.745,13.879H135.515L148.681,609.9Zm.769-13.879h13.222L149.45,622.618Zm13.793,13.879H150.077L163.243,609.9Zm.769-13.879h13.222l-13.222,13.327Zm13.743,13.879H164.589L177.756,609.9v13.271Zm.771-13.879h13.222l-13.222,13.327Zm13.641,13.879H179.1L192.167,610Zm.769-13.879h13.222l-13.222,13.327Zm13.745,13.879H193.514L206.681,609.9Zm.769-13.879h13.222L207.45,622.618V609.29Zm13.743,13.879H208.026L221.193,609.9Zm.771-13.879h13.222l-13.222,13.327Zm13.743,13.879H222.54L235.707,609.9Zm.771-13.879H249.7l-13.222,13.327Zm13.692,13.879H237.054l13.115-13.22Zm.769-13.879H264.16l-13.222,13.327Zm13.745,13.879H251.517L264.683,609.9Zm.769-13.879h13.222l-13.222,13.327ZM279.2,623.169H266.029L279.2,609.9Zm.771-13.879h13.222l-13.222,13.327Zm13.743,13.879H280.543L293.709,609.9Z" transform="translate(115.933 -504.36)" fill="#deecff"/>
            </g>
            <g id="Grupo_1075662" data-name="Grupo 1075662" clip-path="url(#clip-path)">
              <path id="Trazado_824530" data-name="Trazado 824530" d="M308.618,149.891H270.756l37.862-38.164v-2.8H-134.7v2.249h36.326L-134.7,147.794v4.346h38.625a1,1,0,0,0,.23.027,1,1,0,0,0,.223-.027h40.03a1,1,0,0,0,.23.027,1,1,0,0,0,.223-.027h39.744a1,1,0,0,0,.23.027,1,1,0,0,0,.223-.027h40.03a.948.948,0,0,0,.453,0h40.03a.947.947,0,0,0,.453,0h40.03a.948.948,0,0,0,.453,0h39.887a.948.948,0,0,0,.453,0h40.03a.948.948,0,0,0,.453,0h40.03a.948.948,0,0,0,.453,0h40.03a.948.948,0,0,0,.453,0h40.323v-2.249Zm-405.535,0h-36.726l36.726-37.019Zm2.147-38.713H-57.89l-36.881,37.175Zm38.336,38.713H-93.16l36.726-37.019Zm2.147-38.713h36.881l-36.881,37.175Zm38.05,38.713h-36.44l36.44-36.73Zm2.147-38.713H22.79l-36.881,37.175Zm38.336,38.713H-12.481l36.726-37.018v37.018Zm2.147-38.713H63.273L26.392,148.353Zm38.336,38.713H28l36.726-37.018v37.018Zm2.147-38.713h36.881L66.875,148.353Zm38.335,38.713H68.484l36.726-37.018Zm2.147-38.713h36.881l-36.881,37.175Zm38.193,38.713H108.967l36.583-36.874v36.874Zm2.147-38.713h36.881L147.7,148.353Zm38.335,38.713H149.307l36.726-37.018Zm2.147-38.713h36.881L188.18,148.353Zm38.335,38.713H189.79l36.726-37.018Zm2.147-38.713h36.881l-36.881,37.175ZM267,149.891H230.273L267,112.872Zm2.147-38.713h36.881l-36.881,37.175Z" transform="translate(113.161 -90.526)" fill="#cce0ff"/>
            </g>
            <g id="Grupo_1075663" data-name="Grupo 1075663" clip-path="url(#clip-path)">
              <path id="Trazado_824531" data-name="Trazado 824531" d="M308.618,432.009H306.76V410.319l1.858,1.873V410.34l-1.005-1.013h1.005v-1.318H-134.7v1.318h13.065v21.781L-134.7,417.939v1.852l12.121,12.218H-134.7v1.318h13.563a.589.589,0,0,0,.131.016.581.581,0,0,0,.135-.016h23.454a.589.589,0,0,0,.131.016.579.579,0,0,0,.134-.016h23.286a.589.589,0,0,0,.131.016.579.579,0,0,0,.134-.016h23.454a.589.589,0,0,0,.131.016.579.579,0,0,0,.134-.016h23.532a.589.589,0,0,0,.131.016.579.579,0,0,0,.134-.016H-2.63a.589.589,0,0,0,.131.016.579.579,0,0,0,.134-.016H21.089a.589.589,0,0,0,.131.016.579.579,0,0,0,.134-.016H44.808a.589.589,0,0,0,.131.016.579.579,0,0,0,.134-.016h23.37a.589.589,0,0,0,.131.016.578.578,0,0,0,.134-.016H92.162a.589.589,0,0,0,.131.016.579.579,0,0,0,.134-.016h23.454a.589.589,0,0,0,.131.016.581.581,0,0,0,.135-.016H139.6a.589.589,0,0,0,.131.016.581.581,0,0,0,.135-.016h23.286a.589.589,0,0,0,.131.016.581.581,0,0,0,.135-.016H186.87a.589.589,0,0,0,.131.016.578.578,0,0,0,.134-.016h24.071a.589.589,0,0,0,.131.016.579.579,0,0,0,.134-.016h23.454a.589.589,0,0,0,.131.016.581.581,0,0,0,.135-.016h23.454a.589.589,0,0,0,.131.016.579.579,0,0,0,.134-.016h23.454a.589.589,0,0,0,.131.016.579.579,0,0,0,.135-.016H306a.59.59,0,0,0,.131.016.581.581,0,0,0,.135-.016h2.352v-1.318Zm-428.994,0V410.319l21.518,21.689Zm22.461-.9-21.609-21.781h21.609Zm1.258.9v-21.52l21.35,21.52Zm22.294-.9-21.609-21.781h21.609Zm1.258.9v-21.69l21.518,21.69Zm22.461-.9-21.608-21.781h21.608Zm1.258.9v-21.69l21.518,21.69Zm22.54-.9-21.609-21.781h21.609v21.781Zm1.258.9V410.319l21.518,21.689Zm22.461-.9-21.609-21.781H-3.128Zm1.258.9V410.319l21.518,21.689Zm22.461-.9L-1.017,409.327H20.591v21.781Zm1.258.9V410.319l21.518,21.689Zm22.461-.9L22.7,409.327H44.31Zm1.258.9V410.4L67,432.009Zm22.378-.9L46.337,409.327H67.945v21.781Zm1.257.9V410.319l21.518,21.689H69.2Zm22.462-.9L70.056,409.327H91.665Zm1.257.9V410.319l21.518,21.689Zm22.462-.9L93.776,409.327h21.609Zm1.257.9V410.319l21.518,21.689Zm22.462-.9-21.609-21.781H139.1Zm1.257.9v-21.52l21.35,21.52Zm22.294-.9-21.609-21.781h21.609Zm1.257.9v-21.69l21.518,21.689H163.911Zm22.462-.9-21.609-21.781h21.609Zm1.257.9v-21.69l21.518,21.689H187.63Zm23.08-.9L189.1,409.327H210.71Zm1.257.9V410.319l21.518,21.689Zm22.462-.9L212.82,409.327h21.609Zm1.258.9V410.319l21.518,21.689H235.687Zm22.461-.9-21.609-21.781h21.609Zm1.257.9V410.319l21.518,21.689Zm22.462-.9-21.609-21.781h21.609Zm1.258.9V410.4l21.434,21.6Zm22.376-.9-21.609-21.781H305.5Z" transform="translate(113.161 -338.285)" fill="#d9e8ff"/>
            </g>
          </g>
        </g>
      </g>
    </g>
    <g id="machine" transform="translate(0 0.333)">
      <g id="Grupo_1075844" data-name="Grupo 1075844">
        <g id="Grupo_1075843" data-name="Grupo 1075843" clip-path="url(#clip-path-4)">
          <ellipse id="Elipse_9826" data-name="Elipse 9826" cx="50.445" cy="10.894" rx="50.445" ry="10.894" transform="translate(0.314 253.046)" fill="url(#linear-gradient)"/>
          <ellipse id="Elipse_9827" data-name="Elipse 9827" cx="50.445" cy="10.894" rx="50.445" ry="10.894" transform="translate(313.089 250.896)" fill="url(#linear-gradient-2)"/>
          <path id="Trazado_824532" data-name="Trazado 824532" d="M2992.813,1397.923c-14.17,0-26.983-2.6-38.1-7.744a72.269,72.269,0,0,1-23.793-17.626c-11.358-12.757-14.805-25.5-14.946-26.037l5.143-1.571a65.36,65.36,0,0,0,13.852,23.841c14.1,15.706,33.84,23.576,58.688,23.385l.038,5.748C2993.4,1397.922,2993.1,1397.923,2992.813,1397.923Z" transform="translate(-2449.718 -1113.998)" fill="#3c326e"/>
          <path id="Trazado_824533" data-name="Trazado 824533" d="M2501.026,651.92l-5.058-1.863a193.563,193.563,0,0,0,7.583-44.654c1.308-31.13-7.009-52.4-24.721-63.221-17.265-10.547-35.343-13.677-53.731-9.3a67.6,67.6,0,0,0-22.7,9.864l-3.063-4.711a71.374,71.374,0,0,1,24.371-10.708,72.807,72.807,0,0,1,26.117-1.531,79.315,79.315,0,0,1,31.645,11.391c10.853,6.63,18.615,16.907,23.072,30.548,3.5,10.723,4.965,23.527,4.343,38.056A196.025,196.025,0,0,1,2501.026,651.92Z" transform="translate(-2015.693 -435.222)" fill="#3c326e"/>
          <path id="Trazado_824534" data-name="Trazado 824534" d="M-728.934,1363.41l-1.487-5.521c16.487-5.132,27.619-16.3,34.054-24.771a77.809,77.809,0,0,0,10.078-17.232l4.949,2.174a82.7,82.7,0,0,1-10.888,18.7C-699.143,1345.856-711.125,1357.867-728.934,1363.41Z" transform="translate(613.629 -1089.934)" fill="#3c326e"/>
          <path id="Trazado_824535" data-name="Trazado 824535" d="M696.615,430l-1.689-.291a19.854,19.854,0,0,1,4.262-8.584c3.3-4.149,9.856-9.744,22.381-12.833,13.783-3.4,23.746.969,29.676,5.232a36.221,36.221,0,0,1,9.681,10.21l-1.455.967h0a35.134,35.134,0,0,0-9.238-9.692c-8.205-5.871-17.721-7.528-28.281-4.924-11.988,2.956-18.241,8.226-21.376,12.126A18.5,18.5,0,0,0,696.615,430Z" transform="translate(-583.81 -337.363)" fill="#3c326e"/>
          <g id="Grupo_1075674" data-name="Grupo 1075674" transform="translate(314.492 115.731)">
            <g id="Grupo_1075673" data-name="Grupo 1075673">
              <g id="Grupo_1075668" data-name="Grupo 1075668" transform="translate(0 112.683)">
                <ellipse id="Elipse_9828" data-name="Elipse 9828" cx="46.89" cy="10.894" rx="46.89" ry="10.894" transform="translate(0.001 19.255)" fill="#241f3c"/>
                <rect id="Rectángulo_383487" data-name="Rectángulo 383487" width="93.779" height="19.254" transform="translate(93.779 30.148) rotate(180)" fill="#241f3c"/>
                <ellipse id="Elipse_9829" data-name="Elipse 9829" cx="46.89" cy="10.894" rx="46.89" ry="10.894" transform="translate(0.001)" fill="#3f3669"/>
              </g>
              <g id="Grupo_1075672" data-name="Grupo 1075672" transform="translate(8.579)">
                <ellipse id="Elipse_9830" data-name="Elipse 9830" cx="24.68" cy="5.052" rx="24.68" ry="5.052" transform="translate(0.048 116.444)" fill="#241f3c"/>
                <g id="Grupo_1075669" data-name="Grupo 1075669" transform="translate(1.813)">
                  <ellipse id="Elipse_9831" data-name="Elipse 9831" cx="22.835" cy="24.552" rx="22.835" ry="24.552" transform="translate(0 72.306)" fill="#446799"/>
                  <path id="Trazado_824536" data-name="Trazado 824536" d="M2054.994,695.207s2.566,42.208-15.138,67.036c25.658,30.622,43.618,17.1,43.618,17.1s24.888-31.173,16.677-89.52C2095.861,659.324,2054.738,682.517,2054.994,695.207Z" transform="translate(-2038.573 -674.765)" fill="#6ea0e6"/>
                </g>
                <g id="Grupo_1075671" data-name="Grupo 1075671" transform="translate(0 72.124)">
                  <g id="Grupo_1075670" data-name="Grupo 1075670">
                    <path id="Trazado_824537" data-name="Trazado 824537" d="M2020.5,1143.6h49.368v-22.771c0-14.657-11.051-26.54-24.684-26.54h0c-13.633,0-24.684,11.882-24.684,26.54Z" transform="translate(-2020.5 -1094.286)" fill="#241f3c"/>
                    <path id="Trazado_824538" data-name="Trazado 824538" d="M2105.687,1180.354a12.711,12.711,0,0,0,1.127,17.028,10.69,10.69,0,0,0,15.837-1.212,12.711,12.711,0,0,0-1.126-17.028A10.689,10.689,0,0,0,2105.687,1180.354Zm3.409,3.179a6.392,6.392,0,0,1,9.471-.725,7.6,7.6,0,0,1,.673,10.182,6.393,6.393,0,0,1-9.47.725A7.6,7.6,0,0,1,2109.1,1183.533Z" transform="translate(-2089.759 -1162.11)" fill="#4c4180"/>
                  </g>
                </g>
              </g>
            </g>
          </g>
          <g id="Grupo_1075680" data-name="Grupo 1075680" transform="translate(358.049 166.985)">
            <g id="Grupo_1075675" data-name="Grupo 1075675" transform="translate(0 158.64)">
              <path id="Trazado_824712" data-name="Trazado 824712" d="M67.02-.2c37.014-.111,67,6.768,66.976,15.365S103.947,30.82,66.933,30.932s-67-6.768-66.976-15.365S30.006-.09,67.02-.2Z" transform="matrix(0.999, -0.04, 0.04, 0.999, 1.027, 33.273)" fill="#241f3c"/>
              <path id="Trazado_824713" data-name="Trazado 824713" d="M0,0,134.04-.4l-.077,27.514-134.04.4Z" transform="matrix(-0.999, 0.04, -0.04, -0.999, 135.517, 43.053)" fill="#241f3c"/>
              <path id="Trazado_824714" data-name="Trazado 824714" d="M67.02-.2c37.014-.111,67,6.768,66.976,15.365S103.947,30.82,66.933,30.932s-67-6.768-66.976-15.365S30.006-.09,67.02-.2Z" transform="matrix(0.999, -0.04, 0.04, 0.999, 0, 5.778)" fill="#352d57"/>
            </g>
            <g id="Grupo_1075679" data-name="Grupo 1075679" transform="translate(0.444)">
              <path id="Trazado_824715" data-name="Trazado 824715" d="M35.275-.106C54.757-.165,70.541,3.02,70.53,7.007s-15.813,7.267-35.3,7.325S-.031,11.206-.02,7.219,15.793-.048,35.275-.106Z" transform="matrix(0.999, -0.04, 0.04, 0.999, 12.076, 169.258)" fill="#241f3c"/>
              <g id="Grupo_1075676" data-name="Grupo 1075676" transform="translate(0)">
                <path id="Trazado_824716" data-name="Trazado 824716" d="M33.862-1.227A31.046,31.046,0,0,1,66.5,31.408C65.819,50.11,50.11,65.819,31.408,66.5A31.046,31.046,0,0,1-1.227,33.862C-.549,15.161,15.161-.549,33.862-1.227Z" transform="translate(0 139.773) rotate(-45)" fill="#446799"/>
                <path id="Trazado_824539" data-name="Trazado 824539" d="M2353.133,1003.942s5.913,60.115-18.044,96.66c38.271,42.147,63.2,21.737,63.2,21.737s33.879-46.049,19.045-128.861C2409.577,950.183,2352.091,985.835,2353.133,1003.942Z" transform="translate(-2320.208 -972.893)" fill="#446799"/>
              </g>
              <g id="Grupo_1075678" data-name="Grupo 1075678" transform="translate(11.028 104.42)">
                <g id="Grupo_1075677" data-name="Grupo 1075677">
                  <path id="Trazado_824540" data-name="Trazado 824540" d="M2312.241,1652.237l70.5-3.042-1.214-32.517c-.781-20.931-17.2-37.218-36.663-36.377h0c-19.467.84-34.615,18.488-33.834,39.419Z" transform="translate(-2310.999 -1580.27)" fill="#241f3c"/>
                  <path id="Trazado_824541" data-name="Trazado 824541" d="M2432.2,1703.914a18.144,18.144,0,0,0,2.517,24.247,15.3,15.3,0,0,0,22.55-2.707,18.143,18.143,0,0,0-2.515-24.246A15.3,15.3,0,0,0,2432.2,1703.914Zm5.038,4.329a9.148,9.148,0,0,1,13.486-1.618,10.849,10.849,0,0,1,1.5,14.5,9.148,9.148,0,0,1-13.485,1.619A10.851,10.851,0,0,1,2437.236,1708.243Z" transform="translate(-2409.868 -1677.289)" fill="#352d57"/>
                </g>
              </g>
            </g>
          </g>
          <g id="Grupo_1075687" data-name="Grupo 1075687" transform="translate(95.77 87.497)">
            <g id="Grupo_1075686" data-name="Grupo 1075686">
              <g id="Grupo_1075681" data-name="Grupo 1075681" transform="translate(0 71.414)">
                <ellipse id="Elipse_9836" data-name="Elipse 9836" cx="29.717" cy="6.904" rx="29.717" ry="6.904" transform="translate(0 12.203)" fill="#2f294d"/>
                <rect id="Rectángulo_383489" data-name="Rectángulo 383489" width="59.434" height="12.202" transform="translate(0 6.904)" fill="#2f294d"/>
                <ellipse id="Elipse_9837" data-name="Elipse 9837" cx="29.717" cy="6.904" rx="29.717" ry="6.904" fill="#5a4d94"/>
              </g>
              <g id="Grupo_1075685" data-name="Grupo 1075685" transform="translate(12.769)">
                <ellipse id="Elipse_9838" data-name="Elipse 9838" cx="15.641" cy="3.202" rx="15.641" ry="3.202" transform="translate(9.915 73.798)" fill="#3c326e"/>
                <g id="Grupo_1075682" data-name="Grupo 1075682">
                  <ellipse id="Elipse_9839" data-name="Elipse 9839" cx="14.472" cy="15.56" rx="14.472" ry="15.56" transform="translate(11.135 45.825)" fill="#446799"/>
                  <path id="Trazado_824542" data-name="Trazado 824542" d="M708.475,523.492s-1.626,26.75,9.594,42.485c-16.261,19.407-27.644,10.84-27.644,10.84s-15.773-19.756-10.57-56.734C682.576,500.751,708.637,515.449,708.475,523.492Z" transform="translate(-678.802 -510.536)" fill="#9bbef2"/>
                </g>
                <g id="Grupo_1075684" data-name="Grupo 1075684" transform="translate(9.94 45.709)">
                  <g id="Grupo_1075683" data-name="Grupo 1075683">
                    <path id="Trazado_824543" data-name="Trazado 824543" d="M772.256,807.665H740.969V793.234c0-9.289,7-16.82,15.644-16.82h0c8.64,0,15.644,7.531,15.644,16.82v14.431Z" transform="translate(-740.969 -776.414)" fill="#3c326e"/>
                    <path id="Trazado_824544" data-name="Trazado 824544" d="M797.852,830.194a8.056,8.056,0,0,0-.714,10.792,6.775,6.775,0,0,0,10.037.768,8.056,8.056,0,0,0,.714-10.792A6.775,6.775,0,0,0,797.852,830.194Zm7.449,9.236a4.051,4.051,0,0,1-6-.459,4.817,4.817,0,0,1,.427-6.453,4.051,4.051,0,0,1,6,.459A4.817,4.817,0,0,1,805.3,839.431Z" transform="translate(-786.695 -819.399)" fill="#5a4d94"/>
                  </g>
                </g>
              </g>
            </g>
          </g>
          <g id="Grupo_1075697" data-name="Grupo 1075697" transform="translate(103.295 76.473)">
            <g id="Grupo_1075693" data-name="Grupo 1075693" transform="translate(81.379 52.617)">
              <path id="Trazado_824717" data-name="Trazado 824717" d="M0,0,4.1-.125,3.728,12.689l-4.1.125Z" transform="translate(0 2.014) rotate(-27.644)" fill="#4d4280"/>
              <g id="Grupo_1075692" data-name="Grupo 1075692" transform="translate(1.547 8.381)">
                <g id="Grupo_1075689" data-name="Grupo 1075689" transform="translate(6.832 9.456)">
                  <path id="Trazado_824718" data-name="Trazado 824718" d="M0,0,4.052-.121,4,1.654l-4.052.121Z" transform="translate(0 1.949) rotate(-27.021)" fill="#4d4280"/>
                  <path id="Trazado_824719" data-name="Trazado 824719" d="M0,0,2.436-.073,2.359,2.581l-2.436.073Z" transform="translate(1.146 2.48) rotate(-27.021)" fill="#4d4280"/>
                  <path id="Trazado_824720" data-name="Trazado 824720" d="M0,0,4.052-.121,4,1.654l-4.052.121Z" transform="translate(0 1.949) rotate(-27.021)" fill="#4d4280"/>
                  <g id="Grupo_1075688" data-name="Grupo 1075688" transform="translate(1.948 3.551)">
                    <path id="Trazado_824545" data-name="Trazado 824545" d="M1223.065,877.124h0l-.395-.131a2.257,2.257,0,0,0-1.805.168h0a2.544,2.544,0,0,0-1.186,1.473l-.133.421h0l0,0h0l.9,1.9h0l.4.13a2.258,2.258,0,0,0,1.787-.174l.018-.01a2.542,2.542,0,0,0,1.18-1.453l.138-.425h0Z" transform="translate(-1219.539 -876.876)" fill="#4d4280"/>
                    <path id="Trazado_824721" data-name="Trazado 824721" d="M0,0,2.318-.069l-.049,1.7L-.049,1.7Z" transform="translate(1.504 3.392) rotate(-27.021)" fill="#4d4280"/>
                  </g>
                  <path id="Trazado_824546" data-name="Trazado 824546" d="M1229.57,886.223l3.11,6.554.6.2.225-.658-3.108-6.554Z" transform="translate(-1226.018 -880.689)" fill="#4d4280"/>
                </g>
                <g id="Grupo_1075690" data-name="Grupo 1075690" transform="translate(3.427 6.262)">
                  <path id="Trazado_824547" data-name="Trazado 824547" d="M1193.777,841.426l-4.293,2.353-3.423-1.37,8.7-4.767Z" transform="translate(-1186.06 -837.642)" fill="#9bbef2"/>
                </g>
                <g id="Grupo_1075691" data-name="Grupo 1075691" transform="translate(0.462 0.051)">
                  <path id="Trazado_824548" data-name="Trazado 824548" d="M1169.052,804.042l4.607-2.526,3.192.455-9.33,5.116Z" transform="translate(-1167.52 -801.516)" fill="#9bbef2"/>
                </g>
                <path id="Trazado_824722" data-name="Trazado 824722" d="M0,0,11.282-.338,11.089,6.4-.193,6.734Z" transform="translate(0 5.427) rotate(-27.021)" fill="#4d4280"/>
              </g>
            </g>
            <g id="Grupo_1075694" data-name="Grupo 1075694" transform="translate(75.141 13.488)">
              <path id="Trazado_824723" data-name="Trazado 824723" d="M0,0,20.332.089l.029,6.087L.029,6.087Z" transform="translate(10.322 17.628) rotate(86.405)" fill="#4d4280"/>
              <path id="Trazado_824549" data-name="Trazado 824549" d="M1116.721,545.627l-.769-13.149a7,7,0,0,1,6.23-7.6h0a6.85,6.85,0,0,1,7.066,6.7l.769,13.149Z" transform="translate(-1115.94 -524.867)" fill="#9bbef2"/>
              <path id="Trazado_824550" data-name="Trazado 824550" d="M1124.2,695.734l-.542-9.266,13.3-.9.542,9.266a7,7,0,0,1-6.23,7.6h0A6.851,6.851,0,0,1,1124.2,695.734Z" transform="translate(-1122.428 -657.942)" fill="#9bbef2"/>
              <path id="Trazado_824551" data-name="Trazado 824551" d="M1147.487,726.89a3.914,3.914,0,0,1,1.589-5.057,3.405,3.405,0,0,1,4.7,1.708,3.914,3.914,0,0,1-1.589,5.057A3.405,3.405,0,0,1,1147.487,726.89Zm4.968-2.644a1.972,1.972,0,0,0-2.723-.989,2.266,2.266,0,0,0-.92,2.928,1.972,1.972,0,0,0,2.724.989A2.266,2.266,0,0,0,1152.455,724.245Z" transform="translate(-1142.137 -687.646)" fill="#4d4280"/>
            </g>
            <g id="Grupo_1075696" data-name="Grupo 1075696" transform="translate(0 0)">
              <path id="Trazado_824724" data-name="Trazado 824724" d="M0,0,20.917.1l.022,4.064L.022,4.064Z" transform="matrix(0.071, 0.998, -0.998, 0.071, 47.198, 9.141)" fill="#4d4280"/>
              <path id="Trazado_824552" data-name="Trazado 824552" d="M735.727,534h0a5.581,5.581,0,0,1,4.924-6.084l32.381-2.429.734,11.378L741.385,539.3A5.448,5.448,0,0,1,735.727,534Z" transform="translate(-721.37 -511.895)" fill="#4d4280"/>
              <g id="Grupo_1075695" data-name="Grupo 1075695" transform="translate(44.672 7.277)">
                <path id="Trazado_824553" data-name="Trazado 824553" d="M926.976,513.187l36.407-5.319c4.679-.684,8.055-5.163,7.708-10.226h0c-.347-5.063-4.3-8.962-9.019-8.9l-36.684.508Z" transform="translate(-925.388 -488.742)" fill="#9bbef2"/>
                <path id="Trazado_824554" data-name="Trazado 824554" d="M1125.545,521.1a5.89,5.89,0,0,1-6.139-5.694,6.044,6.044,0,0,1,5.3-6.6,5.89,5.89,0,0,1,6.139,5.694A6.045,6.045,0,0,1,1125.545,521.1Zm-.665-9.706a3.5,3.5,0,0,0-3.066,3.822,3.411,3.411,0,0,0,3.554,3.3,3.5,3.5,0,0,0,3.066-3.822A3.412,3.412,0,0,0,1124.88,511.392Z" transform="translate(-1088.371 -505.341)" fill="#4d4280"/>
              </g>
              <path id="Trazado_824725" data-name="Trazado 824725" d="M15.016-.544A13.768,13.768,0,0,1,29.489,13.928a16.4,16.4,0,0,1-15.56,15.56A13.768,13.768,0,0,1-.544,15.016,16.4,16.4,0,0,1,15.016-.544Z" transform="translate(0 22.006) rotate(-45)" fill="#9bbef2"/>
              <path id="Trazado_824555" data-name="Trazado 824555" d="M728.925,515.875c-4.673-1.93-9.917.578-11.712,5.6s.537,10.663,5.21,12.594,9.918-.578,11.713-5.6S733.6,517.805,728.925,515.875Zm-5.2,14.539a5.972,5.972,0,0,1-3.115-7.531,5.312,5.312,0,0,1,7-3.351,5.972,5.972,0,0,1,3.116,7.531A5.312,5.312,0,0,1,723.729,530.414Z" transform="translate(-705.318 -503.394)" fill="#4d4280"/>
            </g>
          </g>
          <g id="Grupo_1075704" data-name="Grupo 1075704" transform="translate(273.462 88.529)">
            <g id="Grupo_1075703" data-name="Grupo 1075703">
              <g id="Grupo_1075698" data-name="Grupo 1075698" transform="translate(0 71.414)">
                <ellipse id="Elipse_9841" data-name="Elipse 9841" cx="29.717" cy="6.904" rx="29.717" ry="6.904" transform="translate(0 12.202)" fill="#2f294d"/>
                <rect id="Rectángulo_383498" data-name="Rectángulo 383498" width="59.434" height="12.202" transform="translate(59.434 19.107) rotate(180)" fill="#2f294d"/>
                <ellipse id="Elipse_9842" data-name="Elipse 9842" cx="29.717" cy="6.904" rx="29.717" ry="6.904" fill="#5a4d94"/>
              </g>
              <g id="Grupo_1075702" data-name="Grupo 1075702" transform="translate(0.589)">
                <ellipse id="Elipse_9843" data-name="Elipse 9843" cx="15.641" cy="3.202" rx="15.641" ry="3.202" transform="translate(4.88 73.798)" fill="#3c326e"/>
                <g id="Grupo_1075699" data-name="Grupo 1075699">
                  <path id="Trazado_824726" data-name="Trazado 824726" d="M15.016-.544A13.768,13.768,0,0,1,29.489,13.928a16.4,16.4,0,0,1-15.56,15.56A13.768,13.768,0,0,1-.544,15.016,16.4,16.4,0,0,1,15.016-.544Z" transform="translate(0 61.386) rotate(-45)" fill="#446799"/>
                  <path id="Trazado_824556" data-name="Trazado 824556" d="M1766.1,529.5s1.626,26.75-9.594,42.485c16.261,19.407,27.644,10.84,27.644,10.84s15.773-19.756,10.57-56.734C1792,506.754,1765.941,521.453,1766.1,529.5Z" transform="translate(-1749.699 -516.54)" fill="#9bbef2"/>
                </g>
                <g id="Grupo_1075701" data-name="Grupo 1075701" transform="translate(4.849 45.71)">
                  <g id="Grupo_1075700" data-name="Grupo 1075700">
                    <path id="Trazado_824557" data-name="Trazado 824557" d="M1744.25,813.67h31.287V799.239c0-9.289-7-16.82-15.644-16.82h0c-8.64,0-15.644,7.531-15.644,16.82Z" transform="translate(-1744.25 -782.419)" fill="#3c326e"/>
                    <path id="Trazado_824558" data-name="Trazado 824558" d="M1798.229,836.966a8.056,8.056,0,0,0,.714,10.792,6.775,6.775,0,0,0,10.037-.768,8.056,8.056,0,0,0-.714-10.792A6.775,6.775,0,0,0,1798.229,836.966Zm2.162,2.015a4.051,4.051,0,0,1,6-.459,4.817,4.817,0,0,1,.427,6.453,4.051,4.051,0,0,1-6,.46A4.816,4.816,0,0,1,1800.391,838.981Z" transform="translate(-1788.136 -825.403)" fill="#5a4d94"/>
                  </g>
                </g>
              </g>
            </g>
          </g>
          <g id="Grupo_1075714" data-name="Grupo 1075714" transform="translate(228.476 36.343)">
            <g id="Grupo_1075710" data-name="Grupo 1075710" transform="translate(0 24.449)">
              <path id="Trazado_824727" data-name="Trazado 824727" d="M0,0,12.888-.31l-.1,4.077L-.1,4.077Z" transform="translate(4.858 12.107) rotate(-68.531)" fill="#493f7a"/>
              <g id="Grupo_1075709" data-name="Grupo 1075709" transform="translate(0 8.909)">
                <g id="Grupo_1075706" data-name="Grupo 1075706" transform="translate(0 9.785)">
                  <path id="Trazado_824728" data-name="Trazado 824728" d="M0,0,4.028.1,4.07,1.886l-4.028-.1Z" transform="translate(5.879 3.21) rotate(-159.151)" fill="#493f7a"/>
                  <path id="Trazado_824729" data-name="Trazado 824729" d="M0,0,2.421.06l.063,2.669L.063,2.669Z" transform="translate(4.498 4.704) rotate(-159.151)" fill="#493f7a"/>
                  <path id="Trazado_824730" data-name="Trazado 824730" d="M0,0,4.028.1,4.07,1.886l-4.028-.1Z" transform="translate(5.879 3.21) rotate(-159.151)" fill="#493f7a"/>
                  <g id="Grupo_1075705" data-name="Grupo 1075705" transform="translate(0.515 3.613)">
                    <path id="Trazado_824559" data-name="Trazado 824559" d="M1432.829,485.338h0l.38-.176a2.254,2.254,0,0,1,1.811-.042h0a2.489,2.489,0,0,1,1.327,1.327l.175.4h0l0,0h0l-.706,1.992h0l-.386.175a2.254,2.254,0,0,1-1.794.034l-.019-.008a2.486,2.486,0,0,1-1.318-1.308l-.18-.407h0Z" transform="translate(-1432.122 -484.949)" fill="#493f7a"/>
                    <path id="Trazado_824731" data-name="Trazado 824731" d="M0,0,2.3.057l.04,1.707L.04,1.707Z" transform="translate(2.457 4.887) rotate(-159.151)" fill="#493f7a"/>
                  </g>
                  <path id="Trazado_824560" data-name="Trazado 824560" d="M1432.2,494.244l-2.435,6.876-.579.272-.289-.628,2.435-6.876Z" transform="translate(-1428.9 -488.738)" fill="#493f7a"/>
                </g>
                <g id="Grupo_1075707" data-name="Grupo 1075707" transform="translate(0.704 6.813)">
                  <path id="Trazado_824561" data-name="Trazado 824561" d="M1434.653,450.3l4.5,1.843,3.265-1.758-9.12-3.734Z" transform="translate(-1433.3 -446.651)" fill="#9bbef2"/>
                </g>
                <g id="Grupo_1075708" data-name="Grupo 1075708" transform="translate(2.445)">
                  <path id="Trazado_824562" data-name="Trazado 824562" d="M1452.15,409l-4.832-1.978-3.128.822,9.787,4.007Z" transform="translate(-1444.19 -407.021)" fill="#9bbef2"/>
                </g>
                <path id="Trazado_824732" data-name="Trazado 824732" d="M0,0,11.215.278l.159,6.773L.159,6.773Z" transform="translate(10.408 10.963) rotate(-159.151)" fill="#493f7a"/>
              </g>
            </g>
            <g id="Grupo_1075711" data-name="Grupo 1075711" transform="translate(5.571 3.36)">
              <path id="Trazado_824733" data-name="Trazado 824733" d="M0,0,19.212-.578,19.026,5.87-.186,6.448Z" transform="translate(24.211 14.957) rotate(152.807)" fill="#493f7a"/>
              <path id="Trazado_824563" data-name="Trazado 824563" d="M1580.75,252.086l10.9-6.021a7.429,7.429,0,0,0,2.881-9.644h0a6.444,6.444,0,0,0-8.969-3.1l-10.9,6.021Z" transform="translate(-1556.926 -232.531)" fill="#9bbef2"/>
              <path id="Trazado_824564" data-name="Trazado 824564" d="M1473.448,309.837l7.681-4.243-6.089-12.741-7.681,4.243a7.43,7.43,0,0,0-2.881,9.644h0A6.444,6.444,0,0,0,1473.448,309.837Z" transform="translate(-1463.741 -282.483)" fill="#9bbef2"/>
              <path id="Trazado_824565" data-name="Trazado 824565" d="M1482.1,336.99a3.7,3.7,0,0,1,3.228-4.056,3.6,3.6,0,0,1,3.772,3.47,3.7,3.7,0,0,1-3.228,4.056A3.6,3.6,0,0,1,1482.1,336.99Zm1.474-.123a2.087,2.087,0,0,0,2.184,2.009,2.144,2.144,0,0,0,1.869-2.349,2.087,2.087,0,0,0-2.184-2.009A2.144,2.144,0,0,0,1483.578,336.866Z" transform="translate(-1479.159 -315.663)" fill="#493f7a"/>
            </g>
            <g id="Grupo_1075713" data-name="Grupo 1075713" transform="translate(31.295)">
              <path id="Trazado_824734" data-name="Trazado 824734" d="M0,0,19.946-.689,19.8,3.578-.144,4.266Z" transform="matrix(-0.818, 0.576, -0.576, -0.818, 38.537, 36.829)" fill="#493f7a"/>
              <path id="Trazado_824566" data-name="Trazado 824566" d="M1785.124,437.621h0a5.982,5.982,0,0,0,1.27-7.949l-18.725-28.508-8.663,6.583,18.725,28.508A5.072,5.072,0,0,0,1785.124,437.621Z" transform="translate(-1737.518 -368.814)" fill="#493f7a"/>
              <g id="Grupo_1075712" data-name="Grupo 1075712">
                <path id="Trazado_824567" data-name="Trazado 824567" d="M1645.127,261.3l-19.189-33.688a10.068,10.068,0,0,1,2.494-12.887h0a8.518,8.518,0,0,1,12.116,1.885l22.83,30.877Z" transform="translate(-1624.622 -212.988)" fill="#9bbef2"/>
                <path id="Trazado_824568" data-name="Trazado 824568" d="M1647.25,234.344a5.489,5.489,0,0,1,7.984,1.513,6.471,6.471,0,0,1-1.407,8.585,5.489,5.489,0,0,1-7.984-1.513A6.471,6.471,0,0,1,1647.25,234.344Zm1.385,2.125a3.747,3.747,0,0,0-.815,4.971,3.178,3.178,0,0,0,4.623.876,3.747,3.747,0,0,0,.815-4.971A3.179,3.179,0,0,0,1648.634,236.469Z" transform="translate(-1641.58 -229.751)" fill="#493f7a"/>
              </g>
              <ellipse id="Elipse_9845" data-name="Elipse 9845" cx="14.472" cy="15.56" rx="14.472" ry="15.56" transform="translate(29.342 48.092)" fill="#9bbef2"/>
              <path id="Trazado_824569" data-name="Trazado 824569" d="M1845.5,530.419a10.152,10.152,0,0,0,3.37,13.3,8.731,8.731,0,0,0,12.369-3.623,10.152,10.152,0,0,0-3.369-13.3A8.732,8.732,0,0,0,1845.5,530.419Zm3.164,1.945a5.221,5.221,0,0,1,7.4-2.167,6.071,6.071,0,0,1,2.014,7.953,5.221,5.221,0,0,1-7.4,2.167A6.071,6.071,0,0,1,1848.664,532.364Z" transform="translate(-1809.177 -471.781)" fill="#493f7a"/>
            </g>
            <path id="Trazado_824570" data-name="Trazado 824570" d="M1806.136,336.31l-1.653-.473a56.233,56.233,0,0,0,1.2-14.272c-.469-10.455-3.862-18.528-10.086-23.995-7.765-6.82-14.865-8.027-19.452-7.84a19.235,19.235,0,0,0-8.206,2.064l-.823-1.613a20.423,20.423,0,0,1,8.867-2.285c4.9-.223,12.479,1.031,20.7,8.249,6.533,5.738,10.238,14.516,10.714,25.384A57.039,57.039,0,0,1,1806.136,336.31Z" transform="translate(-1713.035 -274.999)" fill="#3c326e"/>
          </g>
          <g id="Grupo_1075721" data-name="Grupo 1075721" transform="translate(8.118 51.097)">
            <path id="Trazado_824571" data-name="Trazado 824571" d="M239.515,369a77.891,77.891,0,0,1,.3-35.108c2.866-11.364,8.472-20.855,16.212-27.448,9.151-7.8,17.484-8.242,22.863-7.246a22.958,22.958,0,0,1,9.681,4.173l-1.94,2.746a20.244,20.244,0,0,0-8.434-3.547c-6.837-1.216-13.626,1-20.178,6.577-14.4,12.261-20.431,35.452-15.376,59.081Z" transform="translate(-207.778 -298.808)" fill="#3c326e"/>
            <g id="Grupo_1075720" data-name="Grupo 1075720" transform="translate(0 64.634)">
              <g id="Grupo_1075715" data-name="Grupo 1075715" transform="translate(0 112.683)">
                <ellipse id="Elipse_9846" data-name="Elipse 9846" cx="46.89" cy="10.894" rx="46.89" ry="10.894" transform="translate(0 19.255)" fill="#241f3c"/>
                <rect id="Rectángulo_383507" data-name="Rectángulo 383507" width="93.779" height="19.254" transform="translate(0 10.894)" fill="#241f3c"/>
                <ellipse id="Elipse_9847" data-name="Elipse 9847" cx="46.89" cy="10.894" rx="46.89" ry="10.894" transform="translate(0)" fill="#3f3669"/>
              </g>
              <g id="Grupo_1075719" data-name="Grupo 1075719" transform="translate(20.148)">
                <ellipse id="Elipse_9848" data-name="Elipse 9848" cx="24.68" cy="5.052" rx="24.68" ry="5.052" transform="translate(16.38 116.444)" fill="#241f3c"/>
                <g id="Grupo_1075716" data-name="Grupo 1075716">
                  <ellipse id="Elipse_9849" data-name="Elipse 9849" cx="22.835" cy="24.552" rx="22.835" ry="24.552" transform="translate(17.569 72.306)" fill="#446799"/>
                  <path id="Trazado_824572" data-name="Trazado 824572" d="M223.595,695.207s-2.566,42.208,15.138,67.036c-25.658,30.622-43.618,17.1-43.618,17.1s-24.888-31.173-16.678-89.52C182.73,659.324,223.852,682.517,223.595,695.207Z" transform="translate(-176.776 -674.765)" fill="#83a2ce"/>
                </g>
                <g id="Grupo_1075718" data-name="Grupo 1075718" transform="translate(16.419 72.124)">
                  <g id="Grupo_1075717" data-name="Grupo 1075717">
                    <path id="Trazado_824573" data-name="Trazado 824573" d="M328.831,1143.6H279.463v-22.771c0-14.657,11.051-26.54,24.684-26.54h0c13.632,0,24.684,11.882,24.684,26.54V1143.6Z" transform="translate(-279.463 -1094.286)" fill="#241f3c"/>
                    <path id="Trazado_824574" data-name="Trazado 824574" d="M364.622,1179.142a12.711,12.711,0,0,0-1.126,17.027,10.69,10.69,0,0,0,15.837,1.212,12.711,12.711,0,0,0,1.127-17.028A10.69,10.69,0,0,0,364.622,1179.142Zm11.754,14.574a6.392,6.392,0,0,1-9.47-.725,7.6,7.6,0,0,1,.673-10.182,6.393,6.393,0,0,1,9.471.724A7.6,7.6,0,0,1,376.376,1193.716Z" transform="translate(-347.753 -1162.109)" fill="#4c4180"/>
                  </g>
                </g>
              </g>
            </g>
          </g>
          <g id="Grupo_1075727" data-name="Grupo 1075727" transform="translate(-101.955 88.862)">
            <path id="Trazado_824575" data-name="Trazado 824575" d="M-450.145,623.517a138.186,138.186,0,0,1-2.505-34.177,95.885,95.885,0,0,1,5.854-29.478c4.192-10.869,10.545-19.621,18.882-26.013,11.863-9.094,24.283-14.207,36.916-15.2a62.965,62.965,0,0,1,30.457,5.482,85.494,85.494,0,0,1,28.09,20.2l-3.928,3.9,0,0h0a81.55,81.55,0,0,0-26.359-18.856c-21.209-9.245-42.093-6.167-62.071,9.15-13.713,10.513-21.283,27.716-22.5,51.132a134.017,134.017,0,0,0,2.363,32.5Z" transform="translate(482.375 -518.475)" fill="#3c326e"/>
            <g id="Grupo_1075722" data-name="Grupo 1075722" transform="translate(0 243.107)">
              <ellipse id="Elipse_9850" data-name="Elipse 9850" cx="67.012" cy="15.569" rx="67.012" ry="15.569" transform="translate(0 27.517)" fill="#241f3c"/>
              <rect id="Rectángulo_383508" data-name="Rectángulo 383508" width="134.024" height="27.517" transform="translate(0 15.569)" fill="#241f3c"/>
              <ellipse id="Elipse_9851" data-name="Elipse 9851" cx="67.012" cy="15.569" rx="67.012" ry="15.569" transform="translate(0)" fill="#352d57"/>
            </g>
            <g id="Grupo_1075726" data-name="Grupo 1075726" transform="translate(49.991 82.068)">
              <ellipse id="Elipse_9852" data-name="Elipse 9852" cx="35.271" cy="7.22" rx="35.271" ry="7.22" transform="translate(22.359 166.415)" fill="#241f3c"/>
              <g id="Grupo_1075723" data-name="Grupo 1075723">
                <path id="Trazado_824735" data-name="Trazado 824735" d="M33.862-1.227A31.046,31.046,0,0,1,66.5,31.408C65.819,50.11,50.11,65.819,31.408,66.5A31.046,31.046,0,0,1-1.227,33.862C-.549,15.161,15.161-.549,33.862-1.227Z" transform="translate(11.589 138.421) rotate(-45)" fill="#446799"/>
                <path id="Trazado_824576" data-name="Trazado 824576" d="M-258.079,1025.052s-3.667,60.321,21.634,95.8c-36.669,43.762-62.337,24.444-62.337,24.444s-35.569-44.551-23.835-127.936C-316.481,973.77-257.712,1006.916-258.079,1025.052Z" transform="translate(324.99 -995.837)" fill="#3f6eb3"/>
              </g>
              <g id="Grupo_1075725" data-name="Grupo 1075725" transform="translate(22.415 103.076)">
                <g id="Grupo_1075724" data-name="Grupo 1075724">
                  <path id="Trazado_824577" data-name="Trazado 824577" d="M-114.251,1665.87H-184.8v-32.543c0-20.948,15.794-37.929,35.277-37.929h0c19.483,0,35.277,16.981,35.277,37.929v32.543Z" transform="translate(184.804 -1595.398)" fill="#241f3c"/>
                  <path id="Trazado_824578" data-name="Trazado 824578" d="M-56.532,1716.664A18.166,18.166,0,0,0-58.142,1741a15.277,15.277,0,0,0,22.633,1.732A18.166,18.166,0,0,0-33.9,1718.4,15.279,15.279,0,0,0-56.532,1716.664Zm16.8,20.83a9.136,9.136,0,0,1-13.534-1.036,10.863,10.863,0,0,1,.962-14.552,9.136,9.136,0,0,1,13.535,1.035A10.864,10.864,0,0,1-39.734,1737.494Z" transform="translate(81.69 -1692.323)" fill="#372f5c"/>
                </g>
              </g>
            </g>
          </g>
          <g id="Grupo_1075728" data-name="Grupo 1075728" transform="translate(-104.284 192.124)">
            <path id="Trazado_824579" data-name="Trazado 824579" d="M192.287,1364.4H-334.5l228.276-244.986h67.611Z" transform="translate(385.302 -1119.36)" fill="url(#linear-gradient-3)"/>
            <path id="Trazado_824580" data-name="Trazado 824580" d="M1140.465,1126.86h-76.677l-.2.194h77.077Z" transform="translate(-789.242 -1125.529)" fill="#4e6394"/>
            <path id="Trazado_824581" data-name="Trazado 824581" d="M1135.432,1133.53H1056.4l-.211.208h79.454Z" transform="translate(-783.025 -1131.053)" fill="#4e6394"/>
            <path id="Trazado_824582" data-name="Trazado 824582" d="M1130.07,1140.63h-81.535l-.225.22H1130.3Z" transform="translate(-776.405 -1136.932)" fill="#4e6394"/>
            <path id="Trazado_824583" data-name="Trazado 824583" d="M1124.37,1148.19h-84.2l-.238.234h84.683Z" transform="translate(-769.365 -1143.192)" fill="#4e6394"/>
            <path id="Trazado_824584" data-name="Trazado 824584" d="M1118.265,1156.25h-87.048l-.257.251h87.564Z" transform="translate(-761.829 -1149.867)" fill="#4e6394"/>
            <path id="Trazado_824585" data-name="Trazado 824585" d="M1111.74,1164.89h-90.1l-.275.268h90.649Z" transform="translate(-753.773 -1157.021)" fill="#4e6394"/>
            <path id="Trazado_824586" data-name="Trazado 824586" d="M1104.738,1174.15h-93.364l-.294.289h93.957Z" transform="translate(-745.128 -1164.689)" fill="#4e6394"/>
            <path id="Trazado_824587" data-name="Trazado 824587" d="M1097.2,1184.1h-96.878l-.317.311h97.516Z" transform="translate(-735.828 -1172.929)" fill="#4e6394"/>
            <path id="Trazado_824588" data-name="Trazado 824588" d="M1089.072,1194.84H988.406l-.343.337h101.355Z" transform="translate(-725.791 -1181.822)" fill="#4e6394"/>
            <path id="Trazado_824589" data-name="Trazado 824589" d="M1080.274,1206.45H975.511l-.372.365H1080.65Z" transform="translate(-714.934 -1191.436)" fill="#4e6394"/>
            <path id="Trazado_824590" data-name="Trazado 824590" d="M1070.243,1219.68H960.812l-.406.4h110.246Z" transform="translate(-702.557 -1202.392)" fill="#4e6394"/>
            <path id="Trazado_824591" data-name="Trazado 824591" d="M1059.793,1233.45H945.5l-.443.433h115.18Z" transform="translate(-689.665 -1213.794)" fill="#4e6394"/>
            <path id="Trazado_824592" data-name="Trazado 824592" d="M1048.364,1248.49h-119.6l-.485.476h120.575Z" transform="translate(-675.566 -1226.249)" fill="#4e6394"/>
            <path id="Trazado_824593" data-name="Trazado 824593" d="M1035.806,1265.01H910.378l-.533.523h126.5Z" transform="translate(-660.08 -1239.929)" fill="#4e6394"/>
            <path id="Trazado_824594" data-name="Trazado 824594" d="M1021.95,1283.21H890.1l-.59.578h133.039Z" transform="translate(-642.994 -1255)" fill="#4e6394"/>
            <path id="Trazado_824595" data-name="Trazado 824595" d="M1006.58,1303.39H867.607l-.655.641h140.29Z" transform="translate(-624.046 -1271.71)" fill="#4e6394"/>
            <path id="Trazado_824596" data-name="Trazado 824596" d="M989.433,1325.86H842.53l-.733.719H990.174Z" transform="translate(-602.913 -1290.317)" fill="#4e6394"/>
            <path id="Trazado_824597" data-name="Trazado 824597" d="M970.184,1351.06h-155.8l-.825.806H971.017Z" transform="translate(-579.194 -1311.185)" fill="#4e6394"/>
            <path id="Trazado_824598" data-name="Trazado 824598" d="M948.419,1379.5H782.587l-.935.915H949.364Z" transform="translate(-552.385 -1334.735)" fill="#4e6394"/>
            <path id="Trazado_824599" data-name="Trazado 824599" d="M923.612,1411.85H746.361l-1.069,1.047h179.4Z" transform="translate(-521.839 -1361.524)" fill="#4e6394"/>
            <path id="Trazado_824600" data-name="Trazado 824600" d="M893.6,1450.92H702.559l-1.243,1.219H894.854Z" transform="translate(-484.894 -1393.877)" fill="#4e6394"/>
            <path id="Trazado_824601" data-name="Trazado 824601" d="M860.175,1494.32H653.822l-1.452,1.422H861.643Z" transform="translate(-443.775 -1429.816)" fill="#4e6394"/>
            <path id="Trazado_824602" data-name="Trazado 824602" d="M820.819,1545.28H596.48l-1.718,1.683H822.554Z" transform="translate(-395.378 -1472.015)" fill="#4e6394"/>
            <path id="Trazado_824603" data-name="Trazado 824603" d="M773.788,1605.98H528.032L525.967,1608H775.875Z" transform="translate(-337.583 -1522.279)" fill="#4e6394"/>
            <path id="Trazado_824604" data-name="Trazado 824604" d="M716.6,1679.48h-271.7l-2.528,2.476h276.78Z" transform="translate(-267.359 -1583.143)" fill="#4e6394"/>
            <path id="Trazado_824605" data-name="Trazado 824605" d="M645.572,1770.34H341.812l-3.167,3.1H648.772Z" transform="translate(-180.213 -1658.383)" fill="#4e6394"/>
            <path id="Trazado_824606" data-name="Trazado 824606" d="M554.978,1885.5h-344.4l-4.083,4H559.1Z" transform="translate(-69.192 -1753.745)" fill="#4e6394"/>
            <path id="Trazado_824607" data-name="Trazado 824607" d="M435.451,2036.25H37.849l-5.461,5.348H440.969Z" transform="translate(77.074 -1878.578)" fill="#4e6394"/>
            <path id="Trazado_824608" data-name="Trazado 824608" d="M270.5,2242.07H-199.739l-7.678,7.52H278.256Z" transform="translate(278.535 -2049.013)" fill="#4e6394"/>
            <path id="Trazado_824609" data-name="Trazado 824609" d="M-544.14,1367.24h-81.271l269.3-248.12h10.3Z" transform="translate(629.693 -1119.12)" fill="#4e6394"/>
            <path id="Trazado_824610" data-name="Trazado 824610" d="M-570.922,1367.24h-81.271l273.043-248.12h10.3Z" transform="translate(652.193 -1119.12)" fill="url(#linear-gradient-4)"/>
            <path id="Trazado_824611" data-name="Trazado 824611" d="M1763.014,1367.24h-81.271L1483.42,1119.12h10.3Z" transform="translate(-1141.943 -1119.12)" fill="#4e6394"/>
            <path id="Trazado_824612" data-name="Trazado 824612" d="M1770.167,1367.24H1688.9L1486.82,1119.12h10.3Z" transform="translate(-1144.799 -1119.12)" fill="url(#linear-gradient-5)"/>
          </g>
          <g id="Grupo_1075741" data-name="Grupo 1075741" transform="translate(19.593 34.577)">
            <g id="Grupo_1075734" data-name="Grupo 1075734" transform="translate(127.067 63.766)">
              <path id="Trazado_824736" data-name="Trazado 824736" d="M0,0,6.422-.15l-.45,20.369-6.422.15Z" transform="matrix(0.943, -0.333, 0.333, 0.943, 0.007, 2.278)" fill="#372f5c"/>
              <g id="Grupo_1075733" data-name="Grupo 1075733" transform="translate(0 14.272)">
                <g id="Grupo_1075730" data-name="Grupo 1075730" transform="translate(9.417 15.607)">
                  <path id="Trazado_824737" data-name="Trazado 824737" d="M0,0,6.345-.144,6.284,2.678l-6.345.144Z" transform="translate(0 2.183) rotate(-18.814)" fill="#241f3c"/>
                  <path id="Trazado_824738" data-name="Trazado 824738" d="M0,0,3.814-.087,3.723,4.131l-3.814.087Z" transform="translate(1.678 3.291) rotate(-18.814)" fill="#241f3c"/>
                  <path id="Trazado_824739" data-name="Trazado 824739" d="M0,0,6.345-.144,6.284,2.678l-6.345.144Z" transform="translate(0 2.183) rotate(-18.814)" fill="#241f3c"/>
                  <g id="Grupo_1075729" data-name="Grupo 1075729" transform="translate(2.227 5.698)">
                    <path id="Trazado_824613" data-name="Trazado 824613" d="M995.952,781.26l0,0h-.005v0h0l-.589-.3a3.559,3.559,0,0,0-2.854-.175h0a3.9,3.9,0,0,0-2.161,2.012l-.3.625h0v0l0,0,0,0,1.009,3.184h0l.6.3a3.559,3.559,0,0,0,2.827.161l.031-.011a3.9,3.9,0,0,0,2.147-1.983l.305-.631h0Z" transform="translate(-990.041 -780.563)" fill="#241f3c"/>
                    <path id="Trazado_824740" data-name="Trazado 824740" d="M0,0,3.629-.083l-.058,2.7L-.058,2.7Z" transform="translate(2.118 5.12) rotate(-18.814)" fill="#241f3c"/>
                  </g>
                  <path id="Trazado_824614" data-name="Trazado 824614" d="M1005.97,795.226l3.483,10.989.9.464.491-.972-3.483-10.989Z" transform="translate(-1001.196 -786.585)" fill="#241f3c"/>
                </g>
                <g id="Grupo_1075731" data-name="Grupo 1075731" transform="translate(4.157 11.037)">
                  <path id="Trazado_824615" data-name="Trazado 824615" d="M955.469,726.508l-7.2,2.636-5.059-2.969,14.576-5.339Z" transform="translate(-943.213 -720.836)" fill="#759ace"/>
                </g>
                <g id="Grupo_1075732" data-name="Grupo 1075732" transform="translate(0.659)">
                  <path id="Trazado_824616" data-name="Trazado 824616" d="M924.366,659.468l7.723-2.829,4.889,1.485-15.642,5.73Z" transform="translate(-921.336 -656.639)" fill="#759ace"/>
                </g>
                <path id="Trazado_824741" data-name="Trazado 824741" d="M0,0,17.667-.4l-.23,10.7L-.23,10.7Z" transform="translate(0 6.798) rotate(-18.814)" fill="#372f5c"/>
              </g>
            </g>
            <g id="Grupo_1075736" data-name="Grupo 1075736" transform="translate(82.502 6.643)">
              <path id="Trazado_824617" data-name="Trazado 824617" d="M774.508,392.092l-24.071-27.677,6.938-7.138,24.071,27.677Z" transform="translate(-732.539 -337.348)" fill="#372f5c"/>
              <path id="Trazado_824618" data-name="Trazado 824618" d="M654.789,275.491l-13.368-15.019a11.909,11.909,0,0,1,.327-15.978h0a10,10,0,0,1,14.861.352l13.368,15.019Z" transform="translate(-638.505 -241.358)" fill="#6ea0e6"/>
              <path id="Trazado_824619" data-name="Trazado 824619" d="M820.636,452.948l-9.42-10.584L826.4,426.737l9.42,10.584A11.91,11.91,0,0,1,835.5,453.3h0A10,10,0,0,1,820.636,452.948Z" transform="translate(-783.6 -394.867)" fill="#6ea0e6"/>
              <g id="Grupo_1075735" data-name="Grupo 1075735" transform="translate(39.391 44.507)">
                <path id="Trazado_824620" data-name="Trazado 824620" d="M888.183,511.656a6.142,6.142,0,0,1-2.869-7.837,5.4,5.4,0,0,1,7.289-3.085,6.142,6.142,0,0,1,2.869,7.838A5.4,5.4,0,0,1,888.183,511.656Zm3.49-8.623a3.129,3.129,0,0,0-4.221,1.786,3.557,3.557,0,0,0,1.661,4.538,3.129,3.129,0,0,0,4.221-1.786A3.557,3.557,0,0,0,891.673,503.033Z" transform="translate(-884.855 -500.239)" fill="#372f5c"/>
              </g>
            </g>
            <g id="Grupo_1075740" data-name="Grupo 1075740">
              <path id="Trazado_824742" data-name="Trazado 824742" d="M0,0,31.546,1.111l.232,6.716L.232,6.716Z" transform="translate(45.826 50.878) rotate(37.078)" fill="#372f5c"/>
              <path id="Trazado_824621" data-name="Trazado 824621" d="M268.13,548.93h0a9.454,9.454,0,0,1-1.608-12.608l30.943-43.883L310.8,503.318,279.856,547.2A7.988,7.988,0,0,1,268.13,548.93Z" transform="translate(-242.068 -442.631)" fill="#372f5c"/>
              <g id="Grupo_1075738" data-name="Grupo 1075738" transform="translate(41.719)">
                <path id="Trazado_824622" data-name="Trazado 824622" d="M411.542,278.25l31.93-52.025a15.92,15.92,0,0,0-3.294-20.465h0a13.42,13.42,0,0,0-19.2,2.278l-37.533,47.384Z" transform="translate(-383.445 -202.716)" fill="#6ea0e6"/>
                <g id="Grupo_1075737" data-name="Grupo 1075737" transform="translate(39.181 5.49)">
                  <path id="Trazado_824623" data-name="Trazado 824623" d="M644.755,250.217a8.645,8.645,0,0,1-12.666,1.928,10.228,10.228,0,0,1-1.793-13.618,8.645,8.645,0,0,1,12.666-1.928A10.228,10.228,0,0,1,644.755,250.217Zm-11.416-9.23a5.922,5.922,0,0,0,1.038,7.885,5.006,5.006,0,0,0,7.334-1.116,5.922,5.922,0,0,0-1.038-7.885A5.006,5.006,0,0,0,633.34,240.987Z" transform="translate(-628.484 -234.65)" fill="#372f5c"/>
                </g>
              </g>
              <path id="Trazado_824743" data-name="Trazado 824743" d="M23.694-.858A21.724,21.724,0,0,1,46.529,21.977,25.877,25.877,0,0,1,21.977,46.529,21.724,21.724,0,0,1-.858,23.694,25.877,25.877,0,0,1,23.694-.858Z" transform="translate(0 98.387) rotate(-45)" fill="#759ace"/>
              <g id="Grupo_1075739" data-name="Grupo 1075739" transform="translate(17.402 82.706)">
                <path id="Trazado_824624" data-name="Trazado 824624" d="M238.994,685.574c-6.986,3.964-9.659,13.268-5.972,20.779s12.339,10.387,19.325,6.423,9.66-13.268,5.973-20.779S245.981,681.609,238.994,685.574Zm10.669,21.734a8.265,8.265,0,0,1-11.556-3.841,9.55,9.55,0,0,1,3.571-12.426,8.266,8.266,0,0,1,11.557,3.841A9.549,9.549,0,0,1,249.663,707.308Z" transform="translate(-231.365 -683.792)" fill="#241f3c"/>
              </g>
            </g>
          </g>
          <g id="Grupo_1075754" data-name="Grupo 1075754" transform="translate(210.392 78.624)">
            <path id="Trazado_824625" data-name="Trazado 824625" d="M1921.637,475.1l-2.73-1.811a31.211,31.211,0,0,1,10.8-10.345,29.77,29.77,0,0,1,13.861-4c6.137-.246,12.734,1.27,19.607,4.508l-1.287,3.159c-11.553-5.443-21.823-5.683-30.525-.711A28.408,28.408,0,0,0,1921.637,475.1Z" transform="translate(-1822.472 -458.922)" fill="#3c326e"/>
            <g id="Grupo_1075747" data-name="Grupo 1075747" transform="translate(0 37.863)">
              <path id="Trazado_824744" data-name="Trazado 824744" d="M0,0,20.327-.5l-.166,6.436-20.327.5Z" transform="translate(7.879 19.039) rotate(-68.055)" fill="#372f5c"/>
              <g id="Grupo_1075746" data-name="Grupo 1075746" transform="translate(0 14.009)">
                <g id="Grupo_1075743" data-name="Grupo 1075743" transform="translate(0 15.398)">
                  <path id="Trazado_824745" data-name="Trazado 824745" d="M0,0,6.358.16l.067,2.817L.067,2.817Z" transform="translate(9.381 5.11) rotate(-158.672)" fill="#241f3c"/>
                  <path id="Trazado_824746" data-name="Trazado 824746" d="M0,0,3.822.1l.1,4.21L.1,4.21Z" transform="translate(7.186 7.448) rotate(-158.672)" fill="#241f3c"/>
                  <path id="Trazado_824747" data-name="Trazado 824747" d="M0,0,6.358.16l.067,2.817L.067,2.817Z" transform="translate(9.381 5.11) rotate(-158.672)" fill="#241f3c"/>
                  <g id="Grupo_1075742" data-name="Grupo 1075742" transform="translate(0.886 5.698)">
                    <path id="Trazado_824626" data-name="Trazado 824626" d="M1322.483,883.951l0,0h.005v0h0l.6-.272a3.557,3.557,0,0,1,2.859-.041h0a3.935,3.935,0,0,1,2.077,2.112l.271.638h0v0l0,0,0,0-1.138,3.134h0l-.612.271a3.556,3.556,0,0,1-2.831.028l-.03-.013a3.932,3.932,0,0,1-2.064-2.083l-.279-.645h0Z" transform="translate(-1321.344 -883.355)" fill="#241f3c"/>
                    <path id="Trazado_824748" data-name="Trazado 824748" d="M0,0,3.637.092,3.7,2.784.064,2.692Z" transform="translate(3.847 7.716) rotate(-158.672)" fill="#241f3c"/>
                  </g>
                  <path id="Trazado_824627" data-name="Trazado 824627" d="M1321.094,898.026l-3.927,10.815-.916.421-.451-.994,3.927-10.815Z" transform="translate(-1315.8 -889.331)" fill="#241f3c"/>
                </g>
                <g id="Grupo_1075744" data-name="Grupo 1075744" transform="translate(1.295 10.681)">
                  <path id="Trazado_824628" data-name="Trazado 824628" d="M1325.988,828.554l7.082,2.972,5.174-2.727-14.344-6.021Z" transform="translate(-1323.9 -822.778)" fill="#759ace"/>
                </g>
                <g id="Grupo_1075745" data-name="Grupo 1075745" transform="translate(4.114)">
                  <path id="Trazado_824629" data-name="Trazado 824629" d="M1354.076,763.839l-7.6-3.19-4.946,1.253,15.393,6.462Z" transform="translate(-1341.53 -760.649)" fill="#759ace"/>
                </g>
                <path id="Trazado_824749" data-name="Trazado 824749" d="M0,0,10.682-.255l-.447,17.7L-.447,17.7Z" transform="translate(0.216 10.528) rotate(-68.672)" fill="#372f5c"/>
              </g>
            </g>
            <g id="Grupo_1075749" data-name="Grupo 1075749" transform="translate(9.319 6.55)">
              <path id="Trazado_824750" data-name="Trazado 824750" d="M0,0,30.17-.789,29.916,9.43l-30.17.789Z" transform="translate(7.602 25.163) rotate(-22.359)" fill="#372f5c"/>
              <path id="Trazado_824630" data-name="Trazado 824630" d="M1567.674,526.684l17.881-7.908c5.368-2.374,7.93-8.978,5.722-14.75h0c-2.208-5.772-8.35-8.527-13.719-6.152l-17.881,7.908Z" transform="translate(-1530.001 -497.02)" fill="#6ea0e6"/>
              <path id="Trazado_824631" data-name="Trazado 824631" d="M1388.594,601.624l12.6-5.573-8-20.9-12.6,5.573c-5.369,2.374-7.93,8.978-5.722,14.75h0C1377.082,601.244,1383.226,604,1388.594,601.624Z" transform="translate(-1374.081 -561.716)" fill="#6ea0e6"/>
              <g id="Grupo_1075748" data-name="Grupo 1075748" transform="translate(4.627 23.547)">
                <path id="Trazado_824632" data-name="Trazado 824632" d="M1403.019,639.9a5.554,5.554,0,1,1,5.5,6A5.758,5.758,0,0,1,1403.019,639.9Zm2.331.017a3.216,3.216,0,1,0,3.229-3.425A3.342,3.342,0,0,0,1405.351,639.921Z" transform="translate(-1403.019 -633.988)" fill="#372f5c"/>
              </g>
            </g>
            <g id="Grupo_1075753" data-name="Grupo 1075753" transform="translate(50.078 0.715)">
              <path id="Trazado_824751" data-name="Trazado 824751" d="M0,0,32.694-.8l-.167,6.477-32.694.8Z" transform="translate(75.008 23.929) rotate(111.925)" fill="#241f3c"/>
              <path id="Trazado_824633" data-name="Trazado 824633" d="M2025.887,644.85h0a9.236,9.236,0,0,0-4.66-11.7l-47.542-20.484-6.22,16.708,47.542,20.484A8.186,8.186,0,0,0,2025.887,644.85Z" transform="translate(-1913.344 -586.952)" fill="#241f3c"/>
              <g id="Grupo_1075751" data-name="Grupo 1075751">
                <path id="Trazado_824634" data-name="Trazado 824634" d="M1689.291,518.835,1637,491.918c-6.72-3.459-9.776-11.943-6.978-19.366h0c2.8-7.424,10.486-11.225,17.55-8.678l54.869,19.836Z" transform="translate(-1628.989 -463.083)" fill="#6ea0e6"/>
                <g id="Grupo_1075750" data-name="Grupo 1075750" transform="translate(5.112 5.461)">
                  <path id="Trazado_824635" data-name="Trazado 824635" d="M1661.621,500.92a8.852,8.852,0,0,1,11.781-5.36c4.623,2.014,6.859,7.7,4.985,12.667a8.852,8.852,0,0,1-11.781,5.36C1661.984,511.572,1659.749,505.89,1661.621,500.92Zm3.529,1.538a5.79,5.79,0,0,0,2.887,7.334,5.126,5.126,0,0,0,6.821-3.1,5.79,5.79,0,0,0-2.887-7.334A5.126,5.126,0,0,0,1665.15,502.458Z" transform="translate(-1660.959 -494.847)" fill="#372f5c"/>
                </g>
              </g>
              <ellipse id="Elipse_9855" data-name="Elipse 9855" cx="22.835" cy="24.552" rx="22.835" ry="24.552" transform="translate(80.575 30.014)" fill="#6ea0e6"/>
              <g id="Grupo_1075752" data-name="Grupo 1075752" transform="translate(89.467 38.606)">
                <path id="Trazado_824636" data-name="Trazado 824636" d="M2188.543,703.872c.437,8.48,7.185,14.975,15.073,14.5s13.926-7.726,13.49-16.206-7.184-14.975-15.071-14.5S2188.106,695.392,2188.543,703.872Zm5.74-.342c-.261-5.072,3.35-9.41,8.068-9.691s8.751,3.6,9.012,8.674-3.35,9.411-8.066,9.691S2194.546,708.6,2194.283,703.531Z" transform="translate(-2188.521 -687.643)" fill="#241f3c"/>
              </g>
            </g>
          </g>
          <g id="Grupo_1075776" data-name="Grupo 1075776" transform="translate(-71.154 97.47)">
            <g id="Grupo_1075771" data-name="Grupo 1075771" transform="translate(136.861 12.273)">
              <g id="Grupo_1075769" data-name="Grupo 1075769" transform="translate(12.235 81.589)">
                <g id="Grupo_1075756" data-name="Grupo 1075756" transform="translate(0 0)">
                  <path id="Trazado_824752" data-name="Trazado 824752" d="M0,0,8.551-.309,7.12,39.158l-8.551.309Z" transform="translate(0 6.416) rotate(-46.507)" fill="#241f3c"/>
                  <path id="Trazado_824637" data-name="Trazado 824637" d="M614.79,1224.2l-6.635,7.52a8.516,8.516,0,0,0,2.363,6.558l5.071,5.146,10.466-11.9-5.071-5.146A7.273,7.273,0,0,0,614.79,1224.2Z" transform="translate(-588.837 -1205.285)" fill="#3f6eb3"/>
                  <g id="Grupo_1075755" data-name="Grupo 1075755" transform="translate(25.334 25.108)">
                    <path id="Trazado_824753" data-name="Trazado 824753" d="M0,0,18.72-.676l-.082,2.262-18.72.676Z" transform="translate(0 14.047) rotate(-46.507)" fill="#241f3c"/>
                  </g>
                </g>
                <g id="Grupo_1075768" data-name="Grupo 1075768" transform="translate(26.414 24.525)">
                  <g id="Grupo_1075767" data-name="Grupo 1075767">
                    <path id="Trazado_824638" data-name="Trazado 824638" d="M673.98,1439.294l-1.854,1.96L655.089,1429.5l5.057-5.345Z" transform="translate(-654.698 -1395.45)" fill="#241f3c"/>
                    <path id="Trazado_824639" data-name="Trazado 824639" d="M832.1,1302.334l1.8-2.017-11.126-18.177-4.911,5.5Z" transform="translate(-791.447 -1277.846)" fill="#241f3c"/>
                    <path id="Trazado_824640" data-name="Trazado 824640" d="M673.8,1274.988l-10.4,11.789c-1.757,1.436-3.887,1.5-5.223.134h0a3.805,3.805,0,0,1-.125-5.089l10.4-11.789a3.194,3.194,0,0,1,4.733-.134h0A4.55,4.55,0,0,1,673.8,1274.988Z" transform="translate(-656.413 -1266.895)" fill="#3f6eb3"/>
                    <g id="Grupo_1075761" data-name="Grupo 1075761" transform="translate(0 14.26)">
                      <path id="Trazado_824641" data-name="Trazado 824641" d="M656.849,1340.112a2.945,2.945,0,0,0-3.035,2.809l-1.149,13.98a4.965,4.965,0,0,0,5.177,5.614h0a5.083,5.083,0,0,0,4.25-6.137l-2.607-13.8a2.945,2.945,0,0,0-2.637-2.466Z" transform="translate(-652.642 -1340.106)" fill="#3f6eb3"/>
                      <g id="Grupo_1075758" data-name="Grupo 1075758" transform="translate(2.488 15.101)">
                        <g id="Grupo_1075757" data-name="Grupo 1075757">
                          <path id="Trazado_824642" data-name="Trazado 824642" d="M668.209,1430.1a1.836,1.836,0,0,0,2.6,1.607,2,2,0,0,0,1.055-1.974,1.836,1.836,0,0,0-2.6-1.607A2,2,0,0,0,668.209,1430.1Z" transform="translate(-668.2 -1427.945)" fill="#241f3c"/>
                        </g>
                      </g>
                      <g id="Grupo_1075760" data-name="Grupo 1075760" transform="translate(2.167 1.891)">
                        <g id="Grupo_1075759" data-name="Grupo 1075759">
                          <path id="Trazado_824643" data-name="Trazado 824643" d="M666.2,1352.759a1.411,1.411,0,0,0,2,1.234,1.539,1.539,0,0,0,.811-1.517,1.411,1.411,0,0,0-2-1.234A1.539,1.539,0,0,0,666.2,1352.759Z" transform="translate(-666.197 -1351.102)" fill="#241f3c"/>
                        </g>
                      </g>
                    </g>
                    <g id="Grupo_1075766" data-name="Grupo 1075766" transform="translate(11.285)">
                      <path id="Trazado_824644" data-name="Trazado 824644" d="M723.243,1262.863a3.059,3.059,0,0,1,2.4-3.447l12.895-2.182a4.9,4.9,0,0,1,5.561,5.172h0a4.9,4.9,0,0,1-5.406,4.976l-12.982-1.859a2.985,2.985,0,0,1-2.468-2.661Z" transform="translate(-723.218 -1257.162)" fill="#3f6eb3"/>
                      <g id="Grupo_1075763" data-name="Grupo 1075763" transform="translate(1.741 3.841)">
                        <g id="Grupo_1075762" data-name="Grupo 1075762">
                          <path id="Trazado_824645" data-name="Trazado 824645" d="M734.309,1281.8a1.358,1.358,0,0,0,2.3.189,1.609,1.609,0,0,0,.124-1.745,1.358,1.358,0,0,0-2.3-.188A1.609,1.609,0,0,0,734.309,1281.8Z" transform="translate(-734.109 -1279.502)" fill="#241f3c"/>
                        </g>
                      </g>
                      <g id="Grupo_1075765" data-name="Grupo 1075765" transform="translate(14.058 3.242)">
                        <g id="Grupo_1075764" data-name="Grupo 1075764">
                          <path id="Trazado_824646" data-name="Trazado 824646" d="M811.4,1279.006a1.767,1.767,0,0,0,2.989.245,2.094,2.094,0,0,0,.161-2.271,1.767,1.767,0,0,0-2.989-.245A2.093,2.093,0,0,0,811.4,1279.006Z" transform="translate(-811.136 -1276.021)" fill="#241f3c"/>
                        </g>
                      </g>
                    </g>
                  </g>
                </g>
              </g>
              <path id="Trazado_824754" data-name="Trazado 824754" d="M0,0,13.724-.027,13.64,45.831l-13.724.027Z" transform="translate(8.752 40.47) rotate(-1.501)" fill="#241f3c"/>
              <path id="Trazado_824647" data-name="Trazado 824647" d="M411.664,686.208l-.724-29.7c-.217-8.917,6.329-16.335,14.623-16.569h0c8.293-.234,15.192,6.805,15.41,15.722l.724,29.7Z" transform="translate(-410.934 -639.934)" fill="#3f6eb3"/>
              <path id="Trazado_824648" data-name="Trazado 824648" d="M418.681,1027.974l-.51-20.929,30.032-.846.51,20.929c.217,8.917-6.329,16.335-14.623,16.568h0C425.8,1043.929,418.9,1036.891,418.681,1027.974Z" transform="translate(-417.014 -943.23)" fill="#3f6eb3"/>
              <g id="Grupo_1075770" data-name="Grupo 1075770" transform="translate(8.911 76.323)">
                <path id="Trazado_824649" data-name="Trazado 824649" d="M467.361,1095.889a8.791,8.791,0,0,1,3.967-11.256A7.711,7.711,0,0,1,481.8,1088.9a8.791,8.791,0,0,1-3.967,11.256A7.71,7.71,0,0,1,467.361,1095.889Zm11.4-5.519a4.465,4.465,0,0,0-6.062-2.47,5.09,5.09,0,0,0-2.3,6.517,4.465,4.465,0,0,0,6.062,2.47A5.09,5.09,0,0,0,478.759,1090.371Z" transform="translate(-466.663 -1083.883)" fill="#241f3c"/>
              </g>
            </g>
            <g id="Grupo_1075775" data-name="Grupo 1075775">
              <path id="Trazado_824755" data-name="Trazado 824755" d="M0,0,46.276,1.473l.308,9.35L.308,9.35Z" transform="matrix(0.525, 0.851, -0.851, 0.525, 73.591, 44.607)" fill="#241f3c"/>
              <path id="Trazado_824650" data-name="Trazado 824650" d="M-325.972,909.576h0a13.429,13.429,0,0,1,3.944-17.686l62.383-41.169,12.505,21.926-62.384,41.169C-315.155,917.529-322.519,915.631-325.972,909.576Z" transform="translate(346.488 -802.21)" fill="#241f3c"/>
              <g id="Grupo_1075773" data-name="Grupo 1075773" transform="translate(67.232)">
                <path id="Trazado_824651" data-name="Trazado 824651" d="M1.868,659.357,69.5,607.9c8.691-6.613,11.1-19.356,5.491-29.089h0c-5.606-9.733-17.287-13.1-26.666-7.679l-72.849,42.155Z" transform="translate(24.528 -568.545)" fill="#3f6eb3"/>
                <g id="Grupo_1075772" data-name="Grupo 1075772" transform="translate(69.386 7.821)">
                  <path id="Trazado_824652" data-name="Trazado 824652" d="M429.144,639.751c-6.06,4.035-14.044,2.016-17.8-4.5s-1.875-15.1,4.185-19.135,14.044-2.016,17.8,4.5S435.2,635.716,429.144,639.751ZM418.4,621.091a8.417,8.417,0,0,0-2.423,11.079,7.2,7.2,0,0,0,10.3,2.605A8.417,8.417,0,0,0,428.7,623.7,7.2,7.2,0,0,0,418.4,621.091Z" transform="translate(-409.414 -614.038)" fill="#241f3c"/>
                </g>
              </g>
              <ellipse id="Elipse_9856" data-name="Elipse 9856" cx="32.635" cy="35.089" rx="32.635" ry="35.089" transform="translate(0 65.22)" fill="#446799"/>
              <g id="Grupo_1075774" data-name="Grupo 1075774" transform="translate(11.554 77.601)">
                <path id="Trazado_824653" data-name="Trazado 824653" d="M-354.621,1020.073c-11.216,1.381-19.266,12.278-17.982,24.336s11.417,20.717,22.633,19.335,19.268-12.277,17.983-24.337S-343.4,1018.693-354.621,1020.073Zm3.717,34.894c-6.706.826-12.766-4.351-13.534-11.563s4.046-13.728,10.752-14.553,12.768,4.35,13.536,11.563S-344.2,1054.142-350.9,1054.968Z" transform="translate(372.737 -1019.928)" fill="#241f3c"/>
              </g>
            </g>
          </g>
          <g id="Grupo_1075798" data-name="Grupo 1075798" transform="translate(278.873 69.825)">
            <g id="Grupo_1075791" data-name="Grupo 1075791" transform="translate(0 97.483)">
              <g id="Grupo_1075778" data-name="Grupo 1075778" transform="translate(29.512 0)">
                <path id="Trazado_824756" data-name="Trazado 824756" d="M0,0,39.23-1.4l-.3,8.6L-.3,8.6Z" transform="matrix(0.78, -0.625, 0.625, 0.78, 5.571, 25.621)" fill="#241f3c"/>
                <path id="Trazado_824654" data-name="Trazado 824654" d="M1962.35,1082.87l-6.029-8.089a7.2,7.2,0,0,0-6.363,1.628l-5.43,4.7,9.549,12.765,5.43-4.7A8.424,8.424,0,0,0,1962.35,1082.87Z" transform="translate(-1941.988 -1057.438)" fill="#3f6eb3"/>
                <g id="Grupo_1075777" data-name="Grupo 1075777" transform="translate(0 22.539)">
                  <path id="Trazado_824757" data-name="Trazado 824757" d="M0,0,2.249-.08,1.588,18.752l-2.249.08Z" transform="matrix(0.78, -0.625, 0.625, 0.78, 0, 1.469)" fill="#241f3c"/>
                </g>
              </g>
              <g id="Grupo_1075790" data-name="Grupo 1075790" transform="translate(0 20.829)">
                <g id="Grupo_1075789" data-name="Grupo 1075789">
                  <path id="Trazado_824655" data-name="Trazado 824655" d="M1745.634,1118.494l-1.554-2.24,13.139-16.554,4.237,6.112Z" transform="translate(-1744.08 -1099.051)" fill="#241f3c"/>
                  <path id="Trazado_824656" data-name="Trazado 824656" d="M1847.21,1293.291l1.614,2.192,18.26-9.385-4.4-5.978Z" transform="translate(-1830.72 -1248.453)" fill="#241f3c"/>
                  <path id="Trazado_824657" data-name="Trazado 824657" d="M1908.348,1133.2l-9.451-12.681a3.8,3.8,0,0,1,.519-5.06h0a3.2,3.2,0,0,1,4.706.558l9.451,12.681a3.8,3.8,0,0,1-.519,5.06h0A3.2,3.2,0,0,1,1908.348,1133.2Z" transform="translate(-1873.527 -1111.449)" fill="#3f6eb3"/>
                  <g id="Grupo_1075783" data-name="Grupo 1075783" transform="translate(10.138)">
                    <path id="Trazado_824658" data-name="Trazado 824658" d="M1828.27,1102.8a3.093,3.093,0,0,0-2.176-3.614l-12.726-3.121a4.849,4.849,0,0,0-5.876,4.753h0a4.954,4.954,0,0,0,5.078,5.36l13.07-.9a2.946,2.946,0,0,0,2.63-2.475Z" transform="translate(-1807.486 -1095.927)" fill="#3f6eb3"/>
                    <g id="Grupo_1075780" data-name="Grupo 1075780" transform="translate(3.139 3.235)">
                      <g id="Grupo_1075779" data-name="Grupo 1075779">
                        <path id="Trazado_824659" data-name="Trazado 824659" d="M1829.028,1114.743a1.948,1.948,0,0,0-1.833,2.551,1.864,1.864,0,0,0,1.676,1.392,1.948,1.948,0,0,0,1.833-2.551A1.862,1.862,0,0,0,1829.028,1114.743Z" transform="translate(-1827.114 -1114.742)" fill="#241f3c"/>
                      </g>
                    </g>
                    <g id="Grupo_1075782" data-name="Grupo 1075782" transform="translate(16.26 4.751)">
                      <g id="Grupo_1075781" data-name="Grupo 1075781">
                        <path id="Trazado_824660" data-name="Trazado 824660" d="M1910.647,1123.565a1.5,1.5,0,0,0-1.408,1.96,1.432,1.432,0,0,0,1.288,1.07,1.5,1.5,0,0,0,1.408-1.96A1.433,1.433,0,0,0,1910.647,1123.565Z" transform="translate(-1909.177 -1123.564)" fill="#241f3c"/>
                      </g>
                    </g>
                  </g>
                  <g id="Grupo_1075788" data-name="Grupo 1075788" transform="translate(31.348 16.126)">
                    <path id="Trazado_824661" data-name="Trazado 824661" d="M1946.569,1189.729a2.981,2.981,0,0,1,2.85,3.025l.261,14.032a4.909,4.909,0,0,1-5.521,5.222h0a5.138,5.138,0,0,1-3.852-6.434l3.474-13.577a2.909,2.909,0,0,1,2.787-2.268Z" transform="translate(-1940.134 -1189.729)" fill="#3f6eb3"/>
                    <g id="Grupo_1075785" data-name="Grupo 1075785" transform="translate(4.92 1.862)">
                      <g id="Grupo_1075784" data-name="Grupo 1075784">
                        <path id="Trazado_824662" data-name="Trazado 824662" d="M1971.76,1200.684a1.575,1.575,0,0,0-.485,2.421,1.343,1.343,0,0,0,1.591.369,1.575,1.575,0,0,0,.485-2.421A1.342,1.342,0,0,0,1971.76,1200.684Z" transform="translate(-1970.903 -1200.562)" fill="#241f3c"/>
                      </g>
                    </g>
                    <g id="Grupo_1075787" data-name="Grupo 1075787" transform="translate(2.898 14.996)">
                      <g id="Grupo_1075786" data-name="Grupo 1075786">
                        <path id="Trazado_824663" data-name="Trazado 824663" d="M1959.373,1277.117a2.05,2.05,0,0,0-.632,3.151,1.747,1.747,0,0,0,2.07.48,2.05,2.05,0,0,0,.632-3.151A1.747,1.747,0,0,0,1959.373,1277.117Z" transform="translate(-1958.258 -1276.958)" fill="#241f3c"/>
                      </g>
                    </g>
                  </g>
                </g>
              </g>
            </g>
            <g id="Grupo_1075793" data-name="Grupo 1075793" transform="translate(52.535 14.49)">
              <path id="Trazado_824758" data-name="Trazado 824758" d="M0,0,45.821-.353l-.113,13.736-45.821.353Z" transform="matrix(0.111, -0.994, 0.994, 0.111, 8.036, 84.889)" fill="#241f3c"/>
              <path id="Trazado_824664" data-name="Trazado 824664" d="M2127.832,539.489l3.055-29.527c.917-8.865-5.023-16.851-13.269-17.837h0c-8.245-.986-15.673,5.4-16.59,14.266l-3.055,29.527Z" transform="translate(-2093.922 -492.024)" fill="#3f6eb3"/>
              <path id="Trazado_824665" data-name="Trazado 824665" d="M2102.591,873.159l2.153-20.808-29.859-3.571-2.153,20.808c-.917,8.865,5.023,16.851,13.269,17.837h0C2094.246,888.411,2101.674,882.024,2102.591,873.159Z" transform="translate(-2072.638 -787.447)" fill="#3f6eb3"/>
              <g id="Grupo_1075792" data-name="Grupo 1075792" transform="translate(6.925 75.916)">
                <path id="Trazado_824666" data-name="Trazado 824666" d="M2120.016,949.553a8.867,8.867,0,0,1-3.069-11.576,7.642,7.642,0,0,1,10.766-3.3,8.867,8.867,0,0,1,3.069,11.576A7.64,7.64,0,0,1,2120.016,949.553Zm1.62-3.131a4.425,4.425,0,0,0,6.234-1.911,5.134,5.134,0,0,0-1.777-6.7,4.425,4.425,0,0,0-6.234,1.911A5.135,5.135,0,0,0,2121.636,946.423Z" transform="translate(-2115.95 -933.605)" fill="#241f3c"/>
              </g>
            </g>
            <g id="Grupo_1075797" data-name="Grupo 1075797" transform="translate(52.979)">
              <path id="Trazado_824759" data-name="Trazado 824759" d="M0,0,45.622-1.647l-.344,9.486L-.344,9.486Z" transform="translate(96.828 67.655) rotate(133.481)" fill="#241f3c"/>
              <path id="Trazado_824667" data-name="Trazado 824667" d="M2520.972,839.421h0a13.551,13.551,0,0,0-.483-18.179L2467.3,767.179l-16.426,18.7,53.193,54.063A11.381,11.381,0,0,0,2520.972,839.421Z" transform="translate(-2390.835 -705.385)" fill="#241f3c"/>
              <g id="Grupo_1075795" data-name="Grupo 1075795">
                <path id="Trazado_824668" data-name="Trazado 824668" d="M2137.152,509.437l-56.362-65.293a22.866,22.866,0,0,1,.181-29.681h0a19.148,19.148,0,0,1,27.565-1.629l63.247,57.337Z" transform="translate(-2075.41 -407.742)" fill="#3f6eb3"/>
                <g id="Grupo_1075794" data-name="Grupo 1075794" transform="translate(7.292 7.837)">
                  <path id="Trazado_824669" data-name="Trazado 824669" d="M2124.576,457.631a12.312,12.312,0,0,1,18.277-.475,14.665,14.665,0,0,1,.442,19.651,12.312,12.312,0,0,1-18.276.475A14.665,14.665,0,0,1,2124.576,457.631Zm3.94,4.036a8.491,8.491,0,0,0,.256,11.378,7.129,7.129,0,0,0,10.582-.275,8.492,8.492,0,0,0-.256-11.378A7.129,7.129,0,0,0,2128.516,461.667Z" transform="translate(-2121.014 -453.326)" fill="#241f3c"/>
                </g>
              </g>
              <path id="Trazado_824760" data-name="Trazado 824760" d="M33.862-1.227A31.046,31.046,0,0,1,66.5,31.408C65.819,50.11,50.11,65.819,31.408,66.5A31.046,31.046,0,0,1-1.227,33.862C-.549,15.161,15.161-.549,33.862-1.227Z" transform="translate(73.466 124.456) rotate(-45)" fill="#446799"/>
              <g id="Grupo_1075796" data-name="Grupo 1075796" transform="translate(99.939 101.899)">
                <path id="Trazado_824670" data-name="Trazado 824670" d="M2701.481,1015.509c-3.56,11.519,2.238,23.96,12.953,27.788s22.283-2.409,25.843-13.927-2.238-23.96-12.951-27.787S2705.041,1003.99,2701.481,1015.509Zm7.8,2.787c2.129-6.889,9.048-10.618,15.455-8.328s9.873,9.728,7.744,16.617-9.048,10.618-15.454,8.329S2707.15,1025.184,2709.28,1018.3Z" transform="translate(-2700.433 -1000.454)" fill="#241f3c"/>
              </g>
            </g>
          </g>
          <g id="Grupo_1075800" data-name="Grupo 1075800" transform="translate(101.216 14.46)">
            <ellipse id="Elipse_9858" data-name="Elipse 9858" cx="2.235" cy="2.403" rx="2.235" ry="2.403" transform="translate(6.624 10.461)" fill="#446799"/>
            <g id="Grupo_1075799" data-name="Grupo 1075799">
              <path id="Trazado_824671" data-name="Trazado 824671" d="M633.956,91.036l-.949-1.161a12.1,12.1,0,0,1,18.673.473l-1,1.11A10.856,10.856,0,0,0,633.956,91.036Z" transform="translate(-633.007 -85.703)" fill="#446799"/>
              <path id="Trazado_824672" data-name="Trazado 824672" d="M646.277,109.5l-.949-1.161a9.514,9.514,0,0,1,14.626.367l-1,1.11A8.268,8.268,0,0,0,646.277,109.5Z" transform="translate(-643.358 -101.76)" fill="#446799"/>
              <path id="Trazado_824673" data-name="Trazado 824673" d="M658.2,127.379l-.949-1.161a7.009,7.009,0,0,1,10.708.264l-1,1.11A5.763,5.763,0,0,0,658.2,127.379Z" transform="translate(-653.378 -117.301)" fill="#446799"/>
            </g>
          </g>
          <g id="Grupo_1075802" data-name="Grupo 1075802" transform="translate(179.294 71.195)">
            <ellipse id="Elipse_9859" data-name="Elipse 9859" cx="1.587" cy="1.706" rx="1.587" ry="1.706" transform="translate(4.702 7.427)" fill="#5581bf"/>
            <g id="Grupo_1075801" data-name="Grupo 1075801">
              <path id="Trazado_824674" data-name="Trazado 824674" d="M1121.982,419.5l-.674-.824a8.592,8.592,0,0,1,13.257.336l-.71.788A7.707,7.707,0,0,0,1121.982,419.5Z" transform="translate(-1121.308 -415.71)" fill="#5581bf"/>
              <path id="Trazado_824675" data-name="Trazado 824675" d="M1130.731,432.607l-.673-.824a6.755,6.755,0,0,1,10.384.26l-.71.788A5.87,5.87,0,0,0,1130.731,432.607Z" transform="translate(-1128.659 -427.109)" fill="#5581bf"/>
              <path id="Trazado_824676" data-name="Trazado 824676" d="M1139.2,445.3l-.673-.824a4.976,4.976,0,0,1,7.6.188l-.71.788A4.091,4.091,0,0,0,1139.2,445.3Z" transform="translate(-1135.775 -438.142)" fill="#5581bf"/>
            </g>
          </g>
          <g id="Grupo_1075804" data-name="Grupo 1075804" transform="translate(263.714 21.862)">
            <ellipse id="Elipse_9860" data-name="Elipse 9860" cx="1.587" cy="1.706" rx="1.587" ry="1.706" transform="translate(4.702 7.427)" fill="#5581bf"/>
            <g id="Grupo_1075803" data-name="Grupo 1075803">
              <path id="Trazado_824677" data-name="Trazado 824677" d="M1649.951,132.545l-.674-.824a8.592,8.592,0,0,1,13.257.336l-.71.788A7.707,7.707,0,0,0,1649.951,132.545Z" transform="translate(-1649.278 -128.759)" fill="#5581bf"/>
              <path id="Trazado_824678" data-name="Trazado 824678" d="M1658.7,145.656l-.674-.824a6.755,6.755,0,0,1,10.384.26l-.71.788A5.87,5.87,0,0,0,1658.7,145.656Z" transform="translate(-1656.629 -140.158)" fill="#5581bf"/>
              <path id="Trazado_824679" data-name="Trazado 824679" d="M1667.161,158.346l-.673-.824a4.976,4.976,0,0,1,7.6.188l-.71.788A4.091,4.091,0,0,0,1667.161,158.346Z" transform="translate(-1663.736 -151.191)" fill="#5581bf"/>
            </g>
          </g>
          <g id="Grupo_1075806" data-name="Grupo 1075806" transform="translate(-53.2 126.571)">
            <ellipse id="Elipse_9861" data-name="Elipse 9861" cx="3.377" cy="3.631" rx="3.377" ry="3.631" transform="translate(10.01 15.809)" fill="#446799"/>
            <g id="Grupo_1075805" data-name="Grupo 1075805">
              <path id="Trazado_824680" data-name="Trazado 824680" d="M-331.278,745.873l-1.434-1.755c8.04-8.677,20.572-8.357,28.218.715l-1.512,1.677C-312.861,738.406-324.072,738.12-331.278,745.873Z" transform="translate(332.712 -737.814)" fill="#446799"/>
              <path id="Trazado_824681" data-name="Trazado 824681" d="M-312.659,773.78l-1.434-1.755c6.308-6.758,16.1-6.51,22.1.554l-1.512,1.677A12.494,12.494,0,0,0-312.659,773.78Z" transform="translate(317.07 -762.078)" fill="#446799"/>
              <path id="Trazado_824682" data-name="Trazado 824682" d="M-294.635,800.792l-1.434-1.755a10.591,10.591,0,0,1,16.18.4l-1.512,1.677A8.708,8.708,0,0,0-294.635,800.792Z" transform="translate(301.928 -785.562)" fill="#446799"/>
            </g>
          </g>
          <g id="Grupo_1075808" data-name="Grupo 1075808" transform="translate(341.232 44.853)">
            <ellipse id="Elipse_9862" data-name="Elipse 9862" cx="3.377" cy="3.631" rx="3.377" ry="3.631" transform="translate(10.01 15.809)" fill="#446799"/>
            <g id="Grupo_1075807" data-name="Grupo 1075807">
              <path id="Trazado_824683" data-name="Trazado 824683" d="M2135.508,270.546l-1.434-1.755c8.04-8.677,20.572-8.357,28.218.715l-1.512,1.677C2153.924,263.079,2142.714,262.793,2135.508,270.546Z" transform="translate(-2134.074 -262.487)" fill="#446799"/>
              <path id="Trazado_824684" data-name="Trazado 824684" d="M2154.127,298.453l-1.434-1.755c6.308-6.758,16.1-6.509,22.1.554l-1.511,1.677A12.494,12.494,0,0,0,2154.127,298.453Z" transform="translate(-2149.717 -286.751)" fill="#446799"/>
              <path id="Trazado_824685" data-name="Trazado 824685" d="M2172.147,325.465l-1.434-1.754a10.591,10.591,0,0,1,16.18.4l-1.512,1.677A8.708,8.708,0,0,0,2172.147,325.465Z" transform="translate(-2164.855 -310.236)" fill="#446799"/>
            </g>
          </g>
          <g id="Grupo_1075825" data-name="Grupo 1075825" transform="translate(-176.867 186.674)">
            <g id="Grupo_1075823" data-name="Grupo 1075823" transform="translate(121.043 100.27)">
              <g id="Grupo_1075810" data-name="Grupo 1075810" transform="translate(0 27.827)">
                <path id="Trazado_824761" data-name="Trazado 824761" d="M0,0,18.883-.059l-.275,81.4L-.275,81.4Z" transform="translate(0 26.569) rotate(-87.421)" fill="#241f3c"/>
                <path id="Trazado_824686" data-name="Trazado 824686" d="M4.766,1853.412l-.926,22.115a15.947,15.947,0,0,0,12.345,7.029l14.879.678,1.4-34.952-14.879-.679A15.722,15.722,0,0,0,4.766,1853.412Z" transform="translate(52.598 -1844.997)" fill="#4c73ab"/>
                <g id="Grupo_1075809" data-name="Grupo 1075809" transform="translate(83.472 0)">
                  <path id="Trazado_824762" data-name="Trazado 824762" d="M0,0,41.342-.13l-.016,4.666-41.342.13Z" transform="translate(0 41.307) rotate(-87.421)" fill="#241f3c"/>
                </g>
              </g>
              <g id="Grupo_1075822" data-name="Grupo 1075822" transform="translate(88.248)">
                <g id="Grupo_1075821" data-name="Grupo 1075821">
                  <path id="Trazado_824687" data-name="Trazado 824687" d="M389.128,2151.317l-.443,5.95-42.778,6.662,1.209-16.229Z" transform="translate(-323.022 -2065.688)" fill="#241f3c"/>
                  <path id="Trazado_824688" data-name="Trazado 824688" d="M453.3,1710.655l.283-5.962-41.6-12.6-.77,16.26Z" transform="translate(-377.877 -1688.405)" fill="#241f3c"/>
                  <path id="Trazado_824689" data-name="Trazado 824689" d="M218.524,1815.367l-1.451,34.669a7.4,7.4,0,0,1-7.464,7.334h0a7.514,7.514,0,0,1-6.821-8.025l1.451-34.669a7.4,7.4,0,0,1,7.464-7.334h0A7.513,7.513,0,0,1,218.524,1815.367Z" transform="translate(-202.781 -1783.837)" fill="#4c73ab"/>
                  <g id="Grupo_1075815" data-name="Grupo 1075815" transform="translate(0.101 59.946)">
                    <path id="Trazado_824690" data-name="Trazado 824690" d="M205.822,2020.7a6.926,6.926,0,0,0-1.244,9.1l16.333,24.289a9.758,9.758,0,0,0,15.659,1.274h0a11.509,11.509,0,0,0-1.125-16.3l-22.159-18.351a5.794,5.794,0,0,0-7.464-.014Z" transform="translate(-203.415 -2019.346)" fill="#4c73ab"/>
                    <g id="Grupo_1075812" data-name="Grupo 1075812" transform="translate(21.671 23.779)">
                      <g id="Grupo_1075811" data-name="Grupo 1075811">
                        <path id="Trazado_824691" data-name="Trazado 824691" d="M340.154,2164.919a3.792,3.792,0,0,0,6.285-1.316,4.447,4.447,0,0,0-.865-4.774,3.792,3.792,0,0,0-6.285,1.316A4.447,4.447,0,0,0,340.154,2164.919Z" transform="translate(-338.944 -2157.663)" fill="#241f3c"/>
                      </g>
                    </g>
                    <g id="Grupo_1075814" data-name="Grupo 1075814" transform="translate(3.594 3.818)">
                      <g id="Grupo_1075813" data-name="Grupo 1075813">
                        <path id="Trazado_824692" data-name="Trazado 824692" d="M226.823,2047.127a2.913,2.913,0,0,0,4.829-1.011,3.416,3.416,0,0,0-.665-3.667,2.913,2.913,0,0,0-4.829,1.011A3.416,3.416,0,0,0,226.823,2047.127Z" transform="translate(-225.893 -2041.552)" fill="#241f3c"/>
                      </g>
                    </g>
                  </g>
                  <g id="Grupo_1075820" data-name="Grupo 1075820" transform="translate(1.565)">
                    <path id="Trazado_824693" data-name="Trazado 824693" d="M214.623,1706.723a6.945,6.945,0,0,1-.61-9.172l17.971-22.913a9.749,9.749,0,0,1,15.7-.016h0a11.478,11.478,0,0,1-2.251,16.161l-23.369,16.525a5.8,5.8,0,0,1-7.445-.584Z" transform="translate(-212.569 -1670.659)" fill="#4c73ab"/>
                    <g id="Grupo_1075817" data-name="Grupo 1075817" transform="translate(3.64 27.566)">
                      <g id="Grupo_1075816" data-name="Grupo 1075816">
                        <path id="Trazado_824694" data-name="Trazado 824694" d="M237.405,1837.314a3.063,3.063,0,0,0,3.952-3.15,3.221,3.221,0,0,0-2.07-3,3.063,3.063,0,0,0-3.952,3.15A3.219,3.219,0,0,0,237.405,1837.314Z" transform="translate(-235.335 -1831.001)" fill="#241f3c"/>
                      </g>
                    </g>
                    <g id="Grupo_1075819" data-name="Grupo 1075819" transform="translate(23.109 7.198)">
                      <g id="Grupo_1075818" data-name="Grupo 1075818">
                        <path id="Trazado_824695" data-name="Trazado 824695" d="M359.789,1720.745a3.987,3.987,0,0,0,5.144-4.1,4.192,4.192,0,0,0-2.694-3.907,3.986,3.986,0,0,0-5.144,4.1A4.192,4.192,0,0,0,359.789,1720.745Z" transform="translate(-357.094 -1712.528)" fill="#241f3c"/>
                      </g>
                    </g>
                  </g>
                </g>
              </g>
            </g>
            <path id="Trazado_824763" data-name="Trazado 824763" d="M0,0,30.31-1.1,26.9,93.726l-30.31,1.1Z" transform="matrix(0.738, -0.674, 0.674, 0.738, 53.582, 83.144)" fill="#241f3c"/>
            <path id="Trazado_824696" data-name="Trazado 824696" d="M-1057.929,1192.014l-39.805-46.84c-11.951-14.063-11.036-35.88,2.044-48.729h0c13.079-12.849,33.371-11.866,45.322,2.2l39.805,46.84Z" transform="translate(1106.131 -1087.417)" fill="#446799"/>
            <path id="Trazado_824697" data-name="Trazado 824697" d="M-629.594,1665.62l-28.051-33.008,47.365-46.532,28.051,33.008c11.951,14.063,11.036,35.88-2.044,48.729h0C-597.352,1680.668-617.643,1679.683-629.594,1665.62Z" transform="translate(729.357 -1500.35)" fill="#4c73ab"/>
            <g id="Grupo_1075824" data-name="Grupo 1075824" transform="translate(107.441 124.443)">
              <path id="Trazado_824698" data-name="Trazado 824698" d="M-424.39,1845.935c-8.46-4.21-12.156-15.036-8.24-24.131s13.984-13.07,22.444-8.86,12.156,15.036,8.24,24.132S-415.93,1850.145-424.39,1845.935Zm11.214-26.046c-4.9-2.438-10.728-.136-13,5.13s-.127,11.535,4.771,13.973,10.728.137,13-5.13S-408.277,1822.327-413.176,1819.889Z" transform="translate(434.193 -1811.263)" fill="#241f3c"/>
            </g>
          </g>
          <g id="Grupo_1075842" data-name="Grupo 1075842" transform="translate(290.871 187.969)">
            <g id="Grupo_1075840" data-name="Grupo 1075840" transform="translate(0 96.927)">
              <g id="Grupo_1075827" data-name="Grupo 1075827" transform="translate(73.808 28.649)">
                <path id="Trazado_824764" data-name="Trazado 824764" d="M0,0,81.389-.125,81.362,18.76l-81.389.125Z" transform="translate(7.504 11.716) rotate(-1.175)" fill="#241f3c"/>
                <path id="Trazado_824699" data-name="Trazado 824699" d="M2337.78,1849.039l.422,22.132a15.88,15.88,0,0,1-12.5,6.7l-14.89.287-.607-34.979,14.89-.287A15.787,15.787,0,0,1,2337.78,1849.039Z" transform="translate(-2305.489 -1839.881)" fill="#4c73ab"/>
                <g id="Grupo_1075826" data-name="Grupo 1075826" transform="translate(0 0)">
                  <path id="Trazado_824765" data-name="Trazado 824765" d="M0,0,4.665-.007,4.606,41.34l-4.665.007Z" transform="translate(0 0.103) rotate(-1.175)" fill="#241f3c"/>
                </g>
              </g>
              <g id="Grupo_1075839" data-name="Grupo 1075839">
                <g id="Grupo_1075838" data-name="Grupo 1075838">
                  <path id="Trazado_824700" data-name="Trazado 824700" d="M1869.23,2138.89l.307,5.96,42.614,7.784-.839-16.255Z" transform="translate(-1861.218 -2054.264)" fill="#241f3c"/>
                  <path id="Trazado_824701" data-name="Trazado 824701" d="M1819.267,1696.842l-.147-5.967,41.879-11.5.4,16.276Z" transform="translate(-1819.12 -1675.823)" fill="#241f3c"/>
                  <path id="Trazado_824702" data-name="Trazado 824702" d="M2191.8,1806.313l.661,34.7a7.428,7.428,0,0,0,7.295,7.528h0a7.482,7.482,0,0,0,7-7.843l-.661-34.7a7.429,7.429,0,0,0-7.3-7.529h0A7.482,7.482,0,0,0,2191.8,1806.313Z" transform="translate(-2132.21 -1774.446)" fill="#4c73ab"/>
                  <g id="Grupo_1075832" data-name="Grupo 1075832" transform="translate(37.932 60.523)">
                    <path id="Trazado_824703" data-name="Trazado 824703" d="M2090.563,2012.241a6.934,6.934,0,0,1,1.036,9.127l-16.881,23.852a9.754,9.754,0,0,1-15.684.862h0a11.5,11.5,0,0,1,1.5-16.262l22.57-17.762a5.793,5.793,0,0,1,7.462.183Z" transform="translate(-2056.35 -2010.786)" fill="#4c73ab"/>
                    <g id="Grupo_1075829" data-name="Grupo 1075829" transform="translate(6.508 23.261)">
                      <g id="Grupo_1075828" data-name="Grupo 1075828">
                        <path id="Trazado_824704" data-name="Trazado 824704" d="M2104.587,2148.665a3.8,3.8,0,0,0-6.253-1.481,4.438,4.438,0,0,0-.974,4.749,3.8,3.8,0,0,0,6.253,1.481A4.437,4.437,0,0,0,2104.587,2148.665Z" transform="translate(-2097.053 -2146.087)" fill="#241f3c"/>
                      </g>
                    </g>
                    <g id="Grupo_1075831" data-name="Grupo 1075831" transform="translate(26.874 3.805)">
                      <g id="Grupo_1075830" data-name="Grupo 1075830">
                        <path id="Trazado_824705" data-name="Trazado 824705" d="M2230.208,2034.9a2.918,2.918,0,0,0-4.8-1.138,3.411,3.411,0,0,0-.748,3.649,2.918,2.918,0,0,0,4.8,1.138A3.413,3.413,0,0,0,2230.208,2034.9Z" transform="translate(-2224.42 -2032.921)" fill="#241f3c"/>
                      </g>
                    </g>
                  </g>
                  <g id="Grupo_1075837" data-name="Grupo 1075837" transform="translate(36.776)">
                    <path id="Trazado_824706" data-name="Trazado 824706" d="M2083.951,1695.46a6.941,6.941,0,0,0,.819-9.153l-17.443-23.38a9.75,9.75,0,0,0-15.7-.43h0a11.49,11.49,0,0,0,1.882,16.215l22.986,17.135a5.8,5.8,0,0,0,7.456-.388Z" transform="translate(-2049.116 -1658.74)" fill="#4c73ab"/>
                    <g id="Grupo_1075834" data-name="Grupo 1075834" transform="translate(27.347 28.104)">
                      <g id="Grupo_1075833" data-name="Grupo 1075833">
                        <path id="Trazado_824707" data-name="Trazado 824707" d="M2226.165,1825.6a3.074,3.074,0,0,0-3.879-3.253,3.207,3.207,0,0,0-2.137,2.947,3.074,3.074,0,0,0,3.879,3.253A3.206,3.206,0,0,0,2226.165,1825.6Z" transform="translate(-2220.146 -1822.21)" fill="#241f3c"/>
                      </g>
                    </g>
                    <g id="Grupo_1075836" data-name="Grupo 1075836" transform="translate(6.511 7.204)">
                      <g id="Grupo_1075835" data-name="Grupo 1075835">
                        <path id="Trazado_824708" data-name="Trazado 824708" d="M2097.669,1705.056a4,4,0,0,0-5.049-4.234,4.173,4.173,0,0,0-2.782,3.835,4,4,0,0,0,5.049,4.234A4.174,4.174,0,0,0,2097.669,1705.056Z" transform="translate(-2089.835 -1700.644)" fill="#241f3c"/>
                      </g>
                    </g>
                  </g>
                </g>
              </g>
            </g>
            <path id="Trazado_824766" data-name="Trazado 824766" d="M0,0,94.656-3.422l-1.1,30.364L-1.1,30.364Z" transform="translate(147.873 133.521) rotate(-46.179)" fill="#241f3c"/>
            <path id="Trazado_824709" data-name="Trazado 824709" d="M3078.485,1199.1l40.86-45.778c12.268-13.744,11.85-35.578-.933-48.768h0c-12.783-13.19-33.09-12.741-45.358,1l-40.86,45.778Z" transform="translate(-2838.228 -1094.948)" fill="#446799"/>
            <path id="Trazado_824710" data-name="Trazado 824710" d="M2680.114,1672.465l28.794-32.26-46.291-47.765-28.794,32.259c-12.267,13.744-11.85,35.579.933,48.769h0C2647.538,1686.659,2667.845,1686.209,2680.114,1672.465Z" transform="translate(-2496.049 -1506.912)" fill="#4c73ab"/>
            <g id="Grupo_1075841" data-name="Grupo 1075841" transform="translate(143.098 124.086)">
              <path id="Trazado_824711" data-name="Trazado 824711" d="M2715.454,1842.124c-3.707-9.2.235-19.921,8.788-23.907s18.528.252,22.235,9.448-.234,19.921-8.788,23.907S2719.162,1851.32,2715.454,1842.124Zm6.531-3.045c2.146,5.325,7.922,7.779,12.875,5.471s7.235-8.518,5.089-13.843-7.923-7.779-12.875-5.471S2719.838,1833.755,2721.984,1839.079Z" transform="translate(-2714.059 -1816.717)" fill="#241f3c"/>
            </g>
          </g>
        </g>
      </g>
    </g>
  </g>
</svg>
