<svg xmlns="http://www.w3.org/2000/svg" width="345.049" height="347" viewBox="0 0 345.049 347">
  <g id="icono34" transform="translate(-20.2 -13.1)">
    <g id="Grupo_1076307" data-name="Grupo 1076307" transform="translate(223.45 268.656)">
      <g id="Grupo_1076306" data-name="Grupo 1076306">
        <g id="Grupo_1076305" data-name="Grupo 1076305">
          <g id="Grupo_1076304" data-name="Grupo 1076304">
            <rect id="Rectángulo_383703" data-name="Rectángulo 383703" width="115.463" height="75.228" fill="#9090f6"/>
            <rect id="Rectángulo_383704" data-name="Rectángulo 383704" width="102.539" height="64.011" transform="translate(6.462 5.609)" fill="#fff"/>
          </g>
        </g>
      </g>
      <rect id="Rectángulo_383705" data-name="Rectángulo 383705" width="29.75" height="3.048" transform="translate(15.728 13.29)" fill="#c5c5ff"/>
      <rect id="Rectángulo_383706" data-name="Rectángulo 383706" width="29.75" height="3.048" transform="translate(15.728 20.849)" fill="#c5c5ff"/>
      <rect id="Rectángulo_383707" data-name="Rectángulo 383707" width="29.75" height="3.048" transform="translate(15.728 28.287)" fill="#c5c5ff"/>
      <rect id="Rectángulo_383708" data-name="Rectángulo 383708" width="29.75" height="3.048" transform="translate(15.728 35.846)" fill="#c5c5ff"/>
      <rect id="Rectángulo_383709" data-name="Rectángulo 383709" width="29.75" height="3.048" transform="translate(15.728 43.405)" fill="#c5c5ff"/>
      <rect id="Rectángulo_383710" data-name="Rectángulo 383710" width="29.75" height="3.048" transform="translate(15.728 50.843)" fill="#c5c5ff"/>
      <rect id="Rectángulo_383711" data-name="Rectángulo 383711" width="86.079" height="3.048" transform="translate(15.728 58.524)" fill="#c5c5ff"/>
      <rect id="Rectángulo_383712" data-name="Rectángulo 383712" width="5.365" height="38.406" transform="translate(53.403 16.338)" fill="#c5c5ff"/>
      <rect id="Rectángulo_383713" data-name="Rectángulo 383713" width="5.365" height="27.433" transform="translate(66.327 27.311)" fill="#c5c5ff"/>
      <rect id="Rectángulo_383714" data-name="Rectángulo 383714" width="5.365" height="33.164" transform="translate(79.13 21.459)" fill="#c5c5ff"/>
      <rect id="Rectángulo_383715" data-name="Rectángulo 383715" width="5.365" height="20.24" transform="translate(91.932 34.505)" fill="#c5c5ff"/>
      <rect id="Rectángulo_383716" data-name="Rectángulo 383716" width="5.365" height="7.681" transform="translate(91.932 34.505)" fill="#ff325c"/>
      <rect id="Rectángulo_383717" data-name="Rectángulo 383717" width="5.365" height="6.218" transform="translate(53.403 16.338)" fill="#ff325c"/>
      <rect id="Rectángulo_383718" data-name="Rectángulo 383718" width="5.365" height="6.218" transform="translate(79.13 21.459)" fill="#726ccd"/>
      <rect id="Rectángulo_383719" data-name="Rectángulo 383719" width="5.365" height="9.51" transform="translate(66.327 27.311)" fill="#ffc400"/>
      <path id="Trazado_825300" data-name="Trazado 825300" d="M232.6,231.4l13.29,15.85,12.436-10.729,13.168,17.557" transform="translate(-176.88 -220.792)" fill="none" stroke="#9090f6" stroke-miterlimit="10" stroke-width="1"/>
    </g>
    <g id="Grupo_1076309" data-name="Grupo 1076309" transform="translate(287.582 182.698)">
      <path id="Trazado_825301" data-name="Trazado 825301" d="M273.4,152.2H244.621a5.152,5.152,0,0,0-5.121,5.121V186.1a5.152,5.152,0,0,0,5.121,5.121H273.4a5.152,5.152,0,0,0,5.121-5.121V157.321A5.152,5.152,0,0,0,273.4,152.2Z" transform="translate(-239.5 -152.2)" fill="#726ccd"/>
      <rect id="Rectángulo_383720" data-name="Rectángulo 383720" width="32.92" height="27.189" transform="translate(3.048 7.681)" fill="#ffc400"/>
      <g id="Grupo_1076308" data-name="Grupo 1076308" transform="translate(11.217 11.095)">
        <path id="Trazado_825302" data-name="Trazado 825302" d="M260.579,165.689a4.389,4.389,0,1,1-4.389-4.389A4.371,4.371,0,0,1,260.579,165.689Z" transform="translate(-248.02 -161.3)" fill="#fff"/>
        <path id="Trazado_825303" data-name="Trazado 825303" d="M265.282,180.539H248.7v-3.048a8.3,8.3,0,0,1,8.291-8.291h0a8.3,8.3,0,0,1,8.291,8.291Z" transform="translate(-248.7 -159.568)" fill="#fff"/>
      </g>
      <path id="Trazado_825304" data-name="Trazado 825304" d="M243.951,155.675a.975.975,0,1,1-.975-.975A1.049,1.049,0,0,1,243.951,155.675Z" transform="translate(-238.952 -151.652)" fill="#fff"/>
      <path id="Trazado_825305" data-name="Trazado 825305" d="M246.951,155.675a.975.975,0,1,1-.975-.975A1.049,1.049,0,0,1,246.951,155.675Z" transform="translate(-238.294 -151.652)" fill="#fff"/>
      <path id="Trazado_825306" data-name="Trazado 825306" d="M249.851,155.675a.975.975,0,1,1-.975-.975A.962.962,0,0,1,249.851,155.675Z" transform="translate(-237.658 -151.652)" fill="#fff"/>
    </g>
    <path id="Trazado_825307" data-name="Trazado 825307" d="M107.18,66.869l3.414-13.9-8.657-2.195a32,32,0,0,0-1.463-8.291l7.925-4.755-7.316-12.193-8.047,4.877a28.343,28.343,0,0,0-6.584-4.755l2.317-9.144L74.87,13.1l-2.195,9.022a30.032,30.032,0,0,0-8.169,1.1l-4.755-7.8L47.558,22.732,52.07,30.17a31.4,31.4,0,0,0-5.487,6.95l-8.169-2.073L35,48.946,42.681,50.9A29.335,29.335,0,0,0,43.9,60.163l-6.584,3.9,7.316,12.193,6.34-3.9a27.506,27.506,0,0,0,7.681,5.73L56.947,85.4l13.9,3.414L72.675,81.5a29.571,29.571,0,0,0,9.266-1.585l4.024,6.706,12.193-7.316L93.89,72.234a30.4,30.4,0,0,0,5.121-7.316ZM85.6,58.334a20.049,20.049,0,0,1-1.707,2.682,15.325,15.325,0,0,1-7.437,4.877,18.929,18.929,0,0,1-2.56.488,14.562,14.562,0,0,1-5.121-.366,16.7,16.7,0,0,1-4.267-1.829c-.732-.488-1.341-.975-1.951-1.463A15.086,15.086,0,0,1,57.8,54.433a19.938,19.938,0,0,1-.244-2.682,18.608,18.608,0,0,1,.366-3.658,17.847,17.847,0,0,1,2.073-4.633,11.089,11.089,0,0,1,2.195-2.56A14.846,14.846,0,0,1,68.9,37.363a13.7,13.7,0,0,1,3.9-.488,14.057,14.057,0,0,1,3.17.366,16.565,16.565,0,0,1,3.414,1.341,12.824,12.824,0,0,1,3.292,2.439,14.73,14.73,0,0,1,3.78,5.852,18.861,18.861,0,0,1,.732,3.78,15.187,15.187,0,0,1-.366,4.633A22.69,22.69,0,0,1,85.6,58.334Z" transform="translate(3.245)" fill="#8080ff"/>
    <path id="Trazado_825308" data-name="Trazado 825308" d="M309.108,135.457l2.073-8.169-5.121-1.219a16.389,16.389,0,0,0-.853-4.877l4.633-2.8-4.267-7.194-4.755,2.8a16.9,16.9,0,0,0-3.78-2.8l1.341-5.365L290.21,104l-1.341,5.243a19.508,19.508,0,0,0-4.755.61l-2.682-4.511-7.194,4.267L276.8,114a20.039,20.039,0,0,0-3.17,4.024l-4.755-1.219-2.073,8.169,4.511,1.1a17.012,17.012,0,0,0,.732,5.487l-3.9,2.317,4.267,7.194,3.78-2.195a20.916,20.916,0,0,0,4.511,3.414l-1.1,4.267,8.169,2.073,1.1-4.267a17.356,17.356,0,0,0,5.487-.975l2.317,3.9,7.194-4.267-2.439-4.145a14.767,14.767,0,0,0,2.926-4.267Zm-12.68-5a6.914,6.914,0,0,1-.975,1.585,9.045,9.045,0,0,1-4.389,2.926,6.119,6.119,0,0,1-1.463.244,8.66,8.66,0,0,1-3.048-.122,8.8,8.8,0,0,1-2.439-1.1,6.7,6.7,0,0,1-1.1-.853,8.263,8.263,0,0,1-2.8-4.877,6.953,6.953,0,0,1-.122-1.585,6.751,6.751,0,0,1,.244-2.195,9.015,9.015,0,0,1,1.219-2.682,4.879,4.879,0,0,1,1.219-1.463,9.3,9.3,0,0,1,3.9-2.073,13.506,13.506,0,0,1,2.317-.244,9.413,9.413,0,0,1,1.829.244,5.6,5.6,0,0,1,1.951.853,7.438,7.438,0,0,1,1.951,1.463A9.143,9.143,0,0,1,296.916,124a6.9,6.9,0,0,1,.366,2.195,6.706,6.706,0,0,1-.244,2.682A5.223,5.223,0,0,1,296.428,130.458Z" transform="translate(54.068 19.93)" fill="#8080ff"/>
    <g id="Grupo_1076320" data-name="Grupo 1076320" transform="translate(59.338 55.164)">
      <g id="Grupo_1076313" data-name="Grupo 1076313" transform="translate(0 0)">
        <g id="Grupo_1076312" data-name="Grupo 1076312">
          <g id="Grupo_1076311" data-name="Grupo 1076311">
            <g id="Grupo_1076310" data-name="Grupo 1076310">
              <path id="Trazado_825309" data-name="Trazado 825309" d="M182.029,47.6H78.392A26.122,26.122,0,0,0,52.3,73.692V326.443a26.122,26.122,0,0,0,26.092,26.092H182.029a26.122,26.122,0,0,0,26.092-26.092V73.692A25.966,25.966,0,0,0,182.029,47.6Z" transform="translate(-52.3 -47.6)" fill="#4236a4"/>
              <rect id="Rectángulo_383721" data-name="Rectángulo 383721" width="143.14" height="250.069" transform="translate(6.462 23.41)" fill="#eff0ff"/>
              <rect id="Rectángulo_383722" data-name="Rectángulo 383722" width="35.358" height="3.048" transform="translate(60.353 10.729)" fill="#fff"/>
              <path id="Trazado_825310" data-name="Trazado 825310" d="M125.406,286.1a7.8,7.8,0,1,1-7.8-7.8A7.7,7.7,0,0,1,125.406,286.1Z" transform="translate(-39.693 2.982)" fill="#fff"/>
            </g>
          </g>
        </g>
      </g>
      <g id="Grupo_1076315" data-name="Grupo 1076315" transform="translate(21.093 53.403)">
        <g id="Grupo_1076314" data-name="Grupo 1076314">
          <rect id="Rectángulo_383723" data-name="Rectángulo 383723" width="110.83" height="67.181" fill="#9090f6"/>
          <rect id="Rectángulo_383724" data-name="Rectángulo 383724" width="98.15" height="56.33" transform="translate(6.096 5.365)" fill="#fff"/>
        </g>
        <path id="Trazado_825311" data-name="Trazado 825311" d="M77.7,147.427,98.062,103.9l24.995,31.213L136.1,117.8l32.31,29.628Z" transform="translate(-67.824 -88.659)" fill="#726ccd"/>
        <circle id="Elipse_9882" data-name="Elipse 9882" cx="7.559" cy="7.559" r="7.559" transform="translate(77.057 12.071)" fill="#ffc400"/>
      </g>
      <g id="Grupo_1076319" data-name="Grupo 1076319" transform="translate(18.827 137.719)">
        <g id="Grupo_1076316" data-name="Grupo 1076316" transform="translate(35.576 96.303)">
          <rect id="Rectángulo_383725" data-name="Rectángulo 383725" width="82.665" height="1.951" transform="translate(82.665 21.764) rotate(180)" fill="#b8c3ff"/>
          <rect id="Rectángulo_383726" data-name="Rectángulo 383726" width="82.665" height="1.951" transform="translate(82.665 11.857) rotate(180)" fill="#b8c3ff"/>
          <rect id="Rectángulo_383727" data-name="Rectángulo 383727" width="82.665" height="1.951" transform="translate(82.665 1.951) rotate(180)" fill="#b8c3ff"/>
        </g>
        <rect id="Rectángulo_383728" data-name="Rectángulo 383728" width="30.237" height="30.237" transform="translate(30.237 122.303) rotate(180)" fill="#b8c3ff"/>
        <g id="Grupo_1076317" data-name="Grupo 1076317" transform="translate(35.576 50.802)">
          <rect id="Rectángulo_383729" data-name="Rectángulo 383729" width="37.919" height="1.951" transform="translate(37.956 21.764) rotate(180)" fill="#b8c3ff"/>
          <rect id="Rectángulo_383730" data-name="Rectángulo 383730" width="82.665" height="1.951" transform="translate(82.665 11.857) rotate(180)" fill="#b8c3ff"/>
          <rect id="Rectángulo_383731" data-name="Rectángulo 383731" width="82.665" height="1.951" transform="translate(82.665 1.951) rotate(180)" fill="#b8c3ff"/>
        </g>
        <rect id="Rectángulo_383732" data-name="Rectángulo 383732" width="30.237" height="30.237" transform="translate(30.237 76.803) rotate(180)" fill="#b8c3ff"/>
        <g id="Grupo_1076318" data-name="Grupo 1076318" transform="translate(35.576 4.237)">
          <rect id="Rectángulo_383733" data-name="Rectángulo 383733" width="82.665" height="1.951" transform="translate(82.665 21.764) rotate(180)" fill="#b8c3ff"/>
          <rect id="Rectángulo_383734" data-name="Rectángulo 383734" width="82.665" height="1.951" transform="translate(82.665 11.857) rotate(180)" fill="#b8c3ff"/>
          <rect id="Rectángulo_383735" data-name="Rectángulo 383735" width="82.665" height="1.951" transform="translate(82.665 1.951) rotate(180)" fill="#b8c3ff"/>
        </g>
        <rect id="Rectángulo_383736" data-name="Rectángulo 383736" width="30.237" height="30.237" transform="translate(30.237 30.237) rotate(180)" fill="#b8c3ff"/>
      </g>
    </g>
    <g id="Grupo_1076326" data-name="Grupo 1076326" transform="translate(162.365 191.721)">
      <rect id="Rectángulo_383737" data-name="Rectángulo 383737" width="52.794" height="68.278" transform="translate(0 4.024)" fill="#4236a4" opacity="0.29"/>
      <g id="Grupo_1076325" data-name="Grupo 1076325" transform="translate(3.658)">
        <g id="Grupo_1076324" data-name="Grupo 1076324">
          <rect id="Rectángulo_383738" data-name="Rectángulo 383738" width="108.757" height="68.888" fill="#f9fffb"/>
          <g id="Grupo_1076322" data-name="Grupo 1076322" transform="translate(33.286 9.022)">
            <g id="Grupo_1076321" data-name="Grupo 1076321">
              <path id="Trazado_825312" data-name="Trazado 825312" d="M187.462,207.723a20.362,20.362,0,1,1,20.362-20.362A20.4,20.4,0,0,1,187.462,207.723Zm0-38.772a18.533,18.533,0,1,0,18.533,18.533A18.524,18.524,0,0,0,187.462,168.951Z" transform="translate(-167.1 -167)" fill="#ff325c"/>
            </g>
            <path id="Trazado_825313" data-name="Trazado 825313" d="M197.355,185.761,178.7,174.3v23.044Z" transform="translate(-164.557 -165.399)" fill="#ff325c"/>
          </g>
          <g id="Grupo_1076323" data-name="Grupo 1076323" transform="translate(2.804 58.036)">
            <rect id="Rectángulo_383739" data-name="Rectángulo 383739" width="103.393" height="7.437" fill="#726ccd"/>
            <path id="Trazado_825314" data-name="Trazado 825314" d="M148.1,210.739l-3.9-2.439v4.877Z" transform="translate(-141.64 -206.959)" fill="#f9fffb"/>
            <path id="Trazado_825315" data-name="Trazado 825315" d="M191.033,210.717a2.317,2.317,0,1,1-2.317-2.317A2.242,2.242,0,0,1,191.033,210.717Z" transform="translate(-132.387 -206.937)" fill="#f9fffb"/>
          </g>
        </g>
        <line id="Línea_611" data-name="Línea 611" x2="94.492" transform="translate(9.266 61.816)" fill="none" stroke="#f9fffb" stroke-miterlimit="10" stroke-width="1"/>
      </g>
    </g>
    <g id="Grupo_1076328" data-name="Grupo 1076328" transform="translate(224.547 136.123)">
      <rect id="Rectángulo_383740" data-name="Rectángulo 383740" width="89.615" height="35.358" fill="#5656bf"/>
      <g id="Grupo_1076327" data-name="Grupo 1076327" transform="translate(11.827 11.095)">
        <rect id="Rectángulo_383741" data-name="Rectángulo 383741" width="66.815" height="3.048" fill="#fff"/>
        <rect id="Rectángulo_383742" data-name="Rectángulo 383742" width="66.815" height="3.048" transform="translate(0 6.828)" fill="#fff"/>
        <rect id="Rectángulo_383743" data-name="Rectángulo 383743" width="45.478" height="3.048" transform="translate(0 13.778)" fill="#fff"/>
      </g>
    </g>
    <g id="Grupo_1076336" data-name="Grupo 1076336" transform="translate(192.602 41.509)">
      <g id="Grupo_1076331" data-name="Grupo 1076331">
        <g id="Grupo_1076330" data-name="Grupo 1076330">
          <path id="Trazado_825316" data-name="Trazado 825316" d="M184.278,116.932H161.6V47.8c12.071,1.707,22.678,10.729,22.678,23.166Z" transform="translate(-161.6 -33.901)" fill="#4236a4" opacity="0.19"/>
          <g id="Grupo_1076329" data-name="Grupo 1076329" transform="translate(3.78)">
            <rect id="Rectángulo_383744" data-name="Rectángulo 383744" width="120.584" height="78.642" fill="#9090f6"/>
            <rect id="Rectángulo_383745" data-name="Rectángulo 383745" width="107.05" height="66.815" transform="translate(6.706 5.852)" fill="#fff"/>
          </g>
        </g>
      </g>
      <g id="Grupo_1076332" data-name="Grupo 1076332" transform="translate(60.231 9.998)">
        <path id="Trazado_825317" data-name="Trazado 825317" d="M234.7,51.7h-.732A16.027,16.027,0,0,0,218,67.672a15.318,15.318,0,0,0,3.414,9.754" transform="translate(-209.465 -43.043)" fill="none"/>
        <path id="Trazado_825318" data-name="Trazado 825318" d="M246.819,69.4a9.226,9.226,0,0,0,.122-1.829A16.054,16.054,0,0,0,231.7,51.6" transform="translate(-206.461 -43.065)" fill="none"/>
        <path id="Trazado_825319" data-name="Trazado 825319" d="M220.8,74.225A15.9,15.9,0,0,0,249.209,66.3" transform="translate(-208.851 -39.842)" fill="none"/>
        <path id="Trazado_825320" data-name="Trazado 825320" d="M232.675,44.7l-.975,8.413a15.885,15.885,0,0,1,15.241,15.972,9.229,9.229,0,0,1-.122,1.829l8.413,1.585a29.9,29.9,0,0,0,.244-3.292A24.617,24.617,0,0,0,232.675,44.7Z" transform="translate(-206.461 -44.578)" fill="#ff325c"/>
        <path id="Trazado_825321" data-name="Trazado 825321" d="M234.3,80.365a15.824,15.824,0,0,1-12.558-6.218L216.5,81.1a24.39,24.39,0,0,0,42.064-13.412L250.151,66.1A15.977,15.977,0,0,1,234.3,80.365Z" transform="translate(-209.794 -39.886)" fill="#5656bf"/>
        <path id="Trazado_825322" data-name="Trazado 825322" d="M219.535,69.107a16.027,16.027,0,0,1,15.972-15.972h.732l.975-8.413c-.61,0-1.1-.122-1.707-.122a24.5,24.5,0,0,0-17.923,41.211l5.243-6.95A16.18,16.18,0,0,1,219.535,69.107Z" transform="translate(-211 -44.6)" fill="#ffc400"/>
      </g>
      <g id="Grupo_1076333" data-name="Grupo 1076333" transform="translate(20.362 62.792)">
        <path id="Trazado_825323" data-name="Trazado 825323" d="M193.785,91.882H179.641a1.353,1.353,0,0,1-1.341-1.341h0a1.353,1.353,0,0,1,1.341-1.341h14.143Z" transform="translate(-178.3 -87.615)" fill="#c5c5ff"/>
        <circle id="Elipse_9883" data-name="Elipse 9883" cx="2.804" cy="2.804" r="2.804" transform="translate(12.436)" fill="#ff325c"/>
      </g>
      <g id="Grupo_1076334" data-name="Grupo 1076334" transform="translate(55.842 62.792)">
        <path id="Trazado_825324" data-name="Trazado 825324" d="M222.885,91.882H208.741a1.353,1.353,0,0,1-1.341-1.341h0a1.353,1.353,0,0,1,1.341-1.341h14.143Z" transform="translate(-207.4 -87.615)" fill="#c5c5ff"/>
        <circle id="Elipse_9884" data-name="Elipse 9884" cx="2.804" cy="2.804" r="2.804" transform="translate(12.436)" fill="#ffc400"/>
      </g>
      <g id="Grupo_1076335" data-name="Grupo 1076335" transform="translate(91.2 62.792)">
        <path id="Trazado_825325" data-name="Trazado 825325" d="M251.885,91.882H237.741a1.353,1.353,0,0,1-1.341-1.341h0a1.353,1.353,0,0,1,1.341-1.341h14.143Z" transform="translate(-236.4 -87.615)" fill="#c5c5ff"/>
        <circle id="Elipse_9885" data-name="Elipse 9885" cx="2.804" cy="2.804" r="2.804" transform="translate(12.436)" fill="#5656bf"/>
      </g>
      <rect id="Rectángulo_383746" data-name="Rectángulo 383746" width="31.091" height="3.17" transform="translate(20.24 13.899)" fill="#c5c5ff"/>
      <rect id="Rectángulo_383747" data-name="Rectángulo 383747" width="31.091" height="3.17" transform="translate(20.24 21.703)" fill="#c5c5ff"/>
      <rect id="Rectángulo_383748" data-name="Rectángulo 383748" width="31.091" height="3.17" transform="translate(20.24 29.506)" fill="#c5c5ff"/>
      <rect id="Rectángulo_383749" data-name="Rectángulo 383749" width="31.091" height="3.17" transform="translate(20.24 37.431)" fill="#c5c5ff"/>
      <rect id="Rectángulo_383750" data-name="Rectángulo 383750" width="31.091" height="3.17" transform="translate(20.24 45.234)" fill="#c5c5ff"/>
      <rect id="Rectángulo_383751" data-name="Rectángulo 383751" width="31.091" height="3.17" transform="translate(20.24 53.159)" fill="#c5c5ff"/>
    </g>
    <g id="Grupo_1076340" data-name="Grupo 1076340" transform="translate(20.2 77.233)">
      <rect id="Rectángulo_383752" data-name="Rectángulo 383752" width="56.33" height="46.575" fill="#a6b2ff"/>
      <g id="Grupo_1076337" data-name="Grupo 1076337" transform="translate(6.096 12.436)">
        <path id="Trazado_825326" data-name="Trazado 825326" d="M37.149,99.8,25.2,87.971,37.271,75.9l1.951,2.073-10,10L39.1,97.725Z" transform="translate(-25.2 -75.9)" fill="#fff"/>
      </g>
      <g id="Grupo_1076338" data-name="Grupo 1076338" transform="translate(36.334 12.436)">
        <path id="Trazado_825327" data-name="Trazado 825327" d="M51.951,99.8,50,97.725l9.876-10-9.754-9.754L52.073,75.9,63.9,87.727Z" transform="translate(-50 -75.9)" fill="#fff"/>
      </g>
      <g id="Grupo_1076339" data-name="Grupo 1076339" transform="translate(22.593 13.751)">
        <rect id="Rectángulo_383753" data-name="Rectángulo 383753" width="22.678" height="2.804" transform="translate(0 20.95) rotate(-67.492)" fill="#fff"/>
      </g>
    </g>
  </g>
</svg>
